<?xml version="1.0" encoding="UTF-8" standalone="no"?>
<!-- Created with Inkscape (http://www.inkscape.org/) -->

<svg
   xmlns:dc="http://purl.org/dc/elements/1.1/"
   xmlns:cc="http://creativecommons.org/ns#"
   xmlns:rdf="http://www.w3.org/1999/02/22-rdf-syntax-ns#"
   xmlns:svg="http://www.w3.org/2000/svg"
   xmlns="http://www.w3.org/2000/svg"
   xmlns:xlink="http://www.w3.org/1999/xlink"
   xmlns:sodipodi="http://sodipodi.sourceforge.net/DTD/sodipodi-0.dtd"
   xmlns:inkscape="http://www.inkscape.org/namespaces/inkscape"
   width="32"
   height="26"
   id="svg3208"
   version="1.1"
   inkscape:version="0.48.3.1 r9886"
   sodipodi:docname="BallReceptor.svg"
   inkscape:export-filename="/home/victor/aleva/super-bombinhas/src/data/img/sprite/BallReceptor.png"
   inkscape:export-xdpi="90"
   inkscape:export-ydpi="90">
  <defs
     id="defs3">
    <linearGradient
       id="linearGradient3986">
      <stop
         style="stop-color:#ffff00;stop-opacity:1;"
         offset="0"
         id="stop3988" />
      <stop
         style="stop-color:#000000;stop-opacity:1;"
         offset="1"
         id="stop3990" />
    </linearGradient>
    <radialGradient
       inkscape:collect="always"
       xlink:href="#linearGradient3986"
       id="radialGradient3992"
       cx="16"
       cy="1033.6122"
       fx="16"
       fy="1033.6122"
       r="5"
       gradientTransform="matrix(1,0,0,0.95,0,51.68061)"
       gradientUnits="userSpaceOnUse" />
    <filter
       inkscape:collect="always"
       id="filter4004"
       x="-0.12949807"
       width="1.2589961"
       y="-0.29507332"
       height="1.5901466">
      <feGaussianBlur
         inkscape:collect="always"
         stdDeviation="1.9819091"
         id="feGaussianBlur4006" />
    </filter>
    <clipPath
       clipPathUnits="userSpaceOnUse"
       id="clipPath4010">
      <path
         sodipodi:nodetypes="cccccccc"
         inkscape:connector-curvature="0"
         id="path4012"
         d="M 2,13 0,9 13,9 15.999999,0 19,9 32,9 29.999998,13 z"
         style="fill:#007dff;fill-opacity:1;stroke:none" />
    </clipPath>
    <filter
       inkscape:collect="always"
       id="filter4016"
       x="-0.11011314"
       width="1.2202263"
       y="-0.49272173"
       height="1.9854435">
      <feGaussianBlur
         inkscape:collect="always"
         stdDeviation="1.5334089"
         id="feGaussianBlur4018" />
    </filter>
    <clipPath
       clipPathUnits="userSpaceOnUse"
       id="clipPath4022">
      <path
         sodipodi:nodetypes="cccccccc"
         inkscape:connector-curvature="0"
         id="path4024"
         d="M 2,13 0,9 13,9 15.999999,0 19,9 32,9 29.999998,13 z"
         style="fill:#007dff;fill-opacity:1;stroke:none" />
    </clipPath>
    <radialGradient
       inkscape:collect="always"
       xlink:href="#linearGradient3986"
       id="radialGradient4040"
       gradientUnits="userSpaceOnUse"
       gradientTransform="matrix(1,0,0,0.95,0,64.68061)"
       cx="16"
       cy="1033.6122"
       fx="16"
       fy="1033.6122"
       r="5" />
  </defs>
  <sodipodi:namedview
     inkscape:document-units="mm"
     id="base"
     pagecolor="#ffffff"
     bordercolor="#666666"
     borderopacity="1.0"
     inkscape:pageopacity="0.0"
     inkscape:pageshadow="2"
     inkscape:zoom="1"
     inkscape:cx="202"
     inkscape:cy="13"
     inkscape:current-layer="layer1"
     showgrid="false"
     units="px"
     inkscape:window-width="1301"
     inkscape:window-height="744"
     inkscape:window-x="65"
     inkscape:window-y="24"
     inkscape:window-maximized="1" />
  <metadata
     id="metadata4">
    <rdf:RDF>
      <cc:Work
         rdf:about="">
        <dc:format>image/svg+xml</dc:format>
        <dc:type
           rdf:resource="http://purl.org/dc/dcmitype/StillImage" />
        <dc:title></dc:title>
      </cc:Work>
    </rdf:RDF>
  </metadata>
  <g
     inkscape:label="Layer 1"
     inkscape:groupmode="layer"
     id="layer1"
     transform="translate(0,-1026.3622)">
    <path
       style="fill:#007dff;fill-opacity:1;stroke:none"
       d="m 2,1039.3622 -2,-4 13,0 2.999999,-9 3.000001,9 13,0 -2.000002,4 z"
       id="path3214"
       inkscape:connector-curvature="0"
       sodipodi:nodetypes="cccccccc" />
    <path
       style="fill:#ffffff;fill-opacity:1;stroke:none;filter:url(#filter4004)"
       d="M -1.3709091,11.629091 -2.4581818,7.4218182 11.298182,7.3272727 14.56,-2.6472727 l 1.654545,0 2.883637,9.3127272 L 34.272727,6.8072727 32.476364,10.4 19.570909,10.258182 16.687273,1.2290909 14.56,10.447273 1.5127273,10.352727 l -0.3309091,3.12 z"
       id="path3998"
       inkscape:connector-curvature="0"
       transform="translate(0,1026.3622)"
       clip-path="url(#clipPath4010)" />
    <path
       style="fill:url(#radialGradient3992);fill-opacity:1;stroke:none;stroke-opacity:1;stroke-width:0.50000000000000000;stroke-miterlimit:4;stroke-dasharray:none"
       d="m 13,1038.3622 3,-9.5 3,9.5 -8,-6 10,0 z"
       id="path3984"
       inkscape:connector-curvature="0"
       sodipodi:nodetypes="cccccc" />
    <path
       style="fill:#000000;stroke:none;stroke-width:1px;stroke-linecap:butt;stroke-linejoin:miter;stroke-opacity:1;fill-opacity:1;opacity:0.59999999999999998;filter:url(#filter4016)"
       d="m 0.99272727,11.723636 28.22181773,0.09455 2.41091,-4.7272729 2.78909,0.047273 L 30.727273,14.56 1.4181818,14.181818 z"
       id="path4014"
       inkscape:connector-curvature="0"
       transform="translate(0,1026.3622)"
       clip-path="url(#clipPath4022)" />
    <path
       sodipodi:nodetypes="cccccccc"
       inkscape:connector-curvature="0"
       id="path4030"
       d="m 2,1052.3622 -2,-4 13,0 2.999999,-9 3.000001,9 13,0 -2.000002,4 z"
       style="fill:#ff6800;fill-opacity:1;stroke:none" />
    <path
       clip-path="url(#clipPath4010)"
       transform="translate(0,1039.3622)"
       inkscape:connector-curvature="0"
       id="path4032"
       d="M -1.3709091,11.629091 -2.4581818,7.4218182 11.298182,7.3272727 14.56,-2.6472727 l 1.654545,0 2.883637,9.3127272 L 34.272727,6.8072727 32.476364,10.4 19.570909,10.258182 16.687273,1.2290909 14.56,10.447273 1.5127273,10.352727 l -0.3309091,3.12 z"
       style="fill:#ffffff;fill-opacity:1;stroke:none;filter:url(#filter4004);opacity:0.6" />
    <path
       sodipodi:nodetypes="cccccc"
       inkscape:connector-curvature="0"
       id="path4036"
       d="m 13,1051.3622 3,-9.5 3,9.5 -8,-6 10,0 z"
       style="fill:url(#radialGradient4040);fill-opacity:1;stroke:none" />
    <path
       clip-path="url(#clipPath4022)"
       transform="translate(0,1039.3622)"
       inkscape:connector-curvature="0"
       id="path4038"
       d="m 0.99272727,11.723636 28.22181773,0.09455 2.41091,-4.7272729 2.78909,0.047273 L 30.727273,14.56 1.4181818,14.181818 z"
       style="opacity:0.45;fill:#000000;fill-opacity:1;stroke:none;filter:url(#filter4016)" />
  </g>
</svg>
