<?xml version="1.0" encoding="UTF-8" standalone="no"?>
<!-- Created with Inkscape (http://www.inkscape.org/) -->

<svg
   xmlns:dc="http://purl.org/dc/elements/1.1/"
   xmlns:cc="http://creativecommons.org/ns#"
   xmlns:rdf="http://www.w3.org/1999/02/22-rdf-syntax-ns#"
   xmlns:svg="http://www.w3.org/2000/svg"
   xmlns="http://www.w3.org/2000/svg"
   xmlns:sodipodi="http://sodipodi.sourceforge.net/DTD/sodipodi-0.dtd"
   xmlns:inkscape="http://www.inkscape.org/namespaces/inkscape"
   width="36"
   height="144"
   id="svg2"
   version="1.1"
   inkscape:version="0.48.4 r9939"
   sodipodi:docname="buttonLeft.svg"
   inkscape:export-filename="/home/victor/aleva/super-bombinhas/data/img/ui/buttonLeft.png"
   inkscape:export-xdpi="90"
   inkscape:export-ydpi="90">
  <defs
     id="defs4" />
  <sodipodi:namedview
     id="base"
     pagecolor="#ffffff"
     bordercolor="#666666"
     borderopacity="1.0"
     inkscape:pageopacity="0.0"
     inkscape:pageshadow="2"
     inkscape:zoom="1"
     inkscape:cx="14.100505"
     inkscape:cy="71.44439"
     inkscape:document-units="px"
     inkscape:current-layer="layer1"
     showgrid="false"
     inkscape:window-width="1364"
     inkscape:window-height="718"
     inkscape:window-x="0"
     inkscape:window-y="0"
     inkscape:window-maximized="1" />
  <metadata
     id="metadata7">
    <rdf:RDF>
      <cc:Work
         rdf:about="">
        <dc:format>image/svg+xml</dc:format>
        <dc:type
           rdf:resource="http://purl.org/dc/dcmitype/StillImage" />
        <dc:title></dc:title>
      </cc:Work>
    </rdf:RDF>
  </metadata>
  <g
     inkscape:label="Layer 1"
     inkscape:groupmode="layer"
     id="layer1"
     transform="translate(0,-908.3622)">
    <g
       id="g3807"
       transform="matrix(-1,0,0,1,36,0)">
      <path
         sodipodi:nodetypes="cccccc"
         inkscape:connector-curvature="0"
         id="rect3767"
         d="m -2e-7,908.3622 22.0000002,0 14,18 -14,18 -22.0000002,0 z"
         style="fill:#8080ff;fill-opacity:1;stroke:none" />
      <path
         sodipodi:nodetypes="ccccc"
         inkscape:connector-curvature="0"
         id="rect3755"
         d="m 4.0000038,926.3622 25.9999962,0 -11,14 -14.9999962,0 z"
         style="fill:#bbbbff;fill-opacity:1;stroke:none" />
      <path
         sodipodi:nodetypes="ccccc"
         inkscape:connector-curvature="0"
         id="rect3794"
         d="m 4.0000038,912.3622 14.9999962,0 11,14 -25.9999962,0 z"
         style="fill:#ccccff;fill-opacity:1;stroke:none" />
    </g>
    <g
       id="g3812"
       transform="matrix(-1,0,0,1,36,0)">
      <path
         style="fill:#8080ff;fill-opacity:1;stroke:none"
         d="m -2e-7,944.3622 22.0000002,0 14,18 -14,18 -22.0000002,0 z"
         id="path3770"
         inkscape:connector-curvature="0"
         sodipodi:nodetypes="cccccc" />
      <path
         style="fill:#ccccff;fill-opacity:1;stroke:none"
         d="m 4.0000038,962.3622 25.9999962,0 -11,14 -14.9999962,0 z"
         id="path3772"
         inkscape:connector-curvature="0"
         sodipodi:nodetypes="ccccc" />
      <path
         style="fill:#ddddff;fill-opacity:1;stroke:none"
         d="m 4.0000038,948.3622 14.9999962,0 11,14 -25.9999962,0 z"
         id="path3774"
         inkscape:connector-curvature="0"
         sodipodi:nodetypes="ccccc" />
    </g>
    <g
       id="g3817"
       transform="matrix(-1,0,0,1,36,0)">
      <path
         sodipodi:nodetypes="cccccc"
         inkscape:connector-curvature="0"
         id="path3776"
         d="m -2e-7,980.3622 22.0000002,0 14,18 -14,18 -22.0000002,0 z"
         style="fill:#8080ff;fill-opacity:1;stroke:none" />
      <path
         sodipodi:nodetypes="ccccc"
         inkscape:connector-curvature="0"
         id="path3778"
         d="m 4.0000038,998.3622 25.9999962,0 -11,14 -14.9999962,0 z"
         style="fill:#aaaaff;fill-opacity:1;stroke:none" />
      <path
         sodipodi:nodetypes="ccccc"
         inkscape:connector-curvature="0"
         id="path3780"
         d="m 4.0000038,984.3622 14.9999962,0 11,14 -25.9999962,0 z"
         style="fill:#9999ff;fill-opacity:1;stroke:none" />
    </g>
    <g
       id="g3822"
       transform="matrix(-1,0,0,1,36,0)">
      <path
         style="fill:#808080;fill-opacity:1;stroke:none"
         d="m -2e-7,1016.3622 22.0000002,0 14,18 -14,18 -22.0000002,0 z"
         id="path3782"
         inkscape:connector-curvature="0"
         sodipodi:nodetypes="cccccc" />
      <path
         style="fill:#bbbbbb;fill-opacity:1;stroke:none"
         d="m 4.0000038,1034.3622 25.9999962,0 -11,14 -14.9999962,0 z"
         id="path3784"
         inkscape:connector-curvature="0"
         sodipodi:nodetypes="ccccc" />
      <path
         style="fill:#cccccc;fill-opacity:1;stroke:none"
         d="m 4.0000038,1020.3622 14.9999962,0 11,14 -25.9999962,0 z"
         id="path3786"
         inkscape:connector-curvature="0"
         sodipodi:nodetypes="ccccc" />
    </g>
  </g>
</svg>
