<?xml version="1.0" encoding="UTF-8" standalone="no"?>
<!-- Created with Inkscape (http://www.inkscape.org/) -->

<svg
   xmlns:dc="http://purl.org/dc/elements/1.1/"
   xmlns:cc="http://creativecommons.org/ns#"
   xmlns:rdf="http://www.w3.org/1999/02/22-rdf-syntax-ns#"
   xmlns:svg="http://www.w3.org/2000/svg"
   xmlns="http://www.w3.org/2000/svg"
   xmlns:xlink="http://www.w3.org/1999/xlink"
   xmlns:sodipodi="http://sodipodi.sourceforge.net/DTD/sodipodi-0.dtd"
   xmlns:inkscape="http://www.inkscape.org/namespaces/inkscape"
   width="144"
   height="126"
   id="svg2"
   version="1.1"
   inkscape:version="0.48.4 r9939"
   sodipodi:docname="chrazer.svg"
   inkscape:export-filename="/home/victor/aleva/super-bombinhas/data/img/sprite/chrazer.png"
   inkscape:export-xdpi="90"
   inkscape:export-ydpi="90">
  <defs
     id="defs4">
    <linearGradient
       id="linearGradient3921">
      <stop
         style="stop-color:#ff8b8b;stop-opacity:1;"
         offset="0"
         id="stop3923" />
      <stop
         style="stop-color:#c60000;stop-opacity:1;"
         offset="1"
         id="stop3925" />
    </linearGradient>
    <linearGradient
       id="linearGradient3836">
      <stop
         style="stop-color:#ffffcc;stop-opacity:1;"
         offset="0"
         id="stop3838" />
      <stop
         id="stop3844"
         offset="1"
         style="stop-color:#ffff00;stop-opacity:1;" />
    </linearGradient>
    <filter
       inkscape:collect="always"
       id="filter3868"
       x="-0.17843179"
       width="1.3568636"
       y="-0.28000066"
       height="1.5600013"
       color-interpolation-filters="sRGB">
      <feGaussianBlur
         inkscape:collect="always"
         stdDeviation="1.8958378"
         id="feGaussianBlur3870" />
    </filter>
    <clipPath
       clipPathUnits="userSpaceOnUse"
       id="clipPath3883">
      <path
         sodipodi:type="arc"
         style="fill:#000000;fill-opacity:1;stroke:none"
         id="path3885"
         sodipodi:cx="84"
         sodipodi:cy="973.98718"
         sodipodi:rx="12.75"
         sodipodi:ry="8.125"
         d="m 96.75,973.98718 a 12.75,8.125 0 1 1 -25.5,0 12.75,8.125 0 1 1 25.5,0 z"
         transform="matrix(0.87925814,0,0,0.89289491,12.291002,105.72962)" />
    </clipPath>
    <radialGradient
       inkscape:collect="always"
       xlink:href="#linearGradient3836"
       id="radialGradient3958"
       gradientUnits="userSpaceOnUse"
       gradientTransform="matrix(8.7674175e-4,0.96931518,-1.5715044,0.00142143,1596.7864,890.6242)"
       cx="79.684738"
       cy="966.18005"
       fx="79.684738"
       fy="966.18005"
       r="12.9" />
    <radialGradient
       inkscape:collect="always"
       xlink:href="#linearGradient3921"
       id="radialGradient3960"
       gradientUnits="userSpaceOnUse"
       gradientTransform="matrix(0.16446876,0.63502606,-1.0730882,0.27792486,1126.286,641.87326)"
       cx="84.175804"
       cy="980.9046"
       fx="84.175804"
       fy="980.9046"
       r="9.4048243" />
    <radialGradient
       inkscape:collect="always"
       xlink:href="#linearGradient3836"
       id="radialGradient4013"
       gradientUnits="userSpaceOnUse"
       gradientTransform="matrix(8.7674175e-4,0.96931518,-1.5715044,0.00142143,1596.7864,890.6242)"
       cx="79.684738"
       cy="966.18005"
       fx="79.684738"
       fy="966.18005"
       r="12.9" />
    <radialGradient
       inkscape:collect="always"
       xlink:href="#linearGradient3921"
       id="radialGradient4015"
       gradientUnits="userSpaceOnUse"
       gradientTransform="matrix(0.16446876,0.63502606,-1.0730882,0.27792486,1126.286,641.87326)"
       cx="84.175804"
       cy="980.9046"
       fx="84.175804"
       fy="980.9046"
       r="9.4048243" />
    <radialGradient
       inkscape:collect="always"
       xlink:href="#linearGradient3836"
       id="radialGradient4033"
       gradientUnits="userSpaceOnUse"
       gradientTransform="matrix(8.7674175e-4,0.96931518,-1.5715044,0.00142143,1596.7864,890.6242)"
       cx="79.684738"
       cy="966.18005"
       fx="79.684738"
       fy="966.18005"
       r="12.9" />
    <radialGradient
       inkscape:collect="always"
       xlink:href="#linearGradient3921"
       id="radialGradient4035"
       gradientUnits="userSpaceOnUse"
       gradientTransform="matrix(0.16446876,0.63502606,-1.0730882,0.27792486,1126.286,641.87326)"
       cx="84.175804"
       cy="980.9046"
       fx="84.175804"
       fy="980.9046"
       r="9.4048243" />
    <radialGradient
       inkscape:collect="always"
       xlink:href="#linearGradient3836"
       id="radialGradient4051"
       gradientUnits="userSpaceOnUse"
       gradientTransform="matrix(8.7674175e-4,0.96931518,-1.5715044,0.00142143,1596.7864,890.6242)"
       cx="79.684738"
       cy="966.18005"
       fx="79.684738"
       fy="966.18005"
       r="12.9" />
    <radialGradient
       inkscape:collect="always"
       xlink:href="#linearGradient3921"
       id="radialGradient4053"
       gradientUnits="userSpaceOnUse"
       gradientTransform="matrix(0.16446876,0.63502606,-1.0730882,0.27792486,1126.286,641.87326)"
       cx="84.175804"
       cy="980.9046"
       fx="84.175804"
       fy="980.9046"
       r="9.4048243" />
    <radialGradient
       inkscape:collect="always"
       xlink:href="#linearGradient3921"
       id="radialGradient4059"
       gradientUnits="userSpaceOnUse"
       gradientTransform="matrix(0.16446876,0.63502606,-1.0730882,0.27792486,1148.9617,634.23543)"
       cx="84.175804"
       cy="980.9046"
       fx="84.175804"
       fy="980.9046"
       r="9.4048243" />
    <radialGradient
       inkscape:collect="always"
       xlink:href="#linearGradient3836"
       id="radialGradient4072"
       gradientUnits="userSpaceOnUse"
       gradientTransform="matrix(8.7674175e-4,0.96931518,-1.5715044,0.00142143,1596.7864,890.6242)"
       cx="79.684738"
       cy="966.18005"
       fx="79.684738"
       fy="966.18005"
       r="12.9" />
    <radialGradient
       inkscape:collect="always"
       xlink:href="#linearGradient3921"
       id="radialGradient4078"
       gradientUnits="userSpaceOnUse"
       gradientTransform="matrix(0.16446876,0.63502606,-1.0730882,0.27792486,1076.9617,633.23543)"
       cx="84.175804"
       cy="980.9046"
       fx="84.175804"
       fy="980.9046"
       r="9.4048243" />
    <radialGradient
       inkscape:collect="always"
       xlink:href="#linearGradient3921"
       id="radialGradient4108"
       gradientUnits="userSpaceOnUse"
       gradientTransform="matrix(0.16446876,0.63502606,-1.0730882,0.27792486,1148.9617,634.23543)"
       cx="84.175804"
       cy="980.9046"
       fx="84.175804"
       fy="980.9046"
       r="9.4048243" />
    <radialGradient
       inkscape:collect="always"
       xlink:href="#linearGradient3836"
       id="radialGradient4126"
       gradientUnits="userSpaceOnUse"
       gradientTransform="matrix(8.7674175e-4,0.96931518,-1.5715044,0.00142143,1596.7864,890.6242)"
       cx="79.684738"
       cy="966.18005"
       fx="79.684738"
       fy="966.18005"
       r="12.9" />
    <radialGradient
       inkscape:collect="always"
       xlink:href="#linearGradient3921"
       id="radialGradient4128"
       gradientUnits="userSpaceOnUse"
       gradientTransform="matrix(0.16446876,0.63502606,-1.0730882,0.27792486,1076.9617,633.23543)"
       cx="84.175804"
       cy="980.9046"
       fx="84.175804"
       fy="980.9046"
       r="9.4048243" />
    <radialGradient
       inkscape:collect="always"
       xlink:href="#linearGradient3836"
       id="radialGradient4130"
       gradientUnits="userSpaceOnUse"
       gradientTransform="matrix(8.7674175e-4,0.96931518,-1.5715044,0.00142143,1596.7864,890.6242)"
       cx="79.684738"
       cy="966.18005"
       fx="79.684738"
       fy="966.18005"
       r="12.9" />
    <radialGradient
       inkscape:collect="always"
       xlink:href="#linearGradient3921"
       id="radialGradient4132"
       gradientUnits="userSpaceOnUse"
       gradientTransform="matrix(0.16446876,0.63502606,-1.0730882,0.27792486,1148.9617,634.23543)"
       cx="84.175804"
       cy="980.9046"
       fx="84.175804"
       fy="980.9046"
       r="9.4048243" />
    <radialGradient
       inkscape:collect="always"
       xlink:href="#linearGradient3836"
       id="radialGradient4162"
       gradientUnits="userSpaceOnUse"
       gradientTransform="matrix(8.7674175e-4,0.96931518,-1.5715044,0.00142143,1596.7864,890.6242)"
       cx="79.684738"
       cy="966.18005"
       fx="79.684738"
       fy="966.18005"
       r="12.9" />
    <radialGradient
       inkscape:collect="always"
       xlink:href="#linearGradient3921"
       id="radialGradient4164"
       gradientUnits="userSpaceOnUse"
       gradientTransform="matrix(0.16446876,0.63502606,-1.0730882,0.27792486,1076.9617,633.23543)"
       cx="84.175804"
       cy="980.9046"
       fx="84.175804"
       fy="980.9046"
       r="9.4048243" />
    <radialGradient
       inkscape:collect="always"
       xlink:href="#linearGradient3921"
       id="radialGradient4169"
       gradientUnits="userSpaceOnUse"
       gradientTransform="matrix(0.16446876,0.63502606,-1.0730882,0.27792486,1076.9617,696.23543)"
       cx="84.175804"
       cy="980.9046"
       fx="84.175804"
       fy="980.9046"
       r="9.4048243" />
    <radialGradient
       inkscape:collect="always"
       xlink:href="#linearGradient3836"
       id="radialGradient4181"
       gradientUnits="userSpaceOnUse"
       gradientTransform="matrix(8.7674175e-4,0.96931518,-1.5715044,0.00142143,1596.7864,890.6242)"
       cx="79.684738"
       cy="966.18005"
       fx="79.684738"
       fy="966.18005"
       r="12.9" />
    <radialGradient
       inkscape:collect="always"
       xlink:href="#linearGradient3921"
       id="radialGradient4187"
       gradientUnits="userSpaceOnUse"
       gradientTransform="matrix(0.16446876,0.63502606,-1.0730882,0.27792486,1076.9617,696.23543)"
       cx="84.175804"
       cy="980.9046"
       fx="84.175804"
       fy="980.9046"
       r="9.4048243" />
  </defs>
  <sodipodi:namedview
     id="base"
     pagecolor="#ffffff"
     bordercolor="#666666"
     borderopacity="1.0"
     inkscape:pageopacity="0.0"
     inkscape:pageshadow="2"
     inkscape:zoom="1"
     inkscape:cx="35.196004"
     inkscape:cy="20.846234"
     inkscape:document-units="px"
     inkscape:current-layer="layer1"
     showgrid="false"
     inkscape:window-width="1366"
     inkscape:window-height="716"
     inkscape:window-x="0"
     inkscape:window-y="0"
     inkscape:window-maximized="1" />
  <metadata
     id="metadata7">
    <rdf:RDF>
      <cc:Work
         rdf:about="">
        <dc:format>image/svg+xml</dc:format>
        <dc:type
           rdf:resource="http://purl.org/dc/dcmitype/StillImage" />
        <dc:title></dc:title>
      </cc:Work>
    </rdf:RDF>
  </metadata>
  <g
     inkscape:label="Layer 1"
     inkscape:groupmode="layer"
     id="layer1"
     transform="translate(0,-926.36218)">
    <g
       id="g4089"
       transform="translate(0,1)">
      <path
         sodipodi:nodetypes="cscscscscscscsc"
         inkscape:connector-curvature="0"
         id="path3941"
         d="m 28.097287,962.93741 c 0,0 -5.685484,6.82431 5.655535,6.8926 10.803167,0.0651 9.315076,-2.35313 9.315076,-2.35313 0,0 -0.252248,-0.90887 -9.326949,-1.07899 -9.42985,-0.17678 -8.568393,4.17175 -8.568393,4.17175 0,0 -1.147179,4.82123 8.619843,5.02311 10.993449,0.22723 9.914006,-2.45069 9.914006,-2.45069 0,0 1.017159,-1.83546 -9.543303,-1.49758 -10.032849,0.321 -9.594753,4.9297 -9.594753,4.9297 0,0 -0.918184,5.02312 11.36252,4.95809 9.10822,-0.0482 8.117217,-2.43651 8.117217,-2.43651 0,0 0.291895,-1.79208 -9.742508,-1.67437 -10.566035,0.12395 -9.931155,5.91532 -9.931155,5.91532 0,0 -1.151688,4.55781 10.917939,4.5253 9.420268,-0.0254 10.312414,-3.89741 10.312414,-3.89741"
         style="fill:none;stroke:#444444;stroke-width:1;stroke-linecap:round;stroke-linejoin:round;stroke-miterlimit:4;stroke-opacity:1;stroke-dasharray:none" />
      <path
         sodipodi:nodetypes="cscscscscscscscscc"
         inkscape:connector-curvature="0"
         id="path3939"
         d="m 23.215484,954.83931 c 0,0 -7.002774,0.81931 -4.174715,8.19639 2.783175,7.25994 4.933325,5.10068 4.933325,5.10068 0,0 2.661228,-1.27209 -0.42184,-6.65198 -3.465603,-6.04736 -6.337192,-4.60813 -6.337192,-4.60813 0,0 -6.303717,1.36284 -1.51255,8.81905 4.087772,6.36155 5.799392,4.19247 5.799392,4.19247 0,0 1.876079,-1.81169 -1.537545,-7.04102 -4.083115,-6.25491 -8.58078,-2.6991 -8.58078,-2.6991 0,0 -5.056773,3.79676 2.201735,10.43287 5.100978,4.6636 5.650268,1.74116 5.650268,1.74116 0,0 0.359623,-3.98856 -4.580012,-7.82106 -5.265115,-4.08503 -7.738035,-0.55968 -7.738035,-0.55968 0,0 -3.718277,4.01611 2.223495,9.02768 6.359849,5.3642 7.688527,2.99786 7.688527,2.99786 0,0 0.358766,-3.085 -5.258624,-6.42704 -6.289983,-3.74216 -9.447851,0.68881 -9.447851,0.68881 0,0 -2.530093,4.84432 7.350044,6.82701"
         style="fill:none;stroke:#444444;stroke-width:0.99999994;stroke-linecap:round;stroke-linejoin:round;stroke-miterlimit:4;stroke-opacity:1;stroke-dasharray:none" />
      <path
         style="fill:none;stroke:#444444;stroke-width:0.99999988;stroke-linecap:round;stroke-linejoin:round;stroke-miterlimit:4;stroke-opacity:1;stroke-dasharray:none"
         d="m 47.190504,956.41952 c 0,0 7.441807,0.49091 4.573207,7.82231 -2.823072,7.21498 -5.141878,5.20068 -5.141878,5.20068 0,0 -2.845113,-1.12507 0.32939,-6.51674 3.568378,-6.06062 6.639578,-4.78156 6.639578,-4.78156 0,0 6.71001,1.05276 1.76073,8.54821 -4.22269,6.39502 -6.076557,4.35175 -6.076557,4.35175 0,0 -2.021946,-1.68688 1.505827,-6.94609 4.21964,-6.29064 9.05304,-3.01584 9.05304,-3.01584 0,0 5.43067,3.48549 -2.15009,10.28883 -5.32744,4.78113 -5.96188,1.95056 -5.96188,1.95056 0,0 -0.4522,-3.88042 4.71887,-7.84252 5.51179,-4.22321 8.19717,-0.88867 8.19717,-0.88867 0,0 4.01493,3.7589 -2.1981,8.9171 -6.65019,5.52114 -8.1014,3.26826 -8.1014,3.26826 0,0 -0.43526,-2.99779 5.46335,-6.51074 6.60488,-3.93354 10.03279,0.25539 10.03279,0.25539 0,0 2.76942,4.62045 -7.67445,6.99386"
         id="path3937"
         inkscape:connector-curvature="0"
         sodipodi:nodetypes="cscscscscscscscscc" />
      <path
         style="fill:none;stroke:#444444;stroke-width:1;stroke-linecap:round;stroke-linejoin:round;stroke-miterlimit:4;stroke-opacity:1;stroke-dasharray:none"
         d="m 28.242185,946.56397 c 0,0 -0.972584,-6.64516 -8.609238,-2.50629 -7.515397,4.07317 -5.229506,5.75335 -5.229506,5.75335 0,0 1.370421,2.34394 6.922236,-1.66548 6.24064,-4.5069 4.692532,-7.02356 4.692532,-7.02356 0,0 -1.526899,-5.86372 -9.212598,0.19631 -6.557334,5.17035 -4.268683,6.42285 -4.268683,6.42285 0,0 1.919171,1.47967 7.308536,-2.82231 6.446324,-5.14569 2.665716,-8.84169 2.665716,-8.84169 0,0 -4.041132,-4.19342 -10.830541,4.1076 -4.771347,5.83365 -1.717672,5.81527 -1.717672,5.81527 0,0 4.161034,-0.40382 8.069346,-5.92387 4.165853,-5.88379 0.451403,-7.61946 0.451403,-7.61946 0,0 -4.246847,-2.85231 -9.366383,3.86345 -5.47974,7.18828 -2.992105,8.03171 -2.992105,8.03171 0,0 3.219774,-0.23406 6.605642,-6.31965 3.791238,-6.8142 -0.878247,-9.044 -0.878247,-9.044 0,0 -5.089387,-1.54219 -6.986707,8.42595"
         id="path3935"
         inkscape:connector-curvature="0"
         sodipodi:nodetypes="cscscscscscscscscc" />
      <path
         sodipodi:nodetypes="cscscscscscscscscc"
         inkscape:connector-curvature="0"
         id="path3931"
         d="m 40.647749,945.8777 c 0,0 1.661092,-7.01499 9.357214,-1.89948 7.573928,5.03431 4.993098,6.6233 4.993098,6.6233 0,0 -1.67414,2.38137 -7.174208,-2.40701 -6.182471,-5.3825 -4.303719,-7.9324 -4.303719,-7.9324 0,0 2.17406,-6.12953 9.739737,1.04396 6.45494,6.12034 3.91179,7.25194 3.91179,7.25194 0,0 -2.17334,1.40786 -7.473563,-3.67853 -6.339694,-6.08394 -1.984218,-9.69231 -1.984218,-9.69231 0,0 4.678661,-4.11649 11.082201,5.37127 4.50017,6.66763 1.26734,6.3715 1.26734,6.3715 0,0 -4.36921,-0.80839 -7.98499,-7.06269 -3.85405,-6.6664 0.24524,-8.18536 0.24524,-8.18536 0,0 4.76924,-2.66433 9.55447,4.97773 5.12193,8.17976 2.40684,8.85607 2.40684,8.85607 0,0 -3.3883,-0.54173 -6.39698,-7.35321 -3.36891,-7.62704 1.7889,-9.58769 1.7889,-9.58769 0,0 5.53731,-1.18765 6.60067,9.63916"
         style="fill:none;stroke:#444444;stroke-width:0.99999988;stroke-linecap:round;stroke-linejoin:round;stroke-miterlimit:4;stroke-opacity:1;stroke-dasharray:none" />
      <g
         transform="translate(-55.456668,-19.737075)"
         id="g3887">
        <path
           sodipodi:type="arc"
           style="fill:url(#radialGradient4126);fill-opacity:1;stroke:none"
           id="path3066"
           sodipodi:cx="84"
           sodipodi:cy="973.98718"
           sodipodi:rx="12.75"
           sodipodi:ry="8.125"
           d="m 96.75,973.98718 c 0,4.48732 -5.708369,8.125 -12.75,8.125 -7.041631,0 -12.75,-3.63768 -12.75,-8.125 0,-4.48731 5.708369,-8.125 12.75,-8.125 7.041631,0 12.75,3.63769 12.75,8.125 z"
           transform="matrix(1.1764706,0,0,1.1076923,-8.3235314,-104.26593)" />
        <path
           transform="matrix(1.3380264,0,0,1.2405629,-24.769217,-235.43017)"
           d="m 96.75,973.98718 c 0,4.48732 -5.708369,8.125 -12.75,8.125 -7.041631,0 -12.75,-3.63768 -12.75,-8.125 0,-4.48731 5.708369,-8.125 12.75,-8.125 7.041631,0 12.75,3.63769 12.75,8.125 z"
           sodipodi:ry="8.125"
           sodipodi:rx="12.75"
           sodipodi:cy="973.98718"
           sodipodi:cx="84"
           id="path3846"
           style="fill:none;stroke:#000000;stroke-width:1.55234516;stroke-linejoin:round;stroke-miterlimit:4;stroke-opacity:1;stroke-dasharray:none;filter:url(#filter3868)"
           sodipodi:type="arc"
           clip-path="url(#clipPath3883)" />
      </g>
      <path
         transform="matrix(0.65043548,-0.20362389,0.36067419,0.65066328,-362.46603,335.26467)"
         d="m 82.125,971.98718 c 0.30083,0.27576 -0.223301,0.54157 -0.458333,0.5 -0.636922,-0.11263 -0.773463,-0.91624 -0.541667,-1.41666 0.414629,-0.89514 1.585715,-1.04881 2.375,-0.58334 1.158307,0.6831 1.331838,2.2641 0.625,3.33334 -0.942103,1.42512 -2.945617,1.61811 -4.291666,0.66666 -1.693866,-1.1973 -1.906065,-3.62863 -0.708334,-5.25 1.450612,-1.96369 4.31248,-2.19498 6.208333,-0.75 2.234196,1.70286 2.484507,4.99686 0.791667,7.16667 -1.95445,2.50513 -5.681577,2.77444 -8.124999,0.83333 -2.776372,-2.2056 -3.064652,-6.36654 -0.875001,-9.08333 2.456457,-3.04782 7.051692,-3.35507 10.041666,-0.91667 3.319437,2.70709 3.645646,7.73698 0.958335,11"
         sodipodi:t0="0"
         sodipodi:argument="-18.107609"
         sodipodi:radius="8.13941"
         sodipodi:revolution="3"
         sodipodi:expansion="1"
         sodipodi:cy="971.98718"
         sodipodi:cx="82.125"
         id="path3893"
         style="fill:none;stroke:#000000;stroke-width:0.99327624;stroke-linecap:round;stroke-linejoin:round;stroke-miterlimit:4;stroke-opacity:1;stroke-dasharray:none"
         sodipodi:type="spiral" />
      <path
         sodipodi:type="spiral"
         style="fill:none;stroke:#000000;stroke-width:1.08355355;stroke-linecap:round;stroke-linejoin:round;stroke-miterlimit:4;stroke-opacity:1;stroke-dasharray:none"
         id="path3895"
         sodipodi:cx="82.125"
         sodipodi:cy="971.98718"
         sodipodi:expansion="1"
         sodipodi:revolution="3"
         sodipodi:radius="8.13941"
         sodipodi:argument="-18.107609"
         sodipodi:t0="0"
         d="m 82.125,971.98718 c 0.30083,0.27576 -0.223301,0.54157 -0.458333,0.5 -0.636922,-0.11263 -0.773463,-0.91624 -0.541667,-1.41666 0.414629,-0.89514 1.585715,-1.04881 2.375,-0.58334 1.158307,0.6831 1.331838,2.2641 0.625,3.33334 -0.942103,1.42512 -2.945617,1.61811 -4.291666,0.66666 -1.693866,-1.1973 -1.906065,-3.62863 -0.708334,-5.25 1.450612,-1.96369 4.31248,-2.19498 6.208333,-0.75 2.234196,1.70286 2.484507,4.99686 0.791667,7.16667 -1.95445,2.50513 -5.681577,2.77444 -8.124999,0.83333 -2.776372,-2.2056 -3.064652,-6.36654 -0.875001,-9.08333 2.456457,-3.04782 7.051692,-3.35507 10.041666,-0.91667 3.319437,2.70709 3.645646,7.73698 0.958335,11"
         transform="matrix(-0.54656718,-0.20362389,-0.30307799,0.65066328,366.03231,335.55573)" />
      <path
         sodipodi:nodetypes="cscsc"
         inkscape:connector-curvature="0"
         id="path3919"
         d="m 30.304055,959.54561 c 0,0 4.937659,0.84626 6.875,3.25 3.375,4.1875 7.125,3.5 7.125,3.5 0,0 3.762321,-0.91636 2.4375,-4.5 -1.029741,-2.78545 -6.25,-3.8125 -6.25,-3.8125"
         style="fill:url(#radialGradient4128);fill-opacity:1;stroke:#710000;stroke-linecap:round;stroke-opacity:1" />
      <path
         inkscape:connector-curvature="0"
         id="path3929"
         d="m 36.304055,959.10811 c 0,0 4.375,0.3125 6.6875,3.375"
         style="fill:none;stroke:#710000;stroke-width:0.5;stroke-linecap:round;stroke-linejoin:round;stroke-miterlimit:4;stroke-opacity:1;stroke-dasharray:none" />
      <path
         inkscape:connector-curvature="0"
         id="path3917"
         d="m 27.304055,959.17061 c 0,0 6.625,1.5 15.3125,-2.1875"
         style="fill:none;stroke:#000000;stroke-width:1;stroke-linecap:round;stroke-linejoin:round;stroke-miterlimit:4;stroke-opacity:1;stroke-dasharray:none" />
    </g>
    <g
       id="g4110"
       transform="translate(0,1)">
      <path
         style="fill:none;stroke:#444444;stroke-width:1;stroke-linecap:round;stroke-linejoin:round;stroke-miterlimit:4;stroke-opacity:1;stroke-dasharray:none"
         d="m 100.09729,963.82129 c 0,0 -5.685487,6.58231 5.65553,6.64817 10.80317,0.0628 9.31508,-2.26968 9.31508,-2.26968 0,0 -0.25225,-0.87664 -9.32695,-1.04073 -9.429851,-0.17051 -8.568394,4.02382 -8.568394,4.02382 0,0 -1.147179,4.65026 8.619844,4.84498 10.99345,0.21917 9.91401,-2.36379 9.91401,-2.36379 0,0 1.01715,-1.77037 -9.54331,-1.44447 -10.032847,0.30962 -9.594751,4.75488 -9.594751,4.75488 0,0 -0.918184,4.84499 11.362521,4.78227 9.10822,-0.0465 8.11722,-2.35011 8.11722,-2.35011 0,0 0.29189,-1.72853 -9.74251,-1.61499 -10.566037,0.11955 -9.931157,5.70555 -9.931157,5.70555 0,0 -1.151688,4.39618 10.917937,4.36482 9.42027,-0.0245 10.31242,-3.7592 10.31242,-3.7592"
         id="path4011"
         inkscape:connector-curvature="0"
         sodipodi:nodetypes="cscscscscscscsc" />
      <path
         style="fill:none;stroke:#444444;stroke-width:0.99999994;stroke-linecap:round;stroke-linejoin:round;stroke-miterlimit:4;stroke-opacity:1;stroke-dasharray:none"
         d="m 95.958045,955.35986 c 0,0 -7.049473,-0.12262 -5.231275,7.5659 1.789349,7.56644 4.208443,5.71346 4.208443,5.71346 0,0 2.807196,-0.90554 0.469721,-6.64877 -2.627505,-6.45579 -5.665488,-5.41268 -5.665488,-5.41268 0,0 -6.429211,0.50934 -2.676027,8.53829 3.202176,6.8502 5.187974,4.92896 5.187974,4.92896 0,0 2.101087,-1.5451 -0.584081,-7.18324 -3.211793,-6.74389 -8.143788,-3.82016 -8.143788,-3.82016 0,0 -5.518258,3.08791 0.789645,10.63339 4.432931,5.30266 5.367342,2.47968 5.367342,2.47968 0,0 0.888727,-3.90488 -3.495224,-8.36235 -4.672816,-4.75118 -7.594114,-1.58741 -7.594114,-1.58741 0,0 -4.221011,3.48393 0.99875,9.24367 5.587036,6.16501 7.219644,3.99717 7.219644,3.99717 0,0 0.767287,-3.00952 -4.353813,-7.07137 -5.734276,-4.54816 -9.45526,-0.57829 -9.45526,-0.57829 0,0 -3.153992,4.46332 6.373143,7.74689"
         id="path3987"
         inkscape:connector-curvature="0"
         sodipodi:nodetypes="cscscscscscscscscc" />
      <path
         sodipodi:nodetypes="cscscscscscscscscc"
         inkscape:connector-curvature="0"
         id="path3989"
         d="m 118.55018,956.20925 c 0,0 7.43874,-0.53536 5.60377,7.12043 -1.80586,7.53422 -4.37924,5.85733 -4.37924,5.85733 0,0 -2.97263,-0.72384 -0.56836,-6.50026 2.70258,-6.49311 5.9203,-5.64778 5.9203,-5.64778 0,0 6.791,0.12163 2.91757,8.22556 -3.30479,6.91417 -5.42161,5.14474 -5.42161,5.14474 0,0 -2.23438,-1.39333 0.538,-7.08704 3.3161,-6.81036 8.5533,-4.23011 8.5533,-4.23011 0,0 5.85775,2.70696 -0.71726,10.48659 -4.62064,5.46722 -5.63766,2.75055 -5.63766,2.75055 0,0 -0.98063,-3.7816 3.59756,-8.41608 4.87984,-4.9399 7.99756,-2.00558 7.99756,-2.00558 0,0 4.49295,3.17213 -0.95313,9.13443 -5.82928,6.38182 -7.57603,4.34949 -7.57603,4.34949 0,0 -0.84268,-2.90965 4.51782,-7.19911 6.00234,-4.80303 9.97286,-1.12435 9.97286,-1.12435 0,0 3.3775,4.19651 -6.64166,7.9812"
         style="fill:none;stroke:#444444;stroke-width:0.99999988;stroke-linecap:round;stroke-linejoin:round;stroke-miterlimit:4;stroke-opacity:1;stroke-dasharray:none" />
      <path
         sodipodi:nodetypes="cscscscscscscscscc"
         inkscape:connector-curvature="0"
         id="path3991"
         d="m 99.594839,947.33287 c 0,0 -0.38447,-7.24441 -8.323384,-3.51343 -7.812858,3.67176 -5.69152,5.69678 -5.69152,5.69678 0,0 1.154992,2.65268 7.013956,-1.13656 6.5859,-4.25939 5.269692,-7.11481 5.269692,-7.11481 0,0 -1.002744,-6.45588 -9.158165,-0.66178 -6.958097,4.94346 -4.796655,6.50843 -4.796655,6.50843 0,0 1.774986,1.77446 7.498322,-2.34505 6.845794,-4.92744 3.417467,-9.26376 3.417467,-9.26376 0,0 -3.643368,-4.89639 -11.105251,3.39464 -5.243937,5.82664 -2.212384,6.09625 -2.212384,6.09625 0,0 4.163983,-0.0403 8.524193,-5.61119 4.647528,-5.93798 1.113579,-8.15811 1.113579,-8.15811 0,0 -3.964654,-3.47245 -9.631141,3.27061 -6.065174,7.21751 -3.670556,8.36105 -3.670556,8.36105 0,0 3.215205,0.0533 7.10644,-6.17589 4.357109,-6.97489 -0.08128,-9.81736 -0.08128,-9.81736 0,0 -4.915107,-2.1422 -7.668563,8.40679"
         style="fill:none;stroke:#444444;stroke-width:1;stroke-linecap:round;stroke-linejoin:round;stroke-miterlimit:4;stroke-opacity:1;stroke-dasharray:none" />
      <path
         style="fill:none;stroke:#444444;stroke-width:0.99999988;stroke-linecap:round;stroke-linejoin:round;stroke-miterlimit:4;stroke-opacity:1;stroke-dasharray:none"
         d="m 113.20333,946.797 c 0,0 1.06069,-7.37537 9.1626,-2.77776 7.97328,4.52463 5.53638,6.38847 5.53638,6.38847 0,0 -1.46633,2.60102 -7.35237,-1.85192 -6.61633,-5.00544 -4.9604,-7.79807 -4.9604,-7.79807 0,0 1.64684,-6.50776 9.79317,0.22227 6.95034,5.74198 4.51222,7.13113 4.51222,7.13113 0,0 -2.04622,1.64146 -7.75838,-3.13613 -6.83243,-5.71458 -2.79838,-9.81517 -2.79838,-9.81517 0,0 4.31302,-4.6526 11.49749,4.56442 5.04897,6.47736 1.80268,6.45551 1.80268,6.45551 0,0 -4.422,-0.4502 -8.55474,-6.57908 -4.40508,-6.53273 -0.44924,-8.45748 -0.44924,-8.45748 0,0 4.52632,-3.16392 9.9419,4.29272 5.79663,7.9813 3.14861,8.91628 3.14861,8.91628 0,0 -3.42201,-0.26135 -6.99705,-7.01768 -4.00308,-7.5653 0.97004,-10.03805 0.97004,-10.03805 0,0 5.41676,-1.70934 7.39372,9.35578"
         id="path3993"
         inkscape:connector-curvature="0"
         sodipodi:nodetypes="cscscscscscscscscc" />
      <g
         id="g3995"
         transform="translate(16.543332,-18.737075)">
        <path
           transform="matrix(1.1764706,0,0,1.1076923,-8.3235314,-104.26593)"
           d="m 96.75,973.98718 c 0,4.48732 -5.708369,8.125 -12.75,8.125 -7.041631,0 -12.75,-3.63768 -12.75,-8.125 0,-4.48731 5.708369,-8.125 12.75,-8.125 7.041631,0 12.75,3.63769 12.75,8.125 z"
           sodipodi:ry="8.125"
           sodipodi:rx="12.75"
           sodipodi:cy="973.98718"
           sodipodi:cx="84"
           id="path3997"
           style="fill:url(#radialGradient4130);fill-opacity:1;stroke:none"
           sodipodi:type="arc" />
        <path
           clip-path="url(#clipPath3883)"
           sodipodi:type="arc"
           style="fill:none;stroke:#000000;stroke-width:1.55234516;stroke-linejoin:round;stroke-miterlimit:4;stroke-opacity:1;stroke-dasharray:none;filter:url(#filter3868)"
           id="path3999"
           sodipodi:cx="84"
           sodipodi:cy="973.98718"
           sodipodi:rx="12.75"
           sodipodi:ry="8.125"
           d="m 96.75,973.98718 c 0,4.48732 -5.708369,8.125 -12.75,8.125 -7.041631,0 -12.75,-3.63768 -12.75,-8.125 0,-4.48731 5.708369,-8.125 12.75,-8.125 7.041631,0 12.75,3.63769 12.75,8.125 z"
           transform="matrix(1.3380264,0,0,1.2405629,-24.769217,-235.43017)" />
      </g>
      <path
         sodipodi:type="spiral"
         style="fill:none;stroke:#000000;stroke-width:0.99327624;stroke-linecap:round;stroke-linejoin:round;stroke-miterlimit:4;stroke-opacity:1;stroke-dasharray:none"
         id="path4001"
         sodipodi:cx="82.125"
         sodipodi:cy="971.98718"
         sodipodi:expansion="1"
         sodipodi:revolution="3"
         sodipodi:radius="8.13941"
         sodipodi:argument="-18.107609"
         sodipodi:t0="0"
         d="m 82.125,971.98718 c 0.30083,0.27576 -0.223301,0.54157 -0.458333,0.5 -0.636922,-0.11263 -0.773463,-0.91624 -0.541667,-1.41666 0.414629,-0.89514 1.585715,-1.04881 2.375,-0.58334 1.158307,0.6831 1.331838,2.2641 0.625,3.33334 -0.942103,1.42512 -2.945617,1.61811 -4.291666,0.66666 -1.693866,-1.1973 -1.906065,-3.62863 -0.708334,-5.25 1.450612,-1.96369 4.31248,-2.19498 6.208333,-0.75 2.234196,1.70286 2.484507,4.99686 0.791667,7.16667 -1.95445,2.50513 -5.681577,2.77444 -8.124999,0.83333 -2.776372,-2.2056 -3.064652,-6.36654 -0.875001,-9.08333 2.456457,-3.04782 7.051692,-3.35507 10.041666,-0.91667 3.319437,2.70709 3.645646,7.73698 0.958335,11"
         transform="matrix(0.61490448,-0.29397531,0.44946461,0.59281543,-373.78068,399.97897)" />
      <path
         transform="matrix(-0.52206118,-0.26009708,-0.3699688,0.61509516,500.98589,375.80735)"
         d="m 82.125,971.98718 c 0.30083,0.27576 -0.223301,0.54157 -0.458333,0.5 -0.636922,-0.11263 -0.773463,-0.91624 -0.541667,-1.41666 0.414629,-0.89514 1.585715,-1.04881 2.375,-0.58334 1.158307,0.6831 1.331838,2.2641 0.625,3.33334 -0.942103,1.42512 -2.945617,1.61811 -4.291666,0.66666 -1.693866,-1.1973 -1.906065,-3.62863 -0.708334,-5.25 1.450612,-1.96369 4.31248,-2.19498 6.208333,-0.75 2.234196,1.70286 2.484507,4.99686 0.791667,7.16667 -1.95445,2.50513 -5.681577,2.77444 -8.124999,0.83333 -2.776372,-2.2056 -3.064652,-6.36654 -0.875001,-9.08333 2.456457,-3.04782 7.051692,-3.35507 10.041666,-0.91667 3.319437,2.70709 3.645646,7.73698 0.958335,11"
         sodipodi:t0="0"
         sodipodi:argument="-18.107609"
         sodipodi:radius="8.13941"
         sodipodi:revolution="3"
         sodipodi:expansion="1"
         sodipodi:cy="971.98718"
         sodipodi:cx="82.125"
         id="path4003"
         style="fill:none;stroke:#000000;stroke-width:1.08355355;stroke-linecap:round;stroke-linejoin:round;stroke-miterlimit:4;stroke-opacity:1;stroke-dasharray:none"
         sodipodi:type="spiral" />
      <g
         transform="matrix(1.0798082,0,0.07535494,0.97165377,-80.703691,27.169382)"
         id="g4104">
        <path
           sodipodi:nodetypes="cscsc"
           inkscape:connector-curvature="0"
           id="path4005"
           d="m 102.30406,960.54561 c 0,0 4.93765,0.84626 6.875,3.25 3.375,4.1875 7.125,3.5 7.125,3.5 0,0 3.76232,-0.91636 2.4375,-4.5 -1.02975,-2.78545 -6.25,-3.8125 -6.25,-3.8125"
           style="fill:url(#radialGradient4132);fill-opacity:1;stroke:#710000;stroke-width:0.97627217;stroke-linecap:round;stroke-opacity:1" />
        <path
           inkscape:connector-curvature="0"
           id="path4007"
           d="m 108.30406,960.10811 c 0,0 4.375,0.3125 6.6875,3.375"
           style="fill:none;stroke:#710000;stroke-width:0.48813608;stroke-linecap:round;stroke-linejoin:round;stroke-miterlimit:4;stroke-opacity:1;stroke-dasharray:none" />
      </g>
      <path
         style="fill:none;stroke:#000000;stroke-width:1;stroke-linecap:round;stroke-linejoin:round;stroke-miterlimit:4;stroke-opacity:1;stroke-dasharray:none"
         d="m 99.304055,960.17061 c 0,0 6.625005,1.5 15.312505,-2.1875"
         id="path4009"
         inkscape:connector-curvature="0" />
    </g>
    <path
       sodipodi:nodetypes="cscscscscscscsc"
       inkscape:connector-curvature="0"
       id="path4136"
       d="m 28.097287,1025.4348 c 0,0 -5.685484,7.2357 5.655535,7.3081 10.803167,0.069 9.315076,-2.4949 9.315076,-2.4949 0,0 -0.252248,-0.9637 -9.326949,-1.1441 -9.42985,-0.1874 -8.568393,4.4232 -8.568393,4.4232 0,0 -1.147179,5.112 8.619843,5.3259 10.993449,0.2411 9.914006,-2.5983 9.914006,-2.5983 0,0 1.017159,-1.9461 -9.543303,-1.5879 -10.032849,0.3404 -9.594753,5.2269 -9.594753,5.2269 0,0 -0.918184,5.3259 11.36252,5.257 9.10822,-0.051 8.117217,-2.5834 8.117217,-2.5834 0,0 0.291895,-1.9001 -9.742508,-1.7753 -10.566035,0.1314 -9.931155,6.2719 -9.931155,6.2719 0,0 -1.151688,4.8326 10.917939,4.7981 9.420268,-0.027 10.312414,-4.1323 10.312414,-4.1323"
       style="fill:none;stroke:#444444;stroke-width:1;stroke-linecap:round;stroke-linejoin:round;stroke-miterlimit:4;stroke-opacity:1;stroke-dasharray:none" />
    <path
       sodipodi:nodetypes="cscscscscscscscscc"
       inkscape:connector-curvature="0"
       id="path4138"
       d="m 21.281374,1018.6205 c 0,0 -6.76576,1.3111 -3.477005,8.4695 3.236552,7.0447 5.176222,4.7394 5.176222,4.7394 0,0 2.501803,-1.4565 -0.891312,-6.6049 -3.814119,-5.7871 -6.50887,-4.149 -6.50887,-4.149 0,0 -6.0452264,1.8039 -0.837516,8.9027 4.443166,6.0566 5.95473,3.7724 5.95473,3.7724 0,0 1.697645,-1.9393 -2.006758,-6.9141 -4.430926,-5.9506 -8.557668,-2.0868 -8.557668,-2.0868 0,0 -4.6542578,4.1435 2.898923,10.2502 5.308063,4.2917 5.632442,1.3382 5.632442,1.3382 0,0 0.06256,-4.0036 -5.02826,-7.4777 -5.4262639,-3.7029 -7.5818838,-0.012 -7.5818838,-0.012 0,0 -3.3339225,4.2679 2.8186919,8.8472 6.5855329,4.9016 7.7096469,2.4478 7.7096469,2.4478 0,0 0.126957,-3.1023 -5.588999,-6.0393 -6.4003549,-3.2888 -9.1581525,1.3534 -9.1581525,1.3534 0,0 -2.1161334,5.0101 7.6561715,6.2907"
       style="fill:none;stroke:#444444;stroke-width:1;stroke-linecap:round;stroke-linejoin:round;stroke-miterlimit:4;stroke-opacity:1;stroke-dasharray:none" />
    <path
       style="fill:none;stroke:#444444;stroke-width:0.99999988;stroke-linecap:round;stroke-linejoin:round;stroke-miterlimit:4;stroke-opacity:1;stroke-dasharray:none"
       d="m 48.568709,1019.6296 c 0,0 7.381519,1.0652 3.954291,8.1527 -3.372831,6.9749 -5.528841,4.7873 -5.528841,4.7873 0,0 -2.749537,-1.3419 0.832597,-6.4717 4.026595,-5.7664 6.989626,-4.2536 6.989626,-4.2536 0,0 6.608442,1.5688 1.094081,8.6588 -4.70481,6.0492 -6.395039,3.8687 -6.395039,3.8687 0,0 -1.88537,-1.8383 2.03873,-6.8088 4.6937,-5.9454 9.259242,-2.3064 9.259242,-2.3064 0,0 5.14472,3.8952 -2.939693,10.0917 -5.681382,4.3545 -6.094918,1.4833 -6.094918,1.4833 0,0 -0.15062,-3.9037 5.311496,-7.4539 5.822015,-3.784 8.241357,-0.2518 8.241357,-0.2518 0,0 3.712071,4.0583 -2.881423,8.7203 -7.057429,4.9902 -8.329983,2.6317 -8.329983,2.6317 0,0 -0.202017,-3.0225 5.950703,-6.0685 6.889423,-3.4108 9.982965,1.0308 9.982965,1.0308 0,0 2.403632,4.8209 -8.192561,6.3792"
       id="path4140"
       inkscape:connector-curvature="0"
       sodipodi:nodetypes="cscscscscscscscscc" />
    <path
       style="fill:none;stroke:#444444;stroke-width:1;stroke-linecap:round;stroke-linejoin:round;stroke-miterlimit:4;stroke-opacity:1;stroke-dasharray:none"
       d="m 28.59109,1008.7829 c 0,0 -1.516387,-6.5426 -8.786356,-1.789 -7.154541,4.678 -4.738079,6.1643 -4.738079,6.1643 0,0 1.558752,2.2232 6.761614,-2.2297 5.848397,-5.0054 4.098351,-7.386 4.098351,-7.386 0,0 -2.004481,-5.71814 -9.16516,0.9541 -6.109398,5.6926 -3.725397,6.7524 -3.725397,6.7524 0,0 2.03448,1.3167 7.051361,-3.4144 6.00079,-5.659 1.928723,-9.03117 1.928723,-9.03117 0,0 -4.372656,-3.84642 -10.455591,4.98537 -4.2748548,6.2067 -1.233062,5.937 -1.233062,5.937 0,0 4.113662,-0.7451 7.554232,-6.5682 3.667297,-6.20674 -0.177442,-7.6307 -0.177442,-7.6307 0,0 -4.467262,-2.49298 -9.0165065,4.6214 -4.8693183,7.6151 -2.3206909,8.2508 -2.3206909,8.2508 0,0 3.1895777,-0.4983 6.0629184,-6.842 3.217349,-7.10318 -1.619865,-8.94097 -1.619865,-8.94097 0,0 -5.1990782,-1.11794 -6.2692763,8.97247"
       id="path4142"
       inkscape:connector-curvature="0"
       sodipodi:nodetypes="cscscscscscscscscc" />
    <path
       sodipodi:nodetypes="cscscscscscscscscc"
       inkscape:connector-curvature="0"
       id="path4144"
       d="m 40.8147,1007.8293 c 0,0 2.233342,-6.8543 9.48189,-1.1222 7.133458,5.6411 4.430498,7.0121 4.430498,7.0121 0,0 -1.864629,2.2354 -6.951534,-2.9898 -5.718046,-5.8736 -3.635619,-8.26 -3.635619,-8.26 0,0 2.671618,-5.92957 9.620627,1.8428 5.928809,6.6313 3.301082,7.5495 3.301082,7.5495 0,0 -2.281936,1.2241 -7.145125,-4.2817 -5.816946,-6.5856 -1.179022,-9.82278 -1.179022,-9.82278 0,0 5.001875,-3.71707 10.602053,6.26588 3.935588,7.0158 0.738148,6.4543 0.738148,6.4543 0,0 -4.287763,-1.1656 -7.376024,-7.6965 -3.291778,-6.9612 0.91871,-8.1373 0.91871,-8.1373 0,0 4.972517,-2.26238 9.111931,5.7479 4.43067,8.5739 1.669095,9.0242 1.669095,9.0242 0,0 -3.332157,-0.819 -5.769479,-7.8552 -2.729144,-7.87859 2.572653,-9.40768 2.572653,-9.40768 0,0 5.616327,-0.72744 5.784166,10.15008"
       style="fill:none;stroke:#444444;stroke-width:0.99999988;stroke-linecap:round;stroke-linejoin:round;stroke-miterlimit:4;stroke-opacity:1;stroke-dasharray:none" />
    <g
       transform="translate(-55.456668,43.262922)"
       id="g4146">
      <path
         sodipodi:type="arc"
         style="fill:url(#radialGradient4181);fill-opacity:1;stroke:none"
         id="path4148"
         sodipodi:cx="84"
         sodipodi:cy="973.98718"
         sodipodi:rx="12.75"
         sodipodi:ry="8.125"
         d="m 96.75,973.98718 c 0,4.48732 -5.708369,8.125 -12.75,8.125 -7.041631,0 -12.75,-3.63768 -12.75,-8.125 0,-4.48731 5.708369,-8.125 12.75,-8.125 7.041631,0 12.75,3.63769 12.75,8.125 z"
         transform="matrix(1.1764706,0,0,1.1076923,-8.3235314,-104.26593)" />
      <path
         transform="matrix(1.3380264,0,0,1.2405629,-24.769217,-235.43017)"
         d="m 96.75,973.98718 c 0,4.48732 -5.708369,8.125 -12.75,8.125 -7.041631,0 -12.75,-3.63768 -12.75,-8.125 0,-4.48731 5.708369,-8.125 12.75,-8.125 7.041631,0 12.75,3.63769 12.75,8.125 z"
         sodipodi:ry="8.125"
         sodipodi:rx="12.75"
         sodipodi:cy="973.98718"
         sodipodi:cx="84"
         id="path4150"
         style="fill:none;stroke:#000000;stroke-width:1.55234516;stroke-linejoin:round;stroke-miterlimit:4;stroke-opacity:1;stroke-dasharray:none;filter:url(#filter3868)"
         sodipodi:type="arc"
         clip-path="url(#clipPath3883)" />
    </g>
    <path
       transform="matrix(0.67014526,-0.12423499,0.28012692,0.6891861,-285.84531,354.23757)"
       d="m 82.125,971.98718 c 0.30083,0.27576 -0.223301,0.54157 -0.458333,0.5 -0.636922,-0.11263 -0.773463,-0.91624 -0.541667,-1.41666 0.414629,-0.89514 1.585715,-1.04881 2.375,-0.58334 1.158307,0.6831 1.331838,2.2641 0.625,3.33334 -0.942103,1.42512 -2.945617,1.61811 -4.291666,0.66666 -1.693866,-1.1973 -1.906065,-3.62863 -0.708334,-5.25 1.450612,-1.96369 4.31248,-2.19498 6.208333,-0.75 2.234196,1.70286 2.484507,4.99686 0.791667,7.16667 -1.95445,2.50513 -5.681577,2.77444 -8.124999,0.83333 -2.776372,-2.2056 -3.064652,-6.36654 -0.875001,-9.08333 2.456457,-3.04782 7.051692,-3.35507 10.041666,-0.91667 3.319437,2.70709 3.645646,7.73698 0.958335,11"
       sodipodi:t0="0"
       sodipodi:argument="-18.107609"
       sodipodi:radius="8.13941"
       sodipodi:revolution="3"
       sodipodi:expansion="1"
       sodipodi:cy="971.98718"
       sodipodi:cx="82.125"
       id="path4152"
       style="fill:none;stroke:#000000;stroke-width:0.99327624;stroke-linecap:round;stroke-linejoin:round;stroke-miterlimit:4;stroke-opacity:1;stroke-dasharray:none"
       sodipodi:type="spiral" />
    <path
       sodipodi:type="spiral"
       style="fill:none;stroke:#000000;stroke-width:1.08355355;stroke-linecap:round;stroke-linejoin:round;stroke-miterlimit:4;stroke-opacity:1;stroke-dasharray:none"
       id="path4154"
       sodipodi:cx="82.125"
       sodipodi:cy="971.98718"
       sodipodi:expansion="1"
       sodipodi:revolution="3"
       sodipodi:radius="8.13941"
       sodipodi:argument="-18.107609"
       sodipodi:t0="0"
       d="m 82.125,971.98718 c 0.30083,0.27576 -0.223301,0.54157 -0.458333,0.5 -0.636922,-0.11263 -0.773463,-0.91624 -0.541667,-1.41666 0.414629,-0.89514 1.585715,-1.04881 2.375,-0.58334 1.158307,0.6831 1.331838,2.2641 0.625,3.33334 -0.942103,1.42512 -2.945617,1.61811 -4.291666,0.66666 -1.693866,-1.1973 -1.906065,-3.62863 -0.708334,-5.25 1.450612,-1.96369 4.31248,-2.19498 6.208333,-0.75 2.234196,1.70286 2.484507,4.99686 0.791667,7.16667 -1.95445,2.50513 -5.681577,2.77444 -8.124999,0.83333 -2.776372,-2.2056 -3.064652,-6.36654 -0.875001,-9.08333 2.456457,-3.04782 7.051692,-3.35507 10.041666,-0.91667 3.319437,2.70709 3.645646,7.73698 0.958335,11"
       transform="matrix(-0.56910084,-0.12775996,-0.21220694,0.68570197,279.61582,358.20677)" />
    <g
       id="g4183"
       transform="matrix(0.89525175,0,-0.11444106,1.0944874,120.44236,-96.422826)">
      <path
         style="fill:url(#radialGradient4187);fill-opacity:1;stroke:#710000;stroke-width:1.01023412;stroke-linecap:round;stroke-opacity:1"
         d="m 30.304055,1022.5456 c 0,0 4.937659,0.8463 6.875,3.25 3.375,4.1875 7.125,3.5 7.125,3.5 0,0 3.762321,-0.9164 2.4375,-4.5 -1.029741,-2.7854 -6.25,-3.8125 -6.25,-3.8125"
         id="path4156"
         inkscape:connector-curvature="0"
         sodipodi:nodetypes="cscsc" />
      <path
         style="fill:none;stroke:#710000;stroke-width:0.50511706;stroke-linecap:round;stroke-linejoin:round;stroke-miterlimit:4;stroke-opacity:1;stroke-dasharray:none"
         d="m 36.304055,1022.1081 c 0,0 4.375,0.3125 6.6875,3.375"
         id="path4158"
         inkscape:connector-curvature="0" />
    </g>
    <path
       inkscape:connector-curvature="0"
       id="path4160"
       d="m 27.304055,1022.1706 c 0,0 6.625,1.5 15.3125,-2.1875"
       style="fill:none;stroke:#000000;stroke-width:1;stroke-linecap:round;stroke-linejoin:round;stroke-miterlimit:4;stroke-opacity:1;stroke-dasharray:none" />
  </g>
</svg>
