<?xml version="1.0" encoding="UTF-8" standalone="no"?>
<!-- Created with Inkscape (http://www.inkscape.org/) -->

<svg
   xmlns:dc="http://purl.org/dc/elements/1.1/"
   xmlns:cc="http://creativecommons.org/ns#"
   xmlns:rdf="http://www.w3.org/1999/02/22-rdf-syntax-ns#"
   xmlns:svg="http://www.w3.org/2000/svg"
   xmlns="http://www.w3.org/2000/svg"
   xmlns:sodipodi="http://sodipodi.sourceforge.net/DTD/sodipodi-0.dtd"
   xmlns:inkscape="http://www.inkscape.org/namespaces/inkscape"
   width="32"
   height="32"
   id="svg2"
   version="1.1"
   inkscape:version="0.48.4 r9939"
   sodipodi:docname="complete.svg"
   inkscape:export-filename="/home/victor/aleva/super-bombinhas/data/img/other/complete.png"
   inkscape:export-xdpi="90"
   inkscape:export-ydpi="90">
  <defs
     id="defs4" />
  <sodipodi:namedview
     id="base"
     pagecolor="#ffffff"
     bordercolor="#666666"
     borderopacity="1.0"
     inkscape:pageopacity="0.0"
     inkscape:pageshadow="2"
     inkscape:zoom="1"
     inkscape:cx="25.369863"
     inkscape:cy="16"
     inkscape:document-units="px"
     inkscape:current-layer="layer1"
     showgrid="false"
     inkscape:window-width="1364"
     inkscape:window-height="718"
     inkscape:window-x="0"
     inkscape:window-y="0"
     inkscape:window-maximized="1" />
  <metadata
     id="metadata7">
    <rdf:RDF>
      <cc:Work
         rdf:about="">
        <dc:format>image/svg+xml</dc:format>
        <dc:type
           rdf:resource="http://purl.org/dc/dcmitype/StillImage" />
        <dc:title></dc:title>
      </cc:Work>
    </rdf:RDF>
  </metadata>
  <g
     inkscape:label="Layer 1"
     inkscape:groupmode="layer"
     id="layer1"
     transform="translate(0,-1020.3622)">
    <path
       sodipodi:type="arc"
       style="fill:#00ff00;fill-opacity:1;stroke:none"
       id="path2985"
       sodipodi:cx="15.369863"
       sodipodi:cy="15.917809"
       sodipodi:rx="13.726027"
       sodipodi:ry="12.356164"
       d="m 29.095889,15.917809 a 13.726027,12.356164 0 1 1 -27.452053,0 13.726027,12.356164 0 1 1 27.452053,0 z"
       transform="matrix(1.1656687,0,0,1.2949003,-1.9161683,1015.7502)" />
    <path
       transform="matrix(0.94710585,0,0,1.0521065,1.4431133,1019.615)"
       d="m 29.095889,15.917809 a 13.726027,12.356164 0 1 1 -27.452053,0 13.726027,12.356164 0 1 1 27.452053,0 z"
       sodipodi:ry="12.356164"
       sodipodi:rx="13.726027"
       sodipodi:cy="15.917809"
       sodipodi:cx="15.369863"
       id="path3755"
       style="fill:#006400;fill-opacity:1;stroke:none"
       sodipodi:type="arc" />
    <path
       style="fill:#00ff00;fill-opacity:1;stroke:none"
       d="m 3.890411,1037.6225 c 0,0 6.739726,3.0685 8.712329,10.137 0,0 3.013698,-10.7398 14.191781,-18.0274 0,0 -8.712329,-2.4658 -14.410959,12.2739 0,0 -3.6164386,-6.8493 -8.493151,-4.3835 z"
       id="path3794"
       inkscape:connector-curvature="0" />
  </g>
</svg>
