<?xml version="1.0" encoding="UTF-8" standalone="no"?>
<!-- Created with Inkscape (http://www.inkscape.org/) -->

<svg
   xmlns:dc="http://purl.org/dc/elements/1.1/"
   xmlns:cc="http://creativecommons.org/ns#"
   xmlns:rdf="http://www.w3.org/1999/02/22-rdf-syntax-ns#"
   xmlns:svg="http://www.w3.org/2000/svg"
   xmlns="http://www.w3.org/2000/svg"
   xmlns:sodipodi="http://sodipodi.sourceforge.net/DTD/sodipodi-0.dtd"
   xmlns:inkscape="http://www.inkscape.org/namespaces/inkscape"
   width="32"
   height="32"
   id="svg2"
   version="1.1"
   inkscape:version="0.48.4 r9939"
   sodipodi:docname="current.svg"
   inkscape:export-filename="/home/victor/aleva/super-bombinhas/data/img/other/current.png"
   inkscape:export-xdpi="90"
   inkscape:export-ydpi="90">
  <defs
     id="defs4" />
  <sodipodi:namedview
     id="base"
     pagecolor="#ffffff"
     bordercolor="#666666"
     borderopacity="1.0"
     inkscape:pageopacity="0.0"
     inkscape:pageshadow="2"
     inkscape:zoom="1"
     inkscape:cx="25.369863"
     inkscape:cy="16"
     inkscape:document-units="px"
     inkscape:current-layer="layer1"
     showgrid="false"
     inkscape:window-width="1364"
     inkscape:window-height="718"
     inkscape:window-x="0"
     inkscape:window-y="0"
     inkscape:window-maximized="1" />
  <metadata
     id="metadata7">
    <rdf:RDF>
      <cc:Work
         rdf:about="">
        <dc:format>image/svg+xml</dc:format>
        <dc:type
           rdf:resource="http://purl.org/dc/dcmitype/StillImage" />
        <dc:title />
      </cc:Work>
    </rdf:RDF>
  </metadata>
  <g
     inkscape:label="Layer 1"
     inkscape:groupmode="layer"
     id="layer1"
     transform="translate(0,-1020.3622)">
    <path
       sodipodi:type="arc"
       style="fill:#ffff00;fill-opacity:1;stroke:none"
       id="path2985"
       sodipodi:cx="15.369863"
       sodipodi:cy="15.917809"
       sodipodi:rx="13.726027"
       sodipodi:ry="12.356164"
       d="m 29.095889,15.917809 c 0,6.82412 -6.145351,12.356164 -13.726026,12.356164 -7.5806756,0 -13.726027,-5.532044 -13.726027,-12.356164 0,-6.8241214 6.1453514,-12.3561644 13.726027,-12.3561644 7.580675,0 13.726026,5.532043 13.726026,12.3561644 z"
       transform="matrix(1.1656687,0,0,1.2949003,-1.9161683,1015.7502)" />
    <path
       transform="matrix(0.94710585,0,0,1.0521065,1.4431133,1019.615)"
       d="m 29.095889,15.917809 c 0,6.82412 -6.145351,12.356164 -13.726026,12.356164 -7.5806756,0 -13.726027,-5.532044 -13.726027,-12.356164 0,-6.8241214 6.1453514,-12.3561644 13.726027,-12.3561644 7.580675,0 13.726026,5.532043 13.726026,12.3561644 z"
       sodipodi:ry="12.356164"
       sodipodi:rx="13.726027"
       sodipodi:cy="15.917809"
       sodipodi:cx="15.369863"
       id="path3755"
       style="fill:#848400;fill-opacity:1;stroke:none"
       sodipodi:type="arc" />
    <path
       style="opacity:1;fill:#ffff00;fill-opacity:1;stroke:none"
       d="m 16.125,3.6249999 c 0,0 -5.0625,7.3125001 0.0625,18.8750001 0,0 5.25,-8.75 -0.0625,-18.8750001 z"
       id="path3823"
       inkscape:connector-curvature="0"
       transform="translate(0,1020.3622)" />
    <path
       sodipodi:type="arc"
       style="fill:#ffff00;fill-opacity:1;stroke:none"
       id="path3825"
       sodipodi:cx="16.28125"
       sodipodi:cy="25.25"
       sodipodi:rx="2.96875"
       sodipodi:ry="2.25"
       d="m 19.25,25.25 c 0,1.242641 -1.329155,2.25 -2.96875,2.25 -1.639595,0 -2.96875,-1.007359 -2.96875,-2.25 0,-1.242641 1.329155,-2.25 2.96875,-2.25 1.639595,0 2.96875,1.007359 2.96875,2.25 z"
       transform="matrix(0.84210526,0,0,1.1111111,2.5394737,1018.1191)" />
  </g>
</svg>
