<?xml version="1.0" encoding="UTF-8" standalone="no"?>
<!-- Created with Inkscape (http://www.inkscape.org/) -->

<svg
   xmlns:dc="http://purl.org/dc/elements/1.1/"
   xmlns:cc="http://creativecommons.org/ns#"
   xmlns:rdf="http://www.w3.org/1999/02/22-rdf-syntax-ns#"
   xmlns:svg="http://www.w3.org/2000/svg"
   xmlns="http://www.w3.org/2000/svg"
   xmlns:xlink="http://www.w3.org/1999/xlink"
   xmlns:sodipodi="http://sodipodi.sourceforge.net/DTD/sodipodi-0.dtd"
   xmlns:inkscape="http://www.inkscape.org/namespaces/inkscape"
   width="128"
   height="20"
   id="svg2"
   version="1.1"
   inkscape:version="0.48.3.1 r9886"
   sodipodi:docname="faller1.svg"
   inkscape:export-filename="/home/victor/aleva/super-bombinhas/src/data/img/sprite/faller1.png"
   inkscape:export-xdpi="90"
   inkscape:export-ydpi="90">
  <defs
     id="defs4">
    <linearGradient
       id="linearGradient3959">
      <stop
         id="stop3961"
         offset="0"
         style="stop-color:#ffffff;stop-opacity:1;" />
      <stop
         style="stop-color:#ffffff;stop-opacity:1;"
         offset="0.09633714"
         id="stop3963" />
      <stop
         id="stop3965"
         offset="1"
         style="stop-color:#ff0000;stop-opacity:1;" />
    </linearGradient>
    <linearGradient
       id="linearGradient3951">
      <stop
         id="stop3953"
         offset="0"
         style="stop-color:#ffffff;stop-opacity:1;" />
      <stop
         style="stop-color:#ffffff;stop-opacity:1;"
         offset="0.09633714"
         id="stop3955" />
      <stop
         id="stop3957"
         offset="1"
         style="stop-color:#ad0000;stop-opacity:1;" />
    </linearGradient>
    <linearGradient
       id="linearGradient3943">
      <stop
         id="stop3945"
         offset="0"
         style="stop-color:#ffffff;stop-opacity:1;" />
      <stop
         style="stop-color:#ffffff;stop-opacity:1;"
         offset="0.09633714"
         id="stop3947" />
      <stop
         id="stop3949"
         offset="1"
         style="stop-color:#5e0000;stop-opacity:1;" />
    </linearGradient>
    <linearGradient
       id="linearGradient3827">
      <stop
         style="stop-color:#ffffff;stop-opacity:1;"
         offset="0"
         id="stop3829" />
      <stop
         id="stop3835"
         offset="0.09633714"
         style="stop-color:#ffffff;stop-opacity:1;" />
      <stop
         style="stop-color:#000000;stop-opacity:1;"
         offset="1"
         id="stop3831" />
    </linearGradient>
    <linearGradient
       id="linearGradient3797">
      <stop
         style="stop-color:#7a7a7a;stop-opacity:1;"
         offset="0"
         id="stop3799" />
      <stop
         id="stop3807"
         offset="0.43342552"
         style="stop-color:#ffffff;stop-opacity:1;" />
      <stop
         id="stop3805"
         offset="0.53057092"
         style="stop-color:#808080;stop-opacity:1;" />
      <stop
         style="stop-color:#b9b9b9;stop-opacity:1;"
         offset="1"
         id="stop3801" />
    </linearGradient>
    <filter
       inkscape:collect="always"
       id="filter3761"
       x="-0.13956821"
       width="1.2791364"
       y="-0.2534112"
       height="1.5068224">
      <feGaussianBlur
         inkscape:collect="always"
         stdDeviation="2.0783782"
         id="feGaussianBlur3763" />
    </filter>
    <clipPath
       clipPathUnits="userSpaceOnUse"
       id="clipPath3767">
      <path
         sodipodi:nodetypes="ccccccccc"
         inkscape:connector-curvature="0"
         id="path3769"
         d="m 0,14 1,1 30,0 1,-1 0,-9 c 0,0 0.278351,-5.10996563 -5,-5 L 5,0 C 5,0 0.10996563,0.05154643 0,5 z"
         style="fill:#ffff00;fill-opacity:1;stroke:none" />
    </clipPath>
    <filter
       inkscape:collect="always"
       id="filter3785"
       x="-0.13806878"
       width="1.2761376"
       y="-0.25850856"
       height="1.5170171">
      <feGaussianBlur
         inkscape:collect="always"
         stdDeviation="2.1192687"
         id="feGaussianBlur3787" />
    </filter>
    <clipPath
       clipPathUnits="userSpaceOnUse"
       id="clipPath3791">
      <path
         sodipodi:nodetypes="ccccccccc"
         inkscape:connector-curvature="0"
         id="path3793"
         d="m 0,14 1,1 30,0 1,-1 0,-9 c 0,0 0.278351,-5.10996563 -5,-5 L 5,0 C 5,0 0.10996563,0.05154643 0,5 z"
         style="fill:#ffff00;fill-opacity:1;stroke:none" />
    </clipPath>
    <linearGradient
       inkscape:collect="always"
       xlink:href="#linearGradient3797"
       id="linearGradient3803"
       x1="0.9295533"
       y1="16.865979"
       x2="7.5378007"
       y2="16.865979"
       gradientUnits="userSpaceOnUse"
       gradientTransform="translate(-0.2295533,1032.3622)" />
    <linearGradient
       inkscape:collect="always"
       xlink:href="#linearGradient3797"
       id="linearGradient3811"
       gradientUnits="userSpaceOnUse"
       x1="0.9295533"
       y1="16.865979"
       x2="7.5378007"
       y2="16.865979"
       gradientTransform="translate(5.7704467,1032.3622)" />
    <linearGradient
       inkscape:collect="always"
       xlink:href="#linearGradient3797"
       id="linearGradient3815"
       gradientUnits="userSpaceOnUse"
       gradientTransform="translate(11.770447,1032.3622)"
       x1="0.9295533"
       y1="16.865979"
       x2="7.5378007"
       y2="16.865979" />
    <linearGradient
       inkscape:collect="always"
       xlink:href="#linearGradient3797"
       id="linearGradient3819"
       gradientUnits="userSpaceOnUse"
       gradientTransform="translate(17.770447,1032.3622)"
       x1="0.9295533"
       y1="16.865979"
       x2="7.5378007"
       y2="16.865979" />
    <linearGradient
       inkscape:collect="always"
       xlink:href="#linearGradient3797"
       id="linearGradient3823"
       gradientUnits="userSpaceOnUse"
       gradientTransform="translate(23.770447,1032.3622)"
       x1="0.9295533"
       y1="16.865979"
       x2="7.5378007"
       y2="16.865979" />
    <radialGradient
       inkscape:collect="always"
       xlink:href="#linearGradient3827"
       id="radialGradient3833"
       cx="7.092783"
       cy="9.6891775"
       fx="7.092783"
       fy="9.6891775"
       r="5.6134019"
       gradientTransform="matrix(0.54869021,0.10037051,-0.30631815,1.6745331,6.1690131,-7.6034211)"
       gradientUnits="userSpaceOnUse" />
    <radialGradient
       inkscape:collect="always"
       xlink:href="#linearGradient3827"
       id="radialGradient3839"
       gradientUnits="userSpaceOnUse"
       gradientTransform="matrix(-0.54869021,0.10037051,0.30631815,1.6745331,25.995935,1024.7588)"
       cx="7.092783"
       cy="9.6891775"
       fx="7.092783"
       fy="9.6891775"
       r="5.6134019" />
    <linearGradient
       inkscape:collect="always"
       xlink:href="#linearGradient3797"
       id="linearGradient3861"
       gradientUnits="userSpaceOnUse"
       gradientTransform="translate(31.770447,1032.3622)"
       x1="0.9295533"
       y1="16.865979"
       x2="7.5378007"
       y2="16.865979" />
    <linearGradient
       inkscape:collect="always"
       xlink:href="#linearGradient3797"
       id="linearGradient3863"
       gradientUnits="userSpaceOnUse"
       gradientTransform="translate(37.770447,1032.3622)"
       x1="0.9295533"
       y1="16.865979"
       x2="7.5378007"
       y2="16.865979" />
    <linearGradient
       inkscape:collect="always"
       xlink:href="#linearGradient3797"
       id="linearGradient3865"
       gradientUnits="userSpaceOnUse"
       gradientTransform="translate(43.770447,1032.3622)"
       x1="0.9295533"
       y1="16.865979"
       x2="7.5378007"
       y2="16.865979" />
    <linearGradient
       inkscape:collect="always"
       xlink:href="#linearGradient3797"
       id="linearGradient3867"
       gradientUnits="userSpaceOnUse"
       gradientTransform="translate(49.770447,1032.3622)"
       x1="0.9295533"
       y1="16.865979"
       x2="7.5378007"
       y2="16.865979" />
    <linearGradient
       inkscape:collect="always"
       xlink:href="#linearGradient3797"
       id="linearGradient3869"
       gradientUnits="userSpaceOnUse"
       gradientTransform="translate(55.770447,1032.3622)"
       x1="0.9295533"
       y1="16.865979"
       x2="7.5378007"
       y2="16.865979" />
    <radialGradient
       inkscape:collect="always"
       xlink:href="#linearGradient3943"
       id="radialGradient3871"
       gradientUnits="userSpaceOnUse"
       gradientTransform="matrix(0.54869021,0.10037051,-0.30631815,1.6745331,38.169013,1024.7588)"
       cx="7.092783"
       cy="9.6891775"
       fx="7.092783"
       fy="9.6891775"
       r="5.6134019" />
    <radialGradient
       inkscape:collect="always"
       xlink:href="#linearGradient3943"
       id="radialGradient3873"
       gradientUnits="userSpaceOnUse"
       gradientTransform="matrix(-0.54869021,0.10037051,0.30631815,1.6745331,57.995935,1024.7588)"
       cx="7.092783"
       cy="9.6891775"
       fx="7.092783"
       fy="9.6891775"
       r="5.6134019" />
    <linearGradient
       inkscape:collect="always"
       xlink:href="#linearGradient3797"
       id="linearGradient3895"
       gradientUnits="userSpaceOnUse"
       gradientTransform="translate(63.770447,1032.3622)"
       x1="0.9295533"
       y1="16.865979"
       x2="7.5378007"
       y2="16.865979" />
    <linearGradient
       inkscape:collect="always"
       xlink:href="#linearGradient3797"
       id="linearGradient3897"
       gradientUnits="userSpaceOnUse"
       gradientTransform="translate(69.770447,1032.3622)"
       x1="0.9295533"
       y1="16.865979"
       x2="7.5378007"
       y2="16.865979" />
    <linearGradient
       inkscape:collect="always"
       xlink:href="#linearGradient3797"
       id="linearGradient3899"
       gradientUnits="userSpaceOnUse"
       gradientTransform="translate(75.770447,1032.3622)"
       x1="0.9295533"
       y1="16.865979"
       x2="7.5378007"
       y2="16.865979" />
    <linearGradient
       inkscape:collect="always"
       xlink:href="#linearGradient3797"
       id="linearGradient3901"
       gradientUnits="userSpaceOnUse"
       gradientTransform="translate(81.770447,1032.3622)"
       x1="0.9295533"
       y1="16.865979"
       x2="7.5378007"
       y2="16.865979" />
    <linearGradient
       inkscape:collect="always"
       xlink:href="#linearGradient3797"
       id="linearGradient3903"
       gradientUnits="userSpaceOnUse"
       gradientTransform="translate(87.770447,1032.3622)"
       x1="0.9295533"
       y1="16.865979"
       x2="7.5378007"
       y2="16.865979" />
    <radialGradient
       inkscape:collect="always"
       xlink:href="#linearGradient3951"
       id="radialGradient3905"
       gradientUnits="userSpaceOnUse"
       gradientTransform="matrix(0.54869021,0.10037051,-0.30631815,1.6745331,70.169013,1024.7588)"
       cx="7.092783"
       cy="9.6891775"
       fx="7.092783"
       fy="9.6891775"
       r="5.6134019" />
    <radialGradient
       inkscape:collect="always"
       xlink:href="#linearGradient3951"
       id="radialGradient3907"
       gradientUnits="userSpaceOnUse"
       gradientTransform="matrix(-0.54869021,0.10037051,0.30631815,1.6745331,89.995935,1024.7588)"
       cx="7.092783"
       cy="9.6891775"
       fx="7.092783"
       fy="9.6891775"
       r="5.6134019" />
    <linearGradient
       inkscape:collect="always"
       xlink:href="#linearGradient3797"
       id="linearGradient3929"
       gradientUnits="userSpaceOnUse"
       gradientTransform="translate(95.77045,1032.3622)"
       x1="0.9295533"
       y1="16.865979"
       x2="7.5378007"
       y2="16.865979" />
    <linearGradient
       inkscape:collect="always"
       xlink:href="#linearGradient3797"
       id="linearGradient3931"
       gradientUnits="userSpaceOnUse"
       gradientTransform="translate(101.77045,1032.3622)"
       x1="0.9295533"
       y1="16.865979"
       x2="7.5378007"
       y2="16.865979" />
    <linearGradient
       inkscape:collect="always"
       xlink:href="#linearGradient3797"
       id="linearGradient3933"
       gradientUnits="userSpaceOnUse"
       gradientTransform="translate(107.77045,1032.3622)"
       x1="0.9295533"
       y1="16.865979"
       x2="7.5378007"
       y2="16.865979" />
    <linearGradient
       inkscape:collect="always"
       xlink:href="#linearGradient3797"
       id="linearGradient3935"
       gradientUnits="userSpaceOnUse"
       gradientTransform="translate(113.77045,1032.3622)"
       x1="0.9295533"
       y1="16.865979"
       x2="7.5378007"
       y2="16.865979" />
    <linearGradient
       inkscape:collect="always"
       xlink:href="#linearGradient3797"
       id="linearGradient3937"
       gradientUnits="userSpaceOnUse"
       gradientTransform="translate(119.77045,1032.3622)"
       x1="0.9295533"
       y1="16.865979"
       x2="7.5378007"
       y2="16.865979" />
    <radialGradient
       inkscape:collect="always"
       xlink:href="#linearGradient3959"
       id="radialGradient3939"
       gradientUnits="userSpaceOnUse"
       gradientTransform="matrix(0.54869021,0.10037051,-0.30631815,1.6745331,102.16901,1024.7588)"
       cx="7.092783"
       cy="9.6891775"
       fx="7.092783"
       fy="9.6891775"
       r="5.6134019" />
    <radialGradient
       inkscape:collect="always"
       xlink:href="#linearGradient3959"
       id="radialGradient3941"
       gradientUnits="userSpaceOnUse"
       gradientTransform="matrix(-0.54869021,0.10037051,0.30631815,1.6745331,121.99594,1024.7588)"
       cx="7.092783"
       cy="9.6891775"
       fx="7.092783"
       fy="9.6891775"
       r="5.6134019" />
    <filter
       inkscape:collect="always"
       id="filter4123"
       x="-0.19645162"
       width="1.3929032"
       y="-0.27681817"
       height="1.5536363">
      <feGaussianBlur
         inkscape:collect="always"
         stdDeviation="0.83711341"
         id="feGaussianBlur4125" />
    </filter>
    <filter
       inkscape:collect="always"
       id="filter4127"
       x="-0.19645162"
       width="1.3929032"
       y="-0.2768194"
       height="1.5536388">
      <feGaussianBlur
         inkscape:collect="always"
         stdDeviation="0.83711341"
         id="feGaussianBlur4129" />
    </filter>
  </defs>
  <sodipodi:namedview
     id="base"
     pagecolor="#ffffff"
     bordercolor="#666666"
     borderopacity="1.0"
     inkscape:pageopacity="0.0"
     inkscape:pageshadow="2"
     inkscape:zoom="1"
     inkscape:cx="97.269063"
     inkscape:cy="10"
     inkscape:document-units="px"
     inkscape:current-layer="layer1"
     showgrid="false"
     inkscape:window-width="1301"
     inkscape:window-height="744"
     inkscape:window-x="65"
     inkscape:window-y="24"
     inkscape:window-maximized="1" />
  <metadata
     id="metadata7">
    <rdf:RDF>
      <cc:Work
         rdf:about="">
        <dc:format>image/svg+xml</dc:format>
        <dc:type
           rdf:resource="http://purl.org/dc/dcmitype/StillImage" />
        <dc:title></dc:title>
      </cc:Work>
    </rdf:RDF>
  </metadata>
  <g
     inkscape:label="Layer 1"
     inkscape:groupmode="layer"
     id="layer1"
     transform="translate(0,-1032.3622)">
    <path
       style="fill:url(#linearGradient3803);fill-opacity:1;stroke:none"
       d="m 1.2,1046.2041 2.8591065,6.0481 2.7491409,-6.0481 z"
       id="path3795"
       inkscape:connector-curvature="0" />
    <path
       inkscape:connector-curvature="0"
       id="path3809"
       d="m 7.2,1046.2041 2.859107,6.0481 2.749141,-6.0481 z"
       style="fill:url(#linearGradient3811);fill-opacity:1;stroke:none" />
    <path
       style="fill:url(#linearGradient3815);fill-opacity:1;stroke:none"
       d="m 13.2,1046.2041 2.859107,6.0481 2.749141,-6.0481 z"
       id="path3813"
       inkscape:connector-curvature="0" />
    <path
       inkscape:connector-curvature="0"
       id="path3817"
       d="m 19.2,1046.2041 2.859107,6.0481 2.749141,-6.0481 z"
       style="fill:url(#linearGradient3819);fill-opacity:1;stroke:none" />
    <path
       style="fill:url(#linearGradient3823);fill-opacity:1;stroke:none"
       d="m 25.2,1046.2041 2.859107,6.0481 2.749141,-6.0481 z"
       id="path3821"
       inkscape:connector-curvature="0" />
    <path
       style="fill:#ffff00;fill-opacity:1;stroke:none"
       d="m 0,14 1,1 30,0 1,-1 0,-9 c 0,0 0.278351,-5.10996563 -5,-5 L 5,0 C 5,0 0.10996563,0.05154643 0,5 z"
       id="path2985"
       inkscape:connector-curvature="0"
       transform="translate(0,1032.3622)"
       sodipodi:nodetypes="ccccccccc" />
    <path
       style="fill:#000000;stroke:none;stroke-width:1px;stroke-linecap:butt;stroke-linejoin:miter;stroke-opacity:1;fill-opacity:1;filter:url(#filter3785);opacity:0.5"
       d="m -2.5292096,8.4536082 4.838488,3.9587628 25.0721646,0 1.429554,-1.649484 0,-6.8178698 c 0,0 -0.549829,-5.3883162 -5.498282,-5.3883162 0,0 10.556701,-1.8694158 10.556701,3.4089347 l 0,15.8350513 -36.8384882,0.109966 z"
       id="path3771"
       inkscape:connector-curvature="0"
       transform="translate(0,1032.3622)"
       clip-path="url(#clipPath3791)" />
    <path
       style="fill:#ffffff;fill-opacity:1;stroke:none;filter:url(#filter3761);opacity:0.9"
       d="m -1.8694158,17.491409 0,-13.5463918 c 0,0 -0.2199313,-6.04811 6.927835,-6.04811 l 23.3127148,0 c 0,0 5.498282,0 5.498282,6.2680413 0,0 -0.879725,-2.1993128 -4.618557,-2.3092784 l -23.5326459,0 c 0,0 -3.628866,-0.1099656 -3.628866,3.4089347 l 0,14.3161512 z"
       id="path3755"
       inkscape:connector-curvature="0"
       transform="translate(0,1032.3622)"
       sodipodi:nodetypes="ccsccccscc"
       clip-path="url(#clipPath3767)" />
    <path
       transform="translate(0,1032.3622)"
       inkscape:connector-curvature="0"
       id="path4111"
       d="M 13.195876,11.972509 3.5189003,11.092784 2.9690722,4.7147766 c 0,0 3.4089347,5.8281784 10.2268038,7.2577324 z"
       style="fill:#000000;stroke:none;stroke-width:1px;stroke-linecap:butt;stroke-linejoin:miter;stroke-opacity:1;fill-opacity:1;filter:url(#filter4123)" />
    <path
       style="fill:url(#radialGradient3833);stroke:none;stroke-width:1px;stroke-linecap:butt;stroke-linejoin:miter;stroke-opacity:1;fill-opacity:1"
       d="M 13.195876,11.972509 3.5189003,11.092784 2.9690722,4.7147766 c 0,0 3.4089347,5.8281784 10.2268038,7.2577324 z"
       id="path3825"
       inkscape:connector-curvature="0"
       transform="translate(0,1032.3622)" />
    <path
       style="fill:#000000;fill-opacity:1;stroke:none;filter:url(#filter4127)"
       d="m 18.969072,1044.3347 9.676976,-0.8797 0.549828,-6.378 c 0,0 -3.408935,5.8282 -10.226804,7.2577 z"
       id="path4113"
       inkscape:connector-curvature="0" />
    <path
       inkscape:connector-curvature="0"
       id="path3837"
       d="m 18.969072,1044.3347 9.676976,-0.8797 0.549828,-6.378 c 0,0 -3.408935,5.8282 -10.226804,7.2577 z"
       style="fill:url(#radialGradient3839);fill-opacity:1;stroke:none" />
    <path
       inkscape:connector-curvature="0"
       id="path3841"
       d="m 33.2,1046.2041 2.859106,6.0481 2.749141,-6.0481 z"
       style="fill:url(#linearGradient3861);fill-opacity:1;stroke:none" />
    <path
       style="fill:url(#linearGradient3863);fill-opacity:1;stroke:none"
       d="m 39.2,1046.2041 2.859107,6.0481 2.749141,-6.0481 z"
       id="path3843"
       inkscape:connector-curvature="0" />
    <path
       inkscape:connector-curvature="0"
       id="path3845"
       d="m 45.2,1046.2041 2.859107,6.0481 2.749141,-6.0481 z"
       style="fill:url(#linearGradient3865);fill-opacity:1;stroke:none" />
    <path
       style="fill:url(#linearGradient3867);fill-opacity:1;stroke:none"
       d="m 51.2,1046.2041 2.859107,6.0481 2.749141,-6.0481 z"
       id="path3847"
       inkscape:connector-curvature="0" />
    <path
       inkscape:connector-curvature="0"
       id="path3849"
       d="m 57.2,1046.2041 2.859107,6.0481 2.749141,-6.0481 z"
       style="fill:url(#linearGradient3869);fill-opacity:1;stroke:none" />
    <path
       sodipodi:nodetypes="ccccccccc"
       inkscape:connector-curvature="0"
       id="path3851"
       d="m 32,1046.3622 1,1 30,0 1,-1 0,-9 c 0,0 0.278351,-5.11 -5,-5 l -22,0 c 0,0 -4.890034,0.052 -5,5 z"
       style="fill:#ffff00;fill-opacity:1;stroke:none" />
    <path
       clip-path="url(#clipPath3791)"
       transform="translate(32,1032.3622)"
       inkscape:connector-curvature="0"
       id="path3853"
       d="m -2.5292096,8.4536082 4.838488,3.9587628 25.0721646,0 1.429554,-1.649484 0,-6.8178698 c 0,0 -0.549829,-5.3883162 -5.498282,-5.3883162 0,0 10.556701,-1.8694158 10.556701,3.4089347 l 0,15.8350513 -36.8384882,0.109966 z"
       style="opacity:0.5;fill:#000000;fill-opacity:1;stroke:none;filter:url(#filter3785)" />
    <path
       clip-path="url(#clipPath3767)"
       sodipodi:nodetypes="ccsccccscc"
       transform="translate(32,1032.3622)"
       inkscape:connector-curvature="0"
       id="path3855"
       d="m -1.8694158,17.491409 0,-13.5463918 c 0,0 -0.2199313,-6.04811 6.927835,-6.04811 l 23.3127148,0 c 0,0 5.498282,0 5.498282,6.2680413 0,0 -0.879725,-2.1993128 -4.618557,-2.3092784 l -23.5326459,0 c 0,0 -3.628866,-0.1099656 -3.628866,3.4089347 l 0,14.3161512 z"
       style="opacity:0.9;fill:#ffffff;fill-opacity:1;stroke:none;filter:url(#filter3761)" />
    <path
       style="fill:#000000;fill-opacity:1;stroke:none;filter:url(#filter4123)"
       d="m 45.195876,1044.3347 -9.676976,-0.8797 -0.549828,-6.378 c 0,0 3.408935,5.8282 10.226804,7.2577 z"
       id="path4131"
       inkscape:connector-curvature="0" />
    <path
       inkscape:connector-curvature="0"
       id="path3857"
       d="m 45.195876,1044.3347 -9.676976,-0.8797 -0.549828,-6.378 c 0,0 3.408935,5.8282 10.226804,7.2577 z"
       style="fill:url(#radialGradient3871);fill-opacity:1.0;stroke:none" />
    <path
       inkscape:connector-curvature="0"
       id="path4133"
       d="m 50.969072,1044.3347 9.676976,-0.8797 0.549828,-6.378 c 0,0 -3.408935,5.8282 -10.226804,7.2577 z"
       style="fill:#000000;fill-opacity:1;stroke:none;filter:url(#filter4127)" />
    <path
       style="fill:url(#radialGradient3873);fill-opacity:1.0;stroke:none"
       d="m 50.969072,1044.3347 9.676976,-0.8797 0.549828,-6.378 c 0,0 -3.408935,5.8282 -10.226804,7.2577 z"
       id="path3859"
       inkscape:connector-curvature="0" />
    <path
       style="fill:url(#linearGradient3895);fill-opacity:1;stroke:none"
       d="m 65.2,1046.2041 2.859106,6.0481 2.749141,-6.0481 z"
       id="path3875"
       inkscape:connector-curvature="0" />
    <path
       inkscape:connector-curvature="0"
       id="path3877"
       d="m 71.2,1046.2041 2.859107,6.0481 2.749141,-6.0481 z"
       style="fill:url(#linearGradient3897);fill-opacity:1;stroke:none" />
    <path
       style="fill:url(#linearGradient3899);fill-opacity:1;stroke:none"
       d="m 77.2,1046.2041 2.859107,6.0481 2.749141,-6.0481 z"
       id="path3879"
       inkscape:connector-curvature="0" />
    <path
       inkscape:connector-curvature="0"
       id="path3881"
       d="m 83.2,1046.2041 2.859107,6.0481 2.749141,-6.0481 z"
       style="fill:url(#linearGradient3901);fill-opacity:1;stroke:none" />
    <path
       style="fill:url(#linearGradient3903);fill-opacity:1;stroke:none"
       d="m 89.2,1046.2041 2.85911,6.0481 2.74914,-6.0481 z"
       id="path3883"
       inkscape:connector-curvature="0" />
    <path
       style="fill:#ffff00;fill-opacity:1;stroke:none"
       d="m 64,1046.3622 1,1 30,0 1,-1 0,-9 c 0,0 0.27835,-5.11 -5,-5 l -22,0 c 0,0 -4.890034,0.052 -5,5 z"
       id="path3885"
       inkscape:connector-curvature="0"
       sodipodi:nodetypes="ccccccccc" />
    <path
       style="opacity:0.5;fill:#000000;fill-opacity:1;stroke:none;filter:url(#filter3785)"
       d="m -2.5292096,8.4536082 4.838488,3.9587628 25.0721646,0 1.429554,-1.649484 0,-6.8178698 c 0,0 -0.549829,-5.3883162 -5.498282,-5.3883162 0,0 10.556701,-1.8694158 10.556701,3.4089347 l 0,15.8350513 -36.8384882,0.109966 z"
       id="path3887"
       inkscape:connector-curvature="0"
       transform="translate(64,1032.3622)"
       clip-path="url(#clipPath3791)" />
    <path
       style="opacity:0.9;fill:#ffffff;fill-opacity:1;stroke:none;filter:url(#filter3761)"
       d="m -1.8694158,17.491409 0,-13.5463918 c 0,0 -0.2199313,-6.04811 6.927835,-6.04811 l 23.3127148,0 c 0,0 5.498282,0 5.498282,6.2680413 0,0 -0.879725,-2.1993128 -4.618557,-2.3092784 l -23.5326459,0 c 0,0 -3.628866,-0.1099656 -3.628866,3.4089347 l 0,14.3161512 z"
       id="path3889"
       inkscape:connector-curvature="0"
       transform="translate(64,1032.3622)"
       sodipodi:nodetypes="ccsccccscc"
       clip-path="url(#clipPath3767)" />
    <path
       inkscape:connector-curvature="0"
       id="path4135"
       d="m 77.195876,1044.3347 -9.676976,-0.8797 -0.549828,-6.378 c 0,0 3.408935,5.8282 10.226804,7.2577 z"
       style="fill:#000000;fill-opacity:1;stroke:none;filter:url(#filter4123)" />
    <path
       style="fill:url(#radialGradient3905);fill-opacity:1.0;stroke:none"
       d="m 77.195876,1044.3347 -9.676976,-0.8797 -0.549828,-6.378 c 0,0 3.408935,5.8282 10.226804,7.2577 z"
       id="path3891"
       inkscape:connector-curvature="0" />
    <path
       style="fill:#000000;fill-opacity:1;stroke:none;filter:url(#filter4127)"
       d="m 82.969072,1044.3347 9.676978,-0.8797 0.54983,-6.378 c 0,0 -3.408939,5.8282 -10.226808,7.2577 z"
       id="path4137"
       inkscape:connector-curvature="0" />
    <path
       inkscape:connector-curvature="0"
       id="path3893"
       d="m 82.969072,1044.3347 9.676978,-0.8797 0.54983,-6.378 c 0,0 -3.408939,5.8282 -10.226808,7.2577 z"
       style="fill:url(#radialGradient3907);fill-opacity:1.0;stroke:none" />
    <path
       inkscape:connector-curvature="0"
       id="path3909"
       d="m 97.2,1046.2041 2.85911,6.0481 2.74914,-6.0481 z"
       style="fill:url(#linearGradient3929);fill-opacity:1;stroke:none" />
    <path
       style="fill:url(#linearGradient3931);fill-opacity:1;stroke:none"
       d="m 103.2,1046.2041 2.85911,6.0481 2.74914,-6.0481 z"
       id="path3911"
       inkscape:connector-curvature="0" />
    <path
       inkscape:connector-curvature="0"
       id="path3913"
       d="m 109.2,1046.2041 2.85911,6.0481 2.74914,-6.0481 z"
       style="fill:url(#linearGradient3933);fill-opacity:1;stroke:none" />
    <path
       style="fill:url(#linearGradient3935);fill-opacity:1;stroke:none"
       d="m 115.2,1046.2041 2.85911,6.0481 2.74914,-6.0481 z"
       id="path3915"
       inkscape:connector-curvature="0" />
    <path
       inkscape:connector-curvature="0"
       id="path3917"
       d="m 121.2,1046.2041 2.85911,6.0481 2.74914,-6.0481 z"
       style="fill:url(#linearGradient3937);fill-opacity:1;stroke:none" />
    <path
       sodipodi:nodetypes="ccccccccc"
       inkscape:connector-curvature="0"
       id="path3919"
       d="m 96,1046.3622 1,1 30,0 1,-1 0,-9 c 0,0 0.27835,-5.11 -5,-5 l -22,0 c 0,0 -4.89003,0.052 -5,5 z"
       style="fill:#ffff00;fill-opacity:1;stroke:none" />
    <path
       clip-path="url(#clipPath3791)"
       transform="translate(96,1032.3622)"
       inkscape:connector-curvature="0"
       id="path3921"
       d="m -2.5292096,8.4536082 4.838488,3.9587628 25.0721646,0 1.429554,-1.649484 0,-6.8178698 c 0,0 -0.549829,-5.3883162 -5.498282,-5.3883162 0,0 10.556701,-1.8694158 10.556701,3.4089347 l 0,15.8350513 -36.8384882,0.109966 z"
       style="opacity:0.5;fill:#000000;fill-opacity:1;stroke:none;filter:url(#filter3785)" />
    <path
       clip-path="url(#clipPath3767)"
       sodipodi:nodetypes="ccsccccscc"
       transform="translate(96,1032.3622)"
       inkscape:connector-curvature="0"
       id="path3923"
       d="m -1.8694158,17.491409 0,-13.5463918 c 0,0 -0.2199313,-6.04811 6.927835,-6.04811 l 23.3127148,0 c 0,0 5.498282,0 5.498282,6.2680413 0,0 -0.879725,-2.1993128 -4.618557,-2.3092784 l -23.5326459,0 c 0,0 -3.628866,-0.1099656 -3.628866,3.4089347 l 0,14.3161512 z"
       style="opacity:0.9;fill:#ffffff;fill-opacity:1;stroke:none;filter:url(#filter3761)" />
    <path
       style="fill:#000000;fill-opacity:1;stroke:none;filter:url(#filter4123)"
       d="m 109.19588,1044.3347 -9.67698,-0.8797 -0.54983,-6.378 c 0,0 3.40894,5.8282 10.22681,7.2577 z"
       id="path4139"
       inkscape:connector-curvature="0" />
    <path
       inkscape:connector-curvature="0"
       id="path3925"
       d="m 109.19588,1044.3347 -9.67698,-0.8797 -0.54983,-6.378 c 0,0 3.40894,5.8282 10.22681,7.2577 z"
       style="fill:url(#radialGradient3939);fill-opacity:1.0;stroke:none" />
    <path
       inkscape:connector-curvature="0"
       id="path4141"
       d="m 114.96907,1044.3347 9.67698,-0.8797 0.54983,-6.378 c 0,0 -3.40894,5.8282 -10.22681,7.2577 z"
       style="fill:#000000;fill-opacity:1;stroke:none;filter:url(#filter4127)" />
    <path
       style="fill:url(#radialGradient3941);fill-opacity:1.0;stroke:none"
       d="m 114.96907,1044.3347 9.67698,-0.8797 0.54983,-6.378 c 0,0 -3.40894,5.8282 -10.22681,7.2577 z"
       id="path3927"
       inkscape:connector-curvature="0" />
  </g>
</svg>
