<?xml version="1.0" encoding="UTF-8" standalone="no"?>
<!-- Created with Inkscape (http://www.inkscape.org/) -->

<svg
   xmlns:dc="http://purl.org/dc/elements/1.1/"
   xmlns:cc="http://creativecommons.org/ns#"
   xmlns:rdf="http://www.w3.org/1999/02/22-rdf-syntax-ns#"
   xmlns:svg="http://www.w3.org/2000/svg"
   xmlns="http://www.w3.org/2000/svg"
   xmlns:xlink="http://www.w3.org/1999/xlink"
   xmlns:sodipodi="http://sodipodi.sourceforge.net/DTD/sodipodi-0.dtd"
   xmlns:inkscape="http://www.inkscape.org/namespaces/inkscape"
   width="64"
   height="60"
   id="svg2"
   version="1.1"
   inkscape:version="0.48.4 r9939"
   sodipodi:docname="flep.svg"
   inkscape:export-filename="/home/victor/aleva/super-bombinhas/data/img/sprite/flep.png"
   inkscape:export-xdpi="90"
   inkscape:export-ydpi="90">
  <defs
     id="defs4">
    <linearGradient
       id="linearGradient4793">
      <stop
         style="stop-color:#ffffba;stop-opacity:1;"
         offset="0"
         id="stop4795" />
      <stop
         style="stop-color:#ffff44;stop-opacity:1;"
         offset="1"
         id="stop4797" />
    </linearGradient>
    <linearGradient
       id="linearGradient4783">
      <stop
         style="stop-color:#1111cc;stop-opacity:1;"
         offset="0"
         id="stop4785" />
      <stop
         style="stop-color:#000066;stop-opacity:1;"
         offset="1"
         id="stop4787" />
    </linearGradient>
    <filter
       inkscape:collect="always"
       id="filter4821"
       x="-0.10571052"
       width="1.211421"
       y="-0.22577991"
       height="1.4515598"
       color-interpolation-filters="sRGB">
      <feGaussianBlur
         inkscape:collect="always"
         stdDeviation="1.0667423"
         id="feGaussianBlur4823" />
    </filter>
    <clipPath
       clipPathUnits="userSpaceOnUse"
       id="clipPath4827">
      <path
         inkscape:connector-curvature="0"
         id="path4829"
         d="m 207.10866,476.27098 c 0,0 2.96305,1.44015 2.24473,6.89756 0,0 -11.49304,-0.37898 -24.24313,2.72871 0,0 1.43663,-6.59437 21.9984,-9.62627 z"
         style="fill:#ff6326;fill-opacity:1;fill-rule:evenodd;stroke:none" />
    </clipPath>
    <filter
       inkscape:collect="always"
       id="filter4845"
       x="-0.20362882"
       width="1.4072577"
       y="-0.56955045"
       height="2.139101"
       color-interpolation-filters="sRGB">
      <feGaussianBlur
         inkscape:collect="always"
         stdDeviation="0.69819848"
         id="feGaussianBlur4847" />
    </filter>
    <clipPath
       clipPathUnits="userSpaceOnUse"
       id="clipPath4851">
      <path
         sodipodi:nodetypes="cccc"
         inkscape:connector-curvature="0"
         id="path4853"
         d="m 208.99152,485.35057 c 0,0 -5.01034,0.74168 -7.95083,-1.81897 0,0 5.71393,-0.3537 8.28687,-0.0976 0,0 0.58287,0.63629 -0.33604,1.91661 z"
         style="fill:#ff6326;fill-opacity:1;fill-rule:evenodd;stroke:none" />
    </clipPath>
    <filter
       inkscape:collect="always"
       id="filter4861"
       x="-0.11480473"
       width="1.2296095"
       y="-0.41655061"
       height="1.8331012"
       color-interpolation-filters="sRGB">
      <feGaussianBlur
         inkscape:collect="always"
         stdDeviation="0.45471236"
         id="feGaussianBlur4863" />
    </filter>
    <clipPath
       clipPathUnits="userSpaceOnUse"
       id="clipPath4867">
      <path
         sodipodi:nodetypes="ccc"
         inkscape:connector-curvature="0"
         id="path4869"
         d="m 207.76786,474.68361 c 0,0 2.36293,3.74731 9.50579,0.0866 0,0 -5.09737,-2.22497 -9.50579,-0.0866 z"
         style="fill:#ff6326;fill-opacity:1;fill-rule:evenodd;stroke:none" />
    </clipPath>
    <filter
       inkscape:collect="always"
       id="filter4885"
       x="-0.06769494"
       width="1.1353899"
       y="-0.16498435"
       height="1.3299687"
       color-interpolation-filters="sRGB">
      <feGaussianBlur
         inkscape:collect="always"
         stdDeviation="0.98469939"
         id="feGaussianBlur4887" />
    </filter>
    <clipPath
       clipPathUnits="userSpaceOnUse"
       id="clipPath4891">
      <path
         sodipodi:nodetypes="cccccccc"
         inkscape:connector-curvature="0"
         id="path4893"
         d="m 214.56514,482.53161 c 0,0 0.77474,-1.77992 10.05804,-2.82301 0,0 6.10414,-0.31522 12.33037,-2.16967 0,0 4.83588,-1.63765 11.5347,-1.78741 0,0 -0.71587,2.68372 -6.51919,3.79759 0,0 -0.16393,3.12402 -5.71656,3.94284 0,0 -0.84411,3.22392 -6.57462,3.89074 0,0 -10.47108,2.18978 -15.11274,-4.85108 z"
         style="fill:#ff6326;fill-opacity:1;fill-rule:evenodd;stroke:none" />
    </clipPath>
    <filter
       inkscape:collect="always"
       id="filter4921"
       x="-0.20238572"
       width="1.4047714"
       y="-0.71196574"
       height="2.4239316"
       color-interpolation-filters="sRGB">
      <feGaussianBlur
         inkscape:collect="always"
         stdDeviation="0.73417613"
         id="feGaussianBlur4923" />
    </filter>
    <filter
       inkscape:collect="always"
       id="filter4925"
       x="-0.24163646"
       width="1.4832729"
       y="-1.0223041"
       height="3.0446081"
       color-interpolation-filters="sRGB">
      <feGaussianBlur
         inkscape:collect="always"
         stdDeviation="0.73417613"
         id="feGaussianBlur4927" />
    </filter>
    <filter
       inkscape:collect="always"
       id="filter4935"
       x="-0.11778355"
       width="1.2355671"
       y="-0.3815394"
       height="1.7630788"
       color-interpolation-filters="sRGB">
      <feGaussianBlur
         inkscape:collect="always"
         stdDeviation="1.0253475"
         id="feGaussianBlur4937" />
    </filter>
    <clipPath
       clipPathUnits="userSpaceOnUse"
       id="clipPath4941">
      <path
         inkscape:connector-curvature="0"
         id="path4943"
         d="m 221.2013,487.59839 c 0,0 14.38833,5.97763 21.04293,3.23495 0,0 -9.9819,-0.8439 -14.74803,-4.36016 z"
         style="fill:#ff6326;fill-opacity:1;fill-rule:evenodd;stroke:none" />
    </clipPath>
    <filter
       inkscape:collect="always"
       id="filter4952"
       x="-0.179627"
       width="1.359254"
       y="-0.49784288"
       height="1.9956858"
       color-interpolation-filters="sRGB">
      <feGaussianBlur
         inkscape:collect="always"
         stdDeviation="0.60926186"
         id="feGaussianBlur4954" />
    </filter>
    <clipPath
       clipPathUnits="userSpaceOnUse"
       id="clipPath4958">
      <path
         sodipodi:nodetypes="cccc"
         inkscape:connector-curvature="0"
         id="path4960"
         d="m 209.02355,485.31227 c 0,0 -4.88082,0.8454 -7.75836,-2.20361 0,0 5.68063,-0.38343 8.19848,-0.0786 0,0 -0.0973,1.1538 -0.44012,2.28214 z"
         style="fill:#ff6326;fill-opacity:1;fill-rule:evenodd;stroke:none" />
    </clipPath>
    <radialGradient
       inkscape:collect="always"
       xlink:href="#linearGradient4783"
       id="radialGradient4980"
       gradientUnits="userSpaceOnUse"
       gradientTransform="matrix(0.04128613,0.94340354,-1.1174683,0.04890372,736.01363,254.10528)"
       cx="211.54262"
       cy="477.09659"
       fx="211.54262"
       fy="477.09659"
       r="8.8987865" />
    <radialGradient
       inkscape:collect="always"
       xlink:href="#linearGradient4793"
       id="radialGradient4982"
       gradientUnits="userSpaceOnUse"
       gradientTransform="matrix(1,0,0,0.2500162,0,356.26481)"
       cx="212.36607"
       cy="475.03003"
       fx="212.36607"
       fy="475.03003"
       r="4.5982151" />
    <radialGradient
       inkscape:collect="always"
       xlink:href="#linearGradient4793"
       id="radialGradient4984"
       gradientUnits="userSpaceOnUse"
       gradientTransform="matrix(1.4296396,0,0,0.35752551,-88.384259,310.79438)"
       cx="205.71719"
       cy="481.7681"
       fx="205.71719"
       fy="481.7681"
       r="4.1145363" />
    <radialGradient
       inkscape:collect="always"
       xlink:href="#linearGradient4793"
       id="radialGradient4986"
       gradientUnits="userSpaceOnUse"
       gradientTransform="matrix(0.88321356,0,0,0.46820162,23.154107,255.26116)"
       cx="198.26024"
       cy="474.52142"
       fx="198.26024"
       fy="474.52142"
       r="12.109399" />
    <radialGradient
       inkscape:collect="always"
       xlink:href="#linearGradient4783"
       id="radialGradient5041"
       gradientUnits="userSpaceOnUse"
       gradientTransform="matrix(0.04128613,0.94340354,-1.1174683,0.04890372,736.01363,254.10528)"
       cx="211.54262"
       cy="477.09659"
       fx="211.54262"
       fy="477.09659"
       r="8.8987865" />
    <radialGradient
       inkscape:collect="always"
       xlink:href="#linearGradient4793"
       id="radialGradient5043"
       gradientUnits="userSpaceOnUse"
       gradientTransform="matrix(1,0,0,0.2500162,0,356.26481)"
       cx="212.36607"
       cy="475.03003"
       fx="212.36607"
       fy="475.03003"
       r="4.5982151" />
    <radialGradient
       inkscape:collect="always"
       xlink:href="#linearGradient4793"
       id="radialGradient5045"
       gradientUnits="userSpaceOnUse"
       gradientTransform="matrix(1.4296396,0,0,0.35752551,-88.384259,310.79438)"
       cx="205.71719"
       cy="481.7681"
       fx="205.71719"
       fy="481.7681"
       r="4.1145363" />
    <radialGradient
       inkscape:collect="always"
       xlink:href="#linearGradient4793"
       id="radialGradient5047"
       gradientUnits="userSpaceOnUse"
       gradientTransform="matrix(0.88321356,0,0,0.46820162,23.154107,255.26116)"
       cx="198.26024"
       cy="474.52142"
       fx="198.26024"
       fy="474.52142"
       r="12.109399" />
    <radialGradient
       inkscape:collect="always"
       xlink:href="#linearGradient4783"
       id="radialGradient5083"
       gradientUnits="userSpaceOnUse"
       gradientTransform="matrix(0.04128613,0.94340354,-1.1174683,0.04890372,736.01363,254.10528)"
       cx="211.54262"
       cy="477.09659"
       fx="211.54262"
       fy="477.09659"
       r="8.8987865" />
    <radialGradient
       inkscape:collect="always"
       xlink:href="#linearGradient4793"
       id="radialGradient5085"
       gradientUnits="userSpaceOnUse"
       gradientTransform="matrix(1,0,0,0.2500162,0,356.26481)"
       cx="212.36607"
       cy="475.03003"
       fx="212.36607"
       fy="475.03003"
       r="4.5982151" />
    <radialGradient
       inkscape:collect="always"
       xlink:href="#linearGradient4793"
       id="radialGradient5087"
       gradientUnits="userSpaceOnUse"
       gradientTransform="matrix(1.4296396,0,0,0.35752551,-88.384259,310.79438)"
       cx="205.71719"
       cy="481.7681"
       fx="205.71719"
       fy="481.7681"
       r="4.1145363" />
    <radialGradient
       inkscape:collect="always"
       xlink:href="#linearGradient4793"
       id="radialGradient5089"
       gradientUnits="userSpaceOnUse"
       gradientTransform="matrix(0.88321356,0,0,0.46820162,23.154107,255.26116)"
       cx="198.26024"
       cy="474.52142"
       fx="198.26024"
       fy="474.52142"
       r="12.109399" />
    <radialGradient
       inkscape:collect="always"
       xlink:href="#linearGradient4793"
       id="radialGradient5097"
       gradientUnits="userSpaceOnUse"
       gradientTransform="matrix(0.88173743,0,0,0.46820162,-161.75367,795.52042)"
       cx="198.26024"
       cy="474.52142"
       fx="198.26024"
       fy="474.52142"
       r="12.109399" />
    <radialGradient
       inkscape:collect="always"
       xlink:href="#linearGradient4793"
       id="radialGradient5101"
       gradientUnits="userSpaceOnUse"
       gradientTransform="matrix(1.4272502,0,0,0.35752551,-273.10562,851.05364)"
       cx="205.71719"
       cy="481.7681"
       fx="205.71719"
       fy="481.7681"
       r="4.1145363" />
    <radialGradient
       inkscape:collect="always"
       xlink:href="#linearGradient4793"
       id="radialGradient5104"
       gradientUnits="userSpaceOnUse"
       gradientTransform="matrix(0.99832868,0,0,0.2500162,-184.86908,896.52407)"
       cx="212.36607"
       cy="475.03003"
       fx="212.36607"
       fy="475.03003"
       r="4.5982151" />
    <radialGradient
       inkscape:collect="always"
       xlink:href="#linearGradient4783"
       id="radialGradient5110"
       gradientUnits="userSpaceOnUse"
       gradientTransform="matrix(0.04121713,0.94340354,-1.1156007,0.04890372,549.91444,794.36454)"
       cx="211.54262"
       cy="477.09659"
       fx="211.54262"
       fy="477.09659"
       r="8.8987865" />
    <filter
       inkscape:collect="always"
       id="filter5121"
       x="-0.077619526"
       width="1.1552391"
       y="-0.17745718"
       height="1.3549144">
      <feGaussianBlur
         inkscape:collect="always"
         stdDeviation="1.0962536"
         id="feGaussianBlur5123" />
    </filter>
    <clipPath
       clipPathUnits="userSpaceOnUse"
       id="clipPath5127">
      <path
         style="fill:#ff6326;fill-opacity:1;fill-rule:evenodd;stroke:none"
         d="m 29.756408,1022.915 c 0,0 0.421023,-1.9679 9.497694,-3.0328 0,0 5.800036,-0.4725 11.887674,-2.3657 0,0 4.307659,-1.8978 10.857369,-2.0507 0,0 0.561816,2.9657 -5.112327,4.1029 0,0 -0.496746,3.3401 -5.925787,4.176 0,0 -0.2365,3.2914 -5.839464,3.9722 0,0 -10.82682,2.3863 -15.365159,-4.8019 z"
         id="path5129"
         inkscape:connector-curvature="0"
         sodipodi:nodetypes="cccccccc" />
    </clipPath>
    <filter
       inkscape:collect="always"
       id="filter5137"
       x="-0.11448681"
       width="1.2289736"
       y="-0.42079027"
       height="1.8415805">
      <feGaussianBlur
         inkscape:collect="always"
         stdDeviation="1.0329299"
         id="feGaussianBlur5139" />
    </filter>
    <clipPath
       clipPathUnits="userSpaceOnUse"
       id="clipPath5143">
      <path
         sodipodi:nodetypes="cccc"
         style="fill:#ff6326;fill-opacity:1;fill-rule:evenodd;stroke:none"
         d="m 35.991206,1028.1461 c 0,0 14.762632,4.9819 21.871577,2.4931 0,0 -10.797335,-0.3235 -15.569162,-3.5142 z"
         id="path5145"
         inkscape:connector-curvature="0" />
    </clipPath>
    <radialGradient
       inkscape:collect="always"
       xlink:href="#linearGradient4793"
       id="radialGradient5153"
       gradientUnits="userSpaceOnUse"
       gradientTransform="matrix(0.88173743,0,0,0.46820162,-161.75367,814.62942)"
       cx="198.26024"
       cy="474.52142"
       fx="198.26024"
       fy="474.52142"
       r="12.109399" />
    <radialGradient
       inkscape:collect="always"
       xlink:href="#linearGradient4793"
       id="radialGradient5157"
       gradientUnits="userSpaceOnUse"
       gradientTransform="matrix(1.4272502,0,0,0.35752551,-273.10562,870.16264)"
       cx="205.71719"
       cy="481.7681"
       fx="205.71719"
       fy="481.7681"
       r="4.1145363" />
    <radialGradient
       inkscape:collect="always"
       xlink:href="#linearGradient4793"
       id="radialGradient5160"
       gradientUnits="userSpaceOnUse"
       gradientTransform="matrix(0.99832868,0,0,0.2500162,-184.86908,915.63307)"
       cx="212.36607"
       cy="475.03003"
       fx="212.36607"
       fy="475.03003"
       r="4.5982151" />
    <radialGradient
       inkscape:collect="always"
       xlink:href="#linearGradient4783"
       id="radialGradient5166"
       gradientUnits="userSpaceOnUse"
       gradientTransform="matrix(0.04121713,0.94340354,-1.1156007,0.04890372,549.91444,813.47354)"
       cx="211.54262"
       cy="477.09659"
       fx="211.54262"
       fy="477.09659"
       r="8.8987865" />
    <filter
       inkscape:collect="always"
       id="filter5173"
       x="-0.075250044"
       width="1.1505001"
       y="-0.19122324"
       height="1.3824465">
      <feGaussianBlur
         inkscape:collect="always"
         stdDeviation="1.0908078"
         id="feGaussianBlur5175" />
    </filter>
    <clipPath
       clipPathUnits="userSpaceOnUse"
       id="clipPath5179">
      <path
         sodipodi:nodetypes="cccccccc"
         inkscape:connector-curvature="0"
         id="path5181"
         d="m 29.676122,1041.9922 c 0,0 1.577675,-1.6543 10.582842,-2.7525 0,0 5.626198,-0.3868 11.665878,-2.3392 0,0 4.100886,-1.4496 10.598998,-1.6072 0,0 -0.694421,2.6607 -6.323864,3.8334 0,0 -0.631103,3.7283 -5.545289,4.206 0,0 -1.585957,3.2294 -7.144782,3.9315 0,0 -9.626251,0.9876 -13.833783,-5.272 z"
         style="fill:#ff6326;fill-opacity:1;fill-rule:evenodd;stroke:none" />
    </clipPath>
    <filter
       inkscape:collect="always"
       id="filter5189"
       x="-0.12315222"
       width="1.2463044"
       y="-0.33432752"
       height="1.668655">
      <feGaussianBlur
         inkscape:collect="always"
         stdDeviation="1.0340079"
         id="feGaussianBlur5191" />
    </filter>
    <clipPath
       clipPathUnits="userSpaceOnUse"
       id="clipPath5195">
      <path
         sodipodi:nodetypes="cccc"
         inkscape:connector-curvature="0"
         id="path5197"
         d="m 36.134308,1046.8984 c 0,0 13.628508,7.2326 20.26051,4.321 0,0 -11.369913,-1.4502 -13.986993,-5.5155 z"
         style="fill:#ff6326;fill-opacity:1;fill-rule:evenodd;stroke:none" />
    </clipPath>
    <radialGradient
       inkscape:collect="always"
       xlink:href="#linearGradient4783"
       id="radialGradient5235"
       gradientUnits="userSpaceOnUse"
       gradientTransform="matrix(0.04121713,0.94340354,-1.1156007,0.04890372,549.91444,813.47354)"
       cx="211.54262"
       cy="477.09659"
       fx="211.54262"
       fy="477.09659"
       r="8.8987865" />
    <radialGradient
       inkscape:collect="always"
       xlink:href="#linearGradient4793"
       id="radialGradient5237"
       gradientUnits="userSpaceOnUse"
       gradientTransform="matrix(0.99832868,0,0,0.2500162,-184.86908,915.63307)"
       cx="212.36607"
       cy="475.03003"
       fx="212.36607"
       fy="475.03003"
       r="4.5982151" />
    <radialGradient
       inkscape:collect="always"
       xlink:href="#linearGradient4793"
       id="radialGradient5239"
       gradientUnits="userSpaceOnUse"
       gradientTransform="matrix(1.4272502,0,0,0.35752551,-273.10562,870.16264)"
       cx="205.71719"
       cy="481.7681"
       fx="205.71719"
       fy="481.7681"
       r="4.1145363" />
    <radialGradient
       inkscape:collect="always"
       xlink:href="#linearGradient4793"
       id="radialGradient5241"
       gradientUnits="userSpaceOnUse"
       gradientTransform="matrix(0.88173743,0,0,0.46820162,-161.75367,814.62942)"
       cx="198.26024"
       cy="474.52142"
       fx="198.26024"
       fy="474.52142"
       r="12.109399" />
  </defs>
  <sodipodi:namedview
     id="base"
     pagecolor="#ffffff"
     bordercolor="#666666"
     borderopacity="1.0"
     inkscape:pageopacity="0.0"
     inkscape:pageshadow="2"
     inkscape:zoom="1"
     inkscape:cx="27.935498"
     inkscape:cy="22.605105"
     inkscape:document-units="px"
     inkscape:current-layer="layer1"
     showgrid="false"
     inkscape:window-width="1366"
     inkscape:window-height="716"
     inkscape:window-x="0"
     inkscape:window-y="0"
     inkscape:window-maximized="1" />
  <metadata
     id="metadata7">
    <rdf:RDF>
      <cc:Work
         rdf:about="">
        <dc:format>image/svg+xml</dc:format>
        <dc:type
           rdf:resource="http://purl.org/dc/dcmitype/StillImage" />
        <dc:title></dc:title>
      </cc:Work>
    </rdf:RDF>
  </metadata>
  <g
     inkscape:label="Layer 1"
     inkscape:groupmode="layer"
     id="layer1"
     transform="translate(0,-992.3622)">
    <g
       id="g4962"
       transform="matrix(0.99832868,0,0,1,-184.86908,519.75924)">
      <path
         inkscape:connector-curvature="0"
         id="path3108"
         d="m 216.25,486.6479 c 0,0 -3.66071,2.58928 -0.98214,4.375 0,0 1.875,1.51785 4.55357,-0.35715 0,0 -2.94643,-0.17857 -1.25,-1.875 0,0 1.78571,-1.78571 0.53571,-2.23214 -1.25,-0.44643 -2.85714,0.0893 -2.85714,0.0893 z"
         style="fill:#000000;fill-opacity:1;fill-rule:evenodd;stroke:none" />
      <path
         inkscape:connector-curvature="0"
         id="path3106"
         d="m 210.625,486.29075 c 0,0 -4.82143,2.58929 -1.25,4.55357 0,0 1.42857,1.07143 3.39286,0 0,0 -2.94643,-1.07142 -0.35715,-2.14285 2.58929,-1.07143 -0.0893,-2.94643 -0.0893,-2.94643 z"
         style="fill:#000000;fill-opacity:1;fill-rule:evenodd;stroke:none" />
      <path
         inkscape:connector-curvature="0"
         id="path3104"
         d="m 221.33929,486.38004 c 0,0 14.28571,7.58928 20.89285,4.10714 0,0 -9.91071,-1.07143 -14.64285,-5.53571 z"
         style="fill:#ff6326;fill-opacity:1;fill-rule:evenodd;stroke:none" />
      <path
         inkscape:connector-curvature="0"
         id="path3092"
         d="m 205.80357,478.88004 c 0,0 -0.53571,11.42857 17.76786,7.94643 0,0 1.51785,-22.14286 -17.76786,-7.94643 z"
         style="fill:url(#radialGradient4980);fill-opacity:1;fill-rule:evenodd;stroke:none" />
      <path
         clip-path="url(#clipPath4941)"
         transform="matrix(0.99286764,0,0,1.2696129,1.7156784,-132.68116)"
         style="fill:none;stroke:#a62d00;stroke-width:1.5;stroke-linejoin:round;stroke-miterlimit:4;stroke-opacity:1;stroke-dasharray:none;filter:url(#filter4935)"
         d="m 221.33929,486.38004 c 0,0 14.28571,7.58928 20.89285,4.10714 0,0 -9.91071,-1.07143 -14.64285,-5.53571 z"
         id="path4929"
         inkscape:connector-curvature="0" />
      <path
         sodipodi:nodetypes="cccccccc"
         inkscape:connector-curvature="0"
         id="path3102"
         d="m 214.375,481.6479 c 0,0 0.79729,-2.13299 10.35086,-3.38299 0,0 6.28185,-0.37775 12.68934,-2.60005 0,0 4.97667,-1.9625 11.87051,-2.14196 0,0 -0.73671,3.21607 -6.70898,4.55088 0,0 -0.1687,3.74371 -5.88299,4.72496 0,0 -0.86868,3.86342 -6.76603,4.66251 0,0 -10.77592,2.62415 -15.55271,-5.81335 z"
         style="fill:#ff6326;fill-opacity:1;fill-rule:evenodd;stroke:none" />
      <path
         sodipodi:nodetypes="ccc"
         inkscape:connector-curvature="0"
         id="path3094"
         d="m 205.625,474.95147 c 0,0 3.75,5.72768 14.10714,0.10268 0,0 -6.07143,-4.56696 -14.10714,-0.10268 z"
         style="fill:#000000;fill-opacity:1;fill-rule:evenodd;stroke:none" />
      <path
         sodipodi:nodetypes="ccc"
         inkscape:connector-curvature="0"
         id="path3096"
         d="m 207.76786,474.68361 c 0,0 2.36293,3.74731 9.50579,0.0866 0,0 -5.09737,-2.22497 -9.50579,-0.0866 z"
         style="fill:url(#radialGradient4982);fill-opacity:1;fill-rule:evenodd;stroke:none" />
      <path
         sodipodi:nodetypes="cccc"
         inkscape:connector-curvature="0"
         id="path3100"
         d="m 208.86408,485.12193 c 0,0 -4.84622,0.99025 -7.70336,-2.58118 0,0 5.64036,-0.44912 8.14036,-0.092 0,0 -0.0966,1.35149 -0.437,2.67316 z"
         style="fill:url(#radialGradient4984);fill-opacity:1;fill-rule:evenodd;stroke:none" />
      <path
         clip-path="url(#clipPath4958)"
         transform="matrix(0.99291078,0,0,1.1713387,1.3223444,-83.343114)"
         style="fill:none;stroke:#8c8c11;stroke-linejoin:round;stroke-opacity:1;filter:url(#filter4952)"
         d="m 208.86408,485.12193 c 0,0 -4.84622,0.99025 -7.70336,-2.58118 0,0 5.64036,-0.44912 8.14036,-0.092 0,0 -0.0966,1.35149 -0.437,2.67316 z"
         id="path4945"
         inkscape:connector-curvature="0"
         sodipodi:nodetypes="cccc" />
      <path
         inkscape:connector-curvature="0"
         id="path3098"
         d="m 207.05357,474.32647 c 0,0 2.94643,1.69643 2.23214,8.125 0,0 -11.42857,-0.44643 -24.10714,3.21428 0,0 1.42857,-7.76785 21.875,-11.33928 z"
         style="fill:url(#radialGradient4986);fill-opacity:1;fill-rule:evenodd;stroke:none" />
      <path
         clip-path="url(#clipPath4827)"
         transform="matrix(0.99439067,0,0,1.1779516,1.106653,-86.697689)"
         style="fill:none;stroke:#8c8c11;stroke-width:2;stroke-linejoin:round;stroke-miterlimit:4;stroke-opacity:1;stroke-dasharray:none;filter:url(#filter4821)"
         d="m 207.05357,474.32647 c 0,0 2.94643,1.69643 2.23214,8.125 0,0 -11.42857,-0.44643 -24.10714,3.21428 0,0 1.42857,-7.76785 21.875,-11.33928 z"
         id="path4811"
         inkscape:connector-curvature="0" />
      <path
         clip-path="url(#clipPath4867)"
         style="fill:none;stroke:#454500;stroke-width:0.69999999;stroke-linejoin:round;stroke-miterlimit:4;stroke-opacity:1;stroke-dasharray:none;filter:url(#filter4861)"
         d="m 207.76786,474.68361 c 0,0 2.36293,3.74731 9.50579,0.0866 0,0 -5.09737,-2.22497 -9.50579,-0.0866 z"
         id="path4859"
         inkscape:connector-curvature="0"
         sodipodi:nodetypes="ccc" />
      <path
         clip-path="url(#clipPath4891)"
         transform="matrix(1.0291131,0,0,1.1983623,-6.4368014,-96.59979)"
         style="fill:none;stroke:#a62d00;stroke-width:2;stroke-linejoin:round;stroke-miterlimit:4;stroke-opacity:1;stroke-dasharray:none;filter:url(#filter4885)"
         d="m 214.375,481.6479 c 0,0 0.79729,-2.13299 10.35086,-3.38299 0,0 6.28185,-0.37775 12.68934,-2.60005 0,0 4.97667,-1.9625 11.87051,-2.14196 0,0 -0.73671,3.21607 -6.70898,4.55088 0,0 -0.1687,3.74371 -5.88299,4.72496 0,0 -0.86868,3.86342 -6.76603,4.66251 0,0 -10.77592,2.62415 -15.55271,-5.81335 z"
         id="path4871"
         inkscape:connector-curvature="0"
         sodipodi:nodetypes="cccccccc" />
      <path
         sodipodi:nodetypes="cc"
         inkscape:connector-curvature="0"
         id="path4897"
         d="m 241.16761,477.92631 c 0,0 -3.80071,0.44194 -8.70626,2.47487"
         style="fill:none;stroke:#a62d00;stroke-width:1.5;stroke-linecap:round;stroke-linejoin:round;stroke-miterlimit:4;stroke-opacity:1;stroke-dasharray:none;filter:url(#filter4921)" />
      <path
         inkscape:connector-curvature="0"
         id="path4907"
         d="m 235.51075,482.83186 c 0,0 -3.7565,1.5468 -7.29204,1.72358"
         style="fill:none;stroke:#a62d00;stroke-width:1.5;stroke-linecap:round;stroke-linejoin:round;stroke-miterlimit:4;stroke-opacity:1;stroke-dasharray:none;filter:url(#filter4925)" />
    </g>
    <g
       id="g5199">
      <path
         style="fill:#000000;fill-opacity:1;fill-rule:evenodd;stroke:none"
         d="m 31.130404,1026.8659 c 0,0 -3.772095,2.4148 -1.18477,4.3241 0,0 1.79856,1.604 4.557714,-0.1434 0,0 -2.929881,-0.3165 -1.158527,-1.9315 0,0 1.864578,-1.7001 0.638996,-2.2045 -1.225578,-0.5046 -2.853399,-0.045 -2.853399,-0.045 z"
         id="path5009"
         inkscape:connector-curvature="0" />
      <path
         style="fill:#000000;fill-opacity:1;fill-rule:evenodd;stroke:none"
         d="m 25.352403,1026.2937 c 0,0 -4.960945,2.2939 -1.520607,4.4699 0,0 1.358883,1.1556 3.381009,0.2045 0,0 -2.871441,-1.247 -0.226502,-2.1605 2.644943,-0.9133 0.08893,-2.9464 0.08893,-2.9464 z"
         id="path5011"
         inkscape:connector-curvature="0" />
      <path
         sodipodi:nodetypes="cccc"
         style="fill:#ff6326;fill-opacity:1;fill-rule:evenodd;stroke:none"
         d="m 36.100281,1026.6393 c 0,0 14.615387,6.9706 21.653427,3.4884 0,0 -10.689641,-0.4527 -15.413873,-4.917 z"
         id="path5013"
         inkscape:connector-curvature="0" />
      <path
         style="fill:url(#radialGradient5110);fill-opacity:1;fill-rule:evenodd;stroke:none"
         d="m 20.590526,1019.1393 c 0,0 -0.534814,11.4286 17.738165,7.9464 0,0 1.515313,-22.1428 -17.738165,-7.9464 z"
         id="path5015"
         inkscape:connector-curvature="0" />
      <path
         clip-path="url(#clipPath5143)"
         transform="matrix(0.99002585,0,0,1.3991698,0.46805673,-411.91161)"
         inkscape:connector-curvature="0"
         id="path5131"
         d="m 36.100281,1026.6393 c 0,0 14.615387,6.9706 21.653427,3.4884 0,0 -10.689641,-0.4527 -15.413873,-4.917 z"
         style="fill:none;stroke:#a62d00;stroke-width:1.5;stroke-linejoin:round;stroke-miterlimit:4;stroke-opacity:1;stroke-dasharray:none;filter:url(#filter5137)"
         sodipodi:nodetypes="cccc" />
      <path
         style="fill:#ff6326;fill-opacity:1;fill-rule:evenodd;stroke:none"
         d="m 29.147631,1021.9072 c 0,0 0.442404,-2.3098 9.980007,-3.5598 0,0 6.094574,-0.5546 12.491355,-2.7769 0,0 4.526411,-2.2276 11.408729,-2.407 0,0 0.590346,3.4811 -5.371942,4.8159 0,0 -0.521971,3.9206 -6.226711,4.9018 0,0 -0.24851,3.8634 -6.136004,4.6625 0,0 -11.376628,2.801 -16.145434,-5.6365 z"
         id="path5019"
         inkscape:connector-curvature="0"
         sodipodi:nodetypes="cccccccc" />
      <path
         style="fill:#000000;fill-opacity:1;fill-rule:evenodd;stroke:none"
         d="m 20.412255,1015.2107 c 0,0 3.743732,5.7277 14.083562,0.1027 0,0 -6.061282,-4.5669 -14.083562,-0.1027 z"
         id="path5021"
         inkscape:connector-curvature="0"
         sodipodi:nodetypes="ccc" />
      <path
         style="fill:url(#radialGradient5104);fill-opacity:1;fill-rule:evenodd;stroke:none"
         d="m 22.551533,1014.9429 c 0,0 2.358981,3.7473 9.489903,0.087 0,0 -5.08885,-2.225 -9.489903,-0.087 z"
         id="path5023"
         inkscape:connector-curvature="0"
         sodipodi:nodetypes="ccc" />
      <path
         style="fill:url(#radialGradient5101);fill-opacity:1;fill-rule:evenodd;stroke:none"
         d="m 23.645921,1025.3812 c 0,0 -4.83812,0.9902 -7.690485,-2.5812 0,0 5.630933,-0.4491 8.126755,-0.092 0,0 -0.09644,1.3515 -0.43627,2.6732 z"
         id="path5025"
         inkscape:connector-curvature="0"
         sodipodi:nodetypes="cccc" />
      <path
         sodipodi:nodetypes="cccc"
         inkscape:connector-curvature="0"
         id="path5027"
         d="m 208.86408,485.12193 c 0,0 -4.84622,0.99025 -7.70336,-2.58118 0,0 5.64036,-0.44912 8.14036,-0.092 0,0 -0.0966,1.35149 -0.437,2.67316 z"
         style="fill:none;stroke:#8c8c11;stroke-linejoin:round;stroke-opacity:1;filter:url(#filter4952)"
         transform="matrix(0.99125131,0,0,1.1713387,-183.54895,456.91615)"
         clip-path="url(#clipPath4958)" />
      <path
         style="fill:url(#radialGradient5097);fill-opacity:1;fill-rule:evenodd;stroke:none"
         d="m 21.838437,1014.5857 c 0,0 2.941506,1.6965 2.22841,8.125 0,0 -11.40947,-0.4464 -24.0668496476124,3.2143 0,0 1.4261824476124,-7.7678 21.8384396476124,-11.3393 z"
         id="path5029"
         inkscape:connector-curvature="0" />
      <path
         inkscape:connector-curvature="0"
         id="path5031"
         d="m 207.05357,474.32647 c 0,0 2.94643,1.69643 2.23214,8.125 0,0 -11.42857,-0.44643 -24.10714,3.21428 0,0 1.42857,-7.76785 21.875,-11.33928 z"
         style="fill:none;stroke:#8c8c11;stroke-width:2;stroke-linejoin:round;stroke-miterlimit:4;stroke-opacity:1;stroke-dasharray:none;filter:url(#filter4821)"
         transform="matrix(0.99272872,0,0,1.1779516,-183.76428,453.56157)"
         clip-path="url(#clipPath4827)" />
      <path
         transform="matrix(0.99832868,0,0,1,-184.86908,540.25926)"
         sodipodi:nodetypes="ccc"
         inkscape:connector-curvature="0"
         id="path5033"
         d="m 207.76786,474.68361 c 0,0 2.36293,3.74731 9.50579,0.0866 0,0 -5.09737,-2.22497 -9.50579,-0.0866 z"
         style="fill:none;stroke:#454500;stroke-width:0.69999999;stroke-linejoin:round;stroke-miterlimit:4;stroke-opacity:1;stroke-dasharray:none;filter:url(#filter4861)"
         clip-path="url(#clipPath4867)" />
      <path
         transform="matrix(0.99832868,0,0,1,-184.42714,539.99409)"
         style="fill:none;stroke:#a62d00;stroke-width:1.5;stroke-linecap:round;stroke-linejoin:round;stroke-miterlimit:4;stroke-opacity:1;stroke-dasharray:none;filter:url(#filter4921)"
         d="m 241.16761,477.92631 c 0,0 -4.06632,0.61872 -9.59162,2.2097"
         id="path5037"
         inkscape:connector-curvature="0"
         sodipodi:nodetypes="cc" />
      <path
         sodipodi:nodetypes="cc"
         transform="matrix(0.99832868,0,0,1,-184.86908,540.25926)"
         style="fill:none;stroke:#a62d00;stroke-width:1.5;stroke-linecap:round;stroke-linejoin:round;stroke-miterlimit:4;stroke-opacity:1;stroke-dasharray:none;filter:url(#filter4925)"
         d="m 235.51075,482.83186 c 0,0 -4.37625,1.45841 -7.91179,1.63519"
         id="path5039"
         inkscape:connector-curvature="0" />
      <path
         clip-path="url(#clipPath5127)"
         transform="matrix(1.0507821,0,0,1.1737909,-2.1198697,-178.78107)"
         sodipodi:nodetypes="cccccccc"
         inkscape:connector-curvature="0"
         id="path5115"
         d="m 29.147631,1021.9072 c 0,0 0.442404,-2.3098 9.980007,-3.5598 0,0 6.094574,-0.5546 12.491355,-2.7769 0,0 4.526411,-2.2276 11.408729,-2.407 0,0 0.590346,3.4811 -5.371942,4.8159 0,0 -0.521971,3.9206 -6.226711,4.9018 0,0 -0.24851,3.8634 -6.136004,4.6625 0,0 -11.376628,2.801 -16.145434,-5.6365 z"
         style="fill:none;stroke:#a62d00;stroke-width:2;stroke-linejoin:round;stroke-miterlimit:4;stroke-opacity:1;stroke-dasharray:none;filter:url(#filter5121)" />
    </g>
    <g
       id="g5217"
       transform="translate(0,7.7633005e-4)">
      <path
         inkscape:connector-curvature="0"
         id="path5051"
         d="m 30.900809,1046.2394 c 0,0 -3.359876,2.9617 -0.511718,4.4543 0,0 2.022062,1.311 4.482577,-0.8366 0,0 -2.94388,0.1339 -1.439438,-1.7323 0,0 1.583616,-1.9645 0.295451,-2.2762 -1.288175,-0.3118 -2.826904,0.3905 -2.826904,0.3905 z"
         style="fill:#000000;fill-opacity:1;fill-rule:evenodd;stroke:none" />
      <path
         inkscape:connector-curvature="0"
         id="path5053"
         d="m 25.334575,1045.6825 c 0,0 -4.570545,2.9972 -0.84809,4.6447 0,0 1.513769,0.9436 3.374415,-0.2939 0,0 -3.023377,-0.8121 -0.541147,-2.1039 2.482248,-1.2917 -0.344472,-2.9276 -0.344472,-2.9276 z"
         style="fill:#000000;fill-opacity:1;fill-rule:evenodd;stroke:none" />
      <path
         sodipodi:nodetypes="cccc"
         inkscape:connector-curvature="0"
         id="path5055"
         d="m 36.100281,1045.7483 c 0,0 13.554727,8.65 20.150825,5.1678 0,0 -11.308359,-1.7344 -13.911271,-6.5964 z"
         style="fill:#ff6326;fill-opacity:1;fill-rule:evenodd;stroke:none" />
      <path
         inkscape:connector-curvature="0"
         id="path5057"
         d="m 20.590526,1038.2483 c 0,0 -0.534814,11.4286 17.738165,7.9464 0,0 1.515313,-22.1428 -17.738165,-7.9464 z"
         style="fill:url(#radialGradient5235);fill-opacity:1;fill-rule:evenodd;stroke:none" />
      <path
         clip-path="url(#clipPath5195)"
         transform="matrix(0.99458625,0,0,1.195972,0.16159519,-206.31286)"
         style="fill:none;stroke:#a62d00;stroke-width:1.5;stroke-linejoin:round;stroke-miterlimit:4;stroke-opacity:1;stroke-dasharray:none;filter:url(#filter5189)"
         d="m 36.100281,1045.7483 c 0,0 13.554727,8.65 20.150825,5.1678 0,0 -11.308359,-1.7344 -13.911271,-6.5964 z"
         id="path5183"
         inkscape:connector-curvature="0"
         sodipodi:nodetypes="cccc" />
      <path
         sodipodi:nodetypes="cccccccc"
         inkscape:connector-curvature="0"
         id="path5061"
         d="m 29.147631,1041.0162 c 0,0 1.670957,-1.883 11.20856,-3.133 0,0 5.958851,-0.4403 12.355632,-2.6626 0,0 4.343353,-1.65 11.225671,-1.8294 0,0 -0.735479,3.0285 -6.697767,4.3633 0,0 -0.668418,4.2438 -5.873158,4.7875 0,0 -1.679728,3.6759 -7.567222,4.475 0,0 -10.19541,1.1242 -14.651716,-6.0008 z"
         style="fill:#ff6326;fill-opacity:1;fill-rule:evenodd;stroke:none" />
      <path
         sodipodi:nodetypes="ccc"
         inkscape:connector-curvature="0"
         id="path5063"
         d="m 20.412255,1034.3197 c 0,0 3.743732,5.7277 14.083562,0.1027 0,0 -6.061282,-4.5669 -14.083562,-0.1027 z"
         style="fill:#000000;fill-opacity:1;fill-rule:evenodd;stroke:none" />
      <path
         sodipodi:nodetypes="ccc"
         inkscape:connector-curvature="0"
         id="path5065"
         d="m 22.551533,1034.0519 c 0,0 2.358981,3.7473 9.489903,0.087 0,0 -5.08885,-2.225 -9.489903,-0.087 z"
         style="fill:url(#radialGradient5237);fill-opacity:1;fill-rule:evenodd;stroke:none" />
      <path
         sodipodi:nodetypes="cccc"
         inkscape:connector-curvature="0"
         id="path5067"
         d="m 23.645921,1044.4902 c 0,0 -4.83812,0.9902 -7.690485,-2.5812 0,0 5.630933,-0.4491 8.126755,-0.092 0,0 -0.09644,1.3515 -0.43627,2.6732 z"
         style="fill:url(#radialGradient5239);fill-opacity:1;fill-rule:evenodd;stroke:none" />
      <path
         clip-path="url(#clipPath4958)"
         transform="matrix(0.99125131,0,0,1.1713387,-183.54895,476.02515)"
         style="fill:none;stroke:#8c8c11;stroke-linejoin:round;stroke-opacity:1;filter:url(#filter4952)"
         d="m 208.86408,485.12193 c 0,0 -4.84622,0.99025 -7.70336,-2.58118 0,0 5.64036,-0.44912 8.14036,-0.092 0,0 -0.0966,1.35149 -0.437,2.67316 z"
         id="path5069"
         inkscape:connector-curvature="0"
         sodipodi:nodetypes="cccc" />
      <path
         inkscape:connector-curvature="0"
         id="path5071"
         d="m 21.838437,1033.6947 c 0,0 2.941506,1.6965 2.22841,8.125 0,0 -11.40947,-0.4464 -24.0668496476124,3.2143 0,0 1.4261824476124,-7.7678 21.8384396476124,-11.3393 z"
         style="fill:url(#radialGradient5241);fill-opacity:1;fill-rule:evenodd;stroke:none" />
      <path
         clip-path="url(#clipPath4827)"
         transform="matrix(0.99272872,0,0,1.1779516,-183.76428,472.67057)"
         style="fill:none;stroke:#8c8c11;stroke-width:2;stroke-linejoin:round;stroke-miterlimit:4;stroke-opacity:1;stroke-dasharray:none;filter:url(#filter4821)"
         d="m 207.05357,474.32647 c 0,0 2.94643,1.69643 2.23214,8.125 0,0 -11.42857,-0.44643 -24.10714,3.21428 0,0 1.42857,-7.76785 21.875,-11.33928 z"
         id="path5073"
         inkscape:connector-curvature="0" />
      <path
         transform="matrix(0.99832868,0,0,1,-184.86908,559.36826)"
         clip-path="url(#clipPath4867)"
         style="fill:none;stroke:#454500;stroke-width:0.69999999;stroke-linejoin:round;stroke-miterlimit:4;stroke-opacity:1;stroke-dasharray:none;filter:url(#filter4861)"
         d="m 207.76786,474.68361 c 0,0 2.36293,3.74731 9.50579,0.0866 0,0 -5.09737,-2.22497 -9.50579,-0.0866 z"
         id="path5075"
         inkscape:connector-curvature="0"
         sodipodi:nodetypes="ccc" />
      <path
         transform="matrix(0.99832868,0,0,1,-184.86908,559.36826)"
         sodipodi:nodetypes="cc"
         inkscape:connector-curvature="0"
         id="path5079"
         d="m 241.35542,478.23881 c 0,0 -4.11373,0.62944 -9.20709,1.97487"
         style="fill:none;stroke:#a62d00;stroke-width:1.5;stroke-linecap:round;stroke-linejoin:round;stroke-miterlimit:4;stroke-opacity:1;stroke-dasharray:none;filter:url(#filter4921)" />
      <path
         sodipodi:nodetypes="cc"
         transform="matrix(0.99832868,0,0,1,-184.86908,559.36826)"
         inkscape:connector-curvature="0"
         id="path5081"
         d="m 235.32294,483.14436 c 0,0 -4.88339,0.7343 -7.16683,1.34858"
         style="fill:none;stroke:#a62d00;stroke-width:1.5;stroke-linecap:round;stroke-linejoin:round;stroke-miterlimit:4;stroke-opacity:1;stroke-dasharray:none;filter:url(#filter4925)" />
      <path
         clip-path="url(#clipPath5179)"
         transform="matrix(1.0591257,0,0,1.138249,-2.283112,-145.03038)"
         style="fill:none;stroke:#a62d00;stroke-width:2;stroke-linejoin:round;stroke-miterlimit:4;stroke-opacity:1;stroke-dasharray:none;filter:url(#filter5173)"
         d="m 29.147631,1041.0162 c 0,0 1.670957,-1.883 11.20856,-3.133 0,0 5.958851,-0.4403 12.355632,-2.6626 0,0 4.343353,-1.65 11.225671,-1.8294 0,0 -0.735479,3.0285 -6.697767,4.3633 0,0 -0.668418,4.2438 -5.873158,4.7875 0,0 -1.679728,3.6759 -7.567222,4.475 0,0 -10.19541,1.1242 -14.651716,-6.0008 z"
         id="path5171"
         inkscape:connector-curvature="0"
         sodipodi:nodetypes="cccccccc" />
    </g>
  </g>
</svg>
