<?xml version="1.0" encoding="UTF-8" standalone="no"?>
<!-- Created with Inkscape (http://www.inkscape.org/) -->

<svg
   xmlns:dc="http://purl.org/dc/elements/1.1/"
   xmlns:cc="http://creativecommons.org/ns#"
   xmlns:rdf="http://www.w3.org/1999/02/22-rdf-syntax-ns#"
   xmlns:svg="http://www.w3.org/2000/svg"
   xmlns="http://www.w3.org/2000/svg"
   xmlns:sodipodi="http://sodipodi.sourceforge.net/DTD/sodipodi-0.dtd"
   xmlns:inkscape="http://www.inkscape.org/namespaces/inkscape"
   width="45"
   height="30"
   id="svg2"
   version="1.1"
   inkscape:version="0.48.3.1 r9886"
   sodipodi:docname="glow1.svg"
   inkscape:export-filename="/home/victor/aleva/super-bombinhas/src/data/img/fx/Glow1.png"
   inkscape:export-xdpi="90"
   inkscape:export-ydpi="90">
  <defs
     id="defs4" />
  <sodipodi:namedview
     id="base"
     pagecolor="#ffffff"
     bordercolor="#666666"
     borderopacity="1.0"
     inkscape:pageopacity="0"
     inkscape:pageshadow="2"
     inkscape:zoom="1"
     inkscape:cx="22.5"
     inkscape:cy="15"
     inkscape:document-units="px"
     inkscape:current-layer="layer1"
     showgrid="false"
     inkscape:window-width="1366"
     inkscape:window-height="691"
     inkscape:window-x="0"
     inkscape:window-y="24"
     inkscape:window-maximized="1" />
  <metadata
     id="metadata7">
    <rdf:RDF>
      <cc:Work
         rdf:about="">
        <dc:format>image/svg+xml</dc:format>
        <dc:type
           rdf:resource="http://purl.org/dc/dcmitype/StillImage" />
        <dc:title></dc:title>
      </cc:Work>
    </rdf:RDF>
  </metadata>
  <g
     inkscape:label="Layer 1"
     inkscape:groupmode="layer"
     id="layer1"
     transform="translate(0,-1022.3622)">
    <path
       style="fill:#ffffff;fill-opacity:1;stroke:none"
       d="m 37.5,1037.3622 -0.5,7 -7,0.5 7,0.5 0.5,7 0.5,-7 7,-0.5 -7,-0.5 z"
       id="path2985"
       inkscape:connector-curvature="0"
       sodipodi:nodetypes="ccccccccc" />
    <path
       sodipodi:nodetypes="ccccccccc"
       inkscape:connector-curvature="0"
       id="path3768"
       d="m 22.5,1038.3622 -0.433333,6.0667 -6.066667,0.4333 6.066667,0.4333 0.433333,6.0667 0.433333,-6.0667 6.066667,-0.4333 -6.066667,-0.4333 z"
       style="fill:#ffffff;fill-opacity:1;stroke:none" />
    <path
       style="fill:#ffffff;fill-opacity:1;stroke:none"
       d="M 7.5,1039.3622 7.1333336,1044.4956 2,1044.8622 7.1333336,1045.2288 7.5,1050.3622 7.8666664,1045.2288 13,1044.8622 7.8666664,1044.4956 z"
       id="path3770"
       inkscape:connector-curvature="0"
       sodipodi:nodetypes="ccccccccc" />
    <path
       sodipodi:nodetypes="ccccccccc"
       inkscape:connector-curvature="0"
       id="path3772"
       d="m 37.5,1025.3622 -0.299999,4.2001 -4.200001,0.2999 4.200001,0.2999 0.299999,4.2001 0.299999,-4.2001 4.200001,-0.2999 -4.200001,-0.2999 z"
       style="fill:#ffffff;fill-opacity:1;stroke:none" />
    <path
       style="fill:#ffffff;fill-opacity:1;stroke:none"
       d="m 22.5,1026.3622 -0.233333,3.2667 -3.266667,0.2333 3.266667,0.2333 0.233333,3.2667 0.233333,-3.2667 3.266667,-0.2333 -3.266667,-0.2333 z"
       id="path3774"
       inkscape:connector-curvature="0"
       sodipodi:nodetypes="ccccccccc" />
    <path
       sodipodi:nodetypes="ccccccccc"
       inkscape:connector-curvature="0"
       id="path3776"
       d="M 7.5,1027.3622 7.3333325,1029.6956 5,1029.8622 7.3333335,1030.0288 7.5,1032.3622 7.6666665,1030.0288 10,1029.8622 7.6666665,1029.6956 z"
       style="fill:#ffffff;fill-opacity:1;stroke:none" />
  </g>
</svg>
