<?xml version="1.0" encoding="UTF-8" standalone="no"?>
<!-- Created with Inkscape (http://www.inkscape.org/) -->

<svg
   xmlns:dc="http://purl.org/dc/elements/1.1/"
   xmlns:cc="http://creativecommons.org/ns#"
   xmlns:rdf="http://www.w3.org/1999/02/22-rdf-syntax-ns#"
   xmlns:svg="http://www.w3.org/2000/svg"
   xmlns="http://www.w3.org/2000/svg"
   xmlns:xlink="http://www.w3.org/1999/xlink"
   xmlns:sodipodi="http://sodipodi.sourceforge.net/DTD/sodipodi-0.dtd"
   xmlns:inkscape="http://www.inkscape.org/namespaces/inkscape"
   width="80"
   height="300"
   id="svg2"
   version="1.1"
   inkscape:version="0.48.4 r9939"
   sodipodi:docname="goal1.svg"
   inkscape:export-filename="/home/victor/aleva/super-bombinhas/data/img/sprite/goal1.png"
   inkscape:export-xdpi="90"
   inkscape:export-ydpi="90">
  <defs
     id="defs4">
    <linearGradient
       id="linearGradient3852">
      <stop
         style="stop-color:#ffffff;stop-opacity:1;"
         offset="0"
         id="stop3854" />
      <stop
         style="stop-color:#000000;stop-opacity:1;"
         offset="1"
         id="stop3856" />
    </linearGradient>
    <linearGradient
       id="linearGradient3839">
      <stop
         style="stop-color:#000000;stop-opacity:0.50196081;"
         offset="0"
         id="stop3841" />
      <stop
         style="stop-color:#000000;stop-opacity:0;"
         offset="1"
         id="stop3843" />
    </linearGradient>
    <linearGradient
       id="linearGradient3825">
      <stop
         style="stop-color:#808080;stop-opacity:1;"
         offset="0"
         id="stop3827" />
      <stop
         id="stop3833"
         offset="0.5"
         style="stop-color:#dddddd;stop-opacity:1;" />
      <stop
         style="stop-color:#808080;stop-opacity:1;"
         offset="1"
         id="stop3829" />
    </linearGradient>
    <linearGradient
       id="linearGradient3815">
      <stop
         style="stop-color:#ffffff;stop-opacity:1;"
         offset="0"
         id="stop3817" />
      <stop
         style="stop-color:#0000ff;stop-opacity:1;"
         offset="1"
         id="stop3819" />
    </linearGradient>
    <linearGradient
       id="linearGradient3773">
      <stop
         style="stop-color:#000000;stop-opacity:0.2;"
         offset="0"
         id="stop3775" />
      <stop
         id="stop3781"
         offset="0.5"
         style="stop-color:#000000;stop-opacity:0;" />
      <stop
         style="stop-color:#000000;stop-opacity:0.2;"
         offset="1"
         id="stop3777" />
    </linearGradient>
    <linearGradient
       id="linearGradient3761">
      <stop
         style="stop-color:#ffffff;stop-opacity:1;"
         offset="0"
         id="stop3763" />
      <stop
         style="stop-color:#808080;stop-opacity:1;"
         offset="1"
         id="stop3765" />
    </linearGradient>
    <radialGradient
       inkscape:collect="always"
       xlink:href="#linearGradient3761"
       id="radialGradient3769"
       cx="20.125004"
       cy="129.125"
       fx="20.125004"
       fy="129.125"
       r="20.000004"
       gradientTransform="matrix(1.19375,-1.2655543e-7,3.4454876e-8,0.32499995,-3.8992232,100.65938)"
       gradientUnits="userSpaceOnUse" />
    <filter
       inkscape:collect="always"
       id="filter3785"
       x="-0.035999999"
       width="1.072"
       y="-0.18000002"
       height="1.36">
      <feGaussianBlur
         inkscape:collect="always"
         stdDeviation="0.60000006"
         id="feGaussianBlur3787" />
    </filter>
    <clipPath
       clipPathUnits="userSpaceOnUse"
       id="clipPath3791">
      <path
         sodipodi:nodetypes="ccccccccc"
         inkscape:connector-curvature="0"
         id="path3793"
         d="m 12,142 -8,1.5 c 0,0 -4,0.76389 -4,2.5 l 0,4 40,0 0,-4 c 0,0 0.02778,-1.66667 -4,-2.5 L 28,142 z"
         style="fill:#000000;fill-opacity:1;stroke:none" />
    </clipPath>
    <linearGradient
       inkscape:collect="always"
       xlink:href="#linearGradient3773"
       id="linearGradient3803"
       x1="12"
       y1="830.36212"
       x2="28"
       y2="830.36212"
       gradientUnits="userSpaceOnUse"
       gradientTransform="matrix(1,0,0,0.8515625,0,132.75688)" />
    <radialGradient
       inkscape:collect="always"
       xlink:href="#linearGradient3815"
       id="radialGradient3821"
       cx="21.036427"
       cy="4.5993805"
       fx="21.036427"
       fy="4.5993805"
       r="15.909903"
       gradientTransform="matrix(-2.0717087,-1.2690487e-8,0,-1.4052981,64.617775,10.982802)"
       gradientUnits="userSpaceOnUse" />
    <linearGradient
       inkscape:collect="always"
       xlink:href="#linearGradient3825"
       id="linearGradient3831"
       x1="13.125"
       y1="7.8749997"
       x2="26.875"
       y2="7.8749997"
       gradientUnits="userSpaceOnUse" />
    <linearGradient
       inkscape:collect="always"
       xlink:href="#linearGradient3839"
       id="linearGradient3848"
       gradientUnits="userSpaceOnUse"
       x1="19.875"
       y1="785.23712"
       x2="19.875"
       y2="805.47498" />
    <radialGradient
       inkscape:collect="always"
       xlink:href="#linearGradient3852"
       id="radialGradient3858"
       cx="13.148347"
       cy="19.683222"
       fx="13.148347"
       fy="19.683222"
       r="2.519068"
       gradientTransform="matrix(-0.00575947,1.9424056,-0.88156402,-0.00261395,31.083748,-8.2864912)"
       gradientUnits="userSpaceOnUse" />
    <radialGradient
       inkscape:collect="always"
       xlink:href="#linearGradient3852"
       id="radialGradient3862"
       gradientUnits="userSpaceOnUse"
       gradientTransform="matrix(-0.00575947,1.9424056,-0.88156402,-0.00261395,31.083748,-8.2864912)"
       cx="13.148347"
       cy="19.683222"
       fx="13.148347"
       fy="19.683222"
       r="2.519068" />
    <radialGradient
       inkscape:collect="always"
       xlink:href="#linearGradient3852"
       id="radialGradient3866"
       gradientUnits="userSpaceOnUse"
       gradientTransform="matrix(-0.00575947,1.9424056,-0.88156402,-0.00261395,31.083748,-8.2864912)"
       cx="13.148347"
       cy="19.683222"
       fx="13.148347"
       fy="19.683222"
       r="2.519068" />
    <radialGradient
       inkscape:collect="always"
       xlink:href="#linearGradient3761"
       id="radialGradient3896"
       gradientUnits="userSpaceOnUse"
       gradientTransform="matrix(1.19375,-1.2655543e-7,3.4454876e-8,0.32499995,36.100777,853.02153)"
       cx="20.125004"
       cy="129.125"
       fx="20.125004"
       fy="129.125"
       r="20.000004" />
    <linearGradient
       inkscape:collect="always"
       xlink:href="#linearGradient3773"
       id="linearGradient3898"
       gradientUnits="userSpaceOnUse"
       x1="12"
       y1="830.36212"
       x2="28"
       y2="830.36212"
       gradientTransform="translate(60,0)" />
    <linearGradient
       inkscape:collect="always"
       xlink:href="#linearGradient3839"
       id="linearGradient3900"
       gradientUnits="userSpaceOnUse"
       x1="19.875"
       y1="785.23712"
       x2="19.875"
       y2="805.47498"
       gradientTransform="translate(60,0)" />
    <radialGradient
       inkscape:collect="always"
       xlink:href="#linearGradient3815"
       id="radialGradient3902"
       gradientUnits="userSpaceOnUse"
       gradientTransform="matrix(-2.0717087,-1.2690487e-8,0,-1.4052981,64.617775,10.982802)"
       cx="21.036427"
       cy="4.5993805"
       fx="21.036427"
       fy="4.5993805"
       r="15.909903" />
    <linearGradient
       inkscape:collect="always"
       xlink:href="#linearGradient3825"
       id="linearGradient3904"
       gradientUnits="userSpaceOnUse"
       x1="13.125"
       y1="7.8749997"
       x2="26.875"
       y2="7.8749997"
       gradientTransform="translate(40,752.36215)" />
    <radialGradient
       inkscape:collect="always"
       xlink:href="#linearGradient3852"
       id="radialGradient3906"
       gradientUnits="userSpaceOnUse"
       gradientTransform="matrix(-0.00575947,1.9424056,-0.88156402,-0.00261395,31.083748,-8.2864912)"
       cx="13.148347"
       cy="19.683222"
       fx="13.148347"
       fy="19.683222"
       r="2.519068" />
    <radialGradient
       inkscape:collect="always"
       xlink:href="#linearGradient3852"
       id="radialGradient3908"
       gradientUnits="userSpaceOnUse"
       gradientTransform="matrix(-0.00575947,1.9424056,-0.88156402,-0.00261395,31.083748,-8.2864912)"
       cx="13.148347"
       cy="19.683222"
       fx="13.148347"
       fy="19.683222"
       r="2.519068" />
    <clipPath
       clipPathUnits="userSpaceOnUse"
       id="clipPath3916">
      <rect
         y="785.36212"
         x="12"
         height="109"
         width="16"
         id="rect3918"
         style="fill:#ffffff;fill-opacity:1;stroke:none" />
    </clipPath>
    <linearGradient
       inkscape:collect="always"
       xlink:href="#linearGradient3773"
       id="linearGradient3934"
       gradientUnits="userSpaceOnUse"
       gradientTransform="matrix(1,0,0,0.8515625,40,132.75688)"
       x1="12"
       y1="830.36212"
       x2="28"
       y2="830.36212" />
    <linearGradient
       inkscape:collect="always"
       xlink:href="#linearGradient3839"
       id="linearGradient3936"
       gradientUnits="userSpaceOnUse"
       x1="19.875"
       y1="785.23712"
       x2="19.875"
       y2="805.47498"
       gradientTransform="translate(40,0)" />
    <clipPath
       clipPathUnits="userSpaceOnUse"
       id="clipPath3940">
      <rect
         style="fill:#ffffff;fill-opacity:1;stroke:none"
         id="rect3942"
         width="16"
         height="109"
         x="52"
         y="785.36212" />
    </clipPath>
    <radialGradient
       inkscape:collect="always"
       xlink:href="#linearGradient3761"
       id="radialGradient3980"
       gradientUnits="userSpaceOnUse"
       gradientTransform="matrix(1.19375,-1.2655543e-7,3.4454876e-8,0.32499995,-3.899223,1003.0215)"
       cx="20.125004"
       cy="129.125"
       fx="20.125004"
       fy="129.125"
       r="20.000004" />
    <linearGradient
       inkscape:collect="always"
       xlink:href="#linearGradient3773"
       id="linearGradient3982"
       gradientUnits="userSpaceOnUse"
       gradientTransform="matrix(1,0,0,0.8515625,0,282.75688)"
       x1="12"
       y1="830.36212"
       x2="28"
       y2="830.36212" />
    <linearGradient
       inkscape:collect="always"
       xlink:href="#linearGradient3839"
       id="linearGradient3984"
       gradientUnits="userSpaceOnUse"
       gradientTransform="translate(0,150)"
       x1="19.875"
       y1="785.23712"
       x2="19.875"
       y2="805.47498" />
    <radialGradient
       inkscape:collect="always"
       xlink:href="#linearGradient3815"
       id="radialGradient3986"
       gradientUnits="userSpaceOnUse"
       gradientTransform="matrix(-2.0717087,-1.2690487e-8,0,-1.4052981,64.617775,10.982802)"
       cx="21.036427"
       cy="4.5993805"
       fx="21.036427"
       fy="4.5993805"
       r="15.909903" />
    <linearGradient
       inkscape:collect="always"
       xlink:href="#linearGradient3825"
       id="linearGradient3988"
       gradientUnits="userSpaceOnUse"
       gradientTransform="translate(0,902.36215)"
       x1="13.125"
       y1="7.8749997"
       x2="26.875"
       y2="7.8749997" />
    <radialGradient
       inkscape:collect="always"
       xlink:href="#linearGradient3852"
       id="radialGradient3990"
       gradientUnits="userSpaceOnUse"
       gradientTransform="matrix(-0.00575947,1.9424056,-0.88156402,-0.00261395,31.083748,-8.2864912)"
       cx="13.148347"
       cy="19.683222"
       fx="13.148347"
       fy="19.683222"
       r="2.519068" />
    <radialGradient
       inkscape:collect="always"
       xlink:href="#linearGradient3852"
       id="radialGradient3992"
       gradientUnits="userSpaceOnUse"
       gradientTransform="matrix(-0.00575947,1.9424056,-0.88156402,-0.00261395,31.083748,-8.2864912)"
       cx="13.148347"
       cy="19.683222"
       fx="13.148347"
       fy="19.683222"
       r="2.519068" />
    <clipPath
       clipPathUnits="userSpaceOnUse"
       id="clipPath3996">
      <rect
         y="935.36212"
         x="12"
         height="109"
         width="16"
         id="rect3998"
         style="fill:#ffffff;fill-opacity:1;stroke:none" />
    </clipPath>
    <radialGradient
       inkscape:collect="always"
       xlink:href="#linearGradient3761"
       id="radialGradient4028"
       gradientUnits="userSpaceOnUse"
       gradientTransform="matrix(1.19375,-1.2655543e-7,3.4454876e-8,0.32499995,36.100777,1003.0215)"
       cx="20.125004"
       cy="129.125"
       fx="20.125004"
       fy="129.125"
       r="20.000004" />
    <linearGradient
       inkscape:collect="always"
       xlink:href="#linearGradient3773"
       id="linearGradient4030"
       gradientUnits="userSpaceOnUse"
       gradientTransform="matrix(1,0,0,0.8515625,40,282.75688)"
       x1="12"
       y1="830.36212"
       x2="28"
       y2="830.36212" />
    <linearGradient
       inkscape:collect="always"
       xlink:href="#linearGradient3839"
       id="linearGradient4032"
       gradientUnits="userSpaceOnUse"
       gradientTransform="translate(40,150)"
       x1="19.875"
       y1="785.23712"
       x2="19.875"
       y2="805.47498" />
    <radialGradient
       inkscape:collect="always"
       xlink:href="#linearGradient3815"
       id="radialGradient4034"
       gradientUnits="userSpaceOnUse"
       gradientTransform="matrix(-2.0717087,-1.2690487e-8,0,-1.4052981,64.617775,10.982802)"
       cx="21.036427"
       cy="4.5993805"
       fx="21.036427"
       fy="4.5993805"
       r="15.909903" />
    <linearGradient
       inkscape:collect="always"
       xlink:href="#linearGradient3825"
       id="linearGradient4036"
       gradientUnits="userSpaceOnUse"
       gradientTransform="translate(40,902.36215)"
       x1="13.125"
       y1="7.8749997"
       x2="26.875"
       y2="7.8749997" />
    <radialGradient
       inkscape:collect="always"
       xlink:href="#linearGradient3852"
       id="radialGradient4038"
       gradientUnits="userSpaceOnUse"
       gradientTransform="matrix(-0.00575947,1.9424056,-0.88156402,-0.00261395,31.083748,-8.2864912)"
       cx="13.148347"
       cy="19.683222"
       fx="13.148347"
       fy="19.683222"
       r="2.519068" />
    <radialGradient
       inkscape:collect="always"
       xlink:href="#linearGradient3852"
       id="radialGradient4040"
       gradientUnits="userSpaceOnUse"
       gradientTransform="matrix(-0.00575947,1.9424056,-0.88156402,-0.00261395,31.083748,-8.2864912)"
       cx="13.148347"
       cy="19.683222"
       fx="13.148347"
       fy="19.683222"
       r="2.519068" />
    <radialGradient
       inkscape:collect="always"
       xlink:href="#linearGradient3852"
       id="radialGradient4052"
       gradientUnits="userSpaceOnUse"
       gradientTransform="matrix(-0.00575947,1.9424056,-0.88156402,-0.00261395,31.083748,-8.2864912)"
       cx="13.148347"
       cy="19.683222"
       fx="13.148347"
       fy="19.683222"
       r="2.519068" />
    <radialGradient
       inkscape:collect="always"
       xlink:href="#linearGradient3852"
       id="radialGradient4054"
       gradientUnits="userSpaceOnUse"
       gradientTransform="matrix(-0.00575947,1.9424056,-0.88156402,-0.00261395,31.083748,-8.2864912)"
       cx="13.148347"
       cy="19.683222"
       fx="13.148347"
       fy="19.683222"
       r="2.519068" />
    <radialGradient
       inkscape:collect="always"
       xlink:href="#linearGradient3852"
       id="radialGradient4056"
       gradientUnits="userSpaceOnUse"
       gradientTransform="matrix(-0.00575947,1.9424056,-0.88156402,-0.00261395,31.083748,-8.2864912)"
       cx="13.148347"
       cy="19.683222"
       fx="13.148347"
       fy="19.683222"
       r="2.519068" />
    <radialGradient
       inkscape:collect="always"
       xlink:href="#linearGradient3852"
       id="radialGradient4058"
       gradientUnits="userSpaceOnUse"
       gradientTransform="matrix(-0.00575947,1.9424056,-0.88156402,-0.00261395,31.083748,-8.2864912)"
       cx="13.148347"
       cy="19.683222"
       fx="13.148347"
       fy="19.683222"
       r="2.519068" />
  </defs>
  <sodipodi:namedview
     id="base"
     pagecolor="#ffffff"
     bordercolor="#666666"
     borderopacity="1.0"
     inkscape:pageopacity="0.0"
     inkscape:pageshadow="2"
     inkscape:zoom="1"
     inkscape:cx="43.850617"
     inkscape:cy="159.04344"
     inkscape:document-units="px"
     inkscape:current-layer="layer1"
     showgrid="false"
     inkscape:window-width="1364"
     inkscape:window-height="718"
     inkscape:window-x="0"
     inkscape:window-y="0"
     inkscape:window-maximized="1" />
  <metadata
     id="metadata7">
    <rdf:RDF>
      <cc:Work
         rdf:about="">
        <dc:format>image/svg+xml</dc:format>
        <dc:type
           rdf:resource="http://purl.org/dc/dcmitype/StillImage" />
        <dc:title></dc:title>
      </cc:Work>
    </rdf:RDF>
  </metadata>
  <g
     inkscape:label="Layer 1"
     inkscape:groupmode="layer"
     id="layer1"
     transform="translate(0,-752.36215)">
    <path
       style="opacity:1;fill:url(#radialGradient3769);fill-opacity:1;stroke:none"
       d="m 12,142 -8,1.5 c 0,0 -4,0.76389 -4,2.5 l 0,4 40,0 0,-4 c 0,0 0.02778,-1.66667 -4,-2.5 L 28,142 z"
       id="path3757"
       inkscape:connector-curvature="0"
       transform="translate(0,752.36215)"
       sodipodi:nodetypes="ccccccccc" />
    <rect
       style="fill:#ffffff;fill-opacity:1;stroke:none"
       id="rect3771"
       width="16"
       height="109"
       x="12"
       y="785.36212" />
    <path
       sodipodi:nodetypes="ccccccccc"
       transform="translate(0,752.36215)"
       inkscape:connector-curvature="0"
       id="path3783"
       d="m 12,142 -8,1.5 c 0,0 -4,0.76389 -4,2.5 l 0,4 40,0 0,-4 c 0,0 0.02778,-1.66667 -4,-2.5 L 28,142 z"
       style="opacity:1;fill:none;fill-opacity:1;stroke:#808080;stroke-opacity:1;filter:url(#filter3785)"
       clip-path="url(#clipPath3791)" />
    <path
       style="fill:#ff0000;fill-opacity:1;stroke:none"
       d="m 12,892.36215 16,-16 0,-16 -16,16 z"
       id="path3805"
       inkscape:connector-curvature="0"
       sodipodi:nodetypes="ccccc" />
    <path
       sodipodi:nodetypes="ccccc"
       inkscape:connector-curvature="0"
       id="path3807"
       d="m 12,860.36215 16,-16 0,-16 -16,16 z"
       style="fill:#ff0000;fill-opacity:1;stroke:none" />
    <path
       style="fill:#ff0000;fill-opacity:1;stroke:none"
       d="m 12,828.36215 16,-16 0,-16 -16,16 z"
       id="path3809"
       inkscape:connector-curvature="0"
       sodipodi:nodetypes="ccccc" />
    <path
       sodipodi:nodetypes="ccccc"
       inkscape:connector-curvature="0"
       id="path3811"
       d="m 12,796.36215 16,-16 0,-16 -16,16 z"
       style="fill:#ff0000;fill-opacity:1;stroke:none" />
    <path
       style="fill:url(#linearGradient3848);fill-opacity:1;stroke:none"
       d="m 12,785.36212 16,0 0,20 -16,0 z"
       id="rect3837"
       inkscape:connector-curvature="0"
       sodipodi:nodetypes="ccccc" />
    <path
       sodipodi:nodetypes="ccccccccc"
       inkscape:connector-curvature="0"
       id="path3870"
       d="m 52,894.36215 -8,1.5 c 0,0 -4,0.76389 -4,2.5 l 0,4 40,0 0,-4 c 0,0 0.02778,-1.66667 -4,-2.5 l -8,-1.5 z"
       style="fill:url(#radialGradient3896);fill-opacity:1;stroke:none" />
    <path
       clip-path="url(#clipPath3791)"
       style="fill:none;stroke:#808080;stroke-opacity:1;filter:url(#filter3785)"
       d="m 12,142 -8,1.5 c 0,0 -4,0.76389 -4,2.5 l 0,4 40,0 0,-4 c 0,0 0.02778,-1.66667 -4,-2.5 L 28,142 z"
       id="path3874"
       inkscape:connector-curvature="0"
       transform="translate(40,752.36215)"
       sodipodi:nodetypes="ccccccccc" />
    <rect
       y="785.36212"
       x="52"
       height="109"
       width="16"
       id="rect3920"
       style="fill:#ffffff;fill-opacity:1;stroke:none" />
    <path
       sodipodi:nodetypes="ccccc"
       inkscape:connector-curvature="0"
       id="path3922"
       d="m 52,884.36215 16,-16 0,-16 -16,16 z"
       style="fill:#ff0000;fill-opacity:1;stroke:none" />
    <path
       style="fill:#ff0000;fill-opacity:1;stroke:none"
       d="m 52,852.36215 16,-16 0,-16 -16,16 z"
       id="path3924"
       inkscape:connector-curvature="0"
       sodipodi:nodetypes="ccccc" />
    <path
       sodipodi:nodetypes="ccccc"
       inkscape:connector-curvature="0"
       id="path3926"
       d="m 52,820.36215 16,-16 0,-16 -16,16 z"
       style="fill:#ff0000;fill-opacity:1;stroke:none" />
    <path
       sodipodi:nodetypes="ccccc"
       inkscape:connector-curvature="0"
       id="path3930"
       d="m 52,785.36212 16,0 0,20 -16,0 z"
       style="fill:url(#linearGradient3936);fill-opacity:1;stroke:none" />
    <path
       clip-path="url(#clipPath3940)"
       style="fill:#ff0000;fill-opacity:1;stroke:none"
       d="m 52,916.36215 16,-16 0,-16 -16,16 z"
       id="path3932"
       inkscape:connector-curvature="0"
       sodipodi:nodetypes="ccccc" />
    <rect
       style="fill:url(#linearGradient3934);fill-opacity:1;stroke:none"
       id="rect3928"
       width="16"
       height="109"
       x="52"
       y="785.36212" />
    <path
       inkscape:connector-curvature="0"
       id="path3868"
       d="m 58.561553,759.08961 0.353553,-6.54074 2.474874,0.17678 -0.353553,6.36396 z"
       style="fill:#000000;fill-opacity:1;stroke:none" />
    <path
       transform="matrix(0.94280904,0,0,0.93760015,40.166667,757.53515)"
       d="m 36.946329,19.013443 a 15.909903,15.998291 0 1 1 -31.819805,0 15.909903,15.998291 0 1 1 31.819805,0 z"
       sodipodi:ry="15.998291"
       sodipodi:rx="15.909903"
       sodipodi:cy="19.013443"
       sodipodi:cx="21.036427"
       id="path3888"
       style="fill:url(#radialGradient3902);fill-opacity:1;stroke:none"
       sodipodi:type="arc" />
    <path
       sodipodi:nodetypes="ccccc"
       inkscape:connector-curvature="0"
       id="path3890"
       d="m 54.625,758.36215 -1.5,3.75 13.75,0 -1.5,-3.75 z"
       style="fill:url(#linearGradient3904);fill-opacity:1;stroke:none" />
    <path
       transform="matrix(0.99243053,0,0,0.93630688,39.368421,753.69766)"
       d="m 17.766058,21.00218 a 2.519068,6.4081554 0 1 1 -5.038136,0 2.519068,6.4081554 0 1 1 5.038136,0 z"
       sodipodi:ry="6.4081554"
       sodipodi:rx="2.519068"
       sodipodi:cy="21.00218"
       sodipodi:cx="15.24699"
       id="path3892"
       style="fill:url(#radialGradient3906);fill-opacity:1;stroke:none"
       sodipodi:type="arc" />
    <path
       sodipodi:type="arc"
       style="fill:url(#radialGradient3908);fill-opacity:1;stroke:none"
       id="path3894"
       sodipodi:cx="15.24699"
       sodipodi:cy="21.00218"
       sodipodi:rx="2.519068"
       sodipodi:ry="6.4081554"
       d="m 17.766058,21.00218 a 2.519068,6.4081554 0 1 1 -5.038136,0 2.519068,6.4081554 0 1 1 5.038136,0 z"
       transform="matrix(0.99243053,0,0,0.93630688,50.368421,753.69766)" />
    <path
       sodipodi:nodetypes="ccccc"
       inkscape:connector-curvature="0"
       id="path3912"
       d="m 12,924.36215 16,-16 0,-16 -16,16 z"
       style="fill:#ff0000;fill-opacity:1;stroke:none"
       clip-path="url(#clipPath3916)" />
    <rect
       y="785.36212"
       x="12"
       height="109"
       width="16"
       id="rect3795"
       style="fill:url(#linearGradient3803);fill-opacity:1;stroke:none" />
    <path
       style="fill:#000000;fill-opacity:1;stroke:none"
       d="M 18.561553,6.7274621 18.915106,0.18672438 21.38998,0.36350108 21.036427,6.7274621 z"
       id="path3835"
       inkscape:connector-curvature="0"
       transform="translate(0,752.36215)" />
    <path
       sodipodi:type="arc"
       style="fill:url(#radialGradient3821);fill-opacity:1;stroke:none"
       id="path3813"
       sodipodi:cx="21.036427"
       sodipodi:cy="19.013443"
       sodipodi:rx="15.909903"
       sodipodi:ry="15.998291"
       d="m 36.946329,19.013443 a 15.909903,15.998291 0 1 1 -31.819805,0 15.909903,15.998291 0 1 1 31.819805,0 z"
       transform="matrix(0.94280904,0,0,0.93760015,0.16666684,757.53515)" />
    <path
       style="fill:url(#linearGradient3831);fill-opacity:1;stroke:none"
       d="m 14.625,6 -1.5,3.7499995 13.75,0 L 25.375,6 z"
       id="path3823"
       inkscape:connector-curvature="0"
       transform="translate(0,752.36215)"
       sodipodi:nodetypes="ccccc" />
    <path
       sodipodi:type="arc"
       style="fill:url(#radialGradient3862);fill-opacity:1;stroke:none"
       id="path3850"
       sodipodi:cx="15.24699"
       sodipodi:cy="21.00218"
       sodipodi:rx="2.519068"
       sodipodi:ry="6.4081554"
       d="m 17.766058,21.00218 a 2.519068,6.4081554 0 1 1 -5.038136,0 2.519068,6.4081554 0 1 1 5.038136,0 z"
       transform="matrix(0.99243053,0,0,0.93630688,-0.63157858,753.69766)" />
    <path
       transform="matrix(0.99243053,0,0,0.93630688,10.368421,753.69766)"
       d="m 17.766058,21.00218 a 2.519068,6.4081554 0 1 1 -5.038136,0 2.519068,6.4081554 0 1 1 5.038136,0 z"
       sodipodi:ry="6.4081554"
       sodipodi:rx="2.519068"
       sodipodi:cy="21.00218"
       sodipodi:cx="15.24699"
       id="path3864"
       style="fill:url(#radialGradient3866);fill-opacity:1;stroke:none"
       sodipodi:type="arc" />
    <path
       style="fill:#000000;fill-opacity:1;stroke:none"
       d="m 18.561553,909.08961 0.353553,-6.54074 2.474874,0.17678 -0.353553,6.36396 z"
       id="path3952"
       inkscape:connector-curvature="0" />
    <path
       style="fill:url(#radialGradient3980);fill-opacity:1;stroke:none"
       d="m 12,1044.3622 -8,1.5 c 0,0 -4,0.7638 -4,2.5 l 0,4 40,0 0,-4 c 0,0 0.02778,-1.6667 -4,-2.5 l -8,-1.5 z"
       id="path3954"
       inkscape:connector-curvature="0"
       sodipodi:nodetypes="ccccccccc" />
    <path
       sodipodi:nodetypes="ccccccccc"
       transform="translate(0,902.36215)"
       inkscape:connector-curvature="0"
       id="path3956"
       d="m 12,142 -8,1.5 c 0,0 -4,0.76389 -4,2.5 l 0,4 40,0 0,-4 c 0,0 0.02778,-1.66667 -4,-2.5 L 28,142 z"
       style="fill:none;stroke:#808080;stroke-opacity:1;filter:url(#filter3785)"
       clip-path="url(#clipPath3791)" />
    <rect
       style="fill:#ffffff;fill-opacity:1;stroke:none"
       id="rect3958"
       width="16"
       height="109"
       x="12"
       y="935.36212" />
    <path
       style="fill:#ff0000;fill-opacity:1;stroke:none"
       d="m 12,1026.3622 16,-16 0,-16 -16,16 z"
       id="path3960"
       inkscape:connector-curvature="0"
       sodipodi:nodetypes="ccccc" />
    <path
       sodipodi:nodetypes="ccccc"
       inkscape:connector-curvature="0"
       id="path3962"
       d="m 12,994.3622 16,-16.00005 0,-16 -16,16 z"
       style="fill:#ff0000;fill-opacity:1;stroke:none" />
    <path
       style="fill:#ff0000;fill-opacity:1;stroke:none"
       d="m 12,962.36215 16,-16 0,-16 -16,16 z"
       id="path3964"
       inkscape:connector-curvature="0"
       sodipodi:nodetypes="ccccc" />
    <path
       style="fill:url(#linearGradient3984);fill-opacity:1;stroke:none"
       d="m 12,935.36212 16,0 0,20 -16,0 z"
       id="path3968"
       inkscape:connector-curvature="0"
       sodipodi:nodetypes="ccccc" />
    <path
       sodipodi:nodetypes="ccccc"
       inkscape:connector-curvature="0"
       id="path3970"
       d="m 12,1058.3622 16,-16 0,-16 -16,16 z"
       style="fill:#ff0000;fill-opacity:1;stroke:none"
       clip-path="url(#clipPath3996)" />
    <rect
       y="935.36212"
       x="12"
       height="109"
       width="16"
       id="rect3966"
       style="fill:url(#linearGradient3982);fill-opacity:1;stroke:none" />
    <path
       sodipodi:type="arc"
       style="fill:url(#radialGradient3986);fill-opacity:1;stroke:none"
       id="path3972"
       sodipodi:cx="21.036427"
       sodipodi:cy="19.013443"
       sodipodi:rx="15.909903"
       sodipodi:ry="15.998291"
       d="m 36.946329,19.013443 a 15.909903,15.998291 0 1 1 -31.819805,0 15.909903,15.998291 0 1 1 31.819805,0 z"
       transform="matrix(0.94280904,0,0,0.93760015,0.166667,907.53515)" />
    <path
       style="fill:url(#linearGradient3988);fill-opacity:1;stroke:none"
       d="m 14.625,908.36215 -1.5,3.75 13.75,0 -1.5,-3.75 z"
       id="path3974"
       inkscape:connector-curvature="0"
       sodipodi:nodetypes="ccccc" />
    <path
       inkscape:connector-curvature="0"
       id="path4000"
       d="m 58.561553,909.08961 0.353553,-6.54074 2.474874,0.17678 -0.353553,6.36396 z"
       style="fill:#000000;fill-opacity:1;stroke:none" />
    <rect
       y="935.36212"
       x="52"
       height="109"
       width="16"
       id="rect4006"
       style="fill:#ffffff;fill-opacity:1;stroke:none" />
    <path
       sodipodi:nodetypes="ccccc"
       inkscape:connector-curvature="0"
       id="path4008"
       d="m 52,1018.3622 16,-16 0,-16 -16,16 z"
       style="fill:#ff0000;fill-opacity:1;stroke:none" />
    <path
       style="fill:#ff0000;fill-opacity:1;stroke:none"
       d="m 52,986.3622 16,-16.00005 0,-16 -16,16 z"
       id="path4010"
       inkscape:connector-curvature="0"
       sodipodi:nodetypes="ccccc" />
    <path
       sodipodi:nodetypes="ccccc"
       inkscape:connector-curvature="0"
       id="path4012"
       d="m 52,954.36215 16,-16 0,-16 -16,16 z"
       style="fill:#ff0000;fill-opacity:1;stroke:none" />
    <path
       sodipodi:nodetypes="ccccc"
       inkscape:connector-curvature="0"
       id="path4016"
       d="m 52,935.36212 16,0 0,20 -16,0 z"
       style="fill:url(#linearGradient4032);fill-opacity:1;stroke:none" />
    <path
       clip-path="none"
       style="fill:#ff0000;fill-opacity:1;stroke:none"
       d="m 12,1058.3622 16,-16 0,-16 -16,16 z"
       id="path4018"
       inkscape:connector-curvature="0"
       sodipodi:nodetypes="ccccc"
       transform="translate(40,-8)" />
    <rect
       style="fill:url(#linearGradient4030);fill-opacity:1;stroke:none"
       id="rect4014"
       width="16"
       height="109"
       x="52"
       y="935.36212" />
    <path
       sodipodi:nodetypes="ccccccccc"
       inkscape:connector-curvature="0"
       id="path4002"
       d="m 52,1044.3622 -8,1.5 c 0,0 -4,0.7638 -4,2.5 l 0,4 40,0 0,-4 c 0,0 0.02778,-1.6667 -4,-2.5 l -8,-1.5 z"
       style="fill:url(#radialGradient4028);fill-opacity:1;stroke:none" />
    <path
       clip-path="url(#clipPath3791)"
       style="fill:none;stroke:#808080;stroke-opacity:1;filter:url(#filter3785)"
       d="m 12,142 -8,1.5 c 0,0 -4,0.76389 -4,2.5 l 0,4 40,0 0,-4 c 0,0 0.02778,-1.66667 -4,-2.5 L 28,142 z"
       id="path4004"
       inkscape:connector-curvature="0"
       transform="translate(40,902.36215)"
       sodipodi:nodetypes="ccccccccc" />
    <path
       transform="matrix(0.94280904,0,0,0.93760015,40.166667,907.53515)"
       d="m 36.946329,19.013443 a 15.909903,15.998291 0 1 1 -31.819805,0 15.909903,15.998291 0 1 1 31.819805,0 z"
       sodipodi:ry="15.998291"
       sodipodi:rx="15.909903"
       sodipodi:cy="19.013443"
       sodipodi:cx="21.036427"
       id="path4020"
       style="fill:url(#radialGradient4034);fill-opacity:1;stroke:none"
       sodipodi:type="arc" />
    <path
       sodipodi:nodetypes="ccccc"
       inkscape:connector-curvature="0"
       id="path4022"
       d="m 54.625,908.36215 -1.5,3.75 13.75,0 -1.5,-3.75 z"
       style="fill:url(#linearGradient4036);fill-opacity:1;stroke:none" />
    <path
       sodipodi:type="arc"
       style="fill:url(#radialGradient4052);fill-opacity:1;stroke:none"
       id="path4044"
       sodipodi:cx="15.24699"
       sodipodi:cy="21.00218"
       sodipodi:rx="2.519068"
       sodipodi:ry="6.4081554"
       d="m 17.766058,21.00218 a 2.519068,6.4081554 0 1 1 -5.038136,0 2.519068,6.4081554 0 1 1 5.038136,0 z"
       transform="matrix(0.99243053,0,0,0.93630688,39.368421,903.69766)" />
    <path
       transform="matrix(0.99243053,0,0,0.93630688,50.368421,903.69766)"
       d="m 17.766058,21.00218 a 2.519068,6.4081554 0 1 1 -5.038136,0 2.519068,6.4081554 0 1 1 5.038136,0 z"
       sodipodi:ry="6.4081554"
       sodipodi:rx="2.519068"
       sodipodi:cy="21.00218"
       sodipodi:cx="15.24699"
       id="path4046"
       style="fill:url(#radialGradient4054);fill-opacity:1;stroke:none"
       sodipodi:type="arc" />
    <path
       transform="matrix(0.99243053,0,0,0.93630688,-0.63157858,903.69766)"
       d="m 17.766058,21.00218 a 2.519068,6.4081554 0 1 1 -5.038136,0 2.519068,6.4081554 0 1 1 5.038136,0 z"
       sodipodi:ry="6.4081554"
       sodipodi:rx="2.519068"
       sodipodi:cy="21.00218"
       sodipodi:cx="15.24699"
       id="path4048"
       style="fill:url(#radialGradient4056);fill-opacity:1;stroke:none"
       sodipodi:type="arc" />
    <path
       sodipodi:type="arc"
       style="fill:url(#radialGradient4058);fill-opacity:1;stroke:none"
       id="path4050"
       sodipodi:cx="15.24699"
       sodipodi:cy="21.00218"
       sodipodi:rx="2.519068"
       sodipodi:ry="6.4081554"
       d="m 17.766058,21.00218 a 2.519068,6.4081554 0 1 1 -5.038136,0 2.519068,6.4081554 0 1 1 5.038136,0 z"
       transform="matrix(0.99243053,0,0,0.93630688,10.368421,903.69766)" />
  </g>
</svg>
