<?xml version="1.0" encoding="UTF-8" standalone="no"?>
<!-- Created with Inkscape (http://www.inkscape.org/) -->

<svg
   xmlns:dc="http://purl.org/dc/elements/1.1/"
   xmlns:cc="http://creativecommons.org/ns#"
   xmlns:rdf="http://www.w3.org/1999/02/22-rdf-syntax-ns#"
   xmlns:svg="http://www.w3.org/2000/svg"
   xmlns="http://www.w3.org/2000/svg"
   xmlns:xlink="http://www.w3.org/1999/xlink"
   xmlns:sodipodi="http://sodipodi.sourceforge.net/DTD/sodipodi-0.dtd"
   xmlns:inkscape="http://www.inkscape.org/namespaces/inkscape"
   width="300"
   height="240"
   viewBox="0 0 300 240"
   id="svg2"
   version="1.1"
   inkscape:version="0.91 r"
   sodipodi:docname="graphics6.svg"
   inkscape:export-filename="/home/victor/aleva/super-bombinhas/data/img/sprite/graphics6.png"
   inkscape:export-xdpi="90"
   inkscape:export-ydpi="90">
  <defs
     id="defs4">
    <linearGradient
       inkscape:collect="always"
       id="linearGradient4140">
      <stop
         style="stop-color:#13ef09;stop-opacity:1"
         offset="0"
         id="stop4142" />
      <stop
         style="stop-color:#11810c;stop-opacity:1"
         offset="1"
         id="stop4144" />
    </linearGradient>
    <inkscape:path-effect
       effect="spiro"
       id="path-effect4138"
       is_visible="true" />
    <radialGradient
       inkscape:collect="always"
       xlink:href="#linearGradient4140"
       id="radialGradient4146"
       cx="157.50679"
       cy="930.0562"
       fx="157.50679"
       fy="930.0562"
       r="137.41455"
       gradientTransform="matrix(1.0739372,0,0,0.8561739,-18.816128,136.08612)"
       gradientUnits="userSpaceOnUse" />
    <linearGradient
       inkscape:collect="always"
       xlink:href="#linearGradient4138"
       id="linearGradient4144"
       x1="5.5114236"
       y1="1036.6154"
       x2="58.826012"
       y2="1036.6154"
       gradientUnits="userSpaceOnUse" />
    <linearGradient
       inkscape:collect="always"
       id="linearGradient4138">
      <stop
         style="stop-color:#7b2500;stop-opacity:1"
         offset="0"
         id="stop4140" />
      <stop
         id="stop4146"
         offset="0.49367088"
         style="stop-color:#bc4405;stop-opacity:1" />
      <stop
         style="stop-color:#7b2500;stop-opacity:1"
         offset="1"
         id="stop4142-3" />
    </linearGradient>
  </defs>
  <sodipodi:namedview
     id="base"
     pagecolor="#ffffff"
     bordercolor="#666666"
     borderopacity="1.0"
     inkscape:pageopacity="0.0"
     inkscape:pageshadow="2"
     inkscape:zoom="1"
     inkscape:cx="148.49877"
     inkscape:cy="56.485281"
     inkscape:document-units="px"
     inkscape:current-layer="layer1"
     showgrid="false"
     units="px" />
  <metadata
     id="metadata7">
    <rdf:RDF>
      <cc:Work
         rdf:about="">
        <dc:format>image/svg+xml</dc:format>
        <dc:type
           rdf:resource="http://purl.org/dc/dcmitype/StillImage" />
        <dc:title></dc:title>
      </cc:Work>
    </rdf:RDF>
  </metadata>
  <g
     inkscape:label="Layer 1"
     inkscape:groupmode="layer"
     id="layer1"
     transform="translate(0,-812.36216)">
    <path
       style="opacity:1;fill:url(#radialGradient4146);fill-opacity:1;stroke:#004108;stroke-width:2;stroke-linecap:round;stroke-linejoin:round;stroke-miterlimit:4;stroke-dasharray:none;stroke-opacity:1"
       d="m 107.56496,1021.0066 c 0.17002,0.2525 0.26277,0.5563 0.26277,0.8607 0,0.3043 -0.0928,0.6081 -0.26277,0.8606 -0.23344,0.3467 -0.59449,0.5818 -0.90595,0.8605 -0.58735,0.5255 -1.00213,1.211 -1.45963,1.8528 -0.4575,0.6418 -0.99145,1.2687 -1.71123,1.5898 -0.56829,0.2535 -1.20453,0.295 -1.81191,0.4303 -1.63738,0.3648 -3.030188,1.3997 -4.529793,2.1515 -0.72341,0.3627 -1.480307,0.6625 -2.264891,0.8607 -0.926624,0.2341 -1.917922,0.3376 -2.717877,0.8606 -0.225813,0.1476 -0.430212,0.3253 -0.647181,0.4857 -0.21697,0.1603 -0.45112,0.3053 -0.711758,0.375 -0.293109,0.078 -0.602752,0.057 -0.904606,0.027 -0.301854,-0.031 -0.607023,-0.07 -0.90731,-0.027 -0.471178,0.068 -0.89272,0.334 -1.358932,0.4303 -0.59302,0.1225 -1.207541,-0.038 -1.811916,0 -0.384844,0.024 -0.760228,0.1278 -1.143103,0.1735 -0.191437,0.023 -0.385589,0.031 -0.576908,0.01 -0.191319,-0.024 -0.380203,-0.08 -0.544882,-0.1807 -0.178464,-0.1086 -0.322819,-0.2643 -0.461413,-0.4206 -0.138594,-0.1564 -0.2756,-0.3171 -0.444545,-0.44 -0.27095,-0.1971 -0.604652,-0.2838 -0.905958,-0.4304 -0.427899,-0.2082 -0.785066,-0.5346 -1.13473,-0.8573 -0.349664,-0.3228 -0.704653,-0.651 -1.130164,-0.864 -0.299417,-0.1499 -0.629947,-0.2407 -0.905957,-0.4303 -0.171859,-0.118 -0.317622,-0.2695 -0.462535,-0.4195 -0.144913,-0.1499 -0.292265,-0.2974 -0.443422,-0.441 l -0.905957,-0.8607 c -0.419698,-0.3987 -0.855705,-0.78 -1.274735,-1.1794 -0.419029,-0.3995 -0.825579,-0.8475 -0.99016,-1.4025 -0.164327,-0.5542 -0.06274,-1.1467 0,-1.7213 0.238082,-2.1806 -0.112832,-4.4095 -0.905957,-6.4546 -0.662408,-1.7081 -1.639594,-3.34 -1.811917,-5.1639 -0.06851,-0.7251 -0.0059,-1.4556 -0.01493,-2.1839 -0.0091,-0.7283 -0.09621,-1.4761 -0.438047,-2.1192 -0.153387,-0.2886 -0.35426,-0.5488 -0.530595,-0.8239 -0.176335,-0.2752 -0.330905,-0.5735 -0.375362,-0.8973 -0.03931,-0.2863 0.0094,-0.5763 0.04353,-0.8632 0.03414,-0.287 0.05254,-0.5855 -0.04353,-0.8581 -0.10803,-0.3065 -0.35126,-0.552 -0.45298,-0.8606 -0.09023,-0.2738 -0.06468,-0.5706 -0.03997,-0.8578 0.02471,-0.2872 0.03997,-0.5752 0.03997,-0.8635 l 0,-2.15155 0,-0.86064 c 0,-0.0745 0.01089,-0.1484 0.02813,-0.22084 0.0086,-0.0362 0.01689,-0.0731 0.0154,-0.11028 -7.49e-4,-0.0186 -0.0041,-0.0372 -0.01109,-0.0545 -0.007,-0.0172 -0.01792,-0.0331 -0.03244,-0.0447 -0.02118,-0.017 -0.04955,-0.0242 -0.07649,-0.0209 -0.02694,0.003 -0.05226,0.0168 -0.07123,0.0362 -0.01897,0.0194 -0.03168,0.0446 -0.03765,0.071 -0.006,0.0265 -0.0053,0.0543 2.35e-4,0.0808 0.01116,0.0531 0.04142,0.1004 0.07616,0.14212 0.03475,0.0417 0.07444,0.0791 0.108971,0.12101 0.08072,0.0979 0.131534,0.21929 0.149643,0.34488 0.01811,0.12559 0.004,0.25511 -0.03591,0.37555 -0.07983,0.2409 -0.260197,0.43992 -0.473367,0.57762 -0.213169,0.13769 -0.458159,0.21874 -0.705341,0.27621 -0.247182,0.0575 -0.499033,0.0927 -0.746935,0.147 -0.46451,0.10172 -0.911498,0.26932 -1.358937,0.43032 -0.447294,0.1609 -0.897544,0.3159 -1.358937,0.4303 -1.182067,0.293 -2.41154,0.3141 -3.623829,0.4303 -3.506243,0.3362 -6.904798,1.4752 -10.418514,1.7213 -2.561209,0.1794 -5.133158,0 -7.70064,0 l -11.777449,0 -4.529788,0 c -1.019761,0 -2.03413,0.1147 -3.045973,0.2416 -0.505921,0.063 -1.020531,0.1083 -1.524277,0.029 -0.251873,-0.039 -0.499919,-0.1108 -0.7275,-0.2257 -0.22758,-0.1149 -0.434512,-0.2743 -0.590973,-0.4756 -0.199427,-0.2566 -0.309712,-0.569 -0.45298,-0.8607 -0.142966,-0.291 -0.320703,-0.5645 -0.452978,-0.8606 -0.134194,-0.3004 -0.219884,-0.6201 -0.344858,-0.9244 -0.124974,-0.30431 -0.296696,-0.60111 -0.5611,-0.79684 -0.08547,-0.0633 -0.179224,-0.11491 -0.263032,-0.18037 -0.08381,-0.0654 -0.159224,-0.14816 -0.189947,-0.24996 -0.02083,-0.069 -0.01992,-0.1427 -0.01411,-0.21458 0.0058,-0.0719 0.01634,-0.14365 0.01411,-0.21573 -0.0051,-0.16458 -0.07651,-0.32047 -0.165739,-0.45886 -0.08923,-0.13838 -0.197065,-0.26399 -0.287241,-0.40176 -0.181239,-0.2769 -0.287516,-0.59874 -0.334994,-0.92626 -0.04748,-0.32752 -0.03768,-0.66128 4.43e-4,-0.99002 0.07625,-0.65748 0.264659,-1.29838 0.334551,-1.95656 0.108067,-1.01768 -0.06977,-2.04107 -0.127386,-3.06285 -0.0288,-0.51089 -0.0273,-1.02597 0.05464,-1.53107 0.08194,-0.5051 0.246675,-1.00155 0.525725,-1.43047 0.229449,-0.35268 0.537322,-0.65782 0.905957,-0.86064 0.293128,-0.16128 0.620085,-0.2565 0.905958,-0.43031 0.357724,-0.2175 0.631908,-0.54571 0.901145,-0.86631 0.269237,-0.3206 0.54797,-0.64603 0.910772,-0.85495 0.290014,-0.167 0.622459,-0.25248 0.905957,-0.43032 0.265626,-0.16663 0.475901,-0.4064 0.681364,-0.64327 0.205463,-0.23687 0.414031,-0.47776 0.677572,-0.64767 0.39339,-0.25362 0.881102,-0.32784 1.348033,-0.29534 0.466931,0.0325 0.920511,0.16425 1.36984,0.29534 0.07489,0.0219 0.150486,0.0438 0.228311,0.0493 0.07783,0.005 0.159124,-0.007 0.224667,-0.0493 0.05655,-0.0365 0.09847,-0.094 0.119312,-0.15806 0.02084,-0.064 0.02106,-0.13403 0.0041,-0.19917 -0.01694,-0.0652 -0.05063,-0.12543 -0.0945,-0.17648 -0.04387,-0.0511 -0.09774,-0.0931 -0.156185,-0.12645 -0.116888,-0.0668 -0.250175,-0.0989 -0.382709,-0.1225 -0.132535,-0.0236 -0.266928,-0.0397 -0.395997,-0.078 -0.305026,-0.0904 -0.562154,-0.29976 -0.774168,-0.53697 -0.212014,-0.23721 -0.386513,-0.50514 -0.584767,-0.75397 -0.777711,-0.9761 -1.890514,-1.62362 -3.0154,-2.1642 -1.124886,-0.54059 -2.297488,-1.00213 -3.326304,-1.70863 -1.375826,-0.94479 -2.426732,-2.27956 -3.62383,-3.44252 -1.046263,-1.01643 -2.214527,-1.91073 -3.170852,-3.0122 -1.835703,-2.11431 -2.769322,-4.83933 -4.0768094,-7.31534 -0.6425789,-1.21686 -1.3837587,-2.38552 -2.2648936,-3.44252 -0.5964237,-0.71547 -1.2570413,-1.38019 -1.7887052,-2.14501 -0.5316639,-0.76482 -0.9352155,-1.65701 -0.929168,-2.58845 0.0028,-0.43167 0.092752,-0.86934 0,-1.29094 -0.049143,-0.22338 -0.1477964,-0.43219 -0.241086,-0.64102 -0.09329,-0.20883 -0.182845,-0.42306 -0.2118932,-0.64993 -0.036462,-0.28477 0,-0.57352 0,-0.86062 l 0,-2.5819 c 0,-0.28894 -0.018563,-0.57747 -0.048582,-0.86484 -0.01501,-0.14368 -0.029437,-0.28782 -0.027369,-0.43227 0.00207,-0.14446 0.02144,-0.29035 0.075951,-0.42414 0.065993,-0.16197 0.182149,-0.30084 0.3207076,-0.40757 0.1385585,-0.10673 0.2990401,-0.18252 0.4650543,-0.23756 0.3320285,-0.11007 0.6848999,-0.13867 1.0261538,-0.21551 0.8197276,-0.18457 1.5483648,-0.64021 2.2609988,-1.08538 0.7126341,-0.44516 1.4461268,-0.89517 2.2687897,-1.06619 0.9617382,-0.19993 1.9576142,-0.001 2.9395512,-0.028 0.490969,-0.0133 0.987117,-0.0854 1.436102,-0.28452 0.448985,-0.1991 0.849226,-0.53487 1.060092,-0.97845 0.07028,-0.14785 0.118768,-0.30503 0.182855,-0.45566 0.06409,-0.15063 0.146355,-0.29783 0.270123,-0.40497 0.09083,-0.0786 0.200877,-0.13272 0.315106,-0.16991 0.114229,-0.0372 0.233059,-0.0581 0.351829,-0.0762 0.237539,-0.0361 0.484291,-0.0635 0.692002,-0.18425 0.175361,-0.10195 0.310974,-0.26643 0.390756,-0.45292 0.07978,-0.18649 0.105305,-0.39396 0.08741,-0.59601 -0.03578,-0.4041 -0.238742,-0.77515 -0.478168,-1.10265 -0.311137,-0.42559 -0.694988,-0.8078 -0.905957,-1.29094 -0.14708,-0.33683 -0.202059,-0.70565 -0.248192,-1.07028 -0.04613,-0.36463 -0.0856,-0.73362 -0.204788,-1.08129 -0.187752,-0.54766 -0.56333,-1.01184 -0.978327,-1.41552 -0.414997,-0.40368 -0.8754,-0.75878 -1.286567,-1.16636 -0.88094,-0.87326 -1.513552,-1.96495 -2.050972,-3.0829 -0.53742,-1.11795 -0.990712,-2.27649 -1.5728572,-3.37182 -0.6452831,-1.21413 -1.4432943,-2.34004 -2.2648945,-3.44252 -0.6285849,-0.84348 -1.273994,-1.67789 -1.8119158,-2.58189 -0.4712346,-0.79193 -0.8645344,-1.66129 -0.9059573,-2.58189 -0.012896,-0.28661 0,-0.57372 0,-0.86062 l 0,-3.01221 0,-2.15157 c 0,-0.43049 -0.039323,-0.86225 0,-1.29094 0.041818,-0.45589 0.2008527,-0.89266 0.3814678,-1.31332 0.1806151,-0.42067 0.3847008,-0.83264 0.5244895,-1.26857 0.1404896,-0.43812 0.2141305,-0.89458 0.3304804,-1.33972 0.1163499,-0.44514 0.2809967,-0.88866 0.5754781,-1.24217 0.266769,-0.32024 0.6037732,-0.57357 0.9059573,-0.86063 l 0.9059577,-0.86062 c 0.3022317,-0.28711 0.5692085,-0.61493 0.9059572,-0.86064 0.4387809,-0.32016 0.9990128,-0.4273 1.5418508,-0.44626 0.542837,-0.019 1.086425,0.0413 1.629001,0.0159 1.008306,-0.0471 1.976474,-0.38685 2.934643,-0.70436 0.958169,-0.31752 1.945206,-0.61934 2.954082,-0.58658 0.606712,0.0197 1.226159,0.15931 1.811914,0 0.323729,-0.088 0.615961,-0.26277 0.904306,-0.43426 0.288345,-0.17149 0.582428,-0.34386 0.90761,-0.42637 0.168489,-0.0427 0.343282,-0.0608 0.508079,-0.11606 0.0824,-0.0276 0.162217,-0.0648 0.232012,-0.1166 0.06979,-0.0518 0.129396,-0.11877 0.165868,-0.19766 0.05957,-0.12885 0.05302,-0.28199 0.0024,-0.4146 -0.05063,-0.13262 -0.142019,-0.24644 -0.246307,-0.34273 -0.208576,-0.1926 -0.471721,-0.32296 -0.66205,-0.53361 -0.15513,-0.17169 -0.253327,-0.38824 -0.31759,-0.61053 -0.06426,-0.22229 -0.09668,-0.45228 -0.135388,-0.68041 -0.382401,-2.25362 -1.382673,-4.34599 -2.264895,-6.45472 -1.338847,-3.20017 -2.42704,-6.50897 -3.170851,-9.89723 -0.314316,-1.43179 -0.567076,-2.87697 -0.905958,-4.30315 -0.339197,-1.42751 -0.7658,-2.8426 -0.905958,-4.30314 -0.09601,-1.00047 -0.05605,-2.0087 0,-3.0122 0.0641,-1.14753 0.148874,-2.30289 0,-3.44252 -0.11322,-0.8667 -0.360383,-1.71274 -0.452978,-2.58189 -0.13686,-1.28464 0.06729,-2.58268 0,-3.87283 -0.0375,-0.71897 -0.158361,-1.44925 0,-2.15157 0.189091,-0.8386 0.755298,-1.53951 1.358936,-2.15158 0.584984,-0.59316 1.207915,-1.14747 1.811915,-1.72125 0.603971,-0.57375 1.207942,-1.14751 1.811914,-1.72126 0.603972,-0.57375 1.207944,-1.14751 1.811917,-1.72126 0.603972,-0.57375 1.207944,-1.14751 1.811915,-1.72126 0.546498,-0.70471 1.380062,-1.17982 2.264894,-1.29094 0.749642,-0.0941 1.509364,0 2.264894,0 l 5.435746,0 c 0.533595,0 1.066184,0.0398 1.595903,0.10396 0.264859,0.0321 0.530844,0.063 0.797603,0.0584 0.266759,-0.005 0.537035,-0.0465 0.777345,-0.1624 0.378737,-0.18266 0.647509,-0.52895 0.905957,-0.86063 0.576503,-0.73985 1.172111,-1.46574 1.811916,-2.15158 1.278872,-1.3709 2.725776,-2.57298 4.076811,-3.87282 1.351412,-1.3002 2.611524,-2.70245 4.076808,-3.87283 3.348335,-2.67444 7.556428,-3.98338 11.32447,-6.02441 1.70682,-0.92453 3.325677,-2.00124 4.982767,-3.0122 1.656932,-1.01087 3.353728,-1.95697 4.982766,-3.0122 2.081862,-1.34855 4.067281,-2.88301 6.341704,-3.87283 0.710974,-0.30941 1.450337,-0.55942 2.212878,-0.69996 0.76254,-0.14054 1.541526,-0.16067 2.31691,-0.16067 l 1.811914,0 c 0.226784,0 0.453511,-0.006 0.680071,-0.0163 0.226559,-0.0101 0.455153,-0.0209 0.678866,0.0163 0.331408,0.0551 0.635099,0.21586 0.923891,0.38752 0.288792,0.17166 0.572396,0.35802 0.888025,0.47311 0.362278,0.1321 0.751846,0.16496 1.135731,0.2014 0.383885,0.0364 0.773798,0.0792 1.129162,0.22891 0.495009,0.20854 0.884915,0.608 1.358937,0.86063 0.29675,0.15815 0.621054,0.25594 0.936185,0.37326 0.315131,0.11733 0.628944,0.25896 0.875726,0.48737 0.154321,0.14283 0.277648,0.31524 0.415151,0.47433 0.137503,0.15909 0.29525,0.30902 0.490813,0.3863 0.142411,0.0563 0.298472,0.0711 0.451428,0.0639 0.152956,-0.007 0.303992,-0.0358 0.454524,-0.0639 1.656972,-0.30899 3.323779,-0.56266 4.982768,-0.86063 2.87967,-0.51722 5.733733,-1.16753 8.606603,-1.72126 1.65516,-0.31902 3.3165,-0.60597 4.98277,-0.86062 2.09394,0.35544 4.24776,0.35544 6.3417,0 2.30441,-0.39117 4.51517,-1.2044 6.79468,-1.72126 4.45596,-1.01035 9.09961,-0.87363 13.58937,-1.72126 2.26714,-0.42802 4.49484,-1.10685 6.79467,-1.29094 2.25837,-0.18077 4.5291,0 6.79469,0 l 13.58936,0 5.88874,0 c 1.06379,0 2.12774,-0.0201 3.19131,10e-4 1.06357,0.0214 2.13972,0.0971 3.15038,0.42904 1.12591,0.36983 2.17282,1.09927 2.71788,2.15157 0.28546,0.55111 0.42332,1.16416 0.59036,1.76191 0.16704,0.59776 0.3738,1.20169 0.76857,1.68061 0.30405,0.36887 0.70379,0.64418 1.05858,0.96455 0.17739,0.16018 0.34492,0.33325 0.47977,0.53059 0.13485,0.19734 0.23651,0.42031 0.27357,0.65643 0.0335,0.21317 0.0138,0.43065 -0.004,0.64566 -0.0182,0.21501 -0.0349,0.4331 0.004,0.64529 0.0676,0.36562 0.29545,0.68232 0.55443,0.9491 0.25899,0.26679 0.55439,0.49704 0.80451,0.77216 0.14078,0.15485 0.27097,0.32698 0.45297,0.43031 0.1412,0.0802 0.30628,0.11328 0.4686,0.10938 0.16233,-0.004 0.3223,-0.0436 0.47409,-0.10122 0.30357,-0.11532 0.57502,-0.30101 0.86924,-0.43847 0.70027,-0.32718 1.49446,-0.368 2.26488,-0.43033 0.91562,-0.0741 1.83212,-0.1868 2.71787,-0.43031 1.51924,-0.41767 2.95579,-1.21981 4.52979,-1.29094 0.68324,-0.0309 1.36383,0.0788 2.04491,0.14118 0.68108,0.0624 1.38312,0.0753 2.0319,-0.14118 0.67059,-0.22371 1.23654,-0.67539 1.79498,-1.10885 0.55843,-0.43346 1.14417,-0.8668 1.82885,-1.04272 0.58675,-0.15076 1.20377,-0.10759 1.80818,-0.0665 0.60441,0.0411 1.20985,0.0665 1.81566,0.0665 l 3.17084,0 4.98277,0 c 0.38109,0 0.76147,-0.0282 1.13983,-0.0737 0.18918,-0.0228 0.37915,-0.0446 0.56967,-0.0414 0.19051,0.003 0.38351,0.033 0.5554,0.11519 0.18906,0.0904 0.34331,0.23977 0.48253,0.39643 0.13922,0.15665 0.26774,0.32388 0.42343,0.46419 0.36391,0.32796 0.87257,0.48903 1.35892,0.43032 0.41367,0.73759 1.05408,1.34596 1.81192,1.72126 0.77193,0.38228 1.63848,0.51943 2.4899,0.6502 0.85142,0.13077 1.71802,0.26442 2.49287,0.64075 0.66882,0.32483 1.23959,0.81628 1.81191,1.29093 0.16062,0.13321 0.32331,0.26683 0.45298,0.43032 0.20199,0.25467 0.31302,0.56726 0.45299,0.86063 0.13962,0.29263 0.31014,0.56956 0.45298,0.86063 0.58647,1.19508 0.67934,2.56103 0.90596,3.87283 0.4673,2.70503 1.53316,5.26936 2.71786,7.74566 0.19461,0.40678 0.39398,0.81556 0.50322,1.25306 0.10925,0.43749 0.12269,0.91236 -0.0502,1.32882 -0.0299,0.0721 -0.0657,0.14343 -0.0757,0.22087 -0.005,0.0387 -0.003,0.0787 0.009,0.11585 0.012,0.0371 0.0349,0.0713 0.0669,0.0936 0.0247,0.0172 0.0543,0.027 0.0844,0.0292 0.03,0.002 0.0605,-0.003 0.0885,-0.0139 0.0562,-0.0217 0.10195,-0.0652 0.1356,-0.11519 0.0673,-0.0999 0.0892,-0.22345 0.14447,-0.3305 0.0804,-0.15575 0.22889,-0.26879 0.39148,-0.33426 0.16259,-0.0655 0.3394,-0.0874 0.51446,-0.096 0.15086,-0.007 0.30204,-0.006 0.45298,0 0.60673,0.0224 1.20982,0.10366 1.81595,0.13867 0.60613,0.035 1.22254,0.0226 1.80788,-0.13867 0.4585,-0.1263 0.89161,-0.34214 1.35895,-0.43031 0.74351,-0.14028 1.5101,0.0528 2.26489,0 1.09521,-0.0766 2.09118,-0.6615 3.17085,-0.86063 1.19039,-0.21955 2.41401,0.0396 3.62383,0 0.60791,-0.0199 1.21078,-0.11526 1.81752,-0.1579 0.60673,-0.0426 1.22804,-0.0306 1.80631,0.1579 0.51475,0.16783 0.98081,0.47313 1.35893,0.86063 0.59474,0.60948 0.96186,1.39824 1.35894,2.15157 0.64161,1.21725 1.38915,2.38117 2.26489,3.44251 1.06353,1.28893 2.3207,2.43421 3.17086,3.87284 0.35247,0.59645 0.62924,1.23447 0.96615,1.83984 0.33692,0.60538 0.74382,1.18789 1.29874,1.60268 0.4347,0.32493 0.94467,0.53547 1.39035,0.84519 0.22284,0.15485 0.43041,0.3359 0.58985,0.55549 0.15943,0.21958 0.26914,0.47998 0.2847,0.75089 0.0169,0.29395 -0.0757,0.58157 -0.12564,0.87174 -0.025,0.14508 -0.0394,0.29317 -0.024,0.43959 0.0154,0.14641 0.0619,0.29176 0.14968,0.40992 0.12451,0.16755 0.32108,0.26852 0.45297,0.43032 0.0939,0.11522 0.1512,0.25764 0.17738,0.40397 0.0262,0.14633 0.0223,0.29679 0.003,0.44419 -0.0385,0.29481 -0.13766,0.57887 -0.18043,0.87309 -0.0622,0.42798 -0.004,0.86296 0.0413,1.2931 0.0449,0.43015 0.075,0.87225 -0.0413,1.28879 -0.0877,0.31411 -0.25587,0.6008 -0.45297,0.86063 -0.20126,0.26532 -0.43427,0.50669 -0.61785,0.78453 -0.18358,0.27785 -0.31778,0.60505 -0.28812,0.93674 0.0254,0.28382 0.1709,0.54869 0.37175,0.75083 0.20085,0.20214 0.45426,0.34569 0.71871,0.45182 0.52891,0.21227 1.10846,0.28306 1.62742,0.5186 0.67691,0.30723 1.19952,0.86955 1.81191,1.29094 0.99252,0.68297 2.21327,0.99012 3.17086,1.72126 0.66248,0.50582 1.20761,1.14718 1.81191,1.72125 l 2.71787,2.5819 c 0.45567,0.43287 0.93612,0.8386 1.43072,1.22641 0.49459,0.3878 1.00862,0.79207 1.28716,1.35548 0.19461,0.39364 0.25517,0.83887 0.29095,1.27653 0.0358,0.43766 0.0501,0.88074 0.16203,1.30535 0.16212,0.61492 0.52201,1.16105 0.9373,1.64266 0.41529,0.48161 0.88919,0.90888 1.3276,1.36954 1.62514,1.70761 2.73273,3.84198 3.62382,6.02441 0.98342,2.40856 1.72876,4.90911 2.71787,7.31534 0.5745,1.39759 1.23979,2.7968 1.35894,4.30315 0.0679,0.8582 0,1.721 0,2.58188 l 0,1.72126 c 0,0.52085 0.029,1.04165 0.0168,1.56235 -0.006,0.26036 -0.0282,0.5221 -0.0972,0.77324 -0.0689,0.25114 -0.18778,0.49314 -0.3726,0.67661 -0.19137,0.18998 -0.44139,0.30688 -0.6848,0.42291 -0.24342,0.11604 -0.49157,0.23926 -0.67413,0.43773 -0.0715,0.0777 -0.13127,0.16532 -0.20103,0.24451 -0.0698,0.0792 -0.15218,0.15138 -0.25195,0.1858 -0.072,0.0248 -0.14972,0.0288 -0.22577,0.0243 -0.0761,-0.004 -0.15139,-0.017 -0.22722,-0.0243 -0.48474,-0.0469 -0.97726,0.12783 -1.35893,0.43031 -0.16335,0.12945 -0.30778,0.2808 -0.45299,0.43032 -0.43545,0.44836 -0.88345,0.88526 -1.35891,1.29094 -0.41028,0.35006 -0.85015,0.68177 -1.35895,0.86063 -0.15981,0.0562 -0.32497,0.0967 -0.48297,0.15777 -0.15801,0.0611 -0.3114,0.1451 -0.42299,0.27254 -0.10732,0.12256 -0.16945,0.27722 -0.22879,0.42894 -0.0593,0.15172 -0.11959,0.30679 -0.22418,0.4317 -0.067,0.0801 -0.15001,0.14488 -0.23102,0.21074 -0.081,0.0659 -0.16163,0.13436 -0.22196,0.21957 -0.061,0.0862 -0.0995,0.18769 -0.11451,0.29221 -0.015,0.10451 -0.007,0.21192 0.0199,0.31404 0.0538,0.20423 0.18143,0.38386 0.33872,0.52479 0.31457,0.28188 0.7322,0.41134 1.11483,0.59022 1.04953,0.49066 1.86349,1.37512 2.54263,2.31375 0.67914,0.93863 1.25341,1.95343 1.98715,2.85002 0.72552,0.88655 1.60013,1.64892 2.2649,2.58189 0.75817,1.06406 1.2156,2.31138 1.58542,3.56449 0.36982,1.25311 0.66195,2.53196 1.13244,3.75085 0.58446,1.51415 1.43364,2.90915 2.2649,4.30315 1.98618,3.33077 3.94739,6.88202 4.07681,10.75786 0.0239,0.71683 0,1.43435 0,2.15158 l 0,1.72126 c 0,0.28689 0.0112,0.57394 0,0.86062 -0.0526,1.34882 -0.76201,2.59444 -1.64358,3.61664 -0.88158,1.0222 -1.94242,1.87301 -2.8862,2.83808 -1.02371,1.04681 -1.90574,2.22422 -2.71787,3.44251 -1.16779,1.75182 -2.20634,3.6071 -3.62385,5.16378 -0.77225,0.84807 -1.65771,1.6088 -2.2649,2.58189 -0.54789,0.87804 -0.8436,1.88952 -1.33508,2.80033 -0.24574,0.45541 -0.54333,0.88826 -0.92514,1.23755 -0.38182,0.34928 -0.85285,0.61236 -1.36359,0.69558 -0.29904,0.0487 -0.60507,0.0355 -0.90596,0 -0.45755,-0.054 -0.9085,-0.15927 -1.36757,-0.19823 -0.45908,-0.039 -0.93793,-0.007 -1.3503,0.19823 -0.0952,0.0474 -0.18645,0.10408 -0.26556,0.17519 -0.0791,0.0711 -0.14596,0.15716 -0.18742,0.25512 -0.0422,0.0998 -0.0573,0.20938 -0.0589,0.31778 -0.002,0.10839 0.01,0.21653 0.0212,0.32431 0.0233,0.21556 0.0377,0.43205 0.0377,0.64886 l 0,2.15157 c 0,1.00414 0.0379,2.00878 0,3.0122 -0.15445,4.09092 -1.97191,7.96546 -2.2649,12.0488 -0.17462,2.43362 0.19756,4.88348 0,7.31534 -0.20095,2.4736 -0.9853,4.8618 -1.35894,7.3153 -0.3702,2.4309 -0.33684,4.9232 -0.90595,7.3154 -0.59142,2.486 -1.81932,4.7991 -2.26489,7.3153 -0.28112,1.5875 -0.25313,3.2594 -0.90597,4.7335 -0.51128,1.1545 -1.40023,2.0921 -2.26489,3.0122 -0.86419,0.9196 -1.7348,1.867 -2.26489,3.0122 -0.27653,0.5974 -0.45569,1.2399 -0.77927,1.8132 -0.16179,0.2866 -0.36046,0.5555 -0.60966,0.7705 -0.2492,0.2151 -0.55122,0.3748 -0.87598,0.4285 -0.29854,0.049 -0.60348,0.01 -0.90594,0 -1.06992,-0.031 -2.10888,0.3187 -3.1538,0.5507 -1.04491,0.2321 -2.11755,0.3099 -3.18791,0.3099 l -4.98277,0 c -0.38732,0 -0.77269,0.047 -1.15268,0.1219 -0.19,0.038 -0.3822,0.074 -0.57577,0.068 -0.19357,-0.01 -0.39306,-0.059 -0.53644,-0.1894 -0.0783,-0.071 -0.13609,-0.1614 -0.20296,-0.2434 -0.0334,-0.041 -0.0694,-0.08 -0.11078,-0.1131 -0.0413,-0.033 -0.0882,-0.06 -0.13923,-0.074 -0.073,-0.02 -0.1504,-0.014 -0.22596,-0.01 -0.0756,0.01 -0.15127,0.01 -0.22703,0.01 l -1.81191,0 c -0.15101,0 -0.30213,-0.01 -0.45298,0 -0.40609,0.018 -0.79501,0.167 -1.16192,0.342 -0.36691,0.175 -0.72139,0.3785 -1.10297,0.5187 -1.0043,0.3689 -2.11259,0.2729 -3.17085,0.4303 -1.74187,0.2591 -3.30214,1.1953 -4.98278,1.7213 -2.04045,0.6386 -4.213,0.6607 -6.3417,0.8605 -2.44548,0.2295 -4.86373,0.6995 -7.24766,1.291 -2.58691,0.6419 -5.13574,1.4267 -7.70063,2.1516 -2.56478,0.7248 -5.14654,1.3899 -7.70065,2.1515 -2.55511,0.7619 -5.08755,1.6217 -7.70064,2.1516 -4.45609,0.9037 -9.04255,0.8606 -13.58936,0.8606 l -7.70064,0 c -0.30624,0 -0.61164,0.027 -0.91468,0.072 -0.15151,0.022 -0.30397,0.043 -0.45706,0.04 -0.15308,0 -0.309,-0.033 -0.44017,-0.1118 -0.17894,-0.1077 -0.29378,-0.2951 -0.45298,-0.4303 -0.18309,-0.1555 -0.4181,-0.2363 -0.65266,-0.2881 -0.23456,-0.052 -0.47473,-0.078 -0.70627,-0.1422 -0.38172,-0.1055 -0.73778,-0.3173 -0.9907,-0.6221 -0.25291,-0.3047 -0.39698,-0.7042 -0.36824,-1.0992 0.0106,-0.1453 0.0436,-0.2881 0.0574,-0.433 0.0138,-0.145 0.007,-0.2969 -0.0574,-0.4275 -0.0471,-0.095 -0.1225,-0.1742 -0.2063,-0.2396 -0.0838,-0.065 -0.17639,-0.1184 -0.26747,-0.1732 -0.0911,-0.055 -0.18158,-0.1121 -0.25939,-0.1845 -0.0778,-0.072 -0.14295,-0.1614 -0.17281,-0.2634 -0.0408,-0.1393 -0.0131,-0.2881 0.0112,-0.4312 0.0121,-0.072 0.0233,-0.1436 0.0245,-0.2161 0.001,-0.073 -0.008,-0.1462 -0.0356,-0.2133 -0.04,-0.098 -0.11611,-0.1762 -0.19862,-0.242 -0.0825,-0.066 -0.17292,-0.1212 -0.25436,-0.1883 -0.20749,-0.1709 -0.34962,-0.4136 -0.42246,-0.6723 -0.0728,-0.2588 -0.0791,-0.5332 -0.0446,-0.7997 0.0692,-0.5332 0.29602,-1.0306 0.46702,-1.5403 0.0473,-0.1411 0.0908,-0.2852 0.10044,-0.4337 0.01,-0.1486 -0.0171,-0.3035 -0.10044,-0.4268 -0.0585,-0.087 -0.14145,-0.1534 -0.22383,-0.2177 -0.0824,-0.064 -0.16661,-0.1289 -0.22913,-0.2127 -0.0701,-0.094 -0.10929,-0.2076 -0.13199,-0.3225 -0.0227,-0.115 -0.0298,-0.2323 -0.0419,-0.3488 -0.0121,-0.1166 -0.0294,-0.2337 -0.0713,-0.3431 -0.0419,-0.1094 -0.11033,-0.2115 -0.20779,-0.2765 -0.0958,-0.064 -0.21332,-0.088 -0.32841,-0.091 -0.1151,0 -0.22964,0.015 -0.34335,0.033 -0.22742,0.036 -0.45693,0.058 -0.68718,0.058 l -1.35893,0 c -0.15119,0 -0.30234,0 -0.45339,-0.011 -0.15104,-0.01 -0.30343,-0.014 -0.45258,0.011 -0.26733,0.044 -0.50645,0.1917 -0.72042,0.358 -0.21397,0.1663 -0.41125,0.355 -0.6385,0.5026 -0.28074,0.1824 -0.59887,0.297 -0.90596,0.4303 -0.92092,0.3999 -1.76354,0.9791 -2.71789,1.2909 -0.87376,0.2854 -1.80365,0.3346 -2.71786,0.4303 -1.67712,0.1756 -3.33239,0.5145 -4.98276,0.8607 -1.79733,0.377 -3.60182,0.7646 -5.43576,0.8606 -1.65901,0.087 -3.32279,-0.066 -4.98276,0 -1.81787,0.072 -3.61579,0.3917 -5.42357,0.5962 -1.80778,0.2046 -3.62861,0.2645 -5.44792,0.2645 l -8.6066,0 -1.8119,0 c -0.15148,0 -0.30287,0.01 -0.45398,0.017 -0.15112,0.011 -0.30559,0.022 -0.45199,-0.017 -0.20475,-0.054 -0.37077,-0.2042 -0.50641,-0.3669 -0.13565,-0.1628 -0.25006,-0.3437 -0.39955,-0.4938 -0.14719,-0.1478 -0.3268,-0.2642 -0.45298,-0.4303 -0.15491,-0.2039 -0.21567,-0.4664 -0.22238,-0.7224 -0.007,-0.256 0.0355,-0.5105 0.0795,-0.7628 0.088,-0.5046 0.14285,-1.0148 0.14285,-1.527 l 0,-0.4303 c 0,-0.1435 0.0146,-0.2875 0,-0.4303 -0.0219,-0.2138 -0.13141,-0.4118 -0.27704,-0.5698 -0.14562,-0.158 -0.32614,-0.2796 -0.51142,-0.3884 -0.18529,-0.1088 -0.37732,-0.2065 -0.55668,-0.3248 -0.17935,-0.1184 -0.34757,-0.2595 -0.46678,-0.4383 -0.0902,-0.1353 -0.14989,-0.2882 -0.21353,-0.4378 -0.0636,-0.1497 -0.13327,-0.2996 -0.23944,-0.4228 -0.13837,-0.1606 -0.32882,-0.2648 -0.50325,-0.3852 -0.0872,-0.06 -0.17166,-0.1256 -0.24322,-0.2037 -0.0716,-0.078 -0.13013,-0.17 -0.15949,-0.2718 -0.04,-0.1387 -0.024,-0.2867 -0.006,-0.4299 0.0182,-0.1432 0.0383,-0.2899 0.006,-0.4306 -0.0368,-0.1593 -0.13701,-0.2952 -0.233,-0.4275 -0.096,-0.1323 -0.19259,-0.272 -0.21998,-0.4332 -0.0241,-0.1417 0.008,-0.2868 0,-0.4303 -0.0132,-0.2432 -0.14091,-0.469 -0.30886,-0.6453 -0.16795,-0.1764 -0.3749,-0.31 -0.58058,-0.4405 -0.20568,-0.1304 -0.41414,-0.2609 -0.58686,-0.4327 -0.17272,-0.1717 -0.30914,-0.391 -0.33562,-0.6331 -0.0156,-0.1427 0.007,-0.2869 0,-0.4303 -0.01,-0.1976 -0.077,-0.3888 -0.16785,-0.5646 -0.0908,-0.1758 -0.20521,-0.3381 -0.31693,-0.5014 -0.11172,-0.1633 -0.22166,-0.3292 -0.30232,-0.5099 -0.0807,-0.1806 -0.1314,-0.3781 -0.11886,-0.5756 0.005,-0.072 0.0176,-0.1438 0.0229,-0.216 0.005,-0.072 0.003,-0.1465 -0.0229,-0.2143 -0.0372,-0.099 -0.11894,-0.1736 -0.20393,-0.2361 -0.085,-0.062 -0.17692,-0.1173 -0.24904,-0.1943 -0.12782,-0.1364 -0.18001,-0.3306 -0.17764,-0.5176 0.002,-0.1869 0.0542,-0.3694 0.11109,-0.5475 0.0569,-0.1781 0.11974,-0.3557 0.14537,-0.5409 0.0256,-0.1852 0.0113,-0.3818 -0.0788,-0.5456 -0.10128,-0.184 -0.28402,-0.3055 -0.45298,-0.4303 -0.50336,-0.3718 -0.93557,-0.8301 -1.35894,-1.291 -0.77456,-0.8431 -1.52978,-1.704 -2.26489,-2.5818 z"
       id="path4136"
       inkscape:path-effect="#path-effect4138"
       inkscape:original-d="m 107.56496,1021.0066 c 0,0.5738 0.19099,1.1769 0,1.7213 -0.13505,0.3848 -0.63255,0.5489 -0.90595,0.8605 -0.95318,1.0867 -1.86399,2.6666 -3.17086,3.4426 -0.52794,0.3134 -1.25509,0.1658 -1.81191,0.4303 -7.901656,3.7532 5.64092,-1.3618 -4.529793,2.1515 -0.764171,0.2641 -1.500731,0.5968 -2.264891,0.8607 -0.897468,0.31 -1.845218,0.4922 -2.717877,0.8606 -0.497491,0.2101 -0.83547,0.7186 -1.358939,0.8607 -0.580732,0.1576 -1.214012,-0.082 -1.811916,0 -0.472678,0.064 -0.890722,0.3413 -1.358932,0.4303 -0.592244,0.1125 -1.207944,0 -1.811916,0 -0.206655,0 -2.176355,0.056 -2.264893,0 -0.355347,-0.2251 -0.5643,-0.6172 -0.905958,-0.8606 -0.270105,-0.1925 -0.635853,-0.238 -0.905958,-0.4304 -2.844755,-2.0268 1.430154,0.3849 -2.264894,-1.7213 -0.289515,-0.1649 -0.635852,-0.2378 -0.905957,-0.4303 -0.341658,-0.2434 -0.603971,-0.5736 -0.905957,-0.8605 -0.301986,-0.2869 -0.603971,-0.5738 -0.905957,-0.8607 -0.708853,-0.6734 -1.941859,-1.7636 -2.264895,-2.5819 -0.212069,-0.5372 0.108042,-1.1567 0,-1.7213 -2.034707,-10.6309 -0.03025,5.1918 -0.905957,-6.4546 -0.314836,-4.1872 -0.378224,-1.078 -1.811917,-5.1639 -3.047504,-8.685 1.187877,1.932 -0.452978,-4.3031 -0.163775,-0.6223 -0.742183,-1.099 -0.905957,-1.7212 -0.146485,-0.5566 0.0993,-1.1554 0,-1.7213 -0.05552,-0.3164 -0.346211,-0.5564 -0.45298,-0.8606 -0.09477,-0.2701 0,-1.3749 0,-1.7213 0,-0.7172 0,-1.43437 0,-2.15155 0,-0.28688 0,-0.57376 0,-0.86064 0,-0.14344 -0.150992,-0.43031 0,-0.43031 0.150994,0 0.08376,0.31097 0,0.43031 -0.0076,0.0107 -1.617398,1.62887 -1.811914,1.72126 -0.427073,0.20283 -0.905957,0.28693 -1.358937,0.43033 -0.45298,0.1434 -0.905957,0.2869 -1.358937,0.4303 -3.561813,1.1279 1.469153,-0.314 -3.623829,0.4303 -8.595839,1.2563 2.666646,0.9444 -10.418514,1.7213 -2.561882,0.1521 -5.133759,0 -7.70064,0 -3.925815,0 -7.851632,0 -11.777449,0 -1.509928,0 -3.019858,0 -4.529788,0 -0.313916,0 -4.719028,0.403 -5.888723,-0.4303 -0.270104,-0.1925 -0.301986,-0.5738 -0.45298,-0.8607 -0.150992,-0.2868 -0.301986,-0.5737 -0.452978,-0.8606 -0.301986,-0.5737 -0.531391,-1.18751 -0.905958,-1.72125 -0.118449,-0.16879 -0.357482,-0.24888 -0.452979,-0.43033 -0.06753,-0.12829 0.04774,-0.29423 0,-0.43031 -0.106771,-0.30427 -0.386765,-0.54611 -0.45298,-0.86062 -0.07599,-0.36103 0,-3.58114 0,-3.87284 0,-1.58039 -0.257506,-4.67452 0.45298,-6.02439 0.190993,-0.36288 0.564299,-0.61722 0.905957,-0.86064 0.270105,-0.19244 0.635854,-0.23787 0.905958,-0.43031 3.142034,-2.23862 -1.330118,0.51736 1.811917,-1.72126 0.270103,-0.19244 0.62503,-0.25241 0.905957,-0.43032 0.679468,-0.43031 0.452978,-0.86062 1.358936,-1.29094 0.169932,-0.0807 2.44818,0 2.717873,0 0.150992,0 0.520504,0.1283 0.452978,0 -0.190992,-0.36287 -0.603972,-0.57375 -0.905958,-0.86063 -0.452978,-0.43031 -0.840853,-0.93301 -1.358935,-1.29094 -0.638855,-0.44138 -5.426012,-3.12723 -6.341704,-3.87283 -1.29703,-1.05612 -2.415887,-2.29501 -3.62383,-3.44252 -1.056951,-1.00406 -2.237087,-1.90339 -3.170852,-3.0122 -2.67472,-3.17612 -2.081342,-3.73472 -4.0768094,-7.31534 -0.6664898,-1.19594 -1.4946035,-2.30425 -2.2648936,-3.44252 -1.2376793,-1.82895 -2.173199,-2.66377 -2.7178732,-4.73346 -0.1098637,-0.41747 0.074467,-0.86649 0,-1.29094 -0.078494,-0.44742 -0.3371723,-0.85091 -0.4529792,-1.29095 -0.073242,-0.27831 0,-0.57375 0,-0.86062 0,-0.86064 0,-1.72126 0,-2.5819 0,-0.10676 -0.02484,-1.68585 0,-1.72125 1.1783369,-1.67907 0.4372772,-0.42535 1.8119157,-0.86064 1.6015219,-0.50712 2.928266,-1.64443 4.5297885,-2.15157 2.7697542,-0.87706 2.7720192,0.15503 5.4357452,-1.29094 0.293145,-0.15913 0.214238,-0.63383 0.452978,-0.86063 1.767858,-1.6794 0.243273,0.0996 1.358937,-0.43031 0.948974,-0.45074 0.342148,-1.39318 0,-2.15158 -0.214454,-0.47535 -0.714802,-0.80669 -0.905957,-1.29094 -0.270336,-0.68482 -0.08431,-1.50949 -0.45298,-2.15157 -0.564706,-0.9835 -1.593629,-1.66079 -2.264894,-2.58188 -1.622806,-2.22678 -2.220648,-4.08499 -3.6238292,-6.45472 -0.6983604,-1.17942 -1.4946037,-2.30424 -2.2648945,-3.44252 -0.5887904,-0.87007 -1.3249776,-1.65674 -1.8119158,-2.58189 -0.4270716,-0.81141 -0.6743445,-1.70179 -0.9059573,-2.58189 -0.073242,-0.27831 0,-0.57375 0,-0.86062 0,-1.00407 0,-2.00814 0,-3.01221 0,-0.71719 0,-1.43437 0,-2.15157 0,-0.43032 -0.074467,-0.86649 0,-1.29094 0.4218898,-2.40468 0.2358324,-0.9904 0.9059573,-2.58189 0.023487,-0.0558 0.8970072,-2.56771 0.9059585,-2.58189 0.2197265,-0.34788 0.6039715,-0.57375 0.9059573,-0.86063 0.3019859,-0.28687 0.603972,-0.57375 0.9059577,-0.86062 0.3019857,-0.28688 0.5397459,-0.6519 0.9059572,-0.86064 1.2635458,-0.72019 1.7268828,-0.29313 3.1708518,-0.43031 5.005333,-0.47548 0.394749,-0.34201 5.888725,-1.29094 0.594229,-0.10264 1.225976,0.13915 1.811914,0 0.6551,-0.15559 1.207945,-0.57376 1.811916,-0.86063 0.301986,-0.14344 0.905959,-0.10958 0.905959,-0.43032 0,-0.51717 -0.66249,-0.82836 -0.905959,-1.29094 -0.213536,-0.4057 -0.275647,-0.86979 -0.452978,-1.29094 -1.535,-3.6455 -1.42048,-2.4439 -2.264895,-6.45472 -3.027108,-14.37825 1.663026,3.87883 -3.170851,-9.89723 -0.486938,-1.38773 -0.603973,-2.86877 -0.905958,-4.30315 -0.301986,-1.43438 -0.726042,-2.85037 -0.905958,-4.30314 -0.123495,-0.99719 0,-2.00814 0,-3.0122 0,-1.14751 0.08606,-2.29793 0,-3.44252 -0.06544,-0.87028 -0.369825,-1.71297 -0.452978,-2.58189 -0.123032,-1.28564 0,-2.58188 0,-3.87283 0,-0.49989 -0.102658,-1.76147 0,-2.15157 0.125073,-0.47526 1.187009,-1.96103 1.358936,-2.15158 0.55587,-0.61606 1.207944,-1.1475 1.811915,-1.72125 0.603971,-0.57376 1.207943,-1.14751 1.811914,-1.72126 0.603973,-0.57375 1.207945,-1.14751 1.811917,-1.72126 0.603972,-0.57375 1.087602,-1.29121 1.811915,-1.72126 3.937634,-0.93515 0.558303,0.33026 2.264894,-1.29094 0.0113,-0.0107 2.094719,0 2.264894,0 1.811915,0 3.623829,0 5.435746,0 0.115428,0 3.09679,0.0281 3.170851,0 0.396527,-0.15068 0.628023,-0.5526 0.905957,-0.86063 0.629203,-0.69734 1.154038,-1.47854 1.811916,-2.15158 1.307709,-1.33783 2.717874,-2.58188 4.076811,-3.87282 1.358934,-1.29095 2.548126,-2.7664 4.076808,-3.87283 1.828979,-1.32379 9.468688,-4.99603 11.32447,-6.02441 1.700527,-0.94234 3.321844,-2.00814 4.982767,-3.0122 1.660921,-1.00406 3.344704,-1.9748 4.982766,-3.0122 3.384764,-2.14361 2.771021,-2.17681 6.341704,-3.87283 2.175221,-1.03319 2.332954,-0.86063 4.529788,-0.86063 0.603972,0 1.207943,0 1.811914,0 0.45298,0 0.923389,-0.11822 1.358937,0 0.649281,0.17623 1.171307,0.65777 1.811916,0.86063 0.730407,0.23129 1.543999,0.17351 2.264893,0.43031 0.50975,0.1816 0.886254,0.60404 1.358937,0.86063 0.586291,0.31827 1.232884,0.53059 1.811911,0.86063 0.366214,0.20873 0.500811,0.73233 0.905964,0.86063 0.286483,0.0907 0.603972,0 0.905952,0 3.898585,0 0.690155,0.22679 4.982768,-0.86063 1.658836,-0.42022 7.049062,-1.43943 8.606602,-1.72126 1.65834,-0.30006 3.32184,-0.57375 4.98277,-0.86062 2.1139,0 4.24761,0.27438 6.3417,0 2.32206,-0.30427 4.49616,-1.28456 6.79468,-1.72126 0.016,-0.003 13.55743,-1.71621 13.58937,-1.72126 2.27831,-0.36072 4.49639,-1.07262 6.79467,-1.29094 2.25366,-0.21409 4.52979,0 6.79469,0 4.52978,0 9.05958,0 13.58936,0 1.96291,0 3.92583,0 5.88874,0 1.70382,0 4.68494,-0.14201 6.34169,0.43031 0.0896,0.031 2.44558,1.63425 2.71788,2.15157 1.99182,3.78434 -1.31693,-0.37044 1.35893,3.44252 0.53629,0.7642 1.37954,1.33008 1.81192,2.15157 0.20258,0.38488 -0.0888,0.86898 0,1.29095 0.16099,0.76468 0.82516,1.21418 1.35894,1.72126 0.15098,0.14343 0.23943,0.43031 0.45297,0.43031 0.62256,0 1.20418,-0.30202 1.81193,-0.43031 0.75157,-0.15867 1.50739,-0.29949 2.26488,-0.43033 0.90364,-0.15607 1.82684,-0.2187 2.71787,-0.43031 1.52935,-0.3632 2.97266,-1.05738 4.52979,-1.29094 1.34231,-0.20134 2.7731,0.36426 4.07681,0 1.36658,-0.38183 2.26421,-1.74795 3.62383,-2.15157 1.15296,-0.34227 2.41589,0 3.62384,0 1.05694,0 2.11389,0 3.17084,0 1.66093,0 3.32184,0 4.98277,0 0.34862,0 2.1151,-0.0711 2.2649,0 0.38198,0.18143 0.53975,0.6519 0.90596,0.86062 0.40943,0.23338 0.90595,0.28688 1.35892,0.43032 0.60397,0.57375 1.10124,1.27117 1.81192,1.72126 2.72673,1.72686 1.90442,0.12121 4.98277,1.29095 0.70097,0.26635 1.22239,0.84291 1.81191,1.29093 0.16676,0.12673 0.33453,0.26154 0.45298,0.43032 0.18729,0.26687 0.30199,0.57376 0.45299,0.86063 0.15097,0.28688 0.34619,0.55636 0.45298,0.86063 0.84901,2.41963 -0.028,1.21124 0.90596,3.87283 2.27727,6.49001 1.41524,1.97089 2.71786,7.74566 0.19244,0.85314 0.3231,1.71816 0.45298,2.58188 0.0214,0.14201 -0.15099,0.43033 0,0.43033 0.21354,0 0.27531,-0.3178 0.45299,-0.43033 0.28092,-0.17791 0.58565,-0.32888 0.90594,-0.43031 0.14325,-0.0454 0.30199,0 0.45298,0 1.20794,0 2.42522,0.14233 3.62383,0 0.4738,-0.0563 0.88515,-0.37405 1.35895,-0.43031 0.74913,-0.089 1.52019,0.1179 2.26489,0 1.08428,-0.17168 2.08265,-0.71295 3.17085,-0.86063 1.1958,-0.16228 2.41587,0 3.62383,0 0.56869,0 3.3723,-0.0797 3.62383,0 0.51647,0.16354 1.00464,0.46796 1.35893,0.86063 0.57298,0.63503 0.89752,1.43926 1.35894,2.15157 0.74656,1.15246 1.44343,2.337 2.26489,3.44251 0.99281,1.33611 2.17805,2.53673 3.17086,3.87284 0.82146,1.10552 1.39638,2.36995 2.26489,3.44252 0.65098,0.80392 1.74639,1.26494 2.2649,2.15157 0.29331,0.50155 -0.11844,1.15864 0,1.72125 0.0419,0.19891 0.35748,0.24888 0.45297,0.43032 0.0508,0.0964 0,1.619 0,1.72125 0,0.51449 0.0986,2.30104 0,2.58189 -0.10675,0.30428 -0.26569,0.59376 -0.45297,0.86063 -0.31949,0.45524 -1.52774,0.9337 -0.90597,1.72127 0.008,0.0111 2.59938,1.64084 2.71788,1.72125 0.61434,0.41686 1.17499,0.9059 1.81191,1.29094 1.02703,0.62086 2.18634,1.04108 3.17086,1.72126 0.69077,0.47725 1.20795,1.1475 1.81191,1.72125 0.90596,0.86064 1.81191,1.72126 2.71787,2.5819 0.90597,0.86063 2.07232,1.53057 2.71788,2.58189 0.46277,0.75364 0.0681,1.78969 0.45298,2.58188 0.5443,1.12034 1.58122,1.96305 2.2649,3.0122 1.2815,1.96656 2.45796,3.99395 3.62382,6.02441 2.64216,4.60159 1.30487,2.21459 2.71787,7.31534 0.4012,1.44823 1.06844,2.83126 1.35894,4.30315 0.16696,0.84588 0,1.72126 0,2.58188 0,0.57375 0,1.14751 0,1.72126 0,1.06821 0.2587,2.11077 -0.45298,3.0122 -2.10113,2.66135 -0.0941,0.25985 -1.35893,0.86064 -0.19099,0.0907 -0.26199,0.33959 -0.45298,0.43031 -0.13505,0.0642 -0.3065,-0.0348 -0.45299,0 -0.46322,0.11001 -0.93184,0.22746 -1.35893,0.43031 -0.191,0.0907 -0.30198,0.28688 -0.45299,0.43032 -0.45298,0.43031 -0.84644,0.92581 -1.35891,1.29094 -0.43555,0.3103 -0.89212,0.59454 -1.35895,0.86063 -0.2895,0.16502 -0.66722,0.20352 -0.90596,0.43031 -0.23874,0.22679 -0.26569,0.59376 -0.45297,0.86064 -0.11845,0.16878 -0.53229,0.24196 -0.45298,0.43031 0.28039,0.6659 0.89542,1.15513 1.35894,1.72126 2.09877,2.5634 2.0218,2.34811 4.52978,5.16377 0.76175,0.85522 1.65815,1.62125 2.2649,2.58189 3.212,5.08548 0.70238,2.39197 2.71786,7.31534 0.61187,1.49465 1.56635,2.84321 2.2649,4.30315 1.54811,3.23543 3.26402,7.28332 4.07681,10.75786 0.16378,0.70011 0,1.43439 0,2.15158 0,0.57375 0,1.1475 0,1.72126 0,0.28687 0.11215,0.59427 0,0.86062 -1.6933,4.02147 -1.69698,3.09088 -4.52978,6.45472 -0.94325,1.12006 -1.84026,2.27531 -2.71787,3.44251 -1.26575,1.68337 -2.31725,3.50882 -3.62385,5.16378 -0.70757,0.89623 -1.55731,1.68566 -2.2649,2.58189 -0.79214,1.00335 -2.51343,3.85443 -3.62381,4.73346 -0.232,0.18365 -0.60398,0 -0.90596,0 -0.43815,0 -2.58353,-0.0638 -2.71787,0 -0.19099,0.0907 -0.40119,0.23351 -0.45298,0.43031 -0.10987,0.41747 0,0.86063 0,1.29095 0,0.71719 0,1.43437 0,2.15157 0,1.00406 0.16483,2.02042 0,3.0122 -1.66724,10.03081 -1.49515,-0.0163 -2.2649,12.0488 -0.15528,2.43398 0.2256,4.88634 0,7.31535 -0.2291,2.4665 -0.9797,4.8655 -1.35894,7.3153 -0.37604,2.4292 -0.38476,4.9106 -0.90595,7.3154 -0.53955,2.4895 -1.61597,4.8495 -2.26489,7.3153 -0.40944,1.5558 -0.29411,3.2388 -0.90597,4.7335 -0.47077,1.15 -1.50993,2.0081 -2.26489,3.0122 -0.75496,1.0041 -1.50994,2.0082 -2.26489,3.0122 -0.75497,1.0041 -1.34645,2.1397 -2.26491,3.0122 -0.21352,0.2029 -0.61115,-0.062 -0.90594,0 -5.38347,1.1365 -0.92132,0.8606 -6.34171,0.8606 -1.66091,0 -3.32184,0 -4.98277,0 -0.44742,0 -2.0863,0.085 -2.26489,0 -0.19098,-0.091 -0.26199,-0.3396 -0.45297,-0.4303 -0.13507,-0.064 -0.30199,0 -0.45299,0 -0.60398,0 -1.20794,0 -1.81191,0 -0.15099,0 -0.30973,-0.045 -0.45298,0 -0.7714,0.2443 -1.47606,0.6733 -2.26489,0.8607 -1.0358,0.2459 -2.14213,0.1588 -3.17085,0.4303 -1.70287,0.4493 -3.26424,1.3294 -4.98278,1.7213 -2.07638,0.4733 -4.2278,0.5737 -6.3417,0.8605 -2.41589,0.4303 -4.85885,0.7409 -7.24766,1.291 -2.60028,0.5988 -5.13375,1.4344 -7.70063,2.1516 -2.56689,0.7172 -5.13377,1.4344 -7.70065,2.1515 -2.56687,0.7172 -5.08001,1.6391 -7.70064,2.1516 -5.51434,1.0786 -8.25703,0.8606 -13.58936,0.8606 -2.56688,0 -5.13377,0 -7.70064,0 -0.60397,0 -1.21967,0.1126 -1.81191,0 -0.2094,-0.04 -0.26199,-0.3396 -0.45298,-0.4303 -0.42708,-0.2028 -0.93187,-0.2275 -1.35893,-0.4303 -0.45188,-0.2146 -1.25068,-1.3098 -1.35894,-1.7213 -0.0732,-0.2783 0.13504,-0.6039 0,-0.8605 -0.191,-0.3629 -0.66907,-0.5231 -0.90597,-0.8607 -0.16751,-0.2387 0.13506,-0.604 0,-0.8606 -0.0955,-0.1815 -0.38544,-0.2379 -0.45298,-0.4303 -0.0652,-0.1856 0,-2.844 0,-3.0123 0,-0.2868 0.0955,-0.5884 0,-0.8605 -0.0676,-0.1925 -0.38545,-0.2379 -0.45296,-0.4304 -0.25929,-0.7389 0.39686,-0.8872 -0.45299,-1.2909 -0.13786,-0.065 -1.15494,0 -1.35894,0 -0.45299,0 -0.90596,0 -1.35893,0 -0.30199,0 -0.62557,-0.1065 -0.90597,0 -0.50547,0.1921 -0.89209,0.5946 -1.35892,0.8606 -0.28952,0.165 -0.61645,0.2653 -0.90596,0.4303 -1.43725,0.8192 -1.12223,0.9541 -2.71789,1.2909 -0.89658,0.1894 -1.81338,0.2787 -2.71786,0.4303 -1.66247,0.2788 -3.31958,0.5859 -4.98276,0.8607 -1.80975,0.299 -3.60575,0.7094 -5.43576,0.8606 -1.65467,0.1367 -3.32808,-0.1367 -4.98276,0 -13.84411,1.1437 2.93217,0.8607 -10.87149,0.8607 -2.86887,0 -5.73773,0 -8.6066,0 -0.60397,0 -1.20794,0 -1.8119,0 -0.30201,0 -0.63587,0.1282 -0.90597,0 -0.382,-0.1814 -0.60397,-0.5738 -0.90596,-0.8607 -0.15099,-0.1434 -0.38546,-0.2379 -0.45298,-0.4303 -0.0766,-0.2181 0,-2.6604 0,-3.0122 0,-0.1434 0,-0.2868 0,-0.4303 0,-0.1434 0.0837,-0.3109 0,-0.4303 -0.44437,-0.6332 -1.36755,-1.088 -1.81192,-1.7213 -0.18728,-0.2669 -0.2504,-0.604 -0.45297,-0.8606 -0.25625,-0.3246 -0.66907,-0.5231 -0.90596,-0.8607 -0.16751,-0.2386 0.0955,-0.5884 0,-0.8605 -0.10674,-0.3043 -0.34622,-0.5564 -0.45298,-0.8607 -0.0478,-0.1361 0.0478,-0.2942 0,-0.4303 -0.42449,-1.2097 -1.11169,-1.1538 -1.81192,-2.1516 -0.0837,-0.1194 0.0478,-0.2942 0,-0.4303 -0.93722,-2.671 0.0367,1.4302 -0.90596,-2.1515 -0.0367,-0.1392 0.0676,-0.3021 0,-0.4303 -0.0955,-0.1815 -0.38545,-0.238 -0.45297,-0.4304 -0.10268,-0.2928 0.12009,-1.9234 0,-2.1516 -0.0955,-0.1814 -0.30199,-0.2869 -0.45298,-0.4303 -0.45298,-0.4303 -0.90596,-0.8606 -1.35894,-1.291 -0.94174,-0.8946 -1.36002,-1.4357 -2.26489,-2.5818 z"
       inkscape:connector-curvature="0" />
    <g
       transform="matrix(1,0,0,-1,118.00034,2073.7931)"
       id="g5034">
      <path
         sodipodi:nodetypes="cccccccccccccccccccc"
         inkscape:connector-curvature="0"
         id="rect4136"
         d="m 5.5114236,1018.8438 53.3145864,0 0.125,24.0431 0.894401,4.7266 2.519401,3.7265 -9.355599,-3.0234 -4.1056,2.9765 -6.105599,-2.6484 -4.605599,2.4766 -2.855599,-3.0235 -3.980599,3.8516 -5.605599,-4.0234 -2.8556,3.2265 -4.730599,-2.0234 -6.230599,1.9765 -4.105599,-1.8984 -6.730599,2.2266 1.5194007,-6.0235 2.5194009,-5.3984 z"
         style="opacity:1;fill:url(#linearGradient4144);fill-opacity:1;stroke:#561a00;stroke-width:2;stroke-linecap:round;stroke-linejoin:round;stroke-miterlimit:4;stroke-dasharray:none;stroke-opacity:1" />
      <path
         inkscape:connector-curvature="0"
         id="path4270"
         d="m 18.5,1036.2372 -2.125,-8.375 -0.75,-6.125"
         style="opacity:1;fill:none;fill-opacity:1;stroke:#561a00;stroke-width:1;stroke-linecap:round;stroke-linejoin:round;stroke-miterlimit:4;stroke-dasharray:none;stroke-opacity:1" />
      <path
         inkscape:connector-curvature="0"
         id="path4272"
         d="m 32.375,1040.2372 1.5,-8.125 2.125,-3.875 1.25,-5.625"
         style="opacity:1;fill:none;fill-opacity:1;stroke:#561a00;stroke-width:1;stroke-linecap:round;stroke-linejoin:round;stroke-miterlimit:4;stroke-dasharray:none;stroke-opacity:1" />
      <path
         inkscape:connector-curvature="0"
         id="path4274"
         d="m 45.75,1023.1122 -1.375,5.625"
         style="opacity:1;fill:none;fill-opacity:1;stroke:#561a00;stroke-width:1;stroke-linecap:round;stroke-linejoin:round;stroke-miterlimit:4;stroke-dasharray:none;stroke-opacity:1" />
      <path
         sodipodi:nodetypes="cc"
         inkscape:connector-curvature="0"
         id="path4276"
         d="m 53.75,1020.8622 -0.375,13.625"
         style="opacity:1;fill:none;fill-opacity:1;stroke:#561a00;stroke-width:1;stroke-linecap:round;stroke-linejoin:round;stroke-miterlimit:4;stroke-dasharray:none;stroke-opacity:1" />
    </g>
  </g>
</svg>
