<?xml version="1.0" encoding="UTF-8" standalone="no"?>
<!-- Created with Inkscape (http://www.inkscape.org/) -->

<svg
   xmlns:dc="http://purl.org/dc/elements/1.1/"
   xmlns:cc="http://creativecommons.org/ns#"
   xmlns:rdf="http://www.w3.org/1999/02/22-rdf-syntax-ns#"
   xmlns:svg="http://www.w3.org/2000/svg"
   xmlns="http://www.w3.org/2000/svg"
   xmlns:xlink="http://www.w3.org/1999/xlink"
   xmlns:sodipodi="http://sodipodi.sourceforge.net/DTD/sodipodi-0.dtd"
   xmlns:inkscape="http://www.inkscape.org/namespaces/inkscape"
   width="600"
   height="480"
   viewBox="0 0 600 480"
   id="svg2"
   version="1.1"
   inkscape:version="0.91 r"
   sodipodi:docname="graphic10.svg"
   inkscape:export-filename="/home/victor/aleva/super-bombinhas/data/img/sprite/graphic10.png"
   inkscape:export-xdpi="90"
   inkscape:export-ydpi="90">
  <defs
     id="defs4">
    <linearGradient
       inkscape:collect="always"
       id="linearGradient4140">
      <stop
         style="stop-color:#13ef09;stop-opacity:1"
         offset="0"
         id="stop4142" />
      <stop
         style="stop-color:#11810c;stop-opacity:1"
         offset="1"
         id="stop4144" />
    </linearGradient>
    <inkscape:path-effect
       effect="spiro"
       id="path-effect4138"
       is_visible="true" />
    <radialGradient
       inkscape:collect="always"
       xlink:href="#linearGradient4140"
       id="radialGradient4146"
       cx="157.50679"
       cy="930.05621"
       fx="157.50679"
       fy="930.05621"
       r="137.41455"
       gradientTransform="matrix(2.1430375,0,0,1.7097978,-40.836711,-780.03988)"
       gradientUnits="userSpaceOnUse" />
    <linearGradient
       inkscape:collect="always"
       xlink:href="#linearGradient4138"
       id="linearGradient4144"
       x1="5.5114236"
       y1="1036.6154"
       x2="58.826012"
       y2="1036.6154"
       gradientUnits="userSpaceOnUse" />
    <linearGradient
       inkscape:collect="always"
       id="linearGradient4138">
      <stop
         style="stop-color:#7b2500;stop-opacity:1"
         offset="0"
         id="stop4140" />
      <stop
         id="stop4146"
         offset="0.49367088"
         style="stop-color:#bc4405;stop-opacity:1" />
      <stop
         style="stop-color:#7b2500;stop-opacity:1"
         offset="1"
         id="stop4142-3" />
    </linearGradient>
  </defs>
  <sodipodi:namedview
     id="base"
     pagecolor="#ffffff"
     bordercolor="#666666"
     borderopacity="1.0"
     inkscape:pageopacity="0.0"
     inkscape:pageshadow="2"
     inkscape:zoom="1"
     inkscape:cx="302.74169"
     inkscape:cy="222.23654"
     inkscape:document-units="px"
     inkscape:current-layer="layer1"
     showgrid="false"
     units="px" />
  <metadata
     id="metadata7">
    <rdf:RDF>
      <cc:Work
         rdf:about="">
        <dc:format>image/svg+xml</dc:format>
        <dc:type
           rdf:resource="http://purl.org/dc/dcmitype/StillImage" />
        <dc:title />
      </cc:Work>
    </rdf:RDF>
  </metadata>
  <g
     inkscape:label="Layer 1"
     inkscape:groupmode="layer"
     id="layer1"
     transform="translate(0,-572.36216)">
    <path
       style="opacity:1;fill:url(#radialGradient4146);fill-opacity:1;stroke:#004108;stroke-width:2;stroke-linecap:round;stroke-linejoin:round;stroke-miterlimit:4;stroke-dasharray:none;stroke-opacity:1"
       d="m 211.35626,987.16543 c 0.33943,0.50426 0.52458,1.11088 0.52458,1.71874 0,0.60786 -0.18515,1.21448 -0.52458,1.71874 -0.46587,0.6921 -1.18635,1.16183 -1.80782,1.71843 -1.17206,1.04972 -1.99942,2.4186 -2.91222,3.70018 -0.9128,1.28158 -1.97838,2.53356 -3.41522,3.17477 -1.13399,0.50606 -2.40365,0.58903 -3.61566,0.85931 -3.2677,0.7287 -6.04673,2.7952 -9.03918,4.2966 -1.44349,0.7242 -2.95388,1.3229 -4.51959,1.7188 -1.84913,0.4675 -3.82746,0.6744 -5.42351,1.7187 -0.4506,0.2948 -0.85842,0.6497 -1.29135,0.9699 -0.43293,0.3202 -0.90021,0.6098 -1.42041,0.7489 -0.58488,0.1564 -1.20279,0.1143 -1.80514,0.053 -0.60234,-0.061 -1.21131,-0.1397 -1.81053,-0.053 -0.94028,0.1358 -1.78138,0.6669 -2.71174,0.8593 -1.18333,0.2447 -2.40963,-0.075 -3.61567,0 -0.76795,0.048 -1.51703,0.255 -2.28106,0.3461 -0.38201,0.046 -0.76943,0.062 -1.15121,0.014 -0.38178,-0.048 -0.75869,-0.1606 -1.08732,-0.3606 -0.35626,-0.2169 -0.64442,-0.5275 -0.92098,-0.8397 -0.27657,-0.3122 -0.54986,-0.6332 -0.88685,-0.8789 -0.54036,-0.394 -1.20589,-0.5681 -1.80784,-0.8595 -0.85477,-0.4138 -1.57205,-1.0594 -2.27178,-1.7014 -0.69973,-0.642 -1.40571,-1.2971 -2.24781,-1.7361 -0.59215,-0.3087 -1.24186,-0.5049 -1.80783,-0.8593 -0.70707,-0.4428 -1.24222,-1.1052 -1.80783,-1.7185 -0.56411,-0.6117 -1.17012,-1.1843 -1.80784,-1.7188 -0.8928,-0.74826 -1.84935,-1.4233 -2.68414,-2.23577 -0.83479,-0.81247 -1.55571,-1.78952 -1.83545,-2.92033 -0.27659,-1.11809 -0.10389,-2.29037 0,-3.43747 0.39475,-4.35862 -0.24479,-8.80216 -1.80783,-12.88998 -1.30641,-3.41665 -3.26804,-6.67108 -3.61567,-10.31242 -0.13822,-1.44787 -0.0133,-2.90671 -0.0311,-4.36106 -0.0178,-1.45435 -0.19086,-2.94767 -0.87286,-4.23232 -0.30598,-0.57636 -0.70681,-1.09605 -1.0587,-1.64558 -0.3519,-0.54953 -0.66038,-1.14522 -0.74913,-1.7917 -0.0785,-0.57177 0.0187,-1.15082 0.0868,-1.72391 0.0681,-0.57309 0.10489,-1.16921 -0.0868,-1.71356 -0.21557,-0.61201 -0.70093,-1.10234 -0.90392,-1.71864 -0.1801,-0.5468 -0.1291,-1.13947 -0.0798,-1.71305 0.0493,-0.57358 0.0798,-1.14873 0.0798,-1.72442 l 0,-4.29669 0,-1.71872 c 0,-0.14872 0.0217,-0.29635 0.0562,-0.44103 0.0172,-0.0723 0.0337,-0.14593 0.0307,-0.22023 -0.001,-0.0371 -0.008,-0.0743 -0.0221,-0.10875 -0.0141,-0.0344 -0.0358,-0.0661 -0.0648,-0.0893 -0.0423,-0.0339 -0.099,-0.0483 -0.15276,-0.0417 -0.0538,0.007 -0.10437,0.0335 -0.14224,0.0723 -0.0379,0.0388 -0.0633,0.089 -0.0752,0.14189 -0.0119,0.0529 -0.0107,0.10833 4.7e-4,0.16138 0.0223,0.10611 0.0827,0.2005 0.1521,0.2838 0.0694,0.0833 0.14865,0.15801 0.21761,0.24167 0.16111,0.19543 0.26255,0.43771 0.29873,0.68839 0.0362,0.25068 0.008,0.5092 -0.0715,0.74964 -0.15921,0.48088 -0.51907,0.87827 -0.94444,1.15332 -0.42538,0.27504 -0.91431,0.43705 -1.40764,0.552 -0.49334,0.11495 -0.99601,0.18552 -1.4908,0.29404 -0.92692,0.20329 -1.81889,0.53796 -2.71175,0.85938 -0.89257,0.32132 -1.79103,0.63088 -2.71176,0.85932 -2.35872,0.58523 -4.8122,0.62721 -7.23133,0.85932 -6.9968,0.67133 -13.77838,2.94606 -20.790108,3.43747 -5.110866,0.35819 -10.243195,0 -15.366597,0 l -23.501853,0 -9.039175,0 c -2.034964,0 -4.059166,0.22895 -6.078338,0.48197 -1.009587,0.12651 -2.036516,0.21606 -3.041739,0.0586 -0.502612,-0.0787 -0.997581,-0.22125 -1.451694,-0.4506 -0.454112,-0.22934 -0.867002,-0.54756 -1.179152,-0.94928 -0.398101,-0.51234 -0.618065,-1.13637 -0.90392,-1.71883 -0.285252,-0.58123 -0.639967,-1.12743 -0.903916,-1.71864 -0.267775,-0.59978 -0.438717,-1.23826 -0.688074,-1.84593 -0.249358,-0.60767 -0.59202,-1.20038 -1.119762,-1.59144 -0.17055,-0.12638 -0.357643,-0.22957 -0.524881,-0.3603 -0.167237,-0.13073 -0.317717,-0.29586 -0.379037,-0.49908 -0.0416,-0.13787 -0.03978,-0.28498 -0.02818,-0.42853 0.0116,-0.14354 0.03263,-0.28687 0.02818,-0.43081 -0.01016,-0.32862 -0.152651,-0.63989 -0.330707,-0.91627 -0.178056,-0.27638 -0.393256,-0.52726 -0.573212,-0.80241 -0.361735,-0.55309 -0.573831,-1.19581 -0.668582,-1.84986 -0.09475,-0.65405 -0.0752,-1.32056 8.97e-4,-1.97704 0.152189,-1.31296 0.528213,-2.59287 0.667685,-3.90724 0.215653,-2.0323 -0.139359,-4.07599 -0.254392,-6.11646 -0.05752,-1.02024 -0.05454,-2.04885 0.109,-3.05753 0.163537,-1.00869 0.492317,-2.00014 1.049311,-2.85685 0.457813,-0.70416 1.072095,-1.31359 1.807834,-1.71871 0.584911,-0.32207 1.237401,-0.51228 1.807836,-0.85934 0.71397,-0.43439 1.261035,-1.08981 1.79822,-1.73003 0.537186,-0.64022 1.093338,-1.29011 1.817453,-1.70737 0.578705,-0.33347 1.242157,-0.50423 1.807834,-0.85935 0.530139,-0.33281 0.949669,-0.81166 1.359608,-1.28469 0.40994,-0.47304 0.826109,-0.95409 1.352143,-1.29335 0.784933,-0.50624 1.75821,-0.65432 2.689974,-0.58942 0.931764,0.0649 1.836867,0.3279 2.733531,0.58942 0.149446,0.0436 0.300295,0.0874 0.455591,0.0983 0.155296,0.0108 0.317518,-0.0139 0.448325,-0.0983 0.112901,-0.0729 0.196611,-0.18769 0.238245,-0.31544 0.04163,-0.12775 0.04211,-0.26753 0.0083,-0.39758 -0.03377,-0.13005 -0.100982,-0.25041 -0.188512,-0.35235 -0.08753,-0.10194 -0.195036,-0.18581 -0.311672,-0.25251 -0.233272,-0.13341 -0.499305,-0.19758 -0.763842,-0.24485 -0.264537,-0.0473 -0.53279,-0.0795 -0.790399,-0.15597 -0.608821,-0.18078 -1.121935,-0.59884 -1.544979,-1.07253 -0.423044,-0.47368 -0.771186,-1.00865 -1.16677,-1.5055 -1.551563,-1.94874 -3.772184,-3.2419 -6.016993,-4.32161 -2.244809,-1.07972 -4.58491,-2.00171 -6.637853,-3.41252 -2.745806,-1.88695 -4.842596,-4.55229 -7.231338,-6.87478 -2.087758,-2.02985 -4.419144,-3.816 -6.327423,-6.01543 -3.663822,-4.22282 -5.526196,-9.66433 -8.135257,-14.60889 -1.282187,-2.42993 -2.761252,-4.76367 -4.5195867,-6.87479 -1.1901976,-1.429 -2.5084962,-2.75683 -3.5694107,-4.28427 -1.0609144,-1.52743 -1.8661189,-3.30886 -1.8540947,-5.16855 0.00557,-0.86206 0.1851001,-1.73607 0,-2.57804 -0.098064,-0.44607 -0.2949253,-0.86309 -0.4810853,-1.28015 -0.18616,-0.41705 -0.3648654,-0.84488 -0.4228329,-1.2979 -0.072769,-0.5687 0,-1.14534 0,-1.71868 l 0,-5.15611 c 0,-0.57701 -0.037077,-1.15321 -0.09704,-1.7271 -0.029981,-0.28694 -0.058797,-0.57479 -0.054667,-0.86327 0.00413,-0.28847 0.042826,-0.57983 0.1517068,-0.847 0.1317269,-0.32323 0.3635106,-0.60038 0.6399921,-0.81343 0.2764816,-0.21304 0.5967048,-0.36439 0.9279787,-0.47433 0.6625477,-0.2199 1.3667321,-0.27732 2.0476999,-0.43096 1.6358327,-0.36908 3.0896816,-1.27895 4.5116796,-2.16782 1.421998,-0.88887 2.8857,-1.78733 4.527496,-2.12891 1.91918,-0.39929 3.906613,-0.003 5.866158,-0.0567 0.979772,-0.0268 1.969865,-0.17078 2.865782,-0.56827 0.895917,-0.3975 1.694498,-1.06775 2.115068,-1.95307 0.140253,-0.29524 0.236953,-0.60912 0.364812,-0.90993 0.127859,-0.30082 0.292025,-0.59478 0.539104,-0.80876 0.181222,-0.15695 0.40081,-0.26496 0.628747,-0.33924 0.227938,-0.0743 0.465065,-0.11612 0.702075,-0.15217 0.474021,-0.0721 0.966418,-0.12695 1.380931,-0.36793 0.350188,-0.20359 0.620988,-0.53206 0.780283,-0.90449 0.159295,-0.37243 0.21023,-0.78673 0.174478,-1.19022 -0.07151,-0.80697 -0.476788,-1.54793 -0.954761,-2.20204 -0.620995,-0.84984 -1.386909,-1.61332 -1.807833,-2.57804 -0.293516,-0.67271 -0.403188,-1.40924 -0.495225,-2.1374 -0.09204,-0.72816 -0.170777,-1.46501 -0.408695,-2.15933 -0.374654,-1.09336 -1.124086,-2.02024 -1.952217,-2.82648 -0.82813,-0.80623 -1.746893,-1.51557 -2.56737,-2.32959 -1.75818,-1.74434 -3.020543,-3.92446 -4.092904,-6.15694 -1.072362,-2.23248 -1.976788,-4.54592 -3.138433,-6.73327 -1.287578,-2.42448 -2.880023,-4.67302 -4.519588,-6.87479 -1.254362,-1.68448 -2.5423208,-3.35087 -3.6156714,-5.15609 -0.9404312,-1.58167 -1.7251777,-3.31781 -1.8078342,-5.15609 -0.025736,-0.57237 0,-1.14573 0,-1.71868 l 0,-6.01545 0,-4.29673 c 0,-0.85969 -0.078484,-1.72193 0,-2.57803 0.083456,-0.91034 0.4008236,-1.78255 0.7612501,-2.62265 0.3604264,-0.8401 0.7676796,-1.66287 1.0465841,-2.53344 0.2803038,-0.87493 0.4271694,-1.78644 0.6593131,-2.67537 0.2321436,-0.88892 0.5607115,-1.77463 1.1485236,-2.48072 0.5323277,-0.63944 1.2048277,-1.14543 1.8078347,-1.7187 l 1.807835,-1.71868 c 0.603101,-0.57336 1.135749,-1.22802 1.807834,-1.71871 0.875428,-0.63915 1.993412,-0.85308 3.076669,-0.89099 1.083257,-0.0379 2.16802,0.0824 3.250753,0.0317 2.012144,-0.0942 3.944071,-0.77261 5.856035,-1.40665 1.911963,-0.63404 3.881604,-1.23675 5.894893,-1.17139 1.210695,0.0393 2.446816,0.31798 3.615667,0 0.646077,-0.17576 1.229247,-0.52459 1.804614,-0.86703 0.575368,-0.34243 1.162144,-0.68667 1.811057,-0.85166 0.336208,-0.0855 0.685014,-0.12159 1.013854,-0.23207 0.16442,-0.0552 0.323688,-0.12943 0.462961,-0.23282 0.139273,-0.10338 0.25821,-0.23704 0.331023,-0.39447 0.118965,-0.25722 0.105984,-0.56296 0.005,-0.82775 -0.100983,-0.26479 -0.283359,-0.4921 -0.491488,-0.68444 -0.416257,-0.38468 -0.941496,-0.64518 -1.321352,-1.06585 -0.309663,-0.34293 -0.505635,-0.77539 -0.633858,-1.2193 -0.128222,-0.44391 -0.192854,-0.90317 -0.270057,-1.35873 -0.76266,-4.50031 -2.758986,-8.67896 -4.51959,-12.89022 -2.671896,-6.39102 -4.843217,-12.99879 -6.32742,-19.76498 -0.627212,-2.85933 -1.1316,-5.74534 -1.807836,-8.59348 -0.676865,-2.85079 -1.528138,-5.67681 -1.807836,-8.59347 -0.191599,-1.99797 -0.111878,-4.01141 0,-6.01543 0.127934,-2.29163 0.297194,-4.5989 0,-6.87478 -0.226014,-1.7308 -0.719419,-3.42038 -0.903915,-5.15609 -0.272699,-2.56552 0.136147,-5.15776 0,-7.73413 -0.07588,-1.43586 -0.319097,-2.89472 0,-4.29673 0.380732,-1.67282 1.517754,-3.06482 2.711751,-4.29675 1.157505,-1.19427 2.400297,-2.30204 3.615669,-3.43737 1.215225,-1.1352 2.410438,-2.2916 3.615668,-3.4374 l 3.615673,-3.43739 c 1.205224,-1.1458 2.410447,-2.29159 3.615669,-3.43739 1.089933,-1.40722 2.753525,-2.35615 4.519587,-2.57804 1.495898,-0.18794 3.01193,0 4.519588,0 l 10.84701,0 c 1.064794,0 2.12758,0.0794 3.184633,0.20754 0.528526,0.0641 1.059301,0.12566 1.591621,0.11665 0.532321,-0.009 1.071665,-0.0928 1.551166,-0.32419 0.75599,-0.36476 1.292211,-1.05635 1.807834,-1.7187 1.150247,-1.47756 2.338843,-2.9271 3.615671,-4.29675 2.551963,-2.73749 5.439338,-5.13826 8.135261,-7.7341 2.696679,-2.59657 5.211025,-5.3968 8.135254,-7.73413 6.680889,-5.34003 15.078878,-7.95486 22.597938,-12.03088 3.40605,-1.84639 6.63638,-3.99652 9.94309,-6.01542 3.3064,-2.01871 6.69243,-3.90815 9.94309,-6.01543 4.15427,-2.69306 8.11585,-5.75728 12.65485,-7.73413 1.41863,-0.61785 2.89397,-1.11712 4.41564,-1.3978 1.52166,-0.28068 3.07619,-0.32089 4.62353,-0.32089 l 3.61567,0 c 0.45255,0 0.90498,-0.0124 1.35708,-0.0326 0.4521,-0.0202 0.90826,-0.0417 1.35467,0.0326 0.66141,0.11003 1.26743,0.43107 1.84368,0.77387 0.57624,0.3428 1.14212,0.71497 1.77199,0.94482 0.72288,0.26379 1.50029,0.32945 2.26635,0.40224 0.76606,0.0728 1.54416,0.15819 2.25324,0.4571 0.98791,0.41644 1.7658,1.21415 2.71175,1.7187 0.59214,0.31584 1.23934,0.51115 1.86821,0.74547 0.62887,0.23433 1.25511,0.51717 1.74745,0.97322 0.30795,0.28525 0.55397,0.62956 0.82832,0.94726 0.27435,0.31771 0.58916,0.61713 0.97953,0.77144 0.28417,0.11233 0.59559,0.14197 0.90082,0.12755 0.30522,-0.0144 0.60662,-0.0715 0.907,-0.12755 3.30651,-0.61682 6.63261,-1.12357 9.9431,-1.7187 5.74638,-1.03304 11.44162,-2.33162 17.17444,-3.43739 3.30285,-0.63707 6.61804,-1.21011 9.9431,-1.71868 4.17839,0.70979 8.47644,0.70979 12.65483,0 4.59856,-0.78116 9.00996,-2.4052 13.55876,-3.43739 8.89164,-2.01764 18.15837,-1.74467 27.11754,-3.43739 4.52407,-0.85476 8.96932,-2.21042 13.55873,-2.57804 4.50654,-0.36099 9.0378,0 13.55878,0 l 27.11752,0 11.75095,0 c 2.12281,0 4.24594,-0.0403 6.36831,0.003 2.12238,0.0428 4.26989,0.19382 6.28651,0.85682 2.24721,0.7388 4.3361,2.19595 5.42352,4.29673 0.56971,1.10062 0.84474,2.32481 1.17801,3.51848 0.33327,1.19367 0.74581,2.39969 1.53373,3.35631 0.60671,0.73661 1.40442,1.28664 2.1124,1.92654 0.35399,0.31994 0.6883,0.66558 0.95738,1.05963 0.26909,0.39404 0.47194,0.83918 0.5459,1.31056 0.0668,0.42571 0.0276,0.86002 -0.009,1.2894 -0.0364,0.42938 -0.0696,0.86492 0.009,1.28866 0.13491,0.72993 0.58958,1.36227 1.1064,1.89509 0.51681,0.53282 1.1063,0.99281 1.60536,1.5423 0.28088,0.30927 0.54063,0.65301 0.9039,0.85934 0.28176,0.16003 0.6112,0.22612 0.93515,0.21832 0.32394,-0.008 0.64319,-0.087 0.94608,-0.20215 0.60578,-0.23029 1.14739,-0.60104 1.73447,-0.87551 1.39727,-0.65326 2.98215,-0.73486 4.51956,-0.85938 1.82715,-0.14799 3.65604,-0.37308 5.4235,-0.85934 3.03167,-0.83407 5.89807,-2.43593 9.03917,-2.57803 1.3634,-0.0617 2.72152,0.15727 4.08062,0.28184 1.3591,0.12457 2.76006,0.15028 4.05464,-0.28184 1.33836,-0.44673 2.46762,-1.34876 3.58183,-2.21439 1.1142,-0.86562 2.283,-1.73103 3.64951,-2.08234 1.17082,-0.301 2.40211,-0.2148 3.6082,-0.13271 1.2061,0.0821 2.41427,0.13271 3.62316,0.13271 l 6.3274,0 9.9431,0 c 0.76047,0 1.51952,-0.0563 2.27453,-0.14719 0.37751,-0.0454 0.7566,-0.0891 1.13678,-0.0827 0.38018,0.006 0.76531,0.0658 1.10829,0.22993 0.37738,0.1806 0.68519,0.47881 0.96297,0.79166 0.27778,0.31285 0.53419,0.64681 0.84487,0.92701 0.72599,0.65477 1.74111,0.97647 2.71172,0.85936 0.82498,1.47287 2.103,2.68787 3.61567,3.43739 1.5403,0.76321 3.26955,1.03717 4.96861,1.2984 1.69905,0.26122 3.4284,0.52824 4.97449,1.27966 1.33481,0.64873 2.47368,1.63015 3.61566,2.57801 0.32052,0.26604 0.64518,0.53292 0.90392,0.85936 0.40315,0.50863 0.62465,1.13284 0.90394,1.7187 0.27858,0.58437 0.61888,1.13745 0.90392,1.7187 1.17046,2.38683 1.35574,5.11447 1.80784,7.73412 0.93223,5.40171 3.05852,10.5231 5.42348,15.46825 0.38851,0.81238 0.78658,1.62875 1.00464,2.50245 0.21806,0.87371 0.24477,1.82203 -0.10072,2.65362 -0.0598,0.14402 -0.13118,0.28642 -0.1512,0.44109 -0.01,0.0773 -0.007,0.1572 0.0174,0.23137 0.0241,0.0742 0.0697,0.1424 0.13376,0.18692 0.0494,0.0343 0.10849,0.0538 0.16845,0.0582 0.06,0.004 0.12067,-0.006 0.17675,-0.0277 0.11215,-0.0434 0.20345,-0.13029 0.27058,-0.23005 0.13427,-0.19953 0.1779,-0.4461 0.28816,-0.65984 0.16038,-0.31089 0.45662,-0.53662 0.78108,-0.6674 0.32446,-0.13077 0.67733,-0.1746 1.02672,-0.19194 0.30103,-0.0149 0.60272,-0.0111 0.90392,0 1.21073,0.0447 2.41419,0.20704 3.62373,0.27694 1.20954,0.0699 2.43962,0.045 3.60761,-0.27694 0.91496,-0.25222 1.77917,-0.68326 2.71178,-0.85934 1.48365,-0.28011 3.0134,0.10538 4.51958,0 2.1856,-0.15292 4.17286,-1.32103 6.32742,-1.71869 2.37537,-0.43842 4.81713,0.079 7.23133,0 1.21309,-0.0397 2.41612,-0.23016 3.62686,-0.31529 1.21075,-0.0851 2.45061,-0.0612 3.60448,0.31529 1.02734,0.3352 1.95731,0.94499 2.71174,1.71869 1.187,1.21731 1.91947,2.79239 2.71176,4.29674 1.28019,2.43074 2.77191,4.75509 4.51958,6.87476 2.12228,2.57402 4.63111,4.8615 6.32744,7.73415 0.70334,1.19107 1.25554,2.46507 1.92781,3.67395 0.67227,1.20888 1.48422,2.37217 2.59177,3.20084 0.86742,0.649 1.88512,1.06987 2.77445,1.6885 0.44467,0.30932 0.85886,0.67088 1.177,1.10927 0.31814,0.4384 0.53704,0.95818 0.56815,1.49896 0.0338,0.58701 -0.15097,1.1614 -0.25075,1.74086 -0.0499,0.28973 -0.0787,0.58546 -0.048,0.87784 0.0307,0.29239 0.12349,0.58265 0.29878,0.81867 0.24846,0.33453 0.6407,0.5363 0.9039,0.85936 0.18751,0.23015 0.30184,0.51455 0.3541,0.80677 0.0523,0.29223 0.0445,0.59269 0.006,0.88705 -0.0769,0.58872 -0.2748,1.156 -0.36018,1.74355 -0.1242,0.85469 -0.007,1.72333 0.0823,2.58234 0.0896,0.85901 0.14982,1.74187 -0.0823,2.57375 -0.17504,0.62721 -0.51055,1.19976 -0.9039,1.7187 -0.40165,0.5299 -0.86671,1.01201 -1.23308,1.56689 -0.36637,0.55488 -0.63415,1.20825 -0.57478,1.87052 0.0508,0.56644 0.34117,1.09503 0.74194,1.49853 0.40078,0.4035 0.90643,0.69016 1.43412,0.90221 1.0554,0.42411 2.21194,0.56607 3.24746,1.03664 1.35082,0.61385 2.39359,1.73656 3.61566,2.57803 1.98051,1.36369 4.41676,1.97748 6.32744,3.43739 1.32211,1.0102 2.40976,2.29095 3.61565,3.43738 l 5.4235,5.15611 c 0.90928,0.86445 1.86803,1.67477 2.855,2.44933 0.98697,0.77457 2.01269,1.58198 2.56852,2.70676 0.38849,0.78616 0.50933,1.67527 0.58068,2.54927 0.0713,0.874 0.0998,1.75883 0.32324,2.6068 0.32345,1.22771 1.04159,2.31823 1.8703,3.28007 0.82871,0.96185 1.77443,1.8153 2.6493,2.73536 3.2433,3.41082 5.45331,7.67296 7.23132,12.03087 1.96247,4.81001 3.44975,9.8035 5.4235,14.6089 1.14641,2.79112 2.47399,5.58548 2.71176,8.59348 0.13548,1.71386 0,3.43687 0,5.15607 l 0,3.43739 c 0,1.04011 0.0579,2.08014 0.0337,3.11997 -0.0121,0.51992 -0.0562,1.04262 -0.19376,1.54416 -0.13753,0.50154 -0.37482,0.98486 -0.74384,1.3513 -0.38191,0.37924 -0.88085,0.61269 -1.36661,0.84447 -0.48576,0.23177 -0.98096,0.47794 -1.34513,0.87425 -0.14255,0.15513 -0.26187,0.33016 -0.40108,0.48831 -0.1392,0.15814 -0.30368,0.30231 -0.50284,0.37103 -0.14371,0.0496 -0.29876,0.0575 -0.45053,0.0486 -0.15176,-0.009 -0.30209,-0.034 -0.45341,-0.0486 -0.96738,-0.0935 -1.95025,0.25542 -2.71174,0.85933 -0.32599,0.25853 -0.61418,0.56078 -0.90394,0.85936 -0.8689,0.89537 -1.76286,1.76788 -2.7117,2.57804 -0.81864,0.69898 -1.69637,1.36135 -2.71178,1.71869 -0.3189,0.11223 -0.64849,0.19323 -0.96379,0.31519 -0.3153,0.12197 -0.62139,0.28977 -0.84405,0.54415 -0.21424,0.24476 -0.33821,0.5536 -0.45659,0.85658 -0.11838,0.30297 -0.23858,0.61266 -0.44731,0.86214 -0.13374,0.15985 -0.29933,0.28933 -0.46099,0.42087 -0.16167,0.13154 -0.32254,0.26834 -0.44293,0.43847 -0.12176,0.17206 -0.19845,0.37469 -0.22849,0.58333 -0.03,0.20863 -0.014,0.42304 0.0397,0.62689 0.10726,0.4077 0.36197,0.76632 0.67582,1.04779 0.6277,0.56293 1.46115,0.82187 2.22475,1.17938 2.09466,0.9807 3.71886,2.74696 5.07402,4.62124 1.35515,1.87429 2.501,3.90048 3.96514,5.69092 1.44774,1.7704 3.19309,3.29312 4.5196,5.15609 1.51326,2.12524 2.42605,4.61612 3.16395,7.11854 0.73789,2.50241 1.32068,5.05619 2.25953,7.49035 1.16619,3.02359 2.8608,5.80952 4.5196,8.59349 3.96367,6.65226 7.877,13.74439 8.13526,21.48368 0.0478,1.43153 0,2.86442 0,4.29675 l 0,3.43739 c 0,0.57294 0.0223,1.14618 0,1.71868 -0.10495,2.69286 -1.52044,5.17993 -3.27961,7.22145 -1.75917,2.04152 -3.87618,3.74122 -5.75955,5.66876 -2.04286,2.09077 -3.80298,4.44197 -5.4235,6.87477 -2.33029,3.49835 -4.40239,7.20324 -7.23138,10.31218 -1.54109,1.69359 -3.30826,3.21293 -4.5196,5.15609 -1.09311,1.75352 -1.68244,3.7733 -2.66292,5.59221 -0.49023,0.90945 -1.08406,1.77388 -1.84618,2.47145 -0.76212,0.69757 -1.70248,1.22299 -2.7222,1.38916 -0.59673,0.0972 -1.20741,0.0709 -1.80784,0 -0.91305,-0.10789 -1.81291,-0.31805 -2.72902,-0.39586 -0.9161,-0.0778 -1.87174,-0.0145 -2.69448,0.39586 -0.19002,0.0948 -0.3721,0.20793 -0.52996,0.34994 -0.15787,0.14201 -0.29124,0.31384 -0.37396,0.5094 -0.0843,0.19938 -0.11443,0.41815 -0.11764,0.63462 -0.003,0.21646 0.0191,0.43242 0.0424,0.64766 0.0465,0.43047 0.0753,0.8628 0.0753,1.29578 l 0,4.29673 c 0,2.00528 0.0756,4.01158 0,6.01543 -0.3082,8.16943 -3.93494,15.9074 -4.5196,24.06171 -0.34846,4.86001 0.39424,9.7524 0,14.60891 -0.40101,4.93981 -1.96619,9.70915 -2.71176,14.60881 -0.73872,4.85466 -0.67207,9.83162 -1.80782,14.60902 -1.1802,4.96436 -3.63056,9.58413 -4.51957,14.60881 -0.56092,3.17031 -0.50486,6.50879 -1.80786,9.45289 -1.02021,2.3052 -2.79403,4.1777 -4.51958,6.0154 -1.72464,1.8367 -3.46231,3.7286 -4.51958,6.0155 -0.55157,1.1931 -0.90858,2.4759 -1.55413,3.6209 -0.32277,0.5724 -0.71925,1.1094 -1.21668,1.5389 -0.49743,0.4295 -1.10041,0.7485 -1.74881,0.8556 -0.59573,0.098 -1.20424,0.017 -1.8078,0 -2.13506,-0.061 -4.20824,0.6366 -6.29333,1.0999 -2.0851,0.4633 -4.22559,0.6187 -6.36153,0.6187 l -9.9431,0 c -0.77291,0 -1.54193,0.094 -2.30021,0.2434 -0.37914,0.075 -0.76269,0.1467 -1.14896,0.1347 -0.38627,-0.012 -0.78436,-0.1182 -1.07041,-0.3781 -0.15628,-0.142 -0.27153,-0.3223 -0.40494,-0.486 -0.0667,-0.082 -0.13857,-0.1601 -0.22106,-0.2259 -0.0825,-0.066 -0.17613,-0.1193 -0.2779,-0.1474 -0.14574,-0.04 -0.30012,-0.029 -0.4509,-0.018 -0.15078,0.011 -0.30186,0.018 -0.45304,0.018 l -3.61565,0 c -0.30134,0 -0.60289,-0.014 -0.90392,0 -0.81044,0.037 -1.58655,0.3334 -2.31869,0.6829 -0.73214,0.3494 -1.43945,0.756 -2.20089,1.0359 -2.00393,0.7366 -4.21566,0.545 -6.32742,0.8594 -3.47611,0.5175 -6.58936,2.387 -9.94312,3.4374 -4.07151,1.2752 -8.40699,1.3195 -12.65484,1.7185 -4.88002,0.4583 -9.70564,1.3969 -14.46268,2.5781 -5.16223,1.2818 -10.24835,2.8492 -15.36657,4.2968 -5.11801,1.4475 -10.26995,2.7757 -15.36662,4.2966 -5.09868,1.5215 -10.15205,3.2385 -15.3666,4.2968 -8.8919,1.8047 -18.04433,1.7186 -27.11751,1.7186 l -15.3666,0 c -0.61111,0 -1.22054,0.055 -1.82525,0.1431 -0.30235,0.044 -0.60658,0.086 -0.91206,0.08 -0.30549,-0.01 -0.61662,-0.065 -0.87835,-0.2232 -0.35716,-0.2152 -0.58621,-0.5893 -0.90392,-0.8593 -0.36528,-0.3105 -0.83425,-0.4718 -1.30234,-0.5753 -0.46808,-0.1035 -0.94736,-0.1562 -1.4094,-0.284 -0.762,-0.2108 -1.47265,-0.6341 -1.97728,-1.2427 -0.50462,-0.6086 -0.79188,-1.4063 -0.73448,-2.1948 0.0211,-0.2901 0.0871,-0.5752 0.11464,-0.8648 0.0276,-0.2895 0.0141,-0.5928 -0.11464,-0.8536 -0.0939,-0.1903 -0.24445,-0.3478 -0.41167,-0.4784 -0.16723,-0.1306 -0.352,-0.2366 -0.53375,-0.346 -0.18175,-0.1095 -0.36234,-0.2239 -0.51761,-0.3685 -0.15527,-0.1446 -0.28523,-0.3223 -0.34483,-0.5259 -0.0814,-0.2782 -0.0261,-0.5755 0.0223,-0.8612 0.0242,-0.1429 0.0466,-0.2867 0.0489,-0.4316 0.002,-0.1449 -0.0162,-0.2918 -0.0711,-0.4259 -0.0798,-0.1949 -0.2317,-0.3518 -0.39634,-0.4832 -0.16464,-0.1314 -0.34506,-0.2421 -0.50758,-0.3761 -0.4142,-0.3414 -0.6979,-0.8261 -0.84329,-1.3428 -0.14539,-0.5167 -0.15796,-1.0646 -0.089,-1.5969 0.13802,-1.0646 0.59087,-2.0581 0.93224,-3.0759 0.0945,-0.2818 0.18132,-0.5696 0.20053,-0.8662 0.0192,-0.2966 -0.0342,-0.606 -0.20053,-0.8523 -0.11679,-0.1729 -0.28229,-0.3062 -0.44667,-0.4348 -0.16437,-0.1285 -0.33247,-0.2574 -0.45721,-0.4247 -0.13984,-0.1875 -0.21808,-0.4147 -0.26332,-0.6442 -0.0452,-0.2295 -0.0594,-0.4638 -0.0834,-0.6965 -0.024,-0.2327 -0.0586,-0.4666 -0.14224,-0.6851 -0.0836,-0.2185 -0.2203,-0.4223 -0.41494,-0.5521 -0.19114,-0.1274 -0.42569,-0.1761 -0.65536,-0.1814 -0.22966,-0.01 -0.45824,0.029 -0.68515,0.065 -0.45382,0.072 -0.91179,0.1164 -1.37125,0.1164 l -2.71174,0 c -0.3017,0 -0.60332,-0.01 -0.90472,-0.022 -0.30141,-0.013 -0.60551,-0.028 -0.90313,0.022 -0.53358,0.089 -1.01077,0.3829 -1.43771,0.715 -0.42694,0.3321 -0.82053,0.7088 -1.27401,1.0036 -0.56017,0.3642 -1.19504,0.593 -1.80784,0.8593 -1.83773,0.7986 -3.51899,1.9554 -5.42354,2.578 -1.74351,0.57 -3.59916,0.6681 -5.42348,0.8593 -3.34674,0.3507 -6.6498,1.0274 -9.94308,1.7188 -3.58653,0.7529 -7.18735,1.5269 -10.84704,1.7187 -3.31054,0.1735 -6.63062,-0.132 -9.94308,0 -3.62757,0.1445 -7.21527,0.7822 -10.82267,1.1907 -3.6074,0.4084 -7.24089,0.5281 -10.87134,0.5281 l -17.17444,0 -3.61564,0 c -0.30229,0 -0.60438,0.013 -0.90592,0.034 -0.30155,0.021 -0.60981,0.043 -0.90194,-0.034 -0.40873,-0.1087 -0.74008,-0.4077 -1.01072,-0.7327 -0.27064,-0.325 -0.49884,-0.6863 -0.79712,-0.9861 -0.29367,-0.2952 -0.6521,-0.5277 -0.90392,-0.8593 -0.30928,-0.4073 -0.43058,-0.9314 -0.44397,-1.4427 -0.0134,-0.5112 0.0709,-1.0196 0.15877,-1.5234 0.17564,-1.0077 0.2852,-2.0265 0.2852,-3.0494 l 0,-0.8593 c 0,-0.2866 0.0292,-0.5742 0,-0.8593 -0.0438,-0.4267 -0.26222,-0.822 -0.55281,-1.1375 -0.29058,-0.3155 -0.65081,-0.5584 -1.02056,-0.7758 -0.36975,-0.2174 -0.75298,-0.4126 -1.11089,-0.6489 -0.35791,-0.2364 -0.69356,-0.5184 -0.93142,-0.8753 -0.18007,-0.2702 -0.29912,-0.5754 -0.42609,-0.8743 -0.12697,-0.2989 -0.26592,-0.5982 -0.47781,-0.8443 -0.27609,-0.3206 -0.65613,-0.5289 -1.00422,-0.7695 -0.17404,-0.1202 -0.34254,-0.2507 -0.48534,-0.4068 -0.1428,-0.1561 -0.25968,-0.3393 -0.31828,-0.5426 -0.0799,-0.277 -0.048,-0.5725 -0.0116,-0.8585 0.0364,-0.2859 0.0764,-0.579 0.0116,-0.8599 -0.0733,-0.318 -0.2734,-0.5895 -0.46494,-0.8537 -0.19153,-0.2643 -0.38432,-0.5433 -0.43898,-0.8651 -0.0481,-0.2829 0.0156,-0.5728 0,-0.8594 -0.0263,-0.4855 -0.28117,-0.9362 -0.6163,-1.2885 -0.33513,-0.3522 -0.74811,-0.6191 -1.15856,-0.8798 -0.41045,-0.2606 -0.82645,-0.5214 -1.1711,-0.8643 -0.34465,-0.3429 -0.61684,-0.7808 -0.66971,-1.2641 -0.0312,-0.285 0.0144,-0.5731 0,-0.8594 -0.0199,-0.3946 -0.15372,-0.7764 -0.33494,-1.1275 -0.18121,-0.3511 -0.40951,-0.6752 -0.63246,-1.0014 -0.22295,-0.3262 -0.44234,-0.6574 -0.6033,-1.0182 -0.16096,-0.3608 -0.26218,-0.7552 -0.23714,-1.1495 0.009,-0.1443 0.0351,-0.2871 0.0457,-0.4314 0.0106,-0.1442 0.005,-0.2926 -0.0457,-0.4279 -0.0743,-0.197 -0.23735,-0.3466 -0.40694,-0.4714 -0.16959,-0.1248 -0.35305,-0.2344 -0.49696,-0.3881 -0.25517,-0.27253 -0.35933,-0.66029 -0.3546,-1.0336 0.005,-0.37331 0.10812,-0.73787 0.22177,-1.09349 0.11365,-0.35562 0.23903,-0.71036 0.29018,-1.08018 0.0512,-0.36982 0.0226,-0.7624 -0.15735,-1.08951 -0.20212,-0.3674 -0.56676,-0.61001 -0.90392,-0.85932 -1.00447,-0.74273 -1.86694,-1.65789 -2.71176,-2.57816 -1.54571,-1.68376 -3.05276,-3.403 -4.51958,-5.15591 z"
       id="path4136"
       inkscape:path-effect="#path-effect4138"
       inkscape:original-d="m 211.35626,987.16543 c 0,1.14589 0.38112,2.3503 0,3.43748 -0.26949,0.76845 -1.26225,1.09616 -1.80782,1.71843 -1.90207,2.17017 -3.71959,5.32526 -6.32744,6.87495 -1.0535,0.62587 -2.50453,0.33111 -3.61566,0.85931 -15.76772,7.4952 11.25643,-2.71953 -9.03918,4.2966 -1.52491,0.5274 -2.99471,1.1918 -4.51959,1.7188 -1.79089,0.6191 -3.68212,0.983 -5.42351,1.7187 -0.99274,0.4195 -1.66718,1.435 -2.71176,1.7188 -1.15885,0.3147 -2.42255,-0.1637 -3.61567,0 -0.94322,0.1278 -1.77743,0.6816 -2.71174,0.8593 -1.18182,0.2247 -2.41045,0 -3.61567,0 -0.41238,0 -4.34291,0.1119 -4.51959,0 -0.70909,-0.4495 -1.12606,-1.2325 -1.80783,-1.7186 -0.539,-0.3844 -1.26885,-0.4753 -1.80784,-0.8595 -5.6767,-4.0476 2.85387,0.7686 -4.51959,-3.4375 -0.57772,-0.3293 -1.26884,-0.4749 -1.80783,-0.8593 -0.68178,-0.4861 -1.20522,-1.1455 -1.80783,-1.7185 -0.60262,-0.5729 -1.20523,-1.1458 -1.80784,-1.7188 -1.41451,-1.34479 -3.87497,-3.52194 -4.51959,-5.1561 -0.42318,-1.0728 0.2156,-2.30996 0,-3.43747 -4.06025,-21.23014 -0.0604,10.36817 -1.80783,-12.88998 -0.62825,-8.36193 -0.75474,-2.15279 -3.61567,-10.31242 -6.08129,-17.34413 2.3704,3.85825 -0.90392,-8.59338 -0.32681,-1.24275 -1.48102,-2.19473 -1.80783,-3.43728 -0.29231,-1.11154 0.19815,-2.30736 0,-3.43747 -0.11079,-0.63186 -0.69087,-1.11114 -0.90392,-1.71864 -0.18912,-0.53939 0,-2.7457 0,-3.43747 0,-1.43226 0,-2.86447 0,-4.29669 0,-0.57291 0,-1.14581 0,-1.71872 0,-0.28645 -0.30131,-0.85934 0,-0.85934 0.30131,0 0.16714,0.62102 0,0.85934 -0.0152,0.0214 -3.22751,3.25289 -3.61567,3.43739 -0.85222,0.40506 -1.80783,0.57301 -2.71175,0.85938 -0.90392,0.28638 -1.80784,0.57295 -2.71176,0.85932 -7.10758,2.25244 2.93169,-0.62706 -7.23133,0.85932 -17.15297,2.50886 5.32128,1.88599 -20.790108,3.43747 -5.112225,0.30375 -10.244396,0 -15.366597,0 -7.833948,0 -15.667901,0 -23.501853,0 -3.013056,0 -6.026115,0 -9.039175,0 -0.626418,0 -9.416802,0.8048 -11.750923,-0.85932 -0.538992,-0.38442 -0.602612,-1.14589 -0.90392,-1.71883 -0.301304,-0.57275 -0.602612,-1.14569 -0.903916,-1.71864 -0.602612,-1.14569 -1.060389,-2.37148 -1.807836,-3.43737 -0.236364,-0.33708 -0.713354,-0.49702 -0.903918,-0.85938 -0.134755,-0.2562 0.09526,-0.58758 0,-0.85934 -0.213061,-0.60763 -0.771788,-1.09059 -0.903919,-1.71868 -0.151638,-0.72098 0,-7.15161 0,-7.73414 0,-3.15607 -0.513853,-9.33512 0.903919,-12.03084 0.381126,-0.72468 1.126057,-1.2326 1.807834,-1.71871 0.538994,-0.38431 1.268844,-0.47504 1.807836,-0.85934 6.269916,-4.47057 -2.654245,1.03318 3.615673,-3.4374 0.53899,-0.3843 1.247245,-0.50406 1.807834,-0.85935 1.355876,-0.85934 0.903916,-1.71868 2.711751,-2.57804 0.339099,-0.16116 4.885334,0 5.423505,0 0.301304,0 1.038664,0.25622 0.903916,0 -0.381124,-0.72466 -1.205224,-1.14579 -1.807836,-1.7187 -0.903915,-0.85933 -1.677918,-1.86324 -2.711749,-2.57803 -1.274833,-0.88145 -10.827586,-6.24515 -12.654846,-7.73413 -2.588218,-2.10909 -4.820893,-4.58318 -7.231338,-6.87478 -2.109142,-2.00513 -4.464099,-3.80111 -6.327423,-6.01543 -5.337393,-6.34278 -4.15331,-7.45832 -8.135257,-14.60889 -1.329978,-2.38832 -2.982476,-4.60164 -4.5195867,-6.87479 -2.4697843,-3.65245 -4.3366102,-5.31961 -5.4235054,-9.45282 -0.2192326,-0.8337 0.1485986,-1.7304 0,-2.57804 -0.1566345,-0.8935 -0.672826,-1.69928 -0.9039182,-2.57805 -0.1461542,-0.55579 0,-1.14579 0,-1.71868 0,-1.71872 0,-3.43739 0,-5.15611 0,-0.2132 -0.049568,-3.36668 0,-3.43737 2.3513667,-3.35314 0.8725849,-0.84944 3.6156707,-1.71872 3.1958306,-1.01273 5.8433436,-3.28396 9.0391756,-4.29673 5.527033,-1.75151 5.531553,0.3096 10.847008,-2.57804 0.58497,-0.31778 0.427511,-1.26577 0.903916,-1.71869 3.527754,-3.3538 0.48545,0.1989 2.711753,-0.85934 1.893674,-0.90014 0.682755,-2.78221 0,-4.29675 -0.427942,-0.94929 -1.426384,-1.61098 -1.807833,-2.57804 -0.539455,-1.3676 -0.168241,-3.01448 -0.90392,-4.29673 -1.126869,-1.96407 -3.180081,-3.31663 -4.519587,-5.15607 -3.238303,-4.44693 -4.431295,-8.15781 -7.231337,-12.89021 -1.393576,-2.35533 -2.982476,-4.60162 -4.519588,-6.87479 -1.174929,-1.73755 -2.6439881,-3.30855 -3.6156714,-5.15609 -0.8522197,-1.62041 -1.3456518,-3.39851 -1.8078342,-5.15609 -0.1461542,-0.55579 0,-1.14579 0,-1.71868 0,-2.00515 0,-4.0103 0,-6.01545 0,-1.43224 0,-2.86446 0,-4.29673 0,-0.85936 -0.1485987,-1.7304 0,-2.57803 0.8418794,-4.8022 0.4706026,-1.97785 1.8078342,-5.15609 0.046868,-0.11144 1.7899744,-5.12778 1.8078367,-5.15609 0.4384637,-0.69473 1.2052227,-1.1458 1.8078347,-1.7187 0.602611,-0.57289 1.205223,-1.14579 1.807835,-1.71868 0.602611,-0.5729 1.07706,-1.30186 1.807834,-1.71871 2.5214,-1.43824 3.445988,-0.58539 6.327422,-0.85934 9.988123,-0.94955 0.78772,-0.683 11.750928,-2.57804 1.185781,-0.20497 2.44643,0.27789 3.615667,0 1.30725,-0.31071 2.41045,-1.14581 3.615671,-1.71869 0.602612,-0.28646 1.807838,-0.21884 1.807838,-0.85936 0,-1.0328 -1.321996,-1.65426 -1.807838,-2.57804 -0.42611,-0.81019 -0.550052,-1.73699 -0.903915,-2.57803 -3.063087,-7.28015 -2.834563,-4.88052 -4.51959,-12.89022 -6.040582,-28.71367 3.318562,7.74611 -6.32742,-19.76498 -0.971683,-2.77133 -1.205226,-5.729 -1.807836,-8.59348 -0.602612,-2.86449 -1.448814,-5.69225 -1.807836,-8.59347 -0.246433,-1.99141 0,-4.0103 0,-6.01543 0,-2.2916 0.171733,-4.58901 0,-6.87478 -0.130585,-1.73797 -0.737984,-3.42084 -0.903915,-5.15609 -0.24551,-2.56745 0,-5.15607 0,-7.73413 0,-0.99829 -0.204854,-3.51769 0,-4.29673 0.249582,-0.9491 2.368671,-3.91622 2.711751,-4.29675 1.109236,-1.23029 2.410448,-2.29158 3.615669,-3.43737 1.205222,-1.14582 2.410446,-2.29161 3.615668,-3.4374 1.205225,-1.14579 2.410449,-2.2916 3.615673,-3.43739 1.205224,-1.14579 2.170306,-2.57858 3.615669,-3.43739 7.857534,-1.86752 1.114092,0.65953 4.519587,-2.57804 0.02255,-0.0214 4.180004,0 4.519588,0 3.615669,0 7.231336,0 10.84701,0 0.230336,0 6.179632,0.0561 6.32742,0 0.791268,-0.30091 1.253218,-1.10355 1.807834,-1.7187 1.255572,-1.3926 2.302878,-2.95267 3.615671,-4.29675 2.609528,-2.67167 5.423507,-5.15607 8.135261,-7.7341 2.711747,-2.57806 5.084775,-5.52456 8.135254,-7.73413 3.649721,-2.64364 18.894728,-9.97718 22.597938,-12.03088 3.39339,-1.88187 6.62872,-4.01029 9.94309,-6.01542 3.31436,-2.00513 6.67434,-3.94372 9.94309,-6.01543 6.75428,-4.28084 5.52956,-4.34714 12.65485,-7.73413 4.34064,-2.0633 4.6554,-1.71869 9.03917,-1.71869 1.20522,0 2.41045,0 3.61567,0 0.90392,0 1.84262,-0.23609 2.71175,0 1.29564,0.35193 2.33734,1.31358 3.61567,1.71869 1.45753,0.46189 3.08105,0.34651 4.51959,0.85934 1.0172,0.36266 1.76851,1.20628 2.71175,1.7187 1.16994,0.63559 2.46022,1.0596 3.61566,1.71869 0.73078,0.41684 0.99937,1.46248 1.80785,1.7187 0.57168,0.18113 1.20522,0 1.80782,0 7.77961,0 1.37721,0.45291 9.9431,-1.7187 3.3102,-0.83918 14.06637,-2.87457 17.17444,-3.43739 3.30921,-0.59923 6.62872,-1.14579 9.9431,-1.71868 4.21828,0 8.47609,0.54795 12.65483,0 4.63367,-0.60763 8.97207,-2.56529 13.55876,-3.43739 0.0319,-0.006 27.0538,-3.42731 27.11754,-3.43739 4.54635,-0.72037 8.97252,-2.14205 13.55873,-2.57804 4.49717,-0.42754 9.03918,0 13.55878,0 9.03916,0 18.07836,0 27.11752,0 3.91698,0 7.83397,0 11.75095,0 3.39997,0 9.34878,-0.28359 12.65482,0.85934 0.1788,0.0619 4.88015,3.26363 5.42352,4.29673 3.97467,7.55741 -2.62793,-0.73977 2.71174,6.87479 1.07016,1.52612 2.75287,2.6562 3.61568,4.29673 0.40425,0.76861 -0.1772,1.73537 0,2.57806 0.32125,1.52708 1.6466,2.42474 2.71176,3.43739 0.30128,0.28643 0.47778,0.85934 0.9039,0.85934 1.24231,0 2.40293,-0.60314 3.6157,-0.85934 1.49975,-0.31687 3.00799,-0.59809 4.51956,-0.85938 1.80321,-0.31167 3.64545,-0.43675 5.4235,-0.85934 3.05181,-0.72532 5.93193,-2.11161 9.03917,-2.57803 2.67858,-0.40208 5.53371,0.72743 8.13526,0 2.72701,-0.76253 4.51822,-3.4907 7.23134,-4.29673 2.30073,-0.68352 4.8209,0 7.23136,0 2.10912,0 4.21826,0 6.3274,0 3.31438,0 6.62872,0 9.9431,0 0.69567,0 4.22067,-0.14199 4.5196,0 0.76224,0.36232 1.07706,1.30185 1.80784,1.71867 0.81701,0.46607 1.80782,0.57291 2.71172,0.85936 1.20521,1.14579 2.19752,2.53855 3.61567,3.43739 5.44118,3.44858 3.80027,0.24206 9.9431,2.57806 1.39879,0.53191 2.43928,1.68331 3.61566,2.57801 0.33277,0.25309 0.66756,0.52231 0.90392,0.85936 0.37374,0.53295 0.60262,1.14581 0.90394,1.7187 0.30126,0.5729 0.69082,1.11106 0.90392,1.7187 1.6942,4.83205 -0.0559,2.41887 1.80784,7.73412 4.54428,12.96069 2.82411,3.93591 5.42348,15.46825 0.38401,1.70374 0.64474,3.4312 0.90392,5.15607 0.0427,0.2836 -0.3013,0.85938 0,0.85938 0.42612,0 0.54938,-0.63465 0.90394,-0.85938 0.56057,-0.35529 1.16866,-0.65678 1.8078,-0.85934 0.28585,-0.0907 0.60262,0 0.90392,0 2.41044,0 4.83952,0.28424 7.23134,0 0.94546,-0.11243 1.76631,-0.74698 2.71178,-0.85934 1.49488,-0.17773 3.03353,0.23545 4.51958,0 2.16367,-0.34284 4.15592,-1.42377 6.32742,-1.71869 2.38621,-0.32408 4.82085,0 7.23133,0 1.13482,0 6.72942,-0.15916 7.23134,0 1.03062,0.32659 2.00476,0.93452 2.71174,1.71869 1.14338,1.26817 1.791,2.87424 2.71176,4.29674 1.48976,2.30148 2.88036,4.66704 4.51958,6.87476 1.98115,2.66824 4.34629,5.06591 6.32744,7.73415 1.63922,2.20775 2.78647,4.73284 4.51958,6.87479 1.29903,1.60544 3.48491,2.52611 4.5196,4.29673 0.5853,1.0016 -0.23635,2.31383 0,3.43737 0.0836,0.39723 0.71335,0.49702 0.9039,0.85936 0.10137,0.19251 0,3.23318 0,3.43737 0,1.02745 0.19675,4.59523 0,5.15609 -0.21302,0.60766 -0.53019,1.18575 -0.9039,1.7187 -0.63754,0.90912 -3.0486,1.86462 -1.80786,3.43741 0.016,0.0222 5.18705,3.2768 5.42352,3.43738 1.22591,0.83247 2.34468,1.8091 3.61566,2.57803 2.04943,1.23987 4.36283,2.07906 6.32744,3.43739 1.37842,0.95308 2.41045,2.29159 3.61565,3.43738 1.80784,1.71871 3.61566,3.43739 5.4235,5.15611 1.80786,1.71869 4.13531,3.05658 5.42352,5.15609 0.92346,1.50503 0.1359,3.57405 0.90392,5.15607 1.08615,2.23734 3.15532,3.92025 4.5196,6.01543 2.55723,3.92726 4.90485,7.976 7.23132,12.03087 5.27242,9.18948 2.60386,4.42259 5.4235,14.6089 0.80059,2.89214 2.13207,5.65408 2.71176,8.59348 0.33317,1.68924 0,3.43739 0,5.15607 0,1.14579 0,2.2916 0,3.43739 0,2.13324 0.51623,4.21526 -0.90392,6.01543 -4.1928,5.31477 -0.18778,0.51893 -2.71174,1.71872 -0.38112,0.18113 -0.5228,0.67817 -0.90392,0.85934 -0.26949,0.1282 -0.61162,-0.0695 -0.90394,0 -0.92435,0.21969 -1.85948,0.45424 -2.71174,0.85933 -0.38114,0.18113 -0.6026,0.57291 -0.90394,0.85936 -0.90392,0.85934 -1.68907,1.84887 -2.7117,2.57804 -0.86914,0.61967 -1.78022,1.18731 -2.71178,1.71869 -0.57769,0.32955 -1.33143,0.40644 -1.80784,0.85934 -0.4764,0.45291 -0.53018,1.18575 -0.9039,1.71872 -0.23636,0.33706 -1.06218,0.4832 -0.90392,0.85934 0.55952,1.32981 1.78681,2.30682 2.71176,3.43739 4.18809,5.11917 4.0345,4.68923 9.03916,10.31216 1.52007,1.70789 3.30883,3.23767 4.5196,5.15609 6.40953,10.15582 1.4016,4.77682 5.42348,14.60889 1.22098,2.98485 3.12564,5.67796 4.5196,8.59349 3.08924,6.46122 6.51334,14.54494 8.13526,21.48368 0.32682,1.39813 0,2.8645 0,4.29675 0,1.14579 0,2.29158 0,3.43739 0,0.57289 0.22379,1.18677 0,1.71868 -3.37898,8.03096 -3.38632,6.17255 -9.03916,12.89021 -1.88225,2.23679 -3.67223,4.54385 -5.4235,6.87477 -2.5258,3.36173 -4.62407,7.00719 -7.23138,10.31218 -1.41195,1.78979 -3.10761,3.3663 -4.5196,5.15609 -1.58071,2.00371 -5.01554,7.69738 -7.2313,9.45282 -0.46295,0.36676 -1.20524,0 -1.80784,0 -0.87432,0 -5.15542,-0.12741 -5.4235,0 -0.38112,0.18113 -0.80057,0.46633 -0.90392,0.85934 -0.21924,0.8337 0,1.7187 0,2.57806 0,1.43224 0,2.86446 0,4.29673 0,2.00513 0.32892,4.03482 0,6.01543 -3.32697,20.03174 -2.98356,-0.0326 -4.5196,24.06171 -0.30986,4.86071 0.45019,9.75813 0,14.60891 -0.45716,4.92566 -1.95498,9.71651 -2.71176,14.60881 -0.75038,4.85117 -0.76778,9.80658 -1.80782,14.60902 -1.07667,4.97158 -3.22466,9.68455 -4.51957,14.60881 -0.81704,3.10696 -0.5869,6.46795 -1.80786,9.45289 -0.93942,2.2966 -3.01306,4.0102 -4.51958,6.0154 -1.50652,2.0052 -3.01308,4.0105 -4.51958,6.0155 -1.50654,2.0052 -2.68684,4.273 -4.51962,6.0154 -0.42608,0.4052 -1.21955,-0.1238 -1.8078,0 -10.74269,2.2696 -1.83849,1.7186 -12.65486,1.7186 -3.31434,0 -6.62872,0 -9.9431,0 -0.89282,0 -4.1632,0.1698 -4.51958,0 -0.3811,-0.1817 -0.5228,-0.6782 -0.9039,-0.8593 -0.26953,-0.1278 -0.60262,0 -0.90394,0 -1.20524,0 -2.41044,0 -3.61565,0 -0.3013,0 -0.61807,-0.09 -0.90392,0 -1.53933,0.4879 -2.94548,1.3446 -4.51958,1.7188 -2.06694,0.4911 -4.27462,0.3172 -6.32742,0.8594 -3.39807,0.8972 -6.51378,2.6548 -9.94312,3.4374 -4.14341,0.9452 -8.43656,1.1457 -12.65484,1.7185 -4.8209,0.8593 -9.69581,1.4796 -14.46268,2.5781 -5.18884,1.1958 -10.24437,2.8646 -15.36657,4.2968 -5.12222,1.4323 -10.24442,2.8646 -15.36662,4.2966 -5.12218,1.4323 -10.13714,3.2733 -15.3666,4.2968 -11.00384,2.154 -16.47687,1.7186 -27.11751,1.7186 -5.1222,0 -10.24442,0 -15.3666,0 -1.20522,0 -2.43385,0.2249 -3.61566,0 -0.41786,-0.08 -0.5228,-0.6781 -0.90392,-0.8593 -0.85223,-0.405 -1.85954,-0.4543 -2.71174,-0.8593 -0.90172,-0.4286 -2.49572,-2.6157 -2.71176,-3.4375 -0.14607,-0.5557 0.26947,-1.206 0,-1.7184 -0.38114,-0.7247 -1.33512,-1.0446 -1.80786,-1.7188 -0.33426,-0.4767 0.26952,-1.2062 0,-1.7187 -0.19057,-0.3624 -0.76914,-0.4751 -0.90392,-0.8593 -0.1301,-0.3706 0,-5.6795 0,-6.0156 0,-0.5728 0.19057,-1.1751 0,-1.7185 -0.13489,-0.3844 -0.76916,-0.4751 -0.90388,-0.8595 -0.51741,-1.4756 0.79194,-1.7717 -0.90394,-2.5779 -0.2751,-0.1298 -2.30467,0 -2.71176,0 -0.90394,0 -1.80784,0 -2.71174,0 -0.60261,0 -1.24832,-0.2127 -1.80785,0 -1.00867,0.3836 -1.78017,1.1874 -2.71172,1.7186 -0.57774,0.3295 -1.23013,0.5298 -1.80784,0.8593 -2.86803,1.636 -2.23941,1.9054 -5.42354,2.578 -1.78912,0.3782 -3.6186,0.5565 -5.42348,0.8593 -3.31745,0.5568 -6.62421,1.1701 -9.94308,1.7188 -3.61135,0.5971 -7.19526,1.4167 -10.84704,1.7187 -3.30189,0.273 -6.64117,-0.273 -9.94308,0 -27.62586,2.284 5.85114,1.7188 -21.69401,1.7188 -5.72482,0 -11.44962,0 -17.17444,0 -1.20522,0 -2.41044,0 -3.61564,0 -0.60266,0 -1.26887,0.256 -1.80786,0 -0.76228,-0.3623 -1.20522,-1.1459 -1.80784,-1.7188 -0.3013,-0.2864 -0.76918,-0.4751 -0.90392,-0.8593 -0.15285,-0.4356 0,-5.3129 0,-6.0155 0,-0.2863 0,-0.5727 0,-0.8593 0,-0.2864 0.16703,-0.6209 0,-0.8593 -0.88674,-1.2645 -2.72894,-2.1728 -3.61568,-3.4375 -0.37371,-0.533 -0.49967,-1.2062 -0.9039,-1.7186 -0.51134,-0.6483 -1.33512,-1.0447 -1.80784,-1.7189 -0.33426,-0.4764 0.19057,-1.175 0,-1.7184 -0.213,-0.6077 -0.69088,-1.1111 -0.90392,-1.7188 -0.0954,-0.2718 0.0954,-0.5876 0,-0.8594 -0.84706,-2.4157 -2.21837,-2.3041 -3.61567,-4.2967 -0.16703,-0.2385 0.0954,-0.5876 0,-0.8594 -1.87022,-5.334 0.0732,2.8562 -1.80784,-4.2966 -0.0732,-0.2779 0.13489,-0.6033 0,-0.8593 -0.19057,-0.3624 -0.76917,-0.4753 -0.9039,-0.8595 -0.2049,-0.58472 0.23963,-3.84106 0,-4.29678 -0.19057,-0.36226 -0.60262,-0.57295 -0.90392,-0.85932 -0.90392,-0.85932 -1.80784,-1.71864 -2.71176,-2.57816 -1.87924,-1.78653 -2.71392,-2.86712 -4.51958,-5.15591 z"
       inkscape:connector-curvature="0" />
    <g
       transform="matrix(1.9954961,0,0,-1.9970216,232.18002,3089.6028)"
       id="g5034">
      <path
         sodipodi:nodetypes="cccccccccccccccccccc"
         inkscape:connector-curvature="0"
         id="rect4136"
         d="m 4.1693792,1018.8438 59.6342938,0 -0.843635,24.0431 0.894401,4.7266 2.519401,3.7265 -10.357856,-3.0234 -5.608985,2.9765 -6.105599,-2.6484 -6.108985,2.4766 -2.855599,-3.0235 -3.980599,3.8516 -5.605599,-4.0234 -2.8556,3.2265 -4.730599,-2.0234 -6.230599,1.9765 -5.107856,-1.8984 -6.73059903,2.2266 1.51940073,-6.0235 2.5194009,-5.3984 z"
         style="opacity:1;fill:url(#linearGradient4144);fill-opacity:1;stroke:#561a00;stroke-width:1.00187421;stroke-linecap:round;stroke-linejoin:round;stroke-miterlimit:4;stroke-dasharray:none;stroke-opacity:1" />
      <path
         inkscape:connector-curvature="0"
         id="path4270"
         d="m 18.5,1036.2372 -2.125,-8.375 -0.75,-6.125"
         style="opacity:1;fill:none;fill-opacity:1;stroke:#561a00;stroke-width:0.5009371;stroke-linecap:round;stroke-linejoin:round;stroke-miterlimit:4;stroke-dasharray:none;stroke-opacity:1" />
      <path
         inkscape:connector-curvature="0"
         id="path4272"
         d="m 32.375,1040.2372 1.5,-8.125 2.125,-3.875 1.25,-5.625"
         style="opacity:1;fill:none;fill-opacity:1;stroke:#561a00;stroke-width:0.5009371;stroke-linecap:round;stroke-linejoin:round;stroke-miterlimit:4;stroke-dasharray:none;stroke-opacity:1" />
      <path
         inkscape:connector-curvature="0"
         id="path4274"
         d="m 45.75,1023.1122 -1.375,5.625"
         style="opacity:1;fill:none;fill-opacity:1;stroke:#561a00;stroke-width:0.5009371;stroke-linecap:round;stroke-linejoin:round;stroke-miterlimit:4;stroke-dasharray:none;stroke-opacity:1" />
      <path
         sodipodi:nodetypes="cc"
         inkscape:connector-curvature="0"
         id="path4276"
         d="m 53.75,1020.8622 -0.375,13.625"
         style="opacity:1;fill:none;fill-opacity:1;stroke:#561a00;stroke-width:0.5009371;stroke-linecap:round;stroke-linejoin:round;stroke-miterlimit:4;stroke-dasharray:none;stroke-opacity:1" />
    </g>
  </g>
</svg>
