<?xml version="1.0" encoding="UTF-8" standalone="no"?>
<!-- Created with Inkscape (http://www.inkscape.org/) -->

<svg
   xmlns:dc="http://purl.org/dc/elements/1.1/"
   xmlns:cc="http://creativecommons.org/ns#"
   xmlns:rdf="http://www.w3.org/1999/02/22-rdf-syntax-ns#"
   xmlns:svg="http://www.w3.org/2000/svg"
   xmlns="http://www.w3.org/2000/svg"
   xmlns:sodipodi="http://sodipodi.sourceforge.net/DTD/sodipodi-0.dtd"
   xmlns:inkscape="http://www.inkscape.org/namespaces/inkscape"
   width="128"
   height="64"
   viewBox="0 0 128 64.000001"
   id="svg2"
   version="1.1"
   inkscape:version="0.91 r"
   sodipodi:docname="HeatBomb.svg"
   inkscape:export-filename="/home/victor/aleva/super-bombinhas/data/img/sprite/HeatBomb.png"
   inkscape:export-xdpi="90"
   inkscape:export-ydpi="90">
  <defs
     id="defs4" />
  <sodipodi:namedview
     id="base"
     pagecolor="#ffffff"
     bordercolor="#666666"
     borderopacity="1.0"
     inkscape:pageopacity="0.0"
     inkscape:pageshadow="2"
     inkscape:zoom="1"
     inkscape:cx="109.19253"
     inkscape:cy="10.084147"
     inkscape:document-units="px"
     inkscape:current-layer="layer1"
     showgrid="false"
     units="px" />
  <metadata
     id="metadata7">
    <rdf:RDF>
      <cc:Work
         rdf:about="">
        <dc:format>image/svg+xml</dc:format>
        <dc:type
           rdf:resource="http://purl.org/dc/dcmitype/StillImage" />
        <dc:title></dc:title>
      </cc:Work>
    </rdf:RDF>
  </metadata>
  <g
     inkscape:label="Layer 1"
     inkscape:groupmode="layer"
     id="layer1"
     transform="translate(0,-988.36216)">
    <path
       style="opacity:1;fill:#676767;fill-opacity:1;stroke:none;stroke-width:1;stroke-linecap:round;stroke-linejoin:round;stroke-miterlimit:4;stroke-dasharray:none;stroke-opacity:1"
       d="m 5,988.36216 -5,5 0,22.00004 5,5 22,0 5,-5 0,-22.00004 -5,-5 z"
       id="path4138"
       inkscape:connector-curvature="0"
       sodipodi:nodetypes="ccccccccc" />
    <circle
       style="opacity:1;fill:#ffffff;fill-opacity:1;stroke:none;stroke-width:1;stroke-linecap:round;stroke-linejoin:round;stroke-miterlimit:4;stroke-dasharray:none;stroke-opacity:1"
       id="path4140"
       cx="16"
       cy="1004.3621"
       r="7" />
    <path
       sodipodi:nodetypes="ccccccccc"
       inkscape:connector-curvature="0"
       id="path4142"
       d="m 37,988.36216 -5,5 0,22.00004 5,5 22,0 5,-5 0,-22.00004 -5,-5 z"
       style="opacity:1;fill:#676767;fill-opacity:1;stroke:none;stroke-width:1;stroke-linecap:round;stroke-linejoin:round;stroke-miterlimit:4;stroke-dasharray:none;stroke-opacity:1" />
    <circle
       r="7"
       cy="1004.3621"
       cx="48"
       id="circle4144"
       style="opacity:1;fill:#ff8f8f;fill-opacity:1;stroke:none;stroke-width:1;stroke-linecap:round;stroke-linejoin:round;stroke-miterlimit:4;stroke-dasharray:none;stroke-opacity:1" />
    <path
       style="opacity:1;fill:#676767;fill-opacity:1;stroke:none;stroke-width:1;stroke-linecap:round;stroke-linejoin:round;stroke-miterlimit:4;stroke-dasharray:none;stroke-opacity:1"
       d="m 69,988.36216 -5,5 0,22.00004 5,5 22,0 5,-5 0,-22.00004 -5,-5 z"
       id="path4146"
       inkscape:connector-curvature="0"
       sodipodi:nodetypes="ccccccccc" />
    <circle
       style="opacity:1;fill:#ff3f3f;fill-opacity:1;stroke:none;stroke-width:1;stroke-linecap:round;stroke-linejoin:round;stroke-miterlimit:4;stroke-dasharray:none;stroke-opacity:1"
       id="circle4148"
       cx="80"
       cy="1004.3621"
       r="7" />
    <path
       sodipodi:nodetypes="ccccccccc"
       inkscape:connector-curvature="0"
       id="path4150"
       d="m 101,988.36216 -5,5 0,22.00004 5,5 22,0 5,-5 0,-22.00004 -5,-5 z"
       style="opacity:1;fill:#676767;fill-opacity:1;stroke:none;stroke-width:1;stroke-linecap:round;stroke-linejoin:round;stroke-miterlimit:4;stroke-dasharray:none;stroke-opacity:1" />
    <circle
       r="7"
       cy="1004.3621"
       cx="112"
       id="circle4152"
       style="opacity:1;fill:#ff0000;fill-opacity:1;stroke:none;stroke-width:1;stroke-linecap:round;stroke-linejoin:round;stroke-miterlimit:4;stroke-dasharray:none;stroke-opacity:1" />
    <path
       style="opacity:1;fill:#676767;fill-opacity:1;stroke:none;stroke-width:1;stroke-linecap:round;stroke-linejoin:round;stroke-miterlimit:4;stroke-dasharray:none;stroke-opacity:1"
       d="M 5 32 L 4.0097656 32.990234 L 13.650391 45.027344 L 14.447266 44.091797 L 12.050781 32 L 5 32 z M 14.214844 32 L 16.224609 42.005859 L 24.753906 32 L 14.214844 32 z M 27.943359 32.943359 L 20.529297 41.498047 L 32 41.039062 L 32 37 L 27.943359 32.943359 z M 2.4003906 34.599609 L 0 37 L 0 43.537109 L 11.828125 46.095703 L 2.4003906 34.599609 z M 32 43.236328 L 18.824219 43.464844 L 16.953125 45.625 L 17.285156 47.275391 L 32 50.458984 L 32 43.236328 z M 0 45.474609 L 0 50.861328 L 8.1074219 47.369141 L 0 45.474609 z M 10.029297 47.818359 L 0 52.505859 L 0 59 L 0.93945312 59.939453 L 11.066406 48.060547 L 10.029297 47.818359 z M 14.121094 48.890625 L 13.341797 49.791016 L 11.472656 64 L 18.394531 64 L 15.804688 50.945312 L 14.121094 48.890625 z M 17.755859 49.623047 L 17.898438 50.330078 L 28.025391 62.974609 L 29.632812 61.367188 L 26.908203 51.761719 L 17.755859 49.623047 z M 29.134766 52.28125 L 30.955078 60.044922 L 32 59 L 32 52.951172 L 29.134766 52.28125 z M 10.824219 52.695312 L 2.8710938 61.871094 L 5 64 L 9.2929688 64 L 10.824219 52.695312 z M 18.740234 54.525391 L 20.644531 64 L 26.509766 64 L 18.740234 54.525391 z "
       transform="translate(0,988.36216)"
       id="path4154" />
    <path
       style="opacity:1;fill:#676767;fill-opacity:1;stroke:none;stroke-width:1;stroke-linecap:round;stroke-linejoin:round;stroke-miterlimit:4;stroke-dasharray:none;stroke-opacity:1"
       d="M 37 32 L 36.009766 32.990234 L 43.117188 41.863281 L 45.164062 37.613281 L 44.050781 32 L 37 32 z M 46.214844 32 L 46.755859 34.691406 L 48.472656 32 L 46.214844 32 z M 51.216797 32 L 47.503906 38.414062 L 48.224609 42.005859 L 56.753906 32 L 51.216797 32 z M 59.943359 32.943359 L 54.458984 39.271484 L 63.337891 36.337891 L 59.943359 32.943359 z M 33.839844 35.160156 L 32 37 L 32 43.537109 L 40.126953 45.294922 L 33.839844 35.160156 z M 64 38.720703 L 54.705078 41.410156 L 64 41.039062 L 64 38.720703 z M 45.878906 41.220703 L 44.503906 43.595703 L 45.650391 45.027344 L 46.447266 44.091797 L 45.878906 41.220703 z M 64 43.236328 L 56.048828 43.375 L 62.242188 50.078125 L 64 50.458984 L 64 43.236328 z M 54.84375 43.394531 L 50.824219 43.464844 L 48.953125 45.625 L 49.285156 47.275391 L 57.914062 49.142578 L 54.84375 43.394531 z M 32 45.474609 L 32 50.861328 L 36.304688 49.007812 L 36.355469 46.492188 L 32 45.474609 z M 38.529297 47 L 38.408203 48.101562 L 40.107422 47.369141 L 38.529297 47 z M 42.029297 47.818359 L 38.244141 49.587891 L 37.724609 54.326172 L 43.066406 48.060547 L 42.029297 47.818359 z M 46.121094 48.890625 L 45.341797 49.791016 L 43.472656 64 L 47.957031 64 L 48.517578 54.539062 L 47.804688 50.945312 L 46.121094 48.890625 z M 49.755859 49.623047 L 49.898438 50.330078 L 54.214844 55.71875 L 53.578125 50.515625 L 49.755859 49.623047 z M 36.273438 50.507812 L 32 52.505859 L 32 59 L 32.939453 59.939453 L 36.160156 56.162109 L 36.273438 50.507812 z M 54.433594 50.716797 L 55.755859 57.644531 L 60.025391 62.974609 L 61.632812 61.367188 L 58.908203 51.761719 L 54.433594 50.716797 z M 42.824219 52.695312 L 34.871094 61.871094 L 37 64 L 37.005859 64 L 42.039062 58.486328 L 42.824219 52.695312 z M 61.484375 53.775391 L 62.955078 60.044922 L 64 59 L 64 53.833984 L 61.484375 53.775391 z M 50.740234 54.525391 L 52.644531 64 L 55.226562 64 L 54.652344 59.294922 L 50.740234 54.525391 z M 41.693359 61.050781 L 39.011719 64 L 41.292969 64 L 41.693359 61.050781 z M 56.501953 61.552734 L 56.96875 64 L 58.509766 64 L 56.501953 61.552734 z "
       transform="translate(0,988.36216)"
       id="path4180" />
    <path
       style="opacity:1;fill:#676767;fill-opacity:1;stroke:none;stroke-width:1;stroke-linecap:round;stroke-linejoin:round;stroke-miterlimit:4;stroke-dasharray:none;stroke-opacity:1"
       d="M 69 32 L 68.009766 32.990234 L 70.544922 36.154297 L 73.095703 34.630859 L 72.251953 32 L 69 32 z M 73.953125 32 L 74.519531 33.779297 L 76.203125 32.773438 L 76.050781 32 L 73.953125 32 z M 78.214844 32 L 78.755859 34.691406 L 80.472656 32 L 78.214844 32 z M 83.837891 32 L 84.570312 36.908203 L 88.753906 32 L 83.837891 32 z M 91.943359 32.943359 L 90.964844 34.072266 L 91.494141 37.607422 L 95.337891 36.337891 L 91.943359 32.943359 z M 82.412109 33.388672 L 79.503906 38.414062 L 80.224609 42.005859 L 83.335938 38.355469 L 82.412109 33.388672 z M 76.535156 34.441406 L 75.013672 35.337891 L 76.304688 39.396484 L 77.164062 37.613281 L 76.535156 34.441406 z M 65.839844 35.160156 L 64 37 L 64 41.664062 L 70.794922 43.148438 L 65.839844 35.160156 z M 89.556641 35.697266 L 86.458984 39.271484 L 89.896484 38.134766 L 89.556641 35.697266 z M 73.591797 36.173828 L 71.53125 37.386719 L 75.117188 41.863281 L 75.296875 41.490234 L 73.591797 36.173828 z M 96 38.720703 L 91.839844 39.923828 L 92.03125 41.197266 L 96 41.039062 L 96 38.720703 z M 90.212891 40.394531 L 86.705078 41.410156 L 90.333984 41.265625 L 90.212891 40.394531 z M 77.878906 41.220703 L 77.238281 42.328125 L 77.693359 43.759766 L 76.962891 44.169922 L 77.650391 45.027344 L 78.447266 44.091797 L 77.878906 41.220703 z M 96 43.236328 L 88.048828 43.375 L 89.541016 44.990234 L 96 44.929688 L 96 43.236328 z M 86.84375 43.394531 L 82.824219 43.464844 L 81.435547 45.068359 L 87.705078 45.007812 L 86.84375 43.394531 z M 64 45.474609 L 64 48.560547 L 68.054688 49.115234 L 68.304688 49.007812 L 68.355469 46.492188 L 64 45.474609 z M 81.070312 46.208984 L 81.285156 47.275391 L 89.914062 49.142578 L 88.513672 46.519531 L 81.070312 46.208984 z M 91.052734 46.625 L 94.242188 50.078125 L 96 50.458984 L 96 46.832031 L 91.052734 46.625 z M 70.529297 47 L 70.408203 48.101562 L 72.107422 47.369141 L 70.529297 47 z M 73.845703 47.904297 L 70.527344 49.455078 L 73.171875 49.818359 L 73.845703 47.904297 z M 78.121094 48.890625 L 77.847656 49.207031 L 80.019531 62.931641 L 80.517578 54.539062 L 79.804688 50.945312 L 78.121094 48.890625 z M 81.767578 49.685547 L 81.898438 50.330078 L 86.214844 55.71875 L 85.908203 53.214844 L 81.767578 49.685547 z M 85.376953 50.46875 L 85.595703 50.652344 L 85.578125 50.515625 L 85.376953 50.46875 z M 64 50.501953 L 64 50.861328 L 64.679688 50.568359 L 64 50.501953 z M 86.433594 50.716797 L 86.580078 51.482422 L 92.164062 56.191406 L 90.908203 51.761719 L 86.433594 50.716797 z M 67.539062 50.851562 L 64 52.505859 L 64 59 L 64.939453 59.939453 L 68.160156 56.162109 L 68.265625 50.921875 L 67.539062 50.851562 z M 70.078125 51.101562 L 69.724609 54.326172 L 72.289062 51.318359 L 70.078125 51.101562 z M 77.003906 52.353516 L 75.472656 64 L 78.0625 64 L 77.003906 52.353516 z M 74.824219 52.695312 L 73.404297 54.333984 L 70.705078 62.138672 L 74.039062 58.486328 L 74.824219 52.695312 z M 93.484375 53.775391 L 94.515625 58.173828 L 95.769531 59.230469 L 96 59 L 96 53.833984 L 93.484375 53.775391 z M 87.105469 54.234375 L 87.755859 57.644531 L 92.025391 62.974609 L 93.632812 61.367188 L 93.046875 59.298828 L 87.105469 54.234375 z M 82.740234 54.525391 L 83.849609 60.042969 L 86.976562 61.953125 L 86.652344 59.294922 L 82.740234 54.525391 z M 70.347656 57.861328 L 66.871094 61.871094 L 68.400391 63.400391 L 70.347656 57.861328 z M 73.693359 61.050781 L 71.011719 64 L 73.292969 64 L 73.693359 61.050781 z M 88.501953 61.552734 L 88.789062 63.0625 L 90.326172 64 L 90.509766 64 L 88.501953 61.552734 z M 84.320312 62.386719 L 84.644531 64 L 86.728516 64 L 84.320312 62.386719 z "
       transform="translate(0,988.36216)"
       id="path4206" />
    <path
       style="opacity:1;fill:#676767;fill-opacity:1;stroke:none;stroke-width:1;stroke-linecap:round;stroke-linejoin:round;stroke-miterlimit:4;stroke-dasharray:none;stroke-opacity:1"
       d="M 101 32 L 100.56641 32.433594 L 104.87891 33.957031 L 104.25195 32 L 101 32 z M 105.95312 32 L 106.51953 33.779297 L 108.20312 32.773438 L 108.05078 32 L 105.95312 32 z M 110.21484 32 L 110.75586 34.691406 L 112.47266 32 L 110.21484 32 z M 117.83008 32 L 118.875 34.205078 L 120.75391 32 L 117.83008 32 z M 115.92383 32.576172 L 116.57031 36.908203 L 117.55078 35.757812 L 115.92383 32.576172 z M 123.94336 32.943359 L 122.96484 34.072266 L 123.21875 35.765625 L 125.39453 34.394531 L 123.94336 32.943359 z M 114.41211 33.388672 L 112.52148 36.65625 L 115.19531 37.601562 L 114.41211 33.388672 z M 100.94531 34.15625 L 102.54492 36.154297 L 103.84766 35.376953 L 100.94531 34.15625 z M 108.53516 34.441406 L 107.67773 34.945312 L 108.70703 35.310547 L 108.53516 34.441406 z M 97.839844 35.160156 L 96 37 L 96 38.310547 L 98.693359 38.8125 L 97.853516 35.181641 L 97.839844 35.160156 z M 121.55664 35.697266 L 120.28125 37.169922 L 120.89453 38.466797 L 121.89648 38.134766 L 121.55664 35.697266 z M 105.5918 36.173828 L 103.53125 37.386719 L 105.72461 40.125 L 106.93164 40.351562 L 105.5918 36.173828 z M 107.51562 36.916016 L 108.30469 39.396484 L 109.16406 37.613281 L 109.16211 37.607422 L 107.51562 36.916016 z M 99.75 38.240234 L 99.869141 39.033203 L 100.29102 39.111328 L 99.75 38.240234 z M 111.54297 38.607422 L 112.22461 42.005859 L 114.17773 39.714844 L 111.54297 38.607422 z M 119.01562 38.628906 L 118.45898 39.271484 L 119.2168 39.021484 L 119.01562 38.628906 z M 128 38.720703 L 123.83984 39.923828 L 124.03125 41.197266 L 128 41.039062 L 128 38.720703 z M 96 40.320312 L 96 41.664062 L 99.53125 42.435547 L 99.205078 41.023438 L 96 40.320312 z M 122.21289 40.394531 L 121.85742 40.498047 L 122.22461 41.269531 L 122.33398 41.265625 L 122.21289 40.394531 z M 120.21484 40.972656 L 118.70508 41.410156 L 120.40234 41.341797 L 120.21484 40.972656 z M 100.19727 41.240234 L 100.4043 42.626953 L 102.79492 43.148438 L 101.83398 41.599609 L 100.19727 41.240234 z M 128 43.236328 L 123.19531 43.320312 L 123.97656 44.966797 L 128 44.929688 L 128 43.236328 z M 109.54297 43.289062 L 109.69336 43.759766 L 108.96289 44.169922 L 109.65039 45.027344 L 110.44727 44.091797 L 110.32227 43.458984 L 109.54297 43.289062 z M 121.42969 43.351562 L 120.04883 43.375 L 121.54102 44.990234 L 122.26367 44.984375 L 121.42969 43.351562 z M 118.84375 43.394531 L 117.39258 43.419922 L 117.41211 45.029297 L 119.70508 45.007812 L 118.84375 43.394531 z M 115.55664 43.451172 L 114.82422 43.464844 L 113.43555 45.068359 L 115.61328 45.046875 L 115.55664 43.451172 z M 98.5625 46.074219 L 100.32031 48.234375 L 100.35547 46.492188 L 98.5625 46.074219 z M 113.07031 46.208984 L 113.28516 47.275391 L 115.71094 47.800781 L 115.6582 46.316406 L 113.07031 46.208984 z M 117.42773 46.390625 L 117.44727 48.175781 L 121.91406 49.142578 L 120.51367 46.519531 L 117.42773 46.390625 z M 123.05273 46.625 L 124.82422 48.542969 L 127.11523 46.794922 L 123.05273 46.625 z M 102.5293 47 L 102.4082 48.101562 L 104.10742 47.369141 L 102.5293 47 z M 96 47.021484 L 96 48.560547 L 97.679688 48.791016 L 96 47.021484 z M 105.8457 47.904297 L 102.52734 49.455078 L 105.17188 49.818359 L 105.8457 47.904297 z M 128 48.123047 L 125.86914 49.675781 L 126.24219 50.078125 L 128 50.458984 L 128 48.123047 z M 110.12109 48.890625 L 109.84766 49.207031 L 110.57227 53.779297 L 112.16992 52.791016 L 111.80469 50.945312 L 110.12109 48.890625 z M 113.76758 49.685547 L 113.89844 50.330078 L 114.79102 51.445312 L 114.88477 50.638672 L 113.76758 49.685547 z M 96 50.501953 L 96 50.861328 L 96.679688 50.568359 L 96 50.501953 z M 118.43359 50.716797 L 118.58008 51.482422 L 119.71875 52.443359 L 120.29492 52.003906 L 120.06055 51.097656 L 118.43359 50.716797 z M 99.539062 50.851562 L 96.511719 52.267578 L 100.17969 55.166016 L 100.25391 51.501953 L 99.646484 50.861328 L 99.539062 50.851562 z M 102.70117 51.162109 L 103.54102 52.195312 L 104.28906 51.318359 L 102.70117 51.162109 z M 122.92578 51.822266 L 121.76172 52.669922 L 122.52344 54.808594 L 124.16406 56.191406 L 122.92578 51.822266 z M 109.00391 52.353516 L 108.66016 54.960938 L 109.21094 54.621094 L 109.00391 52.353516 z M 117.24609 52.650391 L 116.83789 54 L 118.21484 55.71875 L 117.9082 53.214844 L 117.24609 52.650391 z M 106.82422 52.695312 L 105.4043 54.333984 L 104.24219 57.691406 L 106.32031 56.408203 L 106.82422 52.695312 z M 101.84961 53.183594 L 101.72461 54.326172 L 102.29688 53.654297 L 101.84961 53.183594 z M 125.48438 53.775391 L 126.51562 58.173828 L 127.76953 59.230469 L 128 59 L 128 53.833984 L 125.48438 53.775391 z M 119.10547 54.234375 L 119.75586 57.644531 L 122.68945 61.306641 L 121.36328 56.160156 L 119.10547 54.234375 z M 96 54.294922 L 96 59 L 96.939453 59.939453 L 99.394531 57.058594 L 96 54.294922 z M 112.50977 54.666016 L 110.88281 55.75 L 111.4668 59.4375 L 112.25391 58.986328 L 112.50977 54.666016 z M 116.1543 56.25 L 115.51172 58.363281 L 115.84961 60.042969 L 118.97656 61.953125 L 118.65234 59.294922 L 116.1543 56.25 z M 109.40234 56.738281 L 108.33398 57.449219 L 107.78906 61.585938 L 109.73828 60.439453 L 109.40234 56.738281 z M 102.34766 57.861328 L 100.47461 60.021484 L 101.89648 59.142578 L 102.34766 57.861328 z M 123.72266 58.169922 L 125.06641 61.933594 L 125.63281 61.367188 L 125.04688 59.298828 L 123.72266 58.169922 z M 104.88867 59.746094 L 103.125 60.921875 L 102.70508 62.138672 L 104.88867 59.746094 z M 112.15625 60.617188 L 111.69531 60.886719 L 112.01953 62.931641 L 112.15625 60.617188 z M 105.69336 61.050781 L 103.01172 64 L 103.6875 64 L 105.43164 62.972656 L 105.69336 61.050781 z M 120.50195 61.552734 L 120.78906 63.0625 L 122.32617 64 L 122.50977 64 L 120.50195 61.552734 z M 109.87695 61.949219 L 107.56445 63.298828 L 107.47266 64 L 110.0625 64 L 109.87695 61.949219 z M 116.32031 62.386719 L 116.64453 64 L 118.72852 64 L 116.32031 62.386719 z M 100.70508 62.537109 L 100.00391 63.003906 L 100.40039 63.400391 L 100.70508 62.537109 z "
       transform="translate(0,988.36216)"
       id="path4241" />
  </g>
</svg>
