<?xml version="1.0" encoding="UTF-8" standalone="no"?>
<!-- Created with Inkscape (http://www.inkscape.org/) -->

<svg
   xmlns:dc="http://purl.org/dc/elements/1.1/"
   xmlns:cc="http://creativecommons.org/ns#"
   xmlns:rdf="http://www.w3.org/1999/02/22-rdf-syntax-ns#"
   xmlns:svg="http://www.w3.org/2000/svg"
   xmlns="http://www.w3.org/2000/svg"
   xmlns:sodipodi="http://sodipodi.sourceforge.net/DTD/sodipodi-0.dtd"
   xmlns:inkscape="http://www.inkscape.org/namespaces/inkscape"
   width="84"
   height="60"
   viewBox="0 0 84.000001 60.000001"
   id="svg2"
   version="1.1"
   inkscape:version="0.91 r"
   sodipodi:docname="Ignel.svg"
   inkscape:export-filename="/home/victor/aleva/super-bombinhas/data/img/sprite/Ignel.png"
   inkscape:export-xdpi="90"
   inkscape:export-ydpi="90">
  <defs
     id="defs4" />
  <sodipodi:namedview
     id="base"
     pagecolor="#ffffff"
     bordercolor="#666666"
     borderopacity="1.0"
     inkscape:pageopacity="0.0"
     inkscape:pageshadow="2"
     inkscape:zoom="5.6568542"
     inkscape:cx="40.487762"
     inkscape:cy="16.345871"
     inkscape:document-units="px"
     inkscape:current-layer="layer1"
     showgrid="false"
     units="px"
     inkscape:snap-global="false" />
  <metadata
     id="metadata7">
    <rdf:RDF>
      <cc:Work
         rdf:about="">
        <dc:format>image/svg+xml</dc:format>
        <dc:type
           rdf:resource="http://purl.org/dc/dcmitype/StillImage" />
        <dc:title />
      </cc:Work>
    </rdf:RDF>
  </metadata>
  <g
     inkscape:label="Layer 1"
     inkscape:groupmode="layer"
     id="layer1"
     transform="translate(0,-992.36216)">
    <path
       inkscape:connector-curvature="0"
       id="path4150"
       d="m 20.830187,1042.2099 c 0,0 0.507614,3.8578 -0.406091,5.5837 0,0 6.700507,-2.335 5.888324,3.7564 0,0 -4.568527,1.8274 -10.152283,0 0,0 1.725888,-5.5838 0.406091,-8.6295 z"
       style="opacity:1;fill:#ff2900;fill-opacity:1;stroke:none;stroke-width:1;stroke-linecap:round;stroke-linejoin:round;stroke-miterlimit:4;stroke-dasharray:none;stroke-opacity:1" />
    <path
       style="opacity:1;fill:#ff2900;fill-opacity:1;stroke:none;stroke-width:1;stroke-linecap:round;stroke-linejoin:round;stroke-miterlimit:4;stroke-dasharray:none;stroke-opacity:1"
       d="m 7.7005076,1042.2099 c 0,0 -0.5076142,3.8578 0.4060914,5.5837 0,0 -6.7005076,-2.335 -5.8883249,3.7564 0,0 4.5685279,1.8274 10.1522839,0 0,0 -1.725888,-5.5838 -0.406091,-8.6295 z"
       id="path4148"
       inkscape:connector-curvature="0" />
    <path
       style="opacity:0.8;fill:#ff5500;fill-opacity:1;stroke:none;stroke-width:1;stroke-linecap:round;stroke-linejoin:round;stroke-miterlimit:4;stroke-dasharray:none;stroke-opacity:1"
       d="m 15.416243,1045.8647 c 0,0 -16.345177,1.8274 -12.7918775,-16.4467 0,0 1.2182741,4.3654 2.8426396,4.7715 0,0 -4.67005074,-8.2233 -0.7106599,-18.1726 0,0 -0.3045685,4.9747 1.2182741,6.9036 0,0 -1.1167512,-7.3097 7.4111667,-16.8528 8.527919,-9.54311 1.522843,-13.5025 1.522843,-13.5025 0,0 8.324873,2.53808 4.670051,12.0812 -3.654823,9.5431 0.609137,16.5482 0.609137,16.5482 0,0 4.771573,-3.7563 3.045685,-12.2843 0,0 5.583756,9.3401 -0.406091,18.3757 0,0 2.233503,-2.5381 4.974619,-3.1472 0,0 -4.873096,3.8579 -3.147208,12.3858 1.893116,9.3542 -9.238579,9.3401 -9.238579,9.3401 z"
       id="path4136"
       inkscape:connector-curvature="0"
       sodipodi:nodetypes="cccccscsccccsc" />
    <path
       style="opacity:0.8;fill:#ff9e00;fill-opacity:1;stroke:none;stroke-width:1;stroke-linecap:round;stroke-linejoin:round;stroke-miterlimit:4;stroke-dasharray:none;stroke-opacity:1"
       d="m 12.878173,1044.0373 c 0,0 -9.5431476,-0.6091 -8.4263964,-13.401 0,0 1.319797,3.3502 3.6548224,4.2639 0,0 -5.5837564,-6.802 0.5076142,-14.8223 0,0 -1.4213198,3.0457 1.8274108,6.9035 0,0 4.162437,-9.137 -0.6091367,-17.2588 0,0 5.4822337,3.3502 6.1928937,11.3705 0,0 3.553299,-5.6853 1.116751,-10.3553 0,0 5.380711,8.6294 1.725888,16.2436 0,0 3.451777,-0.7106 3.5533,-5.2791 0,0 3.654822,8.7309 -1.928934,15.4314 0,0 3.756345,-0.4061 5.38071,-3.9594 0,0 -0.812181,11.0661 -12.994923,10.863 z"
       id="path4138"
       inkscape:connector-curvature="0" />
    <path
       style="opacity:0.8;fill:#ff7c00;fill-opacity:1;stroke:none;stroke-width:1;stroke-linecap:round;stroke-linejoin:round;stroke-miterlimit:4;stroke-dasharray:none;stroke-opacity:1"
       d="m 9.7309645,996.62612 c 0,0 -6.497462,2.03046 -3.6548224,9.03558 2.8426396,7.005 -0.7106599,10.8629 -0.7106599,10.8629 0,0 7.5126908,-3.5533 3.7563452,-11.9797 -3.7563452,-8.42639 0.6091371,-7.91878 0.6091371,-7.91878 z"
       id="path4140"
       inkscape:connector-curvature="0" />
    <path
       style="opacity:0.8;fill:#ff3000;fill-opacity:1;stroke:none;stroke-width:1;stroke-linecap:round;stroke-linejoin:round;stroke-miterlimit:4;stroke-dasharray:none;stroke-opacity:1"
       d="m 21.203046,993.885 c 0,0 3.248731,3.65483 0.406091,9.8477 0,0 6.294417,-5.78679 -0.406091,-9.8477 z"
       id="path4142"
       inkscape:connector-curvature="0" />
    <path
       style="opacity:1;fill:#00f2ff;fill-opacity:1;stroke:none;stroke-width:1;stroke-linecap:round;stroke-linejoin:round;stroke-miterlimit:4;stroke-dasharray:none;stroke-opacity:1"
       d="m 8.106599,1025.5601 0.8121827,10.863 2.0304573,0.5076 -0.304569,-11.7767 z"
       id="path4144"
       inkscape:connector-curvature="0" />
    <path
       style="opacity:1;fill:#00f2ff;fill-opacity:1;stroke:none;stroke-width:1;stroke-linecap:round;stroke-linejoin:round;stroke-miterlimit:4;stroke-dasharray:none;stroke-opacity:1"
       d="m 17.649746,1025.154 -0.406091,11.7767 1.928934,-0.6091 1.015228,-10.863 z"
       id="path4146"
       inkscape:connector-curvature="0" />
    <path
       style="opacity:1;fill:#ff2900;fill-opacity:1;stroke:none;stroke-width:1;stroke-linecap:round;stroke-linejoin:round;stroke-miterlimit:4;stroke-dasharray:none;stroke-opacity:1"
       d="m 48.830187,1042.2099 c 0,0 0.507614,3.8578 -0.406091,5.5837 0,0 6.700507,-2.335 5.888324,3.7564 0,0 -4.568527,1.8274 -10.152283,0 0,0 1.725888,-5.5838 0.406091,-8.6295 z"
       id="path4152"
       inkscape:connector-curvature="0" />
    <path
       inkscape:connector-curvature="0"
       id="path4154"
       d="m 35.700508,1042.2099 c 0,0 -0.507615,3.8578 0.406091,5.5837 0,0 -6.700508,-2.335 -5.888325,3.7564 0,0 4.568528,1.8274 10.152284,0 0,0 -1.725888,-5.5838 -0.406091,-8.6295 z"
       style="opacity:1;fill:#ff2900;fill-opacity:1;stroke:none;stroke-width:1;stroke-linecap:round;stroke-linejoin:round;stroke-miterlimit:4;stroke-dasharray:none;stroke-opacity:1" />
    <path
       sodipodi:nodetypes="cccccscsccccsc"
       inkscape:connector-curvature="0"
       id="path4156"
       d="m 41.444025,1045.8647 c 0,0 16.345177,1.8274 12.791877,-16.4467 0,0 -1.218274,4.3654 -2.842639,4.7715 0,0 4.670051,-8.2233 0.71066,-18.1726 0,0 0.304568,4.9747 -1.218274,6.9036 0,0 1.116751,-7.3097 -7.411167,-16.8528 -8.527919,-9.54311 -1.522843,-13.5025 -1.522843,-13.5025 0,0 -8.324873,2.53808 -4.670051,12.0812 3.654823,9.5431 -0.609137,16.5482 -0.609137,16.5482 0,0 -4.771573,-3.7563 -3.045685,-12.2843 0,0 -5.583756,9.3401 0.406091,18.3757 0,0 -0.642513,-2.7149 -3.383629,-3.324 0,0 -0.960535,1.9134 -0.03477,11.1484 0.95195,9.4962 10.829569,10.7543 10.829569,10.7543 z"
       style="opacity:0.8;fill:#ff5500;fill-opacity:1;stroke:none;stroke-width:1;stroke-linecap:round;stroke-linejoin:round;stroke-miterlimit:4;stroke-dasharray:none;stroke-opacity:1" />
    <path
       inkscape:connector-curvature="0"
       id="path4158"
       d="m 44.295151,1044.0373 c 0,0 9.543148,-0.6091 8.426396,-13.401 0,0 -1.319797,3.3502 -3.654822,4.2639 0,0 5.583756,-6.802 -0.507614,-14.8223 0,0 1.42132,3.0457 -1.827411,6.9035 0,0 -4.162437,-9.137 0.609137,-17.2588 0,0 -5.482234,3.3502 -6.192894,11.3705 0,0 -3.553299,-5.6853 -1.116751,-10.3553 0,0 -5.380711,8.6294 -1.725888,16.2436 0,0 -3.451777,-0.7106 -3.5533,-5.2791 0,0 -3.654822,8.7309 1.928934,15.4314 0,0 -3.756345,-0.4061 -5.38071,-3.9594 0,0 0.812181,11.0661 12.994923,10.863 z"
       style="opacity:0.8;fill:#ff9e00;fill-opacity:1;stroke:none;stroke-width:1;stroke-linecap:round;stroke-linejoin:round;stroke-miterlimit:4;stroke-dasharray:none;stroke-opacity:1" />
    <path
       inkscape:connector-curvature="0"
       id="path4160"
       d="m 50.635663,1000.1617 c 0,0 -6.497461,2.0304 -3.654822,9.0355 2.84264,7.005 -0.71066,10.8629 -0.71066,10.8629 0,0 7.512691,-3.5533 3.756345,-11.9797 -3.756345,-8.42636 0.609137,-7.9187 0.609137,-7.9187 z"
       style="opacity:0.8;fill:#ff7c00;fill-opacity:1;stroke:none;stroke-width:1;stroke-linecap:round;stroke-linejoin:round;stroke-miterlimit:4;stroke-dasharray:none;stroke-opacity:1" />
    <path
       inkscape:connector-curvature="0"
       id="path4162"
       d="m 33.823474,1002.0167 c 0,0 3.248731,3.6548 0.406091,9.8477 0,0 6.294417,-5.7868 -0.406091,-9.8477 z"
       style="opacity:0.8;fill:#ff3000;fill-opacity:1;stroke:none;stroke-width:1;stroke-linecap:round;stroke-linejoin:round;stroke-miterlimit:4;stroke-dasharray:none;stroke-opacity:1" />
    <path
       inkscape:connector-curvature="0"
       id="path4164"
       d="m 36.106599,1025.5601 0.812183,10.863 2.030457,0.5076 -0.304569,-11.7767 z"
       style="opacity:1;fill:#00f2ff;fill-opacity:1;stroke:none;stroke-width:1;stroke-linecap:round;stroke-linejoin:round;stroke-miterlimit:4;stroke-dasharray:none;stroke-opacity:1" />
    <path
       inkscape:connector-curvature="0"
       id="path4166"
       d="m 45.649746,1025.154 -0.406091,11.7767 1.928934,-0.6091 1.015228,-10.863 z"
       style="opacity:1;fill:#00f2ff;fill-opacity:1;stroke:none;stroke-width:1;stroke-linecap:round;stroke-linejoin:round;stroke-miterlimit:4;stroke-dasharray:none;stroke-opacity:1" />
    <path
       inkscape:connector-curvature="0"
       id="path4168"
       d="m 76.830187,1042.2099 c 0,0 0.507614,3.8578 -0.406091,5.5837 0,0 6.700507,-2.335 5.888324,3.7564 0,0 -4.568527,1.8274 -10.152283,0 0,0 1.725888,-5.5838 0.406091,-8.6295 z"
       style="opacity:1;fill:#ff2900;fill-opacity:1;stroke:none;stroke-width:1;stroke-linecap:round;stroke-linejoin:round;stroke-miterlimit:4;stroke-dasharray:none;stroke-opacity:1" />
    <path
       style="opacity:1;fill:#ff2900;fill-opacity:1;stroke:none;stroke-width:1;stroke-linecap:round;stroke-linejoin:round;stroke-miterlimit:4;stroke-dasharray:none;stroke-opacity:1"
       d="m 63.700508,1042.2099 c 0,0 -0.507615,3.8578 0.406091,5.5837 0,0 -6.700508,-2.335 -5.888325,3.7564 0,0 4.568528,1.8274 10.152284,0 0,0 -1.725888,-5.5838 -0.406091,-8.6295 z"
       id="path4170"
       inkscape:connector-curvature="0" />
    <path
       style="opacity:0.8;fill:#ff5500;fill-opacity:1;stroke:none;stroke-width:1;stroke-linecap:round;stroke-linejoin:round;stroke-miterlimit:4;stroke-dasharray:none;stroke-opacity:1"
       d="m 71.416243,1045.8647 c 0,0 -16.345177,1.8274 -12.791877,-16.4467 0,0 1.218274,4.3654 2.842639,4.7715 0,0 -4.670051,-8.2233 -0.71066,-18.1726 0,0 0.04898,2.8534 1.571827,4.7823 0,0 7.191754,-2.8903 4.229187,-14.2012 -3.24277,-12.38063 5.588707,-12.26503 5.588707,-12.26503 0,0 -5.817263,7.84133 -0.279697,12.25793 7.989181,6.372 4.321448,14.6037 4.321448,14.6037 0,0 4.771573,-3.7563 3.045685,-12.2843 0,0 5.406979,11.1079 -0.582868,20.1435 0,0 2.056727,1.1742 5.151396,-4.915 0,0 0.07665,4.9186 -2.086548,13.4465 -2.346587,9.2508 -10.299239,8.2794 -10.299239,8.2794 z"
       id="path4172"
       inkscape:connector-curvature="0"
       sodipodi:nodetypes="cccccscsccccsc" />
    <path
       style="opacity:0.8;fill:#ff9e00;fill-opacity:1;stroke:none;stroke-width:1;stroke-linecap:round;stroke-linejoin:round;stroke-miterlimit:4;stroke-dasharray:none;stroke-opacity:1"
       d="m 68.878173,1044.0373 c 0,0 -9.543148,-0.6091 -8.426396,-13.401 0,0 1.319797,3.3502 3.654822,4.2639 0,0 -5.583756,-6.802 0.507614,-14.8223 0,0 -1.95165,0.04 1.297081,3.8983 0,0 -3.438961,-8.2531 1.335407,-14.9607 0,0 -1.765611,4.4109 1.773476,10.6634 0,0 3.906853,-7.2763 1.470305,-11.9463 0,0 5.734264,8.8062 2.079441,16.4204 0,0 5.396321,-3.8926 5.497844,-8.4611 0,0 4.008375,14.7413 -1.575381,21.4418 0,0 1.811801,-2.5274 3.436166,-6.0807 0,0 1.132363,13.1874 -11.050379,12.9843 z"
       id="path4174"
       inkscape:connector-curvature="0"
       sodipodi:nodetypes="ccccccccccccc" />
    <path
       style="opacity:0.8;fill:#ff7c00;fill-opacity:1;stroke:none;stroke-width:1;stroke-linecap:round;stroke-linejoin:round;stroke-miterlimit:4;stroke-dasharray:none;stroke-opacity:1"
       d="m 75.587827,998.39389 c 0,0 6.497461,2.03041 3.654822,9.03561 -2.84264,7.005 0.71066,10.8629 0.71066,10.8629 0,0 -7.512691,-3.5533 -3.756345,-11.9797 3.756345,-8.42642 -0.609137,-7.91881 -0.609137,-7.91881 z"
       id="path4176"
       inkscape:connector-curvature="0" />
    <path
       style="opacity:0.8;fill:#ff3000;fill-opacity:1;stroke:none;stroke-width:1;stroke-linecap:round;stroke-linejoin:round;stroke-miterlimit:4;stroke-dasharray:none;stroke-opacity:1"
       d="m 65.087309,1007.1433 c 0,0 -3.248731,3.6548 -0.406091,9.8477 0,0 -6.294417,-5.7868 0.406091,-9.8477 z"
       id="path4178"
       inkscape:connector-curvature="0" />
    <path
       style="opacity:1;fill:#00f2ff;fill-opacity:1;stroke:none;stroke-width:1;stroke-linecap:round;stroke-linejoin:round;stroke-miterlimit:4;stroke-dasharray:none;stroke-opacity:1"
       d="m 64.106599,1025.5601 0.812183,10.863 2.030457,0.5076 -0.304569,-11.7767 z"
       id="path4180"
       inkscape:connector-curvature="0" />
    <path
       style="opacity:1;fill:#00f2ff;fill-opacity:1;stroke:none;stroke-width:1;stroke-linecap:round;stroke-linejoin:round;stroke-miterlimit:4;stroke-dasharray:none;stroke-opacity:1"
       d="m 73.649746,1025.154 -0.406091,11.7767 1.928934,-0.6091 1.015228,-10.863 z"
       id="path4182"
       inkscape:connector-curvature="0" />
  </g>
</svg>
