<?xml version="1.0" encoding="UTF-8" standalone="no"?>
<!-- Created with Inkscape (http://www.inkscape.org/) -->

<svg
   xmlns:dc="http://purl.org/dc/elements/1.1/"
   xmlns:cc="http://creativecommons.org/ns#"
   xmlns:rdf="http://www.w3.org/1999/02/22-rdf-syntax-ns#"
   xmlns:svg="http://www.w3.org/2000/svg"
   xmlns="http://www.w3.org/2000/svg"
   xmlns:xlink="http://www.w3.org/1999/xlink"
   xmlns:sodipodi="http://sodipodi.sourceforge.net/DTD/sodipodi-0.dtd"
   xmlns:inkscape="http://www.inkscape.org/namespaces/inkscape"
   width="200"
   height="600"
   id="svg2"
   version="1.1"
   inkscape:version="0.48.4 r9939"
   sodipodi:docname="parchment.svg">
  <defs
     id="defs4">
    <linearGradient
       id="linearGradient3779">
      <stop
         style="stop-color:#e3d2a0;stop-opacity:1;"
         offset="0"
         id="stop3781" />
      <stop
         style="stop-color:#d5be7b;stop-opacity:1;"
         offset="1"
         id="stop3783" />
    </linearGradient>
    <filter
       inkscape:collect="always"
       id="filter3775"
       x="-0.23386047"
       width="1.4677209"
       y="-0.08070626"
       height="1.1614125">
      <feGaussianBlur
         inkscape:collect="always"
         stdDeviation="20.95"
         id="feGaussianBlur3777" />
    </filter>
    <clipPath
       clipPathUnits="userSpaceOnUse"
       id="clipPath3789">
      <path
         sodipodi:nodetypes="ccscscccccccccccccccccccccccscccccccccccccscccccccsccccccccccsc"
         inkscape:connector-curvature="0"
         id="path3791"
         d="m 187.3833,594.69669 c 13.43503,-32.17335 7.42462,-102.17692 7.42462,-102.17692 l -4.5962,-2.82843 3.18198,-1.41421 -7.42462,-1.41422 10.25305,-1.76776 c 1.06066,-14.84924 -3.88909,-52.67946 -3.88909,-52.67946 0,0 -3.18198,-20.50609 -5.65685,-48.08326 -2.47487,-27.57716 4.24264,-59.39697 4.24264,-59.39697 l -4.94975,-1.41421 5.65686,-1.06066 0.35355,-3.53554 -7.07107,-4.24264 7.42462,1.41422 c 2.12132,-18.03123 1.41422,-32.52691 1.41422,-32.52691 l -6.01041,-1.76777 6.01041,-0.70711 c 0.7071,-38.89087 -3.88909,-66.11448 -3.88909,-66.11448 -2.82843,-15.90991 -6.01041,-54.44722 -6.01041,-54.44722 l -6.71751,-0.70711 6.36396,-3.18198 c -3.53553,-18.73833 -4.94975,-44.19418 -4.94975,-44.19418 l -10.96015,-1.06066 10.25305,-1.06066 0,-4.24264 -6.01041,-1.41421 5.65685,-1.76777 c -2.12132,-13.78858 -1.41421,-33.234016 -1.41421,-33.234016 l -6.71752,0 7.07107,-2.474874 C 172.87735,4.9111743 189.85817,4.9696432 189.85817,4.9696432 127.90401,9.7053455 79.699849,9.6910477 21.995689,7.17675 c 0,0 -21.8566017,-2.057612 -11.742641,67.796465 0,0 3.181981,22.98097 2.828427,34.648235 l 7.424622,3.53553 -7.424622,0 c 0,0 -0.707106,32.88047 3.889088,50.20458 l 6.717514,-0.7071 -7.424621,2.47487 0.707107,4.59619 5.656854,1.76777 -5.656854,1.06066 c 0,0 0.353553,25.45584 6.363961,55.50788 6.010407,30.05204 -5.656854,67.5287 -5.656854,67.5287 0,0 -14.8492429,51.26524 -12.3743691,83.79215 l 7.4246211,1.41422 -7.7781745,1.41421 0.7071068,6.36396 3.1819805,0 -3.5355339,2.12132 c 0,0 0.7071067,18.73833 2.8284271,29.34493 2.12132,10.60661 3.889087,53.74012 3.889087,53.74012 l 4.949748,1.76777 -6.010408,1.41421 c 0,0 1.767768,20.15255 -0.353553,33.58758 l 8.131728,3.88908 -9.1923884,-1.76776 -0.3535535,11.3137 6.7175149,0 -7.0710682,1.76776 c 0,0 1.7677672,40.30509 -5.6568543,54.44723 0,0 30.0520385,15.9099 97.9342895,12.02081 67.88225,-3.88909 86.26703,2.47487 86.26703,2.47487 z"
         style="fill:url(#linearGradient3793);fill-opacity:1;stroke:#877543;stroke-width:1;stroke-linecap:round;stroke-linejoin:round;stroke-miterlimit:4;stroke-opacity:1;stroke-dasharray:none" />
    </clipPath>
    <linearGradient
       inkscape:collect="always"
       xlink:href="#linearGradient3779"
       id="linearGradient3793"
       gradientUnits="userSpaceOnUse"
       x1="20.68198"
       y1="238.83316"
       x2="184.87112"
       y2="267.83316" />
    <filter
       inkscape:collect="always"
       id="filter3784"
       x="-0.19970984"
       width="1.3994197"
       y="-0.063186885"
       height="1.1263738">
      <feGaussianBlur
         inkscape:collect="always"
         stdDeviation="16.06"
         id="feGaussianBlur3786" />
    </filter>
    <linearGradient
       inkscape:collect="always"
       xlink:href="#linearGradient3779"
       id="linearGradient3790"
       gradientUnits="userSpaceOnUse"
       x1="20.68198"
       y1="238.83316"
       x2="184.87112"
       y2="267.83316"
       gradientTransform="translate(-120,452.36218)" />
    <clipPath
       clipPathUnits="userSpaceOnUse"
       id="clipPath3792">
      <path
         sodipodi:nodetypes="ccscscccccccccccccccccccccccscccccccccccccscccccccsccccccccccsc"
         inkscape:connector-curvature="0"
         id="path3794"
         d="m 67.3833,1047.0589 c 13.43503,-32.1734 7.42462,-102.17695 7.42462,-102.17695 l -4.5962,-2.82843 3.18198,-1.41421 -7.42462,-1.41422 10.25305,-1.76776 c 1.06066,-14.84924 -3.88909,-52.67946 -3.88909,-52.67946 0,0 -3.18198,-20.50609 -5.65685,-48.08326 -2.47487,-27.57716 4.24264,-59.39697 4.24264,-59.39697 l -4.94975,-1.41421 5.65686,-1.06066 0.35355,-3.53554 -7.07107,-4.24264 7.42462,1.41422 c 2.12132,-18.03123 1.41422,-32.52691 1.41422,-32.52691 l -6.01041,-1.76777 6.01041,-0.70711 c 0.7071,-38.89087 -3.88909,-66.11448 -3.88909,-66.11448 -2.82843,-15.90991 -6.01041,-54.44722 -6.01041,-54.44722 l -6.71751,-0.70711 6.36396,-3.18198 C 59.95868,590.2679 58.54446,564.81205 58.54446,564.81205 l -10.96015,-1.06066 10.25305,-1.06066 0,-4.24264 -6.01041,-1.41421 5.65685,-1.76777 c -2.12132,-13.78858 -1.41421,-33.23402 -1.41421,-33.23402 l -6.71752,0 7.07107,-2.47487 c -3.54579,-62.28387 13.43503,-62.2254 13.43503,-62.2254 -61.95416,4.73571 -110.158321,4.72141 -167.862481,2.20711 0,0 -21.856599,-2.05761 -11.742639,67.79647 0,0 3.18198,22.98097 2.82842,34.64823 l 7.424627,3.53553 -7.424627,0 c 0,0 -0.7071,32.88047 3.88909,50.20458 l 6.717517,-0.7071 -7.424617,2.47487 0.7071,4.59619 5.656857,1.76777 -5.656857,1.06066 c 0,0 0.35356,25.45584 6.363964,55.50788 6.010407,30.05204 -5.656854,67.5287 -5.656854,67.5287 0,0 -14.84924,51.26524 -12.37437,83.79215 l 7.42462,1.41422 -7.77817,1.41421 0.7071,6.36396 3.18199,0 -3.53554,2.12132 c 0,0 0.70711,18.73833 2.82843,29.34493 2.12132,10.60661 3.88908,53.74012 3.88908,53.74012 l 4.94975,1.76777 -6.01041,1.41421 c 0,0 1.76777,20.15255 -0.35355,33.58758 l 8.13173,3.88908 -9.19239,-1.76776 -0.35355,11.3137 6.71751,0 -7.07106,1.76776 c 0,0 1.76776,40.30514 -5.65686,54.44724 0,0 30.052039,15.9099 97.93429,12.0208 67.88225,-3.8891 86.26703,2.4749 86.26703,2.4749 z"
         style="fill:url(#linearGradient3796);fill-opacity:1;stroke:none" />
    </clipPath>
    <linearGradient
       inkscape:collect="always"
       xlink:href="#linearGradient3779"
       id="linearGradient3796"
       gradientUnits="userSpaceOnUse"
       gradientTransform="translate(-120,452.36218)"
       x1="20.68198"
       y1="238.83316"
       x2="184.87112"
       y2="267.83316" />
    <clipPath
       clipPathUnits="userSpaceOnUse"
       id="clipPath3792-6">
      <path
         sodipodi:nodetypes="ccscscccccccccccccccccccccccscccccccccccccscccccccsccccccccccsc"
         inkscape:connector-curvature="0"
         id="path3794-3"
         d="m 67.3833,1047.0589 c 13.43503,-32.1734 7.42462,-102.17695 7.42462,-102.17695 l -4.5962,-2.82843 3.18198,-1.41421 -7.42462,-1.41422 10.25305,-1.76776 c 1.06066,-14.84924 -3.88909,-52.67946 -3.88909,-52.67946 0,0 -3.18198,-20.50609 -5.65685,-48.08326 -2.47487,-27.57716 4.24264,-59.39697 4.24264,-59.39697 l -4.94975,-1.41421 5.65686,-1.06066 0.35355,-3.53554 -7.07107,-4.24264 7.42462,1.41422 c 2.12132,-18.03123 1.41422,-32.52691 1.41422,-32.52691 l -6.01041,-1.76777 6.01041,-0.70711 c 0.7071,-38.89087 -3.88909,-66.11448 -3.88909,-66.11448 -2.82843,-15.90991 -6.01041,-54.44722 -6.01041,-54.44722 l -6.71751,-0.70711 6.36396,-3.18198 C 59.95868,590.2679 58.54446,564.81205 58.54446,564.81205 l -10.96015,-1.06066 10.25305,-1.06066 0,-4.24264 -6.01041,-1.41421 5.65685,-1.76777 c -2.12132,-13.78858 -1.41421,-33.23402 -1.41421,-33.23402 l -6.71752,0 7.07107,-2.47487 c -3.54579,-62.28387 13.43503,-62.2254 13.43503,-62.2254 -61.95416,4.73571 -110.158321,4.72141 -167.862481,2.20711 0,0 -21.856599,-2.05761 -11.742639,67.79647 0,0 3.18198,22.98097 2.82842,34.64823 l 7.424627,3.53553 -7.424627,0 c 0,0 -0.7071,32.88047 3.88909,50.20458 l 6.717517,-0.7071 -7.424617,2.47487 0.7071,4.59619 5.656857,1.76777 -5.656857,1.06066 c 0,0 0.35356,25.45584 6.363964,55.50788 6.010407,30.05204 -5.656854,67.5287 -5.656854,67.5287 0,0 -14.84924,51.26524 -12.37437,83.79215 l 7.42462,1.41422 -7.77817,1.41421 0.7071,6.36396 3.18199,0 -3.53554,2.12132 c 0,0 0.70711,18.73833 2.82843,29.34493 2.12132,10.60661 3.88908,53.74012 3.88908,53.74012 l 4.94975,1.76777 -6.01041,1.41421 c 0,0 1.76777,20.15255 -0.35355,33.58758 l 8.13173,3.88908 -9.19239,-1.76776 -0.35355,11.3137 6.71751,0 -7.07106,1.76776 c 0,0 1.76776,40.30514 -5.65686,54.44724 0,0 30.052039,15.9099 97.93429,12.0208 67.88225,-3.8891 86.26703,2.4749 86.26703,2.4749 z"
         style="fill:url(#linearGradient3796);fill-opacity:1;stroke:none" />
    </clipPath>
    <filter
       color-interpolation-filters="sRGB"
       inkscape:collect="always"
       id="filter3784-0"
       x="-0.19970983"
       width="1.3994197"
       y="-0.063186884"
       height="1.1263738">
      <feGaussianBlur
         inkscape:collect="always"
         stdDeviation="16.06"
         id="feGaussianBlur3786-0" />
    </filter>
    <clipPath
       clipPathUnits="userSpaceOnUse"
       id="clipPath3792-6-5">
      <path
         sodipodi:nodetypes="ccscscccccccccccccccccccccccscccccccccccccscccccccsccccccccccsc"
         inkscape:connector-curvature="0"
         id="path3794-3-8"
         d="m 67.3833,1047.0589 c 13.43503,-32.1734 7.42462,-102.17695 7.42462,-102.17695 l -4.5962,-2.82843 3.18198,-1.41421 -7.42462,-1.41422 10.25305,-1.76776 c 1.06066,-14.84924 -3.88909,-52.67946 -3.88909,-52.67946 0,0 -3.18198,-20.50609 -5.65685,-48.08326 -2.47487,-27.57716 4.24264,-59.39697 4.24264,-59.39697 l -4.94975,-1.41421 5.65686,-1.06066 0.35355,-3.53554 -7.07107,-4.24264 7.42462,1.41422 c 2.12132,-18.03123 1.41422,-32.52691 1.41422,-32.52691 l -6.01041,-1.76777 6.01041,-0.70711 c 0.7071,-38.89087 -3.88909,-66.11448 -3.88909,-66.11448 -2.82843,-15.90991 -6.01041,-54.44722 -6.01041,-54.44722 l -6.71751,-0.70711 6.36396,-3.18198 C 59.95868,590.2679 58.54446,564.81205 58.54446,564.81205 l -10.96015,-1.06066 10.25305,-1.06066 0,-4.24264 -6.01041,-1.41421 5.65685,-1.76777 c -2.12132,-13.78858 -1.41421,-33.23402 -1.41421,-33.23402 l -6.71752,0 7.07107,-2.47487 c -3.54579,-62.28387 13.43503,-62.2254 13.43503,-62.2254 -61.95416,4.73571 -110.158321,4.72141 -167.862481,2.20711 0,0 -21.856599,-2.05761 -11.742639,67.79647 0,0 3.18198,22.98097 2.82842,34.64823 l 7.424627,3.53553 -7.424627,0 c 0,0 -0.7071,32.88047 3.88909,50.20458 l 6.717517,-0.7071 -7.424617,2.47487 0.7071,4.59619 5.656857,1.76777 -5.656857,1.06066 c 0,0 0.35356,25.45584 6.363964,55.50788 6.010407,30.05204 -5.656854,67.5287 -5.656854,67.5287 0,0 -14.84924,51.26524 -12.37437,83.79215 l 7.42462,1.41422 -7.77817,1.41421 0.7071,6.36396 3.18199,0 -3.53554,2.12132 c 0,0 0.70711,18.73833 2.82843,29.34493 2.12132,10.60661 3.88908,53.74012 3.88908,53.74012 l 4.94975,1.76777 -6.01041,1.41421 c 0,0 1.76777,20.15255 -0.35355,33.58758 l 8.13173,3.88908 -9.19239,-1.76776 -0.35355,11.3137 6.71751,0 -7.07106,1.76776 c 0,0 1.76776,40.30514 -5.65686,54.44724 0,0 30.052039,15.9099 97.93429,12.0208 67.88225,-3.8891 86.26703,2.4749 86.26703,2.4749 z"
         style="fill:url(#linearGradient3796);fill-opacity:1;stroke:none" />
    </clipPath>
    <filter
       color-interpolation-filters="sRGB"
       inkscape:collect="always"
       id="filter3784-0-5"
       x="-0.19970983"
       width="1.3994197"
       y="-0.063186884"
       height="1.1263738">
      <feGaussianBlur
         inkscape:collect="always"
         stdDeviation="16.06"
         id="feGaussianBlur3786-0-5" />
    </filter>
    <clipPath
       clipPathUnits="userSpaceOnUse"
       id="clipPath3789-0">
      <path
         sodipodi:nodetypes="ccscscccccccccccccccccccccccscccccccccccccscccccccsccccccccccsc"
         inkscape:connector-curvature="0"
         id="path3791-8"
         d="m 187.3833,594.69669 c 13.43503,-32.17335 7.42462,-102.17692 7.42462,-102.17692 l -4.5962,-2.82843 3.18198,-1.41421 -7.42462,-1.41422 10.25305,-1.76776 c 1.06066,-14.84924 -3.88909,-52.67946 -3.88909,-52.67946 0,0 -3.18198,-20.50609 -5.65685,-48.08326 -2.47487,-27.57716 4.24264,-59.39697 4.24264,-59.39697 l -4.94975,-1.41421 5.65686,-1.06066 0.35355,-3.53554 -7.07107,-4.24264 7.42462,1.41422 c 2.12132,-18.03123 1.41422,-32.52691 1.41422,-32.52691 l -6.01041,-1.76777 6.01041,-0.70711 c 0.7071,-38.89087 -3.88909,-66.11448 -3.88909,-66.11448 -2.82843,-15.90991 -6.01041,-54.44722 -6.01041,-54.44722 l -6.71751,-0.70711 6.36396,-3.18198 c -3.53553,-18.73833 -4.94975,-44.19418 -4.94975,-44.19418 l -10.96015,-1.06066 10.25305,-1.06066 0,-4.24264 -6.01041,-1.41421 5.65685,-1.76777 c -2.12132,-13.78858 -1.41421,-33.234016 -1.41421,-33.234016 l -6.71752,0 7.07107,-2.474874 C 172.87735,4.9111743 189.85817,4.9696432 189.85817,4.9696432 127.90401,9.7053455 79.699849,9.6910477 21.995689,7.17675 c 0,0 -21.8566017,-2.057612 -11.742641,67.796465 0,0 3.181981,22.98097 2.828427,34.648235 l 7.424622,3.53553 -7.424622,0 c 0,0 -0.707106,32.88047 3.889088,50.20458 l 6.717514,-0.7071 -7.424621,2.47487 0.707107,4.59619 5.656854,1.76777 -5.656854,1.06066 c 0,0 0.353553,25.45584 6.363961,55.50788 6.010407,30.05204 -5.656854,67.5287 -5.656854,67.5287 0,0 -14.8492429,51.26524 -12.3743691,83.79215 l 7.4246211,1.41422 -7.7781745,1.41421 0.7071068,6.36396 3.1819805,0 -3.5355339,2.12132 c 0,0 0.7071067,18.73833 2.8284271,29.34493 2.12132,10.60661 3.889087,53.74012 3.889087,53.74012 l 4.949748,1.76777 -6.010408,1.41421 c 0,0 1.767768,20.15255 -0.353553,33.58758 l 8.131728,3.88908 -9.1923884,-1.76776 -0.3535535,11.3137 6.7175149,0 -7.0710682,1.76776 c 0,0 1.7677672,40.30509 -5.6568543,54.44723 0,0 30.0520385,15.9099 97.9342895,12.02081 67.88225,-3.88909 86.26703,2.47487 86.26703,2.47487 z"
         style="fill:url(#linearGradient3793);fill-opacity:1;stroke:#877543;stroke-width:1;stroke-linecap:round;stroke-linejoin:round;stroke-miterlimit:4;stroke-opacity:1;stroke-dasharray:none" />
    </clipPath>
    <filter
       color-interpolation-filters="sRGB"
       inkscape:collect="always"
       id="filter3775-6"
       x="-0.23386046"
       width="1.4677209"
       y="-0.080706261"
       height="1.1614125">
      <feGaussianBlur
         inkscape:collect="always"
         stdDeviation="20.95"
         id="feGaussianBlur3777-8" />
    </filter>
    <clipPath
       clipPathUnits="userSpaceOnUse"
       id="clipPath3792-6-5-0">
      <path
         sodipodi:nodetypes="ccscscccccccccccccccccccccccscccccccccccccscccccccsccccccccccsc"
         inkscape:connector-curvature="0"
         id="path3794-3-8-2"
         d="m 67.3833,1047.0589 c 13.43503,-32.1734 7.42462,-102.17695 7.42462,-102.17695 l -4.5962,-2.82843 3.18198,-1.41421 -7.42462,-1.41422 10.25305,-1.76776 c 1.06066,-14.84924 -3.88909,-52.67946 -3.88909,-52.67946 0,0 -3.18198,-20.50609 -5.65685,-48.08326 -2.47487,-27.57716 4.24264,-59.39697 4.24264,-59.39697 l -4.94975,-1.41421 5.65686,-1.06066 0.35355,-3.53554 -7.07107,-4.24264 7.42462,1.41422 c 2.12132,-18.03123 1.41422,-32.52691 1.41422,-32.52691 l -6.01041,-1.76777 6.01041,-0.70711 c 0.7071,-38.89087 -3.88909,-66.11448 -3.88909,-66.11448 -2.82843,-15.90991 -6.01041,-54.44722 -6.01041,-54.44722 l -6.71751,-0.70711 6.36396,-3.18198 C 59.95868,590.2679 58.54446,564.81205 58.54446,564.81205 l -10.96015,-1.06066 10.25305,-1.06066 0,-4.24264 -6.01041,-1.41421 5.65685,-1.76777 c -2.12132,-13.78858 -1.41421,-33.23402 -1.41421,-33.23402 l -6.71752,0 7.07107,-2.47487 c -3.54579,-62.28387 13.43503,-62.2254 13.43503,-62.2254 -61.95416,4.73571 -110.158321,4.72141 -167.862481,2.20711 0,0 -21.856599,-2.05761 -11.742639,67.79647 0,0 3.18198,22.98097 2.82842,34.64823 l 7.424627,3.53553 -7.424627,0 c 0,0 -0.7071,32.88047 3.88909,50.20458 l 6.717517,-0.7071 -7.424617,2.47487 0.7071,4.59619 5.656857,1.76777 -5.656857,1.06066 c 0,0 0.35356,25.45584 6.363964,55.50788 6.010407,30.05204 -5.656854,67.5287 -5.656854,67.5287 0,0 -14.84924,51.26524 -12.37437,83.79215 l 7.42462,1.41422 -7.77817,1.41421 0.7071,6.36396 3.18199,0 -3.53554,2.12132 c 0,0 0.70711,18.73833 2.82843,29.34493 2.12132,10.60661 3.88908,53.74012 3.88908,53.74012 l 4.94975,1.76777 -6.01041,1.41421 c 0,0 1.76777,20.15255 -0.35355,33.58758 l 8.13173,3.88908 -9.19239,-1.76776 -0.35355,11.3137 6.71751,0 -7.07106,1.76776 c 0,0 1.76776,40.30514 -5.65686,54.44724 0,0 30.052039,15.9099 97.93429,12.0208 67.88225,-3.8891 86.26703,2.4749 86.26703,2.4749 z"
         style="fill:url(#linearGradient3796);fill-opacity:1;stroke:none" />
    </clipPath>
    <filter
       color-interpolation-filters="sRGB"
       inkscape:collect="always"
       id="filter3784-0-5-6"
       x="-0.19970983"
       width="1.3994197"
       y="-0.063186884"
       height="1.1263738">
      <feGaussianBlur
         inkscape:collect="always"
         stdDeviation="16.06"
         id="feGaussianBlur3786-0-5-6" />
    </filter>
  </defs>
  <sodipodi:namedview
     id="base"
     pagecolor="#ffffff"
     bordercolor="#666666"
     borderopacity="1.0"
     inkscape:pageopacity="0.0"
     inkscape:pageshadow="2"
     inkscape:zoom="0.89"
     inkscape:cx="100"
     inkscape:cy="300"
     inkscape:document-units="px"
     inkscape:current-layer="layer1"
     showgrid="false"
     inkscape:window-width="1364"
     inkscape:window-height="718"
     inkscape:window-x="0"
     inkscape:window-y="0"
     inkscape:window-maximized="1" />
  <metadata
     id="metadata7">
    <rdf:RDF>
      <cc:Work
         rdf:about="">
        <dc:format>image/svg+xml</dc:format>
        <dc:type
           rdf:resource="http://purl.org/dc/dcmitype/StillImage" />
        <dc:title />
      </cc:Work>
    </rdf:RDF>
  </metadata>
  <g
     inkscape:label="Layer 1"
     inkscape:groupmode="layer"
     id="layer1"
     transform="translate(0,-452.36218)">
    <path
       style="fill:#a18e58;stroke:#524626;stroke-width:1;stroke-linecap:round;stroke-linejoin:round;stroke-miterlimit:4;stroke-opacity:1;stroke-dasharray:none;fill-opacity:1"
       d="m 176.42314,36.966225 c 0,0 4.06587,-0.883884 9.8995,0.176776 5.83363,1.060661 8.83883,-5.480077 8.83883,-5.480077 0,0 4.94975,-9.015612 1.23744,-20.85965 -3.71231,-11.8440388 -11.84404,-2.4748739 -11.84404,-2.4748739 0,0 -6.36396,6.0104079 -8.13173,28.6378249 z"
       id="path3765"
       inkscape:connector-curvature="0"
       transform="translate(0,452.36218)"
       sodipodi:nodetypes="cscscc" />
    <path
       style="fill:none;stroke:#524626;stroke-width:1;stroke-linecap:round;stroke-linejoin:round;stroke-miterlimit:4;stroke-opacity:1;stroke-dasharray:none"
       d="m 189.85817,4.9696428 c 0,0 8.30851,-1.9445436 7.42462,16.2634562 -0.88388,18.207999 -11.66726,15.379572 -11.66726,15.379572 0,0 -7.07107,-3.71231 -3.35876,-18.384776 3.71231,-14.6724657 8.66206,-9.0156115 8.66206,-9.0156115 0,0 4.77297,3.0052035 2.82843,13.0814755 -1.94455,10.076272 -6.54074,9.369165 -6.54074,9.369165 0,0 -4.06586,-0.353554 -2.2981,-11.136932 1.76777,-10.7833784 4.41942,-8.308505 4.41942,-8.308505 0,0 3.35876,1.414214 1.76777,8.485282 -1.59099,7.071068 -3.53554,6.717514 -3.53554,6.717514 0,0 -0.88388,-0.353553 -3.0052,-0.176777"
       id="path3763"
       inkscape:connector-curvature="0"
       transform="translate(0,452.36218)" />
    <path
       style="fill:#d5be7b;fill-opacity:1;stroke:#524626;stroke-width:1;stroke-linecap:round;stroke-linejoin:round;stroke-miterlimit:4;stroke-opacity:1;stroke-dasharray:none"
       d="m 188.375,8.2499991 c 0,0 -3.875,0.875 -6.625,0.875"
       id="path3769"
       inkscape:connector-curvature="0"
       transform="translate(0,452.36218)" />
    <path
       style="fill:#dac68d;stroke:none;stroke-width:1;stroke-linecap:round;stroke-linejoin:round;stroke-miterlimit:4;stroke-opacity:1;stroke-dasharray:none;fill-opacity:1"
       d="m 187.3833,594.69669 c 13.43503,-32.17335 7.42462,-102.17692 7.42462,-102.17692 l -4.5962,-2.82843 3.18198,-1.41421 -7.42462,-1.41422 10.25305,-1.76776 c 1.06066,-14.84924 -3.88909,-52.67946 -3.88909,-52.67946 0,0 -3.18198,-20.50609 -5.65685,-48.08326 -2.47487,-27.57716 4.24264,-59.39697 4.24264,-59.39697 l -4.94975,-1.41421 5.65686,-1.06066 0.35355,-3.53554 -7.07107,-4.24264 7.42462,1.41422 c 2.12132,-18.03123 1.41422,-32.52691 1.41422,-32.52691 l -6.01041,-1.76777 6.01041,-0.70711 c 0.7071,-38.89087 -3.88909,-66.11448 -3.88909,-66.11448 -2.82843,-15.90991 -6.01041,-54.44722 -6.01041,-54.44722 l -6.71751,-0.70711 6.36396,-3.18198 c -3.53553,-18.73833 -4.94975,-44.19418 -4.94975,-44.19418 l -10.96015,-1.06066 10.25305,-1.06066 0,-4.24264 -6.01041,-1.41421 5.65685,-1.76777 c -2.12132,-13.78858 -1.41421,-33.234016 -1.41421,-33.234016 l -6.71752,0 7.07107,-2.474874 C 172.87735,4.9111743 189.85817,4.9696432 189.85817,4.9696432 127.90401,9.7053455 79.699849,9.6910477 21.995689,7.17675 c 0,0 -21.8566017,-2.057612 -11.742641,67.796465 0,0 3.181981,22.98097 2.828427,34.648235 l 7.424622,3.53553 -7.424622,0 c 0,0 -0.707106,32.88047 3.889088,50.20458 l 6.717514,-0.7071 -7.424621,2.47487 0.707107,4.59619 5.656854,1.76777 -5.656854,1.06066 c 0,0 0.353553,25.45584 6.363961,55.50788 6.010407,30.05204 -5.656854,67.5287 -5.656854,67.5287 0,0 -14.8492429,51.26524 -12.3743691,83.79215 l 7.4246211,1.41422 -7.7781745,1.41421 0.7071068,6.36396 3.1819805,0 -3.5355339,2.12132 c 0,0 0.7071067,18.73833 2.8284271,29.34493 2.12132,10.60661 3.889087,53.74012 3.889087,53.74012 l 4.949748,1.76777 -6.010408,1.41421 c 0,0 1.767768,20.15255 -0.353553,33.58758 l 8.131728,3.88908 -9.1923884,-1.76776 -0.3535535,11.3137 6.7175149,0 -7.0710682,1.76776 c 0,0 1.7677672,40.30509 -5.6568543,54.44723 0,0 30.0520385,15.9099 97.9342895,12.02081 67.88225,-3.88909 86.26703,2.47487 86.26703,2.47487 z"
       id="path2985"
       inkscape:connector-curvature="0"
       transform="translate(0,452.36218)"
       sodipodi:nodetypes="ccscscccccccccccccccccccccccscccccccccccccscccccccsccccccccccsc" />
    <path
       style="fill:#d5be7b;fill-opacity:1;stroke:#524626;stroke-width:1;stroke-linecap:round;stroke-linejoin:round;stroke-miterlimit:4;stroke-opacity:1;stroke-dasharray:none"
       d="m 187.25,31.749999 c 0,0 -1.75,-1.125 -5.375,-0.75"
       id="path3767"
       inkscape:connector-curvature="0"
       transform="translate(0,452.36218)" />
    <path
       style="fill:#d5be7b;fill-opacity:1;stroke:#524626;stroke-width:1;stroke-linecap:round;stroke-linejoin:round;stroke-miterlimit:4;stroke-opacity:1;stroke-dasharray:none"
       d="m 188.625,11.874999 c 0,0 -2.125,0.5 -4,0.375"
       id="path3771"
       inkscape:connector-curvature="0"
       transform="translate(0,452.36218)" />
  </g>
  <g
     inkscape:groupmode="layer"
     id="layer2"
     inkscape:label="Blurs"
     style="display:inline"
     sodipodi:insensitive="true">
    <path
       style="fill:#c7b37a;fill-opacity:1;stroke:none;filter:url(#filter3784-0-5-6)"
       d="m -6,467.36218 -25,11 15,19 -16,26 3,19 -40,28 24,16 -34,3 49,31 -21,15 47,34 -17,15 19,13 -42,36 17,6 -54,39 16,11 -42,23 35,17 -23,17 42,34 -22,18 58,39 -25,15 13,15 -42,8 17,22 -45,28.00002 63,34 122,-1 0,-608.00002 -80,-1 z"
       id="path2998"
       inkscape:connector-curvature="0"
       sodipodi:nodetypes="ccccccccccccccccccccccccccccccccc"
       clip-path="url(#clipPath3792-6-5-0)"
       transform="translate(120,-452.36218)" />
    <path
       transform="translate(0,-2.994669e-6)"
       style="fill:#94824c;fill-opacity:1;stroke:none;filter:url(#filter3775-6)"
       d="m 10,577 c 0,0 25,-24 41,-17 16,7 43,11 43,11 0,0 39,7 44,-15 5,-22 19,-43 19,-43 0,0 13,-41 -18,-48 -31,-7 -38,-26 -38,-26 0,0 -4,-14 32,-20 36,-6 -59,-33 -59,-33 0,0 -41,-16 19,-27 60,-11 67,-37 67,-37 0,0 23,-21 17,-63 -6,-42 -38,-66 -38,-66 0,0 -18,-24 1,-50 19,-26 20,-85 20,-85 0,0 24,-35 -2,-50 -26,-15 54,-20 54,-20 l 0,622 -215,1 z"
       id="path3773"
       inkscape:connector-curvature="0"
       clip-path="url(#clipPath3789-0)" />
    <path
       style="fill:none;stroke:#524626;stroke-width:1;stroke-linecap:round;stroke-linejoin:round;stroke-miterlimit:4;stroke-opacity:1;stroke-dasharray:none"
       d="m 187.3833,594.69669 c 13.43503,-32.17335 7.42462,-102.17692 7.42462,-102.17692 l -4.5962,-2.82843 3.18198,-1.41421 -7.42462,-1.41422 10.25305,-1.76776 c 1.06066,-14.84924 -3.88909,-52.67946 -3.88909,-52.67946 0,0 -3.18198,-20.50609 -5.65685,-48.08326 -2.47487,-27.57716 4.24264,-59.39697 4.24264,-59.39697 l -4.94975,-1.41421 5.65686,-1.06066 0.35355,-3.53554 -7.07107,-4.24264 7.42462,1.41422 c 2.12132,-18.03123 1.41422,-32.52691 1.41422,-32.52691 l -6.01041,-1.76777 6.01041,-0.70711 c 0.7071,-38.89087 -3.88909,-66.11448 -3.88909,-66.11448 -2.82843,-15.90991 -6.01041,-54.44722 -6.01041,-54.44722 l -6.71751,-0.70711 6.36396,-3.18198 c -3.53553,-18.73833 -4.94975,-44.19418 -4.94975,-44.19418 l -10.96015,-1.06066 10.25305,-1.06066 0,-4.24264 -6.01041,-1.41421 5.65685,-1.76777 c -2.12132,-13.788583 -1.41421,-33.234019 -1.41421,-33.234019 l -6.71752,0 7.07107,-2.474874 C 172.87735,4.9111713 189.85817,4.9696402 189.85817,4.9696402 127.90401,9.7053425 79.69985,9.6910447 21.995689,7.176747 c 0,0 -21.8566017,-2.057612 -11.742641,67.796465 0,0 3.181982,22.98097 2.828427,34.648238 l 7.424622,3.53553 -7.424622,0 c 0,0 -0.707106,32.88047 3.889088,50.20458 l 6.717515,-0.7071 -7.424622,2.47487 0.707107,4.59619 5.656854,1.76777 -5.656854,1.06066 c 0,0 0.353554,25.45584 6.363961,55.50788 6.010407,30.05204 -5.656853,67.5287 -5.656853,67.5287 0,0 -14.8492439,51.26524 -12.3743701,83.79215 l 7.4246221,1.41422 -7.7781755,1.41421 0.7071068,6.36396 3.1819805,0 -3.5355339,2.12132 c 0,0 0.7071067,18.73833 2.8284271,29.34493 2.12132,10.60661 3.889087,53.74012 3.889087,53.74012 l 4.949748,1.76777 -6.010408,1.41421 c 0,0 1.767769,20.15255 -0.353553,33.58758 l 8.131728,3.88908 -9.1923884,-1.76776 -0.3535535,11.3137 6.7175149,0 -7.0710682,1.76776 c 0,0 1.7677672,40.30509 -5.6568543,54.44723 0,0 30.0520375,15.9099 97.9342895,12.02081 67.88225,-3.88909 86.26703,2.47487 86.26703,2.47487 z"
       id="path2985-4"
       inkscape:connector-curvature="0"
       sodipodi:nodetypes="ccscscccccccccccccccccccccccscccccccccccccscccccccsccccccccccsc" />
  </g>
</svg>
