<?xml version="1.0" encoding="UTF-8" standalone="no"?>
<!-- Created with Inkscape (http://www.inkscape.org/) -->

<svg
   xmlns:dc="http://purl.org/dc/elements/1.1/"
   xmlns:cc="http://creativecommons.org/ns#"
   xmlns:rdf="http://www.w3.org/1999/02/22-rdf-syntax-ns#"
   xmlns:svg="http://www.w3.org/2000/svg"
   xmlns="http://www.w3.org/2000/svg"
   xmlns:xlink="http://www.w3.org/1999/xlink"
   xmlns:sodipodi="http://sodipodi.sourceforge.net/DTD/sodipodi-0.dtd"
   xmlns:inkscape="http://www.inkscape.org/namespaces/inkscape"
   width="96"
   height="28"
   id="svg2"
   version="1.1"
   inkscape:version="0.48.4 r9939"
   sodipodi:docname="poison.svg"
   inkscape:export-filename="/home/victor/aleva/super-bombinhas/data/img/sprite/poison.png"
   inkscape:export-xdpi="90"
   inkscape:export-ydpi="90">
  <defs
     id="defs4">
    <linearGradient
       id="linearGradient3811">
      <stop
         style="stop-color:#ffffff;stop-opacity:0.49803922;"
         offset="0"
         id="stop3813" />
      <stop
         style="stop-color:#ad24b5;stop-opacity:0.49803922;"
         offset="1"
         id="stop3815" />
    </linearGradient>
    <linearGradient
       id="linearGradient3757">
      <stop
         style="stop-color:#ba14d3;stop-opacity:0.47413793;"
         offset="0"
         id="stop3759" />
      <stop
         style="stop-color:#9300be;stop-opacity:1;"
         offset="1"
         id="stop3761" />
    </linearGradient>
    <filter
       inkscape:collect="always"
       id="filter3767"
       x="-0.059144445"
       width="1.1182889"
       y="-0.25473976"
       height="1.5094795"
       color-interpolation-filters="sRGB">
      <feGaussianBlur
         inkscape:collect="always"
         stdDeviation="0.78835815"
         id="feGaussianBlur3769" />
    </filter>
    <clipPath
       clipPathUnits="userSpaceOnUse"
       id="clipPath3773">
      <path
         sodipodi:nodetypes="ccccsccccccccc"
         inkscape:connector-curvature="0"
         id="path3775"
         d="m 0,1045.2364 31.990486,-4e-4 c 0,0 -0.496526,2.2292 -2.695429,2.4769 -2.198902,0.2478 -2.553564,1.4862 -2.553564,1.4862 0,0 -1.134918,2.9103 -3.546617,2.4768 -2.4117,-0.4334 -2.979159,-2.1672 -2.979159,-2.1672 0,0 -1.205849,-1.6719 -2.695429,-1.4243 -1.489579,0.2478 -3.33382,-0.743 -3.33382,-0.743 0,0 -0.993052,-0.805 -2.057038,0.2477 -1.063985,1.0527 -2.6954286,0.1858 -2.6954286,0.1858 0,0 -2.5535643,-1.5478 -2.8372936,-2.5385 0,0 -0.9930528,2.5385 -2.908226,1.8573 -1.9151733,-0.6811 -2.269835,0.6192 -2.269835,0.6192 0,0 -0.85118807,2.1057 -1.4186468,-2.4765 z"
         style="fill:#000000;fill-opacity:1;stroke:none" />
    </clipPath>
    <linearGradient
       inkscape:collect="always"
       xlink:href="#linearGradient3757"
       id="linearGradient3781"
       gradientUnits="userSpaceOnUse"
       x1="15.108589"
       y1="1044.316"
       x2="15.108589"
       y2="1049.4941"
       gradientTransform="matrix(1.000307,0,0,1,-1.5349873e-4,0)" />
    <linearGradient
       inkscape:collect="always"
       xlink:href="#linearGradient3757"
       id="linearGradient3793"
       gradientUnits="userSpaceOnUse"
       gradientTransform="matrix(1.000307,0,0,1,-1.5349873e-4,0)"
       x1="15.108589"
       y1="1044.316"
       x2="15.108589"
       y2="1049.4941" />
    <linearGradient
       inkscape:collect="always"
       xlink:href="#linearGradient3757"
       id="linearGradient3801"
       gradientUnits="userSpaceOnUse"
       gradientTransform="matrix(1.000307,0,0,1,-1.5349873e-4,0)"
       x1="15.108589"
       y1="1044.316"
       x2="15.108589"
       y2="1049.4941" />
    <radialGradient
       inkscape:collect="always"
       xlink:href="#linearGradient3811"
       id="radialGradient3817"
       cx="5.28125"
       cy="25.489979"
       fx="5.28125"
       fy="25.489979"
       r="1.59375"
       gradientTransform="matrix(-0.02968395,0.7447644,-0.68591482,-0.02733839,22.921972,22.232319)"
       gradientUnits="userSpaceOnUse" />
    <radialGradient
       inkscape:collect="always"
       xlink:href="#linearGradient3811"
       id="radialGradient3821"
       gradientUnits="userSpaceOnUse"
       gradientTransform="matrix(-0.02968395,0.7447644,-0.68591482,-0.02733839,22.921972,22.232319)"
       cx="5.28125"
       cy="25.489979"
       fx="5.28125"
       fy="25.489979"
       r="1.59375" />
    <radialGradient
       inkscape:collect="always"
       xlink:href="#linearGradient3811"
       id="radialGradient3825"
       gradientUnits="userSpaceOnUse"
       gradientTransform="matrix(-0.02968395,0.7447644,-0.68591482,-0.02733839,22.921972,22.232319)"
       cx="5.28125"
       cy="25.489979"
       fx="5.28125"
       fy="25.489979"
       r="1.59375" />
    <radialGradient
       inkscape:collect="always"
       xlink:href="#linearGradient3811"
       id="radialGradient3829"
       gradientUnits="userSpaceOnUse"
       gradientTransform="matrix(-0.02968395,0.7447644,-0.68591482,-0.02733839,22.921972,22.232319)"
       cx="5.28125"
       cy="25.489979"
       fx="5.28125"
       fy="25.489979"
       r="1.59375" />
    <radialGradient
       inkscape:collect="always"
       xlink:href="#linearGradient3811"
       id="radialGradient3833"
       gradientUnits="userSpaceOnUse"
       gradientTransform="matrix(-0.02968395,0.7447644,-0.68591482,-0.02733839,22.921972,22.232319)"
       cx="5.28125"
       cy="25.489979"
       fx="5.28125"
       fy="25.489979"
       r="1.59375" />
    <radialGradient
       inkscape:collect="always"
       xlink:href="#linearGradient3811"
       id="radialGradient3837"
       gradientUnits="userSpaceOnUse"
       gradientTransform="matrix(-0.02968395,0.7447644,-0.68591482,-0.02733839,22.921972,22.232319)"
       cx="5.28125"
       cy="25.489979"
       fx="5.28125"
       fy="25.489979"
       r="1.59375" />
    <radialGradient
       inkscape:collect="always"
       xlink:href="#linearGradient3811"
       id="radialGradient3851"
       gradientUnits="userSpaceOnUse"
       gradientTransform="matrix(-0.02968395,0.7447644,-0.68591482,-0.02733839,22.921972,22.232319)"
       cx="5.28125"
       cy="25.489979"
       fx="5.28125"
       fy="25.489979"
       r="1.59375" />
    <radialGradient
       inkscape:collect="always"
       xlink:href="#linearGradient3811"
       id="radialGradient3853"
       gradientUnits="userSpaceOnUse"
       gradientTransform="matrix(-0.02968395,0.7447644,-0.68591482,-0.02733839,22.921972,22.232319)"
       cx="5.28125"
       cy="25.489979"
       fx="5.28125"
       fy="25.489979"
       r="1.59375" />
    <radialGradient
       inkscape:collect="always"
       xlink:href="#linearGradient3811"
       id="radialGradient3855"
       gradientUnits="userSpaceOnUse"
       gradientTransform="matrix(-0.02968395,0.7447644,-0.68591482,-0.02733839,22.921972,22.232319)"
       cx="5.28125"
       cy="25.489979"
       fx="5.28125"
       fy="25.489979"
       r="1.59375" />
    <radialGradient
       inkscape:collect="always"
       xlink:href="#linearGradient3811"
       id="radialGradient3857"
       gradientUnits="userSpaceOnUse"
       gradientTransform="matrix(-0.02968395,0.7447644,-0.68591482,-0.02733839,22.921972,22.232319)"
       cx="5.28125"
       cy="25.489979"
       fx="5.28125"
       fy="25.489979"
       r="1.59375" />
    <radialGradient
       inkscape:collect="always"
       xlink:href="#linearGradient3811"
       id="radialGradient3859"
       gradientUnits="userSpaceOnUse"
       gradientTransform="matrix(-0.02968395,0.7447644,-0.68591482,-0.02733839,22.921972,22.232319)"
       cx="5.28125"
       cy="25.489979"
       fx="5.28125"
       fy="25.489979"
       r="1.59375" />
    <radialGradient
       inkscape:collect="always"
       xlink:href="#linearGradient3811"
       id="radialGradient3861"
       gradientUnits="userSpaceOnUse"
       gradientTransform="matrix(-0.02968395,0.7447644,-0.68591482,-0.02733839,22.921972,22.232319)"
       cx="5.28125"
       cy="25.489979"
       fx="5.28125"
       fy="25.489979"
       r="1.59375" />
    <radialGradient
       inkscape:collect="always"
       xlink:href="#linearGradient3811"
       id="radialGradient3865"
       gradientUnits="userSpaceOnUse"
       gradientTransform="matrix(-0.02968395,0.7447644,-0.68591482,-0.02733839,22.921972,22.232319)"
       cx="5.28125"
       cy="25.489979"
       fx="5.28125"
       fy="25.489979"
       r="1.59375" />
    <clipPath
       clipPathUnits="userSpaceOnUse"
       id="clipPath3869">
      <rect
         style="fill:#ad24b5;fill-opacity:1;stroke:none"
         id="rect3871"
         width="7.6456928"
         height="5.3156672"
         x="2.034215"
         y="19.965675" />
    </clipPath>
    <radialGradient
       inkscape:collect="always"
       xlink:href="#linearGradient3811"
       id="radialGradient3887"
       gradientUnits="userSpaceOnUse"
       gradientTransform="matrix(-0.02968395,0.7447644,-0.68591482,-0.02733839,22.921972,22.232319)"
       cx="5.28125"
       cy="25.489979"
       fx="5.28125"
       fy="25.489979"
       r="1.59375" />
    <radialGradient
       inkscape:collect="always"
       xlink:href="#linearGradient3811"
       id="radialGradient3889"
       gradientUnits="userSpaceOnUse"
       gradientTransform="matrix(-0.02968395,0.7447644,-0.68591482,-0.02733839,22.921972,22.232319)"
       cx="5.28125"
       cy="25.489979"
       fx="5.28125"
       fy="25.489979"
       r="1.59375" />
    <radialGradient
       inkscape:collect="always"
       xlink:href="#linearGradient3811"
       id="radialGradient3891"
       gradientUnits="userSpaceOnUse"
       gradientTransform="matrix(-0.02968395,0.7447644,-0.68591482,-0.02733839,22.921972,22.232319)"
       cx="5.28125"
       cy="25.489979"
       fx="5.28125"
       fy="25.489979"
       r="1.59375" />
    <radialGradient
       inkscape:collect="always"
       xlink:href="#linearGradient3811"
       id="radialGradient3893"
       gradientUnits="userSpaceOnUse"
       gradientTransform="matrix(-0.02968395,0.7447644,-0.68591482,-0.02733839,22.921972,22.232319)"
       cx="5.28125"
       cy="25.489979"
       fx="5.28125"
       fy="25.489979"
       r="1.59375" />
    <radialGradient
       inkscape:collect="always"
       xlink:href="#linearGradient3811"
       id="radialGradient3899"
       gradientUnits="userSpaceOnUse"
       gradientTransform="matrix(-0.02968395,0.7447644,-0.68591482,-0.02733839,22.921972,22.232319)"
       cx="5.28125"
       cy="25.489979"
       fx="5.28125"
       fy="25.489979"
       r="1.59375" />
    <radialGradient
       inkscape:collect="always"
       xlink:href="#linearGradient3811"
       id="radialGradient3905"
       gradientUnits="userSpaceOnUse"
       gradientTransform="matrix(-0.02968395,0.7447644,-0.68591482,-0.02733839,22.921972,22.232319)"
       cx="5.28125"
       cy="25.489979"
       fx="5.28125"
       fy="25.489979"
       r="1.59375" />
    <radialGradient
       inkscape:collect="always"
       xlink:href="#linearGradient3811"
       id="radialGradient3909"
       gradientUnits="userSpaceOnUse"
       gradientTransform="matrix(-0.02968395,0.7447644,-0.68591482,-0.02733839,22.921972,22.232319)"
       cx="5.28125"
       cy="25.489979"
       fx="5.28125"
       fy="25.489979"
       r="1.59375" />
    <clipPath
       clipPathUnits="userSpaceOnUse"
       id="clipPath3913">
      <rect
         y="21.072376"
         x="2.2905614"
         height="4.6828494"
         width="6.7354908"
         id="rect3915"
         style="fill:#ad24b5;fill-opacity:1;stroke:none" />
    </clipPath>
  </defs>
  <sodipodi:namedview
     id="base"
     pagecolor="#ffffff"
     bordercolor="#666666"
     borderopacity="1.0"
     inkscape:pageopacity="0.0"
     inkscape:pageshadow="2"
     inkscape:zoom="1"
     inkscape:cx="52.81891"
     inkscape:cy="19.927861"
     inkscape:document-units="px"
     inkscape:current-layer="layer1"
     showgrid="false"
     inkscape:window-width="1366"
     inkscape:window-height="716"
     inkscape:window-x="0"
     inkscape:window-y="0"
     inkscape:window-maximized="1" />
  <metadata
     id="metadata7">
    <rdf:RDF>
      <cc:Work
         rdf:about="">
        <dc:format>image/svg+xml</dc:format>
        <dc:type
           rdf:resource="http://purl.org/dc/dcmitype/StillImage" />
        <dc:title></dc:title>
      </cc:Work>
    </rdf:RDF>
  </metadata>
  <g
     inkscape:label="Layer 1"
     inkscape:groupmode="layer"
     id="layer1"
     transform="translate(0,-1024.3622)">
    <g
       id="g3783">
      <path
         sodipodi:nodetypes="ccccsccccccccc"
         inkscape:connector-curvature="0"
         id="path3755"
         d="M -1.5349873e-4,1044.3622 32.000153,1044.3618 c 0,0 -0.496678,2.5536 -2.696256,2.8373 -2.199577,0.2838 -2.554348,1.7024 -2.554348,1.7024 0,0 -1.135266,3.3338 -3.547706,2.8373 -2.41244,-0.4965 -2.980073,-2.4826 -2.980073,-2.4826 0,0 -1.20622,-1.9152 -2.696257,-1.6315 -1.490036,0.2838 -3.334843,-0.8512 -3.334843,-0.8512 0,0 -0.993357,-0.9221 -2.05767,0.2838 -1.064311,1.2058 -2.6962559,0.2128 -2.6962559,0.2128 0,0 -2.5543482,-1.773 -2.8381646,-2.9079 0,0 -0.9933577,2.9079 -2.9091188,2.1276 -1.9157613,-0.7802 -2.2705319,0.7093 -2.2705319,0.7093 0,0 -0.85144936,2.4121 -1.41908229873,-2.8369 z"
         style="fill:url(#linearGradient3781);fill-opacity:1;stroke:none" />
      <path
         clip-path="url(#clipPath3773)"
         transform="matrix(1.000307,0,0,1.1455147,-1.5349873e-4,-152.97144)"
         style="fill:none;stroke:#000000;stroke-width:0.93418527;stroke-linecap:round;stroke-linejoin:round;stroke-opacity:1;filter:url(#filter3767)"
         d="m 0,1044.3622 31.990486,-4e-4 c 0,0 -0.496526,2.5536 -2.695429,2.8373 -2.198902,0.2838 -2.553564,1.7024 -2.553564,1.7024 0,0 -1.134918,3.3338 -3.546617,2.8373 -2.4117,-0.4965 -2.979159,-2.4826 -2.979159,-2.4826 0,0 -1.205849,-1.9152 -2.695429,-1.6315 -1.489579,0.2838 -3.33382,-0.8512 -3.33382,-0.8512 0,0 -0.993052,-0.9221 -2.057038,0.2838 -1.063985,1.2058 -2.6954286,0.2128 -2.6954286,0.2128 0,0 -2.5535643,-1.773 -2.8372936,-2.9079 0,0 -0.9930528,2.9079 -2.908226,2.1276 -1.9151733,-0.7802 -2.269835,0.7093 -2.269835,0.7093 0,0 -0.85118807,2.4121 -1.4186468,-2.8369 z"
         id="path3765"
         inkscape:connector-curvature="0"
         sodipodi:nodetypes="ccccsccccccccc" />
    </g>
    <g
       id="g3787"
       transform="translate(32,0)">
      <path
         style="fill:url(#linearGradient3793);fill-opacity:1;stroke:none"
         d="M -1.5349873e-4,1044.3622 32.000153,1044.3618 c 0,0 -0.496678,2.5536 -2.696256,2.8373 -2.199577,0.2838 -2.554348,1.7024 -2.554348,1.7024 0,0 -1.135266,3.3338 -3.547706,2.8373 -2.41244,-0.4965 -2.980073,-2.4826 -2.980073,-2.4826 0,0 -1.20622,-1.9152 -2.696257,-1.6315 -1.490036,0.2838 -3.334843,-0.8512 -3.334843,-0.8512 0,0 -0.993357,-0.9221 -2.05767,0.2838 -1.064311,1.2058 -2.6962559,0.2128 -2.6962559,0.2128 0,0 -2.5543482,-1.773 -2.8381646,-2.9079 0,0 -0.9933577,2.9079 -2.9091188,2.1276 -1.9157613,-0.7802 -2.2705319,0.7093 -2.2705319,0.7093 0,0 -0.85144936,2.4121 -1.41908229873,-2.8369 z"
         id="path3789"
         inkscape:connector-curvature="0"
         sodipodi:nodetypes="ccccsccccccccc" />
      <path
         sodipodi:nodetypes="ccccsccccccccc"
         inkscape:connector-curvature="0"
         id="path3791"
         d="m 0,1044.3622 31.990486,-4e-4 c 0,0 -0.496526,2.5536 -2.695429,2.8373 -2.198902,0.2838 -2.553564,1.7024 -2.553564,1.7024 0,0 -1.134918,3.3338 -3.546617,2.8373 -2.4117,-0.4965 -2.979159,-2.4826 -2.979159,-2.4826 0,0 -1.205849,-1.9152 -2.695429,-1.6315 -1.489579,0.2838 -3.33382,-0.8512 -3.33382,-0.8512 0,0 -0.993052,-0.9221 -2.057038,0.2838 -1.063985,1.2058 -2.6954286,0.2128 -2.6954286,0.2128 0,0 -2.5535643,-1.773 -2.8372936,-2.9079 0,0 -0.9930528,2.9079 -2.908226,2.1276 -1.9151733,-0.7802 -2.269835,0.7093 -2.269835,0.7093 0,0 -0.85118807,2.4121 -1.4186468,-2.8369 z"
         style="fill:none;stroke:#000000;stroke-width:0.93418527;stroke-linecap:round;stroke-linejoin:round;stroke-opacity:1;filter:url(#filter3767)"
         transform="matrix(1.000307,0,0,1.1455147,-1.5349873e-4,-152.97144)"
         clip-path="url(#clipPath3773)" />
    </g>
    <g
       transform="translate(64,0)"
       id="g3795">
      <path
         sodipodi:nodetypes="ccccsccccccccc"
         inkscape:connector-curvature="0"
         id="path3797"
         d="M -1.5349873e-4,1044.3622 32.000153,1044.3618 c 0,0 -0.496678,2.5536 -2.696256,2.8373 -2.199577,0.2838 -2.554348,1.7024 -2.554348,1.7024 0,0 -1.135266,3.3338 -3.547706,2.8373 -2.41244,-0.4965 -2.980073,-2.4826 -2.980073,-2.4826 0,0 -1.20622,-1.9152 -2.696257,-1.6315 -1.490036,0.2838 -3.334843,-0.8512 -3.334843,-0.8512 0,0 -0.993357,-0.9221 -2.05767,0.2838 -1.064311,1.2058 -2.6962559,0.2128 -2.6962559,0.2128 0,0 -2.5543482,-1.773 -2.8381646,-2.9079 0,0 -0.9933577,2.9079 -2.9091188,2.1276 -1.9157613,-0.7802 -2.2705319,0.7093 -2.2705319,0.7093 0,0 -0.85144936,2.4121 -1.41908229873,-2.8369 z"
         style="fill:url(#linearGradient3801);fill-opacity:1;stroke:none" />
      <path
         clip-path="url(#clipPath3773)"
         transform="matrix(1.000307,0,0,1.1455147,-1.5349873e-4,-152.97144)"
         style="fill:none;stroke:#000000;stroke-width:0.93418527;stroke-linecap:round;stroke-linejoin:round;stroke-opacity:1;filter:url(#filter3767)"
         d="m 0,1044.3622 31.990486,-4e-4 c 0,0 -0.496526,2.5536 -2.695429,2.8373 -2.198902,0.2838 -2.553564,1.7024 -2.553564,1.7024 0,0 -1.134918,3.3338 -3.546617,2.8373 -2.4117,-0.4965 -2.979159,-2.4826 -2.979159,-2.4826 0,0 -1.205849,-1.9152 -2.695429,-1.6315 -1.489579,0.2838 -3.33382,-0.8512 -3.33382,-0.8512 0,0 -0.993052,-0.9221 -2.057038,0.2838 -1.063985,1.2058 -2.6954286,0.2128 -2.6954286,0.2128 0,0 -2.5535643,-1.773 -2.8372936,-2.9079 0,0 -0.9930528,2.9079 -2.908226,2.1276 -1.9151733,-0.7802 -2.269835,0.7093 -2.269835,0.7093 0,0 -0.85118807,2.4121 -1.4186468,-2.8369 z"
         id="path3799"
         inkscape:connector-curvature="0"
         sodipodi:nodetypes="ccccsccccccccc" />
    </g>
    <path
       sodipodi:type="arc"
       style="fill:url(#radialGradient3817);fill-opacity:1;stroke:#ad24b5;stroke-width:0.26346481;stroke-miterlimit:4;stroke-opacity:1;stroke-dasharray:none"
       id="path3809"
       sodipodi:cx="5.78125"
       sodipodi:cy="26.03125"
       sodipodi:rx="1.59375"
       sodipodi:ry="1.65625"
       d="m 7.375,26.03125 c 0,0.914722 -0.7135462,1.65625 -1.59375,1.65625 -0.8802038,0 -1.59375,-0.741528 -1.59375,-1.65625 0,-0.914722 0.7135462,-1.65625 1.59375,-1.65625 0.8802038,0 1.59375,0.741528 1.59375,1.65625 z"
       transform="matrix(1.1607843,0,0,1.1169811,-0.6732843,1009.1233)" />
    <path
       transform="matrix(0.84705882,0,0,0.81509433,10.009606,1014.2114)"
       d="m 7.375,26.03125 c 0,0.914722 -0.7135462,1.65625 -1.59375,1.65625 -0.8802038,0 -1.59375,-0.741528 -1.59375,-1.65625 0,-0.914722 0.7135462,-1.65625 1.59375,-1.65625 0.8802038,0 1.59375,0.741528 1.59375,1.65625 z"
       sodipodi:ry="1.65625"
       sodipodi:rx="1.59375"
       sodipodi:cy="26.03125"
       sodipodi:cx="5.78125"
       id="path3819"
       style="fill:url(#radialGradient3821);fill-opacity:1;stroke:#ad24b5;stroke-width:0.36104438;stroke-miterlimit:4;stroke-opacity:1;stroke-dasharray:none"
       sodipodi:type="arc" />
    <path
       transform="matrix(1.0039216,0,0,0.96603773,20.047734,1015.4238)"
       d="m 7.375,26.03125 c 0,0.914722 -0.7135462,1.65625 -1.59375,1.65625 -0.8802038,0 -1.59375,-0.741528 -1.59375,-1.65625 0,-0.914722 0.7135462,-1.65625 1.59375,-1.65625 0.8802038,0 1.59375,0.741528 1.59375,1.65625 z"
       sodipodi:ry="1.65625"
       sodipodi:rx="1.59375"
       sodipodi:cy="26.03125"
       sodipodi:cx="5.78125"
       id="path3823"
       style="fill:url(#radialGradient3825);fill-opacity:1;stroke:#ad24b5;stroke-width:0.30463117;stroke-miterlimit:4;stroke-opacity:1;stroke-dasharray:none"
       sodipodi:type="arc" />
    <path
       sodipodi:type="arc"
       style="fill:url(#radialGradient3829);fill-opacity:1;stroke:#ad24b5;stroke-width:0.57342345;stroke-miterlimit:4;stroke-opacity:1;stroke-dasharray:none"
       id="path3827"
       sodipodi:cx="5.78125"
       sodipodi:cy="26.03125"
       sodipodi:rx="1.59375"
       sodipodi:ry="1.65625"
       d="m 7.375,26.03125 c 0,0.914722 -0.7135462,1.65625 -1.59375,1.65625 -0.8802038,0 -1.59375,-0.741528 -1.59375,-1.65625 0,-0.914722 0.7135462,-1.65625 1.59375,-1.65625 0.8802038,0 1.59375,0.741528 1.59375,1.65625 z"
       transform="matrix(0.53333332,0,0,0.51320754,14.948332,1016.9449)" />
    <path
       transform="matrix(0.53333332,0,0,0.51320754,4.885832,1014.9449)"
       d="m 7.375,26.03125 c 0,0.914722 -0.7135462,1.65625 -1.59375,1.65625 -0.8802038,0 -1.59375,-0.741528 -1.59375,-1.65625 0,-0.914722 0.7135462,-1.65625 1.59375,-1.65625 0.8802038,0 1.59375,0.741528 1.59375,1.65625 z"
       sodipodi:ry="1.65625"
       sodipodi:rx="1.59375"
       sodipodi:cy="26.03125"
       sodipodi:cx="5.78125"
       id="path3831"
       style="fill:url(#radialGradient3833);fill-opacity:1;stroke:#ad24b5;stroke-width:0.57342345;stroke-miterlimit:4;stroke-opacity:1;stroke-dasharray:none"
       sodipodi:type="arc" />
    <path
       transform="matrix(0.53333332,0,0,0.51320754,20.135832,1014.1324)"
       d="m 7.375,26.03125 c 0,0.914722 -0.7135462,1.65625 -1.59375,1.65625 -0.8802038,0 -1.59375,-0.741528 -1.59375,-1.65625 0,-0.914722 0.7135462,-1.65625 1.59375,-1.65625 0.8802038,0 1.59375,0.741528 1.59375,1.65625 z"
       sodipodi:ry="1.65625"
       sodipodi:rx="1.59375"
       sodipodi:cy="26.03125"
       sodipodi:cx="5.78125"
       id="path3835"
       style="fill:url(#radialGradient3837);fill-opacity:1;stroke:#ad24b5;stroke-width:0.57342345;stroke-miterlimit:4;stroke-opacity:1;stroke-dasharray:none"
       sodipodi:type="arc" />
    <path
       transform="matrix(1.0039216,0,0,0.96603772,31.983578,1010.3026)"
       d="m 7.375,26.03125 c 0,0.914722 -0.7135462,1.65625 -1.59375,1.65625 -0.8802038,0 -1.59375,-0.741528 -1.59375,-1.65625 0,-0.914722 0.7135462,-1.65625 1.59375,-1.65625 0.8802038,0 1.59375,0.741528 1.59375,1.65625 z"
       sodipodi:ry="1.65625"
       sodipodi:rx="1.59375"
       sodipodi:cy="26.03125"
       sodipodi:cx="5.78125"
       id="path3839"
       style="fill:url(#radialGradient3851);fill-opacity:1;stroke:#ad24b5;stroke-width:0.3046312;stroke-miterlimit:4;stroke-opacity:1;stroke-dasharray:none"
       sodipodi:type="arc" />
    <path
       sodipodi:type="arc"
       style="fill:url(#radialGradient3853);fill-opacity:1;stroke:#ad24b5;stroke-width:0.40617493;stroke-miterlimit:4;stroke-opacity:1;stroke-dasharray:none"
       id="path3841"
       sodipodi:cx="5.78125"
       sodipodi:cy="26.03125"
       sodipodi:rx="1.59375"
       sodipodi:ry="1.65625"
       d="m 7.375,26.03125 c 0,0.914722 -0.7135462,1.65625 -1.59375,1.65625 -0.8802038,0 -1.59375,-0.741528 -1.59375,-1.65625 0,-0.914722 0.7135462,-1.65625 1.59375,-1.65625 0.8802038,0 1.59375,0.741528 1.59375,1.65625 z"
       transform="matrix(0.75294117,0,0,0.72452829,43.403724,1015.7189)" />
    <path
       sodipodi:type="arc"
       style="fill:url(#radialGradient3855);fill-opacity:1;stroke:#ad24b5;stroke-width:0.36104435;stroke-miterlimit:4;stroke-opacity:1;stroke-dasharray:none"
       id="path3843"
       sodipodi:cx="5.78125"
       sodipodi:cy="26.03125"
       sodipodi:rx="1.59375"
       sodipodi:ry="1.65625"
       d="m 7.375,26.03125 c 0,0.914722 -0.7135462,1.65625 -1.59375,1.65625 -0.8802038,0 -1.59375,-0.741528 -1.59375,-1.65625 0,-0.914722 0.7135462,-1.65625 1.59375,-1.65625 0.8802038,0 1.59375,0.741528 1.59375,1.65625 z"
       transform="matrix(0.84705882,0,0,0.81509433,51.704597,1014.603)" />
    <path
       transform="matrix(0.37647057,0,0,0.36226414,46.605195,1019.1241)"
       d="m 7.375,26.03125 c 0,0.914722 -0.7135462,1.65625 -1.59375,1.65625 -0.8802038,0 -1.59375,-0.741528 -1.59375,-1.65625 0,-0.914722 0.7135462,-1.65625 1.59375,-1.65625 0.8802038,0 1.59375,0.741528 1.59375,1.65625 z"
       sodipodi:ry="1.65625"
       sodipodi:rx="1.59375"
       sodipodi:cy="26.03125"
       sodipodi:cx="5.78125"
       id="path3845"
       style="fill:url(#radialGradient3857);fill-opacity:1;stroke:#ad24b5;stroke-width:0.81234992;stroke-miterlimit:4;stroke-opacity:1;stroke-dasharray:none"
       sodipodi:type="arc" />
    <path
       sodipodi:type="arc"
       style="fill:url(#radialGradient3859);fill-opacity:1;stroke:#ad24b5;stroke-width:1.39259982;stroke-miterlimit:4;stroke-opacity:1;stroke-dasharray:none"
       id="path3847"
       sodipodi:cx="5.78125"
       sodipodi:cy="26.03125"
       sodipodi:rx="1.59375"
       sodipodi:ry="1.65625"
       d="m 7.375,26.03125 c 0,0.914722 -0.7135462,1.65625 -1.59375,1.65625 -0.8802038,0 -1.59375,-0.741528 -1.59375,-1.65625 0,-0.914722 0.7135462,-1.65625 1.59375,-1.65625 0.8802038,0 1.59375,0.741528 1.59375,1.65625 z"
       transform="matrix(0.21960783,0,0,0.21132074,39.199557,1020.3034)" />
    <path
       sodipodi:type="arc"
       style="fill:url(#radialGradient3861);fill-opacity:1;stroke:#ad24b5;stroke-width:1.39259982;stroke-miterlimit:4;stroke-opacity:1;stroke-dasharray:none"
       id="path3849"
       sodipodi:cx="5.78125"
       sodipodi:cy="26.03125"
       sodipodi:rx="1.59375"
       sodipodi:ry="1.65625"
       d="m 7.375,26.03125 c 0,0.914722 -0.7135462,1.65625 -1.59375,1.65625 -0.8802038,0 -1.59375,-0.741528 -1.59375,-1.65625 0,-0.914722 0.7135462,-1.65625 1.59375,-1.65625 0.8802038,0 1.59375,0.741528 1.59375,1.65625 z"
       transform="matrix(0.21960783,0,0,0.21132074,53.449557,1020.4909)" />
    <path
       sodipodi:type="arc"
       style="fill:url(#radialGradient3865);fill-opacity:1;stroke:#ad24b5;stroke-width:0.26346481;stroke-miterlimit:4;stroke-opacity:1;stroke-dasharray:none"
       id="path3863"
       sodipodi:cx="5.78125"
       sodipodi:cy="26.03125"
       sodipodi:rx="1.59375"
       sodipodi:ry="1.65625"
       d="m 7.375,26.03125 c 0,0.914722 -0.7135462,1.65625 -1.59375,1.65625 -0.8802038,0 -1.59375,-0.741528 -1.59375,-1.65625 0,-0.914722 0.7135462,-1.65625 1.59375,-1.65625 0.8802038,0 1.59375,0.741528 1.59375,1.65625 z"
       transform="matrix(1.1607843,0,0,1.1169811,42.326715,1016.1234)"
       clip-path="url(#clipPath3869)" />
    <path
       sodipodi:type="arc"
       style="fill:url(#radialGradient3887);fill-opacity:1;stroke:#ad24b5;stroke-width:0.40617496;stroke-miterlimit:4;stroke-opacity:1;stroke-dasharray:none"
       id="path3873"
       sodipodi:cx="5.78125"
       sodipodi:cy="26.03125"
       sodipodi:rx="1.59375"
       sodipodi:ry="1.65625"
       d="m 7.375,26.03125 c 0,0.914722 -0.7135462,1.65625 -1.59375,1.65625 -0.8802038,0 -1.59375,-0.741528 -1.59375,-1.65625 0,-0.914722 0.7135462,-1.65625 1.59375,-1.65625 0.8802038,0 1.59375,0.741528 1.59375,1.65625 z"
       transform="matrix(0.75294116,0,0,0.72452829,66.034559,1012.9894)" />
    <path
       transform="matrix(0.62745097,0,0,0.60377357,75.929215,1017.0622)"
       d="m 7.375,26.03125 c 0,0.914722 -0.7135462,1.65625 -1.59375,1.65625 -0.8802038,0 -1.59375,-0.741528 -1.59375,-1.65625 0,-0.914722 0.7135462,-1.65625 1.59375,-1.65625 0.8802038,0 1.59375,0.741528 1.59375,1.65625 z"
       sodipodi:ry="1.65625"
       sodipodi:rx="1.59375"
       sodipodi:cy="26.03125"
       sodipodi:cx="5.78125"
       id="path3875"
       style="fill:url(#radialGradient3889);fill-opacity:1;stroke:#ad24b5;stroke-width:0.48740995;stroke-miterlimit:4;stroke-opacity:1;stroke-dasharray:none"
       sodipodi:type="arc" />
    <path
       transform="matrix(0.72156862,0,0,0.69433962,83.230087,1013.9464)"
       d="m 7.375,26.03125 c 0,0.914722 -0.7135462,1.65625 -1.59375,1.65625 -0.8802038,0 -1.59375,-0.741528 -1.59375,-1.65625 0,-0.914722 0.7135462,-1.65625 1.59375,-1.65625 0.8802038,0 1.59375,0.741528 1.59375,1.65625 z"
       sodipodi:ry="1.65625"
       sodipodi:rx="1.59375"
       sodipodi:cy="26.03125"
       sodipodi:cx="5.78125"
       id="path3877"
       style="fill:url(#radialGradient3891);fill-opacity:1;stroke:#ad24b5;stroke-width:0.42383465;stroke-miterlimit:4;stroke-opacity:1;stroke-dasharray:none"
       sodipodi:type="arc" />
    <path
       sodipodi:type="arc"
       style="fill:url(#radialGradient3893);fill-opacity:1;stroke:#ad24b5;stroke-width:1.94963992;stroke-miterlimit:4;stroke-opacity:1;stroke-dasharray:none"
       id="path3879"
       sodipodi:cx="5.78125"
       sodipodi:cy="26.03125"
       sodipodi:rx="1.59375"
       sodipodi:ry="1.65625"
       d="m 7.375,26.03125 c 0,0.914722 -0.7135462,1.65625 -1.59375,1.65625 -0.8802038,0 -1.59375,-0.741528 -1.59375,-1.65625 0,-0.914722 0.7135462,-1.65625 1.59375,-1.65625 0.8802038,0 1.59375,0.741528 1.59375,1.65625 z"
       transform="matrix(0.15686273,0,0,0.15094338,79.524803,1022.975)" />
    <path
       clip-path="none"
       transform="matrix(1.1607843,0,0,1.1169811,74.326715,1012.1234)"
       d="m 7.375,26.03125 c 0,0.914722 -0.7135462,1.65625 -1.59375,1.65625 -0.8802038,0 -1.59375,-0.741528 -1.59375,-1.65625 0,-0.914722 0.7135462,-1.65625 1.59375,-1.65625 0.8802038,0 1.59375,0.741528 1.59375,1.65625 z"
       sodipodi:ry="1.65625"
       sodipodi:rx="1.59375"
       sodipodi:cy="26.03125"
       sodipodi:cx="5.78125"
       id="path3885"
       style="fill:url(#radialGradient3899);fill-opacity:1;stroke:#ad24b5;stroke-width:0.26346481;stroke-miterlimit:4;stroke-opacity:1;stroke-dasharray:none"
       sodipodi:type="arc" />
    <path
       clip-path="url(#clipPath3869)"
       transform="matrix(1.1607843,0,0,1.1169811,82.326715,1016.1234)"
       d="m 7.375,26.03125 c 0,0.914722 -0.7135462,1.65625 -1.59375,1.65625 -0.8802038,0 -1.59375,-0.741528 -1.59375,-1.65625 0,-0.914722 0.7135462,-1.65625 1.59375,-1.65625 0.8802038,0 1.59375,0.741528 1.59375,1.65625 z"
       sodipodi:ry="1.65625"
       sodipodi:rx="1.59375"
       sodipodi:cy="26.03125"
       sodipodi:cx="5.78125"
       id="path3903"
       style="fill:url(#radialGradient3905);fill-opacity:1;stroke:#ad24b5;stroke-width:0.26346481;stroke-miterlimit:4;stroke-opacity:1;stroke-dasharray:none"
       sodipodi:type="arc" />
    <path
       sodipodi:type="arc"
       style="fill:url(#radialGradient3909);fill-opacity:1;stroke:#ad24b5;stroke-width:0.23209995;stroke-miterlimit:4;stroke-opacity:1;stroke-dasharray:none"
       id="path3907"
       sodipodi:cx="5.78125"
       sodipodi:cy="26.03125"
       sodipodi:rx="1.59375"
       sodipodi:ry="1.65625"
       d="m 7.375,26.03125 c 0,0.914722 -0.7135462,1.65625 -1.59375,1.65625 -0.8802038,0 -1.59375,-0.741528 -1.59375,-1.65625 0,-0.914722 0.7135462,-1.65625 1.59375,-1.65625 0.8802038,0 1.59375,0.741528 1.59375,1.65625 z"
       transform="matrix(1.3176471,0,0,1.2679245,64.669852,1011.7065)"
       clip-path="url(#clipPath3913)" />
  </g>
</svg>
