<?xml version="1.0" encoding="UTF-8" standalone="no"?>
<!-- Created with Inkscape (http://www.inkscape.org/) -->

<svg
   xmlns:dc="http://purl.org/dc/elements/1.1/"
   xmlns:cc="http://creativecommons.org/ns#"
   xmlns:rdf="http://www.w3.org/1999/02/22-rdf-syntax-ns#"
   xmlns:svg="http://www.w3.org/2000/svg"
   xmlns="http://www.w3.org/2000/svg"
   xmlns:xlink="http://www.w3.org/1999/xlink"
   xmlns:sodipodi="http://sodipodi.sourceforge.net/DTD/sodipodi-0.dtd"
   xmlns:inkscape="http://www.inkscape.org/namespaces/inkscape"
   width="40"
   height="29"
   viewBox="0 0 39.999999 29.000001"
   id="svg2"
   version="1.1"
   inkscape:version="0.91 r"
   sodipodi:docname="Projectile5.svg"
   inkscape:export-filename="/home/victor/aleva/super-bombinhas/data/img/sprite/Projectile5.png"
   inkscape:export-xdpi="90"
   inkscape:export-ydpi="90">
  <defs
     id="defs4">
    <linearGradient
       inkscape:collect="always"
       id="linearGradient4142">
      <stop
         style="stop-color:#94ddf0;stop-opacity:1"
         offset="0"
         id="stop4144" />
      <stop
         style="stop-color:#00a2cc;stop-opacity:1"
         offset="1"
         id="stop4146" />
    </linearGradient>
    <radialGradient
       inkscape:collect="always"
       xlink:href="#linearGradient4142"
       id="radialGradient4148"
       cx="21.522774"
       cy="1031.7719"
       fx="21.522774"
       fy="1031.7719"
       r="10.194093"
       gradientTransform="matrix(1.0790564,0,0,1.0790564,-3.8774851,-80.503826)"
       gradientUnits="userSpaceOnUse" />
  </defs>
  <sodipodi:namedview
     id="base"
     pagecolor="#ffffff"
     bordercolor="#666666"
     borderopacity="1.0"
     inkscape:pageopacity="0.0"
     inkscape:pageshadow="2"
     inkscape:zoom="16"
     inkscape:cx="20.083496"
     inkscape:cy="14.115959"
     inkscape:document-units="px"
     inkscape:current-layer="layer1"
     showgrid="false"
     units="px" />
  <metadata
     id="metadata7">
    <rdf:RDF>
      <cc:Work
         rdf:about="">
        <dc:format>image/svg+xml</dc:format>
        <dc:type
           rdf:resource="http://purl.org/dc/dcmitype/StillImage" />
        <dc:title />
      </cc:Work>
    </rdf:RDF>
  </metadata>
  <g
     inkscape:label="Layer 1"
     inkscape:groupmode="layer"
     id="layer1"
     transform="translate(0,-1023.3622)">
    <circle
       style="opacity:1;fill:url(#radialGradient4148);fill-opacity:1;stroke:none;stroke-width:1;stroke-linecap:round;stroke-linejoin:round;stroke-miterlimit:4;stroke-dasharray:none;stroke-opacity:1"
       id="path4136"
       cx="26.5"
       cy="1037.8622"
       r="11.000001" />
    <path
       style="opacity:0.52600002;fill:#89e7ff;fill-opacity:1;stroke:none;stroke-width:1;stroke-linecap:round;stroke-linejoin:round;stroke-miterlimit:4;stroke-dasharray:none;stroke-opacity:1"
       d="m 3.5780572,1041.5428 11.0717298,2.2953 4.99578,4.7933 4.590718,2.0253 8.168776,-0.4051 7.223629,-8.5063 -0.270043,-5.9409 -2.160337,-7.0211 -7.966245,-4.1182 -11.409283,0.5401 -8.3037966,3.9156 -3.1054852,0.8777 5.4008438,0.54 11.206751,-1.6202 6.481012,1.8228 1.282701,3.578 -1.21519,2.2954 -6.953587,0.6751 -4.725738,-3.173 2.025316,3.6456 5.603376,2.4304 -1.620253,1.6202 -10.801688,-1.2152 -6.2784805,0.4726 z"
       id="path4138"
       inkscape:connector-curvature="0" />
    <path
       style="opacity:0.32699998;fill:#47a7bf;fill-opacity:1;stroke:none;stroke-width:1;stroke-linecap:round;stroke-linejoin:round;stroke-miterlimit:4;stroke-dasharray:none;stroke-opacity:1"
       d="M -1.9073489e-6,1035.2643 6.0759474,1032.2938 l 6.2784806,-0.6076 5.063291,-1.6877 7.966245,-2.4979 7.021097,1.6877 4.118143,3.2405 0.540085,2.8355 0.337553,4.9283 -2.700422,4.1181 -5.333334,3.7131 -8.168776,-1.4853 -7.966245,-4.7257 -3.4430376,-4.2532 4.9957806,2.2954 5.130801,-0.068 3.308017,-3.308 -2.025316,-2.8355 -6.210971,-1.3502 -7.9662439,0.6751 z"
       id="path4140"
       inkscape:connector-curvature="0" />
    <path
       style="opacity:0.75899999;fill:#ffffff;fill-opacity:1;stroke:none;stroke-width:1;stroke-linecap:round;stroke-linejoin:round;stroke-miterlimit:4;stroke-dasharray:none;stroke-opacity:1"
       d="m 8.5124036,1031.2378 6.8059024,-1.8562 2.386485,-1.5026 5.214913,-1.4142 4.331029,0 4.242641,1.5026 3.093592,1.7678 1.149048,3.2703 -3.270369,-2.74 -4.596194,-1.5026 -6.452349,-0.088 -5.303301,1.5026 -5.303301,0.9723 z"
       id="path4158"
       inkscape:connector-curvature="0" />
    <path
       style="opacity:0.75899999;fill:#ffffff;fill-opacity:1;stroke:none;stroke-width:1;stroke-linecap:round;stroke-linejoin:round;stroke-miterlimit:4;stroke-dasharray:none;stroke-opacity:1"
       d="m 37.857335,1039.4579 -0.265165,-2.1213 -2.916816,-3.182 -3.535534,-1.7678 -4.419417,-0.3535 -4.684583,1.3258 -3.447145,1.0607 -3.800699,0 2.916815,0.5303 2.651651,-0.088 5.391689,-0.9723 4.154252,-0.3535 3.535534,1.0606 2.651651,1.9446 1.856155,3.2703 z"
       id="path4160"
       inkscape:connector-curvature="0" />
    <path
       style="opacity:0.75899999;fill:#ffffff;fill-opacity:1;stroke:none;stroke-width:1;stroke-linecap:round;stroke-linejoin:round;stroke-miterlimit:4;stroke-dasharray:none;stroke-opacity:1"
       d="m 37.150228,1042.1095 -2.474874,2.1214 -3.18198,2.0329 -3.270369,0.5303 -4.507806,-1.9445 -2.032932,-2.6517 -2.209709,-1.591 -4.507805,-0.088 -6.2755727,1.5026 5.9220187,-0.2652 3.358757,0.088 3.358758,2.3865 3.623922,2.4748 4.242641,1.0607 4.949747,-1.0607 2.209709,-2.6516 z"
       id="path4162"
       inkscape:connector-curvature="0" />
    <path
       style="opacity:0.75899999;fill:#ffffff;fill-opacity:1;stroke:none;stroke-width:1;stroke-linecap:round;stroke-linejoin:round;stroke-miterlimit:4;stroke-dasharray:none;stroke-opacity:1"
       d="m 25.306189,1051.2135 -5.745242,0.3536 -3.181981,-1.591 -3.977475,-1.149 3.18198,1.5026 3.358757,1.9445 4.507806,0.088 z"
       id="path4164"
       inkscape:connector-curvature="0" />
    <path
       style="opacity:0.75899999;fill:#ffffff;fill-opacity:1;stroke:none;stroke-width:1;stroke-linecap:round;stroke-linejoin:round;stroke-miterlimit:4;stroke-dasharray:none;stroke-opacity:1"
       d="m 38.034111,1030.7958 -2.474873,-3.8891 -4.419418,-2.6516 -4.331029,-0.8839 4.772971,0.3536 4.949747,2.1213 1.237437,2.4749 z"
       id="path4166"
       inkscape:connector-curvature="0" />
  </g>
</svg>
