<?xml version="1.0" encoding="UTF-8" standalone="no"?>
<!-- Created with Inkscape (http://www.inkscape.org/) -->

<svg
   xmlns:dc="http://purl.org/dc/elements/1.1/"
   xmlns:cc="http://creativecommons.org/ns#"
   xmlns:rdf="http://www.w3.org/1999/02/22-rdf-syntax-ns#"
   xmlns:svg="http://www.w3.org/2000/svg"
   xmlns="http://www.w3.org/2000/svg"
   xmlns:xlink="http://www.w3.org/1999/xlink"
   xmlns:sodipodi="http://sodipodi.sourceforge.net/DTD/sodipodi-0.dtd"
   xmlns:inkscape="http://www.inkscape.org/namespaces/inkscape"
   width="48"
   height="24"
   id="svg2"
   version="1.1"
   inkscape:version="0.48.4 r9939"
   sodipodi:docname="Projectile2.svg"
   inkscape:export-filename="/home/victor/aleva/super-bombinhas/data/img/sprite/Projectile2.png"
   inkscape:export-xdpi="90"
   inkscape:export-ydpi="90">
  <defs
     id="defs4">
    <linearGradient
       id="linearGradient3765">
      <stop
         style="stop-color:#d15700;stop-opacity:1;"
         offset="0"
         id="stop3767" />
      <stop
         style="stop-color:#331600;stop-opacity:1;"
         offset="1"
         id="stop3769" />
    </linearGradient>
    <radialGradient
       inkscape:collect="always"
       xlink:href="#linearGradient3765"
       id="radialGradient3771"
       cx="6"
       cy="1034.3621"
       fx="6"
       fy="1034.3621"
       r="5.9"
       gradientUnits="userSpaceOnUse" />
    <filter
       inkscape:collect="always"
       id="filter3843"
       x="-0.14315625"
       width="1.2863125"
       y="-0.15796552"
       height="1.315931">
      <feGaussianBlur
         inkscape:collect="always"
         stdDeviation="0.11929688"
         id="feGaussianBlur3845" />
    </filter>
    <filter
       inkscape:collect="always"
       id="filter3847"
       x="-0.17964706"
       width="1.3592941"
       y="-0.15796552"
       height="1.315931">
      <feGaussianBlur
         inkscape:collect="always"
         stdDeviation="0.11929688"
         id="feGaussianBlur3849" />
    </filter>
    <filter
       inkscape:collect="always"
       id="filter3851"
       x="-0.15796552"
       width="1.315931"
       y="-0.21306977"
       height="1.4261395">
      <feGaussianBlur
         inkscape:collect="always"
         stdDeviation="0.11929688"
         id="feGaussianBlur3853" />
    </filter>
    <filter
       inkscape:collect="always"
       id="filter3855"
       x="-0.24110526"
       width="1.4822105"
       y="-0.13088571"
       height="1.2617714">
      <feGaussianBlur
         inkscape:collect="always"
         stdDeviation="0.11929688"
         id="feGaussianBlur3857" />
    </filter>
    <filter
       inkscape:collect="always"
       id="filter3859"
       x="-0.13278261"
       width="1.2655652"
       y="-0.10778824"
       height="1.2155765">
      <feGaussianBlur
         inkscape:collect="always"
         stdDeviation="0.11929688"
         id="feGaussianBlur3861" />
    </filter>
    <radialGradient
       inkscape:collect="always"
       xlink:href="#linearGradient3765"
       id="radialGradient3885"
       gradientUnits="userSpaceOnUse"
       cx="6"
       cy="1034.3621"
       fx="6"
       fy="1034.3621"
       r="5.9" />
    <radialGradient
       inkscape:collect="always"
       xlink:href="#linearGradient3765"
       id="radialGradient3901"
       gradientUnits="userSpaceOnUse"
       cx="6"
       cy="1034.3621"
       fx="6"
       fy="1034.3621"
       r="5.9" />
    <radialGradient
       inkscape:collect="always"
       xlink:href="#linearGradient3765"
       id="radialGradient3917"
       gradientUnits="userSpaceOnUse"
       cx="6"
       cy="1034.3621"
       fx="6"
       fy="1034.3621"
       r="5.9" />
    <radialGradient
       inkscape:collect="always"
       xlink:href="#linearGradient3765"
       id="radialGradient3933"
       gradientUnits="userSpaceOnUse"
       cx="6"
       cy="1034.3621"
       fx="6"
       fy="1034.3621"
       r="5.9" />
    <radialGradient
       inkscape:collect="always"
       xlink:href="#linearGradient3765"
       id="radialGradient3949"
       gradientUnits="userSpaceOnUse"
       cx="6"
       cy="1034.3621"
       fx="6"
       fy="1034.3621"
       r="5.9" />
    <radialGradient
       inkscape:collect="always"
       xlink:href="#linearGradient3765"
       id="radialGradient3965"
       gradientUnits="userSpaceOnUse"
       cx="6"
       cy="1034.3621"
       fx="6"
       fy="1034.3621"
       r="5.9" />
    <radialGradient
       inkscape:collect="always"
       xlink:href="#linearGradient3765"
       id="radialGradient3981"
       gradientUnits="userSpaceOnUse"
       cx="6"
       cy="1034.3621"
       fx="6"
       fy="1034.3621"
       r="5.9" />
  </defs>
  <sodipodi:namedview
     id="base"
     pagecolor="#ffffff"
     bordercolor="#666666"
     borderopacity="1.0"
     inkscape:pageopacity="0.0"
     inkscape:pageshadow="2"
     inkscape:zoom="1"
     inkscape:cx="26.752198"
     inkscape:cy="16.319539"
     inkscape:document-units="px"
     inkscape:current-layer="layer1"
     showgrid="false"
     inkscape:window-width="1366"
     inkscape:window-height="716"
     inkscape:window-x="0"
     inkscape:window-y="0"
     inkscape:window-maximized="1" />
  <metadata
     id="metadata7">
    <rdf:RDF>
      <cc:Work
         rdf:about="">
        <dc:format>image/svg+xml</dc:format>
        <dc:type
           rdf:resource="http://purl.org/dc/dcmitype/StillImage" />
        <dc:title></dc:title>
      </cc:Work>
    </rdf:RDF>
  </metadata>
  <g
     inkscape:label="Layer 1"
     inkscape:groupmode="layer"
     id="layer1"
     transform="translate(0,-1028.3622)">
    <g
       id="g3863">
      <path
         inkscape:connector-curvature="0"
         id="path3753"
         d="m 4.1914574,1031.1445 -1.3638191,-0.7508 -1.5417086,1.1264 -1.1859297,2.3063 0.65226131,2.0918 1.18592969,-0.1073 -1.42311562,0.9119 1.48241212,1.77 1.126633,-0.6437 -0.1185927,0.59 1.6603014,0.053 -0.237186,1.1263 2.0753769,0.6437 2.1346734,-0.9118 -0.355779,-2.3064 0.7708543,1.5554 2.0753772,-1.8236 0.770854,-2.0918 -0.652261,-2.4673 -1.6603018,-0.3754 1.0673368,-1.1264 -1.0673368,-1.0728 -2.8462311,-1.1799 -1.4231157,0 0,1.3409 -0.8894472,-0.7509 -1.245226,0.8046 z"
         style="fill:url(#radialGradient3771);fill-opacity:1;stroke:none" />
      <path
         transform="translate(0,1028.3622)"
         inkscape:connector-curvature="0"
         id="path3773"
         d="M 3.59375,7.5 5,7.40625 5.3125,9.15625 5.75,6.5 z"
         style="fill:#000000;fill-opacity:1;fill-rule:evenodd;stroke:none;filter:url(#filter3859);opacity:0.7" />
      <path
         transform="translate(0,1028.3622)"
         inkscape:connector-curvature="0"
         id="path3775"
         d="M 7.84375,7.40625 7.90625,5.75 9.84375,5.59375 8.5,6.375 z"
         style="fill:#000000;fill-opacity:1;fill-rule:evenodd;stroke:none;filter:url(#filter3843);opacity:0.7" />
      <path
         transform="translate(0,1028.3622)"
         inkscape:connector-curvature="0"
         id="path3777"
         d="m 6.3125,4.9062499 0.03125,-0.9375 -1.34375,0.5 1.3125,-0.90625 0.5,0.21875 z"
         style="fill:#000000;fill-opacity:1;fill-rule:evenodd;stroke:none;filter:url(#filter3851);opacity:0.7" />
      <path
         transform="translate(0,1028.3622)"
         inkscape:connector-curvature="0"
         id="path3779"
         d="m 8.5,3.3124999 -1.28125,-0.40625 -0.3125,-1.40625 0.625,1.0625 z"
         style="fill:#000000;fill-opacity:1;fill-rule:evenodd;stroke:none;filter:url(#filter3847);opacity:0.7" />
      <path
         transform="translate(0,1028.3622)"
         inkscape:connector-curvature="0"
         id="path3781"
         d="m 2.34375,3.5312499 0.4375,0.96875 -1.1875,1.2187501 0.625,-1.1875001 z"
         style="fill:#000000;fill-opacity:1;fill-rule:evenodd;stroke:none;filter:url(#filter3855);opacity:0.7" />
    </g>
    <g
       id="g3871"
       transform="matrix(0.70710678,-0.70710678,0.70710678,0.70710678,-717.6471,307.20029)">
      <path
         style="fill:url(#radialGradient3885);fill-opacity:1;stroke:none"
         d="m 4.1914574,1031.1445 -1.3638191,-0.7508 -1.5417086,1.1264 -1.1859297,2.3063 0.65226131,2.0918 1.18592969,-0.1073 -1.42311562,0.9119 1.48241212,1.77 1.126633,-0.6437 -0.1185927,0.59 1.6603014,0.053 -0.237186,1.1263 2.0753769,0.6437 2.1346734,-0.9118 -0.355779,-2.3064 0.7708543,1.5554 2.0753772,-1.8236 0.770854,-2.0918 -0.652261,-2.4673 -1.6603018,-0.3754 1.0673368,-1.1264 -1.0673368,-1.0728 -2.8462311,-1.1799 -1.4231157,0 0,1.3409 -0.8894472,-0.7509 -1.245226,0.8046 z"
         id="path3873"
         inkscape:connector-curvature="0" />
      <path
         style="opacity:0.7;fill:#000000;fill-opacity:1;fill-rule:evenodd;stroke:none;filter:url(#filter3859)"
         d="M 3.59375,7.5 5,7.40625 5.3125,9.15625 5.75,6.5 z"
         id="path3875"
         inkscape:connector-curvature="0"
         transform="translate(0,1028.3622)" />
      <path
         style="opacity:0.7;fill:#000000;fill-opacity:1;fill-rule:evenodd;stroke:none;filter:url(#filter3843)"
         d="M 7.84375,7.40625 7.90625,5.75 9.84375,5.59375 8.5,6.375 z"
         id="path3877"
         inkscape:connector-curvature="0"
         transform="translate(0,1028.3622)" />
      <path
         style="opacity:0.7;fill:#000000;fill-opacity:1;fill-rule:evenodd;stroke:none;filter:url(#filter3851)"
         d="m 6.3125,4.9062499 0.03125,-0.9375 -1.34375,0.5 1.3125,-0.90625 0.5,0.21875 z"
         id="path3879"
         inkscape:connector-curvature="0"
         transform="translate(0,1028.3622)" />
      <path
         style="opacity:0.7;fill:#000000;fill-opacity:1;fill-rule:evenodd;stroke:none;filter:url(#filter3847)"
         d="m 8.5,3.3124999 -1.28125,-0.40625 -0.3125,-1.40625 0.625,1.0625 z"
         id="path3881"
         inkscape:connector-curvature="0"
         transform="translate(0,1028.3622)" />
      <path
         style="opacity:0.7;fill:#000000;fill-opacity:1;fill-rule:evenodd;stroke:none;filter:url(#filter3855)"
         d="m 2.34375,3.5312499 0.4375,0.96875 -1.1875,1.2187501 0.625,-1.1875001 z"
         id="path3883"
         inkscape:connector-curvature="0"
         transform="translate(0,1028.3622)" />
    </g>
    <g
       id="g3887"
       transform="matrix(0,-1,1,0,-1004.3621,1040.3621)">
      <path
         style="fill:url(#radialGradient3901);fill-opacity:1;stroke:none"
         d="m 4.1914574,1031.1445 -1.3638191,-0.7508 -1.5417086,1.1264 -1.1859297,2.3063 0.65226131,2.0918 1.18592969,-0.1073 -1.42311562,0.9119 1.48241212,1.77 1.126633,-0.6437 -0.1185927,0.59 1.6603014,0.053 -0.237186,1.1263 2.0753769,0.6437 2.1346734,-0.9118 -0.355779,-2.3064 0.7708543,1.5554 2.0753772,-1.8236 0.770854,-2.0918 -0.652261,-2.4673 -1.6603018,-0.3754 1.0673368,-1.1264 -1.0673368,-1.0728 -2.8462311,-1.1799 -1.4231157,0 0,1.3409 -0.8894472,-0.7509 -1.245226,0.8046 z"
         id="path3889"
         inkscape:connector-curvature="0" />
      <path
         style="opacity:0.7;fill:#000000;fill-opacity:1;fill-rule:evenodd;stroke:none;filter:url(#filter3859)"
         d="M 3.59375,7.5 5,7.40625 5.3125,9.15625 5.75,6.5 z"
         id="path3891"
         inkscape:connector-curvature="0"
         transform="translate(0,1028.3622)" />
      <path
         style="opacity:0.7;fill:#000000;fill-opacity:1;fill-rule:evenodd;stroke:none;filter:url(#filter3843)"
         d="M 7.84375,7.40625 7.90625,5.75 9.84375,5.59375 8.5,6.375 z"
         id="path3893"
         inkscape:connector-curvature="0"
         transform="translate(0,1028.3622)" />
      <path
         style="opacity:0.7;fill:#000000;fill-opacity:1;fill-rule:evenodd;stroke:none;filter:url(#filter3851)"
         d="m 6.3125,4.9062499 0.03125,-0.9375 -1.34375,0.5 1.3125,-0.90625 0.5,0.21875 z"
         id="path3895"
         inkscape:connector-curvature="0"
         transform="translate(0,1028.3622)" />
      <path
         style="opacity:0.7;fill:#000000;fill-opacity:1;fill-rule:evenodd;stroke:none;filter:url(#filter3847)"
         d="m 8.5,3.3124999 -1.28125,-0.40625 -0.3125,-1.40625 0.625,1.0625 z"
         id="path3897"
         inkscape:connector-curvature="0"
         transform="translate(0,1028.3622)" />
      <path
         style="opacity:0.7;fill:#000000;fill-opacity:1;fill-rule:evenodd;stroke:none;filter:url(#filter3855)"
         d="m 2.34375,3.5312499 0.4375,0.96875 -1.1875,1.2187501 0.625,-1.1875001 z"
         id="path3899"
         inkscape:connector-curvature="0"
         transform="translate(0,1028.3622)" />
    </g>
    <g
       transform="matrix(-0.70710678,-0.70710678,0.70710678,-0.70710678,-685.16181,1770.0092)"
       id="g3903">
      <path
         inkscape:connector-curvature="0"
         id="path3905"
         d="m 4.1914574,1031.1445 -1.3638191,-0.7508 -1.5417086,1.1264 -1.1859297,2.3063 0.65226131,2.0918 1.18592969,-0.1073 -1.42311562,0.9119 1.48241212,1.77 1.126633,-0.6437 -0.1185927,0.59 1.6603014,0.053 -0.237186,1.1263 2.0753769,0.6437 2.1346734,-0.9118 -0.355779,-2.3064 0.7708543,1.5554 2.0753772,-1.8236 0.770854,-2.0918 -0.652261,-2.4673 -1.6603018,-0.3754 1.0673368,-1.1264 -1.0673368,-1.0728 -2.8462311,-1.1799 -1.4231157,0 0,1.3409 -0.8894472,-0.7509 -1.245226,0.8046 z"
         style="fill:url(#radialGradient3917);fill-opacity:1;stroke:none" />
      <path
         transform="translate(0,1028.3622)"
         inkscape:connector-curvature="0"
         id="path3907"
         d="M 3.59375,7.5 5,7.40625 5.3125,9.15625 5.75,6.5 z"
         style="opacity:0.7;fill:#000000;fill-opacity:1;fill-rule:evenodd;stroke:none;filter:url(#filter3859)" />
      <path
         transform="translate(0,1028.3622)"
         inkscape:connector-curvature="0"
         id="path3909"
         d="M 7.84375,7.40625 7.90625,5.75 9.84375,5.59375 8.5,6.375 z"
         style="opacity:0.7;fill:#000000;fill-opacity:1;fill-rule:evenodd;stroke:none;filter:url(#filter3843)" />
      <path
         transform="translate(0,1028.3622)"
         inkscape:connector-curvature="0"
         id="path3911"
         d="m 6.3125,4.9062499 0.03125,-0.9375 -1.34375,0.5 1.3125,-0.90625 0.5,0.21875 z"
         style="opacity:0.7;fill:#000000;fill-opacity:1;fill-rule:evenodd;stroke:none;filter:url(#filter3851)" />
      <path
         transform="translate(0,1028.3622)"
         inkscape:connector-curvature="0"
         id="path3913"
         d="m 8.5,3.3124999 -1.28125,-0.40625 -0.3125,-1.40625 0.625,1.0625 z"
         style="opacity:0.7;fill:#000000;fill-opacity:1;fill-rule:evenodd;stroke:none;filter:url(#filter3847)" />
      <path
         transform="translate(0,1028.3622)"
         inkscape:connector-curvature="0"
         id="path3915"
         d="m 2.34375,3.5312499 0.4375,0.96875 -1.1875,1.2187501 0.625,-1.1875001 z"
         style="opacity:0.7;fill:#000000;fill-opacity:1;fill-rule:evenodd;stroke:none;filter:url(#filter3855)" />
    </g>
    <g
       id="g3919"
       transform="matrix(-1,0,0,-1,12,2080.7242)">
      <path
         style="fill:url(#radialGradient3933);fill-opacity:1;stroke:none"
         d="m 4.1914574,1031.1445 -1.3638191,-0.7508 -1.5417086,1.1264 -1.1859297,2.3063 0.65226131,2.0918 1.18592969,-0.1073 -1.42311562,0.9119 1.48241212,1.77 1.126633,-0.6437 -0.1185927,0.59 1.6603014,0.053 -0.237186,1.1263 2.0753769,0.6437 2.1346734,-0.9118 -0.355779,-2.3064 0.7708543,1.5554 2.0753772,-1.8236 0.770854,-2.0918 -0.652261,-2.4673 -1.6603018,-0.3754 1.0673368,-1.1264 -1.0673368,-1.0728 -2.8462311,-1.1799 -1.4231157,0 0,1.3409 -0.8894472,-0.7509 -1.245226,0.8046 z"
         id="path3921"
         inkscape:connector-curvature="0" />
      <path
         style="opacity:0.7;fill:#000000;fill-opacity:1;fill-rule:evenodd;stroke:none;filter:url(#filter3859)"
         d="M 3.59375,7.5 5,7.40625 5.3125,9.15625 5.75,6.5 z"
         id="path3923"
         inkscape:connector-curvature="0"
         transform="translate(0,1028.3622)" />
      <path
         style="opacity:0.7;fill:#000000;fill-opacity:1;fill-rule:evenodd;stroke:none;filter:url(#filter3843)"
         d="M 7.84375,7.40625 7.90625,5.75 9.84375,5.59375 8.5,6.375 z"
         id="path3925"
         inkscape:connector-curvature="0"
         transform="translate(0,1028.3622)" />
      <path
         style="opacity:0.7;fill:#000000;fill-opacity:1;fill-rule:evenodd;stroke:none;filter:url(#filter3851)"
         d="m 6.3125,4.9062499 0.03125,-0.9375 -1.34375,0.5 1.3125,-0.90625 0.5,0.21875 z"
         id="path3927"
         inkscape:connector-curvature="0"
         transform="translate(0,1028.3622)" />
      <path
         style="opacity:0.7;fill:#000000;fill-opacity:1;fill-rule:evenodd;stroke:none;filter:url(#filter3847)"
         d="m 8.5,3.3124999 -1.28125,-0.40625 -0.3125,-1.40625 0.625,1.0625 z"
         id="path3929"
         inkscape:connector-curvature="0"
         transform="translate(0,1028.3622)" />
      <path
         style="opacity:0.7;fill:#000000;fill-opacity:1;fill-rule:evenodd;stroke:none;filter:url(#filter3855)"
         d="m 2.34375,3.5312499 0.4375,0.96875 -1.1875,1.2187501 0.625,-1.1875001 z"
         id="path3931"
         inkscape:connector-curvature="0"
         transform="translate(0,1028.3622)" />
    </g>
    <g
       transform="matrix(-0.70710678,0.70710678,-0.70710678,-0.70710678,753.6471,1773.5239)"
       id="g3935">
      <path
         inkscape:connector-curvature="0"
         id="path3937"
         d="m 4.1914574,1031.1445 -1.3638191,-0.7508 -1.5417086,1.1264 -1.1859297,2.3063 0.65226131,2.0918 1.18592969,-0.1073 -1.42311562,0.9119 1.48241212,1.77 1.126633,-0.6437 -0.1185927,0.59 1.6603014,0.053 -0.237186,1.1263 2.0753769,0.6437 2.1346734,-0.9118 -0.355779,-2.3064 0.7708543,1.5554 2.0753772,-1.8236 0.770854,-2.0918 -0.652261,-2.4673 -1.6603018,-0.3754 1.0673368,-1.1264 -1.0673368,-1.0728 -2.8462311,-1.1799 -1.4231157,0 0,1.3409 -0.8894472,-0.7509 -1.245226,0.8046 z"
         style="fill:url(#radialGradient3949);fill-opacity:1;stroke:none" />
      <path
         transform="translate(0,1028.3622)"
         inkscape:connector-curvature="0"
         id="path3939"
         d="M 3.59375,7.5 5,7.40625 5.3125,9.15625 5.75,6.5 z"
         style="opacity:0.7;fill:#000000;fill-opacity:1;fill-rule:evenodd;stroke:none;filter:url(#filter3859)" />
      <path
         transform="translate(0,1028.3622)"
         inkscape:connector-curvature="0"
         id="path3941"
         d="M 7.84375,7.40625 7.90625,5.75 9.84375,5.59375 8.5,6.375 z"
         style="opacity:0.7;fill:#000000;fill-opacity:1;fill-rule:evenodd;stroke:none;filter:url(#filter3843)" />
      <path
         transform="translate(0,1028.3622)"
         inkscape:connector-curvature="0"
         id="path3943"
         d="m 6.3125,4.9062499 0.03125,-0.9375 -1.34375,0.5 1.3125,-0.90625 0.5,0.21875 z"
         style="opacity:0.7;fill:#000000;fill-opacity:1;fill-rule:evenodd;stroke:none;filter:url(#filter3851)" />
      <path
         transform="translate(0,1028.3622)"
         inkscape:connector-curvature="0"
         id="path3945"
         d="m 8.5,3.3124999 -1.28125,-0.40625 -0.3125,-1.40625 0.625,1.0625 z"
         style="opacity:0.7;fill:#000000;fill-opacity:1;fill-rule:evenodd;stroke:none;filter:url(#filter3847)" />
      <path
         transform="translate(0,1028.3622)"
         inkscape:connector-curvature="0"
         id="path3947"
         d="m 2.34375,3.5312499 0.4375,0.96875 -1.1875,1.2187501 0.625,-1.1875001 z"
         style="opacity:0.7;fill:#000000;fill-opacity:1;fill-rule:evenodd;stroke:none;filter:url(#filter3855)" />
    </g>
    <g
       transform="matrix(0,1,-1,0,1064.3621,1040.3621)"
       id="g3951">
      <path
         inkscape:connector-curvature="0"
         id="path3953"
         d="m 4.1914574,1031.1445 -1.3638191,-0.7508 -1.5417086,1.1264 -1.1859297,2.3063 0.65226131,2.0918 1.18592969,-0.1073 -1.42311562,0.9119 1.48241212,1.77 1.126633,-0.6437 -0.1185927,0.59 1.6603014,0.053 -0.237186,1.1263 2.0753769,0.6437 2.1346734,-0.9118 -0.355779,-2.3064 0.7708543,1.5554 2.0753772,-1.8236 0.770854,-2.0918 -0.652261,-2.4673 -1.6603018,-0.3754 1.0673368,-1.1264 -1.0673368,-1.0728 -2.8462311,-1.1799 -1.4231157,0 0,1.3409 -0.8894472,-0.7509 -1.245226,0.8046 z"
         style="fill:url(#radialGradient3965);fill-opacity:1;stroke:none" />
      <path
         transform="translate(0,1028.3622)"
         inkscape:connector-curvature="0"
         id="path3955"
         d="M 3.59375,7.5 5,7.40625 5.3125,9.15625 5.75,6.5 z"
         style="opacity:0.7;fill:#000000;fill-opacity:1;fill-rule:evenodd;stroke:none;filter:url(#filter3859)" />
      <path
         transform="translate(0,1028.3622)"
         inkscape:connector-curvature="0"
         id="path3957"
         d="M 7.84375,7.40625 7.90625,5.75 9.84375,5.59375 8.5,6.375 z"
         style="opacity:0.7;fill:#000000;fill-opacity:1;fill-rule:evenodd;stroke:none;filter:url(#filter3843)" />
      <path
         transform="translate(0,1028.3622)"
         inkscape:connector-curvature="0"
         id="path3959"
         d="m 6.3125,4.9062499 0.03125,-0.9375 -1.34375,0.5 1.3125,-0.90625 0.5,0.21875 z"
         style="opacity:0.7;fill:#000000;fill-opacity:1;fill-rule:evenodd;stroke:none;filter:url(#filter3851)" />
      <path
         transform="translate(0,1028.3622)"
         inkscape:connector-curvature="0"
         id="path3961"
         d="m 8.5,3.3124999 -1.28125,-0.40625 -0.3125,-1.40625 0.625,1.0625 z"
         style="opacity:0.7;fill:#000000;fill-opacity:1;fill-rule:evenodd;stroke:none;filter:url(#filter3847)" />
      <path
         transform="translate(0,1028.3622)"
         inkscape:connector-curvature="0"
         id="path3963"
         d="m 2.34375,3.5312499 0.4375,0.96875 -1.1875,1.2187501 0.625,-1.1875001 z"
         style="opacity:0.7;fill:#000000;fill-opacity:1;fill-rule:evenodd;stroke:none;filter:url(#filter3855)" />
    </g>
    <g
       id="g3967"
       transform="matrix(0.70710678,0.70710678,-0.70710678,0.70710678,769.16181,310.715)">
      <path
         style="fill:url(#radialGradient3981);fill-opacity:1;stroke:none"
         d="m 4.1914574,1031.1445 -1.3638191,-0.7508 -1.5417086,1.1264 -1.1859297,2.3063 0.65226131,2.0918 1.18592969,-0.1073 -1.42311562,0.9119 1.48241212,1.77 1.126633,-0.6437 -0.1185927,0.59 1.6603014,0.053 -0.237186,1.1263 2.0753769,0.6437 2.1346734,-0.9118 -0.355779,-2.3064 0.7708543,1.5554 2.0753772,-1.8236 0.770854,-2.0918 -0.652261,-2.4673 -1.6603018,-0.3754 1.0673368,-1.1264 -1.0673368,-1.0728 -2.8462311,-1.1799 -1.4231157,0 0,1.3409 -0.8894472,-0.7509 -1.245226,0.8046 z"
         id="path3969"
         inkscape:connector-curvature="0" />
      <path
         style="opacity:0.7;fill:#000000;fill-opacity:1;fill-rule:evenodd;stroke:none;filter:url(#filter3859)"
         d="M 3.59375,7.5 5,7.40625 5.3125,9.15625 5.75,6.5 z"
         id="path3971"
         inkscape:connector-curvature="0"
         transform="translate(0,1028.3622)" />
      <path
         style="opacity:0.7;fill:#000000;fill-opacity:1;fill-rule:evenodd;stroke:none;filter:url(#filter3843)"
         d="M 7.84375,7.40625 7.90625,5.75 9.84375,5.59375 8.5,6.375 z"
         id="path3973"
         inkscape:connector-curvature="0"
         transform="translate(0,1028.3622)" />
      <path
         style="opacity:0.7;fill:#000000;fill-opacity:1;fill-rule:evenodd;stroke:none;filter:url(#filter3851)"
         d="m 6.3125,4.9062499 0.03125,-0.9375 -1.34375,0.5 1.3125,-0.90625 0.5,0.21875 z"
         id="path3975"
         inkscape:connector-curvature="0"
         transform="translate(0,1028.3622)" />
      <path
         style="opacity:0.7;fill:#000000;fill-opacity:1;fill-rule:evenodd;stroke:none;filter:url(#filter3847)"
         d="m 8.5,3.3124999 -1.28125,-0.40625 -0.3125,-1.40625 0.625,1.0625 z"
         id="path3977"
         inkscape:connector-curvature="0"
         transform="translate(0,1028.3622)" />
      <path
         style="opacity:0.7;fill:#000000;fill-opacity:1;fill-rule:evenodd;stroke:none;filter:url(#filter3855)"
         d="m 2.34375,3.5312499 0.4375,0.96875 -1.1875,1.2187501 0.625,-1.1875001 z"
         id="path3979"
         inkscape:connector-curvature="0"
         transform="translate(0,1028.3622)" />
    </g>
  </g>
</svg>
