<?xml version="1.0" encoding="UTF-8" standalone="no"?>
<!-- Created with Inkscape (http://www.inkscape.org/) -->

<svg
   xmlns:dc="http://purl.org/dc/elements/1.1/"
   xmlns:cc="http://creativecommons.org/ns#"
   xmlns:rdf="http://www.w3.org/1999/02/22-rdf-syntax-ns#"
   xmlns:svg="http://www.w3.org/2000/svg"
   xmlns="http://www.w3.org/2000/svg"
   xmlns:xlink="http://www.w3.org/1999/xlink"
   xmlns:sodipodi="http://sodipodi.sourceforge.net/DTD/sodipodi-0.dtd"
   xmlns:inkscape="http://www.inkscape.org/namespaces/inkscape"
   width="116"
   height="116"
   id="svg2"
   version="1.1"
   inkscape:version="0.48.3.1 r9886"
   sodipodi:docname="spec.svg"
   inkscape:export-filename="/home/victor/aleva/super-bombinhas/src/data/img/sprite/Spec.png"
   inkscape:export-xdpi="90"
   inkscape:export-ydpi="90">
  <defs
     id="defs4">
    <linearGradient
       id="linearGradient3827">
      <stop
         style="stop-color:#ff0042;stop-opacity:1;"
         offset="0"
         id="stop3829" />
      <stop
         style="stop-color:#8200ff;stop-opacity:0;"
         offset="1"
         id="stop3831" />
    </linearGradient>
    <linearGradient
       id="linearGradient3802">
      <stop
         style="stop-color:#989898;stop-opacity:1;"
         offset="0"
         id="stop3804" />
      <stop
         id="stop3818"
         offset="0.17412168"
         style="stop-color:#ffffff;stop-opacity:1;" />
      <stop
         id="stop3816"
         offset="0.40177187"
         style="stop-color:#b9b9b9;stop-opacity:1;" />
      <stop
         id="stop3814"
         offset="0.59223944"
         style="stop-color:#cfcfcf;stop-opacity:1;" />
      <stop
         id="stop3812"
         offset="0.71351343"
         style="stop-color:#a0a0a0;stop-opacity:1;" />
      <stop
         id="stop3810"
         offset="0.76438493"
         style="stop-color:#ffffff;stop-opacity:1;" />
      <stop
         style="stop-color:#b3b3b3;stop-opacity:1;"
         offset="1"
         id="stop3806" />
    </linearGradient>
    <filter
       inkscape:collect="always"
       id="filter3798"
       color-interpolation-filters="sRGB">
      <feGaussianBlur
         inkscape:collect="always"
         stdDeviation="1.28"
         id="feGaussianBlur3800" />
    </filter>
    <linearGradient
       inkscape:collect="always"
       xlink:href="#linearGradient3802"
       id="linearGradient3808"
       x1="21.152542"
       y1="21.152542"
       x2="45.966103"
       y2="38.101696"
       gradientUnits="userSpaceOnUse"
       gradientTransform="translate(-3.2414644,934.11115)" />
    <radialGradient
       inkscape:collect="always"
       xlink:href="#linearGradient3827"
       id="radialGradient3833"
       cx="31.117125"
       cy="1019.7093"
       fx="31.117125"
       fy="1019.7093"
       r="13.017863"
       gradientTransform="matrix(1.0416637,-0.37497367,0.70518953,1.9589919,-723.62623,-1020.4758)"
       gradientUnits="userSpaceOnUse" />
    <radialGradient
       inkscape:collect="always"
       xlink:href="#linearGradient3827"
       id="radialGradient3835"
       cx="33.289654"
       cy="1019.5235"
       fx="33.289654"
       fy="1019.5235"
       r="13.017863"
       gradientTransform="matrix(0.98468088,-0.18383767,0.43432414,2.3263495,-445.53515,-1400.3757)"
       gradientUnits="userSpaceOnUse" />
    <radialGradient
       inkscape:collect="always"
       xlink:href="#linearGradient3827"
       id="radialGradient3841"
       gradientUnits="userSpaceOnUse"
       gradientTransform="matrix(0.79386175,0.77165544,-1.4512042,1.4929662,1483.5056,-581.97323)"
       cx="31.117125"
       cy="1019.7093"
       fx="31.117125"
       fy="1019.7093"
       r="13.017863" />
    <radialGradient
       inkscape:collect="always"
       xlink:href="#linearGradient3827"
       id="radialGradient3843"
       gradientUnits="userSpaceOnUse"
       gradientTransform="matrix(0.59709876,0.80427968,-1.9001442,1.4106706,1946.8863,-498.68527)"
       cx="33.289654"
       cy="1019.5235"
       fx="33.289654"
       fy="1019.5235"
       r="13.017863" />
    <radialGradient
       inkscape:collect="always"
       xlink:href="#linearGradient3827"
       id="radialGradient3849"
       gradientUnits="userSpaceOnUse"
       gradientTransform="matrix(-0.36848933,0.93145496,-2.200601,-0.87057139,2284.2938,1822.8946)"
       cx="33.289654"
       cy="1019.5235"
       fx="33.289654"
       fy="1019.5235"
       r="13.017863" />
    <radialGradient
       inkscape:collect="always"
       xlink:href="#linearGradient3827"
       id="radialGradient3851"
       gradientUnits="userSpaceOnUse"
       gradientTransform="matrix(-0.23700959,1.0814319,-2.0337815,-0.44572915,2110.7023,1385.2595)"
       cx="31.117125"
       cy="1019.7093"
       fx="31.117125"
       fy="1019.7093"
       r="13.017863" />
    <radialGradient
       inkscape:collect="always"
       xlink:href="#linearGradient3827"
       id="radialGradient3873"
       gradientUnits="userSpaceOnUse"
       gradientTransform="matrix(0.45500323,0.89511897,-1.8560294,0.94344929,1964.9645,-25.525444)"
       cx="31.117125"
       cy="1019.7093"
       fx="31.117125"
       fy="1019.7093"
       r="13.017863" />
    <radialGradient
       inkscape:collect="always"
       xlink:href="#linearGradient3827"
       id="radialGradient3875"
       gradientUnits="userSpaceOnUse"
       gradientTransform="matrix(-1.9506641,-0.39256641,0.35312365,-1.7546727,-208.57995,2768.3518)"
       cx="33.289654"
       cy="1019.5235"
       fx="33.289654"
       fy="1019.5235"
       r="13.017863" />
    <radialGradient
       inkscape:collect="always"
       xlink:href="#linearGradient3827"
       id="radialGradient3877"
       gradientUnits="userSpaceOnUse"
       gradientTransform="matrix(1.2778404,0.24016668,-0.43713229,2.3258235,491.17974,-1413.8825)"
       cx="33.28965"
       cy="1019.5235"
       fx="33.28965"
       fy="1019.5235"
       r="13.017863" />
    <linearGradient
       inkscape:collect="always"
       xlink:href="#linearGradient3802"
       id="linearGradient3879"
       gradientUnits="userSpaceOnUse"
       gradientTransform="translate(54.758536,934.11115)"
       x1="21.152542"
       y1="21.152542"
       x2="45.966103"
       y2="38.101696" />
    <radialGradient
       inkscape:collect="always"
       xlink:href="#linearGradient3827"
       id="radialGradient3881"
       gradientUnits="userSpaceOnUse"
       gradientTransform="matrix(1.3284193,0.05320241,-0.08331825,2.0803845,129.49571,-1157.6564)"
       cx="31.117125"
       cy="1019.7093"
       fx="31.117125"
       fy="1019.7093"
       r="13.017863" />
    <radialGradient
       inkscape:collect="always"
       xlink:href="#linearGradient3827"
       id="radialGradient3883"
       gradientUnits="userSpaceOnUse"
       gradientTransform="matrix(0.45983896,1.0070832,-2.672733,1.2203825,2798.5247,-311.39544)"
       cx="31.117125"
       cy="1019.7093"
       fx="31.117125"
       fy="1019.7093"
       r="13.017863" />
    <radialGradient
       inkscape:collect="always"
       xlink:href="#linearGradient3827"
       id="radialGradient3885"
       gradientUnits="userSpaceOnUse"
       gradientTransform="matrix(-0.87693249,-0.45424715,1.0884956,-2.1013607,-993.14284,3123.867)"
       cx="33.289654"
       cy="1019.5235"
       fx="33.289654"
       fy="1019.5235"
       r="13.017863" />
    <radialGradient
       inkscape:collect="always"
       xlink:href="#linearGradient3827"
       id="radialGradient3903"
       gradientUnits="userSpaceOnUse"
       gradientTransform="matrix(0.41558717,0.914086,-2.240941,1.0188388,2300.7394,-45.012393)"
       cx="31.117125"
       cy="1019.7093"
       fx="31.117125"
       fy="1019.7093"
       r="13.017863" />
    <radialGradient
       inkscape:collect="always"
       xlink:href="#linearGradient3827"
       id="radialGradient3905"
       gradientUnits="userSpaceOnUse"
       gradientTransform="matrix(-1.9025843,0.03059483,-0.02877827,-1.7896213,121.11505,2847.8642)"
       cx="33.289654"
       cy="1019.5235"
       fx="33.289654"
       fy="1019.5235"
       r="13.017863" />
    <radialGradient
       inkscape:collect="always"
       xlink:href="#linearGradient3827"
       id="radialGradient3907"
       gradientUnits="userSpaceOnUse"
       gradientTransform="matrix(1.3125961,1.5582651,-1.7268437,1.4545973,1746.911,-511.58434)"
       cx="33.28965"
       cy="1019.5235"
       fx="33.28965"
       fy="1019.5235"
       r="13.017863" />
    <linearGradient
       inkscape:collect="always"
       xlink:href="#linearGradient3802"
       id="linearGradient3909"
       gradientUnits="userSpaceOnUse"
       gradientTransform="translate(-3.241464,992.11115)"
       x1="21.152542"
       y1="21.152542"
       x2="45.966103"
       y2="38.101696" />
    <radialGradient
       inkscape:collect="always"
       xlink:href="#linearGradient3827"
       id="radialGradient3911"
       gradientUnits="userSpaceOnUse"
       gradientTransform="matrix(1.0975718,-0.75024281,1.010102,1.4777344,-1036.2891,-460.0691)"
       cx="31.117125"
       cy="1019.7093"
       fx="31.117125"
       fy="1019.7093"
       r="13.017863" />
    <radialGradient
       inkscape:collect="always"
       xlink:href="#linearGradient3827"
       id="radialGradient3913"
       gradientUnits="userSpaceOnUse"
       gradientTransform="matrix(0.53192115,-0.97094197,1.6343855,0.89538224,-1653.6645,139.59245)"
       cx="31.117125"
       cy="1019.7093"
       fx="31.117125"
       fy="1019.7093"
       r="13.017863" />
    <radialGradient
       inkscape:collect="always"
       xlink:href="#linearGradient3827"
       id="radialGradient3915"
       gradientUnits="userSpaceOnUse"
       gradientTransform="matrix(-0.94165087,-0.29773261,0.66417289,-2.1006061,-616.43195,3175.9088)"
       cx="33.289654"
       cy="1019.5235"
       fx="33.289654"
       fy="1019.5235"
       r="13.017863" />
    <radialGradient
       inkscape:collect="always"
       xlink:href="#linearGradient3827"
       id="radialGradient3933"
       gradientUnits="userSpaceOnUse"
       gradientTransform="matrix(-0.69484374,-1.0855537,2.0010862,-1.28086,-1932.4624,2362.2911)"
       cx="31.117125"
       cy="1019.7093"
       fx="31.117125"
       fy="1019.7093"
       r="13.017863" />
    <radialGradient
       inkscape:collect="always"
       xlink:href="#linearGradient3827"
       id="radialGradient3935"
       gradientUnits="userSpaceOnUse"
       gradientTransform="matrix(-2.1787472,-0.3359686,0.15317281,-0.99332139,2.6693445,2048.1326)"
       cx="33.289654"
       cy="1019.5235"
       fx="33.289654"
       fy="1019.5235"
       r="13.017863" />
    <radialGradient
       inkscape:collect="always"
       xlink:href="#linearGradient3827"
       id="radialGradient3937"
       gradientUnits="userSpaceOnUse"
       gradientTransform="matrix(0.1986676,2.0277154,-1.0459095,0.10247409,1147.7671,851.35165)"
       cx="33.28965"
       cy="1019.5235"
       fx="33.28965"
       fy="1019.5235"
       r="13.017863" />
    <linearGradient
       inkscape:collect="always"
       xlink:href="#linearGradient3802"
       id="linearGradient3939"
       gradientUnits="userSpaceOnUse"
       gradientTransform="translate(54.758536,992.11115)"
       x1="21.152542"
       y1="21.152542"
       x2="45.966103"
       y2="38.101696" />
    <radialGradient
       inkscape:collect="always"
       xlink:href="#linearGradient3827"
       id="radialGradient3941"
       gradientUnits="userSpaceOnUse"
       gradientTransform="matrix(0.63510785,-0.19719649,0.53077758,1.7094678,-475.12926,-713.62142)"
       cx="31.117125"
       cy="1019.7093"
       fx="31.117125"
       fy="1019.7093"
       r="13.017863" />
    <radialGradient
       inkscape:collect="always"
       xlink:href="#linearGradient3827"
       id="radialGradient3943"
       gradientUnits="userSpaceOnUse"
       gradientTransform="matrix(1.7268905,-0.48513658,0.50402483,1.794125,-480.07349,-791.89276)"
       cx="31.117125"
       cy="1019.7093"
       fx="31.117125"
       fy="1019.7093"
       r="13.017863" />
    <radialGradient
       inkscape:collect="always"
       xlink:href="#linearGradient3827"
       id="radialGradient3945"
       gradientUnits="userSpaceOnUse"
       gradientTransform="matrix(-0.98570992,-0.0610494,0.13882142,-2.2414244,-21.236338,3311.541)"
       cx="33.289654"
       cy="1019.5235"
       fx="33.289654"
       fy="1019.5235"
       r="13.017863" />
  </defs>
  <sodipodi:namedview
     id="base"
     pagecolor="#ffffff"
     bordercolor="#666666"
     borderopacity="1.0"
     inkscape:pageopacity="0.0"
     inkscape:pageshadow="2"
     inkscape:zoom="1"
     inkscape:cx="58"
     inkscape:cy="52.951774"
     inkscape:document-units="px"
     inkscape:current-layer="layer1"
     showgrid="false"
     inkscape:window-width="1366"
     inkscape:window-height="691"
     inkscape:window-x="0"
     inkscape:window-y="24"
     inkscape:window-maximized="1" />
  <metadata
     id="metadata7">
    <rdf:RDF>
      <cc:Work
         rdf:about="">
        <dc:format>image/svg+xml</dc:format>
        <dc:type
           rdf:resource="http://purl.org/dc/dcmitype/StillImage" />
        <dc:title></dc:title>
      </cc:Work>
    </rdf:RDF>
  </metadata>
  <g
     inkscape:label="Layer 1"
     inkscape:groupmode="layer"
     id="layer1"
     transform="translate(0,-936.36218)">
    <path
       inkscape:connector-curvature="0"
       id="path3839"
       d="M 10.266006,986.9323 C 6.9558146,984.0628 12.642812,972.0807 22.96822,960.1697 33.293629,948.2586 44.347539,940.92892 47.65774,943.7984"
       style="fill:none;stroke:url(#radialGradient3841);stroke-width:1.5;stroke-linecap:round;stroke-linejoin:round;stroke-miterlimit:4;stroke-opacity:1" />
    <path
       inkscape:connector-curvature="0"
       style="fill:none;stroke:url(#radialGradient3849);stroke-width:1.5;stroke-linecap:round;stroke-linejoin:round;stroke-miterlimit:4;stroke-opacity:1"
       d="m 57.145365,969.8774 c -0.692516,4.3258 -13.872131,5.8124 -29.437355,3.3205 -15.565359,-2.492 -27.62219242,-8.0188 -26.92960439,-12.3445"
       id="path3845" />
    <path
       style="fill:none;stroke:url(#radialGradient3835);stroke-width:1.5;stroke-linecap:round;stroke-linejoin:round;stroke-miterlimit:4;stroke-opacity:1"
       d="m 17.780325,939.10441 c 4.030674,-1.71621 12.304354,8.64999 18.47978,23.15349 6.175426,14.5036 7.914091,27.6523 3.883417,29.3685"
       id="path3825"
       inkscape:connector-curvature="0" />
    <path
       style="fill:#8200ff;fill-opacity:1;stroke:#8200ff;stroke-width:1.5;stroke-miterlimit:4;stroke-opacity:1;stroke-dasharray:none;filter:url(#filter3798)"
       d="m 28.758535,950.1111 c -8.836556,0 -16,7.1635 -16,16 0,8.8365 7.163444,16 16,16 8.836556,0 16,-7.1635 16,-16 0,-8.8365 -7.163444,-16 -16,-16 z m -2.5,4.1563 0,9.3437 -9.3125,0 c 0.769681,-4.7906 4.523286,-8.5754 9.3125,-9.3437 z m 5,0 c 4.789214,0.7683 8.542819,4.5531 9.3125,9.3437 l -9.3125,0 0,-9.3437 z m -14.3125,14.3437 9.3125,0 0,9.3438 c -4.789214,-0.7683 -8.542819,-4.5531 -9.3125,-9.3438 z m 14.3125,0 9.3125,0 c -0.769681,4.7907 -4.523286,8.5755 -9.3125,9.3438 l 0,-9.3438 z"
       id="path3788"
       inkscape:connector-curvature="0" />
    <path
       style="fill:url(#linearGradient3808);fill-opacity:1;stroke:#8200ff;stroke-width:0.99999994;stroke-opacity:1"
       d="m 28.758535,950.6111 c -8.560414,0 -15.5,6.9396 -15.5,15.5 0,8.5605 6.939586,15.5 15.5,15.5 8.560414,0 15.5,-6.9395 15.5,-15.5 0,-8.5604 -6.939586,-15.5 -15.5,-15.5 z m -2,3.1563 0,10.3437 -10.3125,0 c 0.852377,-5.3031 5.008723,-9.4932 10.3125,-10.3437 z m 4,0 c 5.303777,0.8505 9.460123,5.0406 10.3125,10.3437 l -10.3125,0 0,-10.3437 z m -14.3125,14.3437 10.3125,0 0,10.3438 c -5.303777,-0.8505 -9.460123,-5.0406 -10.3125,-10.3438 z m 14.3125,0 10.3125,0 c -0.852377,5.3032 -5.008723,9.4933 -10.3125,10.3438 l 0,-10.3438 z"
       id="path2985"
       inkscape:connector-curvature="0" />
    <path
       style="fill:none;stroke:url(#radialGradient3833);stroke-width:1.5;stroke-linecap:round;stroke-linejoin:round;stroke-miterlimit:4;stroke-opacity:1"
       d="m 40.143522,991.6264 c -4.030674,1.7162 -12.304353,-8.65 -18.479779,-23.1535 -6.175427,-14.5035 -7.914092,-27.65228 -3.883418,-29.36849"
       id="path3820"
       inkscape:connector-curvature="0" />
    <path
       style="fill:none;stroke:url(#radialGradient3851);stroke-width:1.5;stroke-linecap:round;stroke-linejoin:round;stroke-miterlimit:4;stroke-opacity:1"
       d="M 0.77840561,960.8534 C 1.4709091,956.5276 14.650539,955.041 30.215763,957.533 c 15.56531,2.4919 27.622126,8.0187 26.929602,12.3444"
       id="path3847"
       inkscape:connector-curvature="0" />
    <path
       id="path3837"
       d="m 47.65774,943.7984 c 3.310202,2.8696 -2.376767,14.8517 -12.702175,26.7627 -10.325503,11.9111 -21.379366,19.2408 -24.689559,16.3712"
       style="fill:none;stroke:url(#radialGradient3843);stroke-width:1.5;stroke-linecap:round;stroke-linejoin:round;stroke-miterlimit:4;stroke-opacity:1"
       inkscape:connector-curvature="0" />
    <path
       style="fill:none;stroke:url(#radialGradient3873);stroke-width:1.50000000000000000;stroke-linecap:round;stroke-linejoin:round;stroke-miterlimit:4;stroke-opacity:1"
       d="m 65.922757,984.65328 c -2.9604,-3.22915 4.059275,-14.48246 15.678814,-25.13479 11.619552,-10.65244 23.439009,-16.6702 26.399419,-13.44107"
       id="path3857"
       inkscape:connector-curvature="0" />
    <path
       id="path3859"
       d="m 115.30093,968.76612 c -0.52194,4.34967 -13.63294,6.35317 -29.284082,4.47501 -15.651283,-1.87825 -27.916038,-6.92687 -27.394014,-11.27645"
       style="fill:none;stroke:url(#radialGradient3875);stroke-width:1.50000000000000000;stroke-linecap:round;stroke-linejoin:round;stroke-miterlimit:4;stroke-opacity:1"
       inkscape:connector-curvature="0" />
    <path
       inkscape:connector-curvature="0"
       id="path3861"
       d="m 77.53565,938.42448 c 4.135033,-1.44679 11.707426,9.44223 16.913416,24.32124 5.205982,14.87912 6.074164,28.11383 1.939129,29.56061"
       style="fill:none;stroke:url(#radialGradient3877);stroke-width:1.50000000000000000;stroke-linecap:round;stroke-linejoin:round;stroke-miterlimit:4;stroke-opacity:1" />
    <path
       inkscape:connector-curvature="0"
       id="path3863"
       d="m 86.758535,950.1111 c -8.836556,0 -16,7.1635 -16,16 0,8.8365 7.163444,16 16,16 8.836556,0 15.999995,-7.1635 15.999995,-16 0,-8.8365 -7.163439,-16 -15.999995,-16 z m -2.5,4.1563 0,9.3437 -9.3125,0 c 0.769681,-4.7906 4.523286,-8.5754 9.3125,-9.3437 z m 5,0 c 4.789214,0.7683 8.542819,4.5531 9.312495,9.3437 l -9.312495,0 0,-9.3437 z m -14.3125,14.3437 9.3125,0 0,9.3438 c -4.789214,-0.7683 -8.542819,-4.5531 -9.3125,-9.3438 z m 14.3125,0 9.312495,0 c -0.769676,4.7907 -4.523281,8.5755 -9.312495,9.3438 l 0,-9.3438 z"
       style="fill:#8200ff;fill-opacity:1;stroke:#8200ff;stroke-width:1.5;stroke-miterlimit:4;stroke-opacity:1;stroke-dasharray:none;filter:url(#filter3798)" />
    <path
       inkscape:connector-curvature="0"
       id="path3865"
       d="m 86.758535,950.6111 c -8.560414,0 -15.5,6.9396 -15.5,15.5 0,8.5605 6.939586,15.5 15.5,15.5 8.560414,0 15.499995,-6.9395 15.499995,-15.5 0,-8.5604 -6.939581,-15.5 -15.499995,-15.5 z m -2,3.1563 0,10.3437 -10.3125,0 c 0.852377,-5.3031 5.008723,-9.4932 10.3125,-10.3437 z m 4,0 c 5.303777,0.8505 9.460125,5.0406 10.312495,10.3437 l -10.312495,0 0,-10.3437 z m -14.3125,14.3437 10.3125,0 0,10.3438 c -5.303777,-0.8505 -9.460123,-5.0406 -10.3125,-10.3438 z m 14.3125,0 10.312495,0 c -0.85237,5.3032 -5.008718,9.4933 -10.312495,10.3438 l 0,-10.3438 z"
       style="fill:url(#linearGradient3879);fill-opacity:1;stroke:#8200ff;stroke-width:0.99999994;stroke-opacity:1" />
    <path
       inkscape:connector-curvature="0"
       id="path3867"
       d="m 96.388195,992.30633 c -4.135031,1.44678 -11.707423,-9.44224 -16.913412,-24.32125 -5.205991,-14.87902 -6.074166,-28.11381 -1.939133,-29.5606"
       style="fill:none;stroke:url(#radialGradient3881);stroke-width:1.50000000000000000;stroke-linecap:round;stroke-linejoin:round;stroke-miterlimit:4;stroke-opacity:1" />
    <path
       inkscape:connector-curvature="0"
       id="path3869"
       d="m 58.622834,961.96468 c 0.521935,-4.34967 13.632947,-6.35317 29.284094,-4.47491 15.651222,1.87815 27.915972,6.92677 27.394002,11.27635"
       style="fill:none;stroke:url(#radialGradient3883);stroke-width:1.50000000000000000;stroke-linecap:round;stroke-linejoin:round;stroke-miterlimit:4;stroke-opacity:1" />
    <path
       inkscape:connector-curvature="0"
       style="fill:none;stroke:url(#radialGradient3885);stroke-width:1.50000000000000000;stroke-linecap:round;stroke-linejoin:round;stroke-miterlimit:4;stroke-opacity:1"
       d="m 108.00099,946.07742 c 2.9604,3.22925 -4.05925,14.48256 -15.678783,25.1349 -11.619645,10.65242 -23.43906,16.67021 -26.39945,13.44096"
       id="path3871" />
    <path
       inkscape:connector-curvature="0"
       id="path3887"
       d="m 6.979514,1041.571 c -2.7942808,-3.374 4.782365,-14.2601 16.922837,-24.3146 12.140494,-10.0548 24.247588,-15.4706 27.041884,-12.0967"
       style="fill:none;stroke:url(#radialGradient3903);stroke-width:1.50000000000000000;stroke-linecap:round;stroke-linejoin:round;stroke-miterlimit:4;stroke-opacity:1" />
    <path
       inkscape:connector-curvature="0"
       style="fill:none;stroke:url(#radialGradient3905);stroke-width:1.50000000000000000;stroke-linecap:round;stroke-linejoin:round;stroke-miterlimit:4;stroke-opacity:1"
       d="m 57.024404,1028.577 c -0.799898,4.3073 -14.012417,5.4656 -29.510836,2.5873 -15.498559,-2.8784 -27.4141848,-8.7034 -26.61420958,-13.0105"
       id="path3889" />
    <path
       style="fill:none;stroke:url(#radialGradient3907);stroke-width:1.50000000000000000;stroke-linecap:round;stroke-linejoin:round;stroke-miterlimit:4;stroke-opacity:1"
       d="m 18.104027,996.96893 c 4.051469,-1.66653 12.197079,8.80057 18.19373,23.37887 5.996648,14.5784 7.573537,27.7476 3.522061,29.4141"
       id="path3891"
       inkscape:connector-curvature="0" />
    <path
       style="fill:#8200ff;fill-opacity:1;stroke:#8200ff;stroke-width:1.5;stroke-miterlimit:4;stroke-opacity:1;stroke-dasharray:none;filter:url(#filter3798)"
       d="m 28.758535,1008.1111 c -8.836556,0 -16,7.1635 -16,16 0,8.8365 7.163444,16 16,16 8.836556,0 15.999995,-7.1635 15.999995,-16 0,-8.8365 -7.163439,-16 -15.999995,-16 z m -2.5,4.1563 0,9.3437 -9.3125,0 c 0.769681,-4.7906 4.523286,-8.5754 9.3125,-9.3437 z m 5,0 c 4.789214,0.7683 8.542819,4.5531 9.312495,9.3437 l -9.312495,0 0,-9.3437 z m -14.3125,14.3437 9.3125,0 0,9.3438 c -4.789214,-0.7683 -8.542819,-4.5531 -9.3125,-9.3438 z m 14.3125,0 9.312495,0 c -0.769676,4.7907 -4.523281,8.5755 -9.312495,9.3438 l 0,-9.3438 z"
       id="path3893"
       inkscape:connector-curvature="0" />
    <path
       style="fill:url(#linearGradient3909);fill-opacity:1;stroke:#8200ff;stroke-width:0.99999994;stroke-opacity:1"
       d="m 28.758535,1008.6111 c -8.560414,0 -15.5,6.9396 -15.5,15.5 0,8.5605 6.939586,15.5 15.5,15.5 8.560414,0 15.499995,-6.9395 15.499995,-15.5 0,-8.5604 -6.939581,-15.5 -15.499995,-15.5 z m -2,3.1563 0,10.3437 -10.3125,0 c 0.852377,-5.3031 5.008723,-9.4932 10.3125,-10.3437 z m 4,0 c 5.303777,0.8505 9.460125,5.0406 10.312495,10.3437 l -10.312495,0 0,-10.3437 z m -14.3125,14.3437 10.3125,0 0,10.3438 c -5.303777,-0.8505 -9.460123,-5.0406 -10.3125,-10.3438 z m 14.3125,0 10.312495,0 c -0.85237,5.3032 -5.008718,9.4933 -10.312495,10.3438 l 0,-10.3438 z"
       id="path3895"
       inkscape:connector-curvature="0" />
    <path
       style="fill:none;stroke:url(#radialGradient3911);stroke-width:1.50000000000000000;stroke-linecap:round;stroke-linejoin:round;stroke-miterlimit:4;stroke-opacity:1"
       d="m 39.819818,1049.7619 c -4.051466,1.6665 -12.197076,-8.8006 -18.193725,-23.3789 -5.996652,-14.5783 -7.573535,-27.74755 -3.522066,-29.41407"
       id="path3897"
       inkscape:connector-curvature="0" />
    <path
       style="fill:none;stroke:url(#radialGradient3913);stroke-width:1.50000000000000000;stroke-linecap:round;stroke-linejoin:round;stroke-miterlimit:4;stroke-opacity:1"
       d="m 0.89935842,1018.1538 c 0.79989278,-4.3073 14.01242358,-5.4656 29.51084158,-2.5872 15.498504,2.8783 27.414125,8.7033 26.614204,13.0104"
       id="path3899"
       inkscape:connector-curvature="0" />
    <path
       id="path3901"
       d="m 50.944235,1005.1597 c 2.794276,3.3741 -4.782346,14.2602 -16.922811,24.3147 -12.140582,10.0547 -24.2476391,15.4706 -27.04191,12.0966"
       style="fill:none;stroke:url(#radialGradient3915);stroke-width:1.50000000000000000;stroke-linecap:round;stroke-linejoin:round;stroke-miterlimit:4;stroke-opacity:1"
       inkscape:connector-curvature="0" />
    <path
       style="fill:none;stroke:url(#radialGradient3933);stroke-width:1.50000000000000000;stroke-linecap:round;stroke-linejoin:round;stroke-miterlimit:4;stroke-opacity:1"
       d="m 67.363004,1044.1152 c -3.184774,-3.0082 3.00819,-14.7368 13.83232,-26.1964 10.824116,-11.4599 22.180636,-18.31132 25.365416,-15.3033"
       id="path3917"
       inkscape:connector-curvature="0" />
    <path
       id="path3919"
       d="m 113.94499,1032.6701 c -1.42814,4.1416 -14.666667,3.3331 -29.568945,-1.8058 -14.902399,-5.1389 -25.825467,-12.6622 -24.397272,-16.8036"
       style="fill:none;stroke:url(#radialGradient3935);stroke-width:1.50000000000000000;stroke-linecap:round;stroke-linejoin:round;stroke-miterlimit:4;stroke-opacity:1"
       inkscape:connector-curvature="0" />
    <path
       inkscape:connector-curvature="0"
       id="path3921"
       d="m 77.140332,996.56607 c 4.113302,-1.50747 11.845068,9.26893 17.269386,24.06973 5.424317,14.8009 6.487102,28.0215 2.373795,29.529"
       style="fill:none;stroke:url(#radialGradient3937);stroke-width:1.50000000000000000;stroke-linecap:round;stroke-linejoin:round;stroke-miterlimit:4;stroke-opacity:1" />
    <path
       inkscape:connector-curvature="0"
       id="path3923"
       d="m 86.758535,1008.1111 c -8.836556,0 -16,7.1635 -16,16 0,8.8365 7.163444,16 16,16 8.836556,0 15.999995,-7.1635 15.999995,-16 0,-8.8365 -7.163439,-16 -15.999995,-16 z m -2.5,4.1563 0,9.3437 -9.3125,0 c 0.769681,-4.7906 4.523286,-8.5754 9.3125,-9.3437 z m 5,0 c 4.789214,0.7683 8.542819,4.5531 9.312495,9.3437 l -9.312495,0 0,-9.3437 z m -14.3125,14.3437 9.3125,0 0,9.3438 c -4.789214,-0.7683 -8.542819,-4.5531 -9.3125,-9.3438 z m 14.3125,0 9.312495,0 c -0.769676,4.7907 -4.523281,8.5755 -9.312495,9.3438 l 0,-9.3438 z"
       style="fill:#8200ff;fill-opacity:1;stroke:#8200ff;stroke-width:1.5;stroke-miterlimit:4;stroke-opacity:1;stroke-dasharray:none;filter:url(#filter3798)" />
    <path
       inkscape:connector-curvature="0"
       id="path3925"
       d="m 86.758535,1008.6111 c -8.560414,0 -15.5,6.9396 -15.5,15.5 0,8.5605 6.939586,15.5 15.5,15.5 8.560414,0 15.499995,-6.9395 15.499995,-15.5 0,-8.5604 -6.939581,-15.5 -15.499995,-15.5 z m -2,3.1563 0,10.3437 -10.3125,0 c 0.852377,-5.3031 5.008723,-9.4932 10.3125,-10.3437 z m 4,0 c 5.303777,0.8505 9.460125,5.0406 10.312495,10.3437 l -10.312495,0 0,-10.3437 z m -14.3125,14.3437 10.3125,0 0,10.3438 c -5.303777,-0.8505 -9.460123,-5.0406 -10.3125,-10.3438 z m 14.3125,0 10.312495,0 c -0.85237,5.3032 -5.008718,9.4933 -10.312495,10.3438 l 0,-10.3438 z"
       style="fill:url(#linearGradient3939);fill-opacity:1;stroke:#8200ff;stroke-width:0.99999994;stroke-opacity:1" />
    <path
       inkscape:connector-curvature="0"
       id="path3927"
       d="m 96.783513,1050.1648 c -4.113298,1.5074 -11.845064,-9.269 -17.26938,-24.0698 -5.42432,-14.8008 -6.487102,-28.02146 -2.373801,-29.52893"
       style="fill:none;stroke:url(#radialGradient3941);stroke-width:1.50000000000000000;stroke-linecap:round;stroke-linejoin:round;stroke-miterlimit:4;stroke-opacity:1" />
    <path
       inkscape:connector-curvature="0"
       id="path3929"
       d="m 59.978773,1014.0607 c 1.428143,-4.1416 14.66668,-3.3331 29.568939,1.8059 14.902358,5.1388 25.825428,12.6621 24.397278,16.8035"
       style="fill:none;stroke:url(#radialGradient3943);stroke-width:1.50000000000000000;stroke-linecap:round;stroke-linejoin:round;stroke-miterlimit:4;stroke-opacity:1" />
    <path
       inkscape:connector-curvature="0"
       style="fill:none;stroke:url(#radialGradient3945);stroke-width:1.50000000000000000;stroke-linecap:round;stroke-linejoin:round;stroke-miterlimit:4;stroke-opacity:1"
       d="m 106.56074,1002.6155 c 3.18478,3.0083 -3.00816,14.7369 -13.832282,26.1965 -10.824215,11.4598 -22.180689,18.3113 -25.365454,15.3032"
       id="path3931" />
  </g>
</svg>
