<?xml version="1.0" encoding="UTF-8" standalone="no"?>
<!-- Created with Inkscape (http://www.inkscape.org/) -->

<svg
   xmlns:dc="http://purl.org/dc/elements/1.1/"
   xmlns:cc="http://creativecommons.org/ns#"
   xmlns:rdf="http://www.w3.org/1999/02/22-rdf-syntax-ns#"
   xmlns:svg="http://www.w3.org/2000/svg"
   xmlns="http://www.w3.org/2000/svg"
   xmlns:xlink="http://www.w3.org/1999/xlink"
   xmlns:sodipodi="http://sodipodi.sourceforge.net/DTD/sodipodi-0.dtd"
   xmlns:inkscape="http://www.inkscape.org/namespaces/inkscape"
   width="108"
   height="96"
   id="svg2"
   version="1.1"
   inkscape:version="0.48.4 r9939"
   sodipodi:docname="spring.svg"
   inkscape:export-filename="/home/victor/aleva/super-bombinhas/data/img/sprite/spring.png"
   inkscape:export-xdpi="90"
   inkscape:export-ydpi="90">
  <defs
     id="defs4">
    <linearGradient
       id="linearGradient3932">
      <stop
         style="stop-color:#00b54f;stop-opacity:1;"
         offset="0"
         id="stop3934" />
      <stop
         style="stop-color:#003f1c;stop-opacity:1;"
         offset="1"
         id="stop3936" />
    </linearGradient>
    <linearGradient
       id="linearGradient3799">
      <stop
         style="stop-color:#000000;stop-opacity:1;"
         offset="0"
         id="stop3801" />
      <stop
         id="stop3807"
         offset="0.5"
         style="stop-color:#808080;stop-opacity:1;" />
      <stop
         style="stop-color:#000000;stop-opacity:1;"
         offset="1"
         id="stop3803" />
    </linearGradient>
    <linearGradient
       id="linearGradient3775">
      <stop
         id="stop3777"
         offset="0"
         style="stop-color:#000000;stop-opacity:0.49803922;" />
      <stop
         style="stop-color:#000000;stop-opacity:0;"
         offset="1"
         id="stop3779" />
    </linearGradient>
    <linearGradient
       id="linearGradient3761">
      <stop
         style="stop-color:#02bc54;stop-opacity:1;"
         offset="0"
         id="stop3763" />
      <stop
         id="stop3769"
         offset="0.29593283"
         style="stop-color:#c5ecd6;stop-opacity:1;" />
      <stop
         style="stop-color:#02bc54;stop-opacity:1;"
         offset="1"
         id="stop3765" />
    </linearGradient>
    <linearGradient
       inkscape:collect="always"
       xlink:href="#linearGradient3761"
       id="linearGradient3848"
       gradientUnits="userSpaceOnUse"
       gradientTransform="matrix(1,0,0,1.25,0,-242.59055)"
       x1="0"
       y1="972.36218"
       x2="36"
       y2="972.36218" />
    <linearGradient
       inkscape:collect="always"
       xlink:href="#linearGradient3775"
       id="linearGradient3850"
       gradientUnits="userSpaceOnUse"
       gradientTransform="matrix(1,0,0,1.25,0,-242.59055)"
       x1="17.854446"
       y1="974.41278"
       x2="17.856951"
       y2="971.90417" />
    <linearGradient
       inkscape:collect="always"
       xlink:href="#linearGradient3799"
       id="linearGradient3852"
       gradientUnits="userSpaceOnUse"
       gradientTransform="matrix(1,0,0,0.71152771,36,968.56932)"
       x1="8.0156116"
       y1="28.925079"
       x2="28.974915"
       y2="28.925079" />
    <linearGradient
       inkscape:collect="always"
       xlink:href="#linearGradient3761"
       id="linearGradient3870"
       gradientUnits="userSpaceOnUse"
       gradientTransform="matrix(1,0,0,1.25,0,-242.59055)"
       x1="0"
       y1="972.36218"
       x2="36"
       y2="972.36218" />
    <linearGradient
       inkscape:collect="always"
       xlink:href="#linearGradient3775"
       id="linearGradient3872"
       gradientUnits="userSpaceOnUse"
       gradientTransform="matrix(1,0,0,1.25,0,-242.59055)"
       x1="17.854446"
       y1="974.41278"
       x2="17.856951"
       y2="971.90417" />
    <linearGradient
       inkscape:collect="always"
       xlink:href="#linearGradient3761"
       id="linearGradient3884"
       gradientUnits="userSpaceOnUse"
       gradientTransform="matrix(1,0,0,1.25,0,-242.59055)"
       x1="0"
       y1="972.36218"
       x2="36"
       y2="972.36218" />
    <linearGradient
       inkscape:collect="always"
       xlink:href="#linearGradient3775"
       id="linearGradient3886"
       gradientUnits="userSpaceOnUse"
       gradientTransform="matrix(1,0,0,1.25,0,-242.59055)"
       x1="17.854446"
       y1="974.41278"
       x2="17.856951"
       y2="971.90417" />
    <linearGradient
       inkscape:collect="always"
       xlink:href="#linearGradient3799"
       id="linearGradient3888"
       gradientUnits="userSpaceOnUse"
       gradientTransform="translate(0,954.36218)"
       x1="8.0156116"
       y1="28.925079"
       x2="28.974915"
       y2="28.925079" />
    <linearGradient
       inkscape:collect="always"
       xlink:href="#linearGradient3761"
       id="linearGradient3890"
       gradientUnits="userSpaceOnUse"
       gradientTransform="matrix(1,0,0,1.25,0,-242.59055)"
       x1="0"
       y1="972.36218"
       x2="36"
       y2="972.36218" />
    <linearGradient
       inkscape:collect="always"
       xlink:href="#linearGradient3775"
       id="linearGradient3892"
       gradientUnits="userSpaceOnUse"
       gradientTransform="matrix(1,0,0,1.25,0,-242.59055)"
       x1="17.854446"
       y1="974.41278"
       x2="17.856951"
       y2="971.90417" />
    <linearGradient
       inkscape:collect="always"
       xlink:href="#linearGradient3799"
       id="linearGradient3898"
       gradientUnits="userSpaceOnUse"
       gradientTransform="matrix(1,0,0,0.49259575,72,979.35163)"
       x1="8.0156116"
       y1="28.925079"
       x2="28.974915"
       y2="28.925079" />
    <linearGradient
       inkscape:collect="always"
       xlink:href="#linearGradient3799"
       id="linearGradient3902"
       gradientUnits="userSpaceOnUse"
       gradientTransform="matrix(1,0,0,0.34664091,0,1034.5403)"
       x1="8.0156116"
       y1="28.925079"
       x2="28.974915"
       y2="28.925079" />
    <linearGradient
       inkscape:collect="always"
       xlink:href="#linearGradient3799"
       id="linearGradient3912"
       gradientUnits="userSpaceOnUse"
       gradientTransform="translate(0,1002.3626)"
       x1="8.0156116"
       y1="28.925079"
       x2="28.974915"
       y2="28.925079" />
    <linearGradient
       inkscape:collect="always"
       xlink:href="#linearGradient3761"
       id="linearGradient3928"
       gradientUnits="userSpaceOnUse"
       gradientTransform="matrix(1,0,0,1.25,0,-192.59012)"
       x1="0"
       y1="972.36218"
       x2="36"
       y2="972.36218" />
    <linearGradient
       inkscape:collect="always"
       xlink:href="#linearGradient3932"
       id="linearGradient3938"
       x1="18.0625"
       y1="75.8125"
       x2="18"
       y2="70.8125"
       gradientUnits="userSpaceOnUse" />
    <filter
       inkscape:collect="always"
       id="filter3948"
       x="-0.081042334"
       width="1.1620847"
       y="-0.23108369"
       height="1.4621674"
       color-interpolation-filters="sRGB">
      <feGaussianBlur
         inkscape:collect="always"
         stdDeviation="1.215635"
         id="feGaussianBlur3950" />
    </filter>
    <clipPath
       clipPathUnits="userSpaceOnUse"
       id="clipPath3954">
      <path
         sodipodi:nodetypes="ccccc"
         style="fill:url(#linearGradient3958);fill-opacity:1;stroke:none"
         d="m 0,1021.3622 c -1.8797033e-8,-3.5 36,-3.5 36,0 l 0,4.0004 c 0,-3.0113 -36.000000018994896,-3 -36,0 z"
         id="path3956"
         inkscape:connector-curvature="0" />
    </clipPath>
    <linearGradient
       inkscape:collect="always"
       xlink:href="#linearGradient3761"
       id="linearGradient3958"
       gradientUnits="userSpaceOnUse"
       gradientTransform="matrix(1,0,0,1.25,0,-192.59012)"
       x1="0"
       y1="972.36218"
       x2="36"
       y2="972.36218" />
    <linearGradient
       inkscape:collect="always"
       xlink:href="#linearGradient3775"
       id="linearGradient3961"
       gradientUnits="userSpaceOnUse"
       gradientTransform="matrix(1,0,0,1.25,0,-242.59055)"
       x1="17.854446"
       y1="974.41278"
       x2="17.856951"
       y2="971.90417" />
    <linearGradient
       inkscape:collect="always"
       xlink:href="#linearGradient3761"
       id="linearGradient3964"
       gradientUnits="userSpaceOnUse"
       gradientTransform="matrix(1,0,0,1.25,0,-240.59055)"
       x1="0"
       y1="972.36218"
       x2="36"
       y2="972.36218" />
    <linearGradient
       inkscape:collect="always"
       xlink:href="#linearGradient3775"
       id="linearGradient3967"
       gradientUnits="userSpaceOnUse"
       gradientTransform="matrix(1,0,0,1.25,36,-234.59055)"
       x1="17.854446"
       y1="974.41278"
       x2="17.856951"
       y2="971.90417" />
    <linearGradient
       inkscape:collect="always"
       xlink:href="#linearGradient3761"
       id="linearGradient3970"
       gradientUnits="userSpaceOnUse"
       gradientTransform="matrix(1,0,0,1.25,36,-232.59055)"
       x1="0"
       y1="972.36218"
       x2="36"
       y2="972.36218" />
    <linearGradient
       inkscape:collect="always"
       xlink:href="#linearGradient3775"
       id="linearGradient3973"
       gradientUnits="userSpaceOnUse"
       gradientTransform="matrix(1,0,0,1.25,72,-228.59055)"
       x1="17.854446"
       y1="974.41278"
       x2="17.856951"
       y2="971.90417" />
    <linearGradient
       inkscape:collect="always"
       xlink:href="#linearGradient3761"
       id="linearGradient3976"
       gradientUnits="userSpaceOnUse"
       gradientTransform="matrix(1,0,0,1.25,72,-226.59055)"
       x1="0"
       y1="972.36218"
       x2="36"
       y2="972.36218" />
    <linearGradient
       inkscape:collect="always"
       xlink:href="#linearGradient3775"
       id="linearGradient3979"
       gradientUnits="userSpaceOnUse"
       gradientTransform="matrix(1,0,0,1.25,108,-224.59055)"
       x1="17.854446"
       y1="974.41278"
       x2="17.856951"
       y2="971.90417" />
    <linearGradient
       inkscape:collect="always"
       xlink:href="#linearGradient3761"
       id="linearGradient3982"
       gradientUnits="userSpaceOnUse"
       gradientTransform="matrix(1,0,0,1.25,0,-174.59011)"
       x1="0"
       y1="972.36218"
       x2="36"
       y2="972.36218" />
    <linearGradient
       inkscape:collect="always"
       xlink:href="#linearGradient3799"
       id="linearGradient3988"
       gradientUnits="userSpaceOnUse"
       gradientTransform="matrix(1,0,0,1.5838282,36,973.6093)"
       x1="8.0156116"
       y1="28.925079"
       x2="28.974915"
       y2="28.925079" />
    <linearGradient
       inkscape:collect="always"
       xlink:href="#linearGradient3761"
       id="linearGradient3990"
       gradientUnits="userSpaceOnUse"
       gradientTransform="matrix(1,0,0,1.25,43.601398,-195.68585)"
       x1="0"
       y1="972.36218"
       x2="36"
       y2="972.36218" />
    <linearGradient
       inkscape:collect="always"
       xlink:href="#linearGradient3799"
       id="linearGradient3996"
       gradientUnits="userSpaceOnUse"
       gradientTransform="matrix(1,0,0,1.5838282,36,973.6093)"
       x1="8.0156116"
       y1="28.925079"
       x2="28.974915"
       y2="28.925079" />
    <linearGradient
       inkscape:collect="always"
       xlink:href="#linearGradient3761"
       id="linearGradient3998"
       gradientUnits="userSpaceOnUse"
       gradientTransform="matrix(1,0,0,1.25,36,-208.59055)"
       x1="0"
       y1="972.36218"
       x2="36"
       y2="972.36218" />
    <linearGradient
       inkscape:collect="always"
       xlink:href="#linearGradient3799"
       id="linearGradient4004"
       gradientUnits="userSpaceOnUse"
       gradientTransform="matrix(1,0,0,1.036494,72,1000.5648)"
       x1="8.0156116"
       y1="28.925079"
       x2="28.974915"
       y2="28.925079" />
    <linearGradient
       inkscape:collect="always"
       xlink:href="#linearGradient3761"
       id="linearGradient4006"
       gradientUnits="userSpaceOnUse"
       gradientTransform="matrix(1,0,0,1.25,72,-193.59055)"
       x1="0"
       y1="972.36218"
       x2="36"
       y2="972.36218" />
  </defs>
  <sodipodi:namedview
     id="base"
     pagecolor="#ffffff"
     bordercolor="#666666"
     borderopacity="1.0"
     inkscape:pageopacity="0.0"
     inkscape:pageshadow="2"
     inkscape:zoom="1"
     inkscape:cx="54.780254"
     inkscape:cy="43.945236"
     inkscape:document-units="px"
     inkscape:current-layer="layer1"
     showgrid="false"
     inkscape:window-width="1364"
     inkscape:window-height="718"
     inkscape:window-x="0"
     inkscape:window-y="0"
     inkscape:window-maximized="1" />
  <metadata
     id="metadata7">
    <rdf:RDF>
      <cc:Work
         rdf:about="">
        <dc:format>image/svg+xml</dc:format>
        <dc:type
           rdf:resource="http://purl.org/dc/dcmitype/StillImage" />
        <dc:title></dc:title>
      </cc:Work>
    </rdf:RDF>
  </metadata>
  <g
     inkscape:label="Layer 1"
     inkscape:groupmode="layer"
     id="layer1"
     transform="translate(0,-956.36218)">
    <path
       sodipodi:nodetypes="ccscccscccscccscccscccsccc"
       inkscape:connector-curvature="0"
       id="path3900"
       d="m 9.01561,1051.5303 c 0,-1.6354 9.45756,-1.5282 9.45756,-1.5282 0,0 9.50764,-0.033 9.50174,0.8272 -0.005,0.7815 -9.50174,0.7813 -9.50174,0.7813 0,0 -9.41336,0.1073 -9.45756,-1.4669 0,-1.6354 9.45756,-1.5281 9.45756,-1.5281 0,0 9.50764,-0.033 9.50174,0.8272 -0.005,0.7814 -9.50174,0.7813 -9.50174,0.7813 0,0 -9.41336,0.1072 -9.45756,-1.4669 0,-1.6354 9.45756,-1.5282 9.45756,-1.5282 0,0 9.50764,-0.033 9.50174,0.8272 -0.005,0.7815 -9.50174,0.7813 -9.50174,0.7813 0,0 -9.41336,0.1073 -9.45756,-1.4669 0,-1.6354 9.45756,-1.5282 9.45756,-1.5282 0,0 9.50764,-0.033 9.50174,0.8273 -0.005,0.7814 -9.50174,0.7813 -9.50174,0.7813 0,0 -9.41336,0.1072 -9.45756,-1.4669 0,-1.6355 9.45756,-1.5282 9.45756,-1.5282 0,0 9.50764,-0.033 9.50174,0.8272 -0.005,0.7814 -9.50174,0.7813 -9.50174,0.7813 0,0 -9.41336,0.1072 -9.45756,-1.4669 0,-1.6354 9.45756,-1.5282 9.45756,-1.5282 0,0 9.50764,-0.033 9.50174,0.8273 -0.005,0.7814 -9.50174,0.7812 -9.50174,0.7812 0,0 -9.41336,0.1073 -9.45756,-1.4859 0,0 -0.0462,-0.9245 3.60939,-1.0797"
       style="fill:none;stroke:url(#linearGradient3902);stroke-width:1.5;stroke-linecap:round;stroke-linejoin:round;stroke-miterlimit:4;stroke-opacity:1;stroke-dasharray:none;stroke-dashoffset:0" />
    <path
       style="fill:none;stroke:url(#linearGradient3898);stroke-width:1.5;stroke-linecap:round;stroke-linejoin:round;stroke-miterlimit:4;stroke-opacity:1;stroke-dasharray:none;stroke-dashoffset:0"
       d="m 81.015611,1003.4954 c 0,-2.3241 9.457554,-2.1717 9.457554,-2.1717 0,0 9.507645,-0.047 9.501745,1.1756 -0.005,1.1105 -9.501745,1.1103 -9.501745,1.1103 0,0 -9.413359,0.1524 -9.457553,-2.0846 0,-2.32404 9.457553,-2.17165 9.457553,-2.17165 0,0 9.507645,-0.0465 9.501745,1.17555 -0.005,1.1105 -9.501745,1.1103 -9.501745,1.1103 0,0 -9.413359,0.1524 -9.457553,-2.08459 0,-2.32403 9.457553,-2.17164 9.457553,-2.17164 0,0 9.507645,-0.0465 9.501745,1.17557 -0.005,1.11044 -9.501745,1.11026 -9.501745,1.11026 0,0 -9.413359,0.15239 -9.457553,-2.08457 0,-2.32403 9.457553,-2.17164 9.457553,-2.17164 0,0 9.507645,-0.0465 9.501745,1.17557 -0.005,1.11043 -9.501745,1.11026 -9.501745,1.11026 0,0 -9.413359,0.15239 -9.457553,-2.08457 0,-2.32403 9.457553,-2.17164 9.457553,-2.17164 0,0 9.507645,-0.0465 9.501745,1.17557 -0.005,1.11042 -9.501745,1.11026 -9.501745,1.11026 0,0 -9.413359,0.15239 -9.457553,-2.08457 0,-2.32404 9.457553,-2.17165 9.457553,-2.17165 0,0 9.507645,-0.0465 9.501745,1.17558 -0.005,1.11042 -9.501745,1.11026 -9.501745,1.11026 0,0 -9.413359,0.15239 -9.457553,-2.11168 0,0 -0.04621,-1.31374 3.609388,-1.53421"
       id="path3896"
       inkscape:connector-curvature="0"
       sodipodi:nodetypes="ccscccscccscccscccscccsccc" />
    <path
       style="fill:none;stroke:url(#linearGradient3888);stroke-width:1.5;stroke-linecap:round;stroke-linejoin:round;stroke-miterlimit:4;stroke-opacity:1;stroke-dasharray:none;stroke-dashoffset:0"
       d="m 9.0156115,1003.3755 c 0,-4.71794 9.4575535,-4.40858 9.4575535,-4.40858 0,0 9.507647,-0.0944 9.501747,2.38648 -0.0054,2.2543 -9.501747,2.2539 -9.501747,2.2539 0,0 -9.4133595,0.3094 -9.4575535,-4.2318 0,-4.71794 9.4575535,-4.40858 9.4575535,-4.40858 0,0 9.507647,-0.0944 9.501747,2.38649 -0.0054,2.25424 -9.501747,2.2539 -9.501747,2.2539 0,0 -9.4133595,0.30936 -9.4575535,-4.23181 0,-4.71794 9.4575535,-4.40858 9.4575535,-4.40858 0,0 9.507647,-0.0944 9.501747,2.38649 -0.0054,2.25424 -9.501747,2.2539 -9.501747,2.2539 0,0 -9.4133595,0.30936 -9.4575535,-4.23181 0,-4.71794 9.4575535,-4.40858 9.4575535,-4.40858 0,0 9.507647,-0.0944 9.501747,2.38649 -0.0054,2.25424 -9.501747,2.2539 -9.501747,2.2539 0,0 -9.4133595,0.30936 -9.4575535,-4.23181 0,-4.71794 9.4575535,-4.40858 9.4575535,-4.40858 0,0 9.507647,-0.0944 9.501747,2.38649 -0.0054,2.25424 -9.501747,2.2539 -9.501747,2.2539 0,0 -9.4133595,0.30936 -9.4575535,-4.23181 0,-4.71794 9.4575535,-4.40858 9.4575535,-4.40858 0,0 9.507647,-0.0944 9.501747,2.38649 -0.0054,2.25424 -9.501747,2.2539 -9.501747,2.2539 0,0 -9.4133595,0.30936 -9.4575535,-4.28684 0,0 -0.046211,-2.66697 3.6093885,-3.11454"
       id="path3795"
       inkscape:connector-curvature="0"
       sodipodi:nodetypes="ccscccscccscccscccscccsccc" />
    <rect
       style="fill:url(#linearGradient3964);fill-opacity:1;stroke:none"
       id="rect3759"
       width="36"
       height="5"
       x="0"
       y="972.36218" />
    <path
       sodipodi:nodetypes="ccscccscccscccscccscccsccc"
       inkscape:connector-curvature="0"
       id="path3806"
       d="m 45.015611,1003.4437 c 0,-3.357 9.457554,-3.1369 9.457554,-3.1369 0,0 9.507647,-0.067 9.501747,1.6981 -0.0054,1.604 -9.501747,1.6037 -9.501747,1.6037 0,0 -9.413359,0.2201 -9.457553,-3.011 0,-3.357 9.457553,-3.13688 9.457553,-3.13688 0,0 9.507647,-0.0672 9.501747,1.69805 -0.0054,1.60393 -9.501747,1.60373 -9.501747,1.60373 0,0 -9.413359,0.2201 -9.457553,-3.01107 0,-3.35694 9.457553,-3.13682 9.457553,-3.13682 0,0 9.507647,-0.0672 9.501747,1.69805 -0.0054,1.60396 -9.501747,1.60371 -9.501747,1.60371 0,0 -9.413359,0.22012 -9.457553,-3.01105 0,-3.35694 9.457553,-3.13682 9.457553,-3.13682 0,0 9.507647,-0.0672 9.501747,1.69805 -0.0054,1.60396 -9.501747,1.60371 -9.501747,1.60371 0,0 -9.413359,0.22012 -9.457553,-3.01105 0,-3.35694 9.457553,-3.13682 9.457553,-3.13682 0,0 9.507647,-0.0672 9.501747,1.69805 -0.0054,1.60395 -9.501747,1.60371 -9.501747,1.60371 0,0 -9.413359,0.22012 -9.457553,-3.01105 0,-3.35694 9.457553,-3.13682 9.457553,-3.13682 0,0 9.507647,-0.0672 9.501747,1.69805 -0.0054,1.60395 -9.501747,1.60371 -9.501747,1.60371 0,0 -9.413359,0.22012 -9.457553,-3.0502 0,0 -0.04621,-1.89763 3.609388,-2.21609"
       style="fill:none;stroke:url(#linearGradient3852);stroke-width:1.5;stroke-linecap:round;stroke-linejoin:round;stroke-miterlimit:4;stroke-opacity:1;stroke-dasharray:none;stroke-dashoffset:0" />
    <rect
       y="980.36218"
       x="36"
       height="5"
       width="36"
       id="rect3810"
       style="fill:url(#linearGradient3970);fill-opacity:1;stroke:none" />
    <rect
       style="fill:url(#linearGradient3976);fill-opacity:1;stroke:none"
       id="rect3864"
       width="36"
       height="5"
       x="72"
       y="986.36218" />
    <rect
       y="1038.3627"
       x="0"
       height="5"
       width="36"
       id="rect3878"
       style="fill:url(#linearGradient3982);fill-opacity:1;stroke:none" />
    <path
       sodipodi:nodetypes="ccscccscccscccscccscccsccc"
       inkscape:connector-curvature="0"
       id="path3984"
       d="m 45.015611,1051.2379 c 0,-7.4723 9.457554,-6.9823 9.457554,-6.9823 0,0 9.507647,-0.1488 9.501747,3.7797 -0.0054,3.5704 -9.501747,3.5698 -9.501747,3.5698 0,0 -9.413359,0.49 -9.457553,-6.7025 0,-7.4723 9.457553,-6.9822 9.457553,-6.9822 0,0 9.507647,-0.1489 9.501747,3.7796 -0.0054,3.5704 -9.501747,3.5698 -9.501747,3.5698 0,0 -9.413359,0.49 -9.457553,-6.7024 0,-7.4724 9.457553,-6.9824 9.457553,-6.9824 0,0 9.507647,-0.1489 9.501747,3.7796 -0.0054,3.5704 -9.501747,3.5698 -9.501747,3.5698 0,0 -9.413359,0.4901 -9.457553,-6.7024 0,-7.4723 9.457553,-6.9823 9.457553,-6.9823 0,0 9.507647,-0.1489 9.501747,3.7797 -0.0054,3.5704 -9.501747,3.5697 -9.501747,3.5697 0,0 -9.413359,0.4901 -9.457553,-6.7024 0,-7.4724 9.457553,-6.9823 9.457553,-6.9823 0,0 9.507647,-0.1488 9.501747,3.7797 -0.0054,3.5704 -9.501747,3.5698 -9.501747,3.5698 0,0 -9.413359,0.49 -9.457553,-6.7025 0,-7.4724 9.457553,-6.9823 9.457553,-6.9823 0,0 9.507647,-0.1489 9.501747,3.7796 -0.0054,3.5704 -9.501747,3.5698 -9.501747,3.5698 0,0 -9.413359,0.4901 -9.457553,-6.7896 0,0 -0.04621,-4.2241 3.609388,-4.9327"
       style="fill:none;stroke:url(#linearGradient3996);stroke-width:1.5;stroke-linecap:round;stroke-linejoin:round;stroke-miterlimit:4;stroke-opacity:1;stroke-dasharray:none;stroke-dashoffset:0" />
    <rect
       y="1004.3622"
       x="36"
       height="5"
       width="36"
       id="rect3986"
       style="fill:url(#linearGradient3998);fill-opacity:1;stroke:none" />
    <path
       sodipodi:nodetypes="ccscccscccscccscccscccsccc"
       inkscape:connector-curvature="0"
       id="path4000"
       d="m 81.015611,1051.3668 c 0,-4.89 9.457554,-4.5695 9.457554,-4.5695 0,0 9.507647,-0.097 9.501747,2.4736 -0.0054,2.3366 -9.501747,2.3362 -9.501747,2.3362 0,0 -9.413359,0.3207 -9.457553,-4.3862 0,-4.8901 9.457553,-4.5695 9.457553,-4.5695 0,0 9.507647,-0.097 9.501747,2.4736 -0.0054,2.3364 -9.501747,2.3361 -9.501747,2.3361 0,0 -9.413359,0.3207 -9.457553,-4.3862 0,-4.8901 9.457553,-4.5695 9.457553,-4.5695 0,0 9.507647,-0.097 9.501747,2.4736 -0.0054,2.3364 -9.501747,2.3361 -9.501747,2.3361 0,0 -9.413359,0.3207 -9.457553,-4.3862 0,-4.8901 9.457553,-4.5695 9.457553,-4.5695 0,0 9.507647,-0.097 9.501747,2.4736 -0.0054,2.3365 -9.501747,2.3362 -9.501747,2.3362 0,0 -9.413359,0.3207 -9.457553,-4.3863 0,-4.8901 9.457553,-4.5695 9.457553,-4.5695 0,0 9.507647,-0.097 9.501747,2.4736 -0.0054,2.3365 -9.501747,2.3362 -9.501747,2.3362 0,0 -9.413359,0.3207 -9.457553,-4.3863 0,-4.89 9.457553,-4.5694 9.457553,-4.5694 0,0 9.507647,-0.098 9.501747,2.4736 -0.0054,2.3364 -9.501747,2.3361 -9.501747,2.3361 0,0 -9.413359,0.3207 -9.457553,-4.4432 0,0 -0.04621,-2.7644 3.609388,-3.2283"
       style="fill:none;stroke:url(#linearGradient4004);stroke-width:1.49999988;stroke-linecap:round;stroke-linejoin:round;stroke-miterlimit:4;stroke-opacity:1;stroke-dasharray:none;stroke-dashoffset:0" />
    <rect
       y="1019.3622"
       x="72"
       height="5"
       width="36"
       id="rect4002"
       style="fill:url(#linearGradient4006);fill-opacity:1;stroke:none" />
  </g>
</svg>
