<?xml version="1.0" encoding="UTF-8" standalone="no"?>
<!-- Created with Inkscape (http://www.inkscape.org/) -->

<svg
   xmlns:dc="http://purl.org/dc/elements/1.1/"
   xmlns:cc="http://creativecommons.org/ns#"
   xmlns:rdf="http://www.w3.org/1999/02/22-rdf-syntax-ns#"
   xmlns:svg="http://www.w3.org/2000/svg"
   xmlns="http://www.w3.org/2000/svg"
   xmlns:sodipodi="http://sodipodi.sourceforge.net/DTD/sodipodi-0.dtd"
   xmlns:inkscape="http://www.inkscape.org/namespaces/inkscape"
   width="160"
   height="200"
   viewBox="0 0 160 200"
   id="svg2"
   version="1.1"
   inkscape:version="0.91 r"
   sodipodi:docname="Stilty.svg"
   inkscape:export-filename="/home/victor/aleva/super-bombinhas/data/img/sprite/Stilty.png"
   inkscape:export-xdpi="90"
   inkscape:export-ydpi="90">
  <defs
     id="defs4" />
  <sodipodi:namedview
     id="base"
     pagecolor="#ffffff"
     bordercolor="#666666"
     borderopacity="1.0"
     inkscape:pageopacity="0.0"
     inkscape:pageshadow="2"
     inkscape:zoom="1"
     inkscape:cx="83.08563"
     inkscape:cy="44.026483"
     inkscape:document-units="px"
     inkscape:current-layer="layer1"
     showgrid="false"
     units="px" />
  <metadata
     id="metadata7">
    <rdf:RDF>
      <cc:Work
         rdf:about="">
        <dc:format>image/svg+xml</dc:format>
        <dc:type
           rdf:resource="http://purl.org/dc/dcmitype/StillImage" />
        <dc:title></dc:title>
      </cc:Work>
    </rdf:RDF>
  </metadata>
  <g
     inkscape:label="Layer 1"
     inkscape:groupmode="layer"
     id="layer1"
     transform="translate(0,-852.36216)"
     sodipodi:insensitive="true"
     style="display:none">
    <rect
       style="opacity:1;fill:#000000;fill-opacity:0.1360947;stroke:none;stroke-width:1;stroke-linecap:round;stroke-linejoin:round;stroke-miterlimit:4;stroke-dasharray:none;stroke-opacity:1"
       id="rect4136"
       width="32"
       height="100"
       x="0"
       y="952.36212" />
    <rect
       y="852.36212"
       x="32"
       height="100"
       width="32"
       id="rect4138"
       style="opacity:1;fill:#000000;fill-opacity:0.1360947;stroke:none;stroke-width:1;stroke-linecap:round;stroke-linejoin:round;stroke-miterlimit:4;stroke-dasharray:none;stroke-opacity:1" />
    <rect
       y="952.36212"
       x="64"
       height="100"
       width="32"
       id="rect4140"
       style="opacity:1;fill:#000000;fill-opacity:0.1360947;stroke:none;stroke-width:1;stroke-linecap:round;stroke-linejoin:round;stroke-miterlimit:4;stroke-dasharray:none;stroke-opacity:1" />
    <rect
       style="opacity:1;fill:#000000;fill-opacity:0.1360947;stroke:none;stroke-width:1;stroke-linecap:round;stroke-linejoin:round;stroke-miterlimit:4;stroke-dasharray:none;stroke-opacity:1"
       id="rect4142"
       width="32"
       height="100"
       x="96"
       y="852.36212" />
    <rect
       style="opacity:1;fill:#000000;fill-opacity:0.1360947;stroke:none;stroke-width:1;stroke-linecap:round;stroke-linejoin:round;stroke-miterlimit:4;stroke-dasharray:none;stroke-opacity:1"
       id="rect4144"
       width="32"
       height="100"
       x="128"
       y="952.36212" />
  </g>
  <g
     inkscape:groupmode="layer"
     id="layer2"
     inkscape:label="Layer 2">
    <path
       style="opacity:1;fill:#ffe57e;fill-opacity:1;stroke:none;stroke-width:1;stroke-linecap:round;stroke-linejoin:round;stroke-miterlimit:4;stroke-dasharray:none;stroke-opacity:1"
       d="M 14.836081,60.277589 19.382623,97.367792 14.118207,100 21.775539,99.760709 19.143331,58.363256 Z"
       id="path4155"
       inkscape:connector-curvature="0" />
    <path
       style="opacity:1;fill:#8ce8f5;fill-opacity:1;stroke:none;stroke-width:1;stroke-linecap:round;stroke-linejoin:round;stroke-miterlimit:4;stroke-dasharray:none;stroke-opacity:1"
       d="m 30.629329,40.631771 c 0,0 -27.7578294,-4.307249 -27.7578294,19.621914 C 29.911454,70.303934 30.629329,40.631771 30.629329,40.631771 Z"
       id="path4147"
       inkscape:connector-curvature="0"
       sodipodi:nodetypes="ccc" />
    <path
       style="opacity:1;fill:#ff0000;fill-opacity:1;stroke:none;stroke-width:1;stroke-linecap:round;stroke-linejoin:round;stroke-miterlimit:4;stroke-dasharray:none;stroke-opacity:1"
       d="m 7.1787491,55.587498 c 0,0 3.9457659,-14.599877 15.3146649,-8.614439 0,0 -7.494411,0.129087 -15.3146649,8.614439 z"
       id="path4151"
       inkscape:connector-curvature="0"
       sodipodi:nodetypes="ccc" />
    <path
       style="opacity:1;fill:#ffe57e;fill-opacity:1;stroke:none;stroke-width:1;stroke-linecap:round;stroke-linejoin:round;stroke-miterlimit:4;stroke-dasharray:none;stroke-opacity:1"
       d="m 22.971997,54.53459 -4.546541,4.546541 3.589375,38.04737 L 17.228998,100 l 7.657332,0 z"
       id="path4153"
       inkscape:connector-curvature="0" />
    <path
       inkscape:connector-curvature="0"
       id="path4157"
       d="M 46.836081,60.277589 53.132623,95.117792 50.118207,98 56.525539,96.510709 51.143331,58.363256 Z"
       style="opacity:1;fill:#ffe57e;fill-opacity:1;stroke:none;stroke-width:1;stroke-linecap:round;stroke-linejoin:round;stroke-miterlimit:4;stroke-dasharray:none;stroke-opacity:1"
       sodipodi:nodetypes="cccccc" />
    <path
       sodipodi:nodetypes="ccc"
       inkscape:connector-curvature="0"
       id="path4159"
       d="M 61.757829,40.631771 C 61.757829,40.631771 34,36.324522 34,60.253685 61.039954,70.303934 61.757829,40.631771 61.757829,40.631771 Z"
       style="opacity:1;fill:#8ce8f5;fill-opacity:1;stroke:none;stroke-width:1;stroke-linecap:round;stroke-linejoin:round;stroke-miterlimit:4;stroke-dasharray:none;stroke-opacity:1" />
    <path
       sodipodi:nodetypes="ccc"
       inkscape:connector-curvature="0"
       id="path4161"
       d="m 37.928749,55.337498 c 0,0 2.695766,-14.349877 14.064665,-8.364439 0,0 -6.244411,-0.120913 -14.064665,8.364439 z"
       style="opacity:1;fill:#ff0000;fill-opacity:1;stroke:none;stroke-width:1;stroke-linecap:round;stroke-linejoin:round;stroke-miterlimit:4;stroke-dasharray:none;stroke-opacity:1" />
    <path
       inkscape:connector-curvature="0"
       id="path4163"
       d="m 51.471997,58.03459 -5.296541,1.796541 -1.660625,37.04737 -4.785833,2.871499 7.657332,0 z"
       style="opacity:1;fill:#ffe57e;fill-opacity:1;stroke:none;stroke-width:1;stroke-linecap:round;stroke-linejoin:round;stroke-miterlimit:4;stroke-dasharray:none;stroke-opacity:1"
       sodipodi:nodetypes="cccccc" />
    <path
       inkscape:connector-curvature="0"
       id="path4165"
       d="M 77.586081,60.277589 77.132623,97.117792 71.868207,99.75 79.525539,99.510709 81.893331,58.363256 Z"
       style="opacity:1;fill:#ffe57e;fill-opacity:1;stroke:none;stroke-width:1;stroke-linecap:round;stroke-linejoin:round;stroke-miterlimit:4;stroke-dasharray:none;stroke-opacity:1"
       sodipodi:nodetypes="cccccc" />
    <path
       sodipodi:nodetypes="ccc"
       inkscape:connector-curvature="0"
       id="path4167"
       d="m 95.057829,40.631771 c 0,0 -27.757829,-4.307249 -27.757829,19.621914 27.039954,10.050249 27.757829,-19.621914 27.757829,-19.621914 z"
       style="opacity:1;fill:#8ce8f5;fill-opacity:1;stroke:none;stroke-width:1;stroke-linecap:round;stroke-linejoin:round;stroke-miterlimit:4;stroke-dasharray:none;stroke-opacity:1" />
    <path
       sodipodi:nodetypes="ccc"
       inkscape:connector-curvature="0"
       id="path4169"
       d="m 73.428749,55.087498 c 0,0 3.559297,-14.599877 13.814665,-8.614439 0,0 -6.760368,0.129087 -13.814665,8.614439 z"
       style="opacity:1;fill:#ff0000;fill-opacity:1;stroke:none;stroke-width:1;stroke-linecap:round;stroke-linejoin:round;stroke-miterlimit:4;stroke-dasharray:none;stroke-opacity:1" />
    <path
       inkscape:connector-curvature="0"
       id="path4171"
       d="m 87.471997,56.78459 -4.046541,2.796541 6.839375,33.04737 -4.785833,2.871499 7.657332,0 z"
       style="opacity:1;fill:#ffe57e;fill-opacity:1;stroke:none;stroke-width:1;stroke-linecap:round;stroke-linejoin:round;stroke-miterlimit:4;stroke-dasharray:none;stroke-opacity:1"
       sodipodi:nodetypes="cccccc" />
    <path
       inkscape:connector-curvature="0"
       id="path4192"
       d="M 110.83608,60.277589 115.38262,97.367792 110.11821,100 117.77554,99.760709 115.14333,58.363256 Z"
       style="opacity:1;fill:#ffe57e;fill-opacity:1;stroke:none;stroke-width:1;stroke-linecap:round;stroke-linejoin:round;stroke-miterlimit:4;stroke-dasharray:none;stroke-opacity:1" />
    <path
       sodipodi:nodetypes="ccc"
       inkscape:connector-curvature="0"
       id="path4194"
       d="m 126.62933,40.631771 c 0,0 -27.75783,-4.307249 -27.75783,19.621914 27.03995,10.050249 27.75783,-19.621914 27.75783,-19.621914 z"
       style="opacity:1;fill:#8ce8f5;fill-opacity:1;stroke:none;stroke-width:1;stroke-linecap:round;stroke-linejoin:round;stroke-miterlimit:4;stroke-dasharray:none;stroke-opacity:1" />
    <path
       sodipodi:nodetypes="ccc"
       inkscape:connector-curvature="0"
       id="path4196"
       d="m 103.17875,55.587498 c 0,0 5.19577,-25.349877 15.31466,-8.614439 0,0 -6.99441,-5.370913 -15.31466,8.614439 z"
       style="opacity:1;fill:#ff0000;fill-opacity:1;stroke:none;stroke-width:1;stroke-linecap:round;stroke-linejoin:round;stroke-miterlimit:4;stroke-dasharray:none;stroke-opacity:1" />
    <path
       inkscape:connector-curvature="0"
       id="path4198"
       d="m 118.972,54.53459 -4.54654,4.546541 3.58937,38.04737 L 113.229,100 l 7.65733,0 z"
       style="opacity:1;fill:#ffe57e;fill-opacity:1;stroke:none;stroke-width:1;stroke-linecap:round;stroke-linejoin:round;stroke-miterlimit:4;stroke-dasharray:none;stroke-opacity:1" />
    <path
       style="opacity:1;fill:#ffffff;fill-opacity:1;stroke:none;stroke-width:1;stroke-linecap:round;stroke-linejoin:round;stroke-miterlimit:4;stroke-dasharray:none;stroke-opacity:1"
       d="m 103,61.5 c 0,0 4,-7.5 11.5,-7.75 l 1.25,2.75 c 0,0 -7,-1 -12.75,5 z"
       id="path4202"
       inkscape:connector-curvature="0" />
    <path
       inkscape:connector-curvature="0"
       id="path4204"
       d="M 142.83608,51.277589 147.38262,97.367792 142.11821,100 149.77554,99.760709 147.14333,49.363256 Z"
       style="opacity:1;fill:#ffe57e;fill-opacity:1;stroke:none;stroke-width:1;stroke-linecap:round;stroke-linejoin:round;stroke-miterlimit:4;stroke-dasharray:none;stroke-opacity:1"
       sodipodi:nodetypes="cccccc" />
    <path
       sodipodi:nodetypes="ccc"
       inkscape:connector-curvature="0"
       id="path4206"
       d="m 158.62933,30.631771 c 0,0 -27.75783,-4.307249 -27.75783,19.621914 27.03995,10.050249 27.75783,-19.621914 27.75783,-19.621914 z"
       style="opacity:1;fill:#8ce8f5;fill-opacity:1;stroke:none;stroke-width:1;stroke-linecap:round;stroke-linejoin:round;stroke-miterlimit:4;stroke-dasharray:none;stroke-opacity:1" />
    <path
       sodipodi:nodetypes="ccc"
       inkscape:connector-curvature="0"
       id="path4208"
       d="m 135.17875,45.587498 c 0,0 3.94577,-14.599877 15.31466,-8.614439 0,0 -7.49441,0.129087 -15.31466,8.614439 z"
       style="opacity:1;fill:#ff0000;fill-opacity:1;stroke:none;stroke-width:1;stroke-linecap:round;stroke-linejoin:round;stroke-miterlimit:4;stroke-dasharray:none;stroke-opacity:1" />
    <path
       inkscape:connector-curvature="0"
       id="path4210"
       d="m 150.972,45.53459 -4.54654,4.546541 3.58937,47.04737 L 145.229,100 l 7.65733,0 z"
       style="opacity:1;fill:#ffe57e;fill-opacity:1;stroke:none;stroke-width:1;stroke-linecap:round;stroke-linejoin:round;stroke-miterlimit:4;stroke-dasharray:none;stroke-opacity:1"
       sodipodi:nodetypes="cccccc" />
    <path
       sodipodi:nodetypes="cccccc"
       style="opacity:1;fill:#ffe57e;fill-opacity:1;stroke:none;stroke-width:1;stroke-linecap:round;stroke-linejoin:round;stroke-miterlimit:4;stroke-dasharray:none;stroke-opacity:1"
       d="m 14.83608,141.27759 4.54654,56.0902 -5.26441,2.63221 7.65733,-0.23929 -2.63221,-60.39745 z"
       id="path4212"
       inkscape:connector-curvature="0" />
    <path
       style="opacity:1;fill:#8ce8f5;fill-opacity:1;stroke:none;stroke-width:1;stroke-linecap:round;stroke-linejoin:round;stroke-miterlimit:4;stroke-dasharray:none;stroke-opacity:1"
       d="m 30.62933,120.63177 c 0,0 -27.75783,-4.30725 -27.75783,19.62192 27.03995,10.05024 27.75783,-19.62192 27.75783,-19.62192 z"
       id="path4214"
       inkscape:connector-curvature="0"
       sodipodi:nodetypes="ccc" />
    <path
       style="opacity:1;fill:#ff0000;fill-opacity:1;stroke:none;stroke-width:1;stroke-linecap:round;stroke-linejoin:round;stroke-miterlimit:4;stroke-dasharray:none;stroke-opacity:1"
       d="m 7.17875,135.5875 c 0,0 3.94577,-14.59988 15.31466,-8.61444 0,0 -7.49441,0.12909 -15.31466,8.61444 z"
       id="path4216"
       inkscape:connector-curvature="0"
       sodipodi:nodetypes="ccc" />
    <path
       sodipodi:nodetypes="cccccc"
       style="opacity:1;fill:#ffe57e;fill-opacity:1;stroke:none;stroke-width:1;stroke-linecap:round;stroke-linejoin:round;stroke-miterlimit:4;stroke-dasharray:none;stroke-opacity:1"
       d="m 22.972,135.53459 -4.54654,4.54654 3.58937,57.04737 L 17.229,200 l 7.65733,0 z"
       id="path4218"
       inkscape:connector-curvature="0" />
    <path
       inkscape:connector-curvature="0"
       id="path4228"
       d="m 46.83608,131.27759 4.54654,66.0902 -5.26441,2.63221 7.65733,-0.23929 -2.63221,-70.39745 z"
       style="opacity:1;fill:#ffe57e;fill-opacity:1;stroke:none;stroke-width:1;stroke-linecap:round;stroke-linejoin:round;stroke-miterlimit:4;stroke-dasharray:none;stroke-opacity:1"
       sodipodi:nodetypes="cccccc" />
    <path
       sodipodi:nodetypes="ccc"
       inkscape:connector-curvature="0"
       id="path4230"
       d="m 62.62933,110.63177 c 0,0 -27.75783,-4.30725 -27.75783,19.62192 27.03995,10.05024 27.75783,-19.62192 27.75783,-19.62192 z"
       style="opacity:1;fill:#8ce8f5;fill-opacity:1;stroke:none;stroke-width:1;stroke-linecap:round;stroke-linejoin:round;stroke-miterlimit:4;stroke-dasharray:none;stroke-opacity:1" />
    <path
       sodipodi:nodetypes="ccc"
       inkscape:connector-curvature="0"
       id="path4232"
       d="m 39.17875,125.5875 c 0,0 3.94577,-14.59988 15.31466,-8.61444 0,0 -7.49441,0.12909 -15.31466,8.61444 z"
       style="opacity:1;fill:#ff0000;fill-opacity:1;stroke:none;stroke-width:1;stroke-linecap:round;stroke-linejoin:round;stroke-miterlimit:4;stroke-dasharray:none;stroke-opacity:1" />
    <path
       inkscape:connector-curvature="0"
       id="path4234"
       d="m 54.972,125.53459 -4.54654,4.54654 3.58937,67.04737 L 49.229,200 l 7.65733,0 z"
       style="opacity:1;fill:#ffe57e;fill-opacity:1;stroke:none;stroke-width:1;stroke-linecap:round;stroke-linejoin:round;stroke-miterlimit:4;stroke-dasharray:none;stroke-opacity:1"
       sodipodi:nodetypes="cccccc" />
    <path
       sodipodi:nodetypes="cccccc"
       style="opacity:1;fill:#ffe57e;fill-opacity:1;stroke:none;stroke-width:1;stroke-linecap:round;stroke-linejoin:round;stroke-miterlimit:4;stroke-dasharray:none;stroke-opacity:1"
       d="m 78.83608,121.27759 4.54654,76.0902 -5.26441,2.63221 7.65733,-0.23929 -2.63221,-80.39745 z"
       id="path4236"
       inkscape:connector-curvature="0" />
    <path
       style="opacity:1;fill:#8ce8f5;fill-opacity:1;stroke:none;stroke-width:1;stroke-linecap:round;stroke-linejoin:round;stroke-miterlimit:4;stroke-dasharray:none;stroke-opacity:1"
       d="m 94.62933,100.63177 c 0,0 -27.75783,-4.30725 -27.75783,19.62192 27.03995,10.05024 27.75783,-19.62192 27.75783,-19.62192 z"
       id="path4238"
       inkscape:connector-curvature="0"
       sodipodi:nodetypes="ccc" />
    <path
       style="opacity:1;fill:#ff0000;fill-opacity:1;stroke:none;stroke-width:1;stroke-linecap:round;stroke-linejoin:round;stroke-miterlimit:4;stroke-dasharray:none;stroke-opacity:1"
       d="m 71.17875,115.5875 c 0,0 3.94577,-14.59988 15.31466,-8.61444 0,0 -7.49441,0.12909 -15.31466,8.61444 z"
       id="path4240"
       inkscape:connector-curvature="0"
       sodipodi:nodetypes="ccc" />
    <path
       sodipodi:nodetypes="cccccc"
       style="opacity:1;fill:#ffe57e;fill-opacity:1;stroke:none;stroke-width:1;stroke-linecap:round;stroke-linejoin:round;stroke-miterlimit:4;stroke-dasharray:none;stroke-opacity:1"
       d="m 86.972,115.53459 -4.54654,4.54654 3.58937,77.04737 L 81.229,200 l 7.65733,0 z"
       id="path4242"
       inkscape:connector-curvature="0" />
    <path
       sodipodi:nodetypes="cccccc"
       style="opacity:1;fill:#ffe57e;fill-opacity:1;stroke:none;stroke-width:1;stroke-linecap:round;stroke-linejoin:round;stroke-miterlimit:4;stroke-dasharray:none;stroke-opacity:1"
       d="m 110.83608,120.27759 6.29654,74.8402 -3.01441,2.88221 6.40733,-1.48929 -5.38221,-78.14745 z"
       id="path4244"
       inkscape:connector-curvature="0" />
    <path
       style="opacity:1;fill:#8ce8f5;fill-opacity:1;stroke:none;stroke-width:1;stroke-linecap:round;stroke-linejoin:round;stroke-miterlimit:4;stroke-dasharray:none;stroke-opacity:1"
       d="m 125.75783,100.63177 c 0,0 -27.75783,-4.30725 -27.75783,19.62192 27.03995,10.05024 27.75783,-19.62192 27.75783,-19.62192 z"
       id="path4246"
       inkscape:connector-curvature="0"
       sodipodi:nodetypes="ccc" />
    <path
       style="opacity:1;fill:#ff0000;fill-opacity:1;stroke:none;stroke-width:1;stroke-linecap:round;stroke-linejoin:round;stroke-miterlimit:4;stroke-dasharray:none;stroke-opacity:1"
       d="m 101.92875,115.3375 c 0,0 2.69577,-14.34988 14.06466,-8.36444 0,0 -6.24441,-0.12091 -14.06466,8.36444 z"
       id="path4248"
       inkscape:connector-curvature="0"
       sodipodi:nodetypes="ccc" />
    <path
       sodipodi:nodetypes="cccccc"
       style="opacity:1;fill:#ffe57e;fill-opacity:1;stroke:none;stroke-width:1;stroke-linecap:round;stroke-linejoin:round;stroke-miterlimit:4;stroke-dasharray:none;stroke-opacity:1"
       d="m 115.472,118.03459 -5.29654,1.79654 -1.66063,77.04737 -4.78583,2.8715 7.65733,0 z"
       id="path4250"
       inkscape:connector-curvature="0" />
    <path
       sodipodi:nodetypes="cccccc"
       style="opacity:1;fill:#ffe57e;fill-opacity:1;stroke:none;stroke-width:1;stroke-linecap:round;stroke-linejoin:round;stroke-miterlimit:4;stroke-dasharray:none;stroke-opacity:1"
       d="m 141.58608,120.27759 -0.45346,76.8402 -5.26441,2.63221 7.65733,-0.23929 2.36779,-81.14745 z"
       id="path4252"
       inkscape:connector-curvature="0" />
    <path
       style="opacity:1;fill:#8ce8f5;fill-opacity:1;stroke:none;stroke-width:1;stroke-linecap:round;stroke-linejoin:round;stroke-miterlimit:4;stroke-dasharray:none;stroke-opacity:1"
       d="m 159.05783,100.63177 c 0,0 -27.75783,-4.30725 -27.75783,19.62192 27.03995,10.05024 27.75783,-19.62192 27.75783,-19.62192 z"
       id="path4254"
       inkscape:connector-curvature="0"
       sodipodi:nodetypes="ccc" />
    <path
       style="opacity:1;fill:#ff0000;fill-opacity:1;stroke:none;stroke-width:1;stroke-linecap:round;stroke-linejoin:round;stroke-miterlimit:4;stroke-dasharray:none;stroke-opacity:1"
       d="m 137.42875,115.0875 c 0,0 3.5593,-14.59988 13.81466,-8.61444 0,0 -6.76036,0.12909 -13.81466,8.61444 z"
       id="path4256"
       inkscape:connector-curvature="0"
       sodipodi:nodetypes="ccc" />
    <path
       sodipodi:nodetypes="cccccc"
       style="opacity:1;fill:#ffe57e;fill-opacity:1;stroke:none;stroke-width:1;stroke-linecap:round;stroke-linejoin:round;stroke-miterlimit:4;stroke-dasharray:none;stroke-opacity:1"
       d="m 151.472,116.78459 -4.04654,2.79654 6.83937,73.04737 -4.78583,2.8715 7.65733,0 z"
       id="path4258"
       inkscape:connector-curvature="0" />
  </g>
</svg>
