<?xml version="1.0" encoding="UTF-8" standalone="no"?>
<!-- Created with Inkscape (http://www.inkscape.org/) -->

<svg
   xmlns:dc="http://purl.org/dc/elements/1.1/"
   xmlns:cc="http://creativecommons.org/ns#"
   xmlns:rdf="http://www.w3.org/1999/02/22-rdf-syntax-ns#"
   xmlns:svg="http://www.w3.org/2000/svg"
   xmlns="http://www.w3.org/2000/svg"
   xmlns:sodipodi="http://sodipodi.sourceforge.net/DTD/sodipodi-0.dtd"
   xmlns:inkscape="http://www.inkscape.org/namespaces/inkscape"
   width="128"
   height="128"
   id="svg2"
   version="1.1"
   inkscape:version="0.48.4 r9939"
   sodipodi:docname="vortex.svg"
   inkscape:export-filename="/home/victor/aleva/super-bombinhas/data/img/sprite/vortex.png"
   inkscape:export-xdpi="90"
   inkscape:export-ydpi="90">
  <defs
     id="defs4">
    <filter
       inkscape:collect="always"
       id="filter3771"
       color-interpolation-filters="sRGB">
      <feGaussianBlur
         inkscape:collect="always"
         stdDeviation="6.7301907"
         id="feGaussianBlur3773" />
    </filter>
    <filter
       inkscape:collect="always"
       id="filter3784"
       x="-0.19710527"
       width="1.3942105"
       y="-0.14865328"
       height="1.2973067"
       color-interpolation-filters="sRGB">
      <feGaussianBlur
         inkscape:collect="always"
         stdDeviation="3.0866606"
         id="feGaussianBlur3786" />
    </filter>
    <filter
       inkscape:collect="always"
       id="filter3788"
       x="-0.13285588"
       width="1.2657118"
       y="-0.084318534"
       height="1.1686372"
       color-interpolation-filters="sRGB">
      <feGaussianBlur
         inkscape:collect="always"
         stdDeviation="3.0866606"
         id="feGaussianBlur3790" />
    </filter>
    <filter
       inkscape:collect="always"
       id="filter3792"
       x="-0.14865328"
       width="1.2973067"
       y="-0.19710527"
       height="1.3942105"
       color-interpolation-filters="sRGB">
      <feGaussianBlur
         inkscape:collect="always"
         stdDeviation="3.0866606"
         id="feGaussianBlur3794" />
    </filter>
    <filter
       inkscape:collect="always"
       id="filter3796"
       x="-0.084318534"
       width="1.1686372"
       y="-0.13285588"
       height="1.2657118"
       color-interpolation-filters="sRGB">
      <feGaussianBlur
         inkscape:collect="always"
         stdDeviation="3.0866606"
         id="feGaussianBlur3798" />
    </filter>
    <filter
       inkscape:collect="always"
       id="filter3800"
       x="-0.19710527"
       width="1.3942105"
       y="-0.14865328"
       height="1.2973067"
       color-interpolation-filters="sRGB">
      <feGaussianBlur
         inkscape:collect="always"
         stdDeviation="3.0866606"
         id="feGaussianBlur3802" />
    </filter>
    <filter
       inkscape:collect="always"
       id="filter3804"
       x="-0.13285588"
       width="1.2657118"
       y="-0.084318534"
       height="1.1686372"
       color-interpolation-filters="sRGB">
      <feGaussianBlur
         inkscape:collect="always"
         stdDeviation="3.0866606"
         id="feGaussianBlur3806" />
    </filter>
    <filter
       inkscape:collect="always"
       id="filter3808"
       x="-0.14865328"
       width="1.2973067"
       y="-0.19710527"
       height="1.3942105"
       color-interpolation-filters="sRGB">
      <feGaussianBlur
         inkscape:collect="always"
         stdDeviation="3.0866606"
         id="feGaussianBlur3810" />
    </filter>
    <filter
       inkscape:collect="always"
       id="filter3812"
       x="-0.084318534"
       width="1.1686372"
       y="-0.13285588"
       height="1.2657118"
       color-interpolation-filters="sRGB">
      <feGaussianBlur
         inkscape:collect="always"
         stdDeviation="3.0866606"
         id="feGaussianBlur3814" />
    </filter>
    <filter
       inkscape:collect="always"
       id="filter3884"
       x="-0.27310663"
       width="1.5462132"
       y="-0.14348711"
       height="1.2869742"
       color-interpolation-filters="sRGB">
      <feGaussianBlur
         inkscape:collect="always"
         stdDeviation="3.2600403"
         id="feGaussianBlur3886" />
    </filter>
    <filter
       inkscape:collect="always"
       id="filter3888"
       x="-0.09089832"
       width="1.1817966"
       y="-0.11505278"
       height="1.2301056"
       color-interpolation-filters="sRGB">
      <feGaussianBlur
         inkscape:collect="always"
         stdDeviation="3.2600403"
         id="feGaussianBlur3890" />
    </filter>
    <filter
       inkscape:collect="always"
       id="filter3892"
       x="-0.14348711"
       width="1.2869742"
       y="-0.27310663"
       height="1.5462132"
       color-interpolation-filters="sRGB">
      <feGaussianBlur
         inkscape:collect="always"
         stdDeviation="3.2600403"
         id="feGaussianBlur3894" />
    </filter>
    <filter
       inkscape:collect="always"
       id="filter3896"
       x="-0.11505278"
       width="1.2301056"
       y="-0.09089832"
       height="1.1817966"
       color-interpolation-filters="sRGB">
      <feGaussianBlur
         inkscape:collect="always"
         stdDeviation="3.2600403"
         id="feGaussianBlur3898" />
    </filter>
    <filter
       inkscape:collect="always"
       id="filter3900"
       x="-0.27310663"
       width="1.5462132"
       y="-0.14348711"
       height="1.2869742"
       color-interpolation-filters="sRGB">
      <feGaussianBlur
         inkscape:collect="always"
         stdDeviation="3.2600403"
         id="feGaussianBlur3902" />
    </filter>
    <filter
       inkscape:collect="always"
       id="filter3904"
       x="-0.09089832"
       width="1.1817966"
       y="-0.11505278"
       height="1.2301056"
       color-interpolation-filters="sRGB">
      <feGaussianBlur
         inkscape:collect="always"
         stdDeviation="3.2600403"
         id="feGaussianBlur3906" />
    </filter>
    <filter
       inkscape:collect="always"
       id="filter3908"
       x="-0.14348711"
       width="1.2869742"
       y="-0.27310663"
       height="1.5462132"
       color-interpolation-filters="sRGB">
      <feGaussianBlur
         inkscape:collect="always"
         stdDeviation="3.2600403"
         id="feGaussianBlur3910" />
    </filter>
    <filter
       inkscape:collect="always"
       id="filter3912"
       x="-0.11505278"
       width="1.2301056"
       y="-0.09089832"
       height="1.1817966"
       color-interpolation-filters="sRGB">
      <feGaussianBlur
         inkscape:collect="always"
         stdDeviation="3.2600403"
         id="feGaussianBlur3914" />
    </filter>
  </defs>
  <sodipodi:namedview
     id="base"
     pagecolor="#ffffff"
     bordercolor="#666666"
     borderopacity="1.0"
     inkscape:pageopacity="0.0"
     inkscape:pageshadow="2"
     inkscape:zoom="1"
     inkscape:cx="64"
     inkscape:cy="37.562823"
     inkscape:document-units="px"
     inkscape:current-layer="layer1"
     showgrid="false"
     inkscape:window-width="1366"
     inkscape:window-height="716"
     inkscape:window-x="0"
     inkscape:window-y="0"
     inkscape:window-maximized="1" />
  <metadata
     id="metadata7">
    <rdf:RDF>
      <cc:Work
         rdf:about="">
        <dc:format>image/svg+xml</dc:format>
        <dc:type
           rdf:resource="http://purl.org/dc/dcmitype/StillImage" />
        <dc:title></dc:title>
      </cc:Work>
    </rdf:RDF>
  </metadata>
  <g
     inkscape:label="Layer 1"
     inkscape:groupmode="layer"
     id="layer1"
     transform="translate(0,-924.36218)">
    <g
       id="g3916"
       transform="matrix(0.28413941,0,0,0.28891047,-61.466919,894.8506)">
      <g
         id="g3816">
        <path
           style="fill:#c000ff;fill-opacity:1;stroke:none;filter:url(#filter3812)"
           d="m 226.42857,186.6479 c 0,0 15.71429,-32.85715 50.71429,-31.42858 35,1.42858 37.14285,35.71429 37.14285,35.71429 0,0 -6.42857,-30 -33.57142,-28.57143 -27.14286,1.42857 -54.28572,48.57143 -54.28572,48.57143 z"
           id="path2985"
           inkscape:connector-curvature="0" />
        <path
           style="fill:#c000ff;fill-opacity:1;stroke:none;filter:url(#filter3808)"
           d="m 315.69297,150.89641 c 0,0 1.60062,-17.86625 -15.31819,-26.77468 -16.91882,-8.90843 -33.21712,-1.80456 -33.21712,-1.80456 l 20.9455,-8.95342 c 0,0 9.47729,-1.42045 21.30647,10.69586 11.82918,12.11632 6.28334,26.8368 6.28334,26.8368 z"
           id="path3755"
           inkscape:connector-curvature="0"
           sodipodi:nodetypes="czccsc" />
        <path
           inkscape:connector-curvature="0"
           id="path3757"
           d="m 354.32813,109.55581 c 0,0 32.85715,15.71429 31.42858,50.71429 -1.42858,35 -35.71429,37.14285 -35.71429,37.14285 0,0 30,-6.42857 28.57143,-33.57142 -1.42857,-27.14286 -48.57143,-54.28572 -48.57143,-54.28572 z"
           style="fill:#c000ff;fill-opacity:1;stroke:none;filter:url(#filter3804)" />
        <path
           sodipodi:nodetypes="czccsc"
           inkscape:connector-curvature="0"
           id="path3759"
           d="m 390.07962,198.82021 c 0,0 17.86625,1.60062 26.77468,-15.31819 8.90843,-16.91882 1.80456,-33.21712 1.80456,-33.21712 l 8.95342,20.9455 c 0,0 1.42045,9.47729 -10.69586,21.30647 -12.11632,11.82918 -26.8368,6.28334 -26.8368,6.28334 z"
           style="fill:#c000ff;fill-opacity:1;stroke:none;filter:url(#filter3800)" />
        <path
           style="fill:#c000ff;fill-opacity:1;stroke:none;filter:url(#filter3796)"
           d="m 431.27737,241.45537 c 0,0 -15.71429,32.85715 -50.71429,31.42858 -35,-1.42858 -37.14285,-35.71429 -37.14285,-35.71429 0,0 6.42857,30 33.57142,28.57143 27.14286,-1.42857 54.28572,-48.57143 54.28572,-48.57143 z"
           id="path3767"
           inkscape:connector-curvature="0" />
        <path
           style="fill:#c000ff;fill-opacity:1;stroke:none;filter:url(#filter3792)"
           d="m 342.01297,277.20686 c 0,0 -1.60062,17.86625 15.31819,26.77468 16.91882,8.90843 33.21712,1.80456 33.21712,1.80456 l -20.9455,8.95342 c 0,0 -9.47729,1.42045 -21.30647,-10.69586 -11.82918,-12.11632 -6.28334,-26.8368 -6.28334,-26.8368 z"
           id="path3769"
           inkscape:connector-curvature="0"
           sodipodi:nodetypes="czccsc" />
        <path
           inkscape:connector-curvature="0"
           id="path3773"
           d="m 300.37781,316.26175 c 0,0 -32.85715,-15.71429 -31.42858,-50.71429 1.42858,-35 35.71429,-37.14285 35.71429,-37.14285 0,0 -30,6.42857 -28.57143,33.57142 1.42857,27.14286 48.57143,54.28572 48.57143,54.28572 z"
           style="fill:#c000ff;fill-opacity:1;stroke:none;filter:url(#filter3788)" />
        <path
           sodipodi:nodetypes="czccsc"
           inkscape:connector-curvature="0"
           id="path3775"
           d="m 264.62632,226.99735 c 0,0 -17.86625,-1.60062 -26.77468,15.31819 -8.90843,16.91882 -1.80456,33.21712 -1.80456,33.21712 l -8.95342,-20.9455 c 0,0 -1.42045,-9.47729 10.69586,-21.30647 12.11632,-11.82918 26.8368,-6.28334 26.8368,-6.28334 z"
           style="fill:#c000ff;fill-opacity:1;stroke:none;filter:url(#filter3784)" />
      </g>
      <path
         d="m 328,212.36218 c 0.002,-7.2e-4 0.002,0.005 0.002,0.005 -0.002,0.0197 -0.0325,0.0167 -0.0444,0.0111 -0.0608,-0.0286 -0.0448,-0.11604 -0.013,-0.15925 0.096,-0.13042 0.29247,-0.0839 0.39394,0.0118 0.23482,0.22141 0.13181,0.59899 -0.0826,0.79251 -0.42184,0.38072 -1.07284,0.18634 -1.39895,-0.219 -0.57485,-0.7145 -0.24539,-1.75134 0.44037,-2.25734 1.11666,-0.82393 2.67181,-0.30677 3.4117,0.76622 1.1347,1.64556 0.36836,3.87159 -1.21598,4.90607 -2.31851,1.51384 -5.38801,0.42798 -6.78448,-1.80912 -1.96807,-3.15279 -0.48349,-7.25841 2.56509,-9.09098 4.1657,-2.50408 9.52014,-0.53271 11.8696,3.50336 3.12859,5.37453 0.5735,12.21053 -4.64338,15.16437 -6.79657,3.84828 -15.36693,0.60369 -19.01935,-6.00461 -4.66983,-8.44911 -0.62109,-19.02668 7.60652,-23.47855 10.34945,-5.59997 23.22712,-0.62358 28.58602,9.46855 6.64539,12.51489 0.60898,28.0056 -11.61016,34.38581 -14.96272,7.81275 -33.39946,0.57511 -40.92193,-14.05083 -9.1088,-17.71023 -0.51983,-39.44605 16.80998,-48.23844 20.77472,-10.5402 46.1827,-0.44096 56.37938,19.90711 12.11364,24.17347 0.33635,53.64674 -23.36165,65.38876 -27.9238,13.83583 -61.87556,0.20382 -75.31065,-27.19308 -15.71347,-32.04297 -0.0412,-70.90644 31.42083,-86.18905 36.54831,-17.75325 80.77678,0.15362 98.06804,36.06438 19.96185,41.45709 -0.38286,91.52389 -41.14319,110.99163 -46.78661,22.34597 -103.18512,-0.64868 -125.00386,-46.67671"
         sodipodi:t0="0"
         sodipodi:argument="-19.218889"
         sodipodi:radius="99.724625"
         sodipodi:revolution="6.5"
         sodipodi:expansion="3"
         sodipodi:cy="212.36218"
         sodipodi:cx="328"
         id="path3001"
         style="fill:none;stroke:#5e4bbf;stroke-width:5;stroke-linecap:round;stroke-linejoin:miter;stroke-miterlimit:4;stroke-opacity:1;stroke-dasharray:none;filter:url(#filter3771)"
         sodipodi:type="spiral" />
      <path
         transform="matrix(-1,0,0,-1,657.89526,425.72009)"
         sodipodi:type="spiral"
         style="fill:none;stroke:#bf4ba8;stroke-width:5;stroke-linecap:round;stroke-linejoin:miter;stroke-miterlimit:4;stroke-opacity:1;stroke-dasharray:none;filter:url(#filter3771)"
         id="path3776"
         sodipodi:cx="328"
         sodipodi:cy="212.36218"
         sodipodi:expansion="3"
         sodipodi:revolution="6.5"
         sodipodi:radius="99.724625"
         sodipodi:argument="-19.218889"
         sodipodi:t0="0"
         d="m 328,212.36218 c 0.002,-7.2e-4 0.002,0.005 0.002,0.005 -0.002,0.0197 -0.0325,0.0167 -0.0444,0.0111 -0.0608,-0.0286 -0.0448,-0.11604 -0.013,-0.15925 0.096,-0.13042 0.29247,-0.0839 0.39394,0.0118 0.23482,0.22141 0.13181,0.59899 -0.0826,0.79251 -0.42184,0.38072 -1.07284,0.18634 -1.39895,-0.219 -0.57485,-0.7145 -0.24539,-1.75134 0.44037,-2.25734 1.11666,-0.82393 2.67181,-0.30677 3.4117,0.76622 1.1347,1.64556 0.36836,3.87159 -1.21598,4.90607 -2.31851,1.51384 -5.38801,0.42798 -6.78448,-1.80912 -1.96807,-3.15279 -0.48349,-7.25841 2.56509,-9.09098 4.1657,-2.50408 9.52014,-0.53271 11.8696,3.50336 3.12859,5.37453 0.5735,12.21053 -4.64338,15.16437 -6.79657,3.84828 -15.36693,0.60369 -19.01935,-6.00461 -4.66983,-8.44911 -0.62109,-19.02668 7.60652,-23.47855 10.34945,-5.59997 23.22712,-0.62358 28.58602,9.46855 6.64539,12.51489 0.60898,28.0056 -11.61016,34.38581 -14.96272,7.81275 -33.39946,0.57511 -40.92193,-14.05083 -9.1088,-17.71023 -0.51983,-39.44605 16.80998,-48.23844 20.77472,-10.5402 46.1827,-0.44096 56.37938,19.90711 12.11364,24.17347 0.33635,53.64674 -23.36165,65.38876 -27.9238,13.83583 -61.87556,0.20382 -75.31065,-27.19308 -15.71347,-32.04297 -0.0412,-70.90644 31.42083,-86.18905 36.54831,-17.75325 80.77678,0.15362 98.06804,36.06438 19.96185,41.45709 -0.38286,91.52389 -41.14319,110.99163 -46.78661,22.34597 -103.18512,-0.64868 -125.00386,-46.67671" />
      <path
         transform="matrix(0.5570809,-0.5570809,0.5570809,0.5570809,27.744857,275.99907)"
         style="fill:#ff6300;fill-opacity:1;stroke:none;filter:url(#filter3912)"
         d="m 226.42857,186.6479 c 0,0 15.71429,-32.85715 50.71429,-31.42858 35,1.42858 37.14285,35.71429 37.14285,35.71429 0,0 -6.42857,-30 -33.57142,-28.57143 -27.14286,1.42857 -54.28572,48.57143 -54.28572,48.57143 z"
         id="path3828"
         inkscape:connector-curvature="0" />
      <path
         transform="matrix(0.5570809,-0.5570809,0.5570809,0.5570809,27.744857,275.99907)"
         style="fill:#ff6300;fill-opacity:1;stroke:none;filter:url(#filter3908)"
         d="m 315.69297,150.89641 c 0,0 1.60062,-17.86625 -15.31819,-26.77468 -16.91882,-8.90843 -33.21712,-1.80456 -33.21712,-1.80456 l 20.9455,-8.95342 c 0,0 9.47729,-1.42045 21.30647,10.69586 11.82918,12.11632 6.28334,26.8368 6.28334,26.8368 z"
         id="path3830"
         inkscape:connector-curvature="0"
         sodipodi:nodetypes="czccsc" />
      <path
         transform="matrix(0.5570809,-0.5570809,0.5570809,0.5570809,27.744857,275.99907)"
         inkscape:connector-curvature="0"
         id="path3832"
         d="m 354.32813,109.55581 c 0,0 32.85715,15.71429 31.42858,50.71429 -1.42858,35 -35.71429,37.14285 -35.71429,37.14285 0,0 30,-6.42857 28.57143,-33.57142 -1.42857,-27.14286 -48.57143,-54.28572 -48.57143,-54.28572 z"
         style="fill:#ff6300;fill-opacity:1;stroke:none;filter:url(#filter3904)" />
      <path
         transform="matrix(0.5570809,-0.5570809,0.5570809,0.5570809,27.744857,275.99907)"
         sodipodi:nodetypes="czccsc"
         inkscape:connector-curvature="0"
         id="path3834"
         d="m 390.07962,198.82021 c 0,0 17.86625,1.60062 26.77468,-15.31819 8.90843,-16.91882 1.80456,-33.21712 1.80456,-33.21712 l 8.95342,20.9455 c 0,0 1.42045,9.47729 -10.69586,21.30647 -12.11632,11.82918 -26.8368,6.28334 -26.8368,6.28334 z"
         style="fill:#ff6300;fill-opacity:1;stroke:none;filter:url(#filter3900)" />
      <path
         transform="matrix(0.5570809,-0.5570809,0.5570809,0.5570809,27.744857,275.99907)"
         style="fill:#ff6300;fill-opacity:1;stroke:none;filter:url(#filter3896)"
         d="m 431.27737,241.45537 c 0,0 -15.71429,32.85715 -50.71429,31.42858 -35,-1.42858 -37.14285,-35.71429 -37.14285,-35.71429 0,0 6.42857,30 33.57142,28.57143 27.14286,-1.42857 54.28572,-48.57143 54.28572,-48.57143 z"
         id="path3836"
         inkscape:connector-curvature="0" />
      <path
         transform="matrix(0.5570809,-0.5570809,0.5570809,0.5570809,27.744857,275.99907)"
         style="fill:#ff6300;fill-opacity:1;stroke:none;filter:url(#filter3892)"
         d="m 342.01297,277.20686 c 0,0 -1.60062,17.86625 15.31819,26.77468 16.91882,8.90843 33.21712,1.80456 33.21712,1.80456 l -20.9455,8.95342 c 0,0 -9.47729,1.42045 -21.30647,-10.69586 -11.82918,-12.11632 -6.28334,-26.8368 -6.28334,-26.8368 z"
         id="path3838"
         inkscape:connector-curvature="0"
         sodipodi:nodetypes="czccsc" />
      <path
         transform="matrix(0.5570809,-0.5570809,0.5570809,0.5570809,27.744857,275.99907)"
         inkscape:connector-curvature="0"
         id="path3840"
         d="m 300.37781,316.26175 c 0,0 -32.85715,-15.71429 -31.42858,-50.71429 1.42858,-35 35.71429,-37.14285 35.71429,-37.14285 0,0 -30,6.42857 -28.57143,33.57142 1.42857,27.14286 48.57143,54.28572 48.57143,54.28572 z"
         style="fill:#ff6300;fill-opacity:1;stroke:none;filter:url(#filter3888)" />
      <path
         transform="matrix(0.5570809,-0.5570809,0.5570809,0.5570809,27.744857,275.99907)"
         sodipodi:nodetypes="czccsc"
         inkscape:connector-curvature="0"
         id="path3842"
         d="m 264.62632,226.99735 c 0,0 -17.86625,-1.60062 -26.77468,15.31819 -8.90843,16.91882 -1.80456,33.21712 -1.80456,33.21712 l -8.95342,-20.9455 c 0,0 -1.42045,-9.47729 10.69586,-21.30647 12.11632,-11.82918 26.8368,-6.28334 26.8368,-6.28334 z"
         style="fill:#ff6300;fill-opacity:1;stroke:none;filter:url(#filter3884)" />
    </g>
    <g
       id="g3939"
       transform="matrix(0.27769587,0,0,0.27536779,4.8255878,897.91209)">
      <path
         style="fill:#c000ff;fill-opacity:1;stroke:none;filter:url(#filter3812)"
         d="m 226.42857,186.6479 c 0,0 15.71429,-32.85715 50.71429,-31.42858 35,1.42858 37.14285,35.71429 37.14285,35.71429 0,0 -6.42857,-30 -33.57142,-28.57143 -27.14286,1.42857 -54.28572,48.57143 -54.28572,48.57143 z"
         id="path3941"
         inkscape:connector-curvature="0" />
      <path
         style="fill:#c000ff;fill-opacity:1;stroke:none;filter:url(#filter3808)"
         d="m 315.69297,150.89641 c 0,0 1.60062,-17.86625 -15.31819,-26.77468 -16.91882,-8.90843 -33.21712,-1.80456 -33.21712,-1.80456 l 20.9455,-8.95342 c 0,0 9.47729,-1.42045 21.30647,10.69586 11.82918,12.11632 6.28334,26.8368 6.28334,26.8368 z"
         id="path3943"
         inkscape:connector-curvature="0"
         sodipodi:nodetypes="czccsc" />
      <path
         inkscape:connector-curvature="0"
         id="path3945"
         d="m 354.32813,109.55581 c 0,0 32.85715,15.71429 31.42858,50.71429 -1.42858,35 -35.71429,37.14285 -35.71429,37.14285 0,0 30,-6.42857 28.57143,-33.57142 -1.42857,-27.14286 -48.57143,-54.28572 -48.57143,-54.28572 z"
         style="fill:#c000ff;fill-opacity:1;stroke:none;filter:url(#filter3804)" />
      <path
         sodipodi:nodetypes="czccsc"
         inkscape:connector-curvature="0"
         id="path3947"
         d="m 390.07962,198.82021 c 0,0 17.86625,1.60062 26.77468,-15.31819 8.90843,-16.91882 1.80456,-33.21712 1.80456,-33.21712 l 8.95342,20.9455 c 0,0 1.42045,9.47729 -10.69586,21.30647 -12.11632,11.82918 -26.8368,6.28334 -26.8368,6.28334 z"
         style="fill:#c000ff;fill-opacity:1;stroke:none;filter:url(#filter3800)" />
      <path
         style="fill:#c000ff;fill-opacity:1;stroke:none;filter:url(#filter3796)"
         d="m 431.27737,241.45537 c 0,0 -15.71429,32.85715 -50.71429,31.42858 -35,-1.42858 -37.14285,-35.71429 -37.14285,-35.71429 0,0 6.42857,30 33.57142,28.57143 27.14286,-1.42857 54.28572,-48.57143 54.28572,-48.57143 z"
         id="path3949"
         inkscape:connector-curvature="0" />
      <path
         style="fill:#c000ff;fill-opacity:1;stroke:none;filter:url(#filter3792)"
         d="m 342.01297,277.20686 c 0,0 -1.60062,17.86625 15.31819,26.77468 16.91882,8.90843 33.21712,1.80456 33.21712,1.80456 l -20.9455,8.95342 c 0,0 -9.47729,1.42045 -21.30647,-10.69586 -11.82918,-12.11632 -6.28334,-26.8368 -6.28334,-26.8368 z"
         id="path3951"
         inkscape:connector-curvature="0"
         sodipodi:nodetypes="czccsc" />
      <path
         inkscape:connector-curvature="0"
         id="path3953"
         d="m 300.37781,316.26175 c 0,0 -32.85715,-15.71429 -31.42858,-50.71429 1.42858,-35 35.71429,-37.14285 35.71429,-37.14285 0,0 -30,6.42857 -28.57143,33.57142 1.42857,27.14286 48.57143,54.28572 48.57143,54.28572 z"
         style="fill:#c000ff;fill-opacity:1;stroke:none;filter:url(#filter3788)" />
      <path
         sodipodi:nodetypes="czccsc"
         inkscape:connector-curvature="0"
         id="path3955"
         d="m 264.62632,226.99735 c 0,0 -17.86625,-1.60062 -26.77468,15.31819 -8.90843,16.91882 -1.80456,33.21712 -1.80456,33.21712 l -8.95342,-20.9455 c 0,0 -1.42045,-9.47729 10.69586,-21.30647 12.11632,-11.82918 26.8368,-6.28334 26.8368,-6.28334 z"
         style="fill:#c000ff;fill-opacity:1;stroke:none;filter:url(#filter3784)" />
    </g>
    <path
       d="m 328,212.36218 c 0.002,-7.2e-4 0.002,0.005 0.002,0.005 -0.002,0.0197 -0.0325,0.0167 -0.0444,0.0111 -0.0608,-0.0286 -0.0448,-0.11604 -0.013,-0.15925 0.096,-0.13042 0.29247,-0.0839 0.39394,0.0118 0.23482,0.22141 0.13181,0.59899 -0.0826,0.79251 -0.42184,0.38072 -1.07284,0.18634 -1.39895,-0.219 -0.57485,-0.7145 -0.24539,-1.75134 0.44037,-2.25734 1.11666,-0.82393 2.67181,-0.30677 3.4117,0.76622 1.1347,1.64556 0.36836,3.87159 -1.21598,4.90607 -2.31851,1.51384 -5.38801,0.42798 -6.78448,-1.80912 -1.96807,-3.15279 -0.48349,-7.25841 2.56509,-9.09098 4.1657,-2.50408 9.52014,-0.53271 11.8696,3.50336 3.12859,5.37453 0.5735,12.21053 -4.64338,15.16437 -6.79657,3.84828 -15.36693,0.60369 -19.01935,-6.00461 -4.66983,-8.44911 -0.62109,-19.02668 7.60652,-23.47855 10.34945,-5.59997 23.22712,-0.62358 28.58602,9.46855 6.64539,12.51489 0.60898,28.0056 -11.61016,34.38581 -14.96272,7.81275 -33.39946,0.57511 -40.92193,-14.05083 -9.1088,-17.71023 -0.51983,-39.44605 16.80998,-48.23844 20.77472,-10.5402 46.1827,-0.44096 56.37938,19.90711 12.11364,24.17347 0.33635,53.64674 -23.36165,65.38876 -27.9238,13.83583 -61.87556,0.20382 -75.31065,-27.19308 -15.71347,-32.04297 -0.0412,-70.90644 31.42083,-86.18905 36.54831,-17.75325 80.77678,0.15362 98.06804,36.06438 19.96185,41.45709 -0.38286,91.52389 -41.14319,110.99163 -46.78661,22.34597 -103.18512,-0.64868 -125.00386,-46.67671"
       sodipodi:t0="0"
       sodipodi:argument="-19.218889"
       sodipodi:radius="99.724625"
       sodipodi:revolution="6.5"
       sodipodi:expansion="3"
       sodipodi:cy="212.36218"
       sodipodi:cx="328"
       id="path3957"
       style="fill:none;stroke:#5e4bbf;stroke-width:5;stroke-linecap:round;stroke-linejoin:miter;stroke-miterlimit:4;stroke-opacity:1;stroke-dasharray:none;filter:url(#filter3771)"
       sodipodi:type="spiral"
       transform="matrix(0.28413941,0,0,0.28891047,2.533081,894.8506)" />
    <path
       transform="matrix(-0.28413941,0,0,-0.28891047,189.46705,1017.8456)"
       sodipodi:type="spiral"
       style="fill:none;stroke:#bf4ba8;stroke-width:5;stroke-linecap:round;stroke-linejoin:miter;stroke-miterlimit:4;stroke-opacity:1;stroke-dasharray:none;filter:url(#filter3771)"
       id="path3959"
       sodipodi:cx="328"
       sodipodi:cy="212.36218"
       sodipodi:expansion="3"
       sodipodi:revolution="6.5"
       sodipodi:radius="99.724625"
       sodipodi:argument="-19.218889"
       sodipodi:t0="0"
       d="m 328,212.36218 c 0.002,-7.2e-4 0.002,0.005 0.002,0.005 -0.002,0.0197 -0.0325,0.0167 -0.0444,0.0111 -0.0608,-0.0286 -0.0448,-0.11604 -0.013,-0.15925 0.096,-0.13042 0.29247,-0.0839 0.39394,0.0118 0.23482,0.22141 0.13181,0.59899 -0.0826,0.79251 -0.42184,0.38072 -1.07284,0.18634 -1.39895,-0.219 -0.57485,-0.7145 -0.24539,-1.75134 0.44037,-2.25734 1.11666,-0.82393 2.67181,-0.30677 3.4117,0.76622 1.1347,1.64556 0.36836,3.87159 -1.21598,4.90607 -2.31851,1.51384 -5.38801,0.42798 -6.78448,-1.80912 -1.96807,-3.15279 -0.48349,-7.25841 2.56509,-9.09098 4.1657,-2.50408 9.52014,-0.53271 11.8696,3.50336 3.12859,5.37453 0.5735,12.21053 -4.64338,15.16437 -6.79657,3.84828 -15.36693,0.60369 -19.01935,-6.00461 -4.66983,-8.44911 -0.62109,-19.02668 7.60652,-23.47855 10.34945,-5.59997 23.22712,-0.62358 28.58602,9.46855 6.64539,12.51489 0.60898,28.0056 -11.61016,34.38581 -14.96272,7.81275 -33.39946,0.57511 -40.92193,-14.05083 -9.1088,-17.71023 -0.51983,-39.44605 16.80998,-48.23844 20.77472,-10.5402 46.1827,-0.44096 56.37938,19.90711 12.11364,24.17347 0.33635,53.64674 -23.36165,65.38876 -27.9238,13.83583 -61.87556,0.20382 -75.31065,-27.19308 -15.71347,-32.04297 -0.0412,-70.90644 31.42083,-86.18905 36.54831,-17.75325 80.77678,0.15362 98.06804,36.06438 19.96185,41.45709 -0.38286,91.52389 -41.14319,110.99163 -46.78661,22.34597 -103.18512,-0.64868 -125.00386,-46.67671" />
    <path
       transform="matrix(0.14591609,-0.14544389,0.14591609,0.14544389,16.198769,973.60318)"
       style="fill:#ff6300;fill-opacity:1;stroke:none;filter:url(#filter3912)"
       d="m 226.42857,186.6479 c 0,0 15.71429,-32.85715 50.71429,-31.42858 35,1.42858 37.14285,35.71429 37.14285,35.71429 0,0 -6.42857,-30 -33.57142,-28.57143 -27.14286,1.42857 -54.28572,48.57143 -54.28572,48.57143 z"
       id="path3961"
       inkscape:connector-curvature="0" />
    <path
       transform="matrix(0.14591609,-0.14544389,0.14591609,0.14544389,16.198769,973.60318)"
       style="fill:#ff6300;fill-opacity:1;stroke:none;filter:url(#filter3908)"
       d="m 315.69297,150.89641 c 0,0 1.60062,-17.86625 -15.31819,-26.77468 -16.91882,-8.90843 -33.21712,-1.80456 -33.21712,-1.80456 l 20.9455,-8.95342 c 0,0 9.47729,-1.42045 21.30647,10.69586 11.82918,12.11632 6.28334,26.8368 6.28334,26.8368 z"
       id="path3963"
       inkscape:connector-curvature="0"
       sodipodi:nodetypes="czccsc" />
    <path
       transform="matrix(0.14591609,-0.14544389,0.14591609,0.14544389,16.198769,973.60318)"
       inkscape:connector-curvature="0"
       id="path3965"
       d="m 354.32813,109.55581 c 0,0 32.85715,15.71429 31.42858,50.71429 -1.42858,35 -35.71429,37.14285 -35.71429,37.14285 0,0 30,-6.42857 28.57143,-33.57142 -1.42857,-27.14286 -48.57143,-54.28572 -48.57143,-54.28572 z"
       style="fill:#ff6300;fill-opacity:1;stroke:none;filter:url(#filter3904)" />
    <path
       transform="matrix(0.14591609,-0.14544389,0.14591609,0.14544389,16.198769,973.60318)"
       sodipodi:nodetypes="czccsc"
       inkscape:connector-curvature="0"
       id="path3967"
       d="m 390.07962,198.82021 c 0,0 17.86625,1.60062 26.77468,-15.31819 8.90843,-16.91882 1.80456,-33.21712 1.80456,-33.21712 l 8.95342,20.9455 c 0,0 1.42045,9.47729 -10.69586,21.30647 -12.11632,11.82918 -26.8368,6.28334 -26.8368,6.28334 z"
       style="fill:#ff6300;fill-opacity:1;stroke:none;filter:url(#filter3900)" />
    <path
       transform="matrix(0.14591609,-0.14544389,0.14591609,0.14544389,16.198769,973.60318)"
       style="fill:#ff6300;fill-opacity:1;stroke:none;filter:url(#filter3896)"
       d="m 431.27737,241.45537 c 0,0 -15.71429,32.85715 -50.71429,31.42858 -35,-1.42858 -37.14285,-35.71429 -37.14285,-35.71429 0,0 6.42857,30 33.57142,28.57143 27.14286,-1.42857 54.28572,-48.57143 54.28572,-48.57143 z"
       id="path3969"
       inkscape:connector-curvature="0" />
    <path
       transform="matrix(0.14591609,-0.14544389,0.14591609,0.14544389,16.198769,973.60318)"
       style="fill:#ff6300;fill-opacity:1;stroke:none;filter:url(#filter3892)"
       d="m 342.01297,277.20686 c 0,0 -1.60062,17.86625 15.31819,26.77468 16.91882,8.90843 33.21712,1.80456 33.21712,1.80456 l -20.9455,8.95342 c 0,0 -9.47729,1.42045 -21.30647,-10.69586 -11.82918,-12.11632 -6.28334,-26.8368 -6.28334,-26.8368 z"
       id="path3971"
       inkscape:connector-curvature="0"
       sodipodi:nodetypes="czccsc" />
    <path
       transform="matrix(0.14591609,-0.14544389,0.14591609,0.14544389,16.198769,973.60318)"
       inkscape:connector-curvature="0"
       id="path3973"
       d="m 300.37781,316.26175 c 0,0 -32.85715,-15.71429 -31.42858,-50.71429 1.42858,-35 35.71429,-37.14285 35.71429,-37.14285 0,0 -30,6.42857 -28.57143,33.57142 1.42857,27.14286 48.57143,54.28572 48.57143,54.28572 z"
       style="fill:#ff6300;fill-opacity:1;stroke:none;filter:url(#filter3888)" />
    <path
       transform="matrix(0.14591609,-0.14544389,0.14591609,0.14544389,16.198769,973.60318)"
       sodipodi:nodetypes="czccsc"
       inkscape:connector-curvature="0"
       id="path3975"
       d="m 264.62632,226.99735 c 0,0 -17.86625,-1.60062 -26.77468,15.31819 -8.90843,16.91882 -1.80456,33.21712 -1.80456,33.21712 l -8.95342,-20.9455 c 0,0 -1.42045,-9.47729 10.69586,-21.30647 12.11632,-11.82918 26.8368,-6.28334 26.8368,-6.28334 z"
       style="fill:#ff6300;fill-opacity:1;stroke:none;filter:url(#filter3884)" />
    <g
       transform="matrix(0.25948631,0,0,0.25731089,-53.864285,965.55351)"
       id="g3996">
      <path
         inkscape:connector-curvature="0"
         id="path3998"
         d="m 226.42857,186.6479 c 0,0 15.71429,-32.85715 50.71429,-31.42858 35,1.42858 37.14285,35.71429 37.14285,35.71429 0,0 -6.42857,-30 -33.57142,-28.57143 -27.14286,1.42857 -54.28572,48.57143 -54.28572,48.57143 z"
         style="fill:#c000ff;fill-opacity:1;stroke:none;filter:url(#filter3812)" />
      <path
         sodipodi:nodetypes="czccsc"
         inkscape:connector-curvature="0"
         id="path4000"
         d="m 315.69297,150.89641 c 0,0 1.60062,-17.86625 -15.31819,-26.77468 -16.91882,-8.90843 -33.21712,-1.80456 -33.21712,-1.80456 l 20.9455,-8.95342 c 0,0 9.47729,-1.42045 21.30647,10.69586 11.82918,12.11632 6.28334,26.8368 6.28334,26.8368 z"
         style="fill:#c000ff;fill-opacity:1;stroke:none;filter:url(#filter3808)" />
      <path
         style="fill:#c000ff;fill-opacity:1;stroke:none;filter:url(#filter3804)"
         d="m 354.32813,109.55581 c 0,0 32.85715,15.71429 31.42858,50.71429 -1.42858,35 -35.71429,37.14285 -35.71429,37.14285 0,0 30,-6.42857 28.57143,-33.57142 -1.42857,-27.14286 -48.57143,-54.28572 -48.57143,-54.28572 z"
         id="path4002"
         inkscape:connector-curvature="0" />
      <path
         style="fill:#c000ff;fill-opacity:1;stroke:none;filter:url(#filter3800)"
         d="m 390.07962,198.82021 c 0,0 17.86625,1.60062 26.77468,-15.31819 8.90843,-16.91882 1.80456,-33.21712 1.80456,-33.21712 l 8.95342,20.9455 c 0,0 1.42045,9.47729 -10.69586,21.30647 -12.11632,11.82918 -26.8368,6.28334 -26.8368,6.28334 z"
         id="path4004"
         inkscape:connector-curvature="0"
         sodipodi:nodetypes="czccsc" />
      <path
         inkscape:connector-curvature="0"
         id="path4006"
         d="m 431.27737,241.45537 c 0,0 -15.71429,32.85715 -50.71429,31.42858 -35,-1.42858 -37.14285,-35.71429 -37.14285,-35.71429 0,0 6.42857,30 33.57142,28.57143 27.14286,-1.42857 54.28572,-48.57143 54.28572,-48.57143 z"
         style="fill:#c000ff;fill-opacity:1;stroke:none;filter:url(#filter3796)" />
      <path
         sodipodi:nodetypes="czccsc"
         inkscape:connector-curvature="0"
         id="path4008"
         d="m 342.01297,277.20686 c 0,0 -1.60062,17.86625 15.31819,26.77468 16.91882,8.90843 33.21712,1.80456 33.21712,1.80456 l -20.9455,8.95342 c 0,0 -9.47729,1.42045 -21.30647,-10.69586 -11.82918,-12.11632 -6.28334,-26.8368 -6.28334,-26.8368 z"
         style="fill:#c000ff;fill-opacity:1;stroke:none;filter:url(#filter3792)" />
      <path
         style="fill:#c000ff;fill-opacity:1;stroke:none;filter:url(#filter3788)"
         d="m 300.37781,316.26175 c 0,0 -32.85715,-15.71429 -31.42858,-50.71429 1.42858,-35 35.71429,-37.14285 35.71429,-37.14285 0,0 -30,6.42857 -28.57143,33.57142 1.42857,27.14286 48.57143,54.28572 48.57143,54.28572 z"
         id="path4010"
         inkscape:connector-curvature="0" />
      <path
         style="fill:#c000ff;fill-opacity:1;stroke:none;filter:url(#filter3784)"
         d="m 264.62632,226.99735 c 0,0 -17.86625,-1.60062 -26.77468,15.31819 -8.90843,16.91882 -1.80456,33.21712 -1.80456,33.21712 l -8.95342,-20.9455 c 0,0 -1.42045,-9.47729 10.69586,-21.30647 12.11632,-11.82918 26.8368,-6.28334 26.8368,-6.28334 z"
         id="path4012"
         inkscape:connector-curvature="0"
         sodipodi:nodetypes="czccsc" />
    </g>
    <path
       transform="matrix(0.28413941,0,0,0.28891047,-61.466919,958.85065)"
       sodipodi:type="spiral"
       style="fill:none;stroke:#5e4bbf;stroke-width:5;stroke-linecap:round;stroke-linejoin:miter;stroke-miterlimit:4;stroke-opacity:1;stroke-dasharray:none;filter:url(#filter3771)"
       id="path4014"
       sodipodi:cx="328"
       sodipodi:cy="212.36218"
       sodipodi:expansion="3"
       sodipodi:revolution="6.5"
       sodipodi:radius="99.724625"
       sodipodi:argument="-19.218889"
       sodipodi:t0="0"
       d="m 328,212.36218 c 0.002,-7.2e-4 0.002,0.005 0.002,0.005 -0.002,0.0197 -0.0325,0.0167 -0.0444,0.0111 -0.0608,-0.0286 -0.0448,-0.11604 -0.013,-0.15925 0.096,-0.13042 0.29247,-0.0839 0.39394,0.0118 0.23482,0.22141 0.13181,0.59899 -0.0826,0.79251 -0.42184,0.38072 -1.07284,0.18634 -1.39895,-0.219 -0.57485,-0.7145 -0.24539,-1.75134 0.44037,-2.25734 1.11666,-0.82393 2.67181,-0.30677 3.4117,0.76622 1.1347,1.64556 0.36836,3.87159 -1.21598,4.90607 -2.31851,1.51384 -5.38801,0.42798 -6.78448,-1.80912 -1.96807,-3.15279 -0.48349,-7.25841 2.56509,-9.09098 4.1657,-2.50408 9.52014,-0.53271 11.8696,3.50336 3.12859,5.37453 0.5735,12.21053 -4.64338,15.16437 -6.79657,3.84828 -15.36693,0.60369 -19.01935,-6.00461 -4.66983,-8.44911 -0.62109,-19.02668 7.60652,-23.47855 10.34945,-5.59997 23.22712,-0.62358 28.58602,9.46855 6.64539,12.51489 0.60898,28.0056 -11.61016,34.38581 -14.96272,7.81275 -33.39946,0.57511 -40.92193,-14.05083 -9.1088,-17.71023 -0.51983,-39.44605 16.80998,-48.23844 20.77472,-10.5402 46.1827,-0.44096 56.37938,19.90711 12.11364,24.17347 0.33635,53.64674 -23.36165,65.38876 -27.9238,13.83583 -61.87556,0.20382 -75.31065,-27.19308 -15.71347,-32.04297 -0.0412,-70.90644 31.42083,-86.18905 36.54831,-17.75325 80.77678,0.15362 98.06804,36.06438 19.96185,41.45709 -0.38286,91.52389 -41.14319,110.99163 -46.78661,22.34597 -103.18512,-0.64868 -125.00386,-46.67671" />
    <path
       d="m 328,212.36218 c 0.002,-7.2e-4 0.002,0.005 0.002,0.005 -0.002,0.0197 -0.0325,0.0167 -0.0444,0.0111 -0.0608,-0.0286 -0.0448,-0.11604 -0.013,-0.15925 0.096,-0.13042 0.29247,-0.0839 0.39394,0.0118 0.23482,0.22141 0.13181,0.59899 -0.0826,0.79251 -0.42184,0.38072 -1.07284,0.18634 -1.39895,-0.219 -0.57485,-0.7145 -0.24539,-1.75134 0.44037,-2.25734 1.11666,-0.82393 2.67181,-0.30677 3.4117,0.76622 1.1347,1.64556 0.36836,3.87159 -1.21598,4.90607 -2.31851,1.51384 -5.38801,0.42798 -6.78448,-1.80912 -1.96807,-3.15279 -0.48349,-7.25841 2.56509,-9.09098 4.1657,-2.50408 9.52014,-0.53271 11.8696,3.50336 3.12859,5.37453 0.5735,12.21053 -4.64338,15.16437 -6.79657,3.84828 -15.36693,0.60369 -19.01935,-6.00461 -4.66983,-8.44911 -0.62109,-19.02668 7.60652,-23.47855 10.34945,-5.59997 23.22712,-0.62358 28.58602,9.46855 6.64539,12.51489 0.60898,28.0056 -11.61016,34.38581 -14.96272,7.81275 -33.39946,0.57511 -40.92193,-14.05083 -9.1088,-17.71023 -0.51983,-39.44605 16.80998,-48.23844 20.77472,-10.5402 46.1827,-0.44096 56.37938,19.90711 12.11364,24.17347 0.33635,53.64674 -23.36165,65.38876 -27.9238,13.83583 -61.87556,0.20382 -75.31065,-27.19308 -15.71347,-32.04297 -0.0412,-70.90644 31.42083,-86.18905 36.54831,-17.75325 80.77678,0.15362 98.06804,36.06438 19.96185,41.45709 -0.38286,91.52389 -41.14319,110.99163 -46.78661,22.34597 -103.18512,-0.64868 -125.00386,-46.67671"
       sodipodi:t0="0"
       sodipodi:argument="-19.218889"
       sodipodi:radius="99.724625"
       sodipodi:revolution="6.5"
       sodipodi:expansion="3"
       sodipodi:cy="212.36218"
       sodipodi:cx="328"
       id="path4016"
       style="fill:none;stroke:#bf4ba8;stroke-width:5;stroke-linecap:round;stroke-linejoin:miter;stroke-miterlimit:4;stroke-opacity:1;stroke-dasharray:none;filter:url(#filter3771)"
       sodipodi:type="spiral"
       transform="matrix(-0.28413941,0,0,-0.28891047,125.46705,1081.8457)" />
    <g
       id="g4034"
       transform="matrix(0.93750313,0,0,0.93749862,2.4463568,63.325511)">
      <path
         transform="matrix(0.14591609,-0.14544389,0.14591609,0.14544389,-47.801231,1037.6032)"
         style="fill:#ff6300;fill-opacity:1;stroke:none;filter:url(#filter3912)"
         d="m 226.42857,186.6479 c 0,0 15.71429,-32.85715 50.71429,-31.42858 35,1.42858 37.14285,35.71429 37.14285,35.71429 0,0 -6.42857,-30 -33.57142,-28.57143 -27.14286,1.42857 -54.28572,48.57143 -54.28572,48.57143 z"
         id="path4018"
         inkscape:connector-curvature="0" />
      <path
         transform="matrix(0.14591609,-0.14544389,0.14591609,0.14544389,-47.801231,1037.6032)"
         style="fill:#ff6300;fill-opacity:1;stroke:none;filter:url(#filter3908)"
         d="m 315.69297,150.89641 c 0,0 1.60062,-17.86625 -15.31819,-26.77468 -16.91882,-8.90843 -33.21712,-1.80456 -33.21712,-1.80456 l 20.9455,-8.95342 c 0,0 9.47729,-1.42045 21.30647,10.69586 11.82918,12.11632 6.28334,26.8368 6.28334,26.8368 z"
         id="path4020"
         inkscape:connector-curvature="0"
         sodipodi:nodetypes="czccsc" />
      <path
         transform="matrix(0.14591609,-0.14544389,0.14591609,0.14544389,-47.801231,1037.6032)"
         inkscape:connector-curvature="0"
         id="path4022"
         d="m 354.32813,109.55581 c 0,0 32.85715,15.71429 31.42858,50.71429 -1.42858,35 -35.71429,37.14285 -35.71429,37.14285 0,0 30,-6.42857 28.57143,-33.57142 -1.42857,-27.14286 -48.57143,-54.28572 -48.57143,-54.28572 z"
         style="fill:#ff6300;fill-opacity:1;stroke:none;filter:url(#filter3904)" />
      <path
         transform="matrix(0.14591609,-0.14544389,0.14591609,0.14544389,-47.801231,1037.6032)"
         sodipodi:nodetypes="czccsc"
         inkscape:connector-curvature="0"
         id="path4024"
         d="m 390.07962,198.82021 c 0,0 17.86625,1.60062 26.77468,-15.31819 8.90843,-16.91882 1.80456,-33.21712 1.80456,-33.21712 l 8.95342,20.9455 c 0,0 1.42045,9.47729 -10.69586,21.30647 -12.11632,11.82918 -26.8368,6.28334 -26.8368,6.28334 z"
         style="fill:#ff6300;fill-opacity:1;stroke:none;filter:url(#filter3900)" />
      <path
         transform="matrix(0.14591609,-0.14544389,0.14591609,0.14544389,-47.801231,1037.6032)"
         style="fill:#ff6300;fill-opacity:1;stroke:none;filter:url(#filter3896)"
         d="m 431.27737,241.45537 c 0,0 -15.71429,32.85715 -50.71429,31.42858 -35,-1.42858 -37.14285,-35.71429 -37.14285,-35.71429 0,0 6.42857,30 33.57142,28.57143 27.14286,-1.42857 54.28572,-48.57143 54.28572,-48.57143 z"
         id="path4026"
         inkscape:connector-curvature="0" />
      <path
         transform="matrix(0.14591609,-0.14544389,0.14591609,0.14544389,-47.801231,1037.6032)"
         style="fill:#ff6300;fill-opacity:1;stroke:none;filter:url(#filter3892)"
         d="m 342.01297,277.20686 c 0,0 -1.60062,17.86625 15.31819,26.77468 16.91882,8.90843 33.21712,1.80456 33.21712,1.80456 l -20.9455,8.95342 c 0,0 -9.47729,1.42045 -21.30647,-10.69586 -11.82918,-12.11632 -6.28334,-26.8368 -6.28334,-26.8368 z"
         id="path4028"
         inkscape:connector-curvature="0"
         sodipodi:nodetypes="czccsc" />
      <path
         transform="matrix(0.14591609,-0.14544389,0.14591609,0.14544389,-47.801231,1037.6032)"
         inkscape:connector-curvature="0"
         id="path4030"
         d="m 300.37781,316.26175 c 0,0 -32.85715,-15.71429 -31.42858,-50.71429 1.42858,-35 35.71429,-37.14285 35.71429,-37.14285 0,0 -30,6.42857 -28.57143,33.57142 1.42857,27.14286 48.57143,54.28572 48.57143,54.28572 z"
         style="fill:#ff6300;fill-opacity:1;stroke:none;filter:url(#filter3888)" />
      <path
         transform="matrix(0.14591609,-0.14544389,0.14591609,0.14544389,-47.801231,1037.6032)"
         sodipodi:nodetypes="czccsc"
         inkscape:connector-curvature="0"
         id="path4032"
         d="m 264.62632,226.99735 c 0,0 -17.86625,-1.60062 -26.77468,15.31819 -8.90843,16.91882 -1.80456,33.21712 -1.80456,33.21712 l -8.95342,-20.9455 c 0,0 -1.42045,-9.47729 10.69586,-21.30647 12.11632,-11.82918 26.8368,-6.28334 26.8368,-6.28334 z"
         style="fill:#ff6300;fill-opacity:1;stroke:none;filter:url(#filter3884)" />
    </g>
    <g
       id="g4044"
       transform="matrix(0.23672435,0,0,0.23473976,18.121053,969.8591)">
      <path
         style="fill:#c000ff;fill-opacity:1;stroke:none;filter:url(#filter3812)"
         d="m 226.42857,186.6479 c 0,0 15.71429,-32.85715 50.71429,-31.42858 35,1.42858 37.14285,35.71429 37.14285,35.71429 0,0 -6.42857,-30 -33.57142,-28.57143 -27.14286,1.42857 -54.28572,48.57143 -54.28572,48.57143 z"
         id="path4046"
         inkscape:connector-curvature="0" />
      <path
         style="fill:#c000ff;fill-opacity:1;stroke:none;filter:url(#filter3808)"
         d="m 315.69297,150.89641 c 0,0 1.60062,-17.86625 -15.31819,-26.77468 -16.91882,-8.90843 -33.21712,-1.80456 -33.21712,-1.80456 l 20.9455,-8.95342 c 0,0 9.47729,-1.42045 21.30647,10.69586 11.82918,12.11632 6.28334,26.8368 6.28334,26.8368 z"
         id="path4048"
         inkscape:connector-curvature="0"
         sodipodi:nodetypes="czccsc" />
      <path
         inkscape:connector-curvature="0"
         id="path4050"
         d="m 354.32813,109.55581 c 0,0 32.85715,15.71429 31.42858,50.71429 -1.42858,35 -35.71429,37.14285 -35.71429,37.14285 0,0 30,-6.42857 28.57143,-33.57142 -1.42857,-27.14286 -48.57143,-54.28572 -48.57143,-54.28572 z"
         style="fill:#c000ff;fill-opacity:1;stroke:none;filter:url(#filter3804)" />
      <path
         sodipodi:nodetypes="czccsc"
         inkscape:connector-curvature="0"
         id="path4052"
         d="m 390.07962,198.82021 c 0,0 17.86625,1.60062 26.77468,-15.31819 8.90843,-16.91882 1.80456,-33.21712 1.80456,-33.21712 l 8.95342,20.9455 c 0,0 1.42045,9.47729 -10.69586,21.30647 -12.11632,11.82918 -26.8368,6.28334 -26.8368,6.28334 z"
         style="fill:#c000ff;fill-opacity:1;stroke:none;filter:url(#filter3800)" />
      <path
         style="fill:#c000ff;fill-opacity:1;stroke:none;filter:url(#filter3796)"
         d="m 431.27737,241.45537 c 0,0 -15.71429,32.85715 -50.71429,31.42858 -35,-1.42858 -37.14285,-35.71429 -37.14285,-35.71429 0,0 6.42857,30 33.57142,28.57143 27.14286,-1.42857 54.28572,-48.57143 54.28572,-48.57143 z"
         id="path4054"
         inkscape:connector-curvature="0" />
      <path
         style="fill:#c000ff;fill-opacity:1;stroke:none;filter:url(#filter3792)"
         d="m 342.01297,277.20686 c 0,0 -1.60062,17.86625 15.31819,26.77468 16.91882,8.90843 33.21712,1.80456 33.21712,1.80456 l -20.9455,8.95342 c 0,0 -9.47729,1.42045 -21.30647,-10.69586 -11.82918,-12.11632 -6.28334,-26.8368 -6.28334,-26.8368 z"
         id="path4056"
         inkscape:connector-curvature="0"
         sodipodi:nodetypes="czccsc" />
      <path
         inkscape:connector-curvature="0"
         id="path4058"
         d="m 300.37781,316.26175 c 0,0 -32.85715,-15.71429 -31.42858,-50.71429 1.42858,-35 35.71429,-37.14285 35.71429,-37.14285 0,0 -30,6.42857 -28.57143,33.57142 1.42857,27.14286 48.57143,54.28572 48.57143,54.28572 z"
         style="fill:#c000ff;fill-opacity:1;stroke:none;filter:url(#filter3788)" />
      <path
         sodipodi:nodetypes="czccsc"
         inkscape:connector-curvature="0"
         id="path4060"
         d="m 264.62632,226.99735 c 0,0 -17.86625,-1.60062 -26.77468,15.31819 -8.90843,16.91882 -1.80456,33.21712 -1.80456,33.21712 l -8.95342,-20.9455 c 0,0 -1.42045,-9.47729 10.69586,-21.30647 12.11632,-11.82918 26.8368,-6.28334 26.8368,-6.28334 z"
         style="fill:#c000ff;fill-opacity:1;stroke:none;filter:url(#filter3784)" />
    </g>
    <path
       d="m 328,212.36218 c 0.002,-7.2e-4 0.002,0.005 0.002,0.005 -0.002,0.0197 -0.0325,0.0167 -0.0444,0.0111 -0.0608,-0.0286 -0.0448,-0.11604 -0.013,-0.15925 0.096,-0.13042 0.29247,-0.0839 0.39394,0.0118 0.23482,0.22141 0.13181,0.59899 -0.0826,0.79251 -0.42184,0.38072 -1.07284,0.18634 -1.39895,-0.219 -0.57485,-0.7145 -0.24539,-1.75134 0.44037,-2.25734 1.11666,-0.82393 2.67181,-0.30677 3.4117,0.76622 1.1347,1.64556 0.36836,3.87159 -1.21598,4.90607 -2.31851,1.51384 -5.38801,0.42798 -6.78448,-1.80912 -1.96807,-3.15279 -0.48349,-7.25841 2.56509,-9.09098 4.1657,-2.50408 9.52014,-0.53271 11.8696,3.50336 3.12859,5.37453 0.5735,12.21053 -4.64338,15.16437 -6.79657,3.84828 -15.36693,0.60369 -19.01935,-6.00461 -4.66983,-8.44911 -0.62109,-19.02668 7.60652,-23.47855 10.34945,-5.59997 23.22712,-0.62358 28.58602,9.46855 6.64539,12.51489 0.60898,28.0056 -11.61016,34.38581 -14.96272,7.81275 -33.39946,0.57511 -40.92193,-14.05083 -9.1088,-17.71023 -0.51983,-39.44605 16.80998,-48.23844 20.77472,-10.5402 46.1827,-0.44096 56.37938,19.90711 12.11364,24.17347 0.33635,53.64674 -23.36165,65.38876 -27.9238,13.83583 -61.87556,0.20382 -75.31065,-27.19308 -15.71347,-32.04297 -0.0412,-70.90644 31.42083,-86.18905 36.54831,-17.75325 80.77678,0.15362 98.06804,36.06438 19.96185,41.45709 -0.38286,91.52389 -41.14319,110.99163 -46.78661,22.34597 -103.18512,-0.64868 -125.00386,-46.67671"
       sodipodi:t0="0"
       sodipodi:argument="-19.218889"
       sodipodi:radius="99.724625"
       sodipodi:revolution="6.5"
       sodipodi:expansion="3"
       sodipodi:cy="212.36218"
       sodipodi:cx="328"
       id="path4062"
       style="fill:none;stroke:#5e4bbf;stroke-width:5;stroke-linecap:round;stroke-linejoin:miter;stroke-miterlimit:4;stroke-opacity:1;stroke-dasharray:none;filter:url(#filter3771)"
       sodipodi:type="spiral"
       transform="matrix(0.28413941,0,0,0.28891047,2.533081,958.85065)" />
    <path
       transform="matrix(-0.28413941,0,0,-0.28891047,189.46705,1081.8457)"
       sodipodi:type="spiral"
       style="fill:none;stroke:#bf4ba8;stroke-width:5;stroke-linecap:round;stroke-linejoin:miter;stroke-miterlimit:4;stroke-opacity:1;stroke-dasharray:none;filter:url(#filter3771)"
       id="path4064"
       sodipodi:cx="328"
       sodipodi:cy="212.36218"
       sodipodi:expansion="3"
       sodipodi:revolution="6.5"
       sodipodi:radius="99.724625"
       sodipodi:argument="-19.218889"
       sodipodi:t0="0"
       d="m 328,212.36218 c 0.002,-7.2e-4 0.002,0.005 0.002,0.005 -0.002,0.0197 -0.0325,0.0167 -0.0444,0.0111 -0.0608,-0.0286 -0.0448,-0.11604 -0.013,-0.15925 0.096,-0.13042 0.29247,-0.0839 0.39394,0.0118 0.23482,0.22141 0.13181,0.59899 -0.0826,0.79251 -0.42184,0.38072 -1.07284,0.18634 -1.39895,-0.219 -0.57485,-0.7145 -0.24539,-1.75134 0.44037,-2.25734 1.11666,-0.82393 2.67181,-0.30677 3.4117,0.76622 1.1347,1.64556 0.36836,3.87159 -1.21598,4.90607 -2.31851,1.51384 -5.38801,0.42798 -6.78448,-1.80912 -1.96807,-3.15279 -0.48349,-7.25841 2.56509,-9.09098 4.1657,-2.50408 9.52014,-0.53271 11.8696,3.50336 3.12859,5.37453 0.5735,12.21053 -4.64338,15.16437 -6.79657,3.84828 -15.36693,0.60369 -19.01935,-6.00461 -4.66983,-8.44911 -0.62109,-19.02668 7.60652,-23.47855 10.34945,-5.59997 23.22712,-0.62358 28.58602,9.46855 6.64539,12.51489 0.60898,28.0056 -11.61016,34.38581 -14.96272,7.81275 -33.39946,0.57511 -40.92193,-14.05083 -9.1088,-17.71023 -0.51983,-39.44605 16.80998,-48.23844 20.77472,-10.5402 46.1827,-0.44096 56.37938,19.90711 12.11364,24.17347 0.33635,53.64674 -23.36165,65.38876 -27.9238,13.83583 -61.87556,0.20382 -75.31065,-27.19308 -15.71347,-32.04297 -0.0412,-70.90644 31.42083,-86.18905 36.54831,-17.75325 80.77678,0.15362 98.06804,36.06438 19.96185,41.45709 -0.38286,91.52389 -41.14319,110.99163 -46.78661,22.34597 -103.18512,-0.64868 -125.00386,-46.67671" />
    <g
       transform="matrix(0.89583754,0,0,0.89583136,68.07727,105.32245)"
       id="g4066">
      <path
         inkscape:connector-curvature="0"
         id="path4068"
         d="m 226.42857,186.6479 c 0,0 15.71429,-32.85715 50.71429,-31.42858 35,1.42858 37.14285,35.71429 37.14285,35.71429 0,0 -6.42857,-30 -33.57142,-28.57143 -27.14286,1.42857 -54.28572,48.57143 -54.28572,48.57143 z"
         style="fill:#ff6300;fill-opacity:1;stroke:none;filter:url(#filter3912)"
         transform="matrix(0.14591609,-0.14544389,0.14591609,0.14544389,-47.801231,1037.6032)" />
      <path
         sodipodi:nodetypes="czccsc"
         inkscape:connector-curvature="0"
         id="path4070"
         d="m 315.69297,150.89641 c 0,0 1.60062,-17.86625 -15.31819,-26.77468 -16.91882,-8.90843 -33.21712,-1.80456 -33.21712,-1.80456 l 20.9455,-8.95342 c 0,0 9.47729,-1.42045 21.30647,10.69586 11.82918,12.11632 6.28334,26.8368 6.28334,26.8368 z"
         style="fill:#ff6300;fill-opacity:1;stroke:none;filter:url(#filter3908)"
         transform="matrix(0.14591609,-0.14544389,0.14591609,0.14544389,-47.801231,1037.6032)" />
      <path
         style="fill:#ff6300;fill-opacity:1;stroke:none;filter:url(#filter3904)"
         d="m 354.32813,109.55581 c 0,0 32.85715,15.71429 31.42858,50.71429 -1.42858,35 -35.71429,37.14285 -35.71429,37.14285 0,0 30,-6.42857 28.57143,-33.57142 -1.42857,-27.14286 -48.57143,-54.28572 -48.57143,-54.28572 z"
         id="path4072"
         inkscape:connector-curvature="0"
         transform="matrix(0.14591609,-0.14544389,0.14591609,0.14544389,-47.801231,1037.6032)" />
      <path
         style="fill:#ff6300;fill-opacity:1;stroke:none;filter:url(#filter3900)"
         d="m 390.07962,198.82021 c 0,0 17.86625,1.60062 26.77468,-15.31819 8.90843,-16.91882 1.80456,-33.21712 1.80456,-33.21712 l 8.95342,20.9455 c 0,0 1.42045,9.47729 -10.69586,21.30647 -12.11632,11.82918 -26.8368,6.28334 -26.8368,6.28334 z"
         id="path4074"
         inkscape:connector-curvature="0"
         sodipodi:nodetypes="czccsc"
         transform="matrix(0.14591609,-0.14544389,0.14591609,0.14544389,-47.801231,1037.6032)" />
      <path
         inkscape:connector-curvature="0"
         id="path4076"
         d="m 431.27737,241.45537 c 0,0 -15.71429,32.85715 -50.71429,31.42858 -35,-1.42858 -37.14285,-35.71429 -37.14285,-35.71429 0,0 6.42857,30 33.57142,28.57143 27.14286,-1.42857 54.28572,-48.57143 54.28572,-48.57143 z"
         style="fill:#ff6300;fill-opacity:1;stroke:none;filter:url(#filter3896)"
         transform="matrix(0.14591609,-0.14544389,0.14591609,0.14544389,-47.801231,1037.6032)" />
      <path
         sodipodi:nodetypes="czccsc"
         inkscape:connector-curvature="0"
         id="path4078"
         d="m 342.01297,277.20686 c 0,0 -1.60062,17.86625 15.31819,26.77468 16.91882,8.90843 33.21712,1.80456 33.21712,1.80456 l -20.9455,8.95342 c 0,0 -9.47729,1.42045 -21.30647,-10.69586 -11.82918,-12.11632 -6.28334,-26.8368 -6.28334,-26.8368 z"
         style="fill:#ff6300;fill-opacity:1;stroke:none;filter:url(#filter3892)"
         transform="matrix(0.14591609,-0.14544389,0.14591609,0.14544389,-47.801231,1037.6032)" />
      <path
         style="fill:#ff6300;fill-opacity:1;stroke:none;filter:url(#filter3888)"
         d="m 300.37781,316.26175 c 0,0 -32.85715,-15.71429 -31.42858,-50.71429 1.42858,-35 35.71429,-37.14285 35.71429,-37.14285 0,0 -30,6.42857 -28.57143,33.57142 1.42857,27.14286 48.57143,54.28572 48.57143,54.28572 z"
         id="path4080"
         inkscape:connector-curvature="0"
         transform="matrix(0.14591609,-0.14544389,0.14591609,0.14544389,-47.801231,1037.6032)" />
      <path
         style="fill:#ff6300;fill-opacity:1;stroke:none;filter:url(#filter3884)"
         d="m 264.62632,226.99735 c 0,0 -17.86625,-1.60062 -26.77468,15.31819 -8.90843,16.91882 -1.80456,33.21712 -1.80456,33.21712 l -8.95342,-20.9455 c 0,0 -1.42045,-9.47729 10.69586,-21.30647 12.11632,-11.82918 26.8368,-6.28334 26.8368,-6.28334 z"
         id="path4082"
         inkscape:connector-curvature="0"
         sodipodi:nodetypes="czccsc"
         transform="matrix(0.14591609,-0.14544389,0.14591609,0.14544389,-47.801231,1037.6032)" />
    </g>
  </g>
</svg>
