<?xml version="1.0" encoding="UTF-8" standalone="no"?>
<!-- Created with Inkscape (http://www.inkscape.org/) -->

<svg
   xmlns:dc="http://purl.org/dc/elements/1.1/"
   xmlns:cc="http://creativecommons.org/ns#"
   xmlns:rdf="http://www.w3.org/1999/02/22-rdf-syntax-ns#"
   xmlns:svg="http://www.w3.org/2000/svg"
   xmlns="http://www.w3.org/2000/svg"
   xmlns:sodipodi="http://sodipodi.sourceforge.net/DTD/sodipodi-0.dtd"
   xmlns:inkscape="http://www.inkscape.org/namespaces/inkscape"
   width="270"
   height="120"
   viewBox="0 0 270 120"
   id="svg2"
   version="1.1"
   inkscape:version="0.91 r"
   sodipodi:docname="Warclops.svg"
   inkscape:export-filename="/home/victor/aleva/super-bombinhas/data/img/sprite/Warclops.png"
   inkscape:export-xdpi="90"
   inkscape:export-ydpi="90">
  <defs
     id="defs4" />
  <sodipodi:namedview
     id="base"
     pagecolor="#ffffff"
     bordercolor="#666666"
     borderopacity="1.0"
     inkscape:pageopacity="0.0"
     inkscape:pageshadow="2"
     inkscape:zoom="1"
     inkscape:cx="197.12917"
     inkscape:cy="164.08253"
     inkscape:document-units="px"
     inkscape:current-layer="layer1"
     showgrid="false"
     units="px"
     inkscape:snap-global="false" />
  <metadata
     id="metadata7">
    <rdf:RDF>
      <cc:Work
         rdf:about="">
        <dc:format>image/svg+xml</dc:format>
        <dc:type
           rdf:resource="http://purl.org/dc/dcmitype/StillImage" />
        <dc:title></dc:title>
      </cc:Work>
    </rdf:RDF>
  </metadata>
  <g
     inkscape:label="Layer 1"
     inkscape:groupmode="layer"
     id="layer1"
     transform="translate(0,-932.36214)"
     sodipodi:insensitive="true"
     style="display:none">
    <rect
       style="opacity:0.15;fill:#000000;fill-opacity:1;stroke:none;stroke-width:1;stroke-linecap:round;stroke-linejoin:round;stroke-miterlimit:4;stroke-dasharray:none;stroke-opacity:1"
       id="rect4136"
       width="90"
       height="120"
       x="0"
       y="932.36212" />
    <rect
       y="812.36212"
       x="90"
       height="120"
       width="90"
       id="rect4138"
       style="opacity:0.15;fill:#000000;fill-opacity:1;stroke:none;stroke-width:1;stroke-linecap:round;stroke-linejoin:round;stroke-miterlimit:4;stroke-dasharray:none;stroke-opacity:1" />
    <rect
       style="opacity:0.15;fill:#000000;fill-opacity:1;stroke:none;stroke-width:1;stroke-linecap:round;stroke-linejoin:round;stroke-miterlimit:4;stroke-dasharray:none;stroke-opacity:1"
       id="rect4140"
       width="90"
       height="120"
       x="180"
       y="932.36212" />
  </g>
  <g
     inkscape:groupmode="layer"
     id="layer2"
     inkscape:label="Layer 2"
     transform="translate(0,-120)">
    <path
       style="opacity:1;fill:#f0d177;fill-opacity:1;stroke:none;stroke-width:1;stroke-linecap:round;stroke-linejoin:round;stroke-miterlimit:4;stroke-dasharray:none;stroke-opacity:1"
       d="m 46.5,145.99562 c 0,0 24.75,0 30.75,11.99271 0,0 7.5,11.59951 7,23.19901 0,0 -8.75,9.43689 -19,11.79611 l -2.75,4.71844 -11.25,-3.34223 1,-7.86407 9.25,-2.35922 2.25,2.55582 c 0,0 4,-7.66747 9,-8.45388 0,0 -8.25,-5.11164 -7.25,-11.7961 0,0 0.75,12.97571 -1.5,16.31794 -2.25,3.34223 -1,8.45388 -1,8.45388 0,0 4.5,2.16262 5,6.48786 0.5,4.32524 -2,5.70145 -2,5.70145 0,0 -3.75,10.02669 -10.75,12.58251 0,0 10,4.11948 12.25,12.57335 0,0 4,1.96602 4,4.32524 0,2.35922 -10,2.16261 -10,2.16261 0,0 -3.5,-0.39319 -7,3.34223 C 51,242.12473 41,238.19269 41,238.19269 l 0.5,-5.30825 5,0.1966 6,-3.34223 4.75,-1.57281 -10.25,-8.44471 -5.75,-1.96602 -1.25,-3.73543 8.5,-16.31795 -2.75,5.50485 -6.25,-0.14975 1.75,-4.09094 -6.25,15.64359 1.25,4.12864 11.75,8.83792 -0.25,4.32523 -7.75,3.14562 -9,4.92422 -7.25,-0.7864 -2.25,-2.94903 1.75,-2.55583 3.5,1.17962 6.25,-4.52185 3.75,-0.79557 -11.25,-9.42772 -3.5,-1.17961 -1.5,-3.14563 1.75,-2.16262 1.75,-14.94173 8.75,-7.07767 -1.5,-8.45387 -6.25,-8.84708 -1,-3.14563 c 0,0 3.25,7.07766 -0.5,12.38591 0,0 3.25,6.29126 0.5,12.38591 l 5,2.55583 -1.75,4.32523 -8.5,2.55583 -5,-3.34223 0.25,-4.52184 2.5,-0.78641 c 0,0 -5.75,-5.70145 -4,-11.79611 0,0 -5,-14.74513 1.25,-21.23299 0,0 3.25,-9.63348 14.5,-12.18931 11.25,-2.55582 18.25,-5.50485 18.25,-5.50485 z"
       id="path4149"
       inkscape:connector-curvature="0"
       sodipodi:nodetypes="cccccccccccscscccscscccccccccccccccccccccccccccccccccccccccccccsc" />
    <path
       style="opacity:1;fill:#88fbff;fill-opacity:1;stroke:none;stroke-width:1;stroke-linecap:round;stroke-linejoin:round;stroke-miterlimit:4;stroke-dasharray:none;stroke-opacity:1"
       d="m 31.420888,122.2328 c 0,0 -14.323951,3.95168 -13.067465,18.02953 0,0 1.005191,8.89127 5.528542,11.85503 4.523353,2.96376 6.031137,8.39732 6.031137,8.39732 0,0 0.502596,2.46979 3.769462,2.22282 3.266866,-0.24698 8.54411,-2.22282 8.54411,-2.22282 0,0 3.015567,-0.74094 3.769461,-3.45772 0.753892,-2.71678 2.261676,-7.4094 2.261676,-7.4094 0,0 2.261677,-2.96376 2.261677,-5.68053 0,-2.71678 4.272056,-24.45101 -19.0986,-21.73423 z"
       id="path4143"
       inkscape:connector-curvature="0" />
    <path
       style="opacity:1;fill:#ececec;fill-opacity:1;stroke:none;stroke-width:1;stroke-linecap:round;stroke-linejoin:round;stroke-miterlimit:4;stroke-dasharray:none;stroke-opacity:1"
       d="m 27.148832,153.96971 c 0,0 8.292812,-3.33423 15.831734,-4.32215 0,0 0.879542,5.06309 0,7.77987 0,0 -8.669759,-0.86443 -12.43922,2.59329 0,0 -1.633433,-5.18658 -3.392514,-6.05101 z"
       id="path4145"
       inkscape:connector-curvature="0" />
    <path
       style="opacity:1;fill:#ff0000;fill-opacity:1;stroke:none;stroke-width:1;stroke-linecap:round;stroke-linejoin:round;stroke-miterlimit:4;stroke-dasharray:none;stroke-opacity:1"
       d="m 19.107315,138.90394 c 0,0 5.779841,1.11141 10.554491,0.49396 4.774649,-0.61745 14.32395,-7.90336 14.32395,-7.90336 0,0 -6.408084,13.83087 -12.941815,15.18926 -6.533732,1.35839 -11.936626,-7.77986 -11.936626,-7.77986 z"
       id="path4147"
       inkscape:connector-curvature="0" />
    <path
       sodipodi:nodetypes="cccccccccccscscccscscccccccccccccccccccccccccccccccccccccccccccsc"
       inkscape:connector-curvature="0"
       id="path4151"
       d="m 136.5,144.25583 c 0,0 24.75,0 30.75,12.2184 0,0 9.97487,8.48827 9.47487,20.30607 0,0 -2.22487,14.64434 -12.47487,17.04796 l -2.75,4.80724 -11.25,-3.40513 1,-8.01206 9.25,-2.40362 2.25,2.60392 c 0,0 0.3033,-10.9919 5.3033,-11.7931 0,0 -13.5533,-3.72806 -12.5533,-10.53832 0,0 0.75,13.21991 -1.5,16.62504 -2.25,3.40513 -1,8.61297 -1,8.61297 0,0 0.61091,2.94321 1.11091,7.34984 0.5,4.40664 -2.53033,4.69891 -2.53033,4.69891 0,0 0.29442,3.12997 -6.70558,5.73389 0,0 10,4.19699 12.25,12.80995 0,0 4,2.00302 4,4.40664 0,2.40362 -10,2.20332 -10,2.20332 0,0 -3.5,-0.40059 -7,3.40513 -3.5,3.80574 -13.5,-0.2003 -13.5,-0.2003 l 0.5,-5.40815 5,0.20031 6,-3.40513 4.75,-1.60241 -10.25,-8.60363 -5.75,-2.00302 -1.25,-3.80573 8.875,-9.16967 -2.75,5.60845 -6.25,-0.15257 1.75,-4.16793 -1.75,15.93799 1.25,4.20633 11.75,9.00424 -0.25,4.40663 -7.75,3.20482 -9,5.01689 -7.25,-0.8012 -2.25,-3.00453 1.75,-2.60393 3.5,1.20182 6.25,-4.60695 3.75,-0.81054 -11.25,-9.60514 -3.5,-1.2018 -1.5,-3.20483 1.75,-2.20332 0.875,-13.91496 5.125,-8.51882 -1.5,-8.61297 -6.25,-9.01357 -1,-3.20483 c 0,0 -2,7.47245 -5.75,12.8806 0,0 6.125,3.27055 8.375,9.21831 l 3.25,3.51949 0,3.49106 -8.5,2.60392 -3.125,-0.92 -0.375,-4.21455 1.25,-3.67872 c 0,0 -13.75,-3.06203 -12,-9.27138 0,0 0.375,-14.63023 6.625,-21.24019 0,0 3.25,-9.81478 14.5,-12.4187 11.25,-2.60392 18.25,-5.60844 18.25,-5.60844 z"
       style="opacity:1;fill:#f0d177;fill-opacity:1;stroke:none;stroke-width:1;stroke-linecap:round;stroke-linejoin:round;stroke-miterlimit:4;stroke-dasharray:none;stroke-opacity:1" />
    <path
       inkscape:connector-curvature="0"
       id="path4153"
       d="m 120.71378,120.87925 c 0,0 -14.32395,3.95167 -13.06746,18.02952 0,0 1.00519,8.89128 5.52854,11.85504 4.52335,2.96376 6.03114,8.39731 6.03114,8.39731 0,0 0.50259,2.4698 3.76946,2.22282 3.26686,-0.24698 8.54411,-2.22282 8.54411,-2.22282 0,0 3.01556,-0.74094 3.76946,-3.45771 0.75389,-2.71678 2.26167,-7.4094 2.26167,-7.4094 0,0 2.26168,-2.96376 2.26168,-5.68054 0,-2.71678 4.27206,-24.451 -19.0986,-21.73422 z"
       style="opacity:1;fill:#88fbff;fill-opacity:1;stroke:none;stroke-width:1;stroke-linecap:round;stroke-linejoin:round;stroke-miterlimit:4;stroke-dasharray:none;stroke-opacity:1" />
    <path
       inkscape:connector-curvature="0"
       id="path4155"
       d="m 116.44173,152.61616 c 0,0 8.29281,-3.33423 15.83173,-4.32215 0,0 0.87954,5.06309 0,7.77986 0,0 -8.66976,-0.86443 -12.43922,2.59329 0,0 -1.63343,-5.18657 -3.39252,-6.051 z"
       style="opacity:1;fill:#ececec;fill-opacity:1;stroke:none;stroke-width:1;stroke-linecap:round;stroke-linejoin:round;stroke-miterlimit:4;stroke-dasharray:none;stroke-opacity:1" />
    <path
       inkscape:connector-curvature="0"
       id="path4157"
       d="m 108.40021,137.55039 c 0,0 5.77984,1.1114 10.55449,0.49396 4.77465,-0.61745 14.32395,-7.90336 14.32395,-7.90336 0,0 -6.40808,13.83087 -12.94182,15.18926 -6.53373,1.35839 -11.93662,-7.77986 -11.93662,-7.77986 z"
       style="opacity:1;fill:#ff0000;fill-opacity:1;stroke:none;stroke-width:1;stroke-linecap:round;stroke-linejoin:round;stroke-miterlimit:4;stroke-dasharray:none;stroke-opacity:1" />
    <path
       style="opacity:1;fill:#f0d177;fill-opacity:1;stroke:none;stroke-width:1;stroke-linecap:round;stroke-linejoin:round;stroke-miterlimit:4;stroke-dasharray:none;stroke-opacity:1"
       d="m 226.5,144.25583 c 0,0 24.75,0 30.75,12.2184 0,0 8.38388,4.06885 11.94974,15.17954 0,0 -1.51776,15.88178 -7.52512,24.47259 l -2.75,4.80723 -11.25,-3.40512 1,-8.01207 5.71447,-2.22684 3.84099,1.89681 c 0,0 -1.81802,-11.34544 -0.17678,-13.56086 0,0 -13.5533,-3.72806 -12.5533,-10.53832 0,0 0.75,13.21991 -1.5,16.62504 -2.25,3.40513 -1,8.61297 -1,8.61297 0,0 0.61091,2.94321 1.11091,7.34984 0.5,4.40664 -2.53033,4.69891 -2.53033,4.69891 0,0 -0.76624,5.78162 -7.76624,8.38554 0,0 12.12132,8.96996 14.37132,17.58292 0,0 4,2.00302 4,4.40664 0,2.40362 -10,2.20332 -10,2.20332 0,0 -3.5,-0.40059 -7,3.40513 -3.5,3.80574 -13.5,-0.2003 -13.5,-0.2003 l 0.5,-5.40815 5,0.20031 6,-3.40513 4.75,-1.60241 -12.90165,-12.31594 -3.4519,-2.71013 0.34099,-5.04316 6.5769,-10.93744 -2.75,5.60845 -6.25,-0.15257 1.75,-4.16793 c -3.40349,3.95737 -2.87673,7.91475 -11.29594,11.87212 l 3.19455,3.32246 2.38084,7.41325 3.28553,4.93696 -5.62868,4.0887 -9,5.01689 -7.25,-0.8012 -2.25,-3.00453 1.75,-2.60393 3.5,1.20182 6.25,-4.60695 3.75,-0.81054 -7.36092,-8.72126 -3.14644,-1.73214 -1.5,-3.20482 1.04289,-3.97109 6.53185,-8.25811 7.06954,-6.22072 -1.32322,-10.02718 -6.25,-9.01357 -1,-3.20483 c 0,0 -0.40901,9.94733 -2.03769,16.23935 0,0 -2.89061,4.33121 -11.95432,6.38989 l 2.89645,3.16594 0.35355,3.84461 -8.5,2.60392 -3.125,-0.92 -0.375,-4.21455 1.95711,-6.15359 c 0,0 7.63998,-2.00137 9.38998,-8.21073 0,0 -2.09988,-12.15535 1.14492,-20.3563 0,0 3.25,-9.81478 14.5,-12.4187 11.25,-2.60392 18.25,-5.60844 18.25,-5.60844 z"
       id="path4159"
       inkscape:connector-curvature="0"
       sodipodi:nodetypes="cccccccccccscscccscscccccccccccccccccccccccccccccccccccccccccccsc" />
    <path
       style="opacity:1;fill:#88fbff;fill-opacity:1;stroke:none;stroke-width:1;stroke-linecap:round;stroke-linejoin:round;stroke-miterlimit:4;stroke-dasharray:none;stroke-opacity:1"
       d="m 210.71378,120.87925 c 0,0 -14.32395,3.95167 -13.06746,18.02952 0,0 1.00519,8.89128 5.52854,11.85504 4.52335,2.96376 6.03114,8.39731 6.03114,8.39731 0,0 0.50259,2.4698 3.76946,2.22282 3.26686,-0.24698 8.54411,-2.22282 8.54411,-2.22282 0,0 3.01556,-0.74094 3.76946,-3.45771 0.75389,-2.71678 2.26167,-7.4094 2.26167,-7.4094 0,0 2.26168,-2.96376 2.26168,-5.68054 0,-2.71678 4.27206,-24.451 -19.0986,-21.73422 z"
       id="path4161"
       inkscape:connector-curvature="0" />
    <path
       style="opacity:1;fill:#ececec;fill-opacity:1;stroke:none;stroke-width:1;stroke-linecap:round;stroke-linejoin:round;stroke-miterlimit:4;stroke-dasharray:none;stroke-opacity:1"
       d="m 206.44173,152.61616 c 0,0 8.29281,-3.33423 15.83173,-4.32215 0,0 0.87954,5.06309 0,7.77986 0,0 -8.66976,-0.86443 -12.43922,2.59329 0,0 -1.63343,-5.18657 -3.39252,-6.051 z"
       id="path4163"
       inkscape:connector-curvature="0" />
    <path
       style="opacity:1;fill:#ff0000;fill-opacity:1;stroke:none;stroke-width:1;stroke-linecap:round;stroke-linejoin:round;stroke-miterlimit:4;stroke-dasharray:none;stroke-opacity:1"
       d="m 198.40021,137.55039 c 0,0 5.77984,1.1114 10.55449,0.49396 4.77465,-0.61745 14.32395,-7.90336 14.32395,-7.90336 0,0 -6.40808,13.83087 -12.94182,15.18926 -6.53373,1.35839 -11.93662,-7.77986 -11.93662,-7.77986 z"
       id="path4165"
       inkscape:connector-curvature="0" />
  </g>
</svg>
