<?xml version="1.0" encoding="UTF-8" standalone="no"?>
<!-- Created with Inkscape (http://www.inkscape.org/) -->

<svg
   xmlns:dc="http://purl.org/dc/elements/1.1/"
   xmlns:cc="http://creativecommons.org/ns#"
   xmlns:rdf="http://www.w3.org/1999/02/22-rdf-syntax-ns#"
   xmlns:svg="http://www.w3.org/2000/svg"
   xmlns="http://www.w3.org/2000/svg"
   xmlns:sodipodi="http://sodipodi.sourceforge.net/DTD/sodipodi-0.dtd"
   xmlns:inkscape="http://www.inkscape.org/namespaces/inkscape"
   width="80"
   height="80"
   id="svg2"
   version="1.1"
   inkscape:version="0.48.4 r9939"
   sodipodi:docname="water.svg"
   inkscape:export-filename="/home/victor/aleva/super-bombinhas/data/img/other/water.png"
   inkscape:export-xdpi="90"
   inkscape:export-ydpi="90">
  <defs
     id="defs4">
    <clipPath
       clipPathUnits="userSpaceOnUse"
       id="clipPath3773">
      <rect
         y="972.36218"
         x="0"
         height="40"
         width="40"
         id="rect3775"
         style="fill:#000000;fill-opacity:1;stroke:none" />
    </clipPath>
    <clipPath
       clipPathUnits="userSpaceOnUse"
       id="clipPath3814">
      <rect
         style="fill:#000000;fill-opacity:1;stroke:none"
         id="rect3816"
         width="40"
         height="40"
         x="0"
         y="1012.3622" />
    </clipPath>
    <clipPath
       clipPathUnits="userSpaceOnUse"
       id="clipPath3834">
      <rect
         y="1012.3622"
         x="0"
         height="40"
         width="40"
         id="rect3836"
         style="fill:#000000;fill-opacity:1;stroke:none" />
    </clipPath>
    <clipPath
       clipPathUnits="userSpaceOnUse"
       id="clipPath3846">
      <rect
         style="fill:#000000;fill-opacity:1;stroke:none"
         id="rect3848"
         width="40"
         height="40"
         x="40"
         y="1012.3621" />
    </clipPath>
  </defs>
  <sodipodi:namedview
     id="base"
     pagecolor="#ffffff"
     bordercolor="#666666"
     borderopacity="1.0"
     inkscape:pageopacity="0"
     inkscape:pageshadow="2"
     inkscape:zoom="1"
     inkscape:cx="203.14518"
     inkscape:cy="38.449014"
     inkscape:document-units="px"
     inkscape:current-layer="layer1"
     showgrid="false"
     inkscape:window-width="1364"
     inkscape:window-height="718"
     inkscape:window-x="0"
     inkscape:window-y="0"
     inkscape:window-maximized="1" />
  <metadata
     id="metadata7">
    <rdf:RDF>
      <cc:Work
         rdf:about="">
        <dc:format>image/svg+xml</dc:format>
        <dc:type
           rdf:resource="http://purl.org/dc/dcmitype/StillImage" />
        <dc:title></dc:title>
      </cc:Work>
    </rdf:RDF>
  </metadata>
  <g
     inkscape:label="Layer 1"
     inkscape:groupmode="layer"
     id="layer1"
     transform="translate(0,-972.36215)">
    <g
       id="g3830"
       clip-path="url(#clipPath3834)">
      <path
         style="opacity:0.5;fill:none;stroke:#ffffff;stroke-linecap:round;stroke-linejoin:round;stroke-opacity:1"
         d="m -20,1025.6951 c 0,0 14.575619,-0.079 20,-6.6659 0,0 5.470409,6.6659 20,6.6659 0,0 14.575619,-0.079 20,-6.6659 0,0 5.470409,6.6659 20,6.6659"
         id="path3777"
         inkscape:connector-curvature="0"
         sodipodi:nodetypes="ccccc" />
      <path
         sodipodi:nodetypes="ccccc"
         inkscape:connector-curvature="0"
         id="path3779"
         d="m 0,1045.6951 c 0,0 14.575619,-0.079 20,-6.6659 0,0 5.470409,6.6659 20,6.6659 0,0 14.575619,-0.079 20,-6.6659 0,0 5.470409,6.6659 20,6.6659"
         style="opacity:0.5;fill:none;stroke:#ffffff;stroke-linecap:round;stroke-linejoin:round;stroke-opacity:1" />
    </g>
    <g
       id="g3769"
       clip-path="url(#clipPath3773)">
      <path
         sodipodi:nodetypes="ccccc"
         transform="translate(0,972.36215)"
         inkscape:connector-curvature="0"
         id="path3757"
         d="m 0,13.333 c 0,0 14.575619,-0.07925 20,-6.666 0,0 5.470409,6.666 20,6.666 0,0 14.575619,-0.0793 20,-6.666 0,0 5.470409,6.666 20,6.666"
         style="opacity:0.5;fill:none;stroke:#ffffff;stroke-linecap:round;stroke-linejoin:round;stroke-opacity:1" />
      <path
         style="opacity:0.5;fill:none;stroke:#ffffff;stroke-linecap:round;stroke-linejoin:round;stroke-opacity:1"
         d="m -20,1005.6951 c 0,0 14.575619,-0.079 20,-6.66595 0,0 5.470409,6.66595 20,6.66595 0,0 14.575619,-0.079 20,-6.66595 0,0 5.470409,6.66595 20,6.66595"
         id="path3761"
         inkscape:connector-curvature="0"
         sodipodi:nodetypes="ccccc" />
    </g>
    <g
       id="g3810"
       clip-path="url(#clipPath3814)"
       transform="translate(40,-40)">
      <path
         sodipodi:nodetypes="ccccc"
         inkscape:connector-curvature="0"
         id="path3763"
         d="m -30,1025.6951 c 0,0 14.575619,-0.079 20,-6.6659 0,0 5.470409,6.6659 20,6.6659 0,0 14.575619,-0.079 20,-6.6659 0,0 5.470409,6.6659 20,6.6659"
         style="opacity:0.5;fill:none;stroke:#ffffff;stroke-linecap:round;stroke-linejoin:round;stroke-opacity:1" />
      <path
         style="opacity:0.5;fill:none;stroke:#ffffff;stroke-linecap:round;stroke-linejoin:round;stroke-opacity:1"
         d="m -30,1045.6951 c 0,0 14.575619,-0.079 20,-6.6659 0,0 5.470409,6.6659 20,6.6659 0,0 14.575619,-0.079 20,-6.6659 0,0 5.470409,6.6659 20,6.6659"
         id="path3789"
         inkscape:connector-curvature="0"
         sodipodi:nodetypes="ccccc" />
    </g>
    <g
       id="g3842"
       clip-path="url(#clipPath3846)">
      <path
         sodipodi:nodetypes="ccccc"
         inkscape:connector-curvature="0"
         id="path3828"
         d="m 30,1025.6951 c 0,0 14.575619,-0.079 20,-6.6659 0,0 5.470409,6.6659 20,6.6659 0,0 14.575619,-0.079 20,-6.6659 0,0 5.470409,6.6659 20,6.6659"
         style="opacity:0.5;fill:none;stroke:#ffffff;stroke-linecap:round;stroke-linejoin:round;stroke-opacity:1" />
      <path
         style="opacity:0.5;fill:none;stroke:#ffffff;stroke-linecap:round;stroke-linejoin:round;stroke-opacity:1"
         d="m 30,1045.6951 c 0,0 14.575619,-0.079 20,-6.6659 0,0 5.470409,6.6659 20,6.6659 0,0 14.575619,-0.079 20,-6.6659 0,0 5.470409,6.6659 20,6.6659"
         id="path3838"
         inkscape:connector-curvature="0"
         sodipodi:nodetypes="ccccc" />
    </g>
  </g>
</svg>
