<?xml version="1.0" encoding="UTF-8" standalone="no"?>
<!-- Created with Inkscape (http://www.inkscape.org/) -->

<svg
   xmlns:dc="http://purl.org/dc/elements/1.1/"
   xmlns:cc="http://creativecommons.org/ns#"
   xmlns:rdf="http://www.w3.org/1999/02/22-rdf-syntax-ns#"
   xmlns:svg="http://www.w3.org/2000/svg"
   xmlns="http://www.w3.org/2000/svg"
   xmlns:sodipodi="http://sodipodi.sourceforge.net/DTD/sodipodi-0.dtd"
   xmlns:inkscape="http://www.inkscape.org/namespaces/inkscape"
   width="800"
   height="600"
   id="svg2"
   version="1.1"
   inkscape:version="0.48.4 r9939"
   sodipodi:docname="world2.svg"
   inkscape:export-filename="/home/victor/aleva/super-bombinhas/data/img/bg/world2.png"
   inkscape:export-xdpi="90"
   inkscape:export-ydpi="90">
  <defs
     id="defs4" />
  <sodipodi:namedview
     id="base"
     pagecolor="#ffffff"
     bordercolor="#666666"
     borderopacity="1.0"
     inkscape:pageopacity="0.0"
     inkscape:pageshadow="2"
     inkscape:zoom="1"
     inkscape:cx="380.68152"
     inkscape:cy="338.51316"
     inkscape:document-units="px"
     inkscape:current-layer="layer1"
     showgrid="false"
     inkscape:window-width="1364"
     inkscape:window-height="718"
     inkscape:window-x="0"
     inkscape:window-y="0"
     inkscape:window-maximized="1" />
  <metadata
     id="metadata7">
    <rdf:RDF>
      <cc:Work
         rdf:about="">
        <dc:format>image/svg+xml</dc:format>
        <dc:type
           rdf:resource="http://purl.org/dc/dcmitype/StillImage" />
        <dc:title></dc:title>
      </cc:Work>
    </rdf:RDF>
  </metadata>
  <g
     inkscape:label="Layer 1"
     inkscape:groupmode="layer"
     id="layer1"
     transform="translate(0,-452.36218)">
    <path
       style="fill:#00930e;stroke:none;stroke-width:0.99999994000000003;stroke-linecap:round;stroke-linejoin:round;stroke-miterlimit:4;stroke-opacity:1;stroke-dasharray:none;fill-opacity:1"
       d="m -313.35643,1219.6771 19.21593,-37.177 65.88325,-35.3503 52.15762,3.8998 24.70616,-9.0712 46.66732,-12.5616 24.706213,-39.2495 43.922164,-28.9293 76.86379,-5.358 71.373483,-16.146 129.02133,-62.00212 60.39293,-21.25893 19.216,-14.37144 41.17702,-67.24512 21.96107,-25.43878 49.41246,-20.88546 90.5894,-25.02988 41.17702,-17.86188 32.94164,-42.27306 -2.74517,52.22001 5.49031,27.34201 5.49032,40.87261 0,19.2984 -2.74516,54.96352 5.49023,43.7094 10.98055,59.70422 13.72568,65.0038 0,30.1788 -30.19646,33.9494 -54.90278,29.3024 -16.47076,19.7652 z"
       id="path2987"
       inkscape:connector-curvature="0"
       sodipodi:nodetypes="cccccccccccccccccccccccccccccccc" />
    <path
       style="fill:#00930e;stroke:none;stroke-width:0.99999994000000003;stroke-linecap:round;stroke-linejoin:round;stroke-miterlimit:4;stroke-opacity:1;stroke-dasharray:none;fill-opacity:1"
       d="m 610.86108,731.239 -7.7644,64.01872 7.7644,54.31897 3.88223,52.37903 -1.94115,56.25886 13.58776,71.77852 13.58771,69.8392 3.88221,32.9789 11.64662,5.8198 48.52761,0 62.11529,3.8799 34.93984,9.7002 21.35216,9.6999 36.88099,0 25.23438,9.6997 21.3521,3.8797 34.93982,-3.8797 15.52891,-11.6398 27.17546,-9.7001 25.23428,-15.5197 13.5876,-32.979 17.47,-31.0395 29.1165,-29.0992 11.6466,-15.5202 73.7619,-15.5195 34.9398,-9.6997 19.4111,-7.75982 32.9988,-42.67934 3.8822,-19.39937 -5.8233,-19.4001 0,-27.1591 13.5877,-21.33941 23.2933,-19.40004 -29.1167,1.93989 -21.352,7.75979 -31.0577,3.87995 -27.1755,17.46001 -27.1755,17.45958 -19.411,21.33921 -27.1755,7.76049 -38.8218,13.5795 -38.8222,9.69973 -29.11644,1.94 -21.35207,-9.69974 -7.7644,-21.33999 -27.17546,-11.63961 -48.52764,-7.75977 -44.64539,-1.93991 -19.41107,-19.39949 -11.64654,-44.61927 -11.64663,-64.01863 -15.5289,-48.49914 -5.82324,-48.49916 -46.58653,7.75977 -40.76315,15.51952 -46.58647,11.64029 z"
       id="path3765-0"
       inkscape:connector-curvature="0"
       sodipodi:nodetypes="ccccccccccccccccccccccccccccccccccccccccccccccccccccccccc" />
    <path
       style="fill:#00930e;stroke:none;stroke-width:0.99999994000000003;stroke-linecap:round;stroke-linejoin:round;stroke-miterlimit:4;stroke-opacity:1;stroke-dasharray:none;fill-opacity:1"
       d="m 135.29074,971.79428 23.29325,7.7603 19.41099,9.6996 19.41106,0 52.40978,-23.2798 42.7043,-15.51954 21.35214,-13.57961 31.05768,-54.319 23.29322,-31.03966 29.11656,-21.33938 31.05762,-9.69969 46.5865,-11.63958 54.35087,-17.46014 31.05767,-13.57956 31.0577,-36.85951 32.99876,-38.79881 31.05762,-13.58022 42.70429,-9.6997 38.82209,-11.63966 56.29198,-7.75974 29.11654,-34.91952 17.46992,-9.69981 34.93991,-34.91925 9.70554,-19.39966 42.70424,-19.39959 25.23433,-7.7599 36.88099,-15.51971 36.88081,9.69983 27.1756,7.75988 19.4109,25.21949 15.5288,5.81987 11.6467,23.27954 19.411,-13.5797 5.8233,-23.27961 9.7055,-11.63969 -11.6466,-5.8199 -7.7644,-31.03943 -17.4701,-21.3396 -5.8231,-31.03942 -60.1742,-23.27954 -29.1166,-29.09943 -73.76185,-27.15941 -93.17292,-27.15956 -40.76324,-34.9193 -13.58768,-34.91931 -9.70554,-85.35841 -7.76439,-38.79918 -27.17544,-38.79925 -29.11662,-29.099419 -15.52877,-67.898752 -7.76446,-65.958733 13.58776,-19.399605 34.93984,-9.69982 23.29323,-17.459657 21.35216,-29.099424 15.52884,-29.09943 13.58777,-25.21953 3.88216,-31.03944 -11.64661,-29.09941 0,-36.85926 1.94106,-23.2796 17.46993,-19.3996 13.58777,-48.4991 -1.9411,-40.73919 -5.8233,-50.43901 -17.46991,-42.67921 -13.58777,-36.85924 3.88224,-29.09942 13.58769,-23.27954 13.58775,-32.97944 1.94108,-36.85932 -5.8233,-38.79925 -52.40984,40.73925 -17.46992,25.21957 -42.70423,23.27953 -38.82214,40.73919 -40.76309,25.21954 -64.05644,23.27955 -66.76115,22.24061 -72.0563,16.65612 -68.40968,19.6349 -43.50823,13.81511 -38.48906,16.89153 -26.0384,31.60757 -15.86184,51.3401 -18.27399,70.30934 -11.64661,50.43902 -3.88216,48.4991 -7.76446,19.39958 -23.29323,19.39966 -44.64539,19.39966 -13.58775,11.63977 -5.82331,23.279545 -19.411015,19.39965 -32.998757,9.699777 -3.882233,11.639765 -7.764377,15.519704 -25.234385,13.579724 -29.116536,23.2795967 -11.64661,15.5196603 -15.528857,87.298328 -13.587694,34.91931 -1.94115,15.51971 9.705528,11.63978 29.11656,11.63978 48.527592,11.63981 19.411079,17.45966 25.234311,13.57973 19.411053,40.73925 0,17.45959 -17.46997,15.5197 -19.411005,29.0995 1.941072,23.27954 17.469933,5.81988 23.293231,29.09944 7.76452,36.8593 0,19.3996 11.64654,17.45965 52.40979,19.39959 21.3522,13.57978 60.17416,44.61913 17.46999,31.03942 -3.88223,21.33954 -19.41107,27.1595 -27.17546,46.55919 -15.52877,65.95863 -5.8233,77.59825 -19.41107,81.47877 -23.29323,56.25888 z"
       id="path3767-2"
       inkscape:connector-curvature="0"
       sodipodi:nodetypes="cccccccccccccccccccccccccccccccccccccccccccccccccccccccccccccccccccccccccccccccccccccccccccccccccccccccccccccccccccccccccccccccccc" />
    <path
       style="fill:#0ed121;stroke:none;stroke-width:0.99999994000000003;stroke-linecap:round;stroke-linejoin:round;stroke-miterlimit:4;stroke-opacity:1;stroke-dasharray:none;fill-opacity:1"
       d="m 643.04249,689.47652 c 0,0 10.24972,-26.17857 -19.36055,-28.4546 0,0 -1.13889,-20.48752 -21.63833,-15.93481 0,0 7.97203,-29.59287 -15.94396,-31.86923 0,0 -4.55548,-19.34918 -25.05491,-12.52005 0,0 6.83315,-21.6256 -9.11083,-26.17837 0,0 -9.11091,-29.59288 -35.30462,-4.55272 0,0 -22.77715,-4.55276 -21.63832,19.34919 0,0 -23.916,-9.1055 -22.77713,17.07281 0,0 -19.36062,17.07284 1.13888,33.00733 0,0 -25.05489,-5.69081 -25.05489,19.34916 0,0 -20.49945,-6.82873 -28.47146,18.2115 0,0 -20.49944,-23.90188 -34.16574,-5.69105 0,0 -22.77714,-14.79647 -33.02686,15.93481 0,0 -26.19377,-11.38211 -29.61034,14.79583 0,0 -26.1937,-3.41437 -26.1937,21.62586 0,0 -22.77719,-14.79648 -30.74916,10.24376 0,0 -27.33259,3.41438 -10.24972,25.04023 0,0 -15.94406,25.04019 10.24972,29.59297 0,0 -17.08288,20.48748 9.11082,28.45464 0,0 -27.33256,17.07241 -10.24971,29.59289 0,0 -11.38858,25.04026 12.52742,22.76359 0,0 6.83316,27.3168 38.72118,10.24369 0,0 12.52741,15.93486 34.16573,-2.27598 0,0 9.11091,27.31625 33.02692,17.07242 0,0 -1.13888,34.14564 27.33258,29.59308 0,0 13.6663,26.1785 34.16574,3.41439 0,0 14.80511,21.62573 35.30461,7.96767 0,0 11.38855,19.34909 38.72113,3.41438 0,0 7.97202,31.86897 33.02692,11.38206 0,0 25.05481,12.5198 30.74916,-15.93481 0,0 26.1937,21.62583 38.72118,-4.55266 0,0 35.30454,7.96694 23.916,-21.62592 0,0 20.49943,20.48745 31.88798,-6.82874 0,0 19.36061,28.45466 34.16573,-3.41507 0,0 42.13777,-5.69034 20.49944,-34.14568 0,0 28.47147,2.27681 17.08293,-28.4545 0,0 30.74916,3.41493 31.88798,-17.07256 0,0 31.88804,-10.24368 2.27777,-35.28397 0,0 9.11083,-31.86962 -14.8052,-31.86962 0,0 18.22177,-29.59229 -14.80515,-29.59229 0,0 2.27775,-23.90255 -27.33259,-14.79647 0,0 -19.36057,-22.76419 -37.58232,6.82873 0,0 -1.13887,-19.34917 -21.6383,-9.10541 0,0 0,-21.62587 -23.91603,-14.79648 z"
       id="path5193"
       inkscape:connector-curvature="0" />
  </g>
</svg>
