<?xml version="1.0" encoding="UTF-8" standalone="no"?>
<!-- Created with Inkscape (http://www.inkscape.org/) -->

<svg
   xmlns:dc="http://purl.org/dc/elements/1.1/"
   xmlns:cc="http://creativecommons.org/ns#"
   xmlns:rdf="http://www.w3.org/1999/02/22-rdf-syntax-ns#"
   xmlns:svg="http://www.w3.org/2000/svg"
   xmlns="http://www.w3.org/2000/svg"
   xmlns:sodipodi="http://sodipodi.sourceforge.net/DTD/sodipodi-0.dtd"
   xmlns:inkscape="http://www.inkscape.org/namespaces/inkscape"
   width="60"
   height="60"
   viewBox="0 0 60.000001 60"
   id="svg2"
   version="1.1"
   inkscape:version="0.91 r"
   sodipodi:docname="ice.svg"
   inkscape:export-filename="/home/victor/aleva/super-bombinhas/data/img/fx/ice.png"
   inkscape:export-xdpi="90"
   inkscape:export-ydpi="90">
  <defs
     id="defs4" />
  <sodipodi:namedview
     id="base"
     pagecolor="#ffffff"
     bordercolor="#666666"
     borderopacity="1.0"
     inkscape:pageopacity="0.0"
     inkscape:pageshadow="2"
     inkscape:zoom="1"
     inkscape:cx="26.820706"
     inkscape:cy="16.565269"
     inkscape:document-units="px"
     inkscape:current-layer="layer1"
     showgrid="false"
     units="px" />
  <metadata
     id="metadata7">
    <rdf:RDF>
      <cc:Work
         rdf:about="">
        <dc:format>image/svg+xml</dc:format>
        <dc:type
           rdf:resource="http://purl.org/dc/dcmitype/StillImage" />
        <dc:title></dc:title>
      </cc:Work>
    </rdf:RDF>
  </metadata>
  <g
     inkscape:label="Layer 1"
     inkscape:groupmode="layer"
     id="layer1"
     transform="translate(0,-992.3622)"
     sodipodi:insensitive="true"
     style="display:none">
    <rect
       style="opacity:0.15;fill:#000000;fill-opacity:1;stroke:none;stroke-width:1;stroke-linecap:round;stroke-linejoin:round;stroke-miterlimit:4;stroke-dasharray:none;stroke-opacity:1"
       id="rect4163"
       width="30"
       height="30"
       x="0"
       y="1022.3622" />
    <rect
       y="992.36218"
       x="30"
       height="30"
       width="30"
       id="rect4165"
       style="opacity:0.15;fill:#000000;fill-opacity:1;stroke:none;stroke-width:1;stroke-linecap:round;stroke-linejoin:round;stroke-miterlimit:4;stroke-dasharray:none;stroke-opacity:1" />
  </g>
  <g
     inkscape:groupmode="layer"
     id="layer2"
     inkscape:label="Layer 2">
    <path
       style="opacity:0.8;fill:#b8f6ff;fill-opacity:1;stroke:none;stroke-width:1;stroke-linecap:round;stroke-linejoin:round;stroke-miterlimit:4;stroke-dasharray:none;stroke-opacity:1"
       d="m 10,2.1249999 -0.9375,5.9375 -7.125,1.25 6.9375,0.5625 L 9.75,21.25 10.6875,9.9999999 l 7.9375,-1.375 -8.3125,-0.8125 z"
       id="path4187"
       inkscape:connector-curvature="0" />
    <path
       style="opacity:0.8;fill:#b8f6ff;fill-opacity:1;stroke:none;stroke-width:1;stroke-linecap:round;stroke-linejoin:round;stroke-miterlimit:4;stroke-dasharray:none;stroke-opacity:1"
       d="M 20.3125,11.875 19.6875,16.0625 15.375,17 l 4.375,0.1875 0.8125,7.5 0.875,-7.375 L 27.375,16.375 21,15.9375 Z"
       id="path4189"
       inkscape:connector-curvature="0" />
    <path
       style="opacity:0.8;fill:#b8f6ff;fill-opacity:1;stroke:none;stroke-width:1;stroke-linecap:round;stroke-linejoin:round;stroke-miterlimit:4;stroke-dasharray:none;stroke-opacity:1"
       d="m 13.1875,15.5625 -0.5,6.1875 -6.25,0.6875 6.25,0.3125 0.1875,3.3125 0.75,-3.375 L 18.9375,22.25 13.5,21.5 Z"
       id="path4191"
       inkscape:connector-curvature="0"
       sodipodi:nodetypes="ccccccccc" />
    <path
       inkscape:connector-curvature="0"
       id="path4193"
       d="M 39.672753,0.5624999 38.686096,6.8686682 31.1875,8.1962826 38.488764,8.793709 39.409644,20.875 40.396301,8.9264705 48.75,7.4660947 40.001639,6.6031453 Z"
       style="opacity:0.8;fill:#b8f6ff;fill-opacity:1;stroke:none;stroke-width:1;stroke-linecap:round;stroke-linejoin:round;stroke-miterlimit:4;stroke-dasharray:none;stroke-opacity:1" />
    <path
       inkscape:connector-curvature="0"
       id="path4195"
       d="M 50.907878,9 50.24707,13.514329 45.6875,14.525 l 4.625651,0.202134 0.85905,8.085366 0.92513,-7.95061 6.277669,-1.01067 -6.740234,-0.471647 z"
       style="opacity:0.8;fill:#b8f6ff;fill-opacity:1;stroke:none;stroke-width:1;stroke-linecap:round;stroke-linejoin:round;stroke-miterlimit:4;stroke-dasharray:none;stroke-opacity:1" />
    <path
       sodipodi:nodetypes="ccccccccc"
       inkscape:connector-curvature="0"
       id="path4197"
       d="m 42.11125,15.75 -0.5175,6.703125 -6.46875,0.744792 6.46875,0.338541 0.194063,3.588542 0.77625,-3.65625 5.498437,-0.473958 -5.627812,-0.8125 z"
       style="opacity:0.8;fill:#b8f6ff;fill-opacity:1;stroke:none;stroke-width:1;stroke-linecap:round;stroke-linejoin:round;stroke-miterlimit:4;stroke-dasharray:none;stroke-opacity:1" />
    <path
       style="opacity:0.8;fill:#b8f6ff;fill-opacity:1;stroke:none;stroke-width:1;stroke-linecap:round;stroke-linejoin:round;stroke-miterlimit:4;stroke-dasharray:none;stroke-opacity:1"
       d="m 49.8125,19.5625 2.875,-0.875 0.1875,-2.625 0.5,2.75 3.625,0.5 -3.4375,0.625 L 53,23.375 52.5625,19.8125 Z"
       id="path4199"
       inkscape:connector-curvature="0" />
    <path
       style="opacity:0.8;fill:#b8f6ff;fill-opacity:1;stroke:none;stroke-width:1;stroke-linecap:round;stroke-linejoin:round;stroke-miterlimit:4;stroke-dasharray:none;stroke-opacity:1"
       d="M 9.985253,30.3125 8.998596,36.03656 1.5,37.241626 8.801264,37.783905 9.722144,48.75 10.708801,37.904411 19.0625,36.57884 10.314139,35.795547 Z"
       id="path4201"
       inkscape:connector-curvature="0" />
    <path
       style="opacity:0.8;fill:#b8f6ff;fill-opacity:1;stroke:none;stroke-width:1;stroke-linecap:round;stroke-linejoin:round;stroke-miterlimit:4;stroke-dasharray:none;stroke-opacity:1"
       d="M 21.440756,37.5 20.74414,42.259451 15.9375,43.325 l 4.876302,0.21311 0.9056,8.52439 0.97526,-8.382317 6.617838,-1.065548 -7.105468,-0.497257 z"
       id="path4203"
       inkscape:connector-curvature="0" />
    <path
       style="opacity:0.8;fill:#b8f6ff;fill-opacity:1;stroke:none;stroke-width:1;stroke-linecap:round;stroke-linejoin:round;stroke-miterlimit:4;stroke-dasharray:none;stroke-opacity:1"
       d="M 13.36125,46.5625 12.84375,53.597098 6.375,54.378721 12.84375,54.734003 13.037813,58.5 13.814063,54.662946 19.3125,54.165551 13.684688,53.312872 Z"
       id="path4205"
       inkscape:connector-curvature="0"
       sodipodi:nodetypes="ccccccccc" />
    <path
       inkscape:connector-curvature="0"
       id="path4207"
       d="m 20.625,50.5625 2.875,-0.875 0.1875,-2.625 0.5,2.75 3.625,0.5 -3.4375,0.625 -0.5625,3.4375 -0.4375,-3.5625 z"
       style="opacity:0.8;fill:#b8f6ff;fill-opacity:1;stroke:none;stroke-width:1;stroke-linecap:round;stroke-linejoin:round;stroke-miterlimit:4;stroke-dasharray:none;stroke-opacity:1" />
    <path
       style="opacity:0.8;fill:#b8f6ff;fill-opacity:1;stroke:none;stroke-width:1;stroke-linecap:round;stroke-linejoin:round;stroke-miterlimit:4;stroke-dasharray:none;stroke-opacity:1"
       d="M 2.125,46.375 4.4375,45.875 4.8125,43 5.1875,46 7.75,46.4375 5.25,46.875 4.75,49.6875 4.375,46.75 Z"
       id="path4209"
       inkscape:connector-curvature="0" />
    <path
       inkscape:connector-curvature="0"
       id="path4211"
       d="M 40.735253,31.3125 39.748596,37.03656 32.25,38.241626 39.551264,38.783905 40.472144,49.75 41.458801,38.904411 49.8125,37.57884 41.064139,36.795547 Z"
       style="opacity:0.8;fill:#b8f6ff;fill-opacity:1;stroke:none;stroke-width:1;stroke-linecap:round;stroke-linejoin:round;stroke-miterlimit:4;stroke-dasharray:none;stroke-opacity:1" />
    <path
       inkscape:connector-curvature="0"
       id="path4213"
       d="M 51.95573,38.6875 51.304687,43.058841 46.8125,44.0375 51.369792,44.233232 52.216147,52.0625 53.127605,44.36372 59.3125,43.385062 52.671876,42.928354 Z"
       style="opacity:0.8;fill:#b8f6ff;fill-opacity:1;stroke:none;stroke-width:1;stroke-linecap:round;stroke-linejoin:round;stroke-miterlimit:4;stroke-dasharray:none;stroke-opacity:1" />
    <path
       sodipodi:nodetypes="ccccccccc"
       inkscape:connector-curvature="0"
       id="path4215"
       d="M 43.98625,46.0625 43.46875,53.097098 37,53.878721 43.46875,54.234003 43.662813,58 44.439063,54.162946 49.9375,53.665551 44.309688,52.812872 Z"
       style="opacity:0.8;fill:#b8f6ff;fill-opacity:1;stroke:none;stroke-width:1;stroke-linecap:round;stroke-linejoin:round;stroke-miterlimit:4;stroke-dasharray:none;stroke-opacity:1" />
    <path
       style="opacity:0.8;fill:#b8f6ff;fill-opacity:1;stroke:none;stroke-width:1;stroke-linecap:round;stroke-linejoin:round;stroke-miterlimit:4;stroke-dasharray:none;stroke-opacity:1"
       d="m 50.9375,50.308761 1.775,-0.54594 0.115761,-1.637821 0.308696,1.715812 2.238043,0.311966 -2.122283,0.389957 -0.347282,2.144765 -0.270109,-2.222756 z"
       id="path4217"
       inkscape:connector-curvature="0" />
    <path
       inkscape:connector-curvature="0"
       id="path4219"
       d="m 33.5,45.51285 1.233333,-0.205607 0.2,-1.182243 0.2,1.233645 L 36.5,45.538551 35.166667,45.718458 34.9,46.875 34.7,45.667056 Z"
       style="opacity:0.8;fill:#b8f6ff;fill-opacity:1;stroke:none;stroke-width:1;stroke-linecap:round;stroke-linejoin:round;stroke-miterlimit:4;stroke-dasharray:none;stroke-opacity:1" />
  </g>
</svg>
