<?xml version="1.0" encoding="UTF-8" standalone="no"?>
<!-- Created with Inkscape (http://www.inkscape.org/) -->

<svg
   xmlns:dc="http://purl.org/dc/elements/1.1/"
   xmlns:cc="http://creativecommons.org/ns#"
   xmlns:rdf="http://www.w3.org/1999/02/22-rdf-syntax-ns#"
   xmlns:svg="http://www.w3.org/2000/svg"
   xmlns="http://www.w3.org/2000/svg"
   xmlns:xlink="http://www.w3.org/1999/xlink"
   xmlns:sodipodi="http://sodipodi.sourceforge.net/DTD/sodipodi-0.dtd"
   xmlns:inkscape="http://www.inkscape.org/namespaces/inkscape"
   width="64"
   height="64"
   viewBox="0 0 64 64"
   id="svg2"
   version="1.1"
   inkscape:version="0.91 r"
   sodipodi:docname="water.svg"
   inkscape:export-filename="/home/victor/aleva/super-bombinhas/data/img/fx/water.png"
   inkscape:export-xdpi="90"
   inkscape:export-ydpi="90">
  <defs
     id="defs4">
    <linearGradient
       inkscape:collect="always"
       id="linearGradient12991">
      <stop
         style="stop-color:#ffffff;stop-opacity:1"
         offset="0"
         id="stop12993" />
      <stop
         style="stop-color:#12a0ff;stop-opacity:0.63921571"
         offset="1"
         id="stop12995" />
    </linearGradient>
    <radialGradient
       inkscape:collect="always"
       xlink:href="#linearGradient12991"
       id="radialGradient5575"
       cx="60.55431"
       cy="1048.9287"
       fx="60.55431"
       fy="1048.9287"
       r="1.8547864"
       gradientTransform="matrix(2.0581388,-0.36414545,0.16989308,0.96023034,-242.28059,63.912137)"
       gradientUnits="userSpaceOnUse" />
    <radialGradient
       inkscape:collect="always"
       xlink:href="#linearGradient12991"
       id="radialGradient5577"
       cx="53.626717"
       cy="1048.7399"
       fx="53.626717"
       fy="1048.7399"
       r="2.8639004"
       gradientTransform="matrix(1.9165791,-0.43646823,0.17575017,0.77173794,-233.52505,263.05691)"
       gradientUnits="userSpaceOnUse" />
    <radialGradient
       inkscape:collect="always"
       xlink:href="#linearGradient12991"
       id="radialGradient5579"
       cx="52.42181"
       cy="1045.2825"
       fx="52.42181"
       fy="1045.2825"
       r="1.7740635"
       gradientTransform="matrix(1.5629782,0.03739216,-0.02253407,0.94191499,-5.957873,58.812706)"
       gradientUnits="userSpaceOnUse" />
    <radialGradient
       inkscape:collect="always"
       xlink:href="#linearGradient12991"
       id="radialGradient5581"
       cx="39.322643"
       cy="1047.8585"
       fx="39.322643"
       fy="1047.8585"
       r="1.4730575"
       gradientTransform="matrix(1.8017849,-0.05388908,0.04182263,1.3983429,-75.32949,-415.96288)"
       gradientUnits="userSpaceOnUse" />
    <radialGradient
       inkscape:collect="always"
       xlink:href="#linearGradient12991"
       id="radialGradient5583"
       cx="34.815189"
       cy="1048.7981"
       fx="34.815189"
       fy="1048.7981"
       r="2.4404993"
       gradientTransform="matrix(1.1549434,-0.02560666,0.01783492,0.80441272,-24.099615,206.78262)"
       gradientUnits="userSpaceOnUse" />
    <radialGradient
       inkscape:collect="always"
       xlink:href="#linearGradient12991"
       id="radialGradient5585"
       cx="30.40761"
       cy="1046.8894"
       fx="30.40761"
       fy="1046.8894"
       r="1.456389"
       gradientTransform="matrix(1.8582869,-2.4578259e-7,1.8638372e-7,1.4091902,-26.098648,-428.27229)"
       gradientUnits="userSpaceOnUse" />
    <radialGradient
       inkscape:collect="always"
       xlink:href="#linearGradient12991"
       id="radialGradient13023"
       cx="24.298334"
       cy="1009.6614"
       fx="24.298334"
       fy="1009.6614"
       r="1.8266658"
       gradientTransform="matrix(2.0606759,0.03421097,-0.01901131,1.1451346,-6.5776659,-147.18425)"
       gradientUnits="userSpaceOnUse" />
    <radialGradient
       inkscape:collect="always"
       xlink:href="#linearGradient12991"
       id="radialGradient13025"
       cx="25.66721"
       cy="1017.7526"
       fx="25.66721"
       fy="1017.7526"
       r="2.3952901"
       gradientTransform="matrix(1.5479504,-0.05218663,0.03289031,0.97558636,-47.538554,26.578361)"
       gradientUnits="userSpaceOnUse" />
    <radialGradient
       inkscape:collect="always"
       xlink:href="#linearGradient12991"
       id="radialGradient13027"
       cx="35.886806"
       cy="1011.8049"
       fx="35.886806"
       fy="1011.8049"
       r="1.1756953"
       gradientTransform="matrix(2.4361697,-0.01460169,0.00945287,1.5771428,-61.104023,-583.72937)"
       gradientUnits="userSpaceOnUse" />
    <radialGradient
       inkscape:collect="always"
       xlink:href="#linearGradient12991"
       id="radialGradient13029"
       cx="32.990093"
       cy="1014.0108"
       fx="32.990093"
       fy="1014.0108"
       r="1.7071989"
       gradientTransform="matrix(2.5726314,0.04178951,-0.02355519,1.4501,-27.943324,-458.59427)"
       gradientUnits="userSpaceOnUse" />
    <radialGradient
       inkscape:collect="always"
       xlink:href="#linearGradient12991"
       id="radialGradient13031"
       cx="40.742001"
       cy="1019.0035"
       fx="40.742001"
       fy="1019.0035"
       r="1.3829983"
       gradientTransform="matrix(1.6326841,-0.04519236,0.02718772,0.98222273,-53.481199,20.140469)"
       gradientUnits="userSpaceOnUse" />
    <radialGradient
       inkscape:collect="always"
       xlink:href="#linearGradient12991"
       id="radialGradient13033"
       cx="50.43438"
       cy="1009.1312"
       fx="50.43438"
       fy="1009.1312"
       r="1.1637498"
       gradientTransform="matrix(3.0942133,-0.79640899,0.39067458,1.5178512,-499.88859,-482.88112)"
       gradientUnits="userSpaceOnUse" />
    <radialGradient
       inkscape:collect="always"
       xlink:href="#linearGradient12991"
       id="radialGradient13035"
       cx="64.429893"
       cy="1009.2815"
       fx="64.429893"
       fy="1009.2815"
       r="2.4298966"
       gradientTransform="matrix(1.9774052,6.4043246e-8,-1.9082515e-8,0.84990784,-62.974088,151.69579)"
       gradientUnits="userSpaceOnUse" />
    <radialGradient
       inkscape:collect="always"
       xlink:href="#linearGradient12991"
       id="radialGradient13037"
       cx="58.175102"
       cy="1011.4428"
       fx="58.175102"
       fy="1011.4428"
       r="1.6167355"
       gradientTransform="matrix(2.2757254,0.30923888,-0.17378822,1.278928,101.5614,-300.21439)"
       gradientUnits="userSpaceOnUse" />
    <radialGradient
       inkscape:collect="always"
       xlink:href="#linearGradient12991"
       id="radialGradient13039"
       cx="61.951046"
       cy="1016.0125"
       fx="61.951046"
       fy="1016.0125"
       r="2.138546"
       gradientTransform="matrix(1.8011394,0.6391875,-0.31359556,0.88366772,268.9856,78.833291)"
       gradientUnits="userSpaceOnUse" />
    <radialGradient
       inkscape:collect="always"
       xlink:href="#linearGradient12991"
       id="radialGradient13041"
       cx="51.874512"
       cy="1015.2658"
       fx="51.874512"
       fy="1015.2658"
       r="1.3129883"
       gradientTransform="matrix(2.9040536,-0.04759973,0.02119861,1.2933248,-120.29408,-295.3728)"
       gradientUnits="userSpaceOnUse" />
    <radialGradient
       inkscape:collect="always"
       xlink:href="#linearGradient12991"
       id="radialGradient13089"
       cx="15.745163"
       cy="976.68414"
       fx="15.745163"
       fy="976.68414"
       r="2.0676925"
       gradientTransform="matrix(2.2348583,-0.07976222,0.05030282,1.4094351,-80.406048,-353.4218)"
       gradientUnits="userSpaceOnUse" />
    <radialGradient
       inkscape:collect="always"
       xlink:href="#linearGradient12991"
       id="radialGradient13091"
       cx="20.702515"
       cy="976.9649"
       fx="20.702515"
       fy="976.9649"
       r="2.4552319"
       gradientTransform="matrix(2.4091788,-0.01868194,0.01051547,1.3560477,-51.279812,-302.16006)"
       gradientUnits="userSpaceOnUse" />
    <radialGradient
       inkscape:collect="always"
       xlink:href="#linearGradient12991"
       id="radialGradient13093"
       cx="18.227324"
       cy="986.76086"
       fx="18.227324"
       fy="986.76086"
       r="4.2233167"
       gradientTransform="matrix(1.5310651,-0.02369038,0.01338366,0.86495995,-34.719391,179.8932)"
       gradientUnits="userSpaceOnUse" />
    <radialGradient
       inkscape:collect="always"
       xlink:href="#linearGradient12991"
       id="radialGradient13095"
       cx="29.899891"
       cy="982.13055"
       fx="29.899891"
       fy="982.13055"
       r="3.3127818"
       gradientTransform="matrix(2.8215603,0.73092776,-0.37612419,1.4519315,303.12693,-420.79128)"
       gradientUnits="userSpaceOnUse" />
    <radialGradient
       inkscape:collect="always"
       xlink:href="#linearGradient12991"
       id="radialGradient13097"
       cx="34.743168"
       cy="979.48633"
       fx="34.743168"
       fy="979.48633"
       r="2.1903999"
       gradientTransform="matrix(3.243869,-1.7096176e-5,7.7102242e-6,1.4629563,-89.835637,-408.58098)"
       gradientUnits="userSpaceOnUse" />
    <radialGradient
       inkscape:collect="always"
       xlink:href="#linearGradient12991"
       id="radialGradient13099"
       cx="51.26936"
       cy="977.9566"
       fx="51.26936"
       fy="977.9566"
       r="1.076183"
       gradientTransform="matrix(3.3849347,0.12311767,-0.08399609,2.3093458,-51.96258,-1242.5163)"
       gradientUnits="userSpaceOnUse" />
    <radialGradient
       inkscape:collect="always"
       xlink:href="#linearGradient12991"
       id="radialGradient13101"
       cx="69.199341"
       cy="986.58313"
       fx="69.199341"
       fy="986.58313"
       r="3.615185"
       gradientTransform="matrix(1.337969,0.90721993,-0.47219117,0.69638802,430.63557,282.20819)"
       gradientUnits="userSpaceOnUse" />
    <radialGradient
       inkscape:collect="always"
       xlink:href="#linearGradient12991"
       id="radialGradient13103"
       cx="70.735931"
       cy="977.74109"
       fx="70.735931"
       fy="977.74109"
       r="3.4723995"
       gradientTransform="matrix(1.6080077,-0.05465161,0.02621813,0.7714121,-80.475552,273.28669)"
       gradientUnits="userSpaceOnUse" />
    <radialGradient
       inkscape:collect="always"
       xlink:href="#linearGradient12991"
       id="radialGradient13105"
       cx="61.983162"
       cy="979.76654"
       fx="61.983162"
       fy="979.76654"
       r="2.4978056"
       gradientTransform="matrix(2.1789257,0.05072049,-0.0341827,1.4684705,-51.415512,-416.87267)"
       gradientUnits="userSpaceOnUse" />
    <radialGradient
       inkscape:collect="always"
       xlink:href="#linearGradient12991"
       id="radialGradient13107"
       cx="52.798634"
       cy="985.09424"
       fx="52.798634"
       fy="985.09424"
       r="1.4952177"
       gradientTransform="matrix(2.2958882,0.14643678,-0.10805912,1.6941897,26.194266,-646.96233)"
       gradientUnits="userSpaceOnUse" />
    <radialGradient
       inkscape:collect="always"
       xlink:href="#linearGradient12991"
       id="radialGradient13135"
       cx="73.636108"
       cy="956.76074"
       fx="73.636108"
       fy="956.76074"
       r="1.9741323"
       gradientTransform="matrix(1.2532686,0.49071986,-0.21150458,0.54016978,183.76633,404.28371)"
       gradientUnits="userSpaceOnUse" />
    <radialGradient
       inkscape:collect="always"
       xlink:href="#linearGradient12991"
       id="radialGradient13137"
       cx="71.729141"
       cy="959.71942"
       fx="71.729141"
       fy="959.71942"
       r="2.9791341"
       gradientTransform="matrix(1.3355437,0.35139541,-0.16972966,0.64508915,138.82459,316.0289)"
       gradientUnits="userSpaceOnUse" />
    <radialGradient
       inkscape:collect="always"
       xlink:href="#linearGradient12991"
       id="radialGradient13139"
       cx="66.075333"
       cy="956.30231"
       fx="66.075333"
       fy="956.30231"
       r="2.6690817"
       gradientTransform="matrix(1.4862512,0.31119107,-0.14829479,0.70825722,109.68545,259.02514)"
       gradientUnits="userSpaceOnUse" />
    <radialGradient
       inkscape:collect="always"
       xlink:href="#linearGradient12991"
       id="radialGradient13141"
       cx="56.157532"
       cy="955.08484"
       fx="56.157532"
       fy="955.08484"
       r="2.1549714"
       gradientTransform="matrix(1.7685287,0.01920004,-0.00900708,0.82964789,-34.556156,162.05316)"
       gradientUnits="userSpaceOnUse" />
    <radialGradient
       inkscape:collect="always"
       xlink:href="#linearGradient12991"
       id="radialGradient13143"
       cx="56.970837"
       cy="959.28442"
       fx="56.970837"
       fy="959.28442"
       r="2.09375"
       gradientTransform="matrix(1.9701723,0.01137926,-0.00507909,0.87937733,-50.24507,115.43138)"
       gradientUnits="userSpaceOnUse" />
    <radialGradient
       inkscape:collect="always"
       xlink:href="#linearGradient12991"
       id="radialGradient13145"
       cx="14.251493"
       cy="956.21185"
       fx="14.251493"
       fy="956.21185"
       r="2.2144582"
       gradientTransform="matrix(2.0866071,-0.95960226,0.32671383,0.71042289,-327.68267,290.67123)"
       gradientUnits="userSpaceOnUse" />
    <radialGradient
       inkscape:collect="always"
       xlink:href="#linearGradient12991"
       id="radialGradient13147"
       cx="18.919039"
       cy="955.38928"
       fx="18.919039"
       fy="955.38928"
       r="1.9782625"
       gradientTransform="matrix(1.6787203,-0.10385234,0.04798696,0.77568465,-58.646766,216.78025)"
       gradientUnits="userSpaceOnUse" />
    <radialGradient
       inkscape:collect="always"
       xlink:href="#linearGradient12991"
       id="radialGradient13149"
       cx="17.380762"
       cy="959.59882"
       fx="17.380762"
       fy="959.59882"
       r="3.6277738"
       gradientTransform="matrix(1.6890157,-0.00227509,7.7598726e-4,0.57608961,-12.822541,407.85855)"
       gradientUnits="userSpaceOnUse" />
    <radialGradient
       inkscape:collect="always"
       xlink:href="#linearGradient12991"
       id="radialGradient13151"
       cx="33.125"
       cy="956.23175"
       fx="33.125"
       fy="956.23175"
       r="1.65625"
       gradientTransform="matrix(2.6415094,8.8843202e-6,-3.6532491e-6,1.0861936,-54.371507,-82.278657)"
       gradientUnits="userSpaceOnUse" />
    <radialGradient
       inkscape:collect="always"
       xlink:href="#linearGradient12991"
       id="radialGradient13153"
       cx="28.309803"
       cy="958.45227"
       fx="28.309803"
       fy="958.45227"
       r="3.3151989"
       gradientTransform="matrix(1.8100567,0.04767099,-0.02184633,0.82949995,-1.9938848,162.85193)"
       gradientUnits="userSpaceOnUse" />
  </defs>
  <sodipodi:namedview
     id="base"
     pagecolor="#ffffff"
     bordercolor="#666666"
     borderopacity="1.0"
     inkscape:pageopacity="0.0"
     inkscape:pageshadow="2"
     inkscape:zoom="1"
     inkscape:cx="42.298645"
     inkscape:cy="31.986814"
     inkscape:document-units="px"
     inkscape:current-layer="layer1"
     showgrid="false"
     units="px"
     inkscape:snap-global="false" />
  <metadata
     id="metadata7">
    <rdf:RDF>
      <cc:Work
         rdf:about="">
        <dc:format>image/svg+xml</dc:format>
        <dc:type
           rdf:resource="http://purl.org/dc/dcmitype/StillImage" />
        <dc:title></dc:title>
      </cc:Work>
    </rdf:RDF>
  </metadata>
  <g
     inkscape:label="Layer 1"
     inkscape:groupmode="layer"
     id="layer1"
     transform="translate(0,-988.36216)">
    <g
       id="g13155"
       transform="translate(-11.833031,-47.16034)">
      <path
         inkscape:connector-curvature="0"
         id="path5555"
         d="m 50,1050.8622 c 0,0 4.625,-4.625 5.625,-1.75 1,2.875 -5.625,1.75 -5.625,1.75 z"
         style="opacity:1;fill:url(#radialGradient5577);fill-opacity:1;stroke:none;stroke-linecap:round;stroke-opacity:1" />
      <path
         inkscape:connector-curvature="0"
         id="path5557"
         d="m 58.125,1050.9872 c 0,0 2.25,-4.25 3.5,-2.375 1.25,1.875 -3.5,2.375 -3.5,2.375 z"
         style="opacity:1;fill:url(#radialGradient5575);fill-opacity:1;stroke:none;stroke-linecap:round;stroke-opacity:1" />
      <path
         inkscape:connector-curvature="0"
         id="path5559"
         d="m 50.25,1047.9872 c 0,0 1.25,-4.375 3,-3.125 1.75,1.25 -1.25,1.875 -1.25,1.875 0,0 -1.125,0.125 -1.75,1.25 z"
         style="opacity:1;fill:url(#radialGradient5579);fill-opacity:1;stroke:none;stroke-linecap:round;stroke-opacity:1" />
      <path
         sodipodi:nodetypes="cscc"
         inkscape:connector-curvature="0"
         id="path5561"
         d="m 40.353553,1051.039 c 0,0 -0.769462,-2.1262 -1.853553,-2.4268 -1.434359,-0.3977 -0.125,-2.125 -0.125,-2.125 0,0 3.603553,-1.4482 1.978553,4.5518 z"
         style="opacity:1;fill:url(#radialGradient5581);fill-opacity:1;stroke:none;stroke-linecap:round;stroke-opacity:1" />
      <path
         sodipodi:nodetypes="csccc"
         inkscape:connector-curvature="0"
         id="path5565"
         d="m 38.00699,1051.5225 c 0,0 -0.751301,-0.8839 -1.767767,-0.8839 -1.016466,0 -1.59099,0.4861 -1.59099,0.4861 0,0 -2.43068,0.7956 -1.149049,-1.4584 2.165514,-1.9887 4.507806,1.8562 4.507806,1.8562 z"
         style="opacity:1;fill:url(#radialGradient5583);fill-opacity:1;stroke:none;stroke-linecap:round;stroke-opacity:1" />
      <path
         inkscape:connector-curvature="0"
         id="path5567"
         d="m 31.819805,1049.1802 c 0,0 -4.331029,-0.9281 -2.430679,-2.2981 1.900349,-1.37 2.430679,2.2981 2.430679,2.2981 z"
         style="opacity:1;fill:url(#radialGradient5585);fill-opacity:1;stroke:none;stroke-linecap:round;stroke-opacity:1" />
    </g>
    <g
       id="g13163"
       transform="translate(-11.833031,0.00460876)">
      <path
         inkscape:connector-curvature="0"
         id="path12997"
         d="m 50.3125,1017.3622 c 0,0 -0.0625,-1.5625 0.8125,-2.375 0.875,-0.8125 1.5625,-0.125 1.5625,-0.125 0,0 0.5625,0.5625 0,1.375 -0.5625,0.8125 -0.875,0.1875 -0.875,0.1875 0,0 -0.75,-0.375 -1.5,0.9375 z"
         style="opacity:1;fill:url(#radialGradient13041);fill-opacity:1;stroke:none;stroke-linecap:round;stroke-opacity:1" />
      <path
         inkscape:connector-curvature="0"
         id="path12999"
         d="m 58.5625,1016.5497 c 0,0 1.75,-0.062 2.3125,0.5 0.5625,0.5625 0.4375,1.125 0.4375,1.125 0,0 1.25,0.9375 1.5,-0.8125 0.25,-1.75 -1.3125,-2 -1.3125,-2 0,0 -1.3125,-0.375 -2.9375,1.1875 z"
         style="opacity:1;fill:url(#radialGradient13039);fill-opacity:1;stroke:none;stroke-linecap:round;stroke-opacity:1" />
      <path
         inkscape:connector-curvature="0"
         id="path13001"
         d="m 56.25,1014.0497 c 0,0 -0.125,-1.875 1,-3 1.125,-1.125 1.875,-0.5 1.875,-0.5 0,0 0.875,0.875 -0.125,2.0625 -1,1.1875 -1.5,0.5 -1.5,0.5 0,0 -0.625,-0.375 -1.25,0.9375 z"
         style="opacity:1;fill:url(#radialGradient13037);fill-opacity:1;stroke:none;stroke-linecap:round;stroke-opacity:1" />
      <path
         inkscape:connector-curvature="0"
         id="path13003"
         d="m 61.4375,1010.7372 c 0,0 2.3125,-3.25 4.3125,-1.1875 2,2.0625 -2.125,1.5 -2.125,1.5 0,0 -0.5625,-0.9375 -2.1875,-0.3125 z"
         style="opacity:1;fill:url(#radialGradient13035);fill-opacity:1;stroke:none;stroke-linecap:round;stroke-opacity:1" />
      <path
         inkscape:connector-curvature="0"
         id="path13005"
         d="m 50.3125,1011.8622 c 0,0 -2.0625,-3 0.125,-4.0625 2.1875,-1.0625 1,2.25 1,2.25 0,0 -1.25,0.8125 -1.125,1.8125 z"
         style="opacity:1;fill:url(#radialGradient13033);fill-opacity:1;stroke:none;stroke-linecap:round;stroke-opacity:1" />
      <path
         inkscape:connector-curvature="0"
         id="path13007"
         d="m 42.625,1020.1747 c 0,0 -3.3125,0.4375 -2.6875,-1.0625 0.625,-1.5 2.6875,1.0625 2.6875,1.0625 z"
         style="opacity:1;fill:url(#radialGradient13031);fill-opacity:1;stroke:none;stroke-linecap:round;stroke-opacity:1" />
      <path
         inkscape:connector-curvature="0"
         id="path13009"
         d="m 35.125,1017.9872 c 0,0 -4.9375,-3.5 -2.9375,-5.6875 2,-2.1875 2.9375,5.6875 2.9375,5.6875 z"
         style="opacity:1;fill:url(#radialGradient13029);fill-opacity:1;stroke:none;stroke-linecap:round;stroke-opacity:1" />
      <path
         inkscape:connector-curvature="0"
         id="path13011"
         d="m 37.3125,1014.1747 c 0,0 -3.4375,-2.25 -2,-3.5 1.4375,-1.25 2,3.5 2,3.5 z"
         style="opacity:1;fill:url(#radialGradient13027);fill-opacity:1;stroke:none;stroke-linecap:round;stroke-opacity:1" />
      <path
         inkscape:connector-curvature="0"
         id="path13013"
         d="m 28.875,1019.1747 c 0,0 -3.25,-3.75 -4.5,-0.625 -1.25,3.125 1.9375,1.25 1.9375,1.25 0,0 1.25,-1 2.5625,-0.625 z"
         style="opacity:1;fill:url(#radialGradient13025);fill-opacity:1;stroke:none;stroke-linecap:round;stroke-opacity:1" />
      <path
         inkscape:connector-curvature="0"
         id="path13015"
         d="m 26.375,1012.0497 c 0,0 -5.3125,0.3125 -3.125,-2.1875 2.1875,-2.5 3.125,2.1875 3.125,2.1875 z"
         style="opacity:1;fill:url(#radialGradient13023);fill-opacity:1;stroke:none;stroke-linecap:round;stroke-opacity:1" />
    </g>
    <g
       id="g13209">
      <path
         inkscape:connector-curvature="0"
         id="path13043"
         d="m 39.520599,1033.6522 c 0,0 -0.53033,-5.3033 1.856155,-4.8614 2.386486,0.4419 0.08839,2.5633 0.08839,2.5633 0,0 -1.502602,0.3535 -1.944544,2.2981 z"
         style="opacity:1;fill:url(#radialGradient13107);fill-opacity:1;stroke:none;stroke-linecap:round;stroke-opacity:1" />
      <path
         inkscape:connector-curvature="0"
         id="path13045"
         d="m 47.210385,1028.4372 c 0,0 0,-2.5632 1.237437,-3.7123 1.237437,-1.149 2.563262,-0.9722 2.563262,-0.9722 0,0 2.032932,0.6187 0.795495,2.5632 -1.237436,1.9446 -2.65165,1.1491 -2.65165,1.1491 0,0 -1.325825,-0.3536 -1.944544,0.9722 z"
         style="opacity:1;fill:url(#radialGradient13105);fill-opacity:1;stroke:none;stroke-linecap:round;stroke-opacity:1" />
      <path
         inkscape:connector-curvature="0"
         id="path13047"
         d="m 54.281453,1025.1669 c 0,0 1.325825,-2.6517 4.419418,-2.4749 3.093592,0.1768 2.474873,1.9445 2.474873,1.9445 0,0 -1.06066,1.3259 -2.828427,1.2375 -1.767767,-0.088 -1.59099,-1.591 -4.065864,-0.7071 z"
         style="opacity:1;fill:url(#radialGradient13103);fill-opacity:1;stroke:none;stroke-linecap:round;stroke-opacity:1" />
      <path
         inkscape:connector-curvature="0"
         id="path13049"
         d="m 51.983356,1031.7076 c 0,0 2.828427,-2.6516 5.480078,-0.9723 2.65165,1.6794 1.502602,3.5356 1.502602,3.5356 0,0 -1.856156,1.0606 -3.093593,0.088 -1.237436,-0.9723 -0.883883,-2.7401 -3.889087,-2.6517 z"
         style="opacity:1;fill:url(#radialGradient13101);fill-opacity:1;stroke:none;stroke-linecap:round;stroke-opacity:1" />
      <path
         inkscape:connector-curvature="0"
         id="path13051"
         d="m 38.459939,1026.4927 c 0,0 -1.06066,-4.5962 0.972272,-5.3917 2.032932,-0.7955 0,2.7401 0,2.7401 0,0 -0.883884,0.8838 -0.972272,2.6516 z"
         style="opacity:1;fill:url(#radialGradient13099);fill-opacity:1;stroke:none;stroke-linecap:round;stroke-opacity:1" />
      <path
         sodipodi:nodetypes="csc"
         inkscape:connector-curvature="0"
         id="path13053"
         d="m 24.671357,1028.7908 c 0,0 -5.886779,-4.4466 -3.447146,-5.1265 5.39169,-1.5026 3.447146,5.1265 3.447146,5.1265 z"
         style="opacity:1;fill:url(#radialGradient13097);fill-opacity:1;stroke:none;stroke-linecap:round;stroke-opacity:1" />
      <path
         inkscape:connector-curvature="0"
         id="path13055"
         d="m 22.461648,1033.2986 c 0,0 -9.192388,-4.2426 -5.922019,-7.7782 3.270369,-3.5355 5.922019,7.7782 5.922019,7.7782 z"
         style="opacity:1;fill:url(#radialGradient13095);fill-opacity:1;stroke:none;stroke-linecap:round;stroke-opacity:1" />
      <path
         inkscape:connector-curvature="0"
         id="path13057"
         d="m 11.855046,1034.3593 c 0,0 -2.474874,-1.2375 -3.447145,0.7955 -0.972272,2.0329 -4.065864,0.8838 -4.065864,0.8838 0,0 -3.005204,-3.9774 1.767767,-4.1542 4.77297,-0.1768 5.745242,2.4749 5.745242,2.4749 z"
         style="opacity:1;fill:url(#radialGradient13093);fill-opacity:1;stroke:none;stroke-linecap:round;stroke-opacity:1" />
      <path
         inkscape:connector-curvature="0"
         id="path13059"
         d="m 11.501493,1025.3437 c 0,0 -7.071068,-0.3536 -4.242641,-3.5356 2.828427,-3.182 4.242641,3.5356 4.242641,3.5356 z"
         style="opacity:1;fill:url(#radialGradient13091);fill-opacity:1;stroke:none;stroke-linecap:round;stroke-opacity:1" />
      <path
         inkscape:connector-curvature="0"
         id="path13061"
         d="m 5.75625,1023.9294 c 0,0 -3.270369,2.5633 -3.623922,-1.0606 -0.353553,-3.6239 3.535534,-1.5026 3.535534,-1.5026 0,0 1.237437,0.3535 0.08839,2.5632 z"
         style="opacity:1;fill:url(#radialGradient13089);fill-opacity:1;stroke:none;stroke-linecap:round;stroke-opacity:1" />
    </g>
    <g
       id="g13187"
       transform="translate(-11.833031,89.982255)">
      <path
         inkscape:connector-curvature="0"
         id="path13109"
         d="m 33.5,960.57466 c 0,0 -1.25,-1.2302 -2.5625,-0.50327 -1.3125,0.72694 -1.1875,1.56571 -1.1875,1.56571 0,0 -1.25,1.67753 -2.625,-0.72694 -1.375,-2.40447 3.25,-2.5163 3.25,-2.5163 0,0 2.875,0 3.125,2.1808 z"
         style="opacity:1;fill:url(#radialGradient13153);fill-opacity:1;stroke:none;stroke-linecap:round;stroke-opacity:1" />
      <path
         inkscape:connector-curvature="0"
         id="path13111"
         d="m 35.5,958.67345 c 0,0 -0.25,-1.00653 -1.75,-0.89469 -1.5,0.11183 -1.5625,-1.17428 -1.5625,-1.17428 0,0 0.5625,-1.34203 1.9375,-0.50326 1.375,0.83877 1.375,2.57223 1.375,2.57223 z"
         style="opacity:1;fill:url(#radialGradient13151);fill-opacity:1;stroke:none;stroke-linecap:round;stroke-opacity:1" />
      <path
         inkscape:connector-curvature="0"
         id="path13113"
         d="m 22.5,960.96608 c 0,0 -3.6875,1.78937 -5.9375,1.34203 -2.25,-0.44734 -0.9375,-1.62162 -0.9375,-1.62162 0,0 1.4375,-1.11836 6.875,0.27959 z"
         style="opacity:1;fill:url(#radialGradient13149);fill-opacity:1;stroke:none;stroke-linecap:round;stroke-opacity:1" />
      <path
         inkscape:connector-curvature="0"
         id="path13115"
         d="m 21.9375,956.82815 c 0,0 -1.4375,-0.83877 -2.25,0.39143 C 18.875,958.44977 18,956.99591 18,956.99591 c 0,0 -0.25,-1.2302 1.0625,-1.50979 1.3125,-0.27959 2.875,1.34203 2.875,1.34203 z"
         style="opacity:1;fill:url(#radialGradient13147);fill-opacity:1;stroke:none;stroke-linecap:round;stroke-opacity:1" />
      <path
         inkscape:connector-curvature="0"
         id="path13117"
         d="m 15.625,957.05183 c 0,0 -1.0625,-0.27959 -1,0.50326 0.0625,0.78285 -1.0625,1.17427 -1.0625,1.17427 0,0 -2.125,-1.45386 0.125,-2.12488 2.25,-0.67101 1.5,-1.00652 1.5,-1.00652 0,0 2.125,-1.06244 1.875,0.6151 -0.25,1.67753 -1.4375,0.83877 -1.4375,0.83877 z"
         style="opacity:1;fill:url(#radialGradient13145);fill-opacity:1;stroke:none;stroke-linecap:round;stroke-opacity:1" />
      <path
         sodipodi:nodetypes="cscsc"
         inkscape:connector-curvature="0"
         id="path13119"
         d="m 54.8125,961.58118 c 0,0 0.125,-2.62815 2.125,-2.51631 2,0.11184 2.0625,2.34855 2.0625,2.34855 0,0 -0.292058,0.90159 -2.25,0.16776 -1.087667,-0.40766 -1.9375,0 -1.9375,0 z"
         style="opacity:1;fill:url(#radialGradient13143);fill-opacity:1;stroke:none;stroke-linecap:round;stroke-opacity:1" />
      <path
         inkscape:connector-curvature="0"
         id="path13121"
         d="m 54.375,957.83468 c 0,0 0.0625,-1.00653 1.8125,-0.55918 1.75,0.44734 1.9375,-0.72694 1.9375,-0.72694 0,0 -0.125,-2.1808 -2.8125,-1.45386 -2.6875,0.72693 -0.9375,2.73998 -0.9375,2.73998 z"
         style="opacity:1;fill:url(#radialGradient13141);fill-opacity:1;stroke:none;stroke-linecap:round;stroke-opacity:1" />
      <path
         sodipodi:nodetypes="cscsc"
         inkscape:connector-curvature="0"
         id="path13123"
         d="m 63,958.61753 c 0,0 0.25,-2.90774 3.125,-2.40447 2.875,0.50326 2.125,2.29263 2.125,2.29263 0,0 -0.637976,1.34001 -2.5,0.11184 -1.427241,-0.9414 -2.75,0 -2.75,0 z"
         style="opacity:1;fill:url(#radialGradient13139);fill-opacity:1;stroke:none;stroke-linecap:round;stroke-opacity:1" />
      <path
         sodipodi:nodetypes="cscsc"
         inkscape:connector-curvature="0"
         id="path13125"
         d="m 67.8125,960.51874 c 0,0 1.480611,-0.25417 2.3125,0.72693 1.375,1.62162 3.0625,0.6151 3.0625,0.6151 0,0 1.9375,-1.50979 -1.25,-2.1808 -3.1875,-0.67102 -4.125,0.83877 -4.125,0.83877 z"
         style="opacity:1;fill:url(#radialGradient13137);fill-opacity:1;stroke:none;stroke-linecap:round;stroke-opacity:1" />
      <path
         sodipodi:nodetypes="csc"
         inkscape:connector-curvature="0"
         id="path13127"
         d="m 71.0625,956.49265 c 0,0 3.6875,3.57874 3.9375,1.78937 0.25,-1.78937 -3.9375,-1.78937 -3.9375,-1.78937 z"
         style="opacity:1;fill:url(#radialGradient13135);fill-opacity:1;stroke:none;stroke-linecap:round;stroke-opacity:1" />
    </g>
  </g>
</svg>
