<?xml version="1.0" encoding="UTF-8" standalone="no"?>
<!-- Created with Inkscape (http://www.inkscape.org/) -->

<svg
   xmlns:dc="http://purl.org/dc/elements/1.1/"
   xmlns:cc="http://creativecommons.org/ns#"
   xmlns:rdf="http://www.w3.org/1999/02/22-rdf-syntax-ns#"
   xmlns:svg="http://www.w3.org/2000/svg"
   xmlns="http://www.w3.org/2000/svg"
   xmlns:xlink="http://www.w3.org/1999/xlink"
   xmlns:sodipodi="http://sodipodi.sourceforge.net/DTD/sodipodi-0.dtd"
   xmlns:inkscape="http://www.inkscape.org/namespaces/inkscape"
   width="800"
   height="2000"
   viewBox="0 0 800.00007 2000"
   id="svg2"
   version="1.1"
   inkscape:version="0.91 r"
   sodipodi:docname="6.svg"
   inkscape:export-filename="/home/victor/aleva/super-bombinhas/data/img/bg/6.png"
   inkscape:export-xdpi="90"
   inkscape:export-ydpi="90">
  <defs
     id="defs4">
    <linearGradient
       id="linearGradient8972"
       inkscape:collect="always">
      <stop
         id="stop8974"
         offset="0"
         style="stop-color:#297200;stop-opacity:1" />
      <stop
         id="stop8976"
         offset="1"
         style="stop-color:#173e00;stop-opacity:1" />
    </linearGradient>
    <linearGradient
       id="linearGradient8966"
       inkscape:collect="always">
      <stop
         id="stop8968"
         offset="0"
         style="stop-color:#276c00;stop-opacity:1" />
      <stop
         id="stop8970"
         offset="1"
         style="stop-color:#184200;stop-opacity:1" />
    </linearGradient>
    <linearGradient
       inkscape:collect="always"
       id="linearGradient8912">
      <stop
         style="stop-color:#2f8100;stop-opacity:1"
         offset="0"
         id="stop8914" />
      <stop
         style="stop-color:#1d4a03;stop-opacity:1"
         offset="1"
         id="stop8916" />
    </linearGradient>
    <linearGradient
       id="linearGradient8896"
       inkscape:collect="always">
      <stop
         id="stop8898"
         offset="0"
         style="stop-color:#1f1100;stop-opacity:1" />
      <stop
         style="stop-color:#4a2b03;stop-opacity:1"
         offset="0.48555443"
         id="stop8900" />
      <stop
         id="stop8902"
         offset="1"
         style="stop-color:#1a0f00;stop-opacity:1" />
    </linearGradient>
    <linearGradient
       id="linearGradient8880"
       inkscape:collect="always">
      <stop
         id="stop8882"
         offset="0"
         style="stop-color:#130d00;stop-opacity:1" />
      <stop
         style="stop-color:#312100;stop-opacity:1"
         offset="0.514148"
         id="stop8884" />
      <stop
         id="stop8886"
         offset="1"
         style="stop-color:#120b00;stop-opacity:1" />
    </linearGradient>
    <linearGradient
       inkscape:collect="always"
       id="linearGradient8292">
      <stop
         style="stop-color:#422800;stop-opacity:1"
         offset="0"
         id="stop8294" />
      <stop
         id="stop8300"
         offset="0.51522982"
         style="stop-color:#694000;stop-opacity:1" />
      <stop
         style="stop-color:#392200;stop-opacity:1"
         offset="1"
         id="stop8296" />
    </linearGradient>
    <linearGradient
       inkscape:collect="always"
       id="linearGradient8282">
      <stop
         style="stop-color:#271b00;stop-opacity:1"
         offset="0"
         id="stop8284" />
      <stop
         id="stop8290"
         offset="0.514148"
         style="stop-color:#493202;stop-opacity:1" />
      <stop
         style="stop-color:#231700;stop-opacity:1"
         offset="1"
         id="stop8286" />
    </linearGradient>
    <linearGradient
       inkscape:collect="always"
       id="linearGradient8272">
      <stop
         style="stop-color:#3a2500;stop-opacity:1"
         offset="0"
         id="stop8274" />
      <stop
         id="stop8280"
         offset="0.51802468"
         style="stop-color:#623e00;stop-opacity:1" />
      <stop
         style="stop-color:#3a2500;stop-opacity:1"
         offset="1"
         id="stop8276" />
    </linearGradient>
    <linearGradient
       inkscape:collect="always"
       id="linearGradient8262">
      <stop
         style="stop-color:#301b00;stop-opacity:1"
         offset="0"
         id="stop8264" />
      <stop
         id="stop8270"
         offset="0.48555443"
         style="stop-color:#643800;stop-opacity:1" />
      <stop
         style="stop-color:#2d1900;stop-opacity:1"
         offset="1"
         id="stop8266" />
    </linearGradient>
    <linearGradient
       inkscape:collect="always"
       id="linearGradient8216">
      <stop
         style="stop-color:#00780e;stop-opacity:1"
         offset="0"
         id="stop8218" />
      <stop
         style="stop-color:#00580a;stop-opacity:1"
         offset="1"
         id="stop8220" />
    </linearGradient>
    <linearGradient
       inkscape:collect="always"
       id="linearGradient8206">
      <stop
         style="stop-color:#00a103;stop-opacity:1"
         offset="0"
         id="stop8208" />
      <stop
         style="stop-color:#007903;stop-opacity:1"
         offset="1"
         id="stop8210" />
    </linearGradient>
    <linearGradient
       inkscape:collect="always"
       id="linearGradient8198">
      <stop
         style="stop-color:#007304;stop-opacity:1"
         offset="0"
         id="stop8200" />
      <stop
         style="stop-color:#005a03;stop-opacity:1"
         offset="1"
         id="stop8202" />
    </linearGradient>
    <linearGradient
       inkscape:collect="always"
       id="linearGradient8190">
      <stop
         style="stop-color:#005903;stop-opacity:1"
         offset="0"
         id="stop8192" />
      <stop
         style="stop-color:#003c02;stop-opacity:1"
         offset="1"
         id="stop8194" />
    </linearGradient>
    <linearGradient
       inkscape:collect="always"
       id="linearGradient4156">
      <stop
         style="stop-color:#00b2b9;stop-opacity:1"
         offset="0"
         id="stop4158" />
      <stop
         style="stop-color:#d6feff;stop-opacity:1"
         offset="1"
         id="stop4160" />
    </linearGradient>
    <linearGradient
       inkscape:collect="always"
       xlink:href="#linearGradient4156"
       id="linearGradient4162"
       x1="294.00003"
       y1="1046.3622"
       x2="292.00003"
       y2="-443.63791"
       gradientUnits="userSpaceOnUse"
       gradientTransform="matrix(1.3499999,0,0,1.34,-5.0000003,-352.80304)" />
    <radialGradient
       inkscape:collect="always"
       xlink:href="#linearGradient8190"
       id="radialGradient8196"
       cx="148.1333"
       cy="69.583122"
       fx="148.1333"
       fy="69.583122"
       r="335.67664"
       gradientTransform="matrix(0.02141449,0.52377669,-1.2636465,0.05166386,166.68597,93.919866)"
       gradientUnits="userSpaceOnUse" />
    <radialGradient
       inkscape:collect="always"
       xlink:href="#linearGradient8198"
       id="radialGradient8204"
       cx="398.0668"
       cy="166.76878"
       fx="398.0668"
       fy="166.76878"
       r="299.64856"
       gradientTransform="matrix(0.02014499,0.41007308,-1.257327,0.06176663,599.73065,75.000327)"
       gradientUnits="userSpaceOnUse" />
    <radialGradient
       inkscape:collect="always"
       xlink:href="#linearGradient8206"
       id="radialGradient8212"
       cx="289.10373"
       cy="243.67854"
       fx="289.10373"
       fy="243.67854"
       r="366.43237"
       gradientTransform="matrix(0.01457212,0.88245523,-1.1402347,0.01882887,562.74159,86.586043)"
       gradientUnits="userSpaceOnUse" />
    <radialGradient
       inkscape:collect="always"
       xlink:href="#linearGradient8216"
       id="radialGradient8222"
       cx="229.98335"
       cy="579.85608"
       fx="229.98335"
       fy="579.85608"
       r="349.73642"
       gradientTransform="matrix(0.00302583,0.95465471,-1.4410429,0.00456745,1170.8841,396.86003)"
       gradientUnits="userSpaceOnUse" />
    <linearGradient
       inkscape:collect="always"
       xlink:href="#linearGradient8262"
       id="linearGradient8268"
       x1="10.000001"
       y1="66.862144"
       x2="130.06329"
       y2="66.862144"
       gradientUnits="userSpaceOnUse" />
    <linearGradient
       inkscape:collect="always"
       xlink:href="#linearGradient8272"
       id="linearGradient8278"
       x1="180.42181"
       y1="81.619606"
       x2="304.00006"
       y2="79.862137"
       gradientUnits="userSpaceOnUse" />
    <linearGradient
       inkscape:collect="always"
       xlink:href="#linearGradient8282"
       id="linearGradient8288"
       x1="310.00003"
       y1="71.862152"
       x2="424.30585"
       y2="71.862152"
       gradientUnits="userSpaceOnUse" />
    <linearGradient
       inkscape:collect="always"
       xlink:href="#linearGradient8292"
       id="linearGradient8298"
       x1="448.48163"
       y1="12.86214"
       x2="598.00006"
       y2="12.86214"
       gradientUnits="userSpaceOnUse"
       gradientTransform="translate(80.000005,-4.0000002)" />
    <radialGradient
       inkscape:collect="always"
       xlink:href="#linearGradient8190"
       id="radialGradient8450"
       gradientUnits="userSpaceOnUse"
       gradientTransform="matrix(0.01169924,0.5240837,-1.3762119,0.03072145,875.62434,116.40843)"
       cx="139.45274"
       cy="-14.465267"
       fx="139.45274"
       fy="-14.465267"
       r="335.67664" />
    <linearGradient
       inkscape:collect="always"
       xlink:href="#linearGradient8880"
       id="linearGradient8878"
       gradientUnits="userSpaceOnUse"
       x1="310.00003"
       y1="71.862152"
       x2="424.30585"
       y2="71.862152"
       gradientTransform="matrix(-0.78750003,0,0,0.85157232,448.1251,-166.33368)" />
    <linearGradient
       inkscape:collect="always"
       xlink:href="#linearGradient8896"
       id="linearGradient8894"
       gradientUnits="userSpaceOnUse"
       x1="10.000001"
       y1="66.862144"
       x2="130.06329"
       y2="66.862144"
       gradientTransform="matrix(0.85365855,0,0,0.82988004,477.46344,-138.62542)" />
    <linearGradient
       inkscape:collect="always"
       xlink:href="#linearGradient8282"
       id="linearGradient8906"
       gradientUnits="userSpaceOnUse"
       x1="310.00003"
       y1="71.862152"
       x2="424.30585"
       y2="71.862152"
       gradientTransform="matrix(0.73750003,0,0,0.86163521,449.37502,-123.05682)" />
    <radialGradient
       inkscape:collect="always"
       xlink:href="#linearGradient8912"
       id="radialGradient8918"
       cx="575.79596"
       cy="-367.44128"
       fx="575.79596"
       fy="-367.44128"
       r="236.6183"
       gradientTransform="matrix(0.98884473,-0.14895002,0.14369135,0.95393357,66.292363,57.077278)"
       gradientUnits="userSpaceOnUse" />
    <radialGradient
       inkscape:collect="always"
       xlink:href="#linearGradient8912"
       id="radialGradient8932"
       gradientUnits="userSpaceOnUse"
       gradientTransform="matrix(0.88125783,-0.12951945,0.12805764,0.82949266,122.9554,0.80600305)"
       cx="553.57684"
       cy="-487.84961"
       fx="553.57684"
       fy="-487.84961"
       r="236.6183" />
    <radialGradient
       inkscape:collect="always"
       xlink:href="#linearGradient8912"
       id="radialGradient8946"
       gradientUnits="userSpaceOnUse"
       gradientTransform="matrix(1.0115344,-0.16397542,0.14698844,1.050162,-277.39758,197.18161)"
       cx="575.79596"
       cy="-367.44128"
       fx="575.79596"
       fy="-367.44128"
       r="236.6183" />
    <radialGradient
       inkscape:collect="always"
       xlink:href="#linearGradient8912"
       id="radialGradient8948"
       gradientUnits="userSpaceOnUse"
       gradientTransform="matrix(0.90147886,-0.14258478,0.13099601,0.9131681,-219.43437,135.23394)"
       cx="553.57684"
       cy="-487.84961"
       fx="553.57684"
       fy="-487.84961"
       r="236.6183" />
    <radialGradient
       inkscape:collect="always"
       xlink:href="#linearGradient8912"
       id="radialGradient8954"
       gradientUnits="userSpaceOnUse"
       gradientTransform="matrix(-0.8323761,-0.13934575,-0.12095453,0.8924241,520.89821,141.16396)"
       cx="575.79596"
       cy="-367.44128"
       fx="575.79596"
       fy="-367.44128"
       r="236.6183" />
    <radialGradient
       inkscape:collect="always"
       xlink:href="#linearGradient8912"
       id="radialGradient8956"
       gradientUnits="userSpaceOnUse"
       gradientTransform="matrix(-0.74181309,-0.12116806,-0.1077946,0.77600715,473.20118,88.521041)"
       cx="553.57684"
       cy="-487.84961"
       fx="553.57684"
       fy="-487.84961"
       r="236.6183" />
    <radialGradient
       inkscape:collect="always"
       xlink:href="#linearGradient8972"
       id="radialGradient8962"
       gradientUnits="userSpaceOnUse"
       gradientTransform="matrix(-0.93131427,-0.12775532,-0.13533146,0.8181945,863.82717,169.33613)"
       cx="575.79596"
       cy="-367.44128"
       fx="575.79596"
       fy="-367.44128"
       r="236.6183" />
    <radialGradient
       inkscape:collect="always"
       xlink:href="#linearGradient8966"
       id="radialGradient8964"
       gradientUnits="userSpaceOnUse"
       gradientTransform="matrix(-0.82998672,-0.11108961,-0.12060732,0.71146082,810.46076,121.07191)"
       cx="553.57684"
       cy="-487.84961"
       fx="553.57684"
       fy="-487.84961"
       r="236.6183" />
    <radialGradient
       inkscape:collect="always"
       xlink:href="#linearGradient8972"
       id="radialGradient8982"
       gradientUnits="userSpaceOnUse"
       gradientTransform="matrix(-0.84954275,-0.02945393,-0.02643123,0.82683552,1211.2314,22.487694)"
       cx="575.79596"
       cy="-367.44128"
       fx="575.79596"
       fy="-367.44128"
       r="236.6183" />
    <radialGradient
       inkscape:collect="always"
       xlink:href="#linearGradient8966"
       id="radialGradient8984"
       gradientUnits="userSpaceOnUse"
       gradientTransform="matrix(-0.7567913,-0.02350212,-0.0256093,0.71928116,1157.8035,-19.867498)"
       cx="553.57684"
       cy="-487.84961"
       fx="553.57684"
       fy="-487.84961"
       r="236.6183" />
    <filter
       inkscape:collect="always"
       style="color-interpolation-filters:sRGB"
       id="filter9164"
       x="-0.0035402899"
       width="1.0070806"
       y="-0.0018153084"
       height="1.0036306">
      <feGaussianBlur
         inkscape:collect="always"
         stdDeviation="1.5324907"
         id="feGaussianBlur9166" />
    </filter>
  </defs>
  <sodipodi:namedview
     id="base"
     pagecolor="#ffffff"
     bordercolor="#666666"
     borderopacity="1.0"
     inkscape:pageopacity="0.0"
     inkscape:pageshadow="2"
     inkscape:zoom="1"
     inkscape:cx="400"
     inkscape:cy="1000"
     inkscape:document-units="px"
     inkscape:current-layer="layer1"
     showgrid="false"
     units="px"
     inkscape:snap-nodes="false"
     inkscape:snap-others="false"
     inkscape:snap-global="false" />
  <metadata
     id="metadata7">
    <rdf:RDF>
      <cc:Work
         rdf:about="">
        <dc:format>image/svg+xml</dc:format>
        <dc:type
           rdf:resource="http://purl.org/dc/dcmitype/StillImage" />
        <dc:title></dc:title>
      </cc:Work>
    </rdf:RDF>
  </metadata>
  <g
     inkscape:label="Layer 1"
     inkscape:groupmode="layer"
     id="layer1"
     transform="translate(0,947.63792)">
    <g
       id="g9096"
       style="filter:url(#filter9164)">
      <rect
         y="-952.63794"
         x="-5.0000005"
         height="2010.0001"
         width="810.00006"
         id="rect4154"
         style="opacity:1;fill:url(#linearGradient4162);fill-opacity:1;stroke:none;stroke-linecap:round;stroke-opacity:1" />
      <path
         style="opacity:1;fill:url(#radialGradient8982);fill-opacity:1;stroke:none;stroke-linecap:round;stroke-opacity:1"
         d="m 742.64638,-194.07828 c 0,0 30.3505,14.98488 48.81362,-23.80683 0,0 32.96196,13.37208 40.34534,-12.9004 0,0 34.89256,-0.23585 27.15322,-32.09571 0,0 45.95174,-11.88917 21.79113,-32.27196 0,0 30.08141,1.79245 25.13521,-35.54923 0,0 29.46502,-21.40006 9.93898,-43.54505 0,0 32.33023,-26.17493 -5.52477,-49.84399 0,0 1.42619,-40.13435 -27.99699,-33.03606 0,0 -2.89871,-38.2347 -45.98064,-25.22436 0,0 1.89051,-35.63593 -31.39537,-30.5292 0,0 -8.29118,-29.56255 -48.17409,1.95981 0,0 -33.22042,-25.43127 -55.26495,13.77849 0,0 -10.53815,-28.07903 -37.9924,-4.11357 0,0 -29.56706,-14.86682 -34.12646,18.63823 0,0 -38.62688,-19.91531 -38.12977,15.44192 0,0 -28.6513,3.34453 -13.96918,35.82469 0,0 -37.00793,4.32001 -26.53847,42.17679 0,0 -27.52618,12.98292 0.91902,38.97163 0,0 -4.13747,37.11946 17.28231,44.3888 0,0 -8.844,27.89913 15.24468,37.29937 0,0 -2.73434,28.40714 30.06093,29.46374 0,0 10.96006,31.69344 44.03336,14.39935 0,0 12.99769,38.78288 43.96466,24.1771 z"
         id="path8978"
         inkscape:connector-curvature="0"
         sodipodi:nodetypes="ccccccccccccccccccccccccc" />
      <path
         sodipodi:nodetypes="ccccccccccccccccccccccccc"
         inkscape:connector-curvature="0"
         id="path8980"
         d="m 740.87713,-207.07711 c 0,0 27.00215,12.9588 43.54782,-20.82984 0,0 29.33274,11.54939 35.97616,-11.32188 0,0 31.08665,-0.29216 24.27106,-27.98587 0,0 40.96842,-10.45625 19.49437,-28.12579 0,0 26.79529,1.48415 22.48179,-30.98485 0,0 26.30398,-18.68809 8.9633,-37.90204 0,0 28.86851,-22.84861 -4.79781,-43.34255 0,0 1.37067,-34.91405 -24.86037,-28.66631 0,0 -2.48718,-33.25087 -40.90165,-21.82652 0,0 1.77311,-31.00231 -27.89428,-26.47728 0,0 -7.31298,-25.69402 -42.92358,1.82484 0,0 -29.53295,-22.03834 -49.27037,12.12288 0,0 -9.31852,-24.39801 -33.83749,-3.48344 0,0 -26.30447,-12.85805 -30.45001,16.29739 0,0 -34.36336,-17.22685 -34.00864,13.52708 0,0 -25.53402,2.98064 -12.53458,31.1966 0,0 -32.98144,3.84999 -23.74851,36.75325 0,0 -24.55567,11.3617 0.72161,33.89683 0,0 -3.77866,32.29833 15.28628,38.56809 0,0 -7.94875,24.28985 13.48861,32.40651 0,0 -2.50687,24.7165 26.70807,25.55382 0,0 9.68541,27.54091 39.19379,12.41535 0,0 11.48307,33.70252 39.1082,20.9206 z"
         style="opacity:1;fill:url(#radialGradient8984);fill-opacity:1;stroke:none;stroke-linecap:round;stroke-opacity:1" />
      <path
         sodipodi:nodetypes="cscccscscscscscscscsccccsccccccccc"
         inkscape:connector-curvature="0"
         id="path8904"
         d="m 679.43908,259.69911 c 0,0 18.50867,-69.48977 19.42683,-194.22032 1.13305,-153.923057 -18.70731,-292.07742 -18.70731,-292.07742 0,0 19.42682,67.9771 21.58536,115.78517 0,0 6.47561,-97.85711 0,-161.3522 0,0 -1.43902,-22.41003 -11.51219,-31.37405 -10.07317,-8.96401 -11.5122,-52.29008 -11.5122,-52.29008 0,0 5.7561,38.84406 20.86585,51.54308 15.10977,12.69903 14.39025,53.03708 14.39025,53.03708 0,0 12.23171,-49.30207 5.7561,-71.71211 -6.47561,-22.41003 0.71951,-80.67611 0.71951,-80.67611 0,0 0.71952,61.25408 7.91463,73.9531 7.19514,12.69902 1.43903,64.9891 1.43903,64.9891 0,0 8.63416,-26.89203 28.7805,-36.60306 20.14636,-9.71101 33.81709,-44.82006 33.81709,-44.82006 0,0 -13.00833,39.63418 -36.69514,57.51909 -15.82926,11.95201 -19.42682,29.88004 -19.42682,29.88004 0,0 11.51219,-14.94002 28.78048,-16.43402 17.2683,-1.49401 30.93904,-23.90405 30.93904,-23.90405 0,0 -12.95123,29.13305 -36.69514,33.61506 -23.7439,4.48201 -20.14634,93.37514 -20.14634,93.37514 0,0 -2.15853,56.02509 2.87805,135.207207 0,0 4.31708,-64.989107 27.34147,-81.423127 0,0 -23.02439,55.278081 -23.7439,112.0501657 0,0 1.43902,47.8080713 -3.59757,126.2431943 -3.39916,52.93535 15.10976,138.19518 15.10976,138.19518 0,0 -13.67073,-2.98801 -17.98781,-30.62705 0,0 -0.71951,29.13304 15.10976,50.04907 0,0 -28.06099,-11.20501 -29.50002,-26.89204 0,0 -3.59755,24.65104 -17.9878,30.62705 0,0 3.59756,-20.16903 2.15854,-27.63904 0,0 -9.35367,14.19302 -30.93903,27.63904 0,0 19.42683,-18.67503 19.42683,-37.35005 0,0 -6.47561,14.19302 -17.98781,15.68702 z"
         style="opacity:1;fill:url(#linearGradient8906);fill-opacity:1;stroke:none;stroke-linecap:round;stroke-opacity:1" />
      <path
         style="opacity:1;fill:url(#radialGradient8450);fill-opacity:1;stroke:none;stroke-linecap:round;stroke-opacity:1"
         d="m 640.64575,283.69313 c 0,0 63.90669,-69.66355 193.27068,-101.65313 l -12.74911,191.01296 z"
         id="path8448"
         inkscape:connector-curvature="0"
         sodipodi:nodetypes="cccc" />
      <path
         inkscape:connector-curvature="0"
         id="path8188"
         d="m -110.20581,237.51762 c 0,0 263.10563,-165.82346 672.59597,-18.19606 L -87.873473,430.21801 Z"
         style="opacity:1;fill:url(#radialGradient8196);fill-opacity:1;stroke:none;stroke-linecap:round;stroke-opacity:1"
         sodipodi:nodetypes="cccc" />
      <path
         sodipodi:nodetypes="cscccscscscscscscscsccccsccccccccc"
         inkscape:connector-curvature="0"
         id="path8876"
         d="m 202.46347,211.9521 c 0,0 -19.76348,-68.67821 -20.7439,-191.952041 -1.20987,-152.125429 19.97561,-288.666309 19.97561,-288.666309 0,0 -20.7439,67.18321 -23.04878,114.43294 0,0 -6.91464,-96.71426 0,-159.46779 0,0 1.53659,-22.1483 12.29268,-31.00764 10.7561,-8.85933 12.29269,-51.67939 12.29269,-51.67939 0,0 -6.14635,38.3904 -22.28049,50.94111 -16.13415,12.55073 -15.36586,52.41767 -15.36586,52.41767 0,0 -13.06097,-48.72628 -6.14634,-70.87459 6.91463,-22.14831 -0.7683,-79.73391 -0.7683,-79.73391 0,0 -0.76829,60.5387 -8.45121,73.08941 -7.68294,12.55071 -1.53659,64.23011 -1.53659,64.23011 0,0 -9.21953,-26.57796 -30.73172,-36.17558 -21.51221,-9.5976 -36.10977,-44.29662 -36.10977,-44.29662 0,0 13.89025,39.1713 39.18294,56.84734 16.90244,11.81243 20.7439,29.53107 20.7439,29.53107 0,0 -12.29268,-14.76554 -30.73171,-16.24209 -18.43902,-1.47655 -33.03659,-23.62487 -33.03659,-23.62487 0,0 13.82927,28.79281 39.18294,33.22248 25.35366,4.42965 21.51219,92.28461 21.51219,92.28461 0,0 2.30488,55.37078 -3.07317,133.628151 0,0 -4.60976,-64.230111 -29.19512,-80.472201 0,0 24.58536,54.6325 25.35366,110.741549 0,0 -1.53659,47.2497357 3.84146,124.768825 3.62962,52.317126 -16.13414,136.581216 -16.13414,136.581216 0,0 14.59755,-2.9531 19.20731,-30.26936 0,0 0.76829,28.7928 -16.13414,49.46457 0,0 29.96343,-11.07416 31.50002,-26.57798 0,0 3.84145,24.36314 19.20731,30.26936 0,0 -3.84146,-19.93348 -2.30488,-27.31626 0,0 9.98781,14.02727 33.03659,27.31626 0,0 -20.7439,-18.45693 -20.7439,-36.91385 0,0 6.91463,14.02726 19.20731,15.50381 z"
         style="opacity:1;fill:url(#linearGradient8878);fill-opacity:1;stroke:none;stroke-linecap:round;stroke-opacity:1" />
      <path
         style="opacity:1;fill:#003e07;fill-opacity:1;stroke:none;stroke-linecap:round;stroke-opacity:1"
         d="m 91.19279,198.86828 c 0,0 0.921468,-12.93198 13.43373,-12.71947 0,0 2.0864,-9.13568 10.10844,-4.14406 0,0 4.62583,-10.71115 12.54924,-1.40531 0,0 10.74637,-4.67284 9.80025,9.33771 0,0 10.15774,-6.3013 12.41365,4.52673 0,0 6.41638,-6.90433 13.81279,-1.92333 0,0 12.03458,-6.26943 11.12545,6.1233 0,0 11.82501,2.89828 4.13275,10.85991 l -27.93378,17.32859 -48.7855,-1.3681 z"
         id="path8256"
         inkscape:connector-curvature="0" />
      <path
         sodipodi:nodetypes="cccc"
         inkscape:connector-curvature="0"
         id="path8186"
         d="m 49.209133,328.28466 c 0,0 476.045707,-351.444631 779.297027,24.13009 l 4.00008,108.10555 z"
         style="opacity:1;fill:url(#radialGradient8204);fill-opacity:1;stroke:none;stroke-linecap:round;stroke-opacity:1" />
      <path
         style="opacity:1;fill:url(#linearGradient8894);fill-opacity:1;stroke:none;stroke-linecap:round;stroke-opacity:1"
         d="m 487.70735,273.29562 c 0,0 21.95943,-77.19958 23.04878,-215.768854 1.34431,-171.000656 -22.19512,-324.483096 -22.19512,-324.483096 0,0 23.04878,75.51908 25.60975,128.63141 0,0 7.68293,-108.71424 0,-179.25405 0,0 -1.70731,-24.8964 -13.65853,-34.85497 -11.95122,-9.95856 -13.65854,-58.0916 -13.65854,-58.0916 0,0 6.82927,43.15376 24.7561,57.26172 17.92683,14.10797 17.07317,58.92149 17.07317,58.92149 0,0 14.51219,-54.77209 6.82927,-79.66849 -7.68293,-24.8964 0.85365,-89.62704 0.85365,-89.62704 0,0 0.85366,68.05016 9.39025,82.15812 8.5366,14.10796 1.70732,72.19957 1.70732,72.19957 0,0 10.24392,-29.87568 34.14636,-40.66413 23.90244,-10.78844 40.12196,-49.7928 40.12196,-49.7928 0,0 -15.43361,44.03155 -43.5366,63.90077 -18.78049,13.27808 -23.04878,33.1952 -23.04878,33.1952 0,0 13.65854,-16.5976 34.14634,-18.25736 20.48782,-1.65976 36.70733,-26.55617 36.70733,-26.55617 0,0 -15.36586,32.36533 -43.5366,37.34461 -28.17073,4.97928 -23.90244,103.735 -23.90244,103.735 0,0 -2.56097,62.24102 3.41464,150.208302 0,0 5.12195,-72.199572 32.43902,-90.456922 0,0 -27.31707,61.411113 -28.17073,124.48201 0,0 1.70732,53.112322 -4.26829,140.24974 -4.03291,58.80847 17.92683,153.52778 17.92683,153.52778 0,0 -16.21951,-3.31952 -21.34147,-34.02508 0,0 -0.85365,32.36532 17.92683,55.60196 0,0 -33.2927,-12.4482 -35.00001,-29.87568 0,0 -4.2683,27.38604 -21.34147,34.02508 0,0 4.2683,-22.40676 2.56099,-30.70556 0,0 -11.09757,15.76772 -36.70733,30.70556 0,0 23.04878,-20.747 23.04878,-41.494 0,0 -7.68293,15.76772 -21.34146,17.42748 z"
         id="path8892"
         inkscape:connector-curvature="0"
         sodipodi:nodetypes="cscccscscscscscscscsccccsccccccccc" />
      <path
         style="opacity:1;fill:#004708;fill-opacity:1;stroke:none;stroke-linecap:round;stroke-opacity:1"
         d="m 34.037037,235.12206 c 0,0 -9.590687,-18.50542 11.59387,-14.36923 0,0 -4.071109,-13.55614 8.379514,-10.64724 0,0 -4.758365,-10.87053 5.251449,-10.70052 0,0 -9.137658,-10.94492 11.519912,-11.13354 0,0 4.000221,-10.72177 19.369347,1.40796 0,0 10.157741,-6.3013 13.640221,5.62654 0,0 14.36445,1.32295 7.83712,13.08076 0,0 10.74637,-4.67284 12.9653,7.77302 0,0 10.04679,-1.44782 16.16733,4.59048 0,0 0.88448,-11.31418 13.97305,-8.93393 0,0 -6.59823,-12.52024 5.87706,-10.68989 0,0 10.84499,-8.98706 15.56637,3.50131 0,0 13.11322,1.30169 10.36423,12.04472 0,0 10.63542,0.18064 10.41354,9.88761 0,0 11.87431,0.74117 10.38887,10.96617 0,0 -2.60107,4.27171 -22.63301,4.47095 -3.77834,1.0148 -13.84979,3.54117 -41.99005,2.52372 0,0 -38.28568,4.74459 -58.83229,0.0797 0,0 -47.719192,6.7423 -39.388983,-1.74798 0,0 -18.179768,1.30945 -10.46285,-7.73063 z"
         id="path8258"
         inkscape:connector-curvature="0" />
      <path
         style="opacity:1;fill:#004e09;fill-opacity:1;stroke:none;stroke-linecap:round;stroke-opacity:1"
         d="m 511.28322,295.24181 c 0,0 -9.38104,-23.69419 8.71096,-21.54018 0,0 4e-5,-15.79604 20.10225,-5.02594 0,0 0.67007,-21.5402 15.41172,-13.64213 0,0 0.67006,-15.79616 16.75185,-5.74406 0,0 -6.03068,-18.66818 12.73141,-15.79614 0,0 5.36059,-15.79617 17.42192,-2.87204 0,0 11.39126,-10.77011 15.41169,7.18007 0,0 12.06134,-12.20612 16.75187,5.74406 0,0 14.07156,2.15402 7.37081,18.66818 0,0 21.67381,-6.33558 20.33365,8.02456 0,0 10.81597,6.2091 2.71558,16.94891 0,0 4.95723,8.4593 -4.4238,16.35739 0,0 -8.72861,6.83621 -18.96928,4.12096 0,0 -11.04741,1.93665 -29.13941,0.50064 0,0 -31.49347,7.18007 -50.25555,0 0,0 -40.20445,4.30803 -35.51392,-4.30805 0,0 -25.4629,1.43572 -15.41175,-8.61623 z"
         id="path8888"
         inkscape:connector-curvature="0"
         sodipodi:nodetypes="cccccccccccccccccc" />
      <path
         inkscape:connector-curvature="0"
         id="path8184"
         d="m -62.268893,351.31455 c 0,0 353.396753,-140.08638 638.106773,28.63062 28.8487,13.06581 59.27085,26.65626 107.17478,21.5284 41.89415,-4.48455 83.11112,-53.13549 136.61668,-63.08186 l 7.96653,411.44672 -875.047546,63.50792 z"
         style="opacity:1;fill:url(#radialGradient8212);fill-opacity:1;stroke:none;stroke-linecap:round;stroke-opacity:1"
         sodipodi:nodetypes="ccscccc" />
      <path
         sodipodi:nodetypes="cccccccccccccccccc"
         inkscape:connector-curvature="0"
         id="path8232"
         d="m 299.57532,409.24182 c 0,0 9.38104,-23.69419 -8.71096,-21.54018 0,0 -4e-5,-15.79604 -20.10225,-5.02594 0,0 -0.67007,-21.5402 -15.41172,-13.64213 0,0 -0.67006,-15.79616 -16.75185,-5.74406 0,0 6.03068,-18.66818 -12.73141,-15.79614 0,0 -5.36059,-15.79617 -17.42192,-2.87204 0,0 -11.39126,-10.77011 -15.41169,7.18007 0,0 -12.06134,-12.20612 -16.75187,5.74406 0,0 -14.07156,2.15402 -7.37081,18.66818 0,0 -21.67381,-6.33558 -20.33365,8.02456 0,0 -10.81597,6.2091 -2.71558,16.94891 0,0 -4.95723,8.4593 4.4238,16.35739 0,0 8.72861,6.83621 18.96928,4.12096 0,0 11.04741,1.93665 29.13941,0.50064 0,0 31.49347,7.18007 50.25555,0 0,0 40.20445,4.30803 35.51392,-4.30805 0,0 25.4629,1.43572 15.41175,-8.61623 z"
         style="opacity:1;fill:#00670c;fill-opacity:1;stroke:none;stroke-linecap:round;stroke-opacity:1" />
      <path
         style="opacity:1;fill:#00520a;fill-opacity:1;stroke:none;stroke-linecap:round;stroke-opacity:1"
         d="m 47.590966,244.52353 c 0,0 -2.354526,-6.51382 7.704592,-8.50095 0,0 -1.654945,-9.7387 12.059232,-7.34782 0,0 -3.470151,-12.46711 7.790883,-12.27585 0,0 3.362284,-10.19312 12.66019,-6.2588 0,0 7.692263,-7.96163 13.076247,2.91954 0,0 13.89908,-5.69828 17.35691,7.30811 0,0 5.20214,-8.54342 8.74626,0.68804 0,0 9.44583,-2.53699 12.33968,7.76239 0,0 9.58143,-8.46904 15.628,0.80492 0,0 10.10843,-4.14419 11.77571,5.05538 0,0 13.15021,-0.31613 14.78051,10.50128 0,0 -15.10101,3.51991 -32.61818,3.22238 0,0 -20.76851,5.04211 -27.53931,0.0717 0,0 -31.440911,6.4793 -35.058995,0.48349 0,0 -45.192079,5.70603 -38.701729,-4.43385 z"
         id="path8260"
         inkscape:connector-curvature="0"
         sodipodi:nodetypes="cccccccccccccccc" />
      <path
         inkscape:connector-curvature="0"
         id="path8234"
         d="m 171.46325,416.05992 c 0,0 -15.38731,-3.67969 -9.7183,-16.92684 0,0 -9.71829,-13.98291 8.0986,-13.98291 0,0 4.85914,-16.92685 19.43658,-6.62356 0,0 10.52817,-16.19089 22.67604,0.73595 0,0 -6.47886,-15.45494 12.14788,-13.24709 0,0 8.90845,-13.2471 18.62675,2.20785 0,0 12.95773,-9.56735 17.81688,5.88759 0,0 17.00703,-6.62354 17.00703,9.56735 0,0 11.33801,-6.62354 9.7183,9.56735 0,0 13.98616,5.90895 5.93242,20.3124 l -15.76561,7.04395 c 0,0 -29.32865,2.01854 -45.52581,-0.18931 0,0 -73.4085,5.95043 -60.45076,-4.35273 z"
         style="opacity:1;fill:#00750e;fill-opacity:1;stroke:none;stroke-linecap:round;stroke-opacity:1"
         sodipodi:nodetypes="cccccccccccccc" />
      <path
         style="opacity:1;fill:#00520a;fill-opacity:1;stroke:none;stroke-linecap:round;stroke-opacity:1"
         d="m 275.17576,289.33088 c 0,0 -12.44929,-12.16337 3.4964,-15.55476 0,0 -1.70991,-11.1559 7.62012,-10.84801 0,0 -1.70993,-11.15608 11.84807,-8.74991 0,0 -1.04438,-9.82827 13.12705,-4.79018 0,0 4.77539,-11.59497 16.61126,-2.06351 0,0 13.28345,-8.70254 17.86417,2.54827 0,0 11.76986,-6.79372 12.68391,6.29485 0,0 13.84474,-4.76649 13.40159,6.31853 0,0 10.84363,-1.60092 11.11817,9.50779 0,0 10.04773,0.33157 5.24628,12.57861 0,0 16.2463,7.06533 -25.40608,6.34374 0,0 -38.91193,2.63344 -50.23865,-1.65786 0,0 -28.91639,4.26888 -37.37229,0.0725 z"
         id="path8252"
         inkscape:connector-curvature="0" />
      <path
         inkscape:connector-curvature="0"
         id="path8254"
         d="m 366.97184,290.4662 c 0,0 9.00856,-9.6041 -2.71012,-12.20533 0,0 1.1473,-8.77033 -5.68769,-8.49168 0,0 1.14732,-8.77046 -8.76641,-6.82681 0,0 0.67213,-7.72478 -9.66618,-3.71119 0,0 -3.6099,-9.08967 -12.19385,-1.55551 0,0 -9.81796,-6.78394 -13.06834,2.07226 0,0 -8.69053,-5.29044 -9.2362,4.99497 0,0 -10.19195,-3.68976 -9.76196,5.0164 0,0 -7.96242,-1.21485 -8.05818,7.51274 0,0 -7.36077,0.30009 -3.72558,9.9019 0,0 -11.83974,5.61428 18.68014,4.88317 0,0 28.54326,1.91528 36.80379,-1.50045 0,0 21.23314,3.23942 27.39058,-0.0905 z"
         style="opacity:1;fill:#005f0c;fill-opacity:1;stroke:none;stroke-linecap:round;stroke-opacity:1" />
      <path
         sodipodi:nodetypes="cccccccccccccc"
         style="opacity:1;fill:#005d0b;fill-opacity:1;stroke:none;stroke-linecap:round;stroke-opacity:1"
         d="m 639.39529,302.05991 c 0,0 15.38731,-3.67969 9.7183,-16.92684 0,0 9.71829,-13.98291 -8.0986,-13.98291 0,0 -4.85914,-16.92685 -19.43658,-6.62356 0,0 -10.52817,-16.19089 -22.67604,0.73595 0,0 6.47886,-15.45494 -12.14788,-13.24709 0,0 -8.90845,-13.2471 -18.62675,2.20785 0,0 -12.95773,-9.56735 -17.81688,5.88759 0,0 -17.00703,-6.62354 -17.00703,9.56735 0,0 -11.33801,-6.62354 -9.7183,9.56735 0,0 -13.98616,5.90895 -5.93242,20.3124 l 15.76561,7.04395 c 0,0 29.32865,2.01854 45.52581,-0.18931 0,0 73.4085,5.95043 60.45076,-4.35273 z"
         id="path8890"
         inkscape:connector-curvature="0" />
      <path
         inkscape:connector-curvature="0"
         id="path8182"
         d="m -38.664323,737.36212 c 0,0 80.62786,-0.98155 138.088757,-36.03976 39.813106,-24.29089 82.967486,-53.22649 159.016696,-70.02526 76.04921,-16.79877 199.47591,-17.26298 307.61512,15.52043 93.22315,28.26147 161.96836,88.37588 249.96485,90.54459 l -5.21258,335.60468 -847.715379,0.485 z"
         style="opacity:1;fill:url(#radialGradient8222);fill-opacity:1;stroke:none;stroke-linecap:round;stroke-opacity:1"
         sodipodi:nodetypes="cssscccc" />
      <path
         sodipodi:nodetypes="cccccccccccccc"
         style="opacity:1;fill:#00520a;fill-opacity:1;stroke:none;stroke-linecap:round;stroke-opacity:1"
         d="m 748.30865,784.87927 c 0,0 25.93886,-7.64324 16.38244,-35.15941 0,0 16.38242,-29.04451 -13.65205,-29.04451 0,0 -8.19122,-35.15945 -32.76488,-13.75804 0,0 -17.74765,-33.63078 -38.22569,1.52867 0,0 10.92162,-32.1021 -20.47805,-27.51608 0,0 -15.01724,-27.5161 -31.39967,4.586 0,0 -21.84326,-19.87272 -30.03447,12.22938 0,0 -28.66927,-13.75805 -28.66927,19.87273 0,0 -19.11284,-13.75804 -16.38244,19.87272 0,0 -20.47804,-7.64335 -17.74764,30.57345 -13.46554,21.81002 32.56894,28.12004 58.60341,23.43006 0,0 66.99529,8.67204 94.29935,4.08602 0,0 81.91223,10.70013 60.06896,-10.70099 z"
         id="path8236"
         inkscape:connector-curvature="0" />
      <path
         inkscape:connector-curvature="0"
         id="path8238"
         d="m 586.80587,786.65153 c 0,0 -18.39086,-5.66467 -11.61528,-26.05785 0,0 -11.61527,-21.52588 9.67941,-21.52588 0,0 5.80764,-26.05788 23.23054,-10.19657 0,0 12.58323,-24.92492 27.10232,1.13295 0,0 -7.74351,-23.79197 14.5191,-20.39311 0,0 10.64735,-20.39312 22.26263,3.39885 0,0 15.48703,-14.72837 21.29467,9.06361 0,0 20.32674,-10.19656 20.32674,14.72836 0,0 13.55117,-10.19656 11.61529,14.72836 0,0 16.71621,9.09648 7.0904,31.26975 l -18.843,10.84375 c 0,0 -35.0535,3.10741 -54.41229,-0.29145 0,0 -87.73759,9.16034 -72.25053,-6.70077 z"
         style="opacity:1;fill:#005b0a;fill-opacity:1;stroke:none;stroke-linecap:round;stroke-opacity:1"
         sodipodi:nodetypes="cccccccccccccc" />
      <path
         inkscape:connector-curvature="0"
         id="path8242"
         d="m 133.17789,832.75341 c 0,0 1.29404,-21.06819 18.86532,-20.72197 0,0 2.92999,-14.88344 14.19553,-6.75131 0,0 6.49618,-17.45011 17.62322,-2.28947 0,0 15.09139,-7.61278 13.76273,15.21257 0,0 14.26477,-10.26579 17.4328,7.37474 0,0 9.01068,-11.24822 19.39765,-3.13341 0,0 16.90046,-10.21386 15.62374,9.97581 0,0 16.60616,4.72173 5.80372,17.69246 l -39.2281,28.23093 -68.51069,-2.22884 z"
         style="opacity:1;fill:#003e07;fill-opacity:1;stroke:none;stroke-linecap:round;stroke-opacity:1" />
      <path
         inkscape:connector-curvature="0"
         id="path8240"
         d="m 52.912644,891.8164 c 0,0 -13.468442,-30.14818 16.281559,-23.40969 0,0 -5.717165,-22.08504 11.767563,-17.34599 0,0 -6.682289,-17.70977 7.374738,-17.43279 0,0 -12.832238,-17.83096 16.177696,-18.13825 0,0 5.61761,-17.46742 27.20086,2.29378 0,0 14.26477,-10.26579 19.1553,9.16649 0,0 20.17236,2.15529 11.00587,21.31058 0,0 15.09139,-7.61278 18.20749,12.66344 0,0 14.10895,-2.35872 22.70418,7.4786 0,0 1.2421,-18.43254 19.6227,-14.55474 0,0 -9.26605,-20.3974 8.2533,-17.41548 0,0 15.22989,-14.6413 21.86024,5.70417 0,0 18.41523,2.12066 14.55475,19.6227 0,0 14.93559,0.29429 14.62399,16.10845 0,0 16.6754,1.20747 14.58936,17.86557 0,0 -3.65275,6.95927 -31.78411,7.28387 -5.30601,1.65326 -19.4496,5.76911 -58.96767,4.11153 0,0 -53.76553,7.72966 -82.61965,0.12987 0,0 -67.013244,10.98425 -55.314929,-2.84773 0,0 -25.530301,2.1333 -14.693237,-12.59438 z"
         style="opacity:1;fill:#004708;fill-opacity:1;stroke:none;stroke-linecap:round;stroke-opacity:1" />
      <path
         sodipodi:nodetypes="cccccccccccccccc"
         inkscape:connector-curvature="0"
         id="path8244"
         d="m 71.946761,907.13284 c 0,0 -3.30652,-10.61202 10.819751,-13.84936 0,0 -2.324084,-15.86583 16.935084,-11.97072 0,0 -4.873225,-20.31085 10.940924,-19.99925 0,0 4.72174,-16.60616 17.77902,-10.19655 0,0 10.80244,-12.97072 18.3633,4.75637 0,0 19.51883,-9.28337 24.37474,11.90605 0,0 7.3055,-13.91855 12.2826,1.12091 0,0 13.26501,-4.13315 17.32892,12.64613 0,0 13.45544,-13.79736 21.94679,1.31134 0,0 14.19551,-6.75152 16.53692,8.236 0,0 18.46716,-0.51503 20.75663,17.10819 0,0 -21.20672,5.73448 -45.80652,5.24976 0,0 -29.16573,8.21437 -38.67413,0.11687 0,0 -44.15326,10.55578 -49.23423,0.78769 0,0 -63.464361,9.29599 -54.349799,-7.22343 z"
         style="opacity:1;fill:#00520a;fill-opacity:1;stroke:none;stroke-linecap:round;stroke-opacity:1" />
      <path
         inkscape:connector-curvature="0"
         id="path8248"
         d="m 259.2101,736.20005 c 0,0 -15.23267,-16.3809 4.27812,-20.94822 0,0 -2.09221,-15.02409 9.32381,-14.60944 0,0 -2.09223,-15.02434 14.49704,-11.78386 0,0 -1.27788,-13.23612 16.06196,-6.45112 0,0 5.84306,-15.61542 20.32517,-2.77902 0,0 16.25334,-11.72005 21.8582,3.43187 0,0 14.40135,-9.14938 15.51975,8.47752 0,0 16.94012,-6.41923 16.39789,8.50942 0,0 13.26803,-2.15603 13.60395,12.80451 0,0 12.29418,0.44654 6.41923,16.94013 0,0 19.87862,9.51516 -31.08631,8.54336 0,0 -47.61178,3.54656 -61.4709,-2.23271 0,0 -35.38145,5.74908 -45.72791,0.0976 z"
         style="opacity:1;fill:#00520a;fill-opacity:1;stroke:none;stroke-linecap:round;stroke-opacity:1" />
      <path
         style="opacity:1;fill:#005f0c;fill-opacity:1;stroke:none;stroke-linecap:round;stroke-opacity:1"
         d="m 371.52975,737.72904 c 0,0 11.02267,-12.93423 -3.31604,-16.43742 0,0 1.40381,-11.81135 -6.95933,-11.43608 0,0 1.40383,-11.81153 -10.72639,-9.19394 0,0 0.82241,-10.40327 -11.82732,-4.99801 0,0 -4.41699,-12.24142 -14.92013,-2.09487 0,0 -12.01303,-9.1362 -15.99013,2.79081 0,0 -10.63354,-7.12485 -11.30121,6.72692 0,0 -12.47064,-4.96914 -11.94451,6.75579 0,0 -9.74264,-1.63609 -9.85982,10.11771 0,0 -9.00647,0.40415 -4.55853,13.33528 0,0 -14.48685,7.56097 22.8566,6.57636 0,0 34.9249,2.57938 45.03231,-2.02072 0,0 25.98039,4.36266 33.5145,-0.12183 z"
         id="path8250"
         inkscape:connector-curvature="0" />
      <path
         style="opacity:1;fill:#00520a;fill-opacity:1;stroke:none;stroke-linecap:round;stroke-opacity:1"
         d="m 725.66983,570.8696 c 0,0 -16.46973,-21.3427 4.62555,-27.29347 0,0 -2.26212,-19.5749 10.08101,-19.03466 0,0 -2.26214,-19.57523 15.67436,-15.3532 0,0 -1.38166,-17.24536 17.36636,-8.40518 0,0 6.31758,-20.34535 21.9758,-3.62079 0,0 17.57329,-15.27007 23.63332,4.47139 0,0 15.5709,-11.92074 16.78013,11.04537 0,0 18.31584,-8.36362 17.72958,11.08694 0,0 14.34554,-2.80909 14.70874,16.68301 0,0 13.2926,0.5818 6.94054,22.07132 0,0 21.49298,12.39732 -33.61086,11.13116 0,0 -51.47838,4.62082 -66.46301,-2.909 0,0 -38.25481,7.49048 -49.44152,0.12716 z"
         id="path8868"
         inkscape:connector-curvature="0" />
      <path
         inkscape:connector-curvature="0"
         id="path8870"
         d="m 847.11107,572.86172 c 0,0 11.91783,-16.85203 -3.58534,-21.41634 0,0 1.51781,-15.38902 -7.5245,-14.90008 0,0 1.51783,-15.38926 -11.5975,-11.9788 0,0 0.8892,-13.55443 -12.78782,-6.51191 0,0 -4.7757,-15.94936 -16.13181,-2.72941 0,0 -12.98862,-11.90357 -17.2887,3.63615 0,0 -11.4971,-9.28298 -12.219,8.76451 0,0 -13.48339,-6.4743 -12.91453,8.80213 0,0 -10.53385,-2.13166 -10.66055,13.18238 0,0 -9.73789,0.52657 -4.92873,17.37455 0,0 -15.66334,9.8512 24.71281,8.56835 0,0 37.76118,3.36068 48.68942,-2.6328 0,0 28.09029,5.68412 36.23625,-0.15873 z"
         style="opacity:1;fill:#005f0c;fill-opacity:1;stroke:none;stroke-linecap:round;stroke-opacity:1" />
      <path
         sodipodi:nodetypes="ccccccccccccccccccccccccc"
         inkscape:connector-curvature="0"
         id="path8950"
         d="m 84.786236,-152.71557 c 0,0 28.137214,20.07237 50.755524,-19.61838 0,0 30.89153,18.65536 41.17219,-8.87365 0,0 34.35347,4.15713 30.39845,-31.33756 0,0 46.57147,-7.06911 25.1436,-32.2066 0,0 29.38748,5.74609 28.80979,-35.33418 0,0 31.44446,-19.45788 14.77834,-45.91838 0,0 34.81153,-24.26846 0.28885,-54.69803 0,0 6.01201,-43.29989 -23.74893,-39.3308 0,0 1.53912,-41.78881 -42.33786,-33.14213 0,0 5.95219,-38.36774 -27.38006,-37.04471 0,0 -4.76174,-33.07564 -47.6175,-3.96908 0,0 -29.76093,-31.7526 -55.950552,7.93815 0,0 -7.142622,-31.7526 -36.903552,-9.26117 0,0 -27.380054,-19.84539 -35.7131186,15.8763 0,0 -35.7131204,-26.4605 -39.2844314,11.90724 0,0 -28.570496,0 -17.856555,37.0447 0,0 -36.90357,0 -30.95138,42.33681 0,0 -28.570491,10.58421 -3.57131,42.33682 0,0 -8.33305,39.69077 11.904381,50.27497 0,0 -11.904381,29.10656 10.713934,42.33682 0,0 -5.952188,30.42958 26.189619,35.72168 0,0 7.142622,35.72169 41.6653084,21.1684 0,0 8.3330556,43.65984 40.4748636,31.75262 z"
         style="opacity:1;fill:url(#radialGradient8954);fill-opacity:1;stroke:none;stroke-linecap:round;stroke-opacity:1" />
      <path
         style="opacity:1;fill:url(#radialGradient8956);fill-opacity:1;stroke:none;stroke-linecap:round;stroke-opacity:1"
         d="m 84.538448,-167.02181 c 0,0 25.075872,17.45393 45.233292,-17.05916 0,0 27.53051,16.22177 36.69263,-7.71608 0,0 30.61581,3.61482 27.09109,-27.24957 0,0 41.50446,-6.14694 22.40796,-28.00523 0,0 26.1901,4.99651 25.67526,-30.72484 0,0 28.02329,-16.91959 13.17046,-39.92831 0,0 31.02401,-21.10263 0.25741,-47.56266 0,0 5.3579,-37.6514 -21.16502,-34.20008 0,0 1.37165,-36.33745 -37.73148,-28.81872 0,0 5.30458,-33.36267 -24.4011,-32.21224 0,0 -4.24366,-28.7609 -42.43668,-3.45129 0,0 -26.52292,-27.61047 -49.863095,6.90261 0,0 -6.365507,-27.61046 -32.888436,-8.05305 0,0 -24.401079,-17.25656 -31.827506,13.80523 0,0 -31.827508,-23.00872 -35.010261,10.35394 0,0 -25.462009,0 -15.91375,32.21221 0,0 -32.888435,0 -27.583849,36.81396 0,0 -25.462002,9.2035 -3.182753,36.81398 0,0 -7.426411,34.51308 10.609179,43.71657 0,0 -10.609179,25.3096 9.548243,36.81397 0,0 -5.304577,26.46003 23.340176,31.06178 0,0 6.365507,31.06178 37.132103,18.40698 0,0 7.426418,37.96441 36.071171,27.61048 z"
         id="path8952"
         inkscape:connector-curvature="0"
         sodipodi:nodetypes="ccccccccccccccccccccccccc" />
      <path
         sodipodi:nodetypes="cscccscscscscscscscsccccsccccccccc"
         inkscape:connector-curvature="0"
         id="path4136"
         d="m 12.000001,496.36215 c 0,0 25.723906,-93.02499 27,-260.00005 1.574756,-206.054663 -26.000002,-391 -26.000002,-391 0,0 27.000002,90.999997 30.000002,154.99999747 0,0 9.000005,-130.99994747 4e-6,-215.99994747 0,0 -2,-30 -16.000001,-42.00001 -14.000002,-12 -16.000003,-70 -16.000003,-70 0,0 8.000002,52 29.000004,69 21,17.00001 20,71.00001 20,71.00001 0,0 17,-66.00001 8,-96.00001 -9,-30 1,-108 1,-108 0,0 1,82 11,99 10.000014,17 2,87.00001 2,87.00001 0,0 12.000014,-36 40.000015,-49.00001 28.00001,-13 47.00001,-60 47.00001,-60 0,0 -18.07937,53.05773 -51.00001,77.00001 -22.000001,16 -27.000001,40 -27.000001,40 0,0 16.000001,-20 40.000001,-22 24.00001,-2 43.00001,-32.00001 43.00001,-32.00001 0,0 -18,39.00001 -51.00001,45.00001 -33.000001,6 -28.000001,124.999997 -28.000001,124.999997 0,0 -3,75.0000105 4,181.00002 0,0 6.000001,-87.00001 38.000001,-109.0000095 0,0 -32,73.9999995 -33,150.0000125 0,0 2,64 -5.000001,169.00001 -4.72426,70.86382 21.000001,184.99997 21.000001,184.99997 0,0 -19,-4 -25.000001,-41 0,0 -1,39 21.000001,67 0,0 -39.000015,-15 -41.000015,-36 0,0 -5,33 -24.999999,41 0,0 5.000001,-27 3.000001,-37 0,0 -13.000002,19 -43.000006,37 0,0 27.000004,-25 27.000004,-50 0,0 -9.000003,19 -25.000004,21 z"
         style="opacity:1;fill:url(#linearGradient8268);fill-opacity:1;stroke:none;stroke-linecap:round;stroke-opacity:1" />
      <path
         inkscape:connector-curvature="0"
         id="path8872"
         d="m -74.330697,570.8696 c 0,0 -16.46973,-21.3427 4.62555,-27.29347 0,0 -2.26212,-19.5749 10.08101,-19.03466 0,0 -2.26214,-19.57523 15.67436,-15.3532 0,0 -1.38166,-17.24536 17.36636,-8.40518 0,0 6.31758,-20.34535 21.9758005,-3.62079 0,0 17.5732895,-15.27007 23.6333195,4.47139 0,0 15.5709,-11.92074 16.78013,11.04537 0,0 18.31584,-8.36362 17.72958,11.08694 0,0 14.34554,-2.80909 14.70874,16.68301 0,0 13.2926,0.5818 6.94054,22.07132 0,0 21.49298,12.39732 -33.61086,11.13116 0,0 -51.4783795,4.62082 -66.46301,-2.909 0,0 -38.25481,7.49048 -49.44152,0.12716 z"
         style="opacity:1;fill:#00520a;fill-opacity:1;stroke:none;stroke-linecap:round;stroke-opacity:1" />
      <path
         style="opacity:1;fill:#005f0c;fill-opacity:1;stroke:none;stroke-linecap:round;stroke-opacity:1"
         d="m 47.110543,572.86172 c 0,0 11.91783,-16.85203 -3.58534,-21.41634 0,0 1.51781,-15.38902 -7.5245,-14.90008 0,0 1.51783,-15.38926 -11.5975,-11.9788 0,0 0.8892,-13.55443 -12.78782,-6.51191 0,0 -4.7756995,-15.94936 -16.1318095,-2.72941 0,0 -12.9886205,-11.90357 -17.2887005,3.63615 0,0 -11.4971,-9.28298 -12.219,8.76451 0,0 -13.48339,-6.4743 -12.91453,8.80213 0,0 -10.53385,-2.13166 -10.66055,13.18238 0,0 -9.73789,0.52657 -4.92873,17.37455 0,0 -15.66334,9.8512 24.71281,8.56835 0,0 37.76118048,3.36068 48.68942,-2.6328 0,0 28.09029,5.68412 36.23625,-0.15873 z"
         id="path8874"
         inkscape:connector-curvature="0" />
      <path
         sodipodi:nodetypes="ccccccccccccccccccccccccc"
         inkscape:connector-curvature="0"
         id="path8958"
         d="m 375.87791,-100.09923 c 0,0 31.48167,18.402797 56.78845,-17.98658 0,0 34.56336,17.10366 46.066,-8.13556 0,0 38.43682,3.81135 34.01169,-28.73098 0,0 52.10707,-6.48112 28.13222,-29.52774 0,0 32.88055,5.26815 32.23419,-32.39517 0,0 35.18203,-17.83942 16.53493,-42.099 0,0 38.94931,-22.24987 0.32319,-50.14839 0,0 6.7266,-39.69831 -26.57178,-36.05936 0,0 1.72205,-38.31292 -47.37025,-30.38545 0,0 6.65968,-35.1764 -30.63451,-33.96343 0,0 -5.32774,-30.32449 -53.27743,-3.63894 0,0 -33.29838,-29.11149 -62.60096,7.27788 0,0 -7.99161,-29.1115 -41.29,-8.49085 0,0 -30.63451,-18.1947 -39.95806,14.55574 0,0 -39.95806,-24.25958 -43.95387,10.91683 0,0 -31.96645,0 -19.97903,33.96342 0,0 -41.29,0 -34.63032,38.81534 0,0 -31.96645,9.70384 -3.99581,38.81535 0,0 -9.32355,36.38939 13.31936,46.09322 0,0 -13.31936,26.68555 11.98742,38.81535 0,0 -6.65968,27.89852 29.30258,32.75044 0,0 7.99161,32.75045 46.61774,19.40767 0,0 9.32354,40.02833 45.2858,29.11151 z"
         style="opacity:1;fill:url(#radialGradient8962);fill-opacity:1;stroke:none;stroke-linecap:round;stroke-opacity:1" />
      <path
         style="opacity:1;fill:url(#radialGradient8964);fill-opacity:1;stroke:none;stroke-linecap:round;stroke-opacity:1"
         d="m 375.60067,-113.21552 c 0,0 28.05645,16.002155 50.60983,-15.64022 0,0 30.80284,14.87248 41.05399,-7.07427 0,0 34.25488,3.31414 30.3112,-24.98302 0,0 46.43779,-5.63566 25.07144,-25.67583 0,0 29.30311,4.58091 28.72707,-28.16923 0,0 31.35421,-15.51225 14.73593,-36.60717 0,0 34.71159,-19.34736 0.28801,-43.60652 0,0 5.99475,-34.51965 -23.68074,-31.3554 0,0 1.53468,-33.31499 -42.21634,-26.42165 0,0 5.9351,-30.58764 -27.30146,-29.5329 0,0 -4.74808,-26.36864 -47.48081,-3.16423 0,0 -29.67549,-25.3139 -55.78994,6.32847 0,0 -7.12212,-25.31389 -36.79763,-7.38322 0,0 -27.30145,-15.8212 -35.6106,12.65695 0,0 -35.61059,-21.09492 -39.17166,9.49273 0,0 -28.48848,0 -17.80529,29.53288 0,0 -36.79763,0 -30.86253,33.75186 0,0 -28.48848,8.43797 -3.56106,33.75188 0,0 -8.30914,31.64238 11.87021,40.08034 0,0 -11.87021,23.20441 10.68317,33.75188 0,0 -5.9351,24.25915 26.11444,28.47814 0,0 7.12213,28.47814 41.54571,16.87593 0,0 8.30914,34.80662 40.35867,25.3139 z"
         id="path8960"
         inkscape:connector-curvature="0"
         sodipodi:nodetypes="ccccccccccccccccccccccccc" />
      <path
         style="opacity:1;fill:url(#linearGradient8288);fill-opacity:1;stroke:none;stroke-linecap:round;stroke-opacity:1"
         d="m 311.95126,444.22038 c 0,0 25.09649,-80.64871 26.34146,-225.40898 1.53634,-178.640633 -25.36585,-338.98037 -25.36585,-338.98037 0,0 26.34146,78.893127 29.26829,134.378407 0,0 8.78049,-113.57139 0,-187.262767 0,0 -1.95122,-26.00872 -15.60975,-36.41222 -13.65854,-10.40349 -15.60976,-60.68703 -15.60976,-60.68703 0,0 7.80488,45.08179 28.29268,59.82007 20.48781,14.73829 19.5122,61.55399 19.5122,61.55399 0,0 16.58536,-57.2192 7.80488,-83.22793 -8.78049,-26.00872 0.97561,-93.6314 0.97561,-93.6314 0,0 0.97561,71.09051 10.7317,85.82879 9.75612,14.73827 1.95122,75.4253 1.95122,75.4253 0,0 11.70734,-31.21046 39.02441,-42.48092 27.31709,-11.27045 45.85367,-52.01745 45.85367,-52.01745 0,0 -17.63841,45.9988 -49.75611,66.75574 -21.46341,13.87131 -26.34146,34.67829 -26.34146,34.67829 0,0 15.60976,-17.33915 39.02439,-19.07306 23.41464,-1.73392 41.95123,-27.74265 41.95123,-27.74265 0,0 -17.56098,33.81135 -49.75611,39.0131 -32.19512,5.20174 -27.31707,108.369677 -27.31707,108.369677 0,0 -2.92683,65.0218205 3.90244,156.919323 0,0 5.85366,-75.425313 37.07317,-94.4983725 0,0 -31.21951,64.1548495 -32.19512,130.0436225 0,0 1.95122,55.48528 -4.87805,146.51582 -4.60904,61.43592 20.4878,160.38711 20.4878,160.38711 0,0 -18.53658,-3.46783 -24.39024,-35.54526 0,0 -0.97561,33.81134 20.4878,58.08615 0,0 -38.0488,-13.00436 -40.00002,-31.21047 0,0 -4.87804,28.6096 -24.39024,35.54526 0,0 4.87805,-23.40785 2.92683,-32.07743 0,0 -12.68293,16.4722 -41.95122,32.07743 0,0 26.34146,-21.67394 26.34146,-43.34787 0,0 -8.78048,16.47219 -24.39024,18.2061 z"
         id="path4140"
         inkscape:connector-curvature="0"
         sodipodi:nodetypes="cscccscscscscscscscsccccsccccccccc" />
      <path
         style="opacity:1;fill:url(#radialGradient8946);fill-opacity:1;stroke:none;stroke-linecap:round;stroke-opacity:1"
         d="m 252.58191,-148.64176 c 0,0 -34.19339,23.6202 -61.68,-23.08598 0,0 -37.54053,21.95274 -50.03397,-10.44208 0,0 -41.747625,4.89191 -36.94133,-36.87654 0,0 -56.595393,-8.3186 -30.555442,-37.89919 0,0 -35.712762,6.76172 -35.010724,-41.57958 0,0 -38.21248258,-22.8971 -17.959192,-54.03455 0,0 -42.304265,-28.55796 -0.351024,-64.36603 0,0 -7.306011,-50.95323 28.860581,-46.2826 0,0 -1.870385,-49.17507 51.450551,-39.00007 0,0 -7.233318,-45.14932 33.27326,-43.59245 0,0 5.78665,-38.92183 57.86656,-4.67062 0,0 36.16659,-37.36494 67.99319,9.34124 0,0 8.67998,-37.36495 44.84657,-10.89811 0,0 33.27326,-23.3531 43.39991,18.68247 0,0 43.39991,-31.13745 47.7399,14.01187 0,0 34.71993,0 21.69995,43.59244 0,0 44.84658,0 37.61326,49.81993 0,0 34.71993,12.45499 4.33999,49.81995 0,0 10.12665,46.70619 -14.46664,59.16117 0,0 14.46664,34.25121 -13.01997,49.81995 0,0 7.23332,35.80807 -31.8266,42.03557 0,0 -8.67998,42.03557 -50.63323,24.90996 0,0 -10.12664,51.37681 -49.18656,37.36496 z"
         id="path8942"
         inkscape:connector-curvature="0"
         sodipodi:nodetypes="ccccccccccccccccccccccccc" />
      <path
         sodipodi:nodetypes="ccccccccccccccccccccccccc"
         inkscape:connector-curvature="0"
         id="path8944"
         d="m 252.88303,-165.47667 c 0,0 -30.47313,20.53895 -54.96918,-20.0744 0,0 -33.45609,19.089 -44.59024,-9.07991 0,0 -37.20547,4.25375 -32.9221,-32.06599 0,0 -50.437774,-7.23343 -27.230995,-32.95522 0,0 -31.827183,5.87965 -31.201529,-36.15552 0,0 -34.054945,-19.91016 -16.005222,-46.98573 0,0 -37.7015318,-24.83256 -0.312828,-55.96946 0,0 -6.51112,-44.30637 25.720526,-40.24502 0,0 -1.666879,-42.76017 45.852698,-33.91249 0,0 -6.44633,-39.25959 29.65312,-37.90582 0,0 5.15706,-33.84445 51.57064,-4.06132 0,0 32.23163,-32.49068 60.59548,8.12266 0,0 7.7356,-32.49067 39.96725,-9.47644 0,0 29.6531,-20.30669 38.67797,16.24534 0,0 38.67797,-27.07557 42.54577,12.18402 0,0 30.94238,0 19.33898,37.90579 0,0 39.96725,0 33.52092,43.3209 0,0 30.94238,10.83024 3.8678,43.32093 0,0 9.02485,40.61335 -12.89267,51.44357 0,0 12.89267,29.78313 -11.60338,43.32092 0,0 6.44632,31.1369 -28.36385,36.55202 0,0 -7.7356,36.55202 -45.12431,21.66045 0,0 -9.02486,44.6747 -43.83503,32.49069 z"
         style="opacity:1;fill:url(#radialGradient8948);fill-opacity:1;stroke:none;stroke-linecap:round;stroke-opacity:1" />
      <path
         style="opacity:1;fill:url(#linearGradient8278);fill-opacity:1;stroke:none;stroke-linecap:round;stroke-opacity:1"
         d="m 302.00005,568.37745 c 0,0 -25.72391,-105.80708 -27,-295.72529 -1.57476,-234.367513 26,-444.72519 26,-444.72519 0,0 -27,103.503817 -30,176.2977175 0,0 -9.00001,-148.9999475 0,-245.6793275 0,0 2,-34.12215 16,-47.77101 14,-13.64886 16,-79.61832 16,-79.61832 0,0 -8,59.14504 -29,78.48091 -21,19.3359 -20,80.75574 -20,80.75574 0,0 -17,-75.06872 -8,-109.19085 9,-34.12214 -1,-122.8397 -1,-122.8397 0,0 -1,93.26718 -11,112.60305 -10.00002,19.33589 -2,98.95422 -2,98.95422 0,0 -12.00002,-40.94656 -40.00002,-55.73284 -28.00001,-14.78625 -47.00001,-68.24427 -47.00001,-68.24427 0,0 18.07937,60.3481 51.00001,87.58016 22,18.19848 27,45.49619 27,45.49619 0,0 -16,-22.7481 -40,-25.02291 -24.00001,-2.2748 -43.00001,-36.39696 -43.00001,-36.39696 0,0 18,44.35879 51.00001,51.18322 33,6.82443 28,142.175577 28,142.175577 0,0 3,85.3053505 -4,205.870253 0,0 -6,-98.954223 -38,-123.9771125 0,0 32,84.1679295 33,170.6107025 0,0 -2,72.79389 5,192.22139 4.72426,80.60083 -21,210.41985 -21,210.41985 0,0 19,-4.5496 25,-46.6336 0,0 1,44.3588 -21,76.2061 0,0 39.00002,-17.0611 41.00002,-40.9466 0,0 5,37.5343 24.99999,46.6336 0,0 -5,-30.7099 -3,-42.084 0,0 13.00001,21.6107 43.00001,42.084 0,0 -27,-28.4352 -27,-56.8702 0,0 9,21.6107 25,23.8855 z"
         id="path4138"
         inkscape:connector-curvature="0"
         sodipodi:nodetypes="cscccscscscscscscscsccccsccccccccc" />
      <path
         sodipodi:nodetypes="ccccccccccccccc"
         inkscape:connector-curvature="0"
         id="path8224"
         d="m 49.638232,614.60904 c 0,0 -21.94936,-5.73692 -13.86275,-26.39019 0,0 -13.862751,-21.80043 11.5523,-21.80043 0,0 6.93138,-26.39023 27.72551,-10.32662 0,0 15.01799,-25.24282 32.346428,1.14741 0,0 -9.241828,-24.09542 17.32844,-20.65322 0,0 12.70753,-20.65322 26.57028,3.4422 0,0 18.48368,-14.91621 25.41506,9.17921 0,0 24.25982,-10.32661 24.25982,14.91621 0,0 16.17321,-10.3266 13.86275,14.91621 0,0 17.76781,5.68655 8.86684,26.46297 6.62464,9.45901 0.94699,15.84245 -26.25966,11.2417 -9.63194,6.82281 -30.24808,6.61574 -43.83434,2.45436 0,0 -30.03598,6.88442 -53.14057,3.44221 0,0 -69.313798,8.03138 -50.830108,-8.03202 z"
         style="opacity:1;fill:#005c0b;fill-opacity:1;stroke:none;stroke-linecap:round;stroke-opacity:1" />
      <path
         sodipodi:nodetypes="cccccccccccccc"
         style="opacity:1;fill:#00650c;fill-opacity:1;stroke:none;stroke-linecap:round;stroke-opacity:1"
         d="m 180.37787,614.4381 c 0,0 15.56227,-4.25183 9.82881,-19.55869 0,0 9.82879,-16.15704 -8.19069,-16.15704 0,0 -4.9144,-19.5587 -19.65759,-7.65341 0,0 -10.64787,-18.70832 -22.93388,0.85038 0,0 6.55253,-17.85794 -12.286,-15.3068 0,0 -9.00975,-15.30682 -18.83855,2.55113 0,0 -13.105068,-11.05492 -18.019458,6.80302 0,0 -17.20041,-7.6534 -17.20041,11.05492 0,0 -11.46694,-7.6534 -9.82881,11.05492 0,0 -14.14519,6.82769 -5.99987,23.47066 l 15.94487,8.13917 c 0,0 29.662128,2.33239 46.043468,-0.21875 0,0 74.24319,6.87563 61.13811,-5.02951 z"
         id="path8226"
         inkscape:connector-curvature="0" />
      <path
         sodipodi:nodetypes="ccccccccccccccccccccccccc"
         inkscape:connector-curvature="0"
         id="path8908"
         d="m 584.38391,-257.0576 c 0,0 -33.4264,21.45584 -60.29646,-20.97056 0,0 -36.69846,19.94116 -48.91166,-9.48525 0,0 -40.81119,4.44365 -36.1127,-33.49747 0,0 -55.32591,-7.55635 -29.87006,-34.42641 0,0 -34.91169,6.14213 -34.2254,-37.76956 0,0 -37.35534,-20.79899 -17.55635,-49.08326 0,0 -41.35534,-25.94113 -0.34315,-58.46804 0,0 -7.14213,-46.28428 28.21321,-42.04163 0,0 -1.82843,-44.66906 50.29647,-35.42641 0,0 -7.07107,-41.0122 32.52691,-39.59799 0,0 5.65685,-35.35534 56.56855,-4.24264 0,0 35.35534,-33.94112 66.46804,8.48528 0,0 8.48528,-33.94112 43.84062,-9.89949 0,0 32.52691,-21.21321 42.42641,16.97056 0,0 42.42641,-28.28427 46.66905,12.72793 0,0 33.94113,0 21.2132,39.59798 0,0 43.84063,0 36.76956,45.25483 0,0 33.94113,11.31371 4.24264,45.25484 0,0 9.8995,42.42641 -14.14214,53.74012 0,0 14.14214,31.1127 -12.72792,45.25484 0,0 7.07107,32.52691 -31.1127,38.18377 0,0 -8.48528,38.18376 -49.49748,22.62741 0,0 -9.89949,46.66905 -48.08326,33.94113 z"
         style="opacity:1;fill:url(#radialGradient8918);fill-opacity:1;stroke:none;stroke-linecap:round;stroke-opacity:1" />
      <path
         style="opacity:1;fill:url(#radialGradient8932);fill-opacity:1;stroke:none;stroke-linecap:round;stroke-opacity:1"
         d="m 584.67827,-272.34989 c 0,0 -29.78959,18.65692 -53.73617,-18.23494 0,0 -32.70564,17.33983 -43.59004,-8.2479 0,0 -36.37091,3.86397 -32.18362,-29.12772 0,0 -49.30641,-6.57062 -26.62018,-29.93547 0,0 -31.11327,5.34089 -30.50165,-32.84251 0,0 -33.29106,-18.08576 -15.64621,-42.68034 0,0 -36.85585,-22.5571 -0.30581,-50.84086 0,0 -6.36507,-40.24649 25.14359,-36.55729 0,0 -1.62949,-38.84197 44.82418,-30.80502 0,0 -6.30173,-35.66215 28.98797,-34.43243 0,0 5.04138,-30.74322 50.41386,-3.68918 0,0 31.50865,-29.51349 59.23627,7.37837 0,0 7.56208,-29.51349 39.07074,-8.6081 0,0 28.98796,-18.44594 37.81039,14.75675 0,0 37.81039,-24.59458 41.59143,11.06757 0,0 30.24831,0 18.90519,34.43241 0,0 39.07074,0 32.76901,39.35132 0,0 30.24831,9.83784 3.78104,39.35134 0,0 8.82242,36.89187 -12.60347,46.7297 0,0 12.60347,27.05404 -11.34311,39.35133 0,0 6.30173,28.28377 -27.72762,33.20269 0,0 -7.56208,33.20268 -44.11213,19.67566 0,0 -8.82242,40.58106 -42.85177,29.5135 z"
         id="path8930"
         inkscape:connector-curvature="0"
         sodipodi:nodetypes="ccccccccccccccccccccccccc" />
      <path
         sodipodi:nodetypes="cscccscscscscscscscsccccsccccccccc"
         inkscape:connector-curvature="0"
         id="path4142"
         d="m 675.51228,505.80825 c 0,0 -31.99804,-107.63314 -33.58537,-300.82893 -1.95885,-238.412213 32.34146,-452.40023 32.34146,-452.40023 0,0 -33.58536,105.29008 -37.31707,179.340257 0,0 -11.19513,-151.571377 0,-249.919247 0,0 2.4878,-34.71102 19.90244,-48.59543 17.41463,-13.88442 19.90244,-80.99237 19.90244,-80.99237 0,0 -9.95122,60.16576 -36.07317,79.83533 -26.12195,19.66959 -24.87805,82.14941 -24.87805,82.14941 0,0 -21.14634,-76.36424 -9.95122,-111.07525 11.19512,-34.71103 -1.2439,-124.95966 -1.2439,-124.95966 0,0 -1.24391,94.87677 -13.68293,114.54634 -12.43905,19.66959 -2.4878,100.66197 -2.4878,100.66197 0,0 -14.92686,-41.65322 -49.75613,-56.69468 -34.82928,-15.04143 -58.46342,-69.42202 -58.46342,-69.42202 0,0 22.48897,61.38959 63.43903,89.09161 27.36586,18.51254 33.58537,46.28136 33.58537,46.28136 0,0 -19.90244,-23.14069 -49.7561,-25.45475 -29.85367,-2.31407 -53.48781,-37.0251 -53.48781,-37.0251 0,0 22.39024,45.12433 63.43903,52.06654 41.04878,6.9422 34.82927,144.62923 34.82927,144.62923 0,0 3.73171,86.777537 -4.97561,209.423137 0,0 -7.46342,-100.66196 -47.26829,-126.1167 0,0 39.80487,85.6205003 41.04878,173.55508 0,0 -2.48781,74.050173 6.21951,195.538733 5.87652,81.99184 -26.12195,214.05127 -26.12195,214.05127 0,0 23.63414,-4.6282 31.09756,-47.43841 0,0 1.2439,45.12431 -26.12195,77.52131 0,0 48.51222,-17.3556 51.00002,-41.6533 0,0 6.21951,38.1821 31.09755,47.4384 0,0 -6.21951,-31.2399 -3.73171,-42.8102 0,0 16.17075,21.9836 53.48782,42.8102 0,0 -33.58537,-28.9259 -33.58537,-57.85168 0,0 11.19513,21.98368 31.09757,24.29778 z"
         style="opacity:1;fill:url(#linearGradient8298);fill-opacity:1;stroke:none;stroke-linecap:round;stroke-opacity:1" />
      <path
         inkscape:connector-curvature="0"
         id="path8228"
         d="m 426.0483,540.65368 c 0,0 -11.36071,-27.64506 10.54923,-25.13187 0,0 5e-5,-18.42995 24.34444,-5.86399 0,0 0.81149,-25.13191 18.66404,-15.91688 0,0 0.81147,-18.43007 20.28699,-6.70184 0,0 -7.30331,-21.78099 15.41812,-18.43007 0,0 6.49184,-18.43007 21.09847,-3.35092 0,0 13.79515,-12.56596 18.66403,8.3773 0,0 14.60663,-14.24141 20.287,6.70185 0,0 17.04107,2.51319 8.92627,21.78099 0,0 16.22959,0 14.60663,16.7546 0,0 18.66404,-7.53957 21.09848,9.21505 0,0 13.79516,6.70183 2.43444,15.91688 0,0 -19.47551,5.86411 -43.00843,5.86411 0,0 -8.92627,7.53957 -30.83623,5.86411 0,0 -38.13954,8.37731 -60.86097,0 0,0 -48.68879,5.02638 -43.00843,-5.02639 0,0 -30.83632,1.67513 -18.66408,-10.05293 z"
         style="opacity:1;fill:#005e0b;fill-opacity:1;stroke:none;stroke-linecap:round;stroke-opacity:1" />
      <path
         inkscape:connector-curvature="0"
         id="path8246"
         d="m 400.49872,544.1637 c 0,0 -8.48884,-10.78587 3.91792,-22.91985 0,0 -3.91789,-15.50437 11.75381,-9.43737 0,0 -5.87689,-14.83045 12.40677,-9.43755 0,0 1.95897,-14.83045 18.93664,-5.3929 0,0 -3.91793,-13.48221 5.87689,-13.48221 0,0 5.2239,-14.15635 14.36573,-0.67412 0,0 14.36572,-9.43756 15.01872,4.04467 0,0 11.10078,-10.78578 15.0187,8.08933 0,0 16.32469,-6.067 17.63067,4.71878 l -13.71274,43.14312 -65.95175,4.04467 c 0,0 -23.50763,4.71852 -35.26136,-2.69657 z"
         style="opacity:1;fill:#00520a;fill-opacity:1;stroke:none;stroke-linecap:round;stroke-opacity:1" />
      <path
         style="opacity:1;fill:#00670c;fill-opacity:1;stroke:none;stroke-linecap:round;stroke-opacity:1"
         d="m 585.3782,546.29418 c 0,0 8.60149,-22.32536 -7.98709,-20.29578 0,0 -3e-5,-14.88348 -18.43178,-4.73559 0,0 -0.61439,-20.29579 -14.131,-12.854 0,0 -0.61439,-14.88359 -15.35979,-5.41221 0,0 5.52952,-17.5897 -11.67345,-14.88359 0,0 -4.91513,-14.88359 -15.97417,-2.70611 0,0 -10.44466,-10.14791 -14.131,6.76527 0,0 -11.05906,-11.50096 -15.3598,5.41222 0,0 -12.90222,2.02958 -6.75831,17.58969 0,0 -12.28783,0 -11.05904,13.53053 0,0 -14.13101,-6.08873 -15.97419,7.4418 0,0 -10.44466,5.41221 -1.84318,12.85402 0,0 14.7454,4.73568 32.56276,4.73568 0,0 6.75831,6.08874 23.34688,4.73568 0,0 28.8764,6.76527 46.07937,0 0,0 36.86349,4.05916 32.56275,-4.05916 0,0 23.34695,1.35278 14.13104,-8.11845 z"
         id="path8230"
         inkscape:connector-curvature="0" />
    </g>
  </g>
</svg>
