<?xml version="1.0" encoding="UTF-8" standalone="no"?>
<!-- Created with Inkscape (http://www.inkscape.org/) -->

<svg
   xmlns:dc="http://purl.org/dc/elements/1.1/"
   xmlns:cc="http://creativecommons.org/ns#"
   xmlns:rdf="http://www.w3.org/1999/02/22-rdf-syntax-ns#"
   xmlns:svg="http://www.w3.org/2000/svg"
   xmlns="http://www.w3.org/2000/svg"
   xmlns:sodipodi="http://sodipodi.sourceforge.net/DTD/sodipodi-0.dtd"
   xmlns:inkscape="http://www.inkscape.org/namespaces/inkscape"
   width="32"
   height="32"
   id="svg2"
   version="1.1"
   inkscape:version="0.48.4 r9939"
   sodipodi:docname="New document 1">
  <defs
     id="defs4" />
  <sodipodi:namedview
     id="base"
     pagecolor="#ffffff"
     bordercolor="#666666"
     borderopacity="1.0"
     inkscape:pageopacity="0.0"
     inkscape:pageshadow="2"
     inkscape:zoom="1"
     inkscape:cx="16"
     inkscape:cy="16"
     inkscape:document-units="px"
     inkscape:current-layer="layer1"
     showgrid="false"
     inkscape:window-width="1366"
     inkscape:window-height="716"
     inkscape:window-x="0"
     inkscape:window-y="0"
     inkscape:window-maximized="1" />
  <metadata
     id="metadata7">
    <rdf:RDF>
      <cc:Work
         rdf:about="">
        <dc:format>image/svg+xml</dc:format>
        <dc:type
           rdf:resource="http://purl.org/dc/dcmitype/StillImage" />
        <dc:title></dc:title>
      </cc:Work>
    </rdf:RDF>
  </metadata>
  <g
     inkscape:label="Layer 1"
     inkscape:groupmode="layer"
     id="layer1"
     transform="translate(0,-1020.3622)">
    <path
       style="fill:#ffda00;fill-opacity:1;fill-rule:evenodd;stroke:#000000;stroke-width:1;stroke-linecap:round;stroke-linejoin:round;stroke-miterlimit:4;stroke-opacity:1;stroke-dasharray:none"
       d="m 9.9139415,13.659208 -4.5163511,-5.2323577 6.6092946,1.6523237 0.881239,-6.7745268 3.800344,4.9018932 3.855422,-4.020654 -0.110155,6.0034426 8.702237,-1.6523238 -6.444062,5.4526678 8.537005,1.652323 -7.931153,2.588641 5.232358,6.388984 -7.160068,-1.487091 -0.771085,6.609294 -3.469879,-4.681583 -3.965577,3.855422 -1.376936,-4.846816 -5.6179003,0.05508 2.919105,-2.58864 -3.9104991,-2.478485 4.9569704,-1.652324 -6.0585195,-3.855422 z"
       id="path3757"
       inkscape:connector-curvature="0"
       transform="translate(0,1020.3622)"
       sodipodi:nodetypes="ccccccccccccccccccccccc" />
    <path
       style="fill:#ff6800;fill-opacity:1;fill-rule:evenodd;stroke:#000000;stroke-width:0.99228859000000003;stroke-linecap:round;stroke-linejoin:round;stroke-opacity:1"
       d="m 10.867586,1031.7977 -3.965016,-9.4587 8.201609,7.8089 1.466513,-9.0187 2.009666,8.8538 7.658455,-8.9638 -4.399538,12.0983 6.409204,-0.2749 -6.028997,3.6844 9.233599,5.2243 -9.450861,-0.5499 6.680781,10.3935 -9.939698,-7.149 -1.412198,4.2894 -1.95535,-5.7192 -9.4508602,7.534 5.0513212,-8.5788 -7.2239328,1.4848 5.5401595,-4.5644 -8.69044642,-3.4095 9.45086072,-0.275 -4.7254304,-3.1345 z"
       id="path3753"
       inkscape:connector-curvature="0" />
    <path
       style="fill:#ff0000;fill-opacity:1;fill-rule:evenodd;stroke:#000000;stroke-width:1;stroke-linecap:round;stroke-linejoin:round;stroke-miterlimit:4;stroke-opacity:1;stroke-dasharray:none"
       d="m 10.409639,16.963855 3.304647,-0.936316 c 0,0 -3.304647,-2.533563 -3.084338,-2.533563 0.22031,0 3.304648,0.05508 3.304648,0.05508 l -1.046472,-2.974182 2.643718,2.203098 1.156626,-2.698795 0.771084,2.919105 2.533563,-2.148021 -1.211704,3.139415 3.24957,0.275387 -2.533563,1.652324 4.075732,2.919105 -3.139415,0.05508 0.771084,4.075732 -2.864027,-2.478486 -1.046472,2.753873 -1.321859,-2.864028 -3.469879,2.203099 1.376936,-2.864028 -3.304647,0.22031 2.698795,-1.762479 z"
       id="path3759"
       inkscape:connector-curvature="0"
       transform="translate(0,1020.3622)" />
  </g>
</svg>
