<?xml version="1.0" encoding="UTF-8" standalone="no"?>
<!-- Created with Inkscape (http://www.inkscape.org/) -->

<svg
   xmlns:dc="http://purl.org/dc/elements/1.1/"
   xmlns:cc="http://creativecommons.org/ns#"
   xmlns:rdf="http://www.w3.org/1999/02/22-rdf-syntax-ns#"
   xmlns:svg="http://www.w3.org/2000/svg"
   xmlns="http://www.w3.org/2000/svg"
   xmlns:xlink="http://www.w3.org/1999/xlink"
   xmlns:sodipodi="http://sodipodi.sourceforge.net/DTD/sodipodi-0.dtd"
   xmlns:inkscape="http://www.inkscape.org/namespaces/inkscape"
   width="800"
   height="600"
   viewBox="0 0 800.00001 600.00001"
   id="svg4716"
   version="1.1"
   inkscape:version="0.91 r"
   sodipodi:docname="0-3.svg">
  <defs
     id="defs4718">
    <linearGradient
       inkscape:collect="always"
       id="linearGradient6602">
      <stop
         style="stop-color:#8fe6ff;stop-opacity:1"
         offset="0"
         id="stop6604" />
      <stop
         style="stop-color:#ddf7ff;stop-opacity:1"
         offset="1"
         id="stop6606" />
    </linearGradient>
    <linearGradient
       id="linearGradient6592"
       inkscape:collect="always">
      <stop
         id="stop6594"
         offset="0"
         style="stop-color:#ffffff;stop-opacity:1" />
      <stop
         id="stop6598"
         offset="1"
         style="stop-color:#9a9a9a;stop-opacity:1" />
    </linearGradient>
    <linearGradient
       id="linearGradient6584"
       inkscape:collect="always">
      <stop
         id="stop6586"
         offset="0"
         style="stop-color:#ffffff;stop-opacity:1" />
      <stop
         id="stop6590"
         offset="1"
         style="stop-color:#9a9a9a;stop-opacity:1" />
    </linearGradient>
    <radialGradient
       inkscape:collect="always"
       xlink:href="#linearGradient4340"
       id="radialGradient4338"
       cx="393.21048"
       cy="862.30438"
       fx="393.21048"
       fy="862.30438"
       r="24.83839"
       gradientTransform="matrix(-0.00127396,0.34884895,-1.4367831,-0.00524713,1640.0254,651.35254)"
       gradientUnits="userSpaceOnUse" />
    <linearGradient
       id="linearGradient4340"
       inkscape:collect="always">
      <stop
         id="stop4342"
         offset="0"
         style="stop-color:#ffffff;stop-opacity:1" />
      <stop
         style="stop-color:#d1b600;stop-opacity:1"
         offset="0.34436217"
         id="stop4344" />
      <stop
         id="stop4346"
         offset="1"
         style="stop-color:#887500;stop-opacity:1" />
    </linearGradient>
    <radialGradient
       inkscape:collect="always"
       xlink:href="#linearGradient4314"
       id="radialGradient4372"
       cx="410.55734"
       cy="888.19977"
       fx="410.55734"
       fy="888.19977"
       r="9.5459404"
       gradientTransform="matrix(-0.14901203,2.5348862,-1.3858956,-0.06744149,1696.7515,-183.21613)"
       gradientUnits="userSpaceOnUse" />
    <linearGradient
       inkscape:collect="always"
       id="linearGradient4314">
      <stop
         style="stop-color:#eed600;stop-opacity:1"
         offset="0"
         id="stop4316" />
      <stop
         style="stop-color:#c4af00;stop-opacity:1"
         offset="1"
         id="stop4318" />
    </linearGradient>
    <radialGradient
       inkscape:collect="always"
       xlink:href="#linearGradient4314"
       id="radialGradient4354"
       cx="390.62103"
       cy="889.05237"
       fx="390.62103"
       fy="889.05237"
       r="10.51561"
       gradientTransform="matrix(0.72921051,0.28931047,-0.47273895,1.865493,515.2741,-970.53963)"
       gradientUnits="userSpaceOnUse" />
    <radialGradient
       inkscape:collect="always"
       xlink:href="#linearGradient4413"
       id="radialGradient4284"
       cx="388.07819"
       cy="910.56311"
       fx="388.07819"
       fy="910.56311"
       r="14.429184"
       gradientTransform="matrix(-0.13378112,3.3093682,-1.2532044,-0.05066075,1579.4313,-427.54087)"
       gradientUnits="userSpaceOnUse" />
    <linearGradient
       inkscape:collect="always"
       id="linearGradient4413">
      <stop
         style="stop-color:#818181;stop-opacity:1"
         offset="0"
         id="stop4415" />
      <stop
         style="stop-color:#5b5b5b;stop-opacity:1"
         offset="1"
         id="stop4417" />
    </linearGradient>
    <linearGradient
       inkscape:collect="always"
       id="linearGradient4282">
      <stop
         style="stop-color:#ffffff;stop-opacity:1"
         offset="0"
         id="stop4284" />
      <stop
         id="stop4298"
         offset="0.26343566"
         style="stop-color:#d1b600;stop-opacity:1" />
      <stop
         style="stop-color:#887500;stop-opacity:1"
         offset="1"
         id="stop4286" />
    </linearGradient>
    <linearGradient
       gradientTransform="translate(-19.49661,-85.017789)"
       inkscape:collect="always"
       xlink:href="#linearGradient4299"
       id="linearGradient4305"
       x1="390.5"
       y1="780.36212"
       x2="393.26447"
       y2="809.36212"
       gradientUnits="userSpaceOnUse" />
    <linearGradient
       inkscape:collect="always"
       id="linearGradient4299">
      <stop
         style="stop-color:#ab9b08;stop-opacity:1;"
         offset="0"
         id="stop4301" />
      <stop
         id="stop4307"
         offset="0.58073455"
         style="stop-color:#cac068;stop-opacity:1" />
      <stop
         style="stop-color:#ab9b08;stop-opacity:1"
         offset="1"
         id="stop4303" />
    </linearGradient>
    <linearGradient
       gradientTransform="translate(10.55542,-97.392158)"
       inkscape:collect="always"
       xlink:href="#linearGradient4345"
       id="linearGradient4343"
       x1="374"
       y1="774.23712"
       x2="372.75952"
       y2="806.98712"
       gradientUnits="userSpaceOnUse" />
    <linearGradient
       id="linearGradient4345"
       inkscape:collect="always">
      <stop
         id="stop4347"
         offset="0"
         style="stop-color:#ffe500;stop-opacity:1;" />
      <stop
         style="stop-color:#fff27f;stop-opacity:1"
         offset="0.57130533"
         id="stop4349" />
      <stop
         id="stop4351"
         offset="1"
         style="stop-color:#ffe500;stop-opacity:1" />
    </linearGradient>
    <linearGradient
       gradientTransform="translate(-22.32504,-87.139109)"
       inkscape:collect="always"
       xlink:href="#linearGradient4309"
       id="linearGradient4315"
       x1="411.25"
       y1="774.11212"
       x2="413.33319"
       y2="814.11212"
       gradientUnits="userSpaceOnUse" />
    <linearGradient
       inkscape:collect="always"
       id="linearGradient4309">
      <stop
         style="stop-color:#d4bf00;stop-opacity:1;"
         offset="0"
         id="stop4311" />
      <stop
         id="stop4317"
         offset="0.67426705"
         style="stop-color:#ded26b;stop-opacity:1" />
      <stop
         style="stop-color:#d4bf00;stop-opacity:1"
         offset="1"
         id="stop4313" />
    </linearGradient>
    <linearGradient
       inkscape:collect="always"
       xlink:href="#linearGradient4373"
       id="linearGradient4379"
       x1="403.1662"
       y1="781.37256"
       x2="406.10483"
       y2="776.77637"
       gradientUnits="userSpaceOnUse"
       spreadMethod="repeat"
       gradientTransform="matrix(0.93269178,-0.36067442,0.36067442,0.93269178,-257.55004,121.24835)" />
    <linearGradient
       inkscape:collect="always"
       id="linearGradient4373">
      <stop
         style="stop-color:#222222;stop-opacity:1;"
         offset="0"
         id="stop4375" />
      <stop
         style="stop-color:#676767;stop-opacity:1"
         offset="1"
         id="stop4377" />
    </linearGradient>
    <linearGradient
       gradientTransform="translate(8.08055,-81.835808)"
       inkscape:collect="always"
       xlink:href="#linearGradient4299"
       id="linearGradient4325"
       x1="407.5"
       y1="763.36212"
       x2="410.19821"
       y2="808.11212"
       gradientUnits="userSpaceOnUse" />
    <linearGradient
       gradientTransform="translate(11.96964,-82.189362)"
       inkscape:collect="always"
       xlink:href="#linearGradient4353"
       id="linearGradient4359"
       x1="389.10837"
       y1="764.48712"
       x2="391.5"
       y2="798.73712"
       gradientUnits="userSpaceOnUse" />
    <linearGradient
       inkscape:collect="always"
       id="linearGradient4353">
      <stop
         style="stop-color:#ddc911;stop-opacity:1;"
         offset="0"
         id="stop4355" />
      <stop
         id="stop4361"
         offset="0.4810445"
         style="stop-color:#e8dc71;stop-opacity:1" />
      <stop
         style="stop-color:#ddc911;stop-opacity:1"
         offset="1"
         id="stop4357" />
    </linearGradient>
    <linearGradient
       gradientTransform="translate(-20.20372,-85.017789)"
       inkscape:collect="always"
       xlink:href="#linearGradient4327"
       id="linearGradient4333"
       x1="434.27271"
       y1="785.73712"
       x2="437"
       y2="813.48712"
       gradientUnits="userSpaceOnUse" />
    <linearGradient
       inkscape:collect="always"
       id="linearGradient4327">
      <stop
         style="stop-color:#ffe500;stop-opacity:1;"
         offset="0"
         id="stop4329" />
      <stop
         id="stop4335"
         offset="0.46117404"
         style="stop-color:#fff27f;stop-opacity:1" />
      <stop
         style="stop-color:#ffe500;stop-opacity:1"
         offset="1"
         id="stop4331" />
    </linearGradient>
    <linearGradient
       gradientTransform="matrix(0.90275806,0.43014867,-0.43014867,0.90275806,377.25487,-179.58801)"
       inkscape:collect="always"
       xlink:href="#linearGradient4353"
       id="linearGradient4369"
       x1="426"
       y1="772.61212"
       x2="425.75"
       y2="797.11212"
       gradientUnits="userSpaceOnUse" />
    <clipPath
       clipPathUnits="userSpaceOnUse"
       id="clipPath4289">
      <path
         inkscape:connector-curvature="0"
         id="path4291"
         d="m 415.77879,845.53341 c 0,0 -30.40559,9.19238 -27.22361,-29.34494 0,0 25.10229,3.53555 27.22361,29.34494 z"
         style="opacity:1;fill:#e1cf34;fill-opacity:1;stroke:none;stroke-width:4;stroke-linecap:round;stroke-linejoin:round;stroke-miterlimit:4;stroke-dasharray:none;stroke-opacity:1" />
    </clipPath>
    <clipPath
       clipPathUnits="userSpaceOnUse"
       id="clipPath4295">
      <path
         inkscape:connector-curvature="0"
         id="path4297"
         d="m 428.86026,844.11919 c 0,0 1.41422,-18.03122 5.3033,-30.75914 0,0 8.13173,32.88046 -5.3033,30.75914 z"
         style="opacity:1;fill:#e1cf34;fill-opacity:1;stroke:none;stroke-width:4;stroke-linecap:round;stroke-linejoin:round;stroke-miterlimit:4;stroke-dasharray:none;stroke-opacity:1" />
    </clipPath>
    <radialGradient
       inkscape:collect="always"
       xlink:href="#linearGradient4205"
       id="radialGradient4211"
       cx="415.34232"
       cy="869.53223"
       fx="415.34232"
       fy="869.53223"
       r="16.61701"
       gradientTransform="matrix(0.78465131,-0.02310187,0.01001853,0.3402781,67.291011,489.0846)"
       gradientUnits="userSpaceOnUse" />
    <linearGradient
       inkscape:collect="always"
       id="linearGradient4205">
      <stop
         style="stop-color:#ff0004;stop-opacity:1"
         offset="0"
         id="stop4207" />
      <stop
         style="stop-color:#800000;stop-opacity:1"
         offset="1"
         id="stop4209" />
    </linearGradient>
    <linearGradient
       id="linearGradient4431"
       inkscape:collect="always">
      <stop
         id="stop4433"
         offset="0"
         style="stop-color:#ffffff;stop-opacity:1" />
      <stop
         id="stop4435"
         offset="1"
         style="stop-color:#1e1e16;stop-opacity:1" />
    </linearGradient>
    <radialGradient
       inkscape:collect="always"
       xlink:href="#linearGradient4431"
       id="radialGradient4247"
       cx="396.19919"
       cy="828.42908"
       fx="396.19919"
       fy="828.42908"
       r="13.728503"
       gradientTransform="matrix(0.00355955,0.90077491,-0.74385957,0.00355651,994.56125,381.71898)"
       gradientUnits="userSpaceOnUse" />
    <radialGradient
       inkscape:collect="always"
       xlink:href="#linearGradient4191"
       id="radialGradient4197"
       cx="378.92752"
       cy="813.93665"
       fx="378.92752"
       fy="813.93665"
       r="50.103733"
       gradientTransform="matrix(0.19521869,1.3686026,-1.0825277,0.15138752,1199.0524,76.468091)"
       gradientUnits="userSpaceOnUse" />
    <linearGradient
       inkscape:collect="always"
       id="linearGradient4191">
      <stop
         style="stop-color:#ffffff;stop-opacity:1"
         offset="0"
         id="stop4193" />
      <stop
         id="stop4399"
         offset="0.73523462"
         style="stop-color:#d0d0d0;stop-opacity:1" />
      <stop
         style="stop-color:#9a9a9a;stop-opacity:1"
         offset="1"
         id="stop4195" />
    </linearGradient>
    <radialGradient
       inkscape:collect="always"
       xlink:href="#linearGradient4314"
       id="radialGradient4362"
       cx="425.98004"
       cy="888.04193"
       fx="425.98004"
       fy="888.04193"
       r="7.9941649"
       gradientTransform="matrix(0.88671485,-0.02190262,0.6488535,2.3150283,-530.53714,-1242.907)"
       gradientUnits="userSpaceOnUse" />
    <radialGradient
       inkscape:collect="always"
       xlink:href="#linearGradient4413"
       id="radialGradient4457"
       cx="415.66431"
       cy="904.89038"
       fx="415.66431"
       fy="904.89038"
       r="18.375547"
       gradientTransform="matrix(0.28692598,2.7813725,-0.79731381,0.07077054,1011.8309,-413.64705)"
       gradientUnits="userSpaceOnUse" />
    <linearGradient
       gradientTransform="translate(-0.40473,-85.017789)"
       inkscape:collect="always"
       xlink:href="#linearGradient6709"
       id="linearGradient6715"
       x1="330.5"
       y1="885.409"
       x2="449.5"
       y2="882.409"
       gradientUnits="userSpaceOnUse" />
    <linearGradient
       inkscape:collect="always"
       id="linearGradient6709">
      <stop
         style="stop-color:#ff0000;stop-opacity:1"
         offset="0"
         id="stop6711" />
      <stop
         id="stop6729"
         offset="0.25905046"
         style="stop-color:#ba0000;stop-opacity:1" />
      <stop
         id="stop6727"
         offset="0.3794539"
         style="stop-color:#ff0000;stop-opacity:1;" />
      <stop
         style="stop-color:#960000;stop-opacity:1"
         offset="0.58818179"
         id="stop6731" />
      <stop
         id="stop6733"
         offset="0.70768887"
         style="stop-color:#ff0000;stop-opacity:1;" />
      <stop
         style="stop-color:#890000;stop-opacity:1"
         offset="0.8399294"
         id="stop6735" />
      <stop
         style="stop-color:#ff0000;stop-opacity:1"
         offset="1"
         id="stop6713" />
    </linearGradient>
    <radialGradient
       inkscape:collect="always"
       xlink:href="#linearGradient4431"
       id="radialGradient5542"
       gradientUnits="userSpaceOnUse"
       gradientTransform="matrix(-0.00355955,0.90077491,0.74385957,0.00355651,-191.76117,381.71898)"
       cx="396.22733"
       cy="821.29974"
       fx="396.22733"
       fy="821.29974"
       r="13.728503" />
    <radialGradient
       inkscape:collect="always"
       xlink:href="#linearGradient4413"
       id="radialGradient5574"
       gradientUnits="userSpaceOnUse"
       gradientTransform="matrix(2.0519792,1.2369181,-0.56119366,1.0176593,228.08771,-539.55207)"
       cx="346.87415"
       cy="870.26953"
       fx="346.87415"
       fy="870.26953"
       r="18.393946" />
    <radialGradient
       inkscape:collect="always"
       xlink:href="#linearGradient4314"
       id="radialGradient5576"
       gradientUnits="userSpaceOnUse"
       gradientTransform="matrix(1.4439306,0.65567988,0.16042599,-0.55293035,-168.20632,983.2587)"
       cx="334.08658"
       cy="834.7475"
       fx="334.08658"
       fy="834.7475"
       r="23.199116" />
    <radialGradient
       inkscape:collect="always"
       xlink:href="#linearGradient4282"
       id="radialGradient5578"
       gradientUnits="userSpaceOnUse"
       gradientTransform="matrix(-0.34769129,1.440305,0.83386442,0.42720197,-129.69817,-130.93475)"
       cx="356.22971"
       cy="833.28064"
       fx="356.22971"
       fy="833.28064"
       r="17.956795" />
    <filter
       inkscape:collect="always"
       style="color-interpolation-filters:sRGB"
       id="filter5588"
       x="-0.13284079"
       width="1.2656816"
       y="-0.10942286"
       height="1.2188457">
      <feGaussianBlur
         inkscape:collect="always"
         stdDeviation="1.2849226"
         id="feGaussianBlur5590" />
    </filter>
    <clipPath
       clipPathUnits="userSpaceOnUse"
       id="clipPath5594">
      <path
         inkscape:connector-curvature="0"
         id="path5596"
         d="m 261.51441,764.16854 c 0,0 -25.70734,8.54889 -23.01703,-27.29075 0,0 21.22349,3.28806 23.01703,27.29075 z"
         style="opacity:1;fill:#000000;fill-opacity:1;stroke:none;stroke-width:4;stroke-linecap:round;stroke-linejoin:round;stroke-miterlimit:4;stroke-dasharray:none;stroke-opacity:1" />
    </clipPath>
    <filter
       inkscape:collect="always"
       style="color-interpolation-filters:sRGB"
       id="filter5612"
       x="-0.13284079"
       width="1.2656816"
       y="-0.10942286"
       height="1.2188457">
      <feGaussianBlur
         inkscape:collect="always"
         stdDeviation="1.2849226"
         id="feGaussianBlur5614" />
    </filter>
    <clipPath
       clipPathUnits="userSpaceOnUse"
       id="clipPath5618">
      <path
         style="opacity:1;fill:#000000;fill-opacity:1;stroke:none;stroke-width:4;stroke-linecap:round;stroke-linejoin:round;stroke-miterlimit:4;stroke-dasharray:none;stroke-opacity:1"
         d="m 275.28567,764.16854 c 0,0 25.70734,8.54889 23.01703,-27.29075 0,0 -21.22349,3.28806 -23.01703,27.29075 z"
         id="path5620"
         inkscape:connector-curvature="0" />
    </clipPath>
    <radialGradient
       inkscape:collect="always"
       xlink:href="#linearGradient4413"
       id="radialGradient5727"
       gradientUnits="userSpaceOnUse"
       gradientTransform="matrix(-2.0519792,1.2369181,0.56119366,1.0176593,572.35052,-537.67339)"
       cx="346.87415"
       cy="870.26953"
       fx="346.87415"
       fy="870.26953"
       r="18.393946" />
    <radialGradient
       inkscape:collect="always"
       xlink:href="#linearGradient4314"
       id="radialGradient5729"
       gradientUnits="userSpaceOnUse"
       gradientTransform="matrix(-1.4439306,0.65567988,-0.16042599,-0.55293035,968.6445,985.13738)"
       cx="334.08658"
       cy="834.7475"
       fx="334.08658"
       fy="834.7475"
       r="23.199116" />
    <radialGradient
       inkscape:collect="always"
       xlink:href="#linearGradient4282"
       id="radialGradient5731"
       gradientUnits="userSpaceOnUse"
       gradientTransform="matrix(0.34769129,1.440305,-0.83386442,0.42720197,930.1364,-129.05607)"
       cx="356.22971"
       cy="833.28064"
       fx="356.22971"
       fy="833.28064"
       r="17.956795" />
    <linearGradient
       inkscape:collect="always"
       xlink:href="#linearGradient6592"
       id="linearGradient5765"
       x1="406.25"
       y1="825.86218"
       x2="406.25"
       y2="861.36218"
       gradientUnits="userSpaceOnUse"
       spreadMethod="repeat" />
    <linearGradient
       inkscape:collect="always"
       xlink:href="#linearGradient6584"
       id="linearGradient6567"
       x1="395"
       y1="446.36218"
       x2="395"
       y2="479.36218"
       gradientUnits="userSpaceOnUse"
       spreadMethod="repeat"
       gradientTransform="translate(38,0)" />
    <linearGradient
       inkscape:collect="always"
       xlink:href="#linearGradient6602"
       id="linearGradient6608"
       x1="411"
       y1="847.36212"
       x2="408"
       y2="447.36212"
       gradientUnits="userSpaceOnUse" />
  </defs>
  <sodipodi:namedview
     id="base"
     pagecolor="#ffffff"
     bordercolor="#666666"
     borderopacity="1.0"
     inkscape:pageopacity="0.0"
     inkscape:pageshadow="2"
     inkscape:zoom="1"
     inkscape:cx="399.60229"
     inkscape:cy="272.19964"
     inkscape:document-units="px"
     inkscape:current-layer="layer1"
     showgrid="false"
     units="px"
     inkscape:snap-global="false" />
  <metadata
     id="metadata4721">
    <rdf:RDF>
      <cc:Work
         rdf:about="">
        <dc:format>image/svg+xml</dc:format>
        <dc:type
           rdf:resource="http://purl.org/dc/dcmitype/StillImage" />
        <dc:title />
      </cc:Work>
    </rdf:RDF>
  </metadata>
  <g
     inkscape:label="Layer 1"
     inkscape:groupmode="layer"
     id="layer1"
     transform="translate(0,-452.36216)">
    <rect
       style="opacity:1;fill:url(#linearGradient6608);fill-opacity:1;stroke:none;stroke-width:1.5;stroke-linecap:round;stroke-linejoin:round;stroke-miterlimit:4;stroke-dasharray:none;stroke-opacity:1"
       id="rect6600"
       width="814"
       height="408"
       x="-5"
       y="447.36215" />
    <path
       style="opacity:1;fill:url(#linearGradient6567);fill-opacity:1;stroke:none;stroke-width:1.5;stroke-linecap:round;stroke-linejoin:round;stroke-miterlimit:4;stroke-dasharray:none;stroke-opacity:1"
       d="m 781,431.36216 -68,0.21094 0,36.78906 -50,0 0,-36.63477 -65,0.20118 0,36.43359 -50,0 0,-36.27734 -65,0.20117 0,36.07617 -50,0 0,-35.92187 -65,0.20117 0,35.7207 -50,0 0,-35.56445 -65,0.20117 0,35.36328 -50,0 0,-35.20703 -67,0.20703 0,48 70,48 0,334 508,0 0,-337 67,-45 0,-50 z"
       id="path6559"
       inkscape:connector-curvature="0" />
    <path
       style="opacity:1;fill:url(#linearGradient6715);fill-opacity:1;stroke:none;stroke-width:4;stroke-linecap:round;stroke-linejoin:round;stroke-miterlimit:4;stroke-dasharray:none;stroke-opacity:1"
       d="m 370.59527,745.84435 c 0,0 -17,23 -16.5,54.5 0.5,31.5 -12,58 -12,58 0,0 8,-7 17,-2.5 9,4.5 19.5,1.5 19.5,1.5 0,0 15,9 20.5,0 5.5,-9 13,-3 13,-3 0,0 17.5,10 16.5,-0.5 -1,-10.5 9.5,1 9.5,1 0,0 6.01041,9.5 21.51041,0 0,0 -12.68198,-16.70711 -12.01041,-37 0.70417,-21.27802 -6,-70 -6,-70 z"
       id="path6707"
       inkscape:connector-curvature="0"
       sodipodi:nodetypes="cscscscsccscc" />
    <path
       style="opacity:1;fill:url(#radialGradient4457);fill-opacity:1;stroke:none;stroke-width:1;stroke-linecap:round;stroke-linejoin:round;stroke-miterlimit:4;stroke-dasharray:none;stroke-opacity:1"
       d="m 400.0503,790.30146 c 0,0 0.13809,20.51633 9.86774,32.53409 0,0 -0.93541,5.23367 1.75974,10.48367 2.69516,5.25 3.68867,18.02513 3.68867,18.02513 0,0 -2.42564,0.75 -2.15613,7 0.26952,6.25 -2.29088,6.375 -2.29088,6.375 0,0 6.87265,0.875 7.41168,-4.125 0,0 2.24022,-1.45376 3.18715,2.72697 1.42652,6.2981 7.3367,8.59099 7.3367,8.59099 0,0 -1.15699,-1.64645 -0.61796,-5.89645 0.53903,-4.25 -1.88101,-5.60355 -1.88101,-5.60355 0,0 4.08128,7.99031 9.20208,7.74031 0,0 -2.30046,-3.20711 -2.03094,-6.20711 0.26952,-3 -2.76079,-3.05833 -2.76079,-3.05833 0,0 3.63473,2.14412 7.67746,1.39412 0,0 -4.31444,-2.28949 -4.63361,-4.92678 -0.33016,-2.72812 -4.82444,-2.13155 -4.82444,-2.13155 0,0 -2.61542,0.4446 -4.09378,-3.20184 0,0 -1.51797,-13.31701 -0.0244,-19.18983 1.48162,-5.82568 0.15516,-11.98982 0.15516,-11.98982 0,0 -2.37941,-19.99713 -7.23068,-31.99713 z"
       id="path4449"
       inkscape:connector-curvature="0"
       sodipodi:nodetypes="ccscsccscsccsccsccsccc" />
    <path
       style="opacity:1;fill:url(#radialGradient4362);fill-opacity:1;stroke:none;stroke-width:1;stroke-linecap:round;stroke-linejoin:round;stroke-miterlimit:4;stroke-dasharray:none;stroke-opacity:1"
       d="m 424.10838,785.16543 5.78334,21.24963 1.56372,16.98843 -14.98848,-14.94604 -5.22588,-20.27692 z"
       id="path4445"
       inkscape:connector-curvature="0"
       sodipodi:nodetypes="cccccc" />
    <circle
       style="opacity:1;fill:url(#radialGradient4197);fill-opacity:1;stroke:none;stroke-width:4;stroke-linecap:round;stroke-linejoin:round;stroke-miterlimit:4;stroke-dasharray:none;stroke-opacity:1"
       id="path4189"
       cx="399.84839"
       cy="747.25311"
       r="40" />
    <path
       style="opacity:1;fill:url(#radialGradient4247);fill-opacity:1;stroke:none;stroke-width:4;stroke-linecap:round;stroke-linejoin:round;stroke-miterlimit:4;stroke-dasharray:none;stroke-opacity:1"
       d="m 394.51441,759.16854 c 0,0 -25.70734,8.54889 -23.01703,-27.29075 0,0 21.22349,3.28806 23.01703,27.29075 z"
       id="path4199"
       inkscape:connector-curvature="0" />
    <path
       style="opacity:1;fill:url(#radialGradient4211);fill-opacity:1;stroke:none;stroke-width:4;stroke-linecap:round;stroke-linejoin:round;stroke-miterlimit:4;stroke-dasharray:none;stroke-opacity:1"
       d="m 420.11669,765.31891 c 0,0 -20.50609,2.65166 -37.83021,-0.17677 0,0 3.53554,9.19239 7.77818,11.66726 0,0 18.9151,-1.76777 24.2184,-0.70711 0,0 4.77297,-7.6014 5.83363,-10.78338 z"
       id="path4203"
       inkscape:connector-curvature="0"
       sodipodi:nodetypes="ccccc" />
    <path
       style="opacity:1;fill:url(#linearGradient4359);fill-opacity:1;stroke:none;stroke-width:1;stroke-linecap:round;stroke-linejoin:round;stroke-miterlimit:4;stroke-dasharray:none;stroke-opacity:1"
       d="m 397.46964,718.67278 c 0,0 -10.25,-29.5 1.5,-41.75 0,0 -0.25,6.75 1,9.25 0,0 2.5,-9.25 13,-16 0,0 -7.5,31 3,49.25 z"
       id="path4281"
       inkscape:connector-curvature="0"
       sodipodi:nodetypes="cccccc" />
    <path
       style="opacity:1;fill:url(#linearGradient4325);fill-opacity:1;stroke:none;stroke-width:1;stroke-linecap:round;stroke-linejoin:round;stroke-miterlimit:4;stroke-dasharray:none;stroke-opacity:1"
       d="m 405.33055,703.27633 c 0,0 2.87132,-18 12.62132,-25.75 0,0 -2.87132,8.5 -0.62132,12 0,0 5.51256,-7.63389 13.83363,-11.14125 0,0 0.41637,13.89125 -3.33363,42.14125 z"
       id="path4283"
       inkscape:connector-curvature="0"
       sodipodi:nodetypes="cccccc" />
    <path
       style="opacity:1;fill:url(#linearGradient4379);fill-opacity:1;stroke:none;stroke-width:1;stroke-linecap:round;stroke-linejoin:round;stroke-miterlimit:4;stroke-dasharray:none;stroke-opacity:1"
       d="m 404.16058,722.92076 c 0,0 -17.63224,-33.11973 13.32978,-52.86602 l 1.22502,2.47473 c 0,0 -24.44582,10.25739 -10.17735,49.23461 z"
       id="path4371"
       inkscape:connector-curvature="0"
       sodipodi:nodetypes="ccccc" />
    <path
       style="opacity:1;fill:url(#linearGradient4343);fill-opacity:1;stroke:none;stroke-width:1;stroke-linecap:round;stroke-linejoin:round;stroke-miterlimit:4;stroke-dasharray:none;stroke-opacity:1"
       d="m 396.30542,710.21998 c 0,0 -6.5,-5.5 -21.25,6.75 0,0 0.0555,-16.04074 -11.60876,-32.32843 0,0 14.22488,1.23744 19.85876,10.07843 0,0 -4.23744,-16.89124 -9.23744,-23.64124 0,0 25.23744,-0.10876 22.23744,39.14124 z"
       id="path4279"
       inkscape:connector-curvature="0"
       sodipodi:nodetypes="cccccc" />
    <path
       style="opacity:1;fill:url(#linearGradient4305);fill-opacity:1;stroke:none;stroke-width:1;stroke-linecap:round;stroke-linejoin:round;stroke-miterlimit:4;stroke-dasharray:none;stroke-opacity:1"
       d="m 382.35694,725.03629 c 0,0 -7.89905,-8.85616 -15.5,-1.02773 0,0 -0.35355,-14.91421 -9.85355,-32.41421 0,0 13,2.5 20,9.75 7,7.25 5.35355,23.69194 5.35355,23.69194 z"
       id="path4277"
       inkscape:connector-curvature="0"
       sodipodi:nodetypes="cccsc" />
    <path
       inkscape:connector-curvature="0"
       id="path5586"
       d="m 261.51441,764.16854 c 0,0 -25.70734,8.54889 -23.01703,-27.29075 0,0 21.22349,3.28806 23.01703,27.29075 z"
       style="opacity:1;fill:none;fill-opacity:1;stroke:#000000;stroke-width:1.5;stroke-linecap:round;stroke-linejoin:round;stroke-miterlimit:4;stroke-dasharray:none;stroke-opacity:1;filter:url(#filter5588)"
       clip-path="url(#clipPath5594)"
       transform="translate(133,-5)" />
    <path
       style="opacity:1;fill:#232323;fill-opacity:1;stroke:none;stroke-width:1;stroke-linecap:round;stroke-linejoin:round;stroke-miterlimit:4;stroke-dasharray:none;stroke-opacity:1"
       d="m 398.64381,754.60816 c 0,0 -21.15413,-17.93508 -27.36801,-28.02226 0,0 0.88892,-4.68989 4.2091,-7.40773 0,0 12.11918,23.66074 23.15891,35.42999 z"
       id="path4403"
       inkscape:connector-curvature="0" />
    <path
       style="opacity:1;fill:url(#radialGradient4284);fill-opacity:1;stroke:none;stroke-width:4;stroke-linecap:round;stroke-linejoin:round;stroke-miterlimit:4;stroke-dasharray:none;stroke-opacity:1"
       d="m 406.0631,791.45377 c 0,0 -2.87771,21.73671 -8.62515,33.39719 0.87198,4.97832 0.30569,8.39929 -1.71149,12.56362 -2.26052,5.96093 -2.83977,15.83073 -2.83977,15.83073 0,0 2.96246,0.68836 2.8806,5.94367 -0.0819,5.25531 2.72428,6.43478 2.72428,6.43478 0,0 -5.5063,1.90626 -6.2045,-2.89739 0,0 -1.65183,-1.60746 -2.18536,2.86779 -0.53353,4.47524 -5.49497,7.66846 -5.49497,7.66846 0,0 -0.66705,-2.98044 -1.43092,-5.10049 -1.08006,-2.99764 3.3885,-6.04819 3.3885,-6.04819 0,0 -4.81599,6.83466 -7.65518,8.15809 0,0 -0.3872,-2.94447 -0.80717,-5.06103 -0.43485,-2.19156 5.08767,-5.18923 5.08767,-5.18923 0,0 -4.34557,3.35741 -9.55652,6.53485 0,0 -1.27698,-2.77067 -0.6903,-4.9284 1.3057,-4.80216 6.59257,-5.2193 6.59257,-5.2193 0,0 3.16611,-0.55126 3.9018,-4.26223 0.7357,-3.71096 -1.38748,-21.6307 -1.38748,-21.6307 0,0 -2.42893,-5.1636 -0.72679,-8.31245 0,0 -3.42787,-25.01624 1.42905,-34.47855 z"
       id="path4276"
       inkscape:connector-curvature="0"
       sodipodi:nodetypes="ccccsccscsccsccscscccc" />
    <path
       style="opacity:1;fill:url(#radialGradient4354);fill-opacity:1;stroke:none;stroke-width:1;stroke-linecap:round;stroke-linejoin:round;stroke-miterlimit:4;stroke-dasharray:none;stroke-opacity:1"
       d="m 391.38811,790.50388 -3.59751,18.11865 -14.8335,18.74307 -0.35947,-22.30222 4.56214,-18.65171 z"
       id="path4447"
       inkscape:connector-curvature="0"
       sodipodi:nodetypes="cccccc" />
    <path
       style="opacity:1;fill:url(#radialGradient4372);fill-opacity:1;stroke:none;stroke-width:4;stroke-linecap:round;stroke-linejoin:round;stroke-miterlimit:4;stroke-dasharray:none;stroke-opacity:1"
       d="m 392.31271,788.97676 -0.91801,19.57689 11.44477,23.57062 9.23133,-23.91885 -0.96071,-20.06906 z"
       id="path4364"
       inkscape:connector-curvature="0"
       sodipodi:nodetypes="cccccc" />
    <path
       style="opacity:1;fill:url(#radialGradient4338);fill-opacity:1;stroke:none;stroke-width:1;stroke-linecap:round;stroke-linejoin:round;stroke-miterlimit:4;stroke-dasharray:none;stroke-opacity:1"
       d="m 379.59527,781.84435 c 0,0 22.5,6.25 42.25,-1 0,0 3,3.25 3.75,5.75 0,0 -23.07323,12.23224 -49.67678,1.42677 0,0 1.14645,-3.60355 3.67678,-6.17677 z"
       id="path4429"
       inkscape:connector-curvature="0"
       sodipodi:nodetypes="ccccc" />
    <path
       inkscape:connector-curvature="0"
       id="path5538"
       d="m 408.28567,759.16854 c 0,0 25.70734,8.54889 23.01703,-27.29075 0,0 -21.22349,3.28806 -23.01703,27.29075 z"
       style="opacity:1;fill:url(#radialGradient5542);fill-opacity:1;stroke:none;stroke-width:4;stroke-linecap:round;stroke-linejoin:round;stroke-miterlimit:4;stroke-dasharray:none;stroke-opacity:1" />
    <path
       style="opacity:1;fill:none;fill-opacity:1;stroke:#000000;stroke-width:1.5;stroke-linecap:round;stroke-linejoin:round;stroke-miterlimit:4;stroke-dasharray:none;stroke-opacity:1;filter:url(#filter5612)"
       d="m 275.28567,764.16854 c 0,0 25.70734,8.54889 23.01703,-27.29075 0,0 -21.22349,3.28806 -23.01703,27.29075 z"
       id="path5598"
       inkscape:connector-curvature="0"
       clip-path="url(#clipPath5618)"
       transform="translate(133,-5)" />
    <path
       inkscape:connector-curvature="0"
       id="path5540"
       d="m 404.15627,754.60816 c 0,0 21.15413,-17.93508 27.36801,-28.02226 0,0 -0.88892,-4.68989 -4.2091,-7.40773 0,0 -12.11918,23.66074 -23.15891,35.42999 z"
       style="opacity:1;fill:#232323;fill-opacity:1;stroke:none;stroke-width:1;stroke-linecap:round;stroke-linejoin:round;stroke-miterlimit:4;stroke-dasharray:none;stroke-opacity:1" />
    <path
       sodipodi:nodetypes="ccccccccsccccc"
       inkscape:connector-curvature="0"
       id="path5562"
       d="m 463.36502,755.63838 c 0,0 5.20188,9.22828 7.10382,19.08159 0,0 5.3178,-4.65385 19.07477,-7.83775 0,0 1.63404,-0.35095 1.77581,-2.18641 0,0 0.16012,-5.72192 2.41403,-8.86527 0,0 4.06292,3.98057 1.45263,7.25584 0,0 9.9004,-4.23997 18.12807,-0.29401 0,0 -3.23362,8.0584 -15.89021,11.79756 0,0 -1.39015,-0.38792 -3.2258,0.98253 -11.55676,8.62795 -21.52033,12.56144 -21.52033,12.56144 0,0 -4.99086,3.85479 -7.33786,-0.27566 0,0 -25.86467,-16.87146 -29.16298,-31.20033 0,0 11.33341,-18.298 27.18809,-1.01959 z"
       style="opacity:1;fill:url(#radialGradient5574);fill-opacity:1;stroke:none;stroke-width:1;stroke-linecap:round;stroke-linejoin:round;stroke-miterlimit:4;stroke-dasharray:none;stroke-opacity:1" />
    <path
       sodipodi:nodetypes="cccc"
       inkscape:connector-curvature="0"
       id="path5564"
       d="m 441.3025,741.00978 c 0,0 9.71149,-22.21501 45.20042,27.47508 0,0 -29.02092,-5.54919 -46.98776,-13.79462 z"
       style="opacity:1;fill:url(#radialGradient5576);fill-opacity:1;stroke:none;stroke-width:1;stroke-linecap:round;stroke-linejoin:round;stroke-miterlimit:4;stroke-dasharray:none;stroke-opacity:1" />
    <path
       sodipodi:nodetypes="cscccc"
       inkscape:connector-curvature="0"
       id="path5566"
       d="m 440.63441,771.11596 c 0,0 -10.04104,-14.88203 -5.18312,-28.114 4.85791,-13.23198 17.74289,-18.41446 17.74289,-18.41446 0,0 -4.90838,28.61053 -12.79762,34.65795 0,0 4.76936,10.1409 7.65244,17.74942 0,0 -3.0435,-1.20467 -7.41459,-5.87891 z"
       style="opacity:1;fill:url(#radialGradient5578);fill-opacity:1;stroke:none;stroke-width:1;stroke-linecap:round;stroke-linejoin:round;stroke-miterlimit:4;stroke-dasharray:none;stroke-opacity:1" />
    <path
       style="opacity:1;fill:url(#linearGradient4315);fill-opacity:1;stroke:none;stroke-width:1;stroke-linecap:round;stroke-linejoin:round;stroke-miterlimit:4;stroke-dasharray:none;stroke-opacity:1"
       d="m 400.13207,730.9427 c 0,0 -13.41162,-11.63129 -17.7903,-5.64125 0,0 -3.66681,-21.82842 -13.66681,-34.57842 0,0 16.25,0.5 22.5,11.25 0,0 0.25,-11 -2.75,-21 0,0 13.25,13.75 12,33.5 z"
       id="path4275"
       inkscape:connector-curvature="0"
       sodipodi:nodetypes="ccccccc" />
    <path
       style="opacity:1;fill:url(#linearGradient4369);fill-opacity:1;stroke:none;stroke-width:1;stroke-linecap:round;stroke-linejoin:round;stroke-miterlimit:4;stroke-dasharray:none;stroke-opacity:1"
       d="m 412.70024,711.96748 c 0,0 9.4088,-16.84041 25.61737,-17.14824 0,0 -10.66602,17.5319 -10.42049,24.57211 -5.71099,-0.2556 -11.06843,0.72624 -15.71876,6.48105 z"
       id="path4285"
       inkscape:connector-curvature="0"
       sodipodi:nodetypes="ccccc" />
    <path
       style="opacity:1;fill:url(#linearGradient4333);fill-opacity:1;stroke:none;stroke-width:1;stroke-linecap:round;stroke-linejoin:round;stroke-miterlimit:4;stroke-dasharray:none;stroke-opacity:1"
       d="m 400.48562,730.9427 c 0,0 6.94455,-9.39125 11.76777,-4.54765 0,0 2.04289,-21.5507 12.79289,-32.3007 0,0 -12.5,-2.5 -18.25,13.25 0,0 -1.25,-14.75 2.75,-19.5 0,0 -13.56066,6.84835 -9.06066,43.09835 z"
       id="path4273"
       inkscape:connector-curvature="0"
       sodipodi:nodetypes="cccccc" />
    <path
       style="opacity:1;fill:url(#radialGradient5727);fill-opacity:1;stroke:none;stroke-width:1;stroke-linecap:round;stroke-linejoin:round;stroke-miterlimit:4;stroke-dasharray:none;stroke-opacity:1"
       d="m 337.07321,757.51706 c 0,0 -5.20188,9.22828 -7.10382,19.08159 0,0 -5.3178,-4.65385 -19.07477,-7.83775 0,0 -1.63404,-0.35095 -1.77581,-2.18641 0,0 -0.16012,-5.72192 -2.41403,-8.86527 0,0 -4.06292,3.98057 -1.45263,7.25584 0,0 -9.9004,-4.23997 -18.12807,-0.29401 0,0 3.23362,8.0584 15.89021,11.79756 0,0 1.39015,-0.38792 3.2258,0.98253 11.55676,8.62795 21.52033,12.56144 21.52033,12.56144 0,0 4.99086,3.85479 7.33786,-0.27566 0,0 25.86467,-16.87146 29.16298,-31.20033 0,0 -11.33341,-18.298 -27.18809,-1.01959 z"
       id="path5721"
       inkscape:connector-curvature="0"
       sodipodi:nodetypes="ccccccccsccccc" />
    <path
       style="opacity:1;fill:url(#radialGradient5729);fill-opacity:1;stroke:none;stroke-width:1;stroke-linecap:round;stroke-linejoin:round;stroke-miterlimit:4;stroke-dasharray:none;stroke-opacity:1"
       d="m 359.13573,742.88846 c 0,0 -9.71149,-22.21501 -45.20042,27.47508 0,0 29.02092,-5.54919 46.98776,-13.79462 z"
       id="path5723"
       inkscape:connector-curvature="0"
       sodipodi:nodetypes="cccc" />
    <path
       style="opacity:1;fill:url(#radialGradient5731);fill-opacity:1;stroke:none;stroke-width:1;stroke-linecap:round;stroke-linejoin:round;stroke-miterlimit:4;stroke-dasharray:none;stroke-opacity:1"
       d="m 359.80382,772.99464 c 0,0 10.04104,-14.88203 5.18312,-28.114 -4.85791,-13.23198 -17.74289,-18.41446 -17.74289,-18.41446 0,0 4.90838,28.61053 12.79762,34.65795 0,0 -4.76936,10.1409 -7.65244,17.74942 0,0 3.0435,-1.20467 7.41459,-5.87891 z"
       id="path5725"
       inkscape:connector-curvature="0"
       sodipodi:nodetypes="cscccc" />
    <path
       style="opacity:1;fill:url(#linearGradient5765);fill-opacity:1;stroke:none;stroke-width:1.5;stroke-linecap:round;stroke-linejoin:round;stroke-miterlimit:4;stroke-dasharray:none;stroke-opacity:1"
       d="m -10,826.36216 0,231.00004 823,0 0,-231.00004 -26.5,0 0,22 -48.5,0 0,-22 -51.5,0 0,22 -48.5,0 0,-22 -51.5,0 0,22 -48.5,0 0,-22 -51.5,0 0,22 -48.5,0 0,-22 -51.5,0 0,22 -48.5,0 0,-22 -51.5,0 0,22 -48.5,0 0,-22 -51.5,0 0,22 -48.5,0 0,-22 -51.5,0 0,22 -48.5,0 0,-22 -48,0 z"
       id="rect5733"
       inkscape:connector-curvature="0" />
  </g>
</svg>
