<?xml version="1.0" encoding="UTF-8" standalone="no"?>
<!-- Created with Inkscape (http://www.inkscape.org/) -->

<svg
   xmlns:dc="http://purl.org/dc/elements/1.1/"
   xmlns:cc="http://creativecommons.org/ns#"
   xmlns:rdf="http://www.w3.org/1999/02/22-rdf-syntax-ns#"
   xmlns:svg="http://www.w3.org/2000/svg"
   xmlns="http://www.w3.org/2000/svg"
   xmlns:xlink="http://www.w3.org/1999/xlink"
   xmlns:sodipodi="http://sodipodi.sourceforge.net/DTD/sodipodi-0.dtd"
   xmlns:inkscape="http://www.inkscape.org/namespaces/inkscape"
   width="240"
   height="80"
   viewBox="0 0 240 80.000001"
   id="svg5839"
   version="1.1"
   inkscape:version="0.91 r"
   sodipodi:docname="fire.svg"
   inkscape:export-filename="/home/victor/aleva/super-bombinhas/data/img/movie/fire.png"
   inkscape:export-xdpi="90"
   inkscape:export-ydpi="90">
  <defs
     id="defs5841">
    <linearGradient
       y2="13.093581"
       x2="36.07531"
       y1="22.657537"
       x1="7.0641565"
       gradientTransform="matrix(-0.84108527,0,0,0.77816925,72.7326,962.3971)"
       gradientUnits="userSpaceOnUse"
       id="linearGradient4168"
       xlink:href="#linearGradient3849"
       inkscape:collect="always" />
    <linearGradient
       id="linearGradient3849">
      <stop
         style="stop-color:#c07f00;stop-opacity:1;"
         offset="0"
         id="stop3851" />
      <stop
         id="stop3853"
         offset="0.18376374"
         style="stop-color:#e0a800;stop-opacity:1;" />
      <stop
         id="stop3855"
         offset="0.28280905"
         style="stop-color:#e1ae21;stop-opacity:1;" />
      <stop
         id="stop3857"
         offset="0.51575935"
         style="stop-color:#d3a000;stop-opacity:1;" />
      <stop
         id="stop3859"
         offset="0.62774056"
         style="stop-color:#efc442;stop-opacity:1;" />
      <stop
         id="stop3861"
         offset="0.78778708"
         style="stop-color:#e7a400;stop-opacity:1;" />
      <stop
         id="stop3863"
         offset="0.84318602"
         style="stop-color:#ffd000;stop-opacity:1;" />
      <stop
         style="stop-color:#d8a500;stop-opacity:1;"
         offset="1"
         id="stop3865" />
    </linearGradient>
    <clipPath
       id="clipPath4238"
       clipPathUnits="userSpaceOnUse">
      <path
         style="fill:#000000;fill-opacity:1;stroke:none"
         d="m 68.16357,973.1704 c 0,0 -0.6322,8.2372 -2.6099,11.9064 0,0 -11.906514,-4.2929 -16.6341,1.62 0,0 -0.787931,-3.483 -2.10115,-2.592 0,0 -1.258752,0.4834 -5.197602,-8.657 0,0 3.03997,2.5927 6.335725,2.8251 0,0 1.734575,-5.62563 3.56138,-12.61463 0,0 2.799783,8.11316 6.243986,12.85763 0,0 5.565141,1.7695 10.401661,-5.3455 z"
         id="path4240"
         inkscape:connector-curvature="0"
         sodipodi:nodetypes="ccccccccc" />
    </clipPath>
    <filter
       height="1.193736"
       y="-0.096867956"
       width="1.3152915"
       x="-0.15764576"
       id="filter3893"
       inkscape:collect="always"
       style="color-interpolation-filters:sRGB">
      <feGaussianBlur
         id="feGaussianBlur3895"
         stdDeviation="0.87386222"
         inkscape:collect="always" />
    </filter>
    <filter
       height="1.3812689"
       y="-0.19063444"
       width="1.6477331"
       x="-0.32386655"
       id="filter3940"
       inkscape:collect="always"
       style="color-interpolation-filters:sRGB">
      <feGaussianBlur
         id="feGaussianBlur3942"
         stdDeviation="0.62918133"
         inkscape:collect="always" />
    </filter>
    <filter
       height="1.2859517"
       y="-0.14297584"
       width="1.4857998"
       x="-0.24289992"
       id="filter3928"
       inkscape:collect="always"
       style="color-interpolation-filters:sRGB">
      <feGaussianBlur
         id="feGaussianBlur3930"
         stdDeviation="0.471886"
         inkscape:collect="always" />
    </filter>
    <filter
       height="1.5010169"
       y="-0.25050843"
       width="1.851166"
       x="-0.425583"
       id="filter3948"
       inkscape:collect="always"
       style="color-interpolation-filters:sRGB">
      <feGaussianBlur
         id="feGaussianBlur3950"
         stdDeviation="0.82678769"
         inkscape:collect="always" />
    </filter>
    <linearGradient
       y2="13.093581"
       x2="36.07531"
       y1="22.657537"
       x1="7.0641565"
       gradientTransform="matrix(-0.84108527,0,0,0.77816925,16.732601,1018.3971)"
       gradientUnits="userSpaceOnUse"
       id="linearGradient4112"
       xlink:href="#linearGradient3849"
       inkscape:collect="always" />
    <clipPath
       id="clipPath3845"
       clipPathUnits="userSpaceOnUse">
      <path
         sodipodi:nodetypes="ccccccccc"
         inkscape:connector-curvature="0"
         id="path3847"
         d="m 52.163569,1009.1704 c 0,0 -0.632202,8.2372 -2.609897,11.9064 0,0 -11.906516,-4.2929 -16.634102,1.62 0,0 -0.787931,-3.483 -2.10115,-2.592 0,0 -1.258752,0.4834 -5.197602,-8.657 0,0 3.03997,2.5927 6.335725,2.8251 0,0 -0.24812,-5.509 1.578685,-12.498 0,0 1.86675,7.8799 8.226681,12.741 0,0 5.565142,1.7695 10.40166,-5.3455 z"
         style="fill:#000000;fill-opacity:1;stroke:none" />
    </clipPath>
    <linearGradient
       y2="13.093581"
       x2="36.07531"
       y1="22.657537"
       x1="7.0641565"
       gradientTransform="matrix(-0.84108527,0,0,0.77816925,108.7326,990.3971)"
       gradientUnits="userSpaceOnUse"
       id="linearGradient4502"
       xlink:href="#linearGradient3849"
       inkscape:collect="always" />
    <clipPath
       id="clipPath4020"
       clipPathUnits="userSpaceOnUse">
      <path
         style="fill:#9b9b9b;fill-opacity:1;stroke:none"
         d="m 20.297398,1065.1887 c 0,0 0.416357,2.7513 -0.936803,4.0461 0,0 4.579926,-1.2948 5.516729,2.8323 0,0 -4.267658,0.5665 -11.137547,-0.081 0,0 1.457249,-4.2079 3.747212,-7.4449 0,0 1.665428,-0.2427 2.810409,0.6475 z"
         id="path4022"
         inkscape:connector-curvature="0"
         sodipodi:nodetypes="cccccc" />
    </clipPath>
    <clipPath
       id="clipPath3994"
       clipPathUnits="userSpaceOnUse">
      <path
         style="fill:#9b9b9b;fill-opacity:1;stroke:none"
         d="m 32.282528,1038.6575 c 0,0 2.661219,-6.023 6.037174,-2.6887 3.260819,3.2205 -1.457248,4.1227 -1.457248,4.1227 0,0 -0.312268,1.2548 -3.018588,1.9718 0,0 2.289963,0.7171 2.706319,2.2407 0,0 1.249072,-1.2547 2.914499,0.6275 1.665428,1.8821 -0.416357,2.3303 -0.416357,2.3303 0,0 -1.977695,1.6132 -3.95539,-0.986 0,0 -4.892193,-2.1511 -4.579926,-3.8539 0,0 0.104089,-2.42 1.769517,-3.7644 z"
         id="path3996"
         inkscape:connector-curvature="0"
         sodipodi:nodetypes="cscccscccc" />
    </clipPath>
    <linearGradient
       id="linearGradient3755">
      <stop
         id="stop3757"
         offset="0"
         style="stop-color:#ffffff;stop-opacity:1;" />
      <stop
         style="stop-color:#dddddd;stop-opacity:1;"
         offset="0.80126768"
         id="stop3763" />
      <stop
         id="stop3759"
         offset="1"
         style="stop-color:#bbbbbb;stop-opacity:1;" />
    </linearGradient>
    <linearGradient
       id="linearGradient3767">
      <stop
         id="stop3769"
         offset="0"
         style="stop-color:#e29500;stop-opacity:1;" />
      <stop
         style="stop-color:#ffbf00;stop-opacity:1;"
         offset="0.18376374"
         id="stop3785" />
      <stop
         style="stop-color:#fff1cb;stop-opacity:1;"
         offset="0.28280905"
         id="stop3783" />
      <stop
         style="stop-color:#ffcc00;stop-opacity:1;"
         offset="0.51575935"
         id="stop3781" />
      <stop
         style="stop-color:#ffe79d;stop-opacity:1;"
         offset="0.62774056"
         id="stop3779" />
      <stop
         style="stop-color:#e7a400;stop-opacity:1;"
         offset="0.78778708"
         id="stop3777" />
      <stop
         style="stop-color:#ffd000;stop-opacity:1;"
         offset="0.84318602"
         id="stop3775" />
      <stop
         id="stop3771"
         offset="1"
         style="stop-color:#d8a500;stop-opacity:1;" />
    </linearGradient>
    <clipPath
       id="clipPath3829"
       clipPathUnits="userSpaceOnUse">
      <path
         style="fill:#000000;fill-opacity:1;stroke:none"
         d="m 25.30855,1011.1429 c 0,0 0.624535,8.6394 3.226766,14.3643 0,0 14.156134,-5.5167 19.776952,2.0818 0,0 0.936803,-4.4759 2.498141,-3.3309 0,0 1.24907,-5.9331 1.35316,-15.4052 0,0 -0.520446,5.2045 -2.70632,7.9108 0,0 -1.561339,-9.8885 -4.475836,-18.73607 0,0 -1.353161,9.99257 -7.182156,19.04837 0,0 -6.245354,0 -12.490707,-5.9331 z"
         id="path3831"
         inkscape:connector-curvature="0"
         sodipodi:nodetypes="ccccccccc" />
    </clipPath>
    <linearGradient
       id="linearGradient4158">
      <stop
         style="stop-color:#ffffff;stop-opacity:1;"
         offset="0"
         id="stop4160" />
      <stop
         id="stop4162"
         offset="0.38475347"
         style="stop-color:#ffffff;stop-opacity:1;" />
      <stop
         style="stop-color:#ff0014;stop-opacity:1;"
         offset="1"
         id="stop4164" />
    </linearGradient>
    <linearGradient
       id="linearGradient3908">
      <stop
         id="stop3910"
         offset="0"
         style="stop-color:#ffffff;stop-opacity:1;" />
      <stop
         style="stop-color:#ffffff;stop-opacity:1;"
         offset="0.5"
         id="stop3916" />
      <stop
         id="stop3912"
         offset="1"
         style="stop-color:#000000;stop-opacity:1;" />
    </linearGradient>
    <clipPath
       id="clipPath6293"
       clipPathUnits="userSpaceOnUse">
      <path
         style="fill:#9b9b9b;fill-opacity:1;stroke:none"
         d="m 20.297398,1065.1887 c 0,0 0.416357,2.7513 -0.936803,4.0461 0,0 4.579926,-1.2948 5.516729,2.8323 0,0 -4.267658,0.5665 -11.137547,-0.081 0,0 1.457249,-4.2079 3.747212,-7.4449 0,0 1.665428,-0.2427 2.810409,0.6475 z"
         id="path6295"
         inkscape:connector-curvature="0"
         sodipodi:nodetypes="cccccc" />
    </clipPath>
    <clipPath
       id="clipPath6301"
       clipPathUnits="userSpaceOnUse">
      <path
         style="fill:#9b9b9b;fill-opacity:1;stroke:none"
         d="m 32.282528,1038.6575 c 0,0 2.661219,-6.023 6.037174,-2.6887 3.260819,3.2205 -1.457248,4.1227 -1.457248,4.1227 0,0 -0.312268,1.2548 -3.018588,1.9718 0,0 2.289963,0.7171 2.706319,2.2407 0,0 1.249072,-1.2547 2.914499,0.6275 1.665428,1.8821 -0.416357,2.3303 -0.416357,2.3303 0,0 -1.977695,1.6132 -3.95539,-0.986 0,0 -4.892193,-2.1511 -4.579926,-3.8539 0,0 0.104089,-2.42 1.769517,-3.7644 z"
         id="path6303"
         inkscape:connector-curvature="0"
         sodipodi:nodetypes="cscccscccc" />
    </clipPath>
    <clipPath
       id="clipPath4020-6"
       clipPathUnits="userSpaceOnUse">
      <path
         style="fill:#9b9b9b;fill-opacity:1;stroke:none"
         d="m 20.297398,1065.1887 c 0,0 0.416357,2.7513 -0.936803,4.0461 0,0 4.579926,-1.2948 5.516729,2.8323 0,0 -4.267658,0.5665 -11.137547,-0.081 0,0 1.457249,-4.2079 3.747212,-7.4449 0,0 1.665428,-0.2427 2.810409,0.6475 z"
         id="path4022-2"
         inkscape:connector-curvature="0"
         sodipodi:nodetypes="cccccc" />
    </clipPath>
    <clipPath
       id="clipPath3994-0"
       clipPathUnits="userSpaceOnUse">
      <path
         style="fill:#9b9b9b;fill-opacity:1;stroke:none"
         d="m 32.282528,1038.6575 c 0,0 2.661219,-6.023 6.037174,-2.6887 3.260819,3.2205 -1.457248,4.1227 -1.457248,4.1227 0,0 -0.312268,1.2548 -3.018588,1.9718 0,0 2.289963,0.7171 2.706319,2.2407 0,0 1.249072,-1.2547 2.914499,0.6275 1.665428,1.8821 -0.416357,2.3303 -0.416357,2.3303 0,0 -1.977695,1.6132 -3.95539,-0.986 0,0 -4.892193,-2.1511 -4.579926,-3.8539 0,0 0.104089,-2.42 1.769517,-3.7644 z"
         id="path3996-2"
         inkscape:connector-curvature="0"
         sodipodi:nodetypes="cscccscccc" />
    </clipPath>
    <clipPath
       id="clipPath4564"
       clipPathUnits="userSpaceOnUse">
      <path
         sodipodi:nodetypes="ccccccccc"
         inkscape:connector-curvature="0"
         id="path4566"
         d="m 98.747477,842.99898 c 0,0 -0.814391,8.7833 1.787843,14.5082 0,0 14.67827,-4.89966 20.53642,2.03432 0,0 0.69947,-4.28597 1.73867,-3.28339 0,0 0.96128,-6.07698 1.06537,-15.54909 0,0 -0.66434,5.63614 -1.55517,8.05467 0,0 0.74094,-8.73734 -3.46859,-18.73606 0,0 -2.93598,10.99981 -7.75773,19.04833 0,0 -6.10146,-0.1439 -12.346813,-6.07698 z"
         style="fill:#000000;fill-opacity:1;stroke:none" />
    </clipPath>
    <clipPath
       id="clipPath6937"
       clipPathUnits="userSpaceOnUse">
      <path
         style="fill:#9b9b9b;fill-opacity:1;stroke:none"
         d="m 20.297398,1065.1887 c 0,0 0.416357,2.7513 -0.936803,4.0461 0,0 4.579926,-1.2948 5.516729,2.8323 0,0 -4.267658,0.5665 -11.137547,-0.081 0,0 1.457249,-4.2079 3.747212,-7.4449 0,0 1.665428,-0.2427 2.810409,0.6475 z"
         id="path6939"
         inkscape:connector-curvature="0"
         sodipodi:nodetypes="cccccc" />
    </clipPath>
    <clipPath
       id="clipPath6945"
       clipPathUnits="userSpaceOnUse">
      <path
         style="fill:#9b9b9b;fill-opacity:1;stroke:none"
         d="m 32.282528,1038.6575 c 0,0 2.661219,-6.023 6.037174,-2.6887 3.260819,3.2205 -1.457248,4.1227 -1.457248,4.1227 0,0 -0.312268,1.2548 -3.018588,1.9718 0,0 2.289963,0.7171 2.706319,2.2407 0,0 1.249072,-1.2547 2.914499,0.6275 1.665428,1.8821 -0.416357,2.3303 -0.416357,2.3303 0,0 -1.977695,1.6132 -3.95539,-0.986 0,0 -4.892193,-2.1511 -4.579926,-3.8539 0,0 0.104089,-2.42 1.769517,-3.7644 z"
         id="path6947"
         inkscape:connector-curvature="0"
         sodipodi:nodetypes="cscccscccc" />
    </clipPath>
    <clipPath
       id="clipPath6953"
       clipPathUnits="userSpaceOnUse">
      <path
         style="fill:#9b9b9b;fill-opacity:1;stroke:none"
         d="m 20.297398,1065.1887 c 0,0 0.416357,2.7513 -0.936803,4.0461 0,0 4.579926,-1.2948 5.516729,2.8323 0,0 -4.267658,0.5665 -11.137547,-0.081 0,0 1.457249,-4.2079 3.747212,-7.4449 0,0 1.665428,-0.2427 2.810409,0.6475 z"
         id="path6955"
         inkscape:connector-curvature="0"
         sodipodi:nodetypes="cccccc" />
    </clipPath>
    <clipPath
       id="clipPath6961"
       clipPathUnits="userSpaceOnUse">
      <path
         style="fill:#9b9b9b;fill-opacity:1;stroke:none"
         d="m 32.282528,1038.6575 c 0,0 2.661219,-6.023 6.037174,-2.6887 3.260819,3.2205 -1.457248,4.1227 -1.457248,4.1227 0,0 -0.312268,1.2548 -3.018588,1.9718 0,0 2.289963,0.7171 2.706319,2.2407 0,0 1.249072,-1.2547 2.914499,0.6275 1.665428,1.8821 -0.416357,2.3303 -0.416357,2.3303 0,0 -1.977695,1.6132 -3.95539,-0.986 0,0 -4.892193,-2.1511 -4.579926,-3.8539 0,0 0.104089,-2.42 1.769517,-3.7644 z"
         id="path6963"
         inkscape:connector-curvature="0"
         sodipodi:nodetypes="cscccscccc" />
    </clipPath>
    <clipPath
       id="clipPath4452"
       clipPathUnits="userSpaceOnUse">
      <path
         sodipodi:nodetypes="ccccccccc"
         inkscape:connector-curvature="0"
         id="path4454"
         d="m 40.301301,863.14287 c 0,0 1.631784,8.63941 4.234015,14.36431 0,0 13.725503,-5.51673 19.346321,2.08179 0,0 1.367434,-4.47584 2.928772,-3.33086 0,0 1.968533,-5.7892 2.072623,-15.26131 0,0 -1.239909,5.06057 -3.425783,7.76689 0,0 -2.135513,-9.60139 -5.911271,-19.02315 0,0 -1.640248,10.27965 -5.746721,19.33542 0,0 -7.252603,-10e-6 -13.497956,-5.93309 z"
         style="fill:#000000;fill-opacity:1;stroke:none" />
    </clipPath>
    <linearGradient
       id="linearGradient4102">
      <stop
         style="stop-color:#ffffff;stop-opacity:1;"
         offset="0"
         id="stop4104" />
      <stop
         id="stop4106"
         offset="0.30872402"
         style="stop-color:#ffffff;stop-opacity:1;" />
      <stop
         style="stop-color:#ff0014;stop-opacity:1;"
         offset="1"
         id="stop4108" />
    </linearGradient>
    <clipPath
       id="clipPath7026"
       clipPathUnits="userSpaceOnUse">
      <path
         style="fill:#9b9b9b;fill-opacity:1;stroke:none"
         d="m 20.297398,1065.1887 c 0,0 0.416357,2.7513 -0.936803,4.0461 0,0 4.579926,-1.2948 5.516729,2.8323 0,0 -4.267658,0.5665 -11.137547,-0.081 0,0 1.457249,-4.2079 3.747212,-7.4449 0,0 1.665428,-0.2427 2.810409,0.6475 z"
         id="path7028"
         inkscape:connector-curvature="0"
         sodipodi:nodetypes="cccccc" />
    </clipPath>
    <clipPath
       id="clipPath7034"
       clipPathUnits="userSpaceOnUse">
      <path
         style="fill:#9b9b9b;fill-opacity:1;stroke:none"
         d="m 32.282528,1038.6575 c 0,0 2.661219,-6.023 6.037174,-2.6887 3.260819,3.2205 -1.457248,4.1227 -1.457248,4.1227 0,0 -0.312268,1.2548 -3.018588,1.9718 0,0 2.289963,0.7171 2.706319,2.2407 0,0 1.249072,-1.2547 2.914499,0.6275 1.665428,1.8821 -0.416357,2.3303 -0.416357,2.3303 0,0 -1.977695,1.6132 -3.95539,-0.986 0,0 -4.892193,-2.1511 -4.579926,-3.8539 0,0 0.104089,-2.42 1.769517,-3.7644 z"
         id="path7036"
         inkscape:connector-curvature="0"
         sodipodi:nodetypes="cscccscccc" />
    </clipPath>
    <clipPath
       id="clipPath7933"
       clipPathUnits="userSpaceOnUse">
      <path
         sodipodi:nodetypes="ccccccccc"
         inkscape:connector-curvature="0"
         id="path7935"
         d="m 143.81775,896.81014 c 0,0 -0.30599,8.5634 -2.28369,12.2326 0,0 -11.90651,-4.2929 -16.6341,1.62 0,0 -0.78793,-3.483 -2.10115,-2.592 0,0 -0.22577,0.048 -4.16462,-9.0919 0,0 2.38755,1.8859 4.65033,2.5532 0,0 -0.65761,-6.16929 1.16921,-13.15829 0,0 3.88713,10.07039 8.41869,14.16249 0,0 6.10882,1.3889 10.94533,-5.7261 z"
         style="fill:#000000;fill-opacity:1;stroke:none" />
    </clipPath>
    <linearGradient
       y2="13.093581"
       x2="36.07531"
       y1="22.657537"
       x1="7.0641565"
       gradientTransform="matrix(-0.84108527,0,0,0.77816925,148.71299,886.36304)"
       gradientUnits="userSpaceOnUse"
       id="linearGradient7941"
       xlink:href="#linearGradient3849"
       inkscape:collect="always" />
  </defs>
  <sodipodi:namedview
     id="base"
     pagecolor="#ffffff"
     bordercolor="#666666"
     borderopacity="1.0"
     inkscape:pageopacity="0.0"
     inkscape:pageshadow="2"
     inkscape:zoom="1"
     inkscape:cx="277.68653"
     inkscape:cy="120.26225"
     inkscape:document-units="px"
     inkscape:current-layer="layer1"
     showgrid="false"
     units="px" />
  <metadata
     id="metadata5844">
    <rdf:RDF>
      <cc:Work
         rdf:about="">
        <dc:format>image/svg+xml</dc:format>
        <dc:type
           rdf:resource="http://purl.org/dc/dcmitype/StillImage" />
        <dc:title></dc:title>
      </cc:Work>
    </rdf:RDF>
  </metadata>
  <g
     inkscape:label="Layer 1"
     inkscape:groupmode="layer"
     id="layer1"
     transform="translate(0,-972.36216)">
    <g
       transform="matrix(-3.4355814,0,0,3.2952028,16.95146,-2128.3458)"
       id="g8324">
      <path
         style="fill:#ff8700;fill-opacity:1;stroke:none;filter:url(#filter3893)"
         d="m 47.048327,1039.247 c 0,0 -8.118959,-2.7064 -2.914498,-10.0967 0,0 -0.728625,3.3309 1.977695,4.3718 0,0 2.914498,-3.9554 0.936803,-8.3272 -1.977695,-4.3717 0.624535,-7.5985 0.624535,-7.5985 0,0 -1.457249,3.9554 1.873606,7.2862 3.330855,3.3309 2.185874,6.974 2.185874,6.974 0,0 2.081784,-2.1858 1.457249,-7.5985 0,0 4.267658,6.974 1.665428,11.0335 -2.602231,4.0594 -7.806692,3.9554 -7.806692,3.9554 z"
         id="path8326"
         inkscape:connector-curvature="0"
         transform="matrix(1,0,0.47523098,1,-543.92007,-75.464684)" />
      <path
         transform="matrix(-0.89887448,0,0.40441522,0.85098666,5.7584204,941.94782)"
         inkscape:connector-curvature="0"
         id="path8328"
         d="m 16.654275,23.211896 c 0,0 -8.118959,-2.70632 -2.914498,-10.096654 0,0 -0.728625,3.330855 1.977695,4.371747 0,0 2.914498,-3.95539 0.936803,-8.3271377 -1.977695,-4.3717472 0.624535,-7.598513 0.624535,-7.598513 0,0 -1.457249,3.9553903 1.873606,7.2862453 3.330855,3.3308554 2.185874,6.9739774 2.185874,6.9739774 0,0 2.081784,-2.185873 1.457249,-7.5985127 0,0 4.267658,6.9739777 1.665428,11.0334577 -2.602231,4.059479 -7.806692,3.95539 -7.806692,3.95539 z"
         style="opacity:0.8;fill:#ffec00;fill-opacity:1;stroke:none;filter:url(#filter3893)" />
      <path
         style="opacity:0.6;fill:#ff6e00;fill-opacity:1;stroke:none;filter:url(#filter3893)"
         d="m 16.654275,23.211896 c 0,0 -8.118959,-2.70632 -2.914498,-10.096654 0,0 -0.728625,3.330855 1.977695,4.371747 0,0 2.914498,-3.95539 0.936803,-8.3271377 -1.977695,-4.3717472 0.624535,-7.598513 0.624535,-7.598513 0,0 -1.457249,3.9553903 1.873606,7.2862453 3.330855,3.3308554 2.185874,6.9739774 2.185874,6.9739774 0,0 2.081784,-2.185873 1.457249,-7.5985127 0,0 4.267658,6.9739777 1.665428,11.0334577 -2.602231,4.059479 -7.806692,3.95539 -7.806692,3.95539 z"
         id="path8330"
         inkscape:connector-curvature="0"
         transform="matrix(0.47652674,0,0.30871826,0.64961728,-17.887772,944.96252)" />
      <path
         style="opacity:0.5;fill:#ff6e00;fill-opacity:1;stroke:none;filter:url(#filter3940)"
         d="m 17.174721,999.06852 c 0,0 -0.832714,3.33088 1.873606,4.57988 2.706319,1.2491 0.936803,3.3309 0.936803,3.3309 0,0 3.434944,-2.6022 -0.728625,-5.4126 -4.163569,-2.81045 -2.081784,-2.49818 -2.081784,-2.49818 z"
         id="path8332"
         inkscape:connector-curvature="0"
         transform="matrix(0.90702409,0.42107873,-0.42107873,0.90702409,404.3056,30.576422)" />
      <path
         inkscape:connector-curvature="0"
         id="path8334"
         d="m 3.3308552,1002.3994 c 0,0 -0.832714,3.3308 1.873606,4.5799 2.706319,1.2491 0.936803,3.3309 0.936803,3.3309 0,0 3.434944,-2.6023 -0.728625,-5.4127 -4.163569,-2.8104 -2.081784,-2.4981 -2.081784,-2.4981 z"
         style="opacity:0.5;fill:#ffbf00;fill-opacity:1;stroke:none;filter:url(#filter3928)"
         transform="matrix(-0.02644174,0.99965036,0.99965036,0.02644174,-1019.8307,920.51357)" />
      <path
         inkscape:connector-curvature="0"
         id="path8336"
         d="m 13.843866,996.67447 c 0,0 -0.832714,3.33083 1.873606,4.57993 2.706319,1.2491 0.936803,3.3308 0.936803,3.3308 0,0 3.434944,-2.6022 -0.728625,-5.41259 -4.163569,-2.81041 -2.081784,-2.49814 -2.081784,-2.49814 z"
         style="opacity:0.5;fill:#ff2f00;fill-opacity:1;stroke:none;filter:url(#filter3948)"
         transform="matrix(0.66944239,0,0,0.90803129,-25.02597,37.223181)" />
    </g>
    <g
       transform="matrix(-3.4355814,0,0,3.2952028,289.14732,-2228.0437)"
       id="g8338">
      <path
         transform="matrix(1,0,0.65716907,1,-675.7083,-44.742469)"
         inkscape:connector-curvature="0"
         id="path8340"
         d="m 47.048327,1039.247 c 0,0 -8.118959,-2.7064 -2.914498,-10.0967 0,0 -0.728625,3.3309 1.977695,4.3718 0,0 2.914498,-3.9554 0.936803,-8.3272 -1.977695,-4.3717 0.624535,-7.5985 0.624535,-7.5985 0,0 -1.457249,3.9554 1.873606,7.2862 3.330855,3.3309 2.185874,6.974 2.185874,6.974 0,0 2.081784,-2.1858 1.457249,-7.5985 0,0 4.267658,6.974 1.665428,11.0335 -2.602231,4.0594 -7.806692,3.9554 -7.806692,3.9554 z"
         style="fill:#ff8700;fill-opacity:1;stroke:none;filter:url(#filter3893)" />
      <path
         style="opacity:0.8;fill:#ffec00;fill-opacity:1;stroke:none;filter:url(#filter3893)"
         d="m 16.654275,23.211896 c 0,0 -8.118959,-2.70632 -2.914498,-10.096654 0,0 -0.728625,3.330855 1.977695,4.371747 0,0 2.914498,-3.95539 0.936803,-8.3271377 -1.977695,-4.3717472 0.624535,-7.598513 0.624535,-7.598513 0,0 -1.457249,3.9553903 1.873606,7.2862453 3.330855,3.3308554 2.185874,6.9739774 2.185874,6.9739774 0,0 2.081784,-2.185873 1.457249,-7.5985127 0,0 4.267658,6.9739777 1.665428,11.0334577 -2.602231,4.059479 -7.806692,3.95539 -7.806692,3.95539 z"
         id="path8342"
         inkscape:connector-curvature="0"
         transform="matrix(-0.89887448,0,0.13150765,0.85098666,65.80318,972.67006)" />
      <path
         transform="matrix(0.47652674,0,0.10038894,0.64961728,39.84674,975.68476)"
         inkscape:connector-curvature="0"
         id="path8344"
         d="m 16.654275,23.211896 c 0,0 -8.118959,-2.70632 -2.914498,-10.096654 0,0 -0.728625,3.330855 1.977695,4.371747 0,0 2.914498,-3.95539 0.936803,-8.3271377 -1.977695,-4.3717472 0.624535,-7.598513 0.624535,-7.598513 0,0 -1.457249,3.9553903 1.873606,7.2862453 3.330855,3.3308554 2.185874,6.9739774 2.185874,6.9739774 0,0 2.081784,-2.185873 1.457249,-7.5985127 0,0 4.267658,6.9739777 1.665428,11.0334577 -2.602231,4.059479 -7.806692,3.95539 -7.806692,3.95539 z"
         style="opacity:0.6;fill:#ff6e00;fill-opacity:1;stroke:none;filter:url(#filter3893)" />
      <path
         transform="matrix(0.90702409,0.42107873,-0.42107873,0.90702409,460.34409,62.25545)"
         inkscape:connector-curvature="0"
         id="path8346"
         d="m 17.174721,999.06852 c 0,0 -0.832714,3.33088 1.873606,4.57988 2.706319,1.2491 0.936803,3.3309 0.936803,3.3309 0,0 3.434944,-2.6022 -0.728625,-5.4126 -4.163569,-2.81045 -2.081784,-2.49818 -2.081784,-2.49818 z"
         style="opacity:0.5;fill:#ff6e00;fill-opacity:1;stroke:none;filter:url(#filter3940)" />
      <path
         transform="matrix(0.33941491,0.94063677,0.94063677,-0.33941491,-907.208,1319.0191)"
         style="opacity:0.5;fill:#ffbf00;fill-opacity:1;stroke:none;filter:url(#filter3928)"
         d="m 3.3308552,1002.3994 c 0,0 -0.832714,3.3308 1.873606,4.5799 2.706319,1.2491 0.936803,3.3309 0.936803,3.3309 0,0 3.434944,-2.6023 -0.728625,-5.4127 -4.163569,-2.8104 -2.081784,-2.4981 -2.081784,-2.4981 z"
         id="path8348"
         inkscape:connector-curvature="0" />
      <path
         transform="matrix(0.66944239,0,0,0.90803129,35.79657,66.74939)"
         style="opacity:0.5;fill:#ff2f00;fill-opacity:1;stroke:none;filter:url(#filter3948)"
         d="m 13.843866,996.67447 c 0,0 -0.832714,3.33083 1.873606,4.57993 2.706319,1.2491 0.936803,3.3308 0.936803,3.3308 0,0 3.434944,-2.6022 -0.728625,-5.41259 -4.163569,-2.81041 -2.081784,-2.49814 -2.081784,-2.49814 z"
         id="path8350"
         inkscape:connector-curvature="0" />
    </g>
    <g
       transform="matrix(-3.4355814,0,0,3.2952028,674.78203,-2363.6397)"
       id="g8352">
      <path
         transform="matrix(1,0,0.21958723,1,-134.58817,-4.1336001)"
         inkscape:connector-curvature="0"
         id="path8354"
         d="m 47.048327,1039.247 c 0,0 -8.118959,-2.7064 -2.914498,-10.0967 0,0 -0.728625,3.3309 1.977695,4.3718 0,0 2.914498,-3.9554 0.936803,-8.3272 -1.977695,-4.3717 0.624535,-7.5985 0.624535,-7.5985 0,0 -1.457249,3.9554 1.873606,7.2862 3.330855,3.3309 2.185874,6.974 2.185874,6.974 0,0 2.081784,-2.1858 1.457249,-7.5985 0,0 4.267658,6.974 1.665428,11.0335 -2.602231,4.0594 -7.806692,3.9554 -7.806692,3.9554 z"
         style="fill:#ff8700;fill-opacity:1;stroke:none;filter:url(#filter3893)" />
      <path
         style="opacity:0.8;fill:#ffec00;fill-opacity:1;stroke:none;filter:url(#filter3893)"
         d="m 16.654275,23.211896 c 0,0 -8.118959,-2.70632 -2.914498,-10.096654 0,0 -0.728625,3.330855 1.977695,4.371747 0,0 2.914498,-3.95539 0.936803,-8.3271377 -1.977695,-4.3717472 0.624535,-7.598513 0.624535,-7.598513 0,0 -1.457249,3.9553903 1.873606,7.2862453 3.330855,3.3308554 2.185874,6.9739774 2.185874,6.9739774 0,0 2.081784,-2.185873 1.457249,-7.5985127 0,0 4.267658,6.9739777 1.665428,11.0334577 -2.602231,4.059479 -7.806692,3.95539 -7.806692,3.95539 z"
         id="path8356"
         inkscape:connector-curvature="0"
         transform="matrix(-0.89887448,0,0.66005937,0.85098666,144.98331,1012.7421)" />
      <path
         transform="matrix(0.47652674,0,0.13488024,0.64961728,126.52955,1016.4288)"
         inkscape:connector-curvature="0"
         id="path8358"
         d="m 16.654275,23.211896 c 0,0 -8.118959,-2.70632 -2.914498,-10.096654 0,0 -0.728625,3.330855 1.977695,4.371747 0,0 2.914498,-3.95539 0.936803,-8.3271377 -1.977695,-4.3717472 0.624535,-7.598513 0.624535,-7.598513 0,0 -1.457249,3.9553903 1.873606,7.2862453 3.330855,3.3308554 2.185874,6.9739774 2.185874,6.9739774 0,0 2.081784,-2.185873 1.457249,-7.5985127 0,0 4.267658,6.9739777 1.665428,11.0334577 -2.602231,4.059479 -7.806692,3.95539 -7.806692,3.95539 z"
         style="opacity:0.6;fill:#ff6e00;fill-opacity:1;stroke:none;filter:url(#filter3893)" />
      <path
         transform="matrix(0.90702409,0.42107873,-0.42107873,0.90702409,535.4039,108.89953)"
         inkscape:connector-curvature="0"
         id="path8360"
         d="m 17.174721,999.06852 c 0,0 -0.832714,3.33088 1.873606,4.57988 2.706319,1.2491 0.936803,3.3309 0.936803,3.3309 0,0 3.434944,-2.6022 -0.728625,-5.4126 -4.163569,-2.81045 -2.081784,-2.49818 -2.081784,-2.49818 z"
         style="opacity:0.5;fill:#ff6e00;fill-opacity:1;stroke:none;filter:url(#filter3940)" />
      <path
         transform="matrix(-0.02644174,0.99965036,0.99965036,0.02644174,-875.42256,986.06461)"
         style="opacity:0.5;fill:#ffbf00;fill-opacity:1;stroke:none;filter:url(#filter3928)"
         d="m 3.3308552,1002.3994 c 0,0 -0.832714,3.3308 1.873606,4.5799 2.706319,1.2491 0.936803,3.3309 0.936803,3.3309 0,0 3.434944,-2.6023 -0.728625,-5.4127 -4.163569,-2.8104 -2.081784,-2.4981 -2.081784,-2.4981 z"
         id="path8362"
         inkscape:connector-curvature="0" />
      <path
         transform="matrix(0.66944239,0,0,0.90803129,129.06205,109.22747)"
         style="opacity:0.5;fill:#ff2f00;fill-opacity:1;stroke:none;filter:url(#filter3948)"
         d="m 13.843866,996.67447 c 0,0 -0.832714,3.33083 1.873606,4.57993 2.706319,1.2491 0.936803,3.3308 0.936803,3.3308 0,0 3.434944,-2.6022 -0.728625,-5.41259 -4.163569,-2.81041 -2.081784,-2.49814 -2.081784,-2.49814 z"
         id="path8364"
         inkscape:connector-curvature="0" />
    </g>
  </g>
</svg>
