<?xml version="1.0" encoding="UTF-8" standalone="no"?>
<!-- Created with Inkscape (http://www.inkscape.org/) -->

<svg
   xmlns:dc="http://purl.org/dc/elements/1.1/"
   xmlns:cc="http://creativecommons.org/ns#"
   xmlns:rdf="http://www.w3.org/1999/02/22-rdf-syntax-ns#"
   xmlns:svg="http://www.w3.org/2000/svg"
   xmlns="http://www.w3.org/2000/svg"
   xmlns:xlink="http://www.w3.org/1999/xlink"
   xmlns:sodipodi="http://sodipodi.sourceforge.net/DTD/sodipodi-0.dtd"
   xmlns:inkscape="http://www.inkscape.org/namespaces/inkscape"
   width="24"
   height="51"
   viewBox="0 0 24 51"
   id="svg4461"
   version="1.1"
   inkscape:version="0.91 r"
   sodipodi:docname="flag.svg"
   inkscape:export-filename="/home/victor/aleva/super-bombinhas/data/img/movie/flag.png"
   inkscape:export-xdpi="90"
   inkscape:export-ydpi="90">
  <defs
     id="defs4463">
    <linearGradient
       inkscape:collect="always"
       id="linearGradient5151">
      <stop
         style="stop-color:#000000;stop-opacity:0.13609467"
         offset="0"
         id="stop5153" />
      <stop
         id="stop5155"
         offset="0.23277868"
         style="stop-color:#000000;stop-opacity:0" />
      <stop
         style="stop-color:#000000;stop-opacity:0"
         offset="0.3214469"
         id="stop5165" />
      <stop
         style="stop-color:#000000;stop-opacity:0.0887574"
         offset="0.4820472"
         id="stop5157" />
      <stop
         id="stop5159"
         offset="0.63805228"
         style="stop-color:#000000;stop-opacity:0" />
      <stop
         style="stop-color:#000000;stop-opacity:0.07692308"
         offset="0.83635467"
         id="stop5161" />
      <stop
         style="stop-color:#000000;stop-opacity:0"
         offset="1"
         id="stop5163" />
    </linearGradient>
    <linearGradient
       id="linearGradient5089"
       inkscape:collect="always">
      <stop
         id="stop5091"
         offset="0"
         style="stop-color:#000000;stop-opacity:0.13609467" />
      <stop
         style="stop-color:#000000;stop-opacity:0"
         offset="0.31825012"
         id="stop5093" />
      <stop
         id="stop5095"
         offset="0.49319565"
         style="stop-color:#000000;stop-opacity:0.14201184" />
      <stop
         style="stop-color:#000000;stop-opacity:0"
         offset="0.63805228"
         id="stop5097" />
      <stop
         id="stop5099"
         offset="0.83635467"
         style="stop-color:#000000;stop-opacity:0.09467456" />
      <stop
         id="stop5101"
         offset="1"
         style="stop-color:#000000;stop-opacity:0" />
    </linearGradient>
    <clipPath
       clipPathUnits="userSpaceOnUse"
       id="clipPath4401">
      <ellipse
         style="opacity:1;fill:#f9f3f3;fill-opacity:1;stroke:none;stroke-width:2;stroke-linecap:round;stroke-linejoin:round;stroke-miterlimit:4;stroke-dasharray:none;stroke-opacity:1"
         id="ellipse4403"
         cx="-61.852402"
         cy="811.95728"
         rx="3.619312"
         ry="4.4922404"
         transform="matrix(0.58289225,-0.81254946,0.77618521,0.63050497,0,0)" />
    </clipPath>
    <linearGradient
       inkscape:collect="always"
       xlink:href="#linearGradient4408"
       id="linearGradient4414"
       x1="586.95142"
       y1="563.60516"
       x2="610.70288"
       y2="563.60516"
       gradientUnits="userSpaceOnUse" />
    <linearGradient
       inkscape:collect="always"
       id="linearGradient4408">
      <stop
         style="stop-color:#000000;stop-opacity:0.1183432"
         offset="0"
         id="stop4410" />
      <stop
         id="stop4416"
         offset="0.27316007"
         style="stop-color:#000000;stop-opacity:0" />
      <stop
         style="stop-color:#000000;stop-opacity:0.19526628"
         offset="0.46667209"
         id="stop4418" />
      <stop
         id="stop4420"
         offset="0.606224"
         style="stop-color:#000000;stop-opacity:0" />
      <stop
         style="stop-color:#000000;stop-opacity:0.09467456"
         offset="0.8071788"
         id="stop4422" />
      <stop
         style="stop-color:#000000;stop-opacity:0"
         offset="1"
         id="stop4412" />
    </linearGradient>
    <linearGradient
       inkscape:collect="always"
       xlink:href="#linearGradient5089"
       id="linearGradient5087"
       x1="203.55284"
       y1="494.79623"
       x2="227.11681"
       y2="494.79623"
       gradientUnits="userSpaceOnUse" />
    <linearGradient
       inkscape:collect="always"
       xlink:href="#linearGradient5151"
       id="linearGradient5149"
       x1="179.55284"
       y1="511.57004"
       x2="203.33777"
       y2="511.57004"
       gradientUnits="userSpaceOnUse" />
  </defs>
  <sodipodi:namedview
     id="base"
     pagecolor="#ffffff"
     bordercolor="#666666"
     borderopacity="1.0"
     inkscape:pageopacity="0"
     inkscape:pageshadow="2"
     inkscape:zoom="1"
     inkscape:cx="5.3201288"
     inkscape:cy="23.738908"
     inkscape:document-units="px"
     inkscape:current-layer="layer1"
     showgrid="false"
     units="px"
     fit-margin-top="0"
     fit-margin-left="0"
     fit-margin-right="0"
     fit-margin-bottom="0" />
  <metadata
     id="metadata4466">
    <rdf:RDF>
      <cc:Work
         rdf:about="">
        <dc:format>image/svg+xml</dc:format>
        <dc:type
           rdf:resource="http://purl.org/dc/dcmitype/StillImage" />
        <dc:title></dc:title>
      </cc:Work>
    </rdf:RDF>
  </metadata>
  <g
     inkscape:label="Layer 1"
     inkscape:groupmode="layer"
     id="layer1"
     transform="translate(-179.55284,-469.71976)">
    <g
       transform="translate(-407.3986,-85.243076)"
       id="g4424">
      <path
         inkscape:connector-curvature="0"
         id="path4380"
         d="m 586.95144,568.96023 0,-13.32815 c 0,0 7.00583,-1.53787 10.4233,1.53786 3.41748,3.07573 6.32233,1.02524 6.32233,1.02524 0,0 3.41748,-2.05048 6.49321,-1.19611 0,0 -3.41748,1.53786 -4.95534,4.44271 -1.53787,2.90486 -4.44272,2.56311 -4.44272,2.56311 0,0 2.39223,2.22136 4.95534,2.22136 2.5631,0 4.95534,3.2466 4.95534,3.2466 0,0 -1.19612,-0.85437 -3.75923,-0.51262 -2.5631,0.34175 -5.12621,2.22136 -5.12621,2.22136 0,0 -3.07573,2.39223 -6.66408,-1.19612 -3.58835,-3.58835 -8.20194,-1.02524 -8.20194,-1.02524 z"
         style="opacity:1;fill:#ffffff;fill-opacity:1;stroke:none;stroke-width:2;stroke-linecap:round;stroke-linejoin:round;stroke-miterlimit:4;stroke-dasharray:none;stroke-opacity:1" />
      <g
         clip-path="url(#clipPath4401)"
         transform="translate(-0.04419416,-1.3478416e-7)"
         id="g4394">
        <path
           style="opacity:1;fill:#000000;fill-opacity:1;stroke:none;stroke-width:2;stroke-linecap:round;stroke-linejoin:round;stroke-miterlimit:4;stroke-dasharray:none;stroke-opacity:1"
           d="m 594.79625,562.08042 -2.83942,5.61841 -2.93003,-8.00473 z"
           id="path4392"
           inkscape:connector-curvature="0"
           sodipodi:nodetypes="cccc" />
        <path
           style="opacity:1;fill:#008000;fill-opacity:1;stroke:none;stroke-width:2;stroke-linecap:round;stroke-linejoin:round;stroke-miterlimit:4;stroke-dasharray:none;stroke-opacity:1"
           d="m 594.79624,562.08042 -3.05085,4.80283 6.28295,-0.63434 z"
           id="path4390"
           inkscape:connector-curvature="0"
           sodipodi:nodetypes="cccc" />
        <path
           style="opacity:1;fill:#ffff00;fill-opacity:1;stroke:none;stroke-width:2;stroke-linecap:round;stroke-linejoin:round;stroke-miterlimit:4;stroke-dasharray:none;stroke-opacity:1"
           d="m 594.76604,562.05021 3.56436,5.25593 0.21145,-6.67564 z"
           id="path4388"
           inkscape:connector-curvature="0"
           sodipodi:nodetypes="cccc" />
        <path
           style="opacity:1;fill:#0000ff;fill-opacity:1;stroke:none;stroke-width:2;stroke-linecap:round;stroke-linejoin:round;stroke-miterlimit:4;stroke-dasharray:none;stroke-opacity:1"
           d="m 594.01087,557.48903 0.75517,4.59139 4.95386,-1.05723 z"
           id="path4386"
           inkscape:connector-curvature="0"
           sodipodi:nodetypes="cccc" />
        <path
           style="opacity:1;fill:#ff0000;fill-opacity:1;stroke:none;stroke-width:2;stroke-linecap:round;stroke-linejoin:round;stroke-miterlimit:4;stroke-dasharray:none;stroke-opacity:1"
           d="m 594.34314,556.4318 0.4531,5.64862 -5.73923,-2.23529 z"
           id="path4384"
           inkscape:connector-curvature="0"
           sodipodi:nodetypes="cccc" />
      </g>
      <path
         style="opacity:1;fill:url(#linearGradient4414);fill-opacity:1;stroke:none;stroke-width:2;stroke-linecap:round;stroke-linejoin:round;stroke-miterlimit:4;stroke-dasharray:none;stroke-opacity:1"
         d="m 586.95144,568.96023 0,-13.32815 c 0,0 7.00583,-1.53787 10.4233,1.53786 3.41748,3.07573 6.32233,1.02524 6.32233,1.02524 0,0 3.41748,-2.05048 6.49321,-1.19611 0,0 -3.41748,1.53786 -4.95534,4.44271 -1.53787,2.90486 -4.44272,2.56311 -4.44272,2.56311 0,0 2.39223,2.22136 4.95534,2.22136 2.5631,0 4.95534,3.2466 4.95534,3.2466 0,0 -1.19612,-0.85437 -3.75923,-0.51262 -2.5631,0.34175 -5.12621,2.22136 -5.12621,2.22136 0,0 -3.07573,2.39223 -6.66408,-1.19612 -3.58835,-3.58835 -8.20194,-1.02524 -8.20194,-1.02524 z"
         id="path4406"
         inkscape:connector-curvature="0" />
    </g>
    <g
       id="g5103"
       transform="translate(-24,16.999867)">
      <path
         sodipodi:nodetypes="ccsccscscscscc"
         style="opacity:1;fill:#ffffff;fill-opacity:1;stroke:none;stroke-width:2;stroke-linecap:round;stroke-linejoin:round;stroke-miterlimit:4;stroke-dasharray:none;stroke-opacity:1"
         d="m 203.55284,500.71726 0,-13.32815 c 0,0 6.71501,-1.26941 10.4233,1.2285 3.11065,2.09534 6.50539,1.03283 6.50539,1.03283 0,0 3.94467,-1.49426 6.3954,-0.70239 0,0 -3.17506,0.4589 -4.9339,3.84988 -1.51335,2.91771 -4.23691,2.964 -4.23691,2.964 0,0 1.20686,1.86685 3.76784,2.22136 3.03669,0.42036 5.64284,2.10643 5.64284,2.10643 0,0 -1.25862,-0.1517 -3.82173,0.19007 -2.5631,0.34175 -4.56057,1.39369 -4.56057,1.39369 0,0 -4.53383,1.95467 -8.91722,-0.0559 -3.64572,-1.67226 -6.26444,-0.90024 -6.26444,-0.90024 z"
         id="path5053"
         inkscape:connector-curvature="0" />
      <g
         id="g5055"
         transform="translate(-383.66376,-67.933605)"
         clip-path="url(#clipPath4401)">
        <path
           sodipodi:nodetypes="cccc"
           inkscape:connector-curvature="0"
           id="path5057"
           d="m 594.79625,562.08042 -2.83942,5.61841 -2.93003,-8.00473 z"
           style="opacity:1;fill:#000000;fill-opacity:1;stroke:none;stroke-width:2;stroke-linecap:round;stroke-linejoin:round;stroke-miterlimit:4;stroke-dasharray:none;stroke-opacity:1" />
        <path
           sodipodi:nodetypes="cccc"
           inkscape:connector-curvature="0"
           id="path5059"
           d="m 594.79624,562.08042 -3.05085,4.80283 6.28295,-0.63434 z"
           style="opacity:1;fill:#008000;fill-opacity:1;stroke:none;stroke-width:2;stroke-linecap:round;stroke-linejoin:round;stroke-miterlimit:4;stroke-dasharray:none;stroke-opacity:1" />
        <path
           sodipodi:nodetypes="cccc"
           inkscape:connector-curvature="0"
           id="path5061"
           d="m 594.76604,562.05021 3.56436,5.25593 0.21145,-6.67564 z"
           style="opacity:1;fill:#ffff00;fill-opacity:1;stroke:none;stroke-width:2;stroke-linecap:round;stroke-linejoin:round;stroke-miterlimit:4;stroke-dasharray:none;stroke-opacity:1" />
        <path
           sodipodi:nodetypes="cccc"
           inkscape:connector-curvature="0"
           id="path5063"
           d="m 594.01087,557.48903 0.75517,4.59139 4.95386,-1.05723 z"
           style="opacity:1;fill:#0000ff;fill-opacity:1;stroke:none;stroke-width:2;stroke-linecap:round;stroke-linejoin:round;stroke-miterlimit:4;stroke-dasharray:none;stroke-opacity:1" />
        <path
           sodipodi:nodetypes="cccc"
           inkscape:connector-curvature="0"
           id="path5065"
           d="m 594.34314,556.4318 0.4531,5.64862 -5.73923,-2.23529 z"
           style="opacity:1;fill:#ff0000;fill-opacity:1;stroke:none;stroke-width:2;stroke-linecap:round;stroke-linejoin:round;stroke-miterlimit:4;stroke-dasharray:none;stroke-opacity:1" />
      </g>
      <path
         inkscape:connector-curvature="0"
         id="path5079"
         d="m 203.55284,500.71726 0,-13.32815 c 0,0 6.71501,-1.26941 10.4233,1.2285 3.11065,2.09534 6.50539,1.03283 6.50539,1.03283 0,0 3.94467,-1.49426 6.3954,-0.70239 0,0 -3.17506,0.4589 -4.9339,3.84988 -1.51335,2.91771 -4.23691,2.964 -4.23691,2.964 0,0 1.20686,1.86685 3.76784,2.22136 3.03669,0.42036 5.64284,2.10643 5.64284,2.10643 0,0 -1.25862,-0.1517 -3.82173,0.19007 -2.5631,0.34175 -4.56057,1.39369 -4.56057,1.39369 0,0 -4.53383,1.95467 -8.91722,-0.0559 -3.64572,-1.67226 -6.26444,-0.90024 -6.26444,-0.90024 z"
         style="opacity:1;fill:url(#linearGradient5087);fill-opacity:1;stroke:none;stroke-width:2;stroke-linecap:round;stroke-linejoin:round;stroke-miterlimit:4;stroke-dasharray:none;stroke-opacity:1"
         sodipodi:nodetypes="ccsccscscscscc" />
    </g>
    <g
       id="g5167"
       transform="translate(0,-17.000111)">
      <path
         inkscape:connector-curvature="0"
         id="path5115"
         d="m 179.55284,504.38898 c 0,0 6.58849,-1.12704 10.06974,0.83075 2.98804,1.68042 6.72637,1.07703 6.72637,1.07703 0,0 4.29822,-0.78716 6.74895,0.005 0,0 -2.85002,1.03727 -4.80132,3.40794 -1.80374,2.19142 -4.19271,2.52206 -4.19271,2.52206 0,0 1.73719,1.91104 3.85623,2.35394 3.0008,0.6272 5.37767,3.03451 5.37767,3.03451 0,0 -2.00992,-0.50525 -4.57303,-0.16348 -2.5631,0.34175 -4.11862,0.95174 -4.11862,0.95174 0,0 -3.56157,1.38015 -7.98915,0.16508 -3.86794,-1.06149 -7.10413,0.14395 -7.10413,0.14395 z"
         style="opacity:1;fill:#ffffff;fill-opacity:1;stroke:none;stroke-width:2;stroke-linecap:round;stroke-linejoin:round;stroke-miterlimit:4;stroke-dasharray:none;stroke-opacity:1"
         sodipodi:nodetypes="csccscscscscc" />
      <g
         clip-path="url(#clipPath4401)"
         transform="matrix(1,-0.07590968,0,1,-407.66376,-5.8300296)"
         id="g5117">
        <path
           style="opacity:1;fill:#000000;fill-opacity:1;stroke:none;stroke-width:2;stroke-linecap:round;stroke-linejoin:round;stroke-miterlimit:4;stroke-dasharray:none;stroke-opacity:1"
           d="m 594.79625,562.08042 -2.83942,5.61841 -2.93003,-8.00473 z"
           id="path5119"
           inkscape:connector-curvature="0"
           sodipodi:nodetypes="cccc" />
        <path
           style="opacity:1;fill:#008000;fill-opacity:1;stroke:none;stroke-width:2;stroke-linecap:round;stroke-linejoin:round;stroke-miterlimit:4;stroke-dasharray:none;stroke-opacity:1"
           d="m 594.79624,562.08042 -3.05085,4.80283 6.28295,-0.63434 z"
           id="path5121"
           inkscape:connector-curvature="0"
           sodipodi:nodetypes="cccc" />
        <path
           style="opacity:1;fill:#ffff00;fill-opacity:1;stroke:none;stroke-width:2;stroke-linecap:round;stroke-linejoin:round;stroke-miterlimit:4;stroke-dasharray:none;stroke-opacity:1"
           d="m 594.76604,562.05021 3.56436,5.25593 0.21145,-6.67564 z"
           id="path5123"
           inkscape:connector-curvature="0"
           sodipodi:nodetypes="cccc" />
        <path
           style="opacity:1;fill:#0000ff;fill-opacity:1;stroke:none;stroke-width:2;stroke-linecap:round;stroke-linejoin:round;stroke-miterlimit:4;stroke-dasharray:none;stroke-opacity:1"
           d="m 594.01087,557.48903 0.75517,4.59139 4.95386,-1.05723 z"
           id="path5125"
           inkscape:connector-curvature="0"
           sodipodi:nodetypes="cccc" />
        <path
           style="opacity:1;fill:#ff0000;fill-opacity:1;stroke:none;stroke-width:2;stroke-linecap:round;stroke-linejoin:round;stroke-miterlimit:4;stroke-dasharray:none;stroke-opacity:1"
           d="m 594.34314,556.4318 0.4531,5.64862 -5.73923,-2.23529 z"
           id="path5127"
           inkscape:connector-curvature="0"
           sodipodi:nodetypes="cccc" />
      </g>
      <path
         sodipodi:nodetypes="csccscscscscc"
         style="opacity:1;fill:url(#linearGradient5149);fill-opacity:1;stroke:none;stroke-width:2;stroke-linecap:round;stroke-linejoin:round;stroke-miterlimit:4;stroke-dasharray:none;stroke-opacity:1"
         d="m 179.55284,504.38898 c 0,0 6.58849,-1.12704 10.06974,0.83075 2.98804,1.68042 6.72637,1.07703 6.72637,1.07703 0,0 4.29822,-0.78716 6.74895,0.005 0,0 -2.85002,1.03727 -4.80132,3.40794 -1.80374,2.19142 -4.19271,2.52206 -4.19271,2.52206 0,0 1.73719,1.91104 3.85623,2.35394 3.0008,0.6272 5.37767,3.03451 5.37767,3.03451 0,0 -2.00992,-0.50525 -4.57303,-0.16348 -2.5631,0.34175 -4.11862,0.95174 -4.11862,0.95174 0,0 -3.56157,1.38015 -7.98915,0.16508 -3.86794,-1.06149 -7.10413,0.14395 -7.10413,0.14395 z"
         id="path5141"
         inkscape:connector-curvature="0" />
    </g>
  </g>
</svg>
